<svg width="22" height="35" viewBox="0 0 22 35" fill="none" xmlns="http://www.w3.org/2000/svg">
<path d="M5.42927 0H5.63415L5.90732 0.545277C5.99837 0.681595 6.14634 0.806553 6.35122 0.920155C6.5561 1.03375 6.77236 1.06783 7 1.02239H7.92195C8.01301 0.976955 8.10406 0.931515 8.19512 0.886074C8.28618 0.840633 8.37724 0.817913 8.46829 0.817913C8.55935 0.817913 8.66748 0.806553 8.79268 0.783836C8.91789 0.761116 9.02602 0.749756 9.11707 0.749756V0.817913C9.02602 0.863354 8.98618 0.925835 8.99756 1.00535C9.00894 1.08487 9.01463 1.14735 9.01463 1.19279C9.06016 1.37455 9.13984 1.51087 9.25366 1.60175C9.36748 1.69263 9.57236 1.73807 9.86829 1.73807C9.91382 1.73807 9.97073 1.74375 10.039 1.75511C10.1073 1.76647 10.1642 1.79487 10.2098 1.84031C10.3463 1.93119 10.5114 2.01639 10.7049 2.09591C10.8984 2.17543 11.0179 2.30607 11.0634 2.48783V2.55599C11.1545 2.64687 11.2455 2.72639 11.3366 2.79454C11.4276 2.86271 11.5415 2.94223 11.678 3.0331C11.7236 3.0331 11.7862 3.01606 11.8659 2.98198C11.9455 2.94791 11.9854 2.93087 11.9854 2.93087C12.0764 3.06718 12.1675 3.1183 12.2585 3.08422C12.3496 3.05014 12.4407 3.0331 12.5317 3.0331C12.6228 3.0331 12.7309 3.05014 12.8561 3.08422C12.9813 3.1183 13.0894 3.15806 13.1805 3.2035C13.3171 3.29438 13.4537 3.4023 13.5902 3.52726C13.7268 3.65222 13.8634 3.76014 14 3.85102C14.0911 3.89646 14.1423 3.94758 14.1537 4.00438C14.165 4.06118 14.148 4.13502 14.1024 4.2259C14.0569 4.27134 14.0398 4.34518 14.0512 4.44742C14.0626 4.54966 14.1366 4.6235 14.2732 4.66894C14.4098 4.71438 14.4951 4.78254 14.5293 4.87342C14.5634 4.9643 14.626 5.05518 14.7171 5.14606C14.8081 5.19149 14.8537 5.25397 14.8537 5.33349C14.8537 5.41301 14.8081 5.47549 14.7171 5.52093C14.6715 5.56637 14.626 5.59477 14.5805 5.60613C14.535 5.61749 14.4894 5.64589 14.4439 5.69133C14.3984 5.73677 14.3585 5.76517 14.3244 5.77653C14.2902 5.78789 14.2732 5.81629 14.2732 5.86173L14.4439 6.06621C14.4439 6.02077 14.461 5.97533 14.4951 5.92989C14.5293 5.88445 14.5463 5.83901 14.5463 5.79357C14.5919 5.70269 14.6545 5.63453 14.7341 5.58909C14.8138 5.54365 14.8992 5.54365 14.9902 5.58909C15.1041 5.63453 15.2065 5.68565 15.2976 5.74245C15.3886 5.79925 15.4797 5.87309 15.5707 5.96397L15.0927 6.50925L15.1951 6.61149L15.8439 6.23661C16.0715 6.41837 16.322 6.54333 16.5951 6.61149C16.8683 6.67965 17.1642 6.73645 17.4829 6.78189V7.15676C17.5285 7.15676 17.574 7.15676 17.6195 7.15676C17.665 7.15676 17.7106 7.12269 17.7561 7.05453H19.1561C19.3837 7.00909 19.6057 7.02613 19.822 7.10565C20.0382 7.18517 20.2146 7.29309 20.3512 7.42941C20.4878 7.56572 20.6244 7.685 20.761 7.78724C20.8976 7.88948 21.0341 7.98604 21.1707 8.07692C21.3528 8.1678 21.5008 8.26436 21.6146 8.3666C21.7285 8.46884 21.8309 8.58812 21.922 8.72444C22.013 8.9062 22.0244 9.11068 21.9561 9.33788C21.8878 9.56507 21.8081 9.79227 21.7171 10.0195C21.6715 10.1104 21.6431 10.1956 21.6317 10.2751C21.6203 10.3546 21.5919 10.4171 21.5463 10.4625C21.5463 10.5079 21.5407 10.5534 21.5293 10.5988C21.5179 10.6443 21.4894 10.667 21.4439 10.667C21.3073 10.7124 21.2049 10.7749 21.1366 10.8544C21.0683 10.9339 20.9886 11.0191 20.8976 11.11C20.7154 11.2918 20.5447 11.4622 20.3854 11.6212C20.226 11.7803 20.1236 11.9507 20.078 12.1324V12.4732C20.078 12.5414 20.0894 12.6095 20.1122 12.6777C20.135 12.7459 20.1463 12.8027 20.1463 12.8481V14.1431C20.0553 14.2795 19.9699 14.4158 19.8902 14.5521C19.8106 14.6884 19.748 14.8247 19.7024 14.9611C19.6114 15.0974 19.5431 15.2507 19.4976 15.4211C19.452 15.5915 19.4293 15.7449 19.4293 15.8812C19.4293 16.063 19.361 16.1766 19.2244 16.222C19.0878 16.2674 18.974 16.3356 18.8829 16.4265C18.6553 16.5628 18.3992 16.6423 18.1146 16.665C17.8301 16.6878 17.5967 16.8014 17.4146 17.0058H17.3122C17.1756 17.0967 17.0333 17.1706 16.8854 17.2274C16.7374 17.2842 16.5724 17.358 16.3902 17.4489C16.2992 17.4943 16.2081 17.5568 16.1171 17.6363C16.026 17.7158 15.935 17.801 15.8439 17.8919C15.8439 17.8919 15.8382 17.9146 15.8268 17.9601C15.8154 18.0055 15.787 18.051 15.7415 18.0964C15.6504 18.2327 15.6106 18.3861 15.622 18.5565C15.6333 18.7269 15.639 18.9143 15.639 19.1188C15.639 19.1642 15.639 19.204 15.639 19.2381C15.639 19.2722 15.6163 19.2892 15.5707 19.2892C15.3886 19.471 15.2008 19.6413 15.0073 19.8004C14.8138 19.9594 14.6943 20.1525 14.6488 20.3797C14.6033 20.3797 14.5407 20.3968 14.461 20.4309C14.3813 20.4649 14.3187 20.482 14.2732 20.482C14.2276 20.6183 14.1821 20.7376 14.1366 20.8398C14.0911 20.9421 14.0455 21.0613 14 21.1977C13.9545 21.3567 13.8976 21.5157 13.8293 21.6748C13.761 21.8338 13.6358 21.9588 13.4537 22.0497C13.3626 22.1405 13.2659 22.2257 13.1634 22.3053C13.061 22.3848 12.9415 22.4473 12.8049 22.4927C12.6683 22.5381 12.5317 22.5609 12.3951 22.5609C12.2585 22.5609 12.122 22.6063 11.9854 22.6972H11.8829C11.7463 22.6517 11.6098 22.6063 11.4732 22.5609C11.3366 22.5154 11.2 22.4927 11.0634 22.4927H10.8585C10.8585 22.5381 10.8642 22.5836 10.8756 22.629C10.887 22.6745 10.9154 22.6972 10.961 22.6972C11.0065 22.7426 11.0577 22.7653 11.1146 22.7653C11.1715 22.7653 11.2455 22.7653 11.3366 22.7653C11.4276 22.8108 11.4902 22.8449 11.5244 22.8676C11.5585 22.8903 11.5528 22.9471 11.5073 23.038C11.4618 23.1289 11.4447 23.2141 11.4561 23.2936C11.4675 23.3731 11.5415 23.4129 11.678 23.4129C11.7919 23.4583 11.8488 23.5094 11.8488 23.5662C11.8488 23.623 11.826 23.6969 11.7805 23.7877L11.2341 24.333C10.961 24.5148 10.6593 24.6624 10.3293 24.776C9.99919 24.8896 9.62927 24.9237 9.21951 24.8783C9.21951 24.9237 9.21951 24.9692 9.21951 25.0146C9.21951 25.06 9.24228 25.1055 9.28781 25.1509V25.3554C9.28781 25.4008 9.27642 25.4633 9.25366 25.5428C9.2309 25.6224 9.21951 25.6848 9.21951 25.7303C9.21951 25.8212 9.19675 25.8893 9.15122 25.9348C9.10569 25.9802 9.0374 26.0256 8.94634 26.0711C8.85528 26.0711 8.76423 26.0711 8.67317 26.0711C8.58211 26.0711 8.47968 26.0484 8.36585 26.0029C8.32033 26.0029 8.25772 25.9802 8.17805 25.9348C8.09837 25.8893 8.01301 25.8439 7.92195 25.7984C7.92195 25.9348 7.93902 26.037 7.97317 26.1052C8.00732 26.1733 8.02439 26.2528 8.02439 26.3437C8.02439 26.4346 8.04715 26.5084 8.09268 26.5652C8.13821 26.622 8.2065 26.6732 8.29756 26.7186C8.34309 26.7186 8.39431 26.7016 8.45122 26.6675C8.50813 26.6334 8.58211 26.6164 8.67317 26.6164C8.7187 26.6618 8.75285 26.7129 8.77561 26.7697C8.79837 26.8265 8.78699 26.9004 8.74146 26.9912C8.69594 27.0367 8.65041 27.0594 8.60488 27.0594C8.55935 27.0594 8.47968 27.0367 8.36585 26.9912H8.09268L8.29756 27.2639C7.97886 27.3093 7.77398 27.3775 7.68293 27.4684C7.59187 27.5592 7.54634 27.6842 7.54634 27.8432C7.54634 27.9341 7.53496 28.0193 7.5122 28.0988C7.48943 28.1784 7.40976 28.2408 7.27317 28.2863C7.18211 28.3317 7.09675 28.3772 7.01707 28.4226C6.9374 28.468 6.8748 28.5135 6.82927 28.5589C6.69268 28.6498 6.60163 28.7463 6.5561 28.8486C6.51057 28.9508 6.51057 29.0701 6.5561 29.2064C6.60163 29.3427 6.66992 29.4393 6.76098 29.4961C6.85203 29.5529 6.98862 29.604 7.17073 29.6495C7.26179 29.6495 7.3187 29.6722 7.34146 29.7176C7.36423 29.7631 7.37561 29.8085 7.37561 29.8539C7.37561 29.8994 7.35285 29.9448 7.30732 29.9903C7.26179 30.0357 7.21626 30.0811 7.17073 30.1266C7.03415 30.3083 6.8748 30.4787 6.69268 30.6378C6.51057 30.7968 6.39675 30.9899 6.35122 31.2171L6.24878 31.3194C6.06667 31.5011 5.92439 31.6772 5.82195 31.8476C5.71951 32.018 5.71382 32.2395 5.80488 32.5122C5.85041 32.6031 5.89594 32.6769 5.94146 32.7337C5.98699 32.7905 6.03252 32.8643 6.07805 32.9552C6.03252 32.9552 5.98699 32.9438 5.94146 32.9211C5.89594 32.8984 5.85041 32.887 5.80488 32.887C5.75935 32.887 5.71382 32.887 5.66829 32.887C5.62276 32.887 5.57724 32.9098 5.53171 32.9552L5.70244 33.1597H5.90732C5.99837 33.1597 6.05528 33.1938 6.07805 33.2619C6.10081 33.3301 6.06667 33.3869 5.97561 33.4323L5.90732 33.5346H5.97561C6.02114 33.58 6.06667 33.6254 6.1122 33.6709C6.15772 33.7163 6.18049 33.7618 6.18049 33.8072C6.22602 33.989 6.32276 34.131 6.47073 34.2332C6.6187 34.3354 6.82927 34.4093 7.10244 34.4547C7.1935 34.4547 7.26748 34.4547 7.32439 34.4547C7.3813 34.4547 7.45528 34.4774 7.54634 34.5229V34.6251C7.3187 34.6706 7.08537 34.733 6.84634 34.8126C6.60732 34.8921 6.35122 34.8864 6.07805 34.7955C6.07805 34.841 6.08374 34.8864 6.09512 34.9318C6.1065 34.9773 6.13496 35 6.18049 35V34.8978L5.70244 34.6251V34.8978H5.63415L5.1561 34.4547L5.05366 34.7274C5.00813 34.6365 4.95122 34.5399 4.88293 34.4377C4.81463 34.3354 4.66667 34.3411 4.43902 34.4547V34.3525L4.7122 34.148V33.8754C4.80325 33.9208 4.87154 33.9662 4.91707 34.0117C4.9626 34.0571 5.00813 34.1026 5.05366 34.148V33.8072H5.1561L5.25854 34.148H5.36098C5.36098 34.0571 5.37236 33.9549 5.39512 33.8413C5.41789 33.7277 5.49756 33.6482 5.63415 33.6027H5.42927C5.38374 33.6027 5.33821 33.5914 5.29268 33.5686C5.24715 33.5459 5.20163 33.5346 5.1561 33.5346C5.20163 33.4891 5.23577 33.4437 5.25854 33.3982C5.2813 33.3528 5.31545 33.3301 5.36098 33.3301C5.4065 33.3301 5.43496 33.313 5.44634 33.279C5.45772 33.2449 5.48618 33.2051 5.53171 33.1597C5.30407 33.2051 5.1561 33.2562 5.0878 33.313C5.01951 33.3698 4.98537 33.4664 4.98537 33.6027C4.98537 33.739 4.95691 33.8299 4.9 33.8754C4.84309 33.9208 4.74634 33.9208 4.60976 33.8754H4.43902V34.148C4.3935 34.148 4.34797 34.148 4.30244 34.148C4.25691 34.148 4.23415 34.1253 4.23415 34.0798C4.18862 34.0344 4.16016 33.989 4.14878 33.9435C4.1374 33.8981 4.10894 33.8526 4.06341 33.8072L4.16585 33.705C4.16585 33.6141 4.18862 33.5516 4.23415 33.5175C4.27968 33.4834 4.37073 33.4891 4.50732 33.5346C4.59837 33.58 4.66667 33.5686 4.7122 33.5005C4.75772 33.4323 4.75772 33.3414 4.7122 33.2278L3.79024 33.5346L3.6878 33.4323C3.73333 33.3869 3.77886 33.3301 3.82439 33.2619C3.86992 33.1938 3.91545 33.1597 3.96098 33.1597C4.05203 33.1142 4.14878 33.0858 4.25122 33.0745C4.35366 33.0631 4.47317 33.0574 4.60976 33.0574V32.9552C4.42764 32.8643 4.25691 32.853 4.09756 32.9211C3.93821 32.9893 3.76748 33.0688 3.58537 33.1597V32.887L4.06341 32.6826L3.85854 32.4099L3.6878 32.6826C3.64228 32.6371 3.61382 32.6144 3.60244 32.6144C3.59106 32.6144 3.5626 32.6144 3.51707 32.6144C3.51707 32.569 3.5 32.5349 3.46585 32.5122C3.43171 32.4895 3.41463 32.4554 3.41463 32.4099L3.58537 32.2395C3.53984 32.2395 3.49431 32.2282 3.44878 32.2055C3.40325 32.1827 3.35772 32.1941 3.3122 32.2395C3.22114 32.2395 3.14146 32.2055 3.07317 32.1373C3.00488 32.0691 2.9935 32.0123 3.03902 31.9669C3.17561 31.876 3.24959 31.7511 3.26098 31.592C3.27236 31.433 3.32358 31.2853 3.41463 31.149V30.9445H3.3122C3.3122 30.9899 3.3122 31.0354 3.3122 31.0808C3.3122 31.1263 3.28943 31.1717 3.2439 31.2171C3.2439 31.2626 3.22114 31.291 3.17561 31.3023C3.13008 31.3137 3.08455 31.3194 3.03902 31.3194C2.94797 31.2739 2.88537 31.2228 2.85122 31.166C2.81707 31.1092 2.84553 31.0354 2.93659 30.9445L3.2439 30.6719C3.2439 30.6264 3.2439 30.598 3.2439 30.5867C3.2439 30.5753 3.26667 30.5469 3.3122 30.5015H3.2439L3.03902 30.6719H2.93659C2.93659 30.6264 2.93659 30.5639 2.93659 30.4844C2.93659 30.4049 2.91382 30.3424 2.86829 30.297H3.2439L3.3122 30.2288C3.17561 30.1834 3.1187 30.1209 3.14146 30.0414C3.16423 29.9619 3.22114 29.8994 3.3122 29.8539C3.3122 29.8539 3.32927 29.8312 3.36341 29.7858C3.39756 29.7403 3.41463 29.6949 3.41463 29.6495C3.41463 29.6495 3.39756 29.6381 3.36341 29.6154C3.32927 29.5927 3.28943 29.5813 3.2439 29.5813C3.19837 29.5813 3.14715 29.5643 3.09024 29.5302C3.03333 29.4961 2.98211 29.4791 2.93659 29.4791C2.89106 29.4791 2.86829 29.462 2.86829 29.4279C2.86829 29.3939 2.89106 29.3541 2.93659 29.3087V28.9338C3.05041 28.8883 3.13577 28.8429 3.19268 28.7975C3.24959 28.752 3.32358 28.7066 3.41463 28.6611L3.2439 28.3885L3.3122 28.2863C3.35772 28.3317 3.40325 28.3601 3.44878 28.3715C3.49431 28.3828 3.51707 28.4112 3.51707 28.4567C3.51707 28.5021 3.51138 28.5475 3.5 28.593C3.48862 28.6384 3.46016 28.6839 3.41463 28.7293C3.32358 28.8202 3.29512 28.894 3.32927 28.9508C3.36341 29.0076 3.44878 29.0587 3.58537 29.1042C3.53984 29.0133 3.52846 28.9281 3.55122 28.8486C3.57398 28.7691 3.65366 28.7293 3.79024 28.7293V28.184C3.83577 28.0023 3.86423 27.8035 3.87561 27.5876C3.88699 27.3718 3.91545 27.173 3.96098 26.9912C4.0065 26.9004 4.0122 26.8265 3.97805 26.7697C3.9439 26.7129 3.90407 26.6391 3.85854 26.5482C3.72195 26.6391 3.64228 26.73 3.61951 26.8208C3.59675 26.9117 3.58537 27.0026 3.58537 27.0935V27.3661C3.58537 27.457 3.5626 27.5195 3.51707 27.5536C3.47154 27.5876 3.38049 27.582 3.2439 27.5365V27.2639C3.28943 27.173 3.3065 27.0821 3.29512 26.9912C3.28374 26.9004 3.32358 26.8095 3.41463 26.7186C3.46016 26.6732 3.47724 26.5936 3.46585 26.48C3.45447 26.3664 3.47154 26.2642 3.51707 26.1733C3.51707 26.0824 3.54553 25.9745 3.60244 25.8496C3.65935 25.7246 3.6878 25.6167 3.6878 25.5258V25.1509C3.64228 25.0146 3.61951 24.901 3.61951 24.8101C3.61951 24.7192 3.64228 24.617 3.6878 24.5034C3.77886 24.3216 3.85285 24.1569 3.90976 24.0092C3.96667 23.8616 4.01789 23.6969 4.06341 23.5151C4.10894 23.3788 4.1374 23.2254 4.14878 23.055C4.16016 22.8846 4.18862 22.7313 4.23415 22.5949C4.3252 22.3223 4.3935 22.0497 4.43902 21.777C4.48455 21.5044 4.48455 21.2204 4.43902 20.925C4.43902 20.8796 4.45041 20.8228 4.47317 20.7546C4.49593 20.6865 4.50732 20.6297 4.50732 20.5842C4.55285 20.4479 4.5813 20.3229 4.59268 20.2093C4.60406 20.0957 4.60976 19.9708 4.60976 19.8345V19.187L4.88293 17.6193V16.9036C4.97398 16.631 5.03659 16.3697 5.07073 16.1198C5.10488 15.8698 5.09919 15.6086 5.05366 15.3359C5.00813 15.1996 4.99675 15.0462 5.01951 14.8759C5.04228 14.7055 4.9626 14.5521 4.78049 14.4158C4.55285 14.234 4.31951 14.0523 4.08049 13.8705C3.84146 13.6887 3.5626 13.5297 3.2439 13.3934C2.9935 13.3025 2.82276 13.1775 2.73171 13.0185C2.64065 12.8595 2.52683 12.7118 2.39024 12.5755V12.4732C2.34472 12.3823 2.31626 12.2915 2.30488 12.2006C2.2935 12.1097 2.26504 12.0188 2.21951 11.9279C2.12846 11.7916 2.04878 11.6553 1.98049 11.519C1.9122 11.3827 1.90081 11.2463 1.94634 11.11C1.94634 10.9283 1.90081 10.7749 1.80976 10.65C1.7187 10.525 1.58211 10.4398 1.4 10.3944C1.44553 10.2353 1.45122 10.1444 1.41707 10.1217C1.38293 10.099 1.34309 10.0649 1.29756 10.0195C1.16098 9.79227 1.03577 9.55371 0.921951 9.3038C0.80813 9.05388 0.59187 8.86076 0.273171 8.72444C0.227642 8.679 0.187805 8.63356 0.153659 8.58812C0.119512 8.54268 0.102439 8.49724 0.102439 8.4518C0.239024 8.36092 0.26748 8.27004 0.187805 8.17916C0.10813 8.08828 0.0455285 8.02012 0 7.97468V7.70204C0.136585 7.61116 0.233333 7.52596 0.290244 7.44645C0.347154 7.36692 0.466667 7.30445 0.648781 7.259C0.694309 7.259 0.722764 7.24197 0.734146 7.20789C0.745528 7.17381 0.75122 7.12269 0.75122 7.05453H0.546341C0.500813 6.96365 0.443902 6.89549 0.37561 6.85005C0.307317 6.80461 0.273171 6.75917 0.273171 6.71373C0.227642 6.66829 0.204878 6.62285 0.204878 6.57741C0.204878 6.53197 0.204878 6.48653 0.204878 6.44109C0.204878 6.39565 0.21626 6.35021 0.239024 6.30477C0.261789 6.25933 0.273171 6.21389 0.273171 6.16845C0.273171 6.12301 0.290244 6.08893 0.32439 6.06621C0.358537 6.04349 0.37561 6.00941 0.37561 5.96397C0.466667 5.82765 0.54065 5.70837 0.597561 5.60613C0.654472 5.50389 0.705691 5.40733 0.75122 5.31645C0.75122 5.31645 0.768293 5.30509 0.802439 5.28237C0.836585 5.25965 0.876423 5.24829 0.921951 5.24829C1.01301 5.24829 1.06992 5.22557 1.09268 5.18013C1.11545 5.1347 1.14959 5.06654 1.19512 4.97566C1.19512 4.86206 1.22358 4.7655 1.28049 4.68598C1.3374 4.60646 1.43415 4.54398 1.57073 4.49854C1.70732 4.4531 1.81545 4.34518 1.89512 4.17478C1.9748 4.00438 1.99187 3.86238 1.94634 3.74878C1.94634 3.6579 1.92927 3.55566 1.89512 3.44206C1.86098 3.32846 1.8439 3.22622 1.8439 3.13534C1.8439 2.99902 1.83821 2.85703 1.82683 2.70935C1.81545 2.56167 1.76423 2.41967 1.67317 2.28335C2.0374 1.87439 2.44146 1.46543 2.88537 1.05647C3.32927 0.647514 3.86992 0.352158 4.50732 0.170399C4.55285 0.306717 4.57561 0.448715 4.57561 0.596394C4.57561 0.744076 4.53008 0.886074 4.43902 1.02239L4.7122 1.29503H4.88293V0.920155C4.8374 0.738396 4.82602 0.613434 4.84878 0.545277C4.87154 0.477116 4.97398 0.420315 5.1561 0.374878C5.24715 0.329437 5.32683 0.278316 5.39512 0.221516C5.46341 0.164719 5.4748 0.0908775 5.42927 0ZM10.4146 32.2395L9.93659 32.6826H9.76585V32.5122C9.76585 32.4213 9.82846 32.3418 9.95366 32.2736C10.0789 32.2055 10.2325 32.1941 10.4146 32.2395ZM10.3122 32.6826C10.4033 32.6371 10.4772 32.5803 10.5341 32.5122C10.5911 32.444 10.6764 32.4099 10.7902 32.4099C10.8358 32.4099 10.8813 32.4156 10.9268 32.427C10.9724 32.4383 11.0407 32.4667 11.1317 32.5122C11.0862 32.5576 11.052 32.6031 11.0293 32.6485C11.0065 32.6939 10.9496 32.7394 10.8585 32.7848C10.813 32.7394 10.7447 32.711 10.6537 32.6996C10.5626 32.6883 10.4488 32.6826 10.3122 32.6826Z" fill="black"/>
</svg>
