<svg width="68" height="20" viewBox="0 0 68 20" fill="none" xmlns="http://www.w3.org/2000/svg">
<g clip-path="url(#clip0_1605_14599)">
<path d="M15.4909 6.87568C15.3769 6.96404 13.3641 8.09706 13.3641 10.6164C13.3641 13.5304 15.9253 14.5613 16.002 14.5869C15.9902 14.6497 15.5951 15.9987 14.6516 17.3733C13.8103 18.5829 12.9317 19.7905 11.5951 19.7905C10.2585 19.7905 9.9145 19.0149 8.3715 19.0149C6.86781 19.0149 6.33317 19.816 5.11057 19.816C3.88796 19.816 3.03489 18.6968 2.05405 17.3222C0.917936 15.7081 0 13.2006 0 10.8206C0 7.00331 2.48452 4.9788 4.92973 4.9788C6.22899 4.9788 7.31204 5.83102 8.12776 5.83102C8.90418 5.83102 10.115 4.92775 11.5931 4.92775C12.1533 4.92775 14.1661 4.9788 15.4909 6.87568ZM10.8914 3.31168C11.5027 2.5871 11.9351 1.58171 11.9351 0.576332C11.9351 0.436913 11.9233 0.295532 11.8978 0.181641C10.9032 0.21895 9.7199 0.843386 9.00639 1.67008C8.44619 2.3063 7.92334 3.31168 7.92334 4.3308C7.92334 4.48397 7.94889 4.63713 7.96069 4.68622C8.02359 4.698 8.1258 4.71175 8.22801 4.71175C9.12039 4.71175 10.2428 4.1148 10.8914 3.31168Z" fill="black"/>
</g>
<path d="M37.044 15H35.462L34.58 12.578H30.702L29.82 15H28.28L31.766 5.76H33.558L37.044 15ZM31.122 11.36H34.16L32.648 7.048L31.122 11.36ZM38.4725 17.94V8H39.8025L39.9145 9.96L39.7185 9.722C39.8305 9.358 40.0032 9.036 40.2365 8.756C40.4699 8.476 40.7592 8.25667 41.1045 8.098C41.4592 7.93933 41.8465 7.86 42.2665 7.86C42.8359 7.86 43.3539 8.00467 43.8205 8.294C44.2872 8.58333 44.6559 8.99867 44.9265 9.54C45.1972 10.072 45.3325 10.7207 45.3325 11.486C45.3325 12.2513 45.1925 12.9093 44.9125 13.46C44.6419 14.0013 44.2685 14.4167 43.7925 14.706C43.3259 14.9953 42.8032 15.14 42.2245 15.14C41.6272 15.14 41.1185 14.986 40.6985 14.678C40.2785 14.3607 39.9799 13.9593 39.8025 13.474L39.9705 13.236V17.94H38.4725ZM41.9025 13.922C42.5092 13.922 42.9805 13.7073 43.3165 13.278C43.6619 12.8487 43.8345 12.256 43.8345 11.5C43.8345 10.744 43.6665 10.1513 43.3305 9.722C42.9945 9.28333 42.5279 9.064 41.9305 9.064C41.5385 9.064 41.1932 9.16667 40.8945 9.372C40.6052 9.568 40.3765 9.848 40.2085 10.212C40.0499 10.5667 39.9705 10.996 39.9705 11.5C39.9705 11.9947 40.0499 12.424 40.2085 12.788C40.3672 13.152 40.5912 13.432 40.8805 13.628C41.1699 13.824 41.5105 13.922 41.9025 13.922ZM47.2499 17.94V8H48.5799L48.6919 9.96L48.4959 9.722C48.6079 9.358 48.7806 9.036 49.0139 8.756C49.2472 8.476 49.5366 8.25667 49.8819 8.098C50.2366 7.93933 50.6239 7.86 51.0439 7.86C51.6132 7.86 52.1312 8.00467 52.5979 8.294C53.0646 8.58333 53.4332 8.99867 53.7039 9.54C53.9746 10.072 54.1099 10.7207 54.1099 11.486C54.1099 12.2513 53.9699 12.9093 53.6899 13.46C53.4192 14.0013 53.0459 14.4167 52.5699 14.706C52.1032 14.9953 51.5806 15.14 51.0019 15.14C50.4046 15.14 49.8959 14.986 49.4759 14.678C49.0559 14.3607 48.7572 13.9593 48.5799 13.474L48.7479 13.236V17.94H47.2499ZM50.6799 13.922C51.2866 13.922 51.7579 13.7073 52.0939 13.278C52.4392 12.8487 52.6119 12.256 52.6119 11.5C52.6119 10.744 52.4439 10.1513 52.1079 9.722C51.7719 9.28333 51.3052 9.064 50.7079 9.064C50.3159 9.064 49.9706 9.16667 49.6719 9.372C49.3826 9.568 49.1539 9.848 48.9859 10.212C48.8272 10.5667 48.7479 10.996 48.7479 11.5C48.7479 11.9947 48.8272 12.424 48.9859 12.788C49.1446 13.152 49.3686 13.432 49.6579 13.628C49.9472 13.824 50.2879 13.922 50.6799 13.922ZM57.4832 4.85V13.04C57.4832 13.3853 57.5439 13.6233 57.6652 13.754C57.7866 13.8847 57.9872 13.95 58.2672 13.95C58.4352 13.95 58.5752 13.9407 58.6872 13.922C58.8086 13.894 58.9579 13.8473 59.1352 13.782L58.9672 14.902C58.8086 14.9767 58.6266 15.0327 58.4212 15.07C58.2159 15.1167 58.0106 15.14 57.8052 15.14C57.1799 15.14 56.7179 14.9813 56.4192 14.664C56.1299 14.3373 55.9852 13.838 55.9852 13.166V4.85H57.4832ZM63.4686 15.14C62.7686 15.14 62.1526 14.9953 61.6206 14.706C61.0886 14.4167 60.6732 14.0013 60.3746 13.46C60.0852 12.9093 59.9406 12.256 59.9406 11.5C59.9406 10.744 60.0852 10.0953 60.3746 9.554C60.6732 9.00333 61.0839 8.58333 61.6066 8.294C62.1292 8.00467 62.7219 7.86 63.3846 7.86C64.0659 7.86 64.6446 8 65.1206 8.28C65.5966 8.56 65.9606 8.94267 66.2126 9.428C66.4646 9.91333 66.5906 10.464 66.5906 11.08C66.5906 11.248 66.5859 11.4067 66.5766 11.556C66.5672 11.7053 66.5532 11.836 66.5346 11.948H60.9066V10.8H65.8766L65.1346 11.024C65.1346 10.3893 64.9759 9.904 64.6586 9.568C64.3412 9.22267 63.9072 9.05 63.3566 9.05C62.9552 9.05 62.6052 9.14333 62.3066 9.33C62.0079 9.51667 61.7792 9.79667 61.6206 10.17C61.4619 10.534 61.3826 10.982 61.3826 11.514C61.3826 12.0367 61.4666 12.48 61.6346 12.844C61.8026 13.208 62.0406 13.4833 62.3486 13.67C62.6566 13.8567 63.0206 13.95 63.4406 13.95C63.9072 13.95 64.2852 13.8613 64.5746 13.684C64.8639 13.5067 65.0926 13.2593 65.2606 12.942L66.4506 13.502C66.2826 13.838 66.0539 14.132 65.7646 14.384C65.4846 14.6267 65.1486 14.8133 64.7566 14.944C64.3646 15.0747 63.9352 15.14 63.4686 15.14Z" fill="#202020"/>
<defs>
<clipPath id="clip0_1605_14599">
<rect width="16" height="19.6364" fill="white" transform="translate(0 0.181641)"/>
</clipPath>
</defs>
</svg>
