<svg width="35" height="35" viewBox="0 0 35 35" fill="none" xmlns="http://www.w3.org/2000/svg">
<path d="M27.5907 0.0227966C27.5449 0.0455894 27.5049 0.0740814 27.4706 0.108273C27.4363 0.142464 27.4077 0.170956 27.3848 0.193752L27.2476 0.330513C27.2476 0.330513 27.2476 0.319118 27.2476 0.296322C27.2476 0.273529 27.2362 0.250736 27.2133 0.22794C27.2133 0.159561 27.2019 0.113972 27.179 0.0911789C27.1562 0.0683823 27.1219 0.0569878 27.0761 0.0569878C27.0075 0.0341949 26.9561 0.0398903 26.9218 0.0740814C26.8875 0.108273 26.8703 0.182354 26.8703 0.296322C26.8703 0.364704 26.8703 0.404594 26.8703 0.415989C26.8703 0.427387 26.8589 0.433086 26.836 0.433086C26.7903 0.433086 26.756 0.438786 26.7331 0.45018C26.7102 0.461578 26.6874 0.478672 26.6645 0.501469C26.6416 0.524261 26.6188 0.541355 26.5959 0.552753C26.573 0.564152 26.5616 0.558453 26.5616 0.53566C26.5616 0.53566 26.5616 0.524261 26.5616 0.501469C26.5616 0.478672 26.573 0.455879 26.5959 0.433086C26.5959 0.364704 26.5959 0.313419 26.5959 0.279228C26.5959 0.245037 26.5844 0.216545 26.5616 0.193752C26.5158 0.148163 26.4701 0.136765 26.4244 0.159561C26.3786 0.182354 26.2986 0.22794 26.1843 0.296322C26.1157 0.341911 26.0642 0.376102 26.0299 0.398895C25.9956 0.421688 25.9441 0.433086 25.8755 0.433086C25.8298 0.433086 25.7841 0.444485 25.7383 0.467278C25.6926 0.49007 25.6468 0.512863 25.6011 0.53566C25.5325 0.558453 25.4525 0.621136 25.361 0.723709C25.2695 0.826279 25.2123 0.923153 25.1895 1.01433C25.1437 1.1283 25.098 1.20808 25.0523 1.25367C25.0065 1.29925 24.9379 1.31065 24.8465 1.28786C24.8007 1.26506 24.7607 1.25937 24.7264 1.27076C24.6921 1.28216 24.6292 1.32205 24.5377 1.39043C24.4234 1.48161 24.3376 1.55568 24.2805 1.61267C24.2233 1.66965 24.1833 1.73234 24.1604 1.80072C24.1375 1.8691 24.1147 1.92609 24.0918 1.97167C24.0689 2.01726 24.0346 2.05145 23.9889 2.07425C23.9203 2.14263 23.8345 2.2338 23.7316 2.34777C23.6287 2.46174 23.4972 2.6213 23.3371 2.82644C23.3143 2.87203 23.2685 2.92902 23.1999 2.9974C23.1313 3.06578 23.0742 3.11137 23.0284 3.13416C22.9598 3.17975 22.9084 3.22534 22.8741 3.27092C22.8398 3.31651 22.8226 3.3621 22.8226 3.40769C22.7997 3.43048 22.754 3.48746 22.6854 3.57864C22.6168 3.66982 22.5368 3.76099 22.4453 3.85217C22.3767 3.94334 22.3081 4.03452 22.2395 4.12569C22.1709 4.21687 22.1251 4.27386 22.1023 4.29665C22.0794 4.36503 22.0622 4.43341 22.0508 4.50179C22.0394 4.57018 22.0451 4.61576 22.068 4.63856C22.068 4.66135 22.0622 4.68414 22.0508 4.70694C22.0394 4.72973 21.9993 4.75253 21.9307 4.77532C21.8393 4.8437 21.7707 4.91208 21.7249 4.98046C21.6792 5.04885 21.6563 5.12862 21.6563 5.2198C21.6792 5.26539 21.6963 5.31098 21.7078 5.35656C21.7192 5.40215 21.7249 5.43634 21.7249 5.45914C21.7478 5.48193 21.7535 5.50472 21.7421 5.52752C21.7306 5.55031 21.6792 5.5959 21.5877 5.66428C21.4962 5.70987 21.4334 5.75546 21.3991 5.80104C21.3647 5.84663 21.359 5.89222 21.3819 5.93781C21.3819 5.98339 21.3705 6.01759 21.3476 6.04038C21.3247 6.06317 21.2447 6.12016 21.1075 6.21133C20.8559 6.3481 20.6673 6.48486 20.5415 6.62162C20.4157 6.75839 20.3414 6.88375 20.3185 6.99772C20.3185 7.11169 20.33 7.16868 20.3528 7.16868C20.3757 7.16868 20.4557 7.12309 20.5929 7.03191C20.7759 6.87236 20.9074 6.77548 20.9874 6.74129C21.0675 6.7071 21.1189 6.73559 21.1418 6.82677C21.1418 6.84956 21.1304 6.87806 21.1075 6.91224C21.0846 6.94644 21.0503 6.98633 21.0046 7.03191C20.8902 7.14588 20.7873 7.21996 20.6959 7.25415C20.6044 7.28835 20.49 7.29404 20.3528 7.27125C20.2842 7.24846 20.2328 7.23706 20.1985 7.23706C20.1642 7.23706 20.1013 7.24846 20.0098 7.27125C19.7125 7.40801 19.4209 7.55617 19.1351 7.71573C18.8492 7.87529 18.5805 8.04624 18.329 8.22859H18.3633C18.1575 8.36535 18.026 8.45653 17.9688 8.50212C17.9116 8.54771 17.8945 8.5819 17.9173 8.60469C17.9402 8.67307 17.9517 8.74146 17.9517 8.80984C17.9517 8.87822 17.9517 8.92381 17.9517 8.9466C17.9288 8.99219 17.9059 9.03208 17.883 9.06627C17.8602 9.10046 17.8373 9.12895 17.8144 9.15174C17.7687 9.19733 17.7287 9.24862 17.6944 9.3056C17.6601 9.36259 17.6429 9.42527 17.6429 9.49365L17.5743 9.86975C17.5515 10.0065 17.5515 10.0863 17.5743 10.1091C17.5972 10.1319 17.6544 10.1433 17.7458 10.1433C17.8373 10.1433 17.9002 10.149 17.9345 10.1604C17.9688 10.1718 17.986 10.2003 17.986 10.2458C17.986 10.2458 17.9631 10.28 17.9173 10.3484C17.8716 10.4168 17.8144 10.4852 17.7458 10.5536C17.6086 10.6675 17.5286 10.7416 17.5057 10.7758C17.4829 10.81 17.4829 10.8385 17.5057 10.8613C17.5057 10.8841 17.5172 10.9012 17.54 10.9126C17.5629 10.924 17.5858 10.9411 17.6086 10.9639C17.6544 10.9639 17.6944 10.9639 17.7287 10.9639C17.763 10.9639 17.8259 10.9411 17.9173 10.8955C17.9402 10.8727 17.9574 10.867 17.9688 10.8784C17.9802 10.8898 17.9745 10.9297 17.9517 10.998C17.9517 11.0436 17.9345 11.0892 17.9002 11.1348C17.8659 11.1804 17.803 11.2374 17.7115 11.3058C17.6658 11.3514 17.6372 11.3969 17.6258 11.4425C17.6143 11.4881 17.6086 11.5679 17.6086 11.6819C17.6086 11.7502 17.6372 11.8129 17.6944 11.8699C17.7516 11.9269 17.8373 11.9782 17.9517 12.0238L18.2261 12.1263C18.3404 12.2175 18.5234 12.2004 18.7749 12.0751C19.0265 11.9497 19.3581 11.7161 19.7697 11.3741C19.9069 11.2602 19.9927 11.1804 20.027 11.1348C20.0613 11.0892 20.1013 11.0208 20.147 10.9297L20.2842 10.6903L20.3528 10.8271C20.3528 10.8727 20.3585 10.924 20.37 10.981C20.3814 11.0379 20.3871 11.1006 20.3871 11.169C20.3871 11.3058 20.4043 11.4596 20.4386 11.6306C20.4729 11.8015 20.5015 11.9326 20.5243 12.0238C20.5472 12.0694 20.5758 12.1263 20.6101 12.1947C20.6444 12.2631 20.673 12.3315 20.6959 12.3999C20.7645 12.4683 20.8045 12.5195 20.8159 12.5537C20.8273 12.5879 20.8216 12.6164 20.7988 12.6392C20.7759 12.7076 20.7702 12.7589 20.7816 12.7931C20.793 12.8273 20.8331 12.8671 20.9017 12.9127C20.9245 12.9355 20.9474 12.9583 20.9703 12.9811C20.9931 13.0039 21.0046 13.0267 21.0046 13.0495C21.0046 13.0951 21.0274 13.1578 21.0732 13.2375C21.1189 13.3173 21.1761 13.3914 21.2447 13.4598C21.3133 13.5054 21.3533 13.5453 21.3647 13.5795C21.3762 13.6136 21.3819 13.6763 21.3819 13.7675C21.4048 13.9954 21.4219 14.1949 21.4334 14.3658C21.4448 14.5368 21.4619 14.6223 21.4848 14.6223C21.4848 14.6223 21.5077 14.6223 21.5534 14.6223C21.5992 14.6223 21.6563 14.6109 21.7249 14.5881C21.8621 14.5653 21.9422 14.5425 21.965 14.5197C21.9879 14.4969 22.0108 14.3829 22.0336 14.1778C22.0336 14.1094 22.0394 14.0467 22.0508 13.9897C22.0622 13.9328 22.0794 13.8929 22.1023 13.8701C22.1023 13.8473 22.1137 13.8302 22.1366 13.8188C22.1594 13.8074 22.228 13.8017 22.3424 13.8017C22.3424 13.8017 22.3481 13.8017 22.3595 13.8017C22.371 13.8017 22.3767 13.8017 22.3767 13.8017C22.4453 13.8017 22.5025 13.796 22.5482 13.7846C22.5939 13.7732 22.6397 13.7561 22.6854 13.7333C22.8683 13.6421 23.0399 13.4655 23.1999 13.2034C23.36 12.9412 23.4401 12.719 23.4401 12.5366L23.4058 12.058C23.36 11.7844 23.36 11.6078 23.4058 11.528C23.4515 11.4482 23.6001 11.3286 23.8517 11.169C24.0118 11.0778 24.1261 11.0094 24.1947 10.9639C24.2633 10.9183 24.2976 10.8727 24.2976 10.8271L24.4348 10.5194C24.5034 10.337 24.5377 10.2288 24.5377 10.1946C24.5377 10.1604 24.5034 10.1319 24.4348 10.1091C24.3434 10.0863 24.2919 10.0692 24.2805 10.0578C24.269 10.0464 24.2862 10.0065 24.3319 9.93813C24.3548 9.91534 24.3777 9.89255 24.4005 9.86975C24.4234 9.84696 24.4348 9.82416 24.4348 9.80137C24.4348 9.77858 24.412 9.75578 24.3662 9.73299C24.3205 9.71019 24.2176 9.6874 24.0575 9.66461C23.8746 9.64181 23.7659 9.62472 23.7316 9.61332C23.6973 9.60192 23.6687 9.57343 23.6459 9.52784C23.623 9.48226 23.6173 9.41387 23.6287 9.3227C23.6402 9.23152 23.6573 9.11755 23.6802 8.98079L23.7145 8.60469C23.7145 8.5591 23.7316 8.50212 23.7659 8.43374C23.8002 8.36535 23.886 8.22859 24.0232 8.02345C24.229 7.65874 24.4463 7.31684 24.6749 6.99772C24.9036 6.67861 25.1437 6.37089 25.3953 6.07457L25.361 6.10876C25.4067 6.06317 25.441 6.03468 25.4639 6.02328C25.4868 6.01189 25.5096 6.01759 25.5325 6.04038C25.5782 6.04038 25.6011 6.02898 25.6011 6.00619C25.6011 5.98339 25.5782 5.88082 25.5325 5.69847C25.5096 5.65288 25.4925 5.6073 25.4811 5.56171C25.4696 5.51612 25.4525 5.45914 25.4296 5.39075C25.4296 5.34517 25.4468 5.31667 25.4811 5.30528C25.5154 5.29388 25.6011 5.26539 25.7383 5.2198C25.8984 5.17421 25.9842 5.14572 25.9956 5.13432C26.007 5.12293 26.0013 5.08304 25.9784 5.01466C25.9098 4.92348 25.887 4.8608 25.9098 4.82661C25.9327 4.79242 25.9899 4.72973 26.0813 4.63856L26.2872 4.50179L26.5273 4.60437L26.9046 4.77532C26.9503 4.82091 27.0075 4.87219 27.0761 4.92918C27.1447 4.98616 27.179 5.02605 27.179 5.04885C27.179 5.04885 27.1733 5.05454 27.1619 5.06594C27.1504 5.07734 27.1333 5.08304 27.1104 5.08304C27.0418 5.10583 26.9732 5.15142 26.9046 5.2198C26.836 5.28818 26.7788 5.36796 26.7331 5.45914C26.6874 5.55031 26.6359 5.66998 26.5787 5.81814C26.5216 5.9663 26.493 6.08597 26.493 6.17714C26.4701 6.22273 26.453 6.25692 26.4415 6.27971C26.4301 6.30251 26.4129 6.31391 26.3901 6.31391C26.3443 6.31391 26.3157 6.331 26.3043 6.36519C26.2929 6.39938 26.2986 6.43927 26.3215 6.48486C26.3443 6.50765 26.3558 6.52475 26.3558 6.53615C26.3558 6.54754 26.3329 6.56464 26.2872 6.58743C26.2414 6.61023 26.1957 6.64442 26.15 6.69C26.1042 6.73559 26.0585 6.78118 26.0127 6.82677C25.967 6.89515 25.9156 6.95783 25.8584 7.01482C25.8012 7.0718 25.7498 7.11169 25.704 7.13449C25.6583 7.18007 25.6297 7.20857 25.6183 7.21996C25.6068 7.23136 25.6011 7.25985 25.6011 7.30544C25.6011 7.35103 25.5954 7.39092 25.584 7.42511C25.5725 7.4593 25.5554 7.49919 25.5325 7.54478V7.51058C25.5096 7.57897 25.4925 7.63595 25.4811 7.68154C25.4696 7.72713 25.4753 7.80691 25.4982 7.92087L25.5668 8.43374C25.5897 8.59329 25.6125 8.74715 25.6354 8.89531C25.6583 9.04347 25.6812 9.15174 25.704 9.22013C25.7498 9.3341 25.7955 9.41387 25.8412 9.45946C25.887 9.50505 26.0013 9.57343 26.1843 9.66461C26.2757 9.73299 26.3615 9.78997 26.4415 9.83556C26.5216 9.88115 26.573 9.90394 26.5959 9.90394C26.5959 9.90394 26.6188 9.90964 26.6645 9.92104C26.7102 9.93243 26.756 9.92673 26.8017 9.90394C26.9389 9.90394 27.0761 9.86975 27.2133 9.80137C27.3505 9.73299 27.5564 9.58483 27.8308 9.35689C28.1052 9.15174 28.311 9.00928 28.4482 8.9295C28.5854 8.84973 28.7112 8.80984 28.8255 8.80984C28.917 8.78704 29.0028 8.74146 29.0828 8.67307C29.1629 8.60469 29.3058 8.46793 29.5116 8.26278C29.6488 8.10323 29.7632 7.95506 29.8546 7.8183C29.9461 7.68154 30.0376 7.51058 30.129 7.30544C30.1976 7.16868 30.2377 7.04901 30.2491 6.94644C30.2605 6.84386 30.2548 6.74699 30.232 6.65582C30.1633 6.51905 30.0833 6.41078 29.9918 6.331C29.9004 6.25122 29.786 6.18854 29.6488 6.14295L29.5459 6.10876L29.5802 6.04038C29.6031 5.99479 29.6145 5.9549 29.6145 5.92071C29.6145 5.88652 29.6145 5.84663 29.6145 5.80104C29.6145 5.75546 29.6145 5.72127 29.6145 5.69847C29.6145 5.67568 29.6374 5.63009 29.6831 5.56171L29.7517 5.45914L29.5116 5.42495L29.2372 5.39075C29.2372 5.39075 29.2315 5.37366 29.22 5.33947C29.2086 5.30528 29.1914 5.27678 29.1686 5.25399C29.1686 5.18561 29.1629 5.14002 29.1514 5.11723C29.14 5.09443 29.1114 5.07164 29.0657 5.04885C29.0428 5.04885 29.0142 5.03745 28.9799 5.01466C28.9456 4.99186 28.917 4.96907 28.8942 4.94627L28.8599 4.8437L28.9628 4.4676L29.1 4.0915L28.7912 3.7496C28.7226 3.65842 28.654 3.57294 28.5854 3.49316C28.5168 3.41339 28.4711 3.3621 28.4482 3.33931C28.4254 3.29372 28.4139 3.24243 28.4139 3.18545C28.4139 3.12846 28.4254 3.03159 28.4482 2.89482L28.5168 2.68968L28.311 2.51873C28.2424 2.45034 28.1852 2.39336 28.1395 2.34777C28.0938 2.30219 28.048 2.27939 28.0023 2.27939L27.8651 2.2452L27.7965 1.8691L27.6936 1.45881C27.6936 1.43602 27.705 1.41892 27.7279 1.40752C27.7507 1.39613 27.785 1.39043 27.8308 1.39043C27.8765 1.36763 27.9222 1.33914 27.968 1.30495C28.0137 1.27076 28.0709 1.21947 28.1395 1.15109L28.3453 0.94595L28.2767 0.911758C28.2538 0.888962 28.2253 0.871868 28.191 0.86047C28.1566 0.849075 28.1281 0.843376 28.1052 0.843376C28.1052 0.843376 28.0995 0.843376 28.088 0.843376C28.0766 0.843376 28.0709 0.843376 28.0709 0.843376C28.0252 0.843376 27.9909 0.843376 27.968 0.843376C27.9451 0.843376 27.9108 0.831978 27.8651 0.809185H27.8994C27.8536 0.786392 27.8365 0.774994 27.8479 0.774994C27.8594 0.774994 27.8765 0.763596 27.8994 0.740803C27.9451 0.71801 27.9794 0.689518 28.0023 0.655327C28.0252 0.621136 28.0366 0.581245 28.0366 0.53566C28.0366 0.512863 28.0423 0.49577 28.0537 0.484371C28.0652 0.472977 28.1052 0.455879 28.1738 0.433086C28.2881 0.410294 28.351 0.393196 28.3625 0.381802C28.3739 0.370403 28.3567 0.341911 28.311 0.296322C28.2653 0.22794 28.1852 0.165257 28.0709 0.108273C27.9566 0.0512886 27.8651 0.0227966 27.7965 0.0227966C27.7507 3.8147e-06 27.7107 -0.00569534 27.6764 0.00569916C27.6421 0.0170975 27.6135 0.0227966 27.5907 0.0227966ZM8.38125 2.27939C8.38125 2.30219 8.38125 2.31928 8.38125 2.33068C8.38125 2.34207 8.38125 2.35917 8.38125 2.38196C8.38125 2.42755 8.37553 2.45034 8.3641 2.45034C8.35266 2.45034 8.32408 2.42755 8.27834 2.38196L8.20974 2.31358L8.00392 2.41615C7.88958 2.46174 7.78095 2.51873 7.67805 2.58711C7.57514 2.65549 7.51225 2.70108 7.48938 2.72387C7.48938 2.79225 7.51225 2.84924 7.55799 2.89482C7.60372 2.94041 7.6952 2.986 7.83241 3.03159C7.90101 3.05438 7.94103 3.07718 7.95247 3.09997C7.9639 3.12276 7.93532 3.15695 7.86671 3.20254C7.84384 3.22534 7.81526 3.24243 7.78095 3.25383C7.74665 3.26522 7.70663 3.25953 7.6609 3.23673C7.59229 3.23673 7.50653 3.23673 7.40363 3.23673C7.30072 3.23673 7.2264 3.24813 7.18066 3.27092C7.15779 3.29372 7.13492 3.32791 7.11206 3.3735C7.08919 3.41908 7.07775 3.46467 7.07775 3.51026C7.10062 3.55585 7.11777 3.57864 7.12921 3.57864C7.14064 3.57864 7.18066 3.57864 7.24927 3.57864C7.36361 3.57864 7.44936 3.59574 7.50653 3.62993C7.5637 3.66412 7.59229 3.7268 7.59229 3.81798C7.59229 3.84077 7.58657 3.86926 7.57514 3.90345C7.5637 3.93764 7.53512 3.96614 7.48938 3.98893C7.44365 4.05731 7.40934 4.0915 7.38648 4.0915C7.36361 4.0915 7.31787 4.0915 7.24927 4.0915C7.15779 4.0915 7.10634 4.0972 7.0949 4.1086C7.08347 4.12 7.06632 4.17128 7.04345 4.26246V4.39922L7.18066 4.43341C7.295 4.43341 7.39791 4.4676 7.48938 4.53598C7.58086 4.60437 7.68376 4.70694 7.79811 4.8437C7.93532 4.98046 8.04394 5.08304 8.12398 5.15142C8.20402 5.2198 8.28977 5.26539 8.38125 5.28818C8.40412 5.28818 8.45557 5.28248 8.53561 5.27109C8.61565 5.25969 8.70141 5.24259 8.79288 5.2198C8.97583 5.17421 9.13019 5.14572 9.25596 5.13432C9.38174 5.12293 9.47893 5.12862 9.54753 5.15142C9.5704 5.17421 9.59327 5.17991 9.61614 5.16851C9.63901 5.15712 9.68474 5.14002 9.75335 5.11723C9.77622 5.09443 9.83911 5.06594 9.94201 5.03175C10.0449 4.99756 10.1535 4.96907 10.2679 4.94627C10.5194 4.8551 10.6967 4.78672 10.7996 4.74113C10.9025 4.69554 10.9882 4.63856 11.0568 4.57018C11.1712 4.479 11.2341 4.37073 11.2455 4.24536C11.2569 4.12 11.2398 3.98893 11.1941 3.85217C11.1483 3.76099 11.1255 3.69261 11.1255 3.64702C11.1255 3.60143 11.1483 3.56724 11.1941 3.54445C11.2169 3.52166 11.2284 3.48177 11.2284 3.42478C11.2284 3.3678 11.2169 3.31651 11.1941 3.27092C11.1483 3.24813 11.1197 3.23104 11.1083 3.21964C11.0969 3.20824 11.0797 3.21394 11.0568 3.23673L10.9539 3.30511V3.20254C10.9311 3.13416 10.9025 3.07718 10.8682 3.03159C10.8339 2.986 10.7939 2.95181 10.7481 2.92902C10.7024 2.92902 10.6681 2.94041 10.6452 2.96321C10.6223 2.986 10.5995 3.03159 10.5766 3.09997C10.5537 3.16835 10.5366 3.20254 10.5252 3.20254C10.5137 3.20254 10.4966 3.17975 10.4737 3.13416C10.4508 3.08857 10.4222 3.06008 10.3879 3.04868C10.3536 3.03729 10.3136 3.05438 10.2679 3.09997L10.1307 3.13416C10.1307 3.15695 10.1307 3.16265 10.1307 3.15126C10.1307 3.13986 10.1307 3.12276 10.1307 3.09997C10.1307 3.05438 10.0964 3.02019 10.0278 2.9974C9.95916 2.9746 9.86769 2.96321 9.75335 2.96321C9.61614 2.96321 9.52467 2.96891 9.47893 2.9803C9.43319 2.9917 9.39889 3.02019 9.37602 3.06578C9.35315 3.11137 9.336 3.13416 9.32457 3.13416C9.31313 3.13416 9.31885 3.11137 9.34172 3.06578C9.36459 3.02019 9.37602 2.9746 9.37602 2.92902C9.37602 2.88343 9.36459 2.84924 9.34172 2.82644C9.31885 2.82644 9.3017 2.82644 9.29027 2.82644C9.27883 2.82644 9.26168 2.82644 9.23881 2.82644C9.23881 2.82644 9.22738 2.82644 9.20451 2.82644C9.18164 2.82644 9.17021 2.82644 9.17021 2.82644C9.1016 2.82644 9.05587 2.83784 9.033 2.86063C9.01013 2.88343 8.97583 2.92902 8.93009 2.9974C8.90722 3.08857 8.88435 3.13986 8.86148 3.15126C8.83862 3.16265 8.80431 3.17975 8.75858 3.20254H8.65567L8.72427 3.03159C8.79288 2.89482 8.82146 2.76376 8.81003 2.63839C8.7986 2.51303 8.74714 2.40475 8.65567 2.31358C8.60993 2.26799 8.55848 2.2395 8.50131 2.2281C8.44414 2.21671 8.40412 2.2338 8.38125 2.27939ZM28.4482 9.86975C28.3339 9.86975 28.191 9.89824 28.0194 9.95523C27.8479 10.0122 27.705 10.0635 27.5907 10.1091C27.5221 10.1319 27.4534 10.1604 27.3848 10.1946C27.3162 10.2288 27.2591 10.2686 27.2133 10.3142C27.0761 10.4054 27.0018 10.4795 26.9904 10.5365C26.9789 10.5935 27.0189 10.6561 27.1104 10.7245C27.1562 10.7929 27.1847 10.8385 27.1962 10.8613C27.2076 10.8841 27.2133 10.9411 27.2133 11.0322C27.2133 11.169 27.2362 11.2488 27.2819 11.2716C27.3277 11.2944 27.4191 11.2716 27.5564 11.2032C27.6021 11.1804 27.6307 11.169 27.6421 11.169C27.6535 11.169 27.6707 11.1918 27.6936 11.2374C27.7164 11.2602 27.7279 11.2773 27.7279 11.2887C27.7279 11.3001 27.7164 11.3286 27.6936 11.3741C27.6707 11.4197 27.6593 11.5052 27.6593 11.6306C27.6593 11.7559 27.6707 11.887 27.6936 12.0238C27.6936 12.1605 27.6878 12.2574 27.6764 12.3144C27.665 12.3714 27.625 12.4113 27.5564 12.4341C27.4878 12.4797 27.4077 12.474 27.3162 12.417C27.2248 12.36 27.1333 12.2631 27.0418 12.1263L26.9046 11.9554H26.7331C26.7102 11.9554 26.6988 11.9554 26.6988 11.9554C26.6988 11.9554 26.6874 11.9554 26.6645 11.9554C26.6416 11.9554 26.6073 11.9554 26.5616 11.9554C26.5158 11.9554 26.4815 11.944 26.4587 11.9212V11.9554C26.4358 11.9326 26.4129 11.9269 26.3901 11.9383C26.3672 11.9497 26.3329 11.9782 26.2872 12.0238C26.1728 12.1833 26.0756 12.36 25.9956 12.5537C25.9156 12.7475 25.8527 12.9469 25.8069 13.1521V13.1863L25.8412 13.3914C25.8641 13.4142 25.887 13.4712 25.9098 13.5624C25.9327 13.6535 25.9441 13.7333 25.9441 13.8017C25.967 13.9385 25.9899 14.0296 26.0127 14.0752C26.0356 14.1208 26.0585 14.1664 26.0813 14.212C26.1271 14.2576 26.1614 14.2804 26.1843 14.2804C26.2071 14.2804 26.2872 14.2804 26.4244 14.2804C26.5616 14.2576 26.6416 14.2576 26.6645 14.2804C26.6874 14.3032 26.6988 14.3715 26.6988 14.4855C26.6988 14.5083 26.6931 14.5482 26.6816 14.6052C26.6702 14.6622 26.6531 14.7134 26.6302 14.759C26.6073 14.8274 26.5959 14.8787 26.5959 14.9129C26.5959 14.9471 26.5959 14.9984 26.5959 15.0668V15.2719L26.493 15.3061C26.4472 15.3061 26.4187 15.3061 26.4072 15.3061C26.3958 15.3061 26.3786 15.2719 26.3558 15.2035L26.2872 15.1009L26.047 15.1351C25.8641 15.1579 25.6926 15.1807 25.5325 15.2035C25.3724 15.2263 25.2352 15.2491 25.1209 15.2719C25.0065 15.2947 24.9208 15.3004 24.8636 15.289C24.8064 15.2776 24.7092 15.2149 24.572 15.1009C24.5263 15.0554 24.4806 15.0155 24.4348 14.9813C24.3891 14.9471 24.3548 14.93 24.3319 14.93C24.2633 14.93 24.1433 14.9699 23.9717 15.0497C23.8002 15.1294 23.6459 15.2035 23.5087 15.2719L22.8912 15.6138C22.7997 15.6594 22.714 15.705 22.6339 15.7506C22.5539 15.7962 22.491 15.819 22.4453 15.819C22.4224 15.8417 22.3824 15.8702 22.3252 15.9044C22.2681 15.9386 22.2166 15.9785 22.1709 16.0241C22.0794 16.0925 22.0279 16.1324 22.0165 16.1438C22.0051 16.1552 21.9993 16.1495 21.9993 16.1267C21.9993 16.0583 21.9822 16.007 21.9479 15.9728C21.9136 15.9386 21.8621 15.8987 21.7935 15.8531L21.622 15.7848C21.622 15.7848 21.6277 15.7791 21.6392 15.7677C21.6506 15.7563 21.6678 15.7392 21.6906 15.7164C21.6906 15.6936 21.7021 15.6651 21.7249 15.6309C21.7478 15.5967 21.7592 15.5796 21.7592 15.5796C21.7592 15.5112 21.7306 15.4258 21.6735 15.3232C21.6163 15.2206 21.5648 15.1579 21.5191 15.1351C21.4734 15.0895 21.4391 15.0725 21.4162 15.0839C21.3933 15.0952 21.3476 15.1237 21.279 15.1693C21.2333 15.2149 21.2104 15.2605 21.2104 15.3061C21.2104 15.3517 21.2333 15.3859 21.279 15.4087C21.3247 15.4315 21.3476 15.4543 21.3476 15.477C21.3476 15.4998 21.3133 15.5226 21.2447 15.5454C21.1532 15.6366 21.0332 15.6993 20.8845 15.7335C20.7359 15.7677 20.6158 15.7734 20.5243 15.7506C20.5015 15.7278 20.4843 15.7221 20.4729 15.7335C20.4615 15.7449 20.4329 15.7848 20.3871 15.8531C20.3414 15.9215 20.3128 15.9614 20.3014 15.9728C20.2899 15.9842 20.2614 15.9899 20.2156 15.9899C20.1927 15.9899 20.1699 15.9842 20.147 15.9728C20.1241 15.9614 20.1013 15.9557 20.0784 15.9557C20.0784 15.9557 20.0784 15.9443 20.0784 15.9215C20.0784 15.8987 20.0784 15.8759 20.0784 15.8531C20.0784 15.8076 20.067 15.7791 20.0441 15.7677C20.0212 15.7563 19.9641 15.7278 19.8726 15.6822L19.5639 15.6138C19.5181 15.591 19.4781 15.5739 19.4438 15.5625C19.4095 15.5511 19.3924 15.5454 19.3924 15.5454C19.4152 15.5226 19.4267 15.5055 19.4267 15.4941C19.4267 15.4827 19.4381 15.4656 19.461 15.4429H19.4267C19.4495 15.4201 19.4667 15.3973 19.4781 15.3745C19.4895 15.3517 19.4953 15.3175 19.4953 15.2719C19.4953 15.2263 19.4838 15.1921 19.461 15.1693C19.4381 15.1465 19.3924 15.1123 19.3238 15.0668L19.1179 14.9984C19.0951 14.9984 19.1008 14.9756 19.1351 14.93C19.1694 14.8844 19.2094 14.8388 19.2551 14.7932C19.3466 14.6793 19.4381 14.5482 19.5296 14.4C19.621 14.2519 19.6896 14.1208 19.7354 14.0068C19.7582 13.9385 19.7811 13.8929 19.804 13.8701C19.8269 13.8473 19.8955 13.8131 20.0098 13.7675C20.147 13.6763 20.2099 13.6136 20.1985 13.5795C20.187 13.5453 20.0898 13.5054 19.9069 13.4598C19.8612 13.4598 19.8211 13.4541 19.7868 13.4427C19.7525 13.4313 19.7354 13.4142 19.7354 13.3914C19.7125 13.3914 19.7068 13.3686 19.7182 13.323C19.7297 13.2774 19.7468 13.2205 19.7697 13.1521C19.8154 13.0381 19.8497 12.907 19.8726 12.7589C19.8955 12.6107 19.8955 12.5366 19.8726 12.5366C19.8497 12.5366 19.7926 12.5651 19.7011 12.6221C19.6096 12.6791 19.5524 12.7304 19.5296 12.776C19.5296 12.7988 19.5181 12.8159 19.4953 12.8273C19.4724 12.8387 19.4267 12.8444 19.3581 12.8444L19.0493 12.8785H18.8778L18.7406 13.0837L18.5691 13.323C18.5691 13.3686 18.5862 13.3914 18.6206 13.3914C18.6549 13.3914 18.6949 13.38 18.7406 13.3572C18.7863 13.3344 18.8378 13.3116 18.895 13.2888C18.9521 13.266 19.0036 13.2546 19.0493 13.2546C19.0722 13.2546 19.0951 13.2603 19.1179 13.2717C19.1408 13.2831 19.1637 13.2888 19.1865 13.2888C19.2323 13.2888 19.2666 13.2945 19.2894 13.3059C19.3123 13.3173 19.3238 13.323 19.3238 13.323C19.3238 13.3458 19.2723 13.38 19.1694 13.4256C19.0665 13.4712 18.9922 13.494 18.9464 13.494C18.9236 13.494 18.9064 13.494 18.895 13.494C18.8835 13.494 18.8778 13.494 18.8778 13.494C18.8321 13.494 18.7863 13.494 18.7406 13.494C18.6949 13.494 18.6606 13.4826 18.6377 13.4598V13.494C18.592 13.4712 18.5519 13.4541 18.5176 13.4427C18.4833 13.4313 18.4662 13.437 18.4662 13.4598C18.4433 13.5282 18.4319 13.6022 18.4319 13.682C18.4319 13.7618 18.4319 13.8359 18.4319 13.9043C18.4319 13.9271 18.4319 13.9499 18.4319 13.9726C18.4319 13.9954 18.4319 14.0182 18.4319 14.041C18.4319 14.3374 18.4376 14.514 18.449 14.571C18.4605 14.628 18.4776 14.6793 18.5005 14.7248C18.5234 14.7704 18.5348 14.816 18.5348 14.8616C18.5348 14.9072 18.5348 14.987 18.5348 15.1009C18.5348 15.2377 18.5519 15.3631 18.5862 15.477C18.6206 15.591 18.6606 15.6936 18.7063 15.7848C18.752 15.8303 18.7749 15.8645 18.7749 15.8873C18.7749 15.9101 18.7635 15.9443 18.7406 15.9899C18.7177 16.0355 18.6834 16.0754 18.6377 16.1096C18.592 16.1438 18.5577 16.1381 18.5348 16.0925C18.5119 16.0697 18.4891 16.0697 18.4662 16.0925C18.4433 16.1153 18.4319 16.1495 18.4319 16.1951C18.4319 16.2178 18.4319 16.2463 18.4319 16.2805C18.4319 16.3147 18.4205 16.3432 18.3976 16.366C18.3976 16.4116 18.3919 16.4401 18.3804 16.4515C18.369 16.4629 18.3404 16.4686 18.2947 16.4686C18.2489 16.4686 18.2089 16.4572 18.1746 16.4344C18.1403 16.4116 18.1003 16.366 18.0546 16.2976L17.883 16.1267L17.7458 16.2634L17.5743 16.4344C17.5515 16.4572 17.5343 16.4686 17.5229 16.4686C17.5114 16.4686 17.4829 16.4686 17.4371 16.4686C17.3228 16.4458 17.1684 16.4515 16.974 16.4857C16.7796 16.5199 16.6367 16.5711 16.5452 16.6395C16.4995 16.6851 16.4766 16.725 16.4766 16.7592C16.4766 16.7934 16.4881 16.9017 16.5109 17.084C16.5109 17.1296 16.5109 17.1638 16.5109 17.1866C16.5109 17.2094 16.4995 17.2322 16.4766 17.255C16.4309 17.3006 16.4023 17.329 16.3909 17.3404C16.3795 17.3518 16.3394 17.3461 16.2708 17.3233H16.1336L16.065 16.8105L15.9621 16.9814L15.7563 17.3575C15.6648 17.5171 15.5848 17.6368 15.5162 17.7165C15.4476 17.7963 15.3447 17.8818 15.2074 17.973C15.0931 18.0414 15.0074 18.104 14.9502 18.161C14.893 18.218 14.8644 18.2579 14.8644 18.2807C14.7043 18.3491 14.5557 18.4118 14.4185 18.4687C14.2813 18.5257 14.1555 18.5884 14.0412 18.6568H14.0755C14.0755 18.6568 14.0697 18.6568 14.0583 18.6568C14.0469 18.6568 14.0412 18.6568 14.0412 18.6568C14.0183 18.6568 14.0069 18.6568 14.0069 18.6568C14.0069 18.6568 13.9954 18.6568 13.9726 18.6568C13.9497 18.634 13.8582 18.6283 13.6981 18.6397C13.5381 18.6511 13.4352 18.6682 13.3894 18.691C13.3437 18.7138 13.3037 18.7537 13.2694 18.8106C13.2351 18.8676 13.195 18.9759 13.1493 19.1355C13.0807 19.295 13.0121 19.4147 12.9435 19.4945C12.8749 19.5742 12.7605 19.6369 12.6005 19.6825C12.5547 19.7053 12.5204 19.7167 12.4976 19.7167C12.4747 19.7167 12.4404 19.7053 12.3946 19.6825C12.3489 19.6597 12.3032 19.6597 12.2574 19.6825C12.2117 19.7053 12.1545 19.7737 12.0859 19.8877C12.0173 19.9788 11.9601 20.0358 11.9144 20.0586C11.8687 20.0814 11.8001 20.07 11.7086 20.0244C11.64 19.9788 11.5885 19.9332 11.5542 19.8877C11.5199 19.8421 11.5028 19.7737 11.5028 19.6825V19.5458L11.3656 19.5799C11.297 19.5799 11.2512 19.5799 11.2284 19.5799C11.2055 19.5799 11.1712 19.5685 11.1255 19.5458C11.0568 19.5002 11.0054 19.4831 10.9711 19.4945C10.9368 19.5059 10.8968 19.5458 10.851 19.6141C10.8282 19.6597 10.811 19.7053 10.7996 19.7509C10.7881 19.7965 10.7824 19.8421 10.7824 19.8877C10.7824 19.9332 10.7881 19.9731 10.7996 20.0073C10.811 20.0415 10.8282 20.0814 10.851 20.127C10.8739 20.1726 10.8853 20.2068 10.8853 20.2296C10.8853 20.2524 10.8739 20.2979 10.851 20.3663C10.851 20.4119 10.8453 20.4518 10.8339 20.486C10.8224 20.5202 10.8053 20.5487 10.7824 20.5715C10.7596 20.5943 10.731 20.6114 10.6967 20.6228C10.6624 20.6342 10.588 20.6285 10.4737 20.6057H10.165C10.1421 20.5829 10.1192 20.5601 10.0964 20.5373C10.0735 20.5145 10.0506 20.4917 10.0278 20.4689V20.4347L9.95916 20.3321L8.68997 20.3663L8.58706 20.4347C8.58706 20.4575 8.58135 20.4803 8.56991 20.5031C8.55848 20.5259 8.54133 20.5487 8.51846 20.5715C8.51846 20.5943 8.52989 20.6114 8.55276 20.6228C8.57563 20.6342 8.5985 20.6513 8.62137 20.674L8.75858 20.7424L8.62137 20.8108L8.44985 20.8792C8.42698 20.8792 8.40983 20.8849 8.3984 20.8963C8.38697 20.9077 8.38125 20.9134 8.38125 20.9134C8.38125 20.959 8.3984 21.0103 8.4327 21.0672C8.467 21.1242 8.51846 21.1755 8.58706 21.2211C8.6328 21.2667 8.6671 21.2952 8.68997 21.3066C8.71284 21.318 8.77001 21.3237 8.86148 21.3237C8.93009 21.3009 8.98154 21.2952 9.01585 21.3066C9.05015 21.318 9.1016 21.3351 9.17021 21.3579C9.23881 21.4262 9.31313 21.506 9.39317 21.5972C9.47321 21.6884 9.54753 21.8023 9.61614 21.9391C9.63901 22.0303 9.66759 22.093 9.7019 22.1272C9.7362 22.1613 9.76478 22.1898 9.78765 22.2126L9.92486 22.281C9.92486 22.281 9.91914 22.2924 9.90771 22.3152C9.89628 22.338 9.87913 22.3722 9.85626 22.4178L9.78765 22.5204L9.85626 22.7255C9.87913 22.7939 9.90199 22.868 9.92486 22.9477C9.94773 23.0275 9.9706 23.1244 9.99347 23.2384C9.99347 23.3523 10.0049 23.4549 10.0278 23.5461C10.0506 23.6373 10.0621 23.717 10.0621 23.7854C10.0849 23.8538 10.0964 23.8994 10.0964 23.9222C10.0964 23.945 10.0735 23.9906 10.0278 24.0589C9.98203 24.1273 9.91343 24.2584 9.82195 24.4521C9.73048 24.6459 9.65044 24.8453 9.58184 25.0505C9.5361 25.1872 9.49608 25.2841 9.46178 25.3411C9.42748 25.3981 9.35315 25.4836 9.23881 25.5975C9.14734 25.6887 9.02728 25.8027 8.87864 25.9394C8.72999 26.0762 8.62137 26.1674 8.55276 26.213C8.50702 26.213 8.467 26.2073 8.4327 26.1959C8.3984 26.1845 8.35838 26.1674 8.31264 26.1446H8.34695L7.7638 25.9736C7.51225 25.9508 7.27785 25.8995 7.0606 25.8198C6.84335 25.74 6.63182 25.6545 6.426 25.5633H6.46031C6.27736 25.4722 6.12872 25.4095 6.01437 25.3753C5.90003 25.3411 5.80856 25.324 5.73995 25.324C5.73995 25.324 5.73424 25.324 5.7228 25.324C5.71137 25.324 5.70565 25.324 5.70565 25.324C5.68278 25.324 5.6542 25.324 5.6199 25.324C5.58559 25.324 5.55701 25.3126 5.53414 25.2898C5.4884 25.267 5.43695 25.2499 5.37978 25.2385C5.32261 25.2271 5.27115 25.21 5.22542 25.1872H5.19111C5.09964 25.1872 5.00817 25.1644 4.91669 25.1189C4.82522 25.0733 4.74518 25.0163 4.67658 24.9479C4.63084 24.9251 4.5851 24.9023 4.53937 24.8795C4.49363 24.8567 4.45933 24.8453 4.43646 24.8453C4.36785 24.8453 4.3164 24.8567 4.2821 24.8795C4.2478 24.9023 4.20778 24.9479 4.16204 25.0163L4.09343 25.1189L3.81901 25.153C3.63607 25.1758 3.50457 25.21 3.42453 25.2556C3.3445 25.3012 3.29304 25.3924 3.27017 25.5291C3.24731 25.5747 3.23587 25.6089 3.23587 25.6317C3.23587 25.6545 3.25874 25.7001 3.30448 25.7685C3.30448 25.7913 3.31019 25.8198 3.32163 25.854C3.33306 25.8881 3.35021 25.9166 3.37308 25.9394C3.35021 25.985 3.32734 26.0249 3.30448 26.0591C3.28161 26.0933 3.25874 26.1218 3.23587 26.1446C3.19013 26.1902 3.15583 26.2358 3.13296 26.2813C3.1101 26.3269 3.09866 26.3611 3.09866 26.3839C3.07579 26.4067 3.03006 26.4523 2.96145 26.5207C2.89285 26.5891 2.7442 26.703 2.51552 26.8626C2.44691 26.9082 2.39546 26.9481 2.36116 26.9823C2.32685 27.0164 2.3097 27.0335 2.3097 27.0335L2.34401 27.1703C2.38974 27.2387 2.40689 27.3014 2.39546 27.3584C2.38403 27.4153 2.33257 27.478 2.2411 27.5464C2.10389 27.6376 2.01241 27.7117 1.96668 27.7686C1.92094 27.8256 1.89807 27.8997 1.89807 27.9909C1.89807 28.0365 1.86377 28.1049 1.79517 28.196C1.72656 28.2872 1.52074 28.5151 1.17772 28.8798C0.971905 29.085 0.800392 29.2673 0.663182 29.4269C0.525972 29.5865 0.457367 29.6776 0.457367 29.7004L0.491669 29.8714C0.514538 29.9853 0.54884 30.0822 0.594577 30.162C0.640314 30.2418 0.68605 30.3045 0.731787 30.35C0.754655 30.3956 0.771807 30.4298 0.783241 30.4526C0.794675 30.4754 0.788958 30.5096 0.76609 30.5552C0.743221 30.578 0.714636 30.6122 0.680333 30.6578C0.646031 30.7034 0.606011 30.7489 0.560274 30.7945C0.491669 30.8401 0.445933 30.8857 0.423064 30.9313C0.400196 30.9769 0.41163 31.0339 0.457367 31.1022C0.503104 31.1706 0.508821 31.239 0.474518 31.3074C0.440216 31.3758 0.354459 31.4783 0.217249 31.6151C0.148644 31.7063 0.0914734 31.7747 0.0457367 31.8203C0 31.8658 -0.0114342 31.9 0.0114342 31.9228L0.697485 32.0596L1.34923 32.1964L1.48644 32.3331C1.53218 32.3559 1.58935 32.3958 1.65795 32.4528C1.72656 32.5098 1.79517 32.5611 1.86377 32.6066C2.06959 32.7662 2.22395 32.9144 2.32685 33.0511C2.42976 33.1879 2.49265 33.336 2.51552 33.4956C2.53839 33.6096 2.61271 33.678 2.73848 33.7007C2.86426 33.7235 3.1101 33.7007 3.47599 33.6324C3.6132 33.5868 3.76756 33.5526 3.93907 33.5298C4.11059 33.507 4.27638 33.4956 4.43646 33.4956C4.52793 33.4956 4.61941 33.4956 4.71088 33.4956C4.80235 33.4956 4.88239 33.507 4.951 33.5298C5.06534 33.5526 5.15109 33.5697 5.20827 33.5811C5.26544 33.5925 5.30546 33.6096 5.32832 33.6324C5.37406 33.6552 5.40836 33.6666 5.43123 33.6666C5.4541 33.6666 5.4884 33.6552 5.53414 33.6324C5.57988 33.6096 5.6199 33.5868 5.6542 33.564C5.6885 33.5412 5.73995 33.5298 5.80856 33.5298C5.90003 33.5298 5.98579 33.5184 6.06583 33.4956C6.14587 33.4728 6.27736 33.4158 6.46031 33.3247C6.59752 33.2791 6.74616 33.2278 6.90624 33.1708C7.06632 33.1138 7.2264 33.0625 7.38648 33.0169H7.42078C7.46651 32.9941 7.4951 32.9713 7.50653 32.9486C7.51797 32.9258 7.52369 32.8916 7.52369 32.846L7.48938 32.7092L7.6609 32.5725C7.7295 32.5497 7.81526 32.5041 7.91816 32.4357C8.02107 32.3673 8.11826 32.3103 8.20974 32.2647C8.34695 32.1964 8.43842 32.1451 8.48416 32.1109C8.52989 32.0767 8.56419 32.0368 8.58706 31.9912C8.60993 31.9 8.62708 31.8089 8.63852 31.7177C8.64995 31.6265 8.6328 31.5239 8.58706 31.41C8.54133 31.2504 8.51846 31.1136 8.51846 30.9997C8.51846 30.8857 8.55276 30.7831 8.62137 30.692C8.68997 30.578 8.79288 30.4526 8.93009 30.3159C9.0673 30.1791 9.23881 30.0309 9.44463 29.8714C9.5361 29.803 9.62757 29.7232 9.71905 29.632C9.81052 29.5409 9.87913 29.4725 9.92486 29.4269C10.0392 29.3357 10.1307 29.2673 10.1993 29.2218C10.2679 29.1762 10.3594 29.1534 10.4737 29.1534C10.5652 29.1306 10.6509 29.1078 10.731 29.085C10.811 29.0622 10.9539 28.9938 11.1598 28.8798L11.64 28.6405H11.9144C11.983 28.6405 12.0516 28.6405 12.1202 28.6405C12.1888 28.6405 12.2231 28.6291 12.2231 28.6063C12.2231 28.6063 12.2346 28.5892 12.2574 28.555C12.2803 28.5208 12.2917 28.4923 12.2917 28.4696C12.3146 28.4012 12.3318 28.3556 12.3432 28.3328C12.3546 28.31 12.3832 28.2986 12.4289 28.2986C12.4976 28.2758 12.5433 28.2473 12.5662 28.2131C12.589 28.1789 12.6005 28.1276 12.6005 28.0593C12.6005 28.0365 12.6005 28.0137 12.6005 27.9909C12.6005 27.9681 12.589 27.9567 12.5662 27.9567C12.5433 27.9339 12.5261 27.894 12.5147 27.837C12.5033 27.78 12.4976 27.6946 12.4976 27.5806C12.4976 27.421 12.5319 27.2672 12.6005 27.119C12.6691 26.9709 12.772 26.8626 12.9092 26.7942L13.0121 26.76L13.3208 26.8968C13.5724 27.0107 13.7267 27.0734 13.7839 27.0848C13.8411 27.0962 13.9154 27.0905 14.0069 27.0677L14.2127 27.0335C14.2127 27.0335 14.2298 27.0506 14.2641 27.0848C14.2984 27.119 14.3385 27.1475 14.3842 27.1703C14.4299 27.2159 14.4757 27.2558 14.5214 27.29C14.5671 27.3242 14.6014 27.3527 14.6243 27.3754C14.6929 27.3982 14.8073 27.4096 14.9673 27.4096C15.1274 27.4096 15.2303 27.3982 15.2761 27.3754C15.2989 27.3527 15.3561 27.2957 15.4476 27.2045C15.539 27.1133 15.6419 27.0107 15.7563 26.8968C15.9392 26.6916 16.0536 26.5663 16.0993 26.5207C16.1451 26.4751 16.1908 26.4523 16.2365 26.4523C16.2823 26.4751 16.3566 26.4637 16.4595 26.4181C16.5624 26.3725 16.6939 26.2927 16.854 26.1788L17.2313 25.9736L17.3342 25.9052L17.5057 25.9736L17.7801 26.0762C17.8487 26.099 17.8945 26.1275 17.9173 26.1617C17.9402 26.1959 18.0088 26.2927 18.1232 26.4523C18.2375 26.6574 18.3118 26.8056 18.3461 26.8968C18.3804 26.988 18.409 27.1247 18.4319 27.3071C18.4548 27.4894 18.5119 27.6433 18.6034 27.7686C18.6949 27.894 18.935 28.0821 19.3238 28.3328C19.4838 28.4696 19.6096 28.5778 19.7011 28.6576C19.7926 28.7374 19.8955 28.8343 20.0098 28.9482C20.1699 29.1306 20.2899 29.2502 20.37 29.3072C20.45 29.3642 20.5586 29.3813 20.6959 29.3585C20.7645 29.3585 20.8159 29.3642 20.8502 29.3756C20.8845 29.387 20.9245 29.4155 20.9703 29.4611C21.0389 29.4839 21.0846 29.5181 21.1075 29.5637C21.1304 29.6092 21.1647 29.6776 21.2104 29.7688C21.2561 29.86 21.2904 29.9227 21.3133 29.9569C21.3362 29.991 21.3819 30.0195 21.4505 30.0423C21.4962 30.0651 21.5534 30.0879 21.622 30.1107C21.6906 30.1335 21.7478 30.1449 21.7935 30.1449L22.0336 30.1791V30.2817C22.0336 30.35 22.0508 30.4412 22.0851 30.5552C22.1194 30.6692 22.148 30.7261 22.1709 30.7261L22.3424 30.7603C22.411 30.7831 22.4624 30.8059 22.4967 30.8287C22.531 30.8515 22.5711 30.8857 22.6168 30.9313C22.7311 31.0225 22.8169 31.1364 22.8741 31.2732C22.9312 31.41 23.0056 31.6379 23.097 31.957C23.1428 32.1166 23.1599 32.2078 23.1485 32.2305C23.137 32.2533 23.0856 32.2989 22.9941 32.3673C22.9484 32.3673 22.9198 32.3844 22.9084 32.4186C22.8969 32.4528 22.8798 32.5041 22.8569 32.5725C22.8569 32.618 22.8455 32.675 22.8226 32.7434C22.7997 32.8118 22.7769 32.8688 22.754 32.9144C22.7083 33.0055 22.6854 33.0625 22.6854 33.0853C22.6854 33.1081 22.6968 33.1309 22.7197 33.1537C22.7883 33.1765 22.8569 33.1765 22.9255 33.1537C22.9941 33.1309 23.0627 33.0853 23.1313 33.0169C23.1771 32.9713 23.2228 32.8802 23.2685 32.7434C23.3143 32.6066 23.36 32.4699 23.4058 32.3331C23.4286 32.2419 23.4629 32.1679 23.5087 32.1109C23.5544 32.0539 23.6344 32.0026 23.7488 31.957C23.8403 31.9114 23.8974 31.8715 23.9203 31.8373C23.9432 31.8032 23.9432 31.7291 23.9203 31.6151C23.9203 31.4556 23.9146 31.3587 23.9031 31.3245C23.8917 31.2903 23.8631 31.2732 23.8174 31.2732C23.7945 31.2732 23.7373 31.2447 23.6459 31.1877C23.5544 31.1307 23.4629 31.0681 23.3714 30.9997C23.3486 30.9997 23.3829 30.8914 23.4744 30.6749C23.5658 30.4583 23.6573 30.3045 23.7488 30.2133L23.8174 30.1107L23.9889 30.1791L24.3319 30.3159C24.4005 30.3387 24.4977 30.407 24.6235 30.521C24.7493 30.635 24.835 30.7261 24.8808 30.7945C24.8808 30.8173 24.8865 30.8287 24.8979 30.8287C24.9093 30.8287 24.9265 30.8173 24.9494 30.7945C24.9722 30.7489 24.9894 30.6863 25.0008 30.6065C25.0123 30.5267 25.0065 30.4526 24.9837 30.3842C24.9379 30.2703 24.8407 30.162 24.6921 30.0594C24.5435 29.9569 24.2519 29.803 23.8174 29.5979C23.6344 29.5067 23.4629 29.4155 23.3028 29.3243C23.1428 29.2331 22.9827 29.1306 22.8226 29.0166L22.8569 29.0508C22.8569 29.028 22.8683 28.9995 22.8912 28.9653C22.9141 28.9311 22.9369 28.8912 22.9598 28.8457L23.097 28.6747C23.097 28.6519 23.0456 28.6291 22.9427 28.6063C22.8398 28.5835 22.7083 28.5721 22.5482 28.5721C22.4338 28.5721 22.3424 28.5721 22.2738 28.5721C22.2052 28.5721 22.1366 28.5607 22.068 28.5379C21.8164 28.4468 21.6163 28.2986 21.4677 28.0935C21.319 27.8883 21.2218 27.6376 21.1761 27.3413C21.1304 27.1361 21.0789 26.988 21.0217 26.8968C20.9646 26.8056 20.8216 26.6688 20.5929 26.4865C20.5243 26.4409 20.4615 26.3896 20.4043 26.3326C20.3471 26.2756 20.2957 26.2244 20.2499 26.1788C20.2042 26.1104 20.1699 26.0477 20.147 25.9907C20.1241 25.9337 20.1127 25.8711 20.1127 25.8027C20.1127 25.7571 20.1127 25.7115 20.1127 25.6659C20.1127 25.6203 20.1241 25.5747 20.147 25.5291V25.5633C20.1699 25.4722 20.187 25.4152 20.1985 25.3924C20.2099 25.3696 20.1927 25.3354 20.147 25.2898C20.1241 25.1986 20.1127 25.1018 20.1127 24.9992C20.1127 24.8966 20.1356 24.8339 20.1813 24.8111C20.2271 24.7655 20.2842 24.72 20.3528 24.6744C20.4214 24.6288 20.49 24.5832 20.5586 24.5376H20.5929L20.936 24.3325L21.0732 24.3667C21.096 24.3895 21.1246 24.4065 21.1589 24.4179C21.1932 24.4293 21.2218 24.435 21.2447 24.435C21.2676 24.435 21.2847 24.4407 21.2961 24.4521C21.3076 24.4635 21.3133 24.4692 21.3133 24.4692L21.2447 24.6402L21.1418 24.8111L21.2104 24.9821L21.3133 25.2556C21.3362 25.3012 21.3533 25.3354 21.3647 25.3582C21.3762 25.381 21.3819 25.3924 21.3819 25.3924C21.4276 25.3468 21.4677 25.2955 21.502 25.2385C21.5363 25.1815 21.5648 25.1189 21.5877 25.0505C21.5877 25.0277 21.5992 25.0049 21.622 24.9821C21.6449 24.9593 21.6678 24.9365 21.6906 24.9137L21.7592 24.8111L21.8278 24.9137C21.8736 24.9593 21.9136 25.0049 21.9479 25.0505C21.9822 25.0961 22.0451 25.153 22.1366 25.2214C22.1594 25.2442 22.1766 25.2727 22.188 25.3069C22.1994 25.3411 22.2052 25.4266 22.2052 25.5633C22.2052 25.6317 22.2052 25.6944 22.2052 25.7514C22.2052 25.8084 22.2166 25.8369 22.2395 25.8369C22.2395 25.8597 22.2566 25.8881 22.2909 25.9223C22.3252 25.9565 22.3538 25.985 22.3767 26.0078C22.4224 26.0306 22.4567 26.0591 22.4796 26.0933C22.5025 26.1275 22.5253 26.156 22.5482 26.1788C22.5482 26.2472 22.5825 26.3098 22.6511 26.3668C22.7197 26.4238 22.7997 26.4751 22.8912 26.5207C22.9598 26.5435 23.0056 26.5663 23.0284 26.5891C23.0513 26.6119 23.0627 26.646 23.0627 26.6916L23.097 26.7942H23.2685C23.4286 26.7942 23.5715 26.8284 23.6973 26.8968C23.8231 26.9652 23.9775 27.0791 24.1604 27.2387C24.229 27.3071 24.2862 27.3584 24.3319 27.3925C24.3777 27.4267 24.4234 27.4552 24.4691 27.478C24.5835 27.5008 24.7264 27.5635 24.8979 27.6661C25.0694 27.7686 25.2009 27.8655 25.2924 27.9567C25.3381 28.0023 25.3781 28.0308 25.4124 28.0422C25.4468 28.0536 25.5096 28.0365 25.6011 27.9909C25.6468 27.9909 25.6697 27.9966 25.6697 28.008C25.6697 28.0194 25.6697 28.0365 25.6697 28.0593C25.6697 28.0821 25.6754 28.0992 25.6869 28.1106C25.6983 28.1219 25.7155 28.139 25.7383 28.1618C25.7841 28.1618 25.8069 28.1732 25.8069 28.196C25.8069 28.2188 25.8069 28.2872 25.8069 28.4012C25.8069 28.4923 25.8069 28.5664 25.8069 28.6234C25.8069 28.6804 25.8412 28.7887 25.9098 28.9482L26.047 29.2901L25.8412 29.7004L25.9098 29.8372C25.9327 29.9512 25.9842 30.0537 26.0642 30.1449C26.1442 30.2361 26.23 30.3387 26.3215 30.4526C26.4815 30.5666 26.5844 30.6521 26.6302 30.7091C26.6759 30.766 26.6988 30.8401 26.6988 30.9313C26.6988 30.9769 26.7102 31.0168 26.7331 31.051C26.756 31.0852 26.7788 31.1136 26.8017 31.1364C26.8703 31.2048 26.9503 31.2561 27.0418 31.2903C27.1333 31.3245 27.2362 31.353 27.3505 31.3758L27.5907 31.4442L27.4878 31.4783C27.4649 31.5011 27.4477 31.5239 27.4363 31.5467C27.4249 31.5695 27.4077 31.6037 27.3848 31.6493C27.362 31.6721 27.3505 31.6949 27.3505 31.7177C27.3505 31.7405 27.362 31.7747 27.3848 31.8203C27.4077 31.8658 27.4534 31.9171 27.5221 31.9741C27.5907 32.0311 27.6478 32.071 27.6936 32.0938C27.7622 32.1166 27.8879 32.1223 28.0709 32.1109C28.2538 32.0995 28.4368 32.0824 28.6197 32.0596C28.8484 32.0368 29.0085 32.0254 29.1 32.0254C29.1914 32.0254 29.2372 32.0368 29.2372 32.0596C29.2372 32.1052 29.22 32.1565 29.1857 32.2134C29.1514 32.2704 29.1114 32.2989 29.0657 32.2989C28.9971 32.3217 28.9285 32.3331 28.8599 32.3331C28.7912 32.3331 28.6769 32.3217 28.5168 32.2989C28.3339 32.2533 28.1795 32.2305 28.0537 32.2305C27.928 32.2305 27.8308 32.2533 27.7622 32.2989C27.6936 32.3445 27.6421 32.4015 27.6078 32.4699C27.5735 32.5383 27.5564 32.618 27.5564 32.7092C27.5564 32.8232 27.5735 32.903 27.6078 32.9486C27.6421 32.9941 27.7393 33.0397 27.8994 33.0853C27.968 33.1081 28.0252 33.1309 28.0709 33.1537C28.1166 33.1765 28.1395 33.1993 28.1395 33.2221C28.1395 33.2221 28.1452 33.262 28.1566 33.3417C28.1681 33.4215 28.1738 33.5184 28.1738 33.6324C28.1738 33.7691 28.1795 33.8603 28.191 33.9059C28.2024 33.9515 28.2195 33.9971 28.2424 34.0427C28.2881 34.0655 28.3339 34.0882 28.3796 34.111C28.4254 34.1338 28.4711 34.1452 28.5168 34.1452C28.5168 34.1452 28.5225 34.1452 28.534 34.1452C28.5454 34.1452 28.5511 34.1452 28.5511 34.1452C28.5969 34.1452 28.6426 34.111 28.6883 34.0427C28.7341 33.9743 28.7569 33.9173 28.7569 33.8717C28.7569 33.8489 28.7569 33.8261 28.7569 33.8033C28.7569 33.7805 28.7569 33.7691 28.7569 33.7691L28.9628 34.0768C29.0085 34.1452 29.0542 34.2079 29.1 34.2649C29.1457 34.3219 29.1686 34.3504 29.1686 34.3504C29.1914 34.3504 29.2143 34.3219 29.2372 34.2649C29.26 34.2079 29.2829 34.1452 29.3058 34.0768L29.3401 33.9059C29.3401 33.9059 29.3572 33.923 29.3915 33.9572C29.4258 33.9914 29.4659 34.0313 29.5116 34.0768C29.5802 34.1452 29.6374 34.1965 29.6831 34.2307C29.7288 34.2649 29.7632 34.282 29.786 34.282C29.8089 34.282 29.8203 34.2706 29.8203 34.2478C29.8203 34.225 29.8203 34.1566 29.8203 34.0427C29.8203 33.9059 29.7975 33.7976 29.7517 33.7178C29.706 33.6381 29.6374 33.564 29.5459 33.4956C29.4316 33.3816 29.363 33.319 29.3401 33.3076C29.3172 33.2962 29.3172 33.2449 29.3401 33.1537V33.0169L29.5802 33.1537C29.7632 33.2449 29.9061 33.2848 30.009 33.2734C30.1119 33.262 30.1633 33.2107 30.1633 33.1195C30.1633 33.0739 30.1348 33.0283 30.0776 32.9827C30.0204 32.9372 29.9232 32.8916 29.786 32.846L29.5802 32.7776V32.3331L29.6831 32.3673C29.706 32.3901 29.7346 32.4072 29.7689 32.4186C29.8032 32.43 29.8432 32.4357 29.8889 32.4357C29.9347 32.4585 29.9804 32.4813 30.0261 32.5041C30.0719 32.5269 30.1176 32.5611 30.1633 32.6066C30.2777 32.6978 30.3577 32.7548 30.4035 32.7776C30.4492 32.8004 30.4949 32.8004 30.5407 32.7776C30.6093 32.732 30.6379 32.6864 30.6264 32.6408C30.615 32.5952 30.5635 32.5269 30.4721 32.4357C30.4263 32.4129 30.392 32.3787 30.3692 32.3331C30.3463 32.2875 30.3234 32.2419 30.3006 32.1964C30.3006 32.1508 30.2491 32.0881 30.1462 32.0083C30.0433 31.9285 29.9118 31.843 29.7517 31.7519C29.5459 31.6379 29.3915 31.5296 29.2886 31.4271C29.1857 31.3245 29.1114 31.2048 29.0657 31.0681C29.0199 30.9541 28.9856 30.8629 28.9628 30.7945C28.9399 30.7261 28.9399 30.692 28.9628 30.692C28.9628 30.692 28.9856 30.7034 29.0314 30.7261C29.0771 30.7489 29.1343 30.7717 29.2029 30.7945C29.3172 30.8173 29.3915 30.8344 29.4258 30.8458C29.4601 30.8572 29.4887 30.8401 29.5116 30.7945C29.5345 30.7489 29.523 30.7034 29.4773 30.6578C29.4316 30.6122 29.3287 30.5324 29.1686 30.4184C29.1 30.3728 29.0256 30.3216 28.9456 30.2646C28.8656 30.2076 28.8141 30.1563 28.7912 30.1107C28.7226 30.0423 28.6826 29.9796 28.6712 29.9227C28.6598 29.8657 28.6655 29.746 28.6883 29.5637C28.7112 29.4269 28.7284 29.3414 28.7398 29.3072C28.7512 29.273 28.7798 29.2559 28.8255 29.2559C28.8713 29.2559 28.9227 29.2958 28.9799 29.3756C29.0371 29.4554 29.1114 29.5979 29.2029 29.803C29.3172 30.0081 29.4144 30.1506 29.4944 30.2304C29.5745 30.3102 29.6488 30.3045 29.7174 30.2133C29.7403 30.1677 29.7517 30.1164 29.7517 30.0594C29.7517 30.0024 29.7403 29.9626 29.7174 29.9398C29.6717 29.917 29.6317 29.8771 29.5974 29.8201C29.5631 29.7631 29.5573 29.7346 29.5802 29.7346C29.5802 29.7346 29.6031 29.7517 29.6488 29.7859C29.6945 29.8201 29.7403 29.86 29.786 29.9056C29.8775 29.9967 29.9404 30.048 29.9747 30.0594C30.009 30.0708 30.049 30.0651 30.0947 30.0423C30.1405 30.0195 30.1519 29.991 30.129 29.9569C30.1062 29.9227 30.0147 29.8144 29.8546 29.632C29.786 29.5409 29.7746 29.4953 29.8203 29.4953C29.8661 29.4953 29.9575 29.5409 30.0947 29.632C30.1862 29.7004 30.2491 29.7403 30.2834 29.7517C30.3177 29.7631 30.3463 29.7574 30.3692 29.7346C30.392 29.689 30.392 29.6377 30.3692 29.5808C30.3463 29.5238 30.2891 29.4497 30.1976 29.3585C30.1519 29.3129 30.1233 29.2844 30.1119 29.273C30.1005 29.2616 30.1062 29.2673 30.129 29.2901C30.1976 29.3357 30.2491 29.3471 30.2834 29.3243C30.3177 29.3015 30.3577 29.2218 30.4035 29.085C30.4035 29.0394 30.4149 28.9881 30.4378 28.9311C30.4606 28.8741 30.4835 28.8343 30.5064 28.8115C30.5292 28.7887 30.5978 28.7545 30.7122 28.7089C30.8265 28.6633 30.918 28.6405 30.9866 28.6405C31.0095 28.6405 31.0495 28.6348 31.1067 28.6234C31.1638 28.612 31.2153 28.5949 31.261 28.5721C31.3525 28.5493 31.4268 28.5379 31.484 28.5379C31.5412 28.5379 31.6155 28.5379 31.707 28.5379C31.7756 28.5379 31.8385 28.5379 31.8956 28.5379C31.9528 28.5379 31.9814 28.5265 31.9814 28.5037C32.0042 28.5037 32.0271 28.5037 32.05 28.5037C32.0729 28.5037 32.0843 28.5037 32.0843 28.5037C32.0843 28.5493 32.0729 28.5949 32.05 28.6405C32.0271 28.6861 32.0042 28.7203 31.9814 28.7431C31.9356 28.8571 31.9071 28.9482 31.8956 29.0166C31.8842 29.085 31.8899 29.1192 31.9128 29.1192C32.0271 29.0508 32.1357 28.9767 32.2386 28.8969C32.3416 28.8172 32.4387 28.7431 32.5302 28.6747C32.576 28.6291 32.6045 28.5892 32.616 28.555C32.6274 28.5208 32.6331 28.4923 32.6331 28.4696C32.6331 28.424 32.6388 28.3898 32.6503 28.367C32.6617 28.3442 32.7017 28.31 32.7703 28.2644C32.8847 28.196 32.9933 28.139 33.0962 28.0935C33.1991 28.0479 33.342 28.0023 33.525 27.9567C33.7765 27.8883 33.9309 27.837 33.9881 27.8028C34.0452 27.7686 34.0853 27.7174 34.1081 27.649L34.1424 27.5806L33.8337 27.4096C33.6508 27.2957 33.4793 27.176 33.3192 27.0506C33.1591 26.9253 33.0219 26.7942 32.9075 26.6574L32.7017 26.4181L32.7703 26.2472C32.8161 26.1788 32.8447 26.1161 32.8561 26.0591C32.8675 26.0021 32.8732 25.9166 32.8732 25.8027C32.8732 25.6887 32.8847 25.5804 32.9075 25.4779C32.9304 25.3753 32.9533 25.267 32.9762 25.153L33.0448 24.8453L32.9762 24.3667C32.9762 24.3211 32.9704 24.2698 32.959 24.2128C32.9476 24.1558 32.9418 24.0931 32.9418 24.0247C32.9418 24.002 32.9418 23.9792 32.9418 23.9564C32.9418 23.9336 32.9418 23.9108 32.9418 23.888L33.2849 23.5803L33.5593 23.2726L33.525 23.2042L33.2849 22.6229C33.2849 22.6001 33.302 22.5944 33.3363 22.6058C33.3706 22.6172 33.4107 22.6229 33.4564 22.6229C33.5021 22.6457 33.5364 22.6571 33.5593 22.6571C33.5822 22.6571 33.605 22.6457 33.6279 22.6229L33.6622 22.3494C33.7079 22.0987 33.7765 21.8992 33.868 21.7511C33.9595 21.6029 34.0853 21.4946 34.2453 21.4262C34.2911 21.4035 34.3425 21.3864 34.3997 21.375C34.4569 21.3636 34.5426 21.3579 34.657 21.3579H34.9314V20.7082L34.9657 19.1697L35 18.2807L34.9314 18.3149C34.8857 18.3605 34.7942 18.3776 34.657 18.3662C34.5198 18.3548 34.3597 18.3149 34.1767 18.2465C33.9023 18.1781 33.7194 18.1382 33.6279 18.1268C33.5364 18.1154 33.4335 18.1325 33.3192 18.1781C33.2048 18.2009 33.1305 18.2123 33.0962 18.2123C33.0619 18.2123 32.999 18.1895 32.9075 18.1439L32.6674 18.0414L32.5645 18.0072V17.8704C32.5874 17.7792 32.5988 17.7279 32.5988 17.7165C32.5988 17.7051 32.576 17.6653 32.5302 17.5969C32.4845 17.5741 32.4502 17.5399 32.4273 17.4943C32.4044 17.4487 32.393 17.3917 32.393 17.3233C32.3701 17.2322 32.3358 17.1638 32.2901 17.1182C32.2444 17.0726 32.1758 17.0156 32.0843 16.9473C32.0614 16.9245 32.0443 16.8903 32.0328 16.8447C32.0214 16.7991 32.0157 16.7193 32.0157 16.6053L31.9814 16.2976L32.1872 16.4002L32.3587 16.5711C32.3816 16.5939 32.4102 16.5996 32.4445 16.5882C32.4788 16.5768 32.5074 16.5484 32.5302 16.5028C32.5531 16.48 32.5702 16.4629 32.5817 16.4515C32.5931 16.4401 32.6103 16.423 32.6331 16.4002C32.7246 16.3774 32.7475 16.3033 32.7017 16.178C32.656 16.0526 32.576 15.9443 32.4616 15.8531L32.1872 15.6138C32.1186 15.5682 32.0671 15.5283 32.0328 15.4941C31.9985 15.4599 31.9585 15.4201 31.9128 15.3745L31.8442 15.2719V14.3829L31.7756 14.2804C31.7298 14.212 31.6669 14.155 31.5869 14.1094C31.5069 14.0638 31.3754 13.9954 31.1924 13.9043C31.1009 13.8815 31.0266 13.8473 30.9695 13.8017C30.9123 13.7561 30.8494 13.7105 30.7808 13.6649C30.7122 13.5965 30.5693 13.437 30.352 13.1863C30.1348 12.9355 30.0033 12.776 29.9575 12.7076L29.8889 12.605L29.9575 12.4341C30.049 12.1149 30.049 11.887 29.9575 11.7502C29.8661 11.6135 29.6374 11.5223 29.2715 11.4767C29.2257 11.4767 29.1743 11.4653 29.1171 11.4425C29.0599 11.4197 29.0085 11.3969 28.9628 11.3741L28.8599 11.3058L28.9971 11.169C29.0885 11.1006 29.1571 11.0379 29.2029 10.981C29.2486 10.924 29.2715 10.8841 29.2715 10.8613C29.2486 10.8385 29.2315 10.8214 29.22 10.81C29.2086 10.7986 29.1914 10.7815 29.1686 10.7587C29.1228 10.7359 29.0885 10.7188 29.0657 10.7074C29.0428 10.696 29.0199 10.6789 28.9971 10.6561C28.9742 10.6333 28.9628 10.6049 28.9628 10.5707C28.9628 10.5365 28.9742 10.508 28.9971 10.4852C29.0199 10.4624 29.0428 10.4396 29.0657 10.4168C29.0885 10.394 29.1 10.3712 29.1 10.3484L29.1686 10.1433C29.1914 10.0977 29.1972 10.0692 29.1857 10.0578C29.1743 10.0464 29.1571 10.0179 29.1343 9.97232C29.0885 9.94953 29.0256 9.92673 28.9456 9.90394C28.8656 9.88115 28.7912 9.86975 28.7226 9.86975H28.6883C28.6883 9.84696 28.6655 9.84126 28.6197 9.85266C28.574 9.86405 28.5168 9.86975 28.4482 9.86975ZM11.3656 10.7587C11.3427 10.7587 11.3141 10.7701 11.2798 10.7929C11.2455 10.8157 11.2169 10.8385 11.1941 10.8613C11.1483 10.9297 11.1083 10.9923 11.074 11.0493C11.0397 11.1063 11.0225 11.169 11.0225 11.2374V11.2716C11.0225 11.2944 11.0283 11.3058 11.0397 11.3058C11.0511 11.3058 11.1026 11.3058 11.1941 11.3058C11.2855 11.3058 11.377 11.283 11.4685 11.2374C11.5599 11.1918 11.64 11.1462 11.7086 11.1006C11.7315 11.055 11.7486 11.0094 11.76 10.9639C11.7715 10.9183 11.7772 10.8727 11.7772 10.8271C11.7772 10.8271 11.7772 10.8214 11.7772 10.81C11.7772 10.7986 11.7772 10.7815 11.7772 10.7587C11.7772 10.7359 11.7658 10.7188 11.7429 10.7074C11.72 10.696 11.6857 10.6903 11.64 10.6903C11.5943 10.6903 11.5485 10.696 11.5028 10.7074C11.457 10.7188 11.4113 10.7359 11.3656 10.7587ZM12.2231 11.0322C12.1545 11.0322 12.0745 11.0721 11.983 11.1519C11.8915 11.2317 11.7429 11.3627 11.5371 11.5451L11.2627 11.8528L11.1941 11.7502C11.1255 11.7047 11.0626 11.6705 11.0054 11.6477C10.9482 11.6249 10.8853 11.6249 10.8167 11.6477C10.7939 11.6477 10.771 11.6534 10.7481 11.6648C10.7253 11.6762 10.7138 11.6819 10.7138 11.6819L10.851 11.9212C10.8739 11.9896 10.9025 12.0523 10.9368 12.1092C10.9711 12.1662 11.0111 12.1947 11.0568 12.1947L11.1255 12.2631L10.8853 12.4341C10.7253 12.5024 10.5995 12.5822 10.508 12.6734C10.4165 12.7646 10.3594 12.8557 10.3365 12.9469C10.3136 13.0381 10.3136 13.0951 10.3365 13.1179C10.3594 13.1407 10.4051 13.1521 10.4737 13.1521C10.6109 13.1521 10.7138 13.1578 10.7824 13.1692C10.851 13.1806 10.8853 13.1977 10.8853 13.2205C10.8853 13.2432 10.8625 13.2945 10.8167 13.3743C10.771 13.4541 10.7253 13.5396 10.6795 13.6307L10.4394 14.0068C10.4394 14.0068 10.4623 14.0068 10.508 14.0068C10.6452 13.9613 10.7481 13.9328 10.8167 13.9214C10.8853 13.91 10.9311 13.9043 10.9539 13.9043C10.9768 13.9271 10.9711 13.9669 10.9368 14.0239C10.9025 14.0809 10.851 14.1436 10.7824 14.212C10.7138 14.2576 10.6738 14.2918 10.6624 14.3146C10.6509 14.3374 10.6681 14.3715 10.7138 14.4171C10.7596 14.4855 10.8224 14.5311 10.9025 14.5539C10.9825 14.5767 11.1026 14.5653 11.2627 14.5197C11.377 14.4969 11.4628 14.4798 11.5199 14.4684C11.5771 14.457 11.6171 14.4627 11.64 14.4855C11.6857 14.5311 11.6972 14.5938 11.6743 14.6736C11.6514 14.7533 11.6057 14.8388 11.5371 14.93L11.4685 15.0326L11.5371 15.2035C11.5828 15.3631 11.5943 15.4827 11.5714 15.5625C11.5485 15.6423 11.4799 15.7392 11.3656 15.8531C11.2741 15.9443 11.2055 15.9899 11.1598 15.9899C11.114 15.9899 10.9997 15.9443 10.8167 15.8531C10.7481 15.8303 10.691 15.8076 10.6452 15.7848C10.5995 15.762 10.5652 15.762 10.5423 15.7848C10.5194 15.7848 10.508 15.819 10.508 15.8873C10.508 15.9557 10.5194 16.0241 10.5423 16.0925L10.5766 16.2292H10.4737C10.3822 16.2292 10.3365 16.2463 10.3365 16.2805C10.3365 16.3147 10.3822 16.366 10.4737 16.4344C10.5652 16.48 10.6109 16.5199 10.6109 16.5541C10.6109 16.5882 10.5995 16.6395 10.5766 16.7079C10.5309 16.7763 10.4623 16.8333 10.3708 16.8789C10.2793 16.9245 10.165 16.9814 10.0278 17.0498C9.9363 17.0726 9.86197 17.0954 9.8048 17.1182C9.74763 17.141 9.71905 17.1524 9.71905 17.1524C9.67331 17.198 9.64472 17.255 9.63329 17.3233C9.62186 17.3917 9.6047 17.4601 9.58184 17.5285C9.58184 17.5513 9.61614 17.5627 9.68474 17.5627C9.75335 17.5627 9.85626 17.5741 9.99347 17.5969H10.4051L10.508 17.6994C10.5309 17.745 10.5537 17.7735 10.5766 17.7849C10.5995 17.7963 10.6566 17.802 10.7481 17.802C10.7939 17.802 10.8396 17.802 10.8853 17.802C10.9311 17.802 10.9539 17.802 10.9539 17.802C10.9539 17.8248 10.9196 17.8647 10.851 17.9217C10.7824 17.9787 10.7253 18.0186 10.6795 18.0414C10.6338 18.0641 10.5938 18.0755 10.5595 18.0755C10.5252 18.0755 10.4508 18.0528 10.3365 18.0072C10.2908 18.0072 10.245 18.0015 10.1993 17.9901C10.1535 17.9787 10.1078 17.973 10.0621 17.973C10.0392 17.973 9.98775 18.0186 9.90771 18.1097C9.82767 18.2009 9.77622 18.2693 9.75335 18.3149C9.73048 18.3377 9.67331 18.3719 9.58184 18.4175C9.49036 18.463 9.33029 18.52 9.1016 18.5884C8.82718 18.7024 8.6671 18.7651 8.62137 18.7765C8.57563 18.7879 8.56419 18.8163 8.58706 18.8619C8.65567 18.9303 8.75858 18.9702 8.89579 18.9816C9.033 18.993 9.21594 18.9759 9.44463 18.9303L9.85626 18.8619C9.87913 18.8619 9.90199 18.8676 9.92486 18.879C9.94773 18.8904 9.95916 18.9075 9.95916 18.9303C9.95916 18.9531 9.96488 18.9702 9.97632 18.9816C9.98775 18.993 10.0049 18.9987 10.0278 18.9987L10.165 18.8961C10.3022 18.805 10.4108 18.748 10.4909 18.7252C10.5709 18.7024 10.6566 18.7366 10.7481 18.8277C10.8167 18.8733 10.8796 18.8904 10.9368 18.879C10.994 18.8676 11.1026 18.8391 11.2627 18.7936L11.5371 18.7252C11.5599 18.7252 11.5771 18.7366 11.5885 18.7594C11.6 18.7822 11.6171 18.805 11.64 18.8277C11.7086 18.9189 11.7715 18.993 11.8287 19.05C11.8858 19.107 11.9373 19.1241 11.983 19.1013C12.0287 19.1013 12.0631 19.0728 12.0859 19.0158C12.1088 18.9588 12.1202 18.8961 12.1202 18.8277C12.1202 18.805 12.1202 18.7879 12.1202 18.7765C12.1202 18.7651 12.1317 18.7594 12.1545 18.7594C12.2917 18.805 12.4289 18.8277 12.5662 18.8277C12.7034 18.8277 12.8406 18.8163 12.9778 18.7936C13.115 18.7708 13.2522 18.7138 13.3894 18.6226C13.5266 18.5314 13.5952 18.463 13.5952 18.4175C13.5952 18.3719 13.5781 18.3377 13.5438 18.3149C13.5095 18.2921 13.4466 18.2579 13.3551 18.2123C13.3094 18.2123 13.2694 18.2009 13.2351 18.1781C13.2008 18.1553 13.1836 18.1439 13.1836 18.1439C13.1607 18.1439 13.1607 18.1268 13.1836 18.0926C13.2065 18.0585 13.2408 18.03 13.2865 18.0072L13.458 17.8362C13.4809 17.8134 13.5038 17.7963 13.5266 17.7849C13.5495 17.7735 13.5609 17.7678 13.5609 17.7678C13.6524 17.7678 13.7725 17.7165 13.9211 17.614C14.0697 17.5114 14.1784 17.4145 14.247 17.3233C14.2698 17.3006 14.2813 17.2778 14.2813 17.255C14.2813 17.2322 14.2813 17.2094 14.2813 17.1866C14.2355 17.0954 14.1841 17.027 14.1269 16.9814C14.0697 16.9359 14.0069 16.8903 13.9383 16.8447C13.8697 16.8447 13.8068 16.8447 13.7496 16.8447C13.6924 16.8447 13.641 16.8447 13.5952 16.8447C13.5724 16.8447 13.5552 16.8447 13.5438 16.8447C13.5323 16.8447 13.5266 16.8447 13.5266 16.8447C13.4352 16.8447 13.3608 16.839 13.3037 16.8276C13.2465 16.8162 13.2179 16.8105 13.2179 16.8105L13.3551 16.4002C13.4923 16.0811 13.5552 15.8417 13.5438 15.6822C13.5323 15.5226 13.4352 15.3631 13.2522 15.2035L13.0807 15.0326L13.115 14.8958C13.115 14.8274 13.1093 14.7818 13.0978 14.759C13.0864 14.7362 13.0464 14.7362 12.9778 14.759C12.932 14.7818 12.8863 14.7875 12.8406 14.7761C12.7948 14.7647 12.772 14.7476 12.772 14.7248L12.8749 14.4171C12.9435 14.2576 12.9835 14.1379 12.9949 14.0581C13.0064 13.9783 13.0007 13.9043 12.9778 13.8359C12.9778 13.7903 12.9492 13.7504 12.892 13.7162C12.8349 13.682 12.7948 13.6649 12.772 13.6649C12.7491 13.6649 12.7262 13.6592 12.7034 13.6478C12.6805 13.6364 12.6576 13.6307 12.6348 13.6307C12.6119 13.6079 12.589 13.5909 12.5662 13.5795C12.5433 13.5681 12.5204 13.551 12.4976 13.5282C12.4518 13.5282 12.4289 13.5225 12.4289 13.5111C12.4289 13.4997 12.4404 13.4598 12.4632 13.3914C12.4861 13.3002 12.5433 13.2034 12.6348 13.1008C12.7262 12.9982 12.8634 12.8444 13.0464 12.6392C13.2522 12.4341 13.378 12.2973 13.4237 12.2289C13.4695 12.1605 13.4809 12.0922 13.458 12.0238C13.458 11.9782 13.378 11.9497 13.2179 11.9383C13.0578 11.9269 12.852 11.944 12.6005 11.9896L12.2574 12.0238C12.2346 12.0238 12.2917 11.9611 12.4289 11.8357C12.5662 11.7104 12.7148 11.5793 12.8749 11.4425C12.9664 11.3741 13.0521 11.3058 13.1321 11.2374C13.2122 11.169 13.2522 11.1348 13.2522 11.1348C13.2522 11.1348 13.2522 11.1291 13.2522 11.1177C13.2522 11.1063 13.2522 11.0892 13.2522 11.0664C13.2293 11.0436 13.1893 11.0322 13.1321 11.0322C13.075 11.0322 12.9549 11.0322 12.772 11.0322C12.7262 11.0322 12.6748 11.0265 12.6176 11.0151C12.5604 11.0037 12.509 10.998 12.4632 10.998C12.4175 10.998 12.3775 10.998 12.3432 10.998C12.3089 10.998 12.2689 11.0094 12.2231 11.0322ZM9.30742 13.7333C9.23881 13.7561 9.17021 13.7846 9.1016 13.8188C9.033 13.853 8.97583 13.8929 8.93009 13.9385C8.90722 13.9613 8.88435 13.9783 8.86148 13.9897C8.83862 14.0011 8.81575 14.0068 8.79288 14.0068C8.72427 14.0068 8.67282 14.0239 8.63852 14.0581C8.60421 14.0923 8.5985 14.1208 8.62137 14.1436C8.64423 14.1664 8.6671 14.1835 8.68997 14.1949C8.71284 14.2063 8.73571 14.212 8.75858 14.212C8.80431 14.212 8.8329 14.2177 8.84433 14.2291C8.85577 14.2405 8.86148 14.269 8.86148 14.3146C8.86148 14.3374 8.85005 14.3601 8.82718 14.3829C8.80431 14.4057 8.77001 14.4285 8.72427 14.4513C8.67854 14.4741 8.64995 14.4855 8.63852 14.4855C8.62708 14.4855 8.60993 14.4741 8.58706 14.4513C8.49559 14.3829 8.36981 14.3317 8.20974 14.2975C8.04966 14.2633 7.92388 14.269 7.83241 14.3146C7.7638 14.3374 7.6952 14.3772 7.62659 14.4342C7.55799 14.4912 7.52369 14.5425 7.52369 14.5881C7.52369 14.5881 7.5294 14.5995 7.54084 14.6223C7.55227 14.6451 7.56942 14.6565 7.59229 14.6565C7.61516 14.6793 7.63231 14.7021 7.64374 14.7248C7.65518 14.7476 7.6609 14.7704 7.6609 14.7932C7.68376 14.8388 7.68376 14.873 7.6609 14.8958C7.63803 14.9186 7.58086 14.9414 7.48938 14.9642C7.37504 15.0098 7.30644 15.0383 7.28357 15.0497C7.2607 15.0611 7.24927 15.0668 7.24927 15.0668C7.24927 15.1123 7.27213 15.1579 7.31787 15.2035C7.36361 15.2491 7.40934 15.2833 7.45508 15.3061C7.47795 15.3289 7.51797 15.346 7.57514 15.3574C7.63231 15.3688 7.68376 15.3859 7.7295 15.4087L7.93532 15.4429L7.7638 15.5112C7.67233 15.534 7.60372 15.5397 7.55799 15.5283C7.51225 15.5169 7.47795 15.4884 7.45508 15.4429C7.43221 15.3745 7.40934 15.3517 7.38648 15.3745C7.36361 15.3973 7.3293 15.4429 7.28357 15.5112L7.24927 15.6822C7.24927 15.6822 7.23211 15.6765 7.19781 15.6651C7.16351 15.6537 7.13492 15.648 7.11206 15.648L6.94054 15.5796C6.89481 15.5796 6.85479 15.6024 6.82048 15.648C6.78618 15.6936 6.76903 15.7392 6.76903 15.7848C6.76903 15.8303 6.77475 15.8588 6.78618 15.8702C6.79762 15.8816 6.81477 15.8987 6.83764 15.9215L6.94054 15.9557L6.76903 15.9899C6.72329 16.0127 6.68327 16.0298 6.64897 16.0412C6.61467 16.0526 6.58608 16.0697 6.56321 16.0925C6.54035 16.0925 6.54035 16.1096 6.56321 16.1438C6.58608 16.178 6.60895 16.2178 6.63182 16.2634C6.65469 16.2862 6.66612 16.3147 6.66612 16.3489C6.66612 16.3831 6.63182 16.4344 6.56321 16.5028C6.54035 16.5256 6.5232 16.5541 6.51176 16.5882C6.50033 16.6224 6.49461 16.6395 6.49461 16.6395C6.49461 16.6623 6.5232 16.6908 6.58037 16.725C6.63754 16.7592 6.70043 16.7991 6.76903 16.8447L7.04345 16.9473H7.38648C7.61516 16.9245 7.83813 16.896 8.05537 16.8618C8.27262 16.8276 8.43842 16.7991 8.55276 16.7763C8.73571 16.7307 8.91866 16.6566 9.1016 16.5541C9.28455 16.4515 9.42176 16.3546 9.51323 16.2634C9.6047 16.1495 9.67903 16.0013 9.7362 15.819C9.79337 15.6366 9.82195 15.4884 9.82195 15.3745L9.78765 15.2377L10.3365 14.8616V14.5539C10.3365 14.4171 10.3308 14.3146 10.3193 14.2462C10.3079 14.1778 10.2908 14.1208 10.2679 14.0752C10.245 13.984 10.2164 13.9328 10.1821 13.9214C10.1478 13.91 10.0964 13.9157 10.0278 13.9385C10.0049 13.9385 9.98203 13.9385 9.95916 13.9385C9.9363 13.9385 9.92486 13.9385 9.92486 13.9385C9.90199 13.9157 9.87341 13.8986 9.83911 13.8872C9.8048 13.8758 9.77622 13.8701 9.75335 13.8701C9.68474 13.8473 9.64472 13.8359 9.63329 13.8359C9.62186 13.8359 9.61614 13.8131 9.61614 13.7675C9.61614 13.7447 9.61614 13.7276 9.61614 13.7162C9.61614 13.7048 9.58184 13.6991 9.51323 13.6991C9.51323 13.6991 9.48465 13.6991 9.42748 13.6991C9.37031 13.6991 9.33029 13.7105 9.30742 13.7333ZM17.2656 27.6148C17.0598 27.7971 16.9283 27.9225 16.8711 27.9909C16.814 28.0593 16.7739 28.1504 16.7511 28.2644C16.7511 28.3328 16.7453 28.4069 16.7339 28.4866C16.7225 28.5664 16.7168 28.6405 16.7168 28.7089C16.7168 28.8229 16.7168 28.8969 16.7168 28.9311C16.7168 28.9653 16.7396 29.0052 16.7854 29.0508C16.8311 29.1192 16.8997 29.1876 16.9912 29.2559C17.0827 29.3243 17.1513 29.3471 17.197 29.3243C17.2427 29.3015 17.2999 29.2388 17.3685 29.1363C17.4371 29.0337 17.5057 28.9254 17.5743 28.8115C17.6429 28.6291 17.6829 28.4297 17.6944 28.2131C17.7058 27.9966 17.7001 27.8199 17.6772 27.6832C17.6544 27.6148 17.6258 27.5521 17.5915 27.4951C17.5572 27.4381 17.5286 27.4096 17.5057 27.4096C17.5057 27.4096 17.4829 27.4324 17.4371 27.478C17.3914 27.5236 17.3342 27.5692 17.2656 27.6148ZM17.0598 29.5979C17.0369 29.6434 16.9855 29.689 16.9054 29.7346C16.8254 29.7802 16.7511 29.8258 16.6825 29.8714C16.4995 29.9853 16.3966 30.0765 16.3737 30.1449C16.3509 30.2133 16.3394 30.3956 16.3394 30.692C16.3394 30.8743 16.3337 31.0111 16.3223 31.1022C16.3108 31.1934 16.2937 31.296 16.2708 31.41C16.2251 31.5923 16.1965 31.7519 16.1851 31.8886C16.1736 32.0254 16.1794 32.1052 16.2022 32.128C16.2251 32.1508 16.248 32.1622 16.2708 32.1622C16.2937 32.1622 16.3394 32.1508 16.408 32.128C16.4538 32.128 16.4995 32.1109 16.5452 32.0767C16.591 32.0425 16.6367 32.0026 16.6825 31.957C16.7739 31.8658 16.8368 31.8146 16.8711 31.8032C16.9054 31.7918 16.9454 31.8089 16.9912 31.8544C16.9912 31.8772 16.9969 31.8943 17.0083 31.9057C17.0198 31.9171 17.0255 31.9228 17.0255 31.9228C17.0484 31.9228 17.0827 31.8772 17.1284 31.7861C17.1741 31.6949 17.2199 31.5695 17.2656 31.41L17.3685 31.1706L17.2999 30.9655C17.2542 30.8287 17.237 30.7375 17.2484 30.692C17.2599 30.6464 17.2999 30.6008 17.3685 30.5552C17.4142 30.5096 17.4428 30.4469 17.4543 30.3671C17.4657 30.2874 17.46 30.1791 17.4371 30.0423C17.4371 29.9284 17.4085 29.8144 17.3514 29.7004C17.2942 29.5865 17.2542 29.5295 17.2313 29.5295C17.2084 29.5295 17.1798 29.5409 17.1455 29.5637C17.1112 29.5865 17.0827 29.5979 17.0598 29.5979ZM22.068 32.9486C22.0222 32.9713 21.9479 32.9941 21.845 33.0169C21.7421 33.0397 21.6335 33.0739 21.5191 33.1195C21.2676 33.1879 21.0789 33.2221 20.9531 33.2221C20.8273 33.2221 20.6959 33.1879 20.5586 33.1195L20.4214 33.0511L20.2156 33.0853L19.8726 33.1879C19.7582 33.2107 19.6725 33.2449 19.6153 33.2905C19.5582 33.336 19.5181 33.4158 19.4953 33.5298C19.4495 33.621 19.4381 33.6894 19.461 33.7349C19.4838 33.7805 19.541 33.8375 19.6325 33.9059C19.7468 33.9971 19.8955 34.0939 20.0784 34.1965C20.2614 34.2991 20.5129 34.4188 20.8331 34.5555L21.6906 34.8974L21.9307 35L21.9993 34.8974C22.068 34.8063 22.108 34.7322 22.1194 34.6752C22.1308 34.6182 22.1366 34.5213 22.1366 34.3846C22.1137 34.0655 22.108 33.8546 22.1194 33.752C22.1308 33.6495 22.148 33.5754 22.1709 33.5298C22.2166 33.4614 22.2509 33.3873 22.2738 33.3076C22.2966 33.2278 22.3081 33.1537 22.3081 33.0853C22.3081 33.0169 22.2966 32.977 22.2738 32.9656C22.2509 32.9542 22.1823 32.9486 22.068 32.9486Z" fill="black"/>
</svg>
