<svg width="30" height="27" viewBox="0 0 30 27" fill="none" xmlns="http://www.w3.org/2000/svg">
<path d="M14.4519 25.2309C14.4519 25.0692 14.4519 25.0288 14.4519 25.1096C14.4519 25.1905 14.4519 25.2309 14.4519 25.2309ZM21.9996 26.8753C21.9996 26.7135 21.9996 26.6731 21.9996 26.754C21.9996 26.8348 21.9996 26.8753 21.9996 26.8753ZM23.2935 26.5518C23.4552 26.5518 23.563 26.5383 23.6169 26.5114C23.6709 26.4844 23.7877 26.3811 23.9674 26.2014H23.6169C23.4552 26.2014 23.3609 26.2148 23.3339 26.2418C23.3069 26.2687 23.2935 26.3721 23.2935 26.5518C23.2935 26.3721 23.28 26.2687 23.253 26.2418C23.2261 26.2148 23.1317 26.2014 22.97 26.2014C22.97 26.2014 22.9835 26.2598 23.0104 26.3766C23.0374 26.4934 23.1317 26.5518 23.2935 26.5518C23.1317 26.5518 23.0913 26.5518 23.1722 26.5518C23.253 26.5518 23.2935 26.5518 23.2935 26.5518ZM22.6465 22.6162C22.4848 22.6162 22.4309 22.5039 22.4848 22.2792C22.5387 22.0546 22.4848 21.9423 22.323 21.9423C22.323 21.7806 22.2691 21.6188 22.1613 21.4571C22.0535 21.2953 21.9996 21.1336 21.9996 20.9719L21.6491 20.3249C21.3257 20.3249 20.9483 20.3788 20.517 20.4867C20.0857 20.5945 19.6993 20.6484 19.3579 20.6484C19.0344 20.8101 18.7918 20.918 18.6301 20.9719C18.4683 21.0258 18.3875 21.1336 18.3875 21.2953C18.3875 21.4571 18.3201 21.6053 18.1853 21.7401C18.0505 21.8749 17.9022 21.9423 17.7405 21.9423C17.5608 21.9423 17.4575 21.8884 17.4305 21.7806C17.4036 21.6727 17.3901 21.6188 17.3901 21.6188H14.7753V23.5866C14.7753 23.5866 14.7349 23.5866 14.654 23.5866C14.5732 23.5866 14.6136 23.5866 14.7753 23.5866V25.2309C14.7753 25.3927 14.8292 25.5005 14.9371 25.5544C15.0449 25.6083 15.0988 25.7161 15.0988 25.8779H15.7727C15.9344 25.8779 16.0423 25.8374 16.0962 25.7566C16.1501 25.6757 16.2579 25.7161 16.4197 25.8779H16.7431L17.0666 25.5544H18.064C18.2257 25.5544 18.3201 25.5005 18.347 25.3927C18.374 25.2848 18.3875 25.2309 18.3875 25.2309H19.0344C19.1961 25.2309 19.304 25.1635 19.3579 25.0288C19.4118 24.894 19.5286 24.7457 19.7083 24.584H20.0318C20.1935 24.584 20.3013 24.5256 20.3552 24.4088C20.4092 24.292 20.517 24.2336 20.6787 24.2336H21.0022C21.0022 24.2336 21.0561 24.2201 21.1639 24.1931C21.2718 24.1662 21.3257 24.0718 21.3257 23.9101C21.3257 23.9101 21.3796 23.8966 21.4874 23.8697C21.5952 23.8427 21.6491 23.7483 21.6491 23.5866V23.2631C21.8289 23.1014 21.9996 22.9936 22.1613 22.9397C22.323 22.8858 22.4848 22.7779 22.6465 22.6162ZM7.79369 11.2677C7.79369 11.1419 7.80268 11.0206 7.82065 10.9038C7.83862 10.7869 7.8476 10.6656 7.8476 10.5398C7.8476 10.3961 7.87007 10.2703 7.91499 10.1625C7.95992 10.0546 8.00036 9.91985 8.0363 9.75812V9.40769C8.0363 9.3358 8.04528 9.27291 8.06325 9.21899C8.08122 9.16508 8.09021 9.12015 8.09021 9.08421C8.09021 8.97639 8.08572 8.85958 8.07673 8.73378C8.06775 8.60799 8.05427 8.48219 8.0363 8.3564C8.0363 8.26654 8.08122 8.2306 8.17108 8.24857C8.26093 8.26654 8.33281 8.28451 8.38673 8.30248C8.47658 8.37437 8.57093 8.44176 8.66977 8.50466C8.76861 8.56755 8.88092 8.58103 9.00672 8.54509C9.11454 8.52712 9.22686 8.46871 9.34367 8.36987C9.46048 8.27104 9.56381 8.18567 9.65366 8.11379C9.77946 8.02394 9.90526 7.93858 10.0311 7.85771C10.1568 7.77684 10.3006 7.70945 10.4623 7.65554C10.4803 7.76336 10.5163 7.88916 10.5702 8.03292C10.6241 8.17669 10.687 8.31147 10.7589 8.43727C10.687 8.43727 10.66 8.45524 10.678 8.49118C10.696 8.52712 10.7229 8.54509 10.7589 8.54509C10.8128 8.54509 10.8577 8.55408 10.8936 8.57205C10.9296 8.59002 10.9026 8.64393 10.8128 8.73378C10.5792 8.87755 10.3366 8.98987 10.085 9.07073C9.83337 9.1516 9.5728 9.23696 9.30324 9.32682L10.1389 10.2433C10.1209 10.2793 10.067 10.3017 9.97714 10.3107C9.88728 10.3197 9.82439 10.3422 9.78845 10.3781C9.7525 10.3961 9.73903 10.441 9.74801 10.5129C9.757 10.5848 9.7525 10.6387 9.73453 10.6746C9.66265 10.7285 9.5683 10.7465 9.45149 10.7285C9.33468 10.7106 9.24034 10.7465 9.16845 10.8364C9.0786 10.9442 9.00672 11.0565 8.95281 11.1733C8.89889 11.2901 8.80904 11.3665 8.68324 11.4024C8.59339 11.4204 8.45412 11.4114 8.26542 11.3755C8.07673 11.3395 7.91949 11.3036 7.79369 11.2677ZM21.0022 15.7154C21.0022 15.7154 21.0022 15.7559 21.0022 15.8367C21.0022 15.9176 21.0022 15.8772 21.0022 15.7154L21.3257 16.0389H22.97C22.97 16.0389 23.0239 16.0254 23.1317 15.9985C23.2396 15.9715 23.2935 15.8772 23.2935 15.7154C23.2935 15.5537 23.3069 15.4593 23.3339 15.4324C23.3609 15.4054 23.4552 15.3919 23.6169 15.3919C23.7966 15.3919 23.9 15.3246 23.9269 15.1898C23.9539 15.055 23.9674 14.9067 23.9674 14.745C24.1291 14.745 24.2235 14.6911 24.2504 14.5833C24.2774 14.4754 24.2908 14.4215 24.2908 14.4215V14.745C24.2908 14.745 24.3448 14.7585 24.4526 14.7854C24.5604 14.8124 24.6143 14.9067 24.6143 15.0685V15.7154C24.4526 15.8772 24.3582 15.9176 24.3313 15.8367C24.3043 15.7559 24.2908 15.7154 24.2908 15.7154V16.3893C24.2908 16.5511 24.3313 16.605 24.4121 16.5511C24.493 16.4971 24.4526 16.5511 24.2908 16.7128H23.9674C24.1291 16.7128 24.1695 16.8341 24.0887 17.0767C24.0078 17.3193 23.9674 17.5215 23.9674 17.6832C23.9674 17.845 23.9539 17.9393 23.9269 17.9663C23.9 17.9932 23.7966 18.0067 23.6169 18.0067H21.6491L21.0022 17.3597V15.7154ZM0.353799 0.970417C0.353799 0.970417 0.394233 0.970417 0.475102 0.970417C0.55597 0.970417 0.515536 0.970417 0.353799 0.970417C0.515536 0.80868 0.569448 0.700855 0.515536 0.646944C0.461624 0.593031 0.515536 0.485207 0.677273 0.323469C0.515536 0.323469 0.475102 0.309992 0.55597 0.283035C0.636839 0.256079 0.677273 0.161734 0.677273 -3.8147e-06H1.99812C2.15986 0.161734 2.26768 0.256079 2.3216 0.283035C2.37551 0.309992 2.48333 0.323469 2.64507 0.323469V0.646944H1.32422L1.00075 0.970417C1.00075 0.970417 0.946834 0.983894 0.83901 1.01085C0.731185 1.03781 0.677273 1.13215 0.677273 1.29389L0.353799 1.61736C0.353799 1.61736 0.367277 1.56345 0.394233 1.45563C0.42119 1.3478 0.515536 1.29389 0.677273 1.29389C0.677273 1.29389 0.731185 1.28041 0.83901 1.25346C0.946834 1.2265 1.00075 1.13215 1.00075 0.970417C0.83901 0.970417 0.690751 1.01085 0.55597 1.09172C0.42119 1.17259 0.353799 1.13215 0.353799 0.970417ZM0.677273 2.29127V1.94084L1.00075 1.61736H2.96854C2.96854 1.45563 3.08086 1.40171 3.3055 1.45563C3.53013 1.50954 3.64245 1.45563 3.64245 1.29389H2.96854C2.96854 1.29389 2.98202 1.23998 3.00898 1.13215C3.03593 1.02433 3.13028 0.970417 3.29202 0.970417H4.61287L4.93634 0.646944C4.93634 0.646944 4.99025 0.633465 5.09808 0.606508C5.2059 0.579554 5.25982 0.485207 5.25982 0.323469C5.43952 0.323469 5.55633 0.269558 5.61024 0.161734C5.66416 0.0539093 5.77198 -3.8147e-06 5.93372 -3.8147e-06H7.57804C7.57804 -3.8147e-06 7.59152 0.0539093 7.61848 0.161734C7.64543 0.269558 7.73978 0.323469 7.90152 0.323469H8.54846C8.54846 0.161734 8.54846 0.121298 8.54846 0.202168C8.54846 0.283035 8.54846 0.323469 8.54846 0.323469L8.87194 0.646944H9.19541C9.19541 0.646944 9.25382 0.660421 9.37063 0.687378C9.48744 0.714334 9.54584 0.80868 9.54584 0.970417H11.8371C11.9988 0.970417 12.1067 0.916504 12.1606 0.80868C12.2145 0.700855 12.3223 0.646944 12.4841 0.646944H13.131C13.131 0.646944 13.1849 0.606508 13.2927 0.52564C13.4006 0.444773 13.4545 0.485207 13.4545 0.646944H14.1284V0.970417L14.4519 1.29389V1.61736H14.7753L15.0988 1.94084C15.0988 1.94084 15.0449 1.9004 14.9371 1.81953C14.8292 1.73867 14.7753 1.7791 14.7753 1.94084V2.29127H14.4519V2.93822C14.4519 2.93822 14.4653 2.99213 14.4923 3.09995C14.5192 3.20778 14.6136 3.26169 14.7753 3.26169V3.58516C14.7753 3.7469 14.7888 3.80081 14.8158 3.7469C14.8427 3.69299 14.9371 3.7469 15.0988 3.90864V4.58254C14.9371 4.58254 14.8427 4.62297 14.8158 4.70384C14.7888 4.78471 14.7753 4.74428 14.7753 4.58254V4.25907H13.4545C13.4545 4.25907 13.4006 4.2995 13.2927 4.38037C13.1849 4.46124 13.131 4.4208 13.131 4.25907H12.1606C11.9988 4.25907 11.8191 4.31298 11.6215 4.4208C11.4238 4.52863 11.1632 4.58254 10.8397 4.58254H10.1928C10.1928 4.58254 10.1389 4.5421 10.0311 4.46124C9.92323 4.38037 9.86931 4.4208 9.86931 4.58254C9.70758 4.58254 9.55483 4.62297 9.41106 4.70384C9.26729 4.78471 9.19541 4.74428 9.19541 4.58254H8.87194V4.90601H8.54846V5.55296H8.22499V4.90601C8.22499 4.90601 8.26542 4.89253 8.34629 4.86558C8.42716 4.83862 8.38673 4.74428 8.22499 4.58254H7.57804C7.57804 4.58254 7.51964 4.56906 7.40283 4.5421C7.28602 4.51515 7.22761 4.4208 7.22761 4.25907C7.06588 4.25907 6.95805 4.31298 6.90414 4.4208C6.85023 4.52863 6.7424 4.58254 6.58067 4.58254C6.58067 4.58254 6.56719 4.62297 6.54023 4.70384C6.51328 4.78471 6.41893 4.74428 6.25719 4.58254H5.61024C5.43054 4.58254 5.32721 4.52863 5.30025 4.4208C5.27329 4.31298 5.25982 4.25907 5.25982 4.25907C5.09808 4.25907 4.99025 4.20066 4.93634 4.08385C4.88243 3.96704 4.7746 3.90864 4.61287 3.90864H4.28939V4.25907H3.64245C3.64245 4.25907 3.62897 4.20066 3.60201 4.08385C3.57506 3.96704 3.47173 3.90864 3.29202 3.90864C3.29202 3.90864 3.29202 3.8682 3.29202 3.78733C3.29202 3.70646 3.29202 3.7469 3.29202 3.90864C3.29202 3.90864 3.23811 3.89516 3.13028 3.8682C3.02246 3.84125 2.96854 3.7469 2.96854 3.58516L2.64507 3.90864H1.67465C1.51291 3.7469 1.48596 3.70646 1.59378 3.78733C1.70161 3.8682 1.83639 3.90864 1.99812 3.90864C1.83639 4.08834 1.78247 4.07936 1.83639 3.88168C1.8903 3.684 1.83639 3.58516 1.67465 3.58516C1.67465 3.58516 1.71508 3.57168 1.79595 3.54473C1.87682 3.51777 1.83639 3.42343 1.67465 3.26169H1.32422C1.32422 3.26169 1.31074 3.22125 1.28379 3.14038C1.25683 3.05952 1.16248 3.09995 1.00075 3.26169H0.677273C0.83901 3.26169 0.879444 3.20778 0.798575 3.09995C0.717707 2.99213 0.677273 2.93822 0.677273 2.93822V3.26169C0.677273 3.09995 0.731185 3.05952 0.83901 3.14038C0.946834 3.22125 1.00075 3.26169 1.00075 3.26169C1.00075 3.26169 0.946834 3.24821 0.83901 3.22125C0.731185 3.1943 0.677273 3.09995 0.677273 2.93822H1.00075C1.00075 2.93822 0.960312 2.93822 0.879444 2.93822C0.798575 2.93822 0.83901 2.93822 1.00075 2.93822V2.61474L1.32422 2.29127C1.16248 2.12953 1.01422 2.0891 0.879444 2.16996C0.744663 2.25083 0.677273 2.29127 0.677273 2.29127ZM10.4623 7.65554C10.66 7.52974 10.8667 7.41293 11.0823 7.30511C11.298 7.19728 11.5136 7.07149 11.7293 6.92772C11.7832 6.89178 11.8416 6.84685 11.9045 6.79294C11.9674 6.73903 12.0258 6.67613 12.0797 6.60425C12.1516 6.49642 12.1741 6.38411 12.1471 6.2673C12.1202 6.15049 12.1157 6.06513 12.1336 6.01121C12.1336 5.83151 12.1516 5.71919 12.1875 5.67426C12.2235 5.62934 12.2325 5.56194 12.2145 5.47209C12.2145 5.38224 12.1741 5.26992 12.0932 5.13514C12.0123 5.00036 12.0258 4.88804 12.1336 4.79819C12.2055 4.76225 12.2729 4.73978 12.3358 4.7308C12.3987 4.72181 12.4571 4.68138 12.511 4.6095C12.5649 4.59152 12.6368 4.53312 12.7267 4.43428C12.8165 4.33544 12.8435 4.27703 12.8075 4.25907C12.7716 4.22312 12.7716 4.21414 12.8075 4.23211C12.8435 4.25008 12.8614 4.25907 12.8614 4.25907C12.8974 4.25907 12.9288 4.2366 12.9558 4.19168C12.9827 4.14675 13.0142 4.10631 13.0501 4.07037C13.0861 4.03443 13.1714 4.02545 13.3062 4.04342C13.441 4.06139 13.5353 4.07037 13.5893 4.07037C13.6252 4.07037 13.6567 4.07936 13.6836 4.09733C13.7106 4.1153 13.742 4.12428 13.778 4.12428C13.8319 4.12428 13.8768 4.1153 13.9127 4.09733C13.9487 4.07936 13.9846 4.07037 14.0206 4.07037C14.1464 4.03443 14.1958 4.07487 14.1688 4.19168C14.1419 4.30849 14.1733 4.36689 14.2632 4.36689C14.3171 4.36689 14.3575 4.33993 14.3845 4.28602C14.4114 4.23211 14.4519 4.20515 14.5058 4.20515C14.5597 4.20515 14.5956 4.25008 14.6136 4.33993C14.6316 4.42979 14.6585 4.50167 14.6945 4.55558C14.7124 4.59152 14.7304 4.6095 14.7484 4.6095C14.7663 4.6095 14.7843 4.6095 14.8023 4.6095C14.8382 4.64544 14.8517 4.68587 14.8427 4.7308C14.8337 4.77572 14.8382 4.79819 14.8562 4.79819C14.9281 4.8521 15.0045 4.915 15.0853 4.98688C15.1662 5.05876 15.1707 5.13963 15.0988 5.22949C15.1887 5.19354 15.256 5.20253 15.301 5.25644C15.3459 5.31035 15.3863 5.33731 15.4223 5.33731C15.4762 5.37325 15.5211 5.37774 15.5571 5.35079C15.593 5.32383 15.7098 5.31934 15.9075 5.33731C15.9075 5.40919 15.876 5.44514 15.8131 5.44514C15.7502 5.44514 15.7188 5.47209 15.7188 5.526C15.6829 5.61586 15.6963 5.68774 15.7592 5.74165C15.8221 5.79556 15.8715 5.86745 15.9075 5.9573C15.9075 6.04716 15.876 6.07411 15.8131 6.03817C15.7502 6.00223 15.7188 6.02918 15.7188 6.11904C15.7188 6.15498 15.7053 6.17744 15.6784 6.18643C15.6514 6.19541 15.62 6.21788 15.584 6.25382C15.584 6.28976 15.5885 6.33019 15.5975 6.37512C15.6065 6.42005 15.6289 6.46048 15.6649 6.49642C15.6289 6.49642 15.5975 6.49193 15.5705 6.48295C15.5436 6.47396 15.5121 6.46048 15.4762 6.44251C15.4762 6.46048 15.4672 6.48744 15.4492 6.52338C15.4313 6.55932 15.4402 6.58628 15.4762 6.60425C15.5121 6.64019 15.5391 6.67164 15.5571 6.6986C15.575 6.72555 15.566 6.757 15.5301 6.79294C15.4942 6.84685 15.4672 6.88729 15.4492 6.91424C15.4313 6.9412 15.4402 6.98163 15.4762 7.03555C15.5121 7.07149 15.5436 7.11192 15.5705 7.15685C15.5975 7.20178 15.6469 7.24221 15.7188 7.27815C15.7547 7.31409 15.8446 7.39945 15.9884 7.53424C16.1321 7.66902 16.1411 7.76336 16.0153 7.81727C16.0692 7.81727 16.0962 7.83974 16.0962 7.88466C16.0962 7.92959 16.1321 7.95205 16.204 7.95205C16.2579 7.95205 16.3073 7.96553 16.3523 7.99249C16.3972 8.01945 16.4466 8.04191 16.5005 8.05988C16.5544 8.09582 16.6308 8.15872 16.7296 8.24857C16.8285 8.33843 16.9318 8.40132 17.0396 8.43727C17.1115 8.43727 17.1879 8.50016 17.2688 8.62596C17.3496 8.75175 17.417 8.85059 17.4709 8.92248C17.5608 8.97639 17.5922 9.04827 17.5653 9.13812C17.5383 9.22798 17.5069 9.31783 17.4709 9.40769C17.4709 9.42566 17.4754 9.48855 17.4844 9.59638C17.4934 9.7042 17.5249 9.75812 17.5788 9.75812C17.6147 9.75812 17.6507 9.76261 17.6866 9.77159C17.7225 9.78058 17.7495 9.79406 17.7675 9.81203C17.8034 9.84797 17.8214 9.8929 17.8214 9.94681C17.8214 10.0007 17.8214 10.0367 17.8214 10.0546C17.8214 10.0906 17.8393 10.14 17.8753 10.2029C17.9112 10.2658 17.9741 10.3422 18.064 10.432C18.1359 10.45 18.1718 10.4949 18.1718 10.5668C18.1718 10.6387 18.1988 10.6926 18.2527 10.7285C18.2167 10.7285 18.1269 10.7151 17.9831 10.6881C17.8393 10.6611 17.7675 10.6387 17.7675 10.6207C17.8034 10.6746 17.7809 10.6881 17.7001 10.6611C17.6192 10.6342 17.5608 10.6207 17.5249 10.6207C17.4709 10.6207 17.4036 10.6252 17.3227 10.6342C17.2418 10.6432 17.1924 10.6746 17.1744 10.7285C17.1025 10.8543 17.0441 11.0161 16.9992 11.2137C16.9543 11.4114 16.833 11.5103 16.6353 11.5103L15.5301 11.4024C15.3504 11.3665 15.2291 11.3036 15.1662 11.2137C15.1033 11.1239 14.982 11.0251 14.8023 10.9172C14.353 10.5758 13.8948 10.2209 13.4275 9.85246C12.9603 9.48406 12.4751 9.19204 11.9719 8.97639C11.7922 8.88653 11.6125 8.83711 11.4328 8.82813C11.2531 8.81914 11.0913 8.78769 10.9476 8.73378C11.0374 8.60799 11.0464 8.54958 10.9745 8.55857C10.9026 8.56755 10.8487 8.54509 10.8128 8.49118V8.3564C10.8487 8.33843 10.8532 8.31147 10.8263 8.27553C10.7993 8.23959 10.7768 8.21263 10.7589 8.19466C10.669 8.12278 10.6016 8.03742 10.5567 7.93858C10.5118 7.83974 10.4803 7.74539 10.4623 7.65554ZM23.9674 13.4241L23.6169 13.7476C23.6169 13.7476 23.6753 13.7341 23.7922 13.7072C23.909 13.6802 23.9674 13.5859 23.9674 13.4241ZM13.8049 2.29127C13.8049 2.29127 13.8453 2.29127 13.9262 2.29127C14.0071 2.29127 13.9666 2.29127 13.8049 2.29127L14.1284 1.94084C14.1284 1.94084 14.1419 1.99924 14.1688 2.11605C14.1958 2.23286 14.2901 2.29127 14.4519 2.29127C14.4519 2.29127 14.5058 2.30474 14.6136 2.3317C14.7214 2.35866 14.7753 2.453 14.7753 2.61474L15.0988 2.93822H15.4223L15.7727 2.61474H16.0962L16.4197 2.29127C16.5814 2.29127 16.6892 2.30474 16.7431 2.3317C16.797 2.35866 16.9049 2.453 17.0666 2.61474C16.9049 2.61474 16.8644 2.66865 16.9453 2.77648C17.0262 2.8843 17.0666 2.93822 17.0666 2.93822C16.9049 2.93822 16.8644 2.99213 16.9453 3.09995C17.0262 3.20778 17.0666 3.26169 17.0666 3.26169L17.3901 3.58516C17.3901 3.7469 17.4036 3.89965 17.4305 4.04342C17.4575 4.18718 17.5608 4.25907 17.7405 4.25907H18.3875L19.0344 4.90601C19.1961 4.90601 19.3624 4.94645 19.5331 5.02732C19.7038 5.10818 19.87 5.06775 20.0318 4.90601C20.1935 4.90601 20.3687 4.8521 20.5574 4.74428C20.7461 4.63645 21.0022 4.58254 21.3257 4.58254V4.25907H21.6491C21.8289 4.25907 21.8738 4.24559 21.7839 4.21863C21.6941 4.19168 21.6491 4.08834 21.6491 3.90864L21.9996 3.58516H23.9674L24.2908 3.90864H24.9378C25.0995 3.90864 25.1939 3.92211 25.2208 3.94907C25.2478 3.97602 25.2613 4.07936 25.2613 4.25907C25.2613 4.25907 25.3152 4.27254 25.423 4.2995C25.5308 4.32646 25.5847 4.4208 25.5847 4.58254C25.5847 4.58254 25.5982 4.63645 25.6252 4.74428C25.6521 4.8521 25.7555 4.90601 25.9352 4.90601H26.5821V5.87643C26.5821 6.05614 26.5686 6.21338 26.5417 6.34817C26.5147 6.48295 26.4204 6.55034 26.2586 6.55034C26.2586 6.55034 26.2047 6.56381 26.0969 6.59077C25.9891 6.61773 25.9352 6.71207 25.9352 6.87381C25.9352 6.87381 25.9486 6.98163 25.9756 7.19728C26.0026 7.41293 26.0969 7.52076 26.2586 7.52076C26.4204 7.52076 26.4608 7.57467 26.3799 7.68249C26.2991 7.79032 26.2586 7.84423 26.2586 7.84423C26.2586 8.00597 26.3126 8.15872 26.4204 8.30248C26.5282 8.44625 26.5821 8.51813 26.5821 8.51813C26.5821 8.67987 26.5956 8.78769 26.6225 8.84161C26.6495 8.89552 26.7439 9.00334 26.9056 9.16508H27.5525C27.7322 9.16508 27.8221 9.23247 27.8221 9.36725C27.8221 9.50203 27.7322 9.65029 27.5525 9.81203L26.9056 10.4859L27.2291 10.8094C27.3908 10.9711 27.5436 11.1733 27.6873 11.4159C27.8311 11.6585 27.903 11.7798 27.903 11.7798H28.5499L28.8734 12.4537C28.8734 12.6155 28.8869 12.7098 28.9138 12.7368C28.9408 12.7637 29.0351 12.7772 29.1969 12.7772V13.1007C29.1969 13.2624 29.089 13.3163 28.8734 13.2624C28.6577 13.2085 28.5499 13.2624 28.5499 13.4241H28.2264V14.4215C28.2264 14.5833 28.1725 14.6237 28.0647 14.5428C27.9569 14.462 27.903 14.4215 27.903 14.4215H27.5525C27.5525 14.4215 27.5121 14.4215 27.4312 14.4215C27.3504 14.4215 27.3908 14.4215 27.5525 14.4215H25.5847C25.5847 14.4215 25.5713 14.3766 25.5443 14.2867C25.5173 14.1969 25.423 14.2418 25.2613 14.4215C25.2613 14.4215 25.2074 14.408 25.0995 14.3811C24.9917 14.3541 24.9378 14.2508 24.9378 14.0711C24.7761 13.9094 24.6817 13.7611 24.6548 13.6263C24.6278 13.4915 24.6143 13.4241 24.6143 13.4241C24.6143 13.2624 24.5469 13.1681 24.4121 13.1411C24.2774 13.1142 24.1291 13.1007 23.9674 13.1007H23.6169C23.6169 13.1007 23.563 13.1142 23.4552 13.1411C23.3474 13.1681 23.2935 13.2624 23.2935 13.4241H22.97L22.6465 13.7476C22.4848 13.7476 22.377 13.6937 22.323 13.5859C22.2691 13.4781 22.1613 13.4241 21.9996 13.4241C21.8378 13.4241 21.7255 13.4107 21.6626 13.3837C21.5997 13.3568 21.4874 13.2624 21.3257 13.1007C21.3257 13.1007 21.2718 13.0872 21.1639 13.0602C21.0561 13.0333 21.0022 12.9389 21.0022 12.7772C21.0022 12.7772 20.9483 12.7637 20.8405 12.7368C20.7326 12.7098 20.6787 12.6155 20.6787 12.4537L20.3552 12.1033H19.7083C19.5286 12.1033 19.4253 12.0359 19.3983 11.9011C19.3713 11.7663 19.3579 11.6181 19.3579 11.4564V11.1329C19.3579 11.1329 19.304 11.1194 19.1961 11.0924C19.0883 11.0655 19.0344 10.9711 19.0344 10.8094C19.0344 10.8094 18.994 10.8094 18.9131 10.8094C18.8322 10.8094 18.8727 10.8094 19.0344 10.8094C19.0344 10.8094 19.0209 10.7555 18.994 10.6477C18.967 10.5398 18.8727 10.4859 18.7109 10.4859L18.3875 10.1625C18.3875 9.98275 18.3335 9.97826 18.2257 10.149C18.1179 10.3197 18.064 10.3242 18.064 10.1625H17.3901C17.2283 10.1625 17.1744 10.2164 17.2283 10.3242C17.2822 10.432 17.2283 10.4859 17.0666 10.4859V10.1625L16.7431 9.81203V9.48855C16.5814 9.48855 16.5005 9.42116 16.5005 9.28638C16.5005 9.1516 16.5814 9.00334 16.7431 8.84161C16.7431 8.67987 16.7296 8.58552 16.7027 8.55857C16.6757 8.53161 16.5814 8.51813 16.4197 8.51813C16.4197 8.3564 16.4062 8.26205 16.3792 8.23509C16.3523 8.20814 16.2579 8.19466 16.0962 8.19466C15.9344 8.19466 15.8401 8.13626 15.8131 8.01945C15.7862 7.90264 15.7727 7.84423 15.7727 7.84423H15.0988C15.2605 7.84423 15.2471 7.73641 15.0584 7.52076C14.8697 7.30511 14.7753 7.19728 14.7753 7.19728L14.4519 6.87381V5.22949C14.4519 5.22949 14.4114 5.17557 14.3306 5.06775C14.2497 4.95992 14.2901 4.90601 14.4519 4.90601C14.4519 4.90601 14.5058 4.89253 14.6136 4.86558C14.7214 4.83862 14.7753 4.74428 14.7753 4.58254H14.1284C14.1284 4.58254 14.1149 4.5421 14.0879 4.46124C14.061 4.38037 13.9666 4.4208 13.8049 4.58254C13.8049 4.4208 13.7465 4.31298 13.6297 4.25907C13.5129 4.20515 13.4545 4.08834 13.4545 3.90864V3.58516L13.131 3.26169V2.61474H12.8075V2.29127C12.6458 2.29127 12.5919 2.23286 12.6458 2.11605C12.6997 1.99924 12.6458 1.94084 12.4841 1.94084C13.131 2.28228 13.5129 2.46648 13.6297 2.49344C13.7465 2.5204 13.8049 2.453 13.8049 2.29127C13.8049 2.453 13.8049 2.49344 13.8049 2.41257C13.8049 2.3317 13.8049 2.29127 13.8049 2.29127ZM8.0363 7.76336C8.05427 7.72742 8.0947 7.67351 8.1576 7.60163C8.2205 7.52974 8.2789 7.48482 8.33281 7.46684C8.24296 7.37699 8.23847 7.31409 8.31934 7.27815C8.4002 7.24221 8.48557 7.22424 8.57542 7.22424C8.52151 7.13439 8.52151 7.07598 8.57542 7.04902C8.62933 7.02207 8.66527 6.98163 8.68324 6.92772C8.68324 6.89178 8.66977 6.84236 8.64281 6.77946C8.61585 6.71657 8.57542 6.68512 8.52151 6.68512C8.44962 6.68512 8.44513 6.65367 8.50803 6.59077C8.57093 6.52787 8.54846 6.51439 8.44064 6.55034C8.29687 6.58628 8.21151 6.56831 8.18456 6.49642C8.1576 6.42454 8.14412 6.36164 8.14412 6.30773C8.14412 6.25382 8.14861 6.17744 8.1576 6.0786C8.16658 5.97976 8.14412 5.8944 8.09021 5.82252C8.0363 5.78658 8.02282 5.72368 8.04978 5.63383C8.07673 5.54397 8.09021 5.46311 8.09021 5.39122C8.09021 5.37325 8.12166 5.38224 8.18456 5.41818C8.24745 5.45412 8.2789 5.47209 8.2789 5.47209L8.38673 5.33731C8.42267 5.31934 8.43615 5.2834 8.42716 5.22949C8.41818 5.17557 8.42267 5.13065 8.44064 5.09471H8.68324C8.66527 5.04079 8.64281 4.99137 8.61585 4.94645C8.5889 4.90152 8.57542 4.8521 8.57542 4.79819C8.57542 4.76225 8.57991 4.72181 8.5889 4.67689C8.59788 4.63196 8.61136 4.59152 8.62933 4.55558H8.81802C8.87194 4.59152 8.91237 4.62747 8.93933 4.66341C8.96628 4.69935 9.00672 4.70833 9.06063 4.69036C9.11454 4.69036 9.17295 4.67689 9.23584 4.64993C9.29874 4.62297 9.35715 4.59152 9.41106 4.55558C9.48294 4.51964 9.55033 4.49269 9.61323 4.47471C9.67613 4.45674 9.7525 4.44776 9.84236 4.44776C9.89627 4.44776 9.94569 4.47022 9.99062 4.51515C10.0355 4.56008 10.085 4.59152 10.1389 4.6095C10.2108 4.64544 10.2961 4.66341 10.395 4.66341C10.4938 4.66341 10.5702 4.64544 10.6241 4.6095C10.7858 4.6095 10.9296 4.56906 11.0554 4.48819C11.1812 4.40732 11.3249 4.34892 11.4867 4.31298C11.6304 4.25907 11.7787 4.25008 11.9315 4.28602C12.0842 4.32196 12.2325 4.31298 12.3762 4.25907C12.4661 4.22312 12.5514 4.1782 12.6323 4.12428C12.7132 4.07037 12.7716 4.13327 12.8075 4.31298C12.8075 4.34892 12.7761 4.40283 12.7132 4.47471C12.6503 4.5466 12.6009 4.59152 12.5649 4.6095C12.511 4.68138 12.4526 4.72181 12.3897 4.7308C12.3268 4.73978 12.2684 4.76225 12.2145 4.79819C12.0887 4.88804 12.0573 5.00036 12.1202 5.13514C12.183 5.26992 12.2325 5.38224 12.2684 5.47209C12.2684 5.526 12.2594 5.58441 12.2415 5.64731C12.2235 5.7102 12.2145 5.76861 12.2145 5.82252V6.44251C12.2145 6.64019 11.9045 6.90077 11.2845 7.22424C10.6645 7.54771 10.1479 7.84423 9.73453 8.11379C9.60874 8.22162 9.46048 8.32944 9.28976 8.43727C9.11903 8.54509 8.96179 8.54509 8.81802 8.43727C8.76411 8.40132 8.71469 8.36987 8.66977 8.34292C8.62484 8.31596 8.57542 8.28451 8.52151 8.24857C8.43165 8.19466 8.35528 8.1722 8.29238 8.18118C8.22948 8.19017 8.19803 8.19466 8.19803 8.19466C8.14412 8.21263 8.11717 8.14524 8.11717 7.99249C8.11717 7.83974 8.09021 7.76336 8.0363 7.76336ZM26.5821 19.651C26.7439 19.4893 26.7843 19.3949 26.7034 19.368C26.6225 19.341 26.5821 19.3275 26.5821 19.3275C26.7439 19.3275 26.7843 19.341 26.7034 19.368C26.6225 19.3949 26.5821 19.4893 26.5821 19.651ZM24.2908 14.0711C24.2908 14.0711 24.3313 14.0711 24.4121 14.0711C24.493 14.0711 24.4526 14.0711 24.2908 14.0711C24.4526 14.0711 24.5334 14.1295 24.5334 14.2463C24.5334 14.3631 24.4526 14.4215 24.2908 14.4215V14.0711ZM21.6491 20.6484C22.1523 20.4867 22.5791 20.3339 22.9296 20.1901C23.28 20.0464 23.6259 19.9745 23.9674 19.9745C24.1291 19.8128 24.1695 19.7993 24.0887 19.9341C24.0078 20.0688 23.9674 19.9745 23.9674 19.651C23.9674 19.4893 23.9808 19.3275 24.0078 19.1658C24.0348 19.0041 24.1291 18.8423 24.2908 18.6806C24.2908 18.5189 24.3313 18.3661 24.4121 18.2223C24.493 18.0786 24.4526 18.0067 24.2908 18.0067L23.9674 17.6832C23.9674 17.5215 24.0078 17.3193 24.0887 17.0767C24.1695 16.8341 24.1291 16.7128 23.9674 16.7128H24.2908V16.0389C24.2908 16.2186 24.2908 16.2635 24.2908 16.1737C24.2908 16.0838 24.2908 16.0389 24.2908 16.0389C24.2908 16.2186 24.3448 16.3354 24.4526 16.3893C24.5604 16.4432 24.6143 16.5511 24.6143 16.7128C24.7761 16.8745 24.9378 16.9689 25.0995 16.9958C25.2613 17.0228 25.423 17.0363 25.5847 17.0363H25.9352C26.0969 17.0363 26.1913 17.0902 26.2182 17.198C26.2452 17.3058 26.2586 17.3597 26.2586 17.3597C26.2586 17.3597 26.2721 17.4137 26.2991 17.5215C26.326 17.6293 26.4204 17.6832 26.5821 17.6832L26.9056 18.0067C27.0673 18.0067 27.1078 18.119 27.0269 18.3436C26.946 18.5683 26.9056 18.6806 26.9056 18.6806C26.9056 18.8423 26.8382 19.0041 26.7034 19.1658C26.5686 19.3275 26.4204 19.4893 26.2586 19.651C26.2586 19.651 26.2452 19.7049 26.2182 19.8128C26.1913 19.9206 26.0969 19.9745 25.9352 19.9745C25.9352 19.9745 25.9217 19.9341 25.8947 19.8532C25.8678 19.7723 25.7644 19.8128 25.5847 19.9745C25.423 19.9745 25.3691 20.0464 25.423 20.1901C25.4769 20.3339 25.423 20.4867 25.2613 20.6484V21.6188C25.0995 21.6188 24.9513 21.6323 24.8165 21.6592C24.6817 21.6862 24.6143 21.7806 24.6143 21.9423V22.2658H24.2908C24.1291 22.2658 24.0348 22.2837 24.0078 22.3197C23.9808 22.3556 23.9674 22.4545 23.9674 22.6162V22.9397C23.9674 22.9397 23.9539 22.9936 23.9269 23.1014C23.9 23.2092 23.7966 23.2631 23.6169 23.2631H23.2935C23.1317 23.2631 22.97 23.317 22.8083 23.4249C22.6465 23.5327 22.4848 23.5866 22.323 23.5866C22.1613 23.5866 22.1074 23.4788 22.1613 23.2631C22.2152 23.0475 22.1613 22.9397 21.9996 22.9397C21.9996 22.9397 21.9861 22.8723 21.9591 22.7375C21.9322 22.6027 21.8289 22.4455 21.6491 22.2658C21.8289 21.7806 21.8738 21.4301 21.7839 21.2145C21.6941 20.9988 21.6491 20.8101 21.6491 20.6484ZM0.0303256 10.6746C-0.0235866 10.5488 -0.00561586 10.4275 0.0842379 10.3107C0.174092 10.1939 0.201048 10.0726 0.165106 9.94681C0.129165 9.82101 0.0887306 9.7042 0.0438037 9.59638C-0.00112317 9.48855 0.0752525 9.36276 0.272931 9.21899C0.272931 9.30885 0.317858 9.34928 0.407712 9.3403C0.497565 9.33131 0.578434 9.30885 0.650317 9.27291C0.74017 9.23696 0.834517 9.22798 0.933356 9.24595C1.0322 9.26392 1.13553 9.27291 1.24335 9.27291C1.36915 9.27291 1.48146 9.28638 1.5803 9.31334C1.67914 9.3403 1.79146 9.37174 1.91725 9.40769C1.97117 9.40769 2.00711 9.43015 2.02508 9.47508C2.04305 9.52 2.07001 9.55145 2.10595 9.56942H2.34855C2.36652 9.56942 2.38449 9.5829 2.40247 9.60986C2.42044 9.63681 2.43841 9.66826 2.45638 9.7042H2.64507C2.77087 9.7042 2.8742 9.73565 2.95507 9.79855C3.03593 9.86145 3.13028 9.8929 3.23811 9.8929C3.32796 9.91087 3.4268 9.8884 3.53462 9.82551C3.64245 9.76261 3.7323 9.7042 3.80418 9.65029C3.82215 9.61435 3.84911 9.5829 3.88505 9.55594C3.92099 9.52899 3.97491 9.49754 4.04679 9.4616C4.06476 9.49754 4.09172 9.5245 4.12766 9.54247C4.1636 9.56044 4.19056 9.55145 4.20853 9.51551C4.19056 9.51551 4.17708 9.50653 4.16809 9.48855C4.15911 9.47058 4.15461 9.47957 4.15461 9.51551L4.34331 9.32682C4.39722 9.36276 4.45562 9.36276 4.51852 9.32682C4.58142 9.29088 4.63982 9.27291 4.69374 9.27291C4.67577 9.30885 4.63982 9.33131 4.58591 9.3403C4.532 9.34928 4.48707 9.38972 4.45113 9.4616C4.45113 9.4616 4.532 9.43015 4.69374 9.36725C4.85547 9.30435 4.88243 9.27291 4.7746 9.27291C4.86446 9.23696 4.94083 9.25044 5.00373 9.31334C5.06663 9.37624 5.14301 9.40769 5.23286 9.40769C5.2688 9.40769 5.31373 9.38972 5.36764 9.35377C5.42155 9.31783 5.45749 9.30885 5.47546 9.32682C5.51141 9.32682 5.54735 9.34928 5.58329 9.39421C5.54735 9.34928 5.49343 9.32682 5.42155 9.32682C5.42155 9.36276 5.41706 9.41218 5.40807 9.47508C5.39909 9.53797 5.42155 9.56942 5.47546 9.56942C5.54735 9.60536 5.58329 9.62783 5.58329 9.63681C5.58329 9.6458 5.61024 9.66826 5.66416 9.7042C5.66416 9.66826 5.69561 9.63232 5.7585 9.59638C5.8214 9.56044 5.80792 9.51551 5.71807 9.4616C5.80792 9.49754 5.8843 9.54247 5.9472 9.59638C6.01009 9.65029 6.09546 9.66826 6.20328 9.65029C6.23922 9.65029 6.29763 9.63232 6.37849 9.59638C6.45936 9.56044 6.48183 9.57841 6.44589 9.65029C6.51777 9.61435 6.59414 9.59189 6.67501 9.5829C6.75588 9.57392 6.82327 9.56942 6.87718 9.56942C6.9311 9.55145 6.9895 9.53348 7.0524 9.51551C7.1153 9.49754 7.18269 9.4616 7.25457 9.40769L7.8476 11.079C7.75775 11.1868 7.70833 11.3261 7.69935 11.4968C7.69036 11.6675 7.65891 11.8158 7.605 11.9416C7.56906 11.9955 7.55109 12.0539 7.55109 12.1168C7.55109 12.1797 7.55109 12.2381 7.55109 12.292C7.55109 12.3639 7.52413 12.4268 7.47022 12.4807C7.41631 12.5346 7.39833 12.5975 7.41631 12.6694C7.39833 12.6334 7.36239 12.602 7.30848 12.575C7.25457 12.5481 7.20964 12.5166 7.1737 12.4807C7.11979 12.4447 7.07486 12.3998 7.03892 12.3459C7.00298 12.292 6.96704 12.2381 6.9311 12.1842C6.87718 12.1303 6.8053 12.0674 6.71545 11.9955C6.62559 11.9236 6.59864 11.8427 6.63458 11.7529C6.67052 11.663 6.64806 11.5777 6.56719 11.4968C6.48632 11.4159 6.42791 11.3395 6.39197 11.2677C6.33806 11.1778 6.28415 11.0745 6.23024 10.9577C6.17632 10.8409 6.1314 10.7285 6.09546 10.6207C6.04154 10.6746 6.00111 10.742 5.97415 10.8229C5.9472 10.9038 5.9427 10.9711 5.96067 11.0251C6.05053 11.1149 6.10444 11.2182 6.12241 11.335C6.14038 11.4519 6.19429 11.5732 6.28415 11.699C6.33806 11.7888 6.39647 11.8787 6.45936 11.9685C6.52226 12.0584 6.59864 12.1482 6.68849 12.2381L6.87718 12.4268C6.91312 12.4627 6.94457 12.5076 6.97153 12.5616C6.99849 12.6155 6.96704 12.6065 6.87718 12.5346C6.9311 12.6065 6.94907 12.6694 6.9311 12.7233C6.91312 12.7772 6.94008 12.8221 7.01196 12.8581C7.06588 12.912 7.1108 12.9704 7.14674 13.0333C7.18269 13.0962 7.21863 13.1546 7.25457 13.2085C7.25457 13.2444 7.26355 13.2759 7.28153 13.3028C7.2995 13.3298 7.32645 13.3613 7.36239 13.3972C7.39833 13.4152 7.40283 13.4421 7.37587 13.4781C7.34892 13.514 7.32645 13.5499 7.30848 13.5859C7.30848 13.6039 7.32645 13.6353 7.36239 13.6802C7.39833 13.7252 7.41631 13.7476 7.41631 13.7476L7.605 14.125C7.69485 14.3407 7.79369 14.5428 7.90152 14.7315C8.00934 14.9202 8.10818 15.1224 8.19803 15.338C8.23398 15.4279 8.2789 15.5043 8.33281 15.5672C8.38673 15.6301 8.44962 15.6885 8.52151 15.7424C8.57542 15.8143 8.63382 15.8682 8.69672 15.9041C8.75962 15.9401 8.81802 15.994 8.87194 16.0659C8.836 16.0659 8.79556 16.0614 8.75063 16.0524C8.70571 16.0434 8.66527 16.0209 8.62933 15.985C8.61136 16.1108 8.61136 16.2411 8.62933 16.3758C8.6473 16.5106 8.66527 16.605 8.68324 16.6589C8.75513 16.7128 8.74614 16.7847 8.65629 16.8745C8.56643 16.9644 8.47658 17.0093 8.38673 17.0093C8.36876 17.0093 8.3418 17.0048 8.30586 16.9958C8.26992 16.9869 8.23398 17.0183 8.19803 17.0902C8.18006 17.1082 8.16658 17.1441 8.1576 17.198C8.14861 17.2519 8.12615 17.2968 8.09021 17.3328C8.05427 17.3867 8.0318 17.4271 8.02282 17.4541C8.01383 17.481 7.9734 17.4945 7.90152 17.4945C7.88355 17.4945 7.83862 17.5035 7.76674 17.5215C7.69485 17.5395 7.64094 17.5754 7.605 17.6293C7.56906 17.7192 7.5421 17.8 7.52413 17.8719C7.50616 17.9438 7.43428 17.9797 7.30848 17.9797C7.14674 17.9797 7.02544 17.9393 6.94457 17.8584C6.86371 17.7776 6.77834 17.7371 6.68849 17.7371C6.41893 17.7371 6.20328 17.7461 6.04154 17.7641C5.87981 17.7821 5.69111 17.7731 5.47546 17.7371C5.47546 17.7192 5.48445 17.6922 5.50242 17.6563C5.52039 17.6203 5.51141 17.5934 5.47546 17.5754C5.45749 17.5035 5.43054 17.499 5.3946 17.5619C5.35865 17.6248 5.3317 17.6652 5.31373 17.6832C5.24184 17.7551 5.11605 17.7821 4.93634 17.7641C4.75663 17.7461 4.63982 17.7371 4.58591 17.7371H0.407712L0.272931 12.1303C0.272931 12.0045 0.272931 11.8697 0.272931 11.7259C0.272931 11.5821 0.25496 11.4474 0.219019 11.3216C0.183077 11.2677 0.151628 11.1688 0.124672 11.0251C0.097716 10.8813 0.0662672 10.7645 0.0303256 10.6746ZM14.1284 22.6162C14.1284 22.6162 14.0879 22.6162 14.0071 22.6162C13.9262 22.6162 13.9666 22.6162 14.1284 22.6162C13.9666 22.6162 13.8723 22.5578 13.8453 22.441C13.8184 22.3242 13.8049 22.2658 13.8049 22.2658C13.8049 22.4455 13.8184 22.5488 13.8453 22.5758C13.8723 22.6027 13.9666 22.6162 14.1284 22.6162ZM14.4519 22.9397V22.6162L14.1284 22.2658C14.1284 22.104 14.061 21.9962 13.9262 21.9423C13.7914 21.8884 13.6342 21.7806 13.4545 21.6188L13.131 21.2953C13.131 21.2953 13.1175 21.2414 13.0906 21.1336C13.0636 21.0258 12.9693 20.9719 12.8075 20.9719V19.9745L12.4841 19.651C12.4841 19.651 12.4301 19.6375 12.3223 19.6106C12.2145 19.5836 12.1606 19.4893 12.1606 19.3275C11.9988 19.3275 11.9045 19.2602 11.8775 19.1254C11.8506 18.9906 11.8371 18.8423 11.8371 18.6806V17.0363C11.8371 17.0363 11.7967 16.9958 11.7158 16.915C11.6349 16.8341 11.6754 16.8745 11.8371 17.0363V16.3893C11.8371 16.2096 11.7787 16.0928 11.6619 16.0389C11.5451 15.985 11.4867 15.8772 11.4867 15.7154C11.4867 15.7154 11.4328 15.7019 11.3249 15.675C11.2171 15.648 11.1632 15.5537 11.1632 15.3919V15.0685C11.1632 15.0685 11.1497 15.0146 11.1228 14.9067C11.0958 14.7989 11.0015 14.745 10.8397 14.745C11.0015 14.745 11.0284 14.6327 10.9206 14.408C10.8128 14.1834 10.678 14.0711 10.5163 14.0711L9.86931 13.4241C9.70758 13.2624 9.55483 13.0872 9.41106 12.8985C9.26729 12.7098 9.19541 12.4447 9.19541 12.1033C9.19541 12.1033 9.18193 12.0494 9.15498 11.9416C9.12802 11.8337 9.03367 11.7798 8.87194 11.7798H8.54846V10.4859C8.7102 10.4859 8.87194 10.5264 9.03367 10.6072C9.19541 10.6881 9.36613 10.6477 9.54584 10.4859C9.70758 10.4859 9.8154 10.3736 9.86931 10.149C9.92323 9.92435 10.0311 9.81203 10.1928 9.81203H10.5163C10.5163 9.65029 10.5297 9.55594 10.5567 9.52899C10.5837 9.50203 10.678 9.48855 10.8397 9.48855L9.86931 8.51813C10.1928 8.51813 10.4623 8.45074 10.678 8.31596C10.8936 8.18118 11.1632 8.02394 11.4867 7.84423C11.6664 7.84423 11.8371 7.85771 11.9988 7.88466C12.1606 7.91162 12.3223 8.01495 12.4841 8.19466C12.9693 8.3564 13.4455 8.63944 13.9127 9.04378C14.38 9.44812 14.7753 9.82101 15.0988 10.1625C15.2605 10.1625 15.3684 10.2164 15.4223 10.3242C15.4762 10.432 15.593 10.4859 15.7727 10.4859C15.9344 10.6477 16.0423 10.742 16.0962 10.769C16.1501 10.7959 16.2579 10.8094 16.4197 10.8094H18.064C18.2257 10.8094 18.3201 10.8633 18.347 10.9711C18.374 11.079 18.3875 11.1329 18.3875 11.1329C18.3875 11.2946 18.4548 11.335 18.5896 11.2542C18.7244 11.1733 18.8727 11.1329 19.0344 11.1329C19.0344 11.1329 19.0883 11.1464 19.1961 11.1733C19.304 11.2003 19.3579 11.2946 19.3579 11.4564L19.7083 11.7798V12.1033C19.7083 12.1033 19.7622 12.1213 19.87 12.1572C19.9779 12.1932 20.0318 12.292 20.0318 12.4537L20.3552 12.7772C20.3552 12.9389 20.4092 13.0468 20.517 13.1007C20.6248 13.1546 20.6787 13.2624 20.6787 13.4241C20.6787 13.5859 20.6922 13.6802 20.7192 13.7072C20.7461 13.7341 20.8405 13.7476 21.0022 13.7476V14.4215L21.3257 14.745C21.3257 14.745 21.3391 14.7989 21.3661 14.9067C21.3931 15.0146 21.4874 15.0685 21.6491 15.0685C21.6491 15.0685 21.6671 15.1224 21.7031 15.2302C21.739 15.338 21.8378 15.3919 21.9996 15.3919H22.323V16.0389C22.4848 16.2186 22.633 16.4298 22.7678 16.6724C22.9026 16.915 22.97 17.0363 22.97 17.0363C23.4552 17.0363 23.8236 17.0497 24.0752 17.0767C24.3268 17.1037 24.6143 17.198 24.9378 17.3597C24.9378 17.5215 24.9917 17.6293 25.0995 17.6832C25.2074 17.7371 25.2613 17.845 25.2613 18.0067V18.3571C25.2613 18.6806 25.2074 18.9906 25.0995 19.2871C24.9917 19.5836 24.9378 19.8128 24.9378 19.9745C24.2908 20.3159 23.5675 20.581 22.7678 20.7697C21.9681 20.9584 21.1639 21.1336 20.3552 21.2953C20.1935 21.2953 20.0857 21.3088 20.0318 21.3358C19.9779 21.3627 19.87 21.4571 19.7083 21.6188C19.5286 21.6188 19.3713 21.7446 19.2366 21.9962C19.1018 22.2478 19.0344 22.4545 19.0344 22.6162L18.7109 22.9397L18.3875 22.6162H16.0962C15.9344 22.6162 15.8401 22.5758 15.8131 22.4949C15.7862 22.414 15.7727 22.4545 15.7727 22.6162C15.593 22.6162 15.4897 22.6701 15.4627 22.7779C15.4358 22.8858 15.4223 22.9397 15.4223 22.9397C15.0988 22.7779 14.8966 22.6971 14.8158 22.6971C14.7349 22.6971 14.6136 22.7779 14.4519 22.9397C14.6136 22.7779 14.6945 22.7375 14.6945 22.8184C14.6945 22.8992 14.6136 22.9397 14.4519 22.9397ZM13.8049 22.2658C13.8049 22.4455 13.8049 22.4904 13.8049 22.4005C13.8049 22.3107 13.8049 22.2658 13.8049 22.2658ZM7.1737 9.56942C7.20964 9.55145 7.25457 9.49754 7.30848 9.40769C7.36239 9.31783 7.36239 9.25493 7.30848 9.21899C7.39833 9.0932 7.45225 8.95842 7.47022 8.81465C7.48819 8.67089 7.51514 8.51813 7.55109 8.3564C7.55109 8.33843 7.55558 8.2935 7.56456 8.22162C7.57355 8.14973 7.605 8.09582 7.65891 8.05988C7.69485 8.04191 7.70384 8.01495 7.68587 7.97901C7.6679 7.94307 7.65891 7.90713 7.65891 7.87119C7.69485 7.85322 7.73529 7.84872 7.78021 7.85771C7.82514 7.86669 7.8476 7.87119 7.8476 7.87119C7.90152 7.87119 7.93746 7.84872 7.95543 7.8038C7.9734 7.75887 7.98238 7.72742 7.98238 7.70945C8.07224 7.70945 8.10369 7.83075 8.07673 8.07336C8.04978 8.31596 8.0363 8.49118 8.0363 8.599C8.0363 8.58103 8.00934 8.54958 7.95543 8.50466C7.90152 8.45973 7.8476 8.43727 7.79369 8.43727C7.72181 8.40132 7.68137 8.4148 7.67239 8.4777C7.6634 8.5406 7.64094 8.58103 7.605 8.599C7.605 8.67089 7.60051 8.76074 7.59152 8.86856C7.58254 8.97639 7.605 9.0303 7.65891 9.0303C7.82065 8.99436 7.84311 9.02581 7.7263 9.12465C7.60949 9.22349 7.56906 9.31783 7.605 9.40769C7.64094 9.4616 7.71282 9.45261 7.82065 9.38073C7.92847 9.30885 8.00036 9.27291 8.0363 9.27291V9.65029C8.0363 9.74014 8.02282 9.82551 7.99586 9.90637C7.96891 9.98724 7.93746 10.0636 7.90152 10.1355C7.88355 10.2433 7.87456 10.4006 7.87456 10.6072C7.87456 10.8139 7.82963 10.9711 7.73978 11.079L7.1737 9.56942ZM7.57804 7.76336C7.73978 7.60163 7.79369 7.45337 7.73978 7.31859C7.68587 7.18381 7.73978 7.11642 7.90152 7.11642V6.79294L8.22499 6.46947H8.54846C8.54846 6.6312 8.50803 6.72555 8.42716 6.75251C8.34629 6.77946 8.38673 6.79294 8.54846 6.79294C8.54846 6.79294 8.49455 6.80642 8.38673 6.83338C8.2789 6.86033 8.22499 6.95468 8.22499 7.11642L7.90152 7.43989C7.90152 7.60163 7.88804 7.69597 7.86108 7.72293C7.83413 7.74988 7.73978 7.76336 7.57804 7.76336C7.73978 7.94307 7.82065 7.988 7.82065 7.89814C7.82065 7.80829 7.73978 7.76336 7.57804 7.76336ZM17.7405 10.8094C17.7405 10.8094 17.7405 10.8543 17.7405 10.9442C17.7405 11.034 17.7405 10.9891 17.7405 10.8094C17.9022 10.9891 17.9831 11.034 17.9831 10.9442C17.9831 10.8543 17.9022 10.8094 17.7405 10.8094ZM16.7431 11.4833C16.9228 11.4833 17.0396 11.3575 17.0936 11.1059C17.1475 10.8543 17.2553 10.6477 17.417 10.4859H18.064V10.8094C18.064 10.8094 18.0101 10.8274 17.9022 10.8633C17.7944 10.8993 17.7405 10.9981 17.7405 11.1598C17.7405 11.1598 17.7944 11.1733 17.9022 11.2003C18.0101 11.2272 18.064 11.3216 18.064 11.4833C18.064 11.645 18.1179 11.7529 18.2257 11.8068C18.3335 11.8607 18.3875 11.9685 18.3875 12.1303H17.7405V11.8068C17.5788 11.645 17.3721 11.5507 17.1205 11.5237C16.8689 11.4968 16.7431 11.4833 16.7431 11.4833ZM17.417 11.699C17.7405 11.699 17.9022 11.4833 17.9022 11.052C17.9022 10.6207 17.7405 10.4051 17.417 10.4051C17.0936 10.5668 16.9318 10.8229 16.9318 11.1733C16.9318 11.5237 17.0936 11.699 17.417 11.699ZM20.3552 14.9876C20.3552 14.9876 20.3148 14.9472 20.2339 14.8663C20.1531 14.7854 20.1935 14.8259 20.3552 14.9876C20.3552 14.8259 20.3552 14.7046 20.3552 14.6237C20.3552 14.5428 20.3552 14.6641 20.3552 14.9876C20.3552 14.8259 20.3687 14.6327 20.3957 14.408C20.4226 14.1834 20.517 14.161 20.6787 14.3407C20.6787 14.3407 20.7371 14.3541 20.8539 14.3811C20.9707 14.408 21.0292 14.5024 21.0292 14.6641V15.6346C21.0292 15.6346 21.0157 15.6885 20.9887 15.7963C20.9618 15.9041 20.8584 15.958 20.6787 15.958H20.3552V14.9876ZM5.28677 6.14599L5.61024 5.79556C5.77198 5.79556 5.82589 5.74165 5.77198 5.63383C5.71807 5.526 5.77198 5.47209 5.93372 5.47209H6.58067C6.76037 5.47209 6.87718 5.41818 6.9311 5.31035C6.98501 5.20253 7.09283 5.14862 7.25457 5.14862L6.9311 5.47209V5.79556H6.58067C6.58067 5.79556 6.52675 5.80904 6.41893 5.836C6.3111 5.86296 6.25719 5.96629 6.25719 6.14599C6.09546 6.30773 5.93372 6.3886 5.77198 6.3886C5.61024 6.3886 5.44851 6.30773 5.28677 6.14599Z" fill="black"/>
</svg>
