<svg width="35" height="35" viewBox="0 0 35 35" fill="none" xmlns="http://www.w3.org/2000/svg">
<path d="M32.0149 17.3521C32.1517 17.3066 32.2829 17.2554 32.4083 17.1985C32.5337 17.1416 32.6192 17.0676 32.6648 16.9766C32.8016 16.7945 32.9384 16.5954 33.0752 16.3792C33.2121 16.163 33.3489 15.9639 33.4857 15.7819C33.6225 15.5998 33.7593 15.4064 33.8961 15.2016C34.033 14.9967 34.2382 14.8488 34.5118 14.7578L34.6144 14.6554C34.7056 14.3368 34.774 14.0239 34.8197 13.7167C34.8653 13.4095 34.9109 13.1193 34.9565 12.8462C34.774 12.8917 34.5916 12.9202 34.4092 12.9316C34.2268 12.9429 34.0444 12.9714 33.8619 13.0169C33.6339 13.0624 33.4059 13.1022 33.1779 13.1364C32.9498 13.1705 32.7218 13.1876 32.4938 13.1876C32.4482 13.1876 32.414 13.2046 32.3912 13.2388C32.3684 13.2729 32.3342 13.29 32.2886 13.29C32.1973 13.3355 32.089 13.3696 31.9636 13.3924C31.8382 13.4151 31.7299 13.381 31.6387 13.29C31.5475 13.199 31.4392 13.1079 31.3137 13.0169C31.1883 12.9259 31.08 12.8349 30.9888 12.7438L31.365 12.539L30.5442 11.7198C30.4529 11.6743 30.3788 11.6117 30.3218 11.532C30.2648 11.4524 30.1793 11.3898 30.0653 11.3443C29.9741 11.2988 29.8715 11.2533 29.7575 11.2077C29.6434 11.1622 29.5636 11.094 29.518 11.0029C29.4268 10.9119 29.3527 10.8038 29.2957 10.6786C29.2387 10.5535 29.1646 10.4454 29.0734 10.3544C29.0278 10.2178 28.9594 10.0813 28.8682 9.94473C28.7769 9.80819 28.6857 9.69441 28.5945 9.60338C28.4577 9.51235 28.3608 9.40426 28.3038 9.2791C28.2468 9.15393 28.1955 9.02308 28.1499 8.88654V8.68173C28.1043 8.45416 28.053 8.24366 27.996 8.05023C27.939 7.85679 27.7736 7.66905 27.5 7.487C27.4088 7.44148 27.3518 7.36752 27.329 7.26512C27.3062 7.16271 27.272 7.08875 27.2264 7.04324C27.2264 6.99772 27.2093 6.95221 27.1751 6.9067C27.1409 6.86118 27.1238 6.81567 27.1238 6.77015C27.0325 6.5881 26.9242 6.38898 26.7988 6.17279C26.6734 5.9566 26.5651 5.75748 26.4739 5.57542L25.9266 4.72204C25.8354 4.5855 25.7556 4.43758 25.6872 4.27828C25.6188 4.11899 25.6074 3.95969 25.653 3.80039C25.7898 4.0052 25.9038 4.22139 25.995 4.44896C26.0862 4.67653 26.2459 4.86996 26.4739 5.02926C26.6563 4.68791 26.776 4.375 26.833 4.09054C26.89 3.80608 26.7703 3.52731 26.4739 3.25423C26.2915 3.20871 26.0919 3.18027 25.8753 3.16889C25.6587 3.15751 25.4592 3.12906 25.2767 3.08355H25.1057C24.7409 3.22009 24.3589 3.31681 23.9599 3.3737C23.5608 3.43059 23.1789 3.48179 22.8141 3.52731C22.5632 3.57282 22.3751 3.56144 22.2497 3.49317C22.1243 3.4249 22.0616 3.3225 22.0616 3.18596C22.0616 3.04941 22.0046 2.94701 21.8905 2.87874C21.7765 2.81047 21.6511 2.75357 21.5143 2.70806C21.3319 2.66255 21.1552 2.62272 20.9841 2.58859C20.8131 2.55445 20.682 2.46912 20.5908 2.33257C20.4084 2.56014 20.2488 2.69668 20.1119 2.7422C19.9751 2.78771 19.7699 2.71944 19.4963 2.53738C19.3595 2.5829 19.2625 2.65117 19.2055 2.7422C19.1485 2.83323 19.1542 2.94701 19.2226 3.08355C19.3138 3.12906 19.3595 3.18027 19.3595 3.23716C19.3595 3.29405 19.3138 3.36801 19.2226 3.45904C19.063 3.50455 18.9376 3.52162 18.8464 3.51024C18.7552 3.49886 18.664 3.44766 18.5728 3.35663C18.4359 3.22009 18.2763 3.12337 18.0939 3.06648C17.9115 3.00959 17.7291 2.98114 17.5466 2.98114C17.4098 2.98114 17.3015 2.95839 17.2217 2.91287C17.1419 2.86736 17.102 2.76495 17.102 2.60566C17.102 2.56014 17.0792 2.52032 17.0336 2.48618C16.988 2.45205 16.9424 2.43498 16.8968 2.43498C16.7143 2.38947 16.5262 2.33826 16.3324 2.28137C16.1386 2.22448 15.9277 2.21879 15.6996 2.26431C15.5172 2.26431 15.3747 2.23586 15.2721 2.17897C15.1695 2.12207 15.0726 2.02536 14.9813 1.88882C14.9813 1.8433 14.9471 1.81486 14.8787 1.80348C14.8103 1.7921 14.7761 1.78641 14.7761 1.78641C14.6849 1.83192 14.5994 1.8433 14.5196 1.82055C14.4398 1.79779 14.3999 1.76365 14.3999 1.71814C14.3999 1.64987 14.4227 1.59298 14.4683 1.54746C14.5139 1.50195 14.5823 1.45644 14.6735 1.41092C14.8787 1.3199 14.987 1.2118 14.9984 1.08664C15.0098 0.961475 14.9699 0.830624 14.8787 0.694084C14.8331 0.648567 14.8103 0.603054 14.8103 0.557541C14.8103 0.512028 14.8331 0.466515 14.8787 0.421001C14.9699 0.329975 14.9984 0.261703 14.9642 0.21619C14.93 0.170677 14.8331 0.147919 14.6735 0.147919C14.5367 0.147919 14.3999 0.130852 14.2631 0.0967178C14.1262 0.0625801 13.9894 0.0455132 13.8526 0.0455132C13.6246 0.0455132 13.4137 0.0341339 13.2198 0.0113792C13.026 -0.0113792 12.8379 0 12.6555 0.0455132C12.4731 0.0910263 12.2906 0.119473 12.1082 0.130852C11.9258 0.142231 11.7434 0.147919 11.5609 0.147919C11.1505 0.193432 10.7458 0.221878 10.3467 0.233257C9.94766 0.244637 9.57711 0.364109 9.23507 0.591679H9.16667C8.89303 0.637192 8.68781 0.688393 8.55099 0.745285C8.41418 0.802177 8.27736 0.876137 8.14055 0.967163C8.09494 1.05819 8.03223 1.10939 7.95243 1.12077C7.87262 1.13215 7.78711 1.11509 7.6959 1.06957H6.94341C6.80659 1.06957 6.68688 1.05819 6.58427 1.03543C6.48165 1.01268 6.38474 0.955788 6.29353 0.864758C6.29353 0.819244 6.25933 0.790798 6.19092 0.779419C6.12251 0.768044 6.0313 0.739597 5.91729 0.694084C6.0313 0.92165 6.06551 1.08664 6.0199 1.18904C5.9743 1.29145 5.88308 1.36541 5.74627 1.41092C5.56385 1.45644 5.43843 1.54177 5.37002 1.66694C5.30162 1.7921 5.24461 1.9002 5.19901 1.99122L4.65174 2.81047C4.51493 2.94701 4.37811 3.10062 4.24129 3.27129C4.10448 3.44197 3.95626 3.59558 3.79664 3.73212C3.70543 3.82315 3.61992 3.91417 3.54011 4.0052C3.4603 4.09623 3.3976 4.18726 3.35199 4.27828C3.30638 4.27828 3.26078 4.29535 3.21517 4.32949C3.16957 4.36362 3.12396 4.40345 3.07836 4.44896C2.98715 4.49447 2.87883 4.53999 2.75342 4.5855C2.62801 4.63101 2.51969 4.67653 2.42848 4.72204C2.38288 4.76756 2.30877 4.81307 2.20616 4.85858C2.10354 4.9041 2.02944 4.96099 1.98383 5.02926C1.89262 5.34785 1.7159 5.63231 1.45367 5.88264C1.19144 6.13297 0.991915 6.39467 0.855099 6.66775C0.718284 6.8498 0.587168 7.03186 0.461754 7.21391C0.336339 7.39597 0.228027 7.57802 0.136816 7.76008C0.0456053 7.89662 0 8.02178 0 8.13556C0 8.24935 0.068408 8.37451 0.205224 8.51105C0.250829 8.55657 0.279333 8.61915 0.290734 8.6988C0.302135 8.77845 0.307836 8.84103 0.307836 8.88654C0.307836 8.97757 0.324938 9.05153 0.359142 9.10842C0.393346 9.16531 0.410448 9.23927 0.410448 9.3303C0.410448 9.42133 0.421849 9.51235 0.444652 9.60338C0.467454 9.69441 0.456053 9.78543 0.410448 9.87646C0.364842 9.96749 0.313536 10.1325 0.25653 10.3714C0.199523 10.6104 0.125415 10.8436 0.034204 11.0712V11.276C0.0798093 11.367 0.108313 11.4581 0.119714 11.5491C0.131115 11.6401 0.159619 11.7311 0.205224 11.8222C0.296434 11.9587 0.34204 12.1066 0.34204 12.2659C0.34204 12.4252 0.490257 12.5504 0.786692 12.6414L0.855099 12.7438C0.855099 12.8804 0.912106 13.0112 1.02612 13.1364C1.14013 13.2615 1.26555 13.3696 1.40236 13.4607C1.6988 13.6655 1.92682 13.8589 2.08644 14.041C2.24606 14.223 2.39428 14.4278 2.53109 14.6554C2.5767 14.7009 2.62231 14.7635 2.66791 14.8431C2.71352 14.9228 2.75912 14.9626 2.80473 14.9626C2.98715 14.9626 3.13536 15.0081 3.24938 15.0992C3.36339 15.1902 3.48881 15.2585 3.62562 15.304C3.71683 15.3495 3.79664 15.395 3.86505 15.4405C3.93346 15.486 4.01327 15.5088 4.10448 15.5088L4.92537 15.7819H5.19901L7.21704 15.5088C7.62749 15.4633 8.05504 15.4121 8.49969 15.3552C8.94434 15.2983 9.38329 15.2243 9.81654 15.1333C9.95336 15.0878 10.0959 15.0593 10.2441 15.048C10.3923 15.0366 10.5576 15.0309 10.74 15.0309C10.8313 15.0309 10.9339 15.0536 11.0479 15.0992C11.1619 15.1447 11.2645 15.1902 11.3557 15.2357C11.5609 15.2812 11.7092 15.3324 11.8004 15.3893C11.8916 15.4462 11.96 15.5429 12.0056 15.6795C12.0056 15.725 12.0284 15.7648 12.074 15.7989C12.1196 15.8331 12.1652 15.8501 12.2108 15.8501C12.3932 15.9184 12.57 15.9639 12.741 15.9867C12.912 16.0094 13.0659 15.998 13.2027 15.9525C13.3396 15.9525 13.4821 15.9582 13.6303 15.9696C13.7785 15.981 13.921 16.0094 14.0578 16.0549C14.149 16.0549 14.2175 16.072 14.2631 16.1061C14.3087 16.1403 14.3543 16.1801 14.3999 16.2256C14.4911 16.3622 14.5196 16.5499 14.4854 16.7888C14.4512 17.0278 14.3657 17.2155 14.2289 17.3521C14.1833 17.3976 14.1433 17.4431 14.1091 17.4886C14.0749 17.5341 14.0806 17.5796 14.1262 17.6252C14.1718 17.7162 14.2004 17.7901 14.2118 17.847C14.2232 17.9039 14.2289 17.9779 14.2289 18.0689C14.2289 18.1599 14.2175 18.251 14.1947 18.342C14.1718 18.433 14.1833 18.5013 14.2289 18.5468C14.3201 18.7289 14.4056 18.9052 14.4854 19.0759C14.5652 19.2466 14.6963 19.3774 14.8787 19.4685C14.9243 19.514 14.9642 19.5595 14.9984 19.605C15.0326 19.6505 15.0498 19.696 15.0498 19.7415C15.1866 20.0601 15.3234 20.373 15.4602 20.6803C15.597 20.9875 15.7338 21.289 15.8706 21.5849C15.9391 21.7214 15.9847 21.8409 16.0075 21.9433C16.0303 22.0457 16.0189 22.1651 15.9733 22.3017V22.5748C16.0189 22.6658 16.0645 22.7568 16.1101 22.8479C16.1557 22.9389 16.1785 23.0299 16.1785 23.1209C16.2241 23.212 16.2412 23.3201 16.2298 23.4452C16.2184 23.5704 16.1671 23.6785 16.0759 23.7695C15.9391 23.906 15.8478 24.0312 15.8022 24.145C15.7566 24.2588 15.7566 24.4067 15.8022 24.5888C15.8022 24.7025 15.7965 24.7879 15.7851 24.8448C15.7737 24.9017 15.7452 24.9756 15.6996 25.0666C15.654 25.2032 15.6027 25.3227 15.5457 25.4251C15.4887 25.5275 15.483 25.6583 15.5286 25.8176C15.5742 26.0452 15.6369 26.2898 15.7167 26.5515C15.7965 26.8132 15.882 27.0579 15.9733 27.2854C16.0645 27.4675 16.15 27.6325 16.2298 27.7804C16.3096 27.9283 16.3495 28.0933 16.3495 28.2754C16.3495 28.3209 16.3552 28.355 16.3666 28.3778C16.378 28.4005 16.4065 28.4347 16.4521 28.4802C16.4977 28.5712 16.5262 28.6736 16.5376 28.7874C16.549 28.9012 16.5775 29.015 16.6231 29.1287V29.5725C16.7143 29.8456 16.7885 30.1187 16.8455 30.3917C16.9025 30.6648 16.988 30.9493 17.102 31.2451C17.102 31.3362 17.1362 31.4044 17.2046 31.4499C17.273 31.4954 17.33 31.541 17.3756 31.5865C17.4668 31.632 17.5523 31.7003 17.6322 31.7913C17.712 31.8823 17.7747 31.9733 17.8203 32.0644C17.8659 32.2009 17.9343 32.3375 18.0255 32.474C18.1167 32.6105 18.1053 32.7471 17.9913 32.8836C17.9913 32.9291 17.997 32.9576 18.0084 32.969C18.0198 32.9803 18.0483 32.986 18.0939 32.986C18.2763 33.1681 18.3732 33.3843 18.3846 33.6346C18.396 33.8849 18.4245 34.1239 18.4701 34.3514C18.4701 34.4425 18.493 34.5164 18.5386 34.5733C18.5842 34.6302 18.6526 34.6814 18.7438 34.7269C18.7894 34.7724 18.8521 34.8179 18.9319 34.8635C19.0117 34.909 19.0744 34.9545 19.12 35H19.291C19.3823 34.9545 19.4621 34.926 19.5305 34.9147C19.5989 34.9033 19.6787 34.8748 19.7699 34.8293H19.9409C20.0777 34.7383 20.2488 34.6814 20.454 34.6586C20.6592 34.6359 20.853 34.6018 21.0354 34.5562C21.1267 34.5562 21.235 34.5392 21.3604 34.505C21.4858 34.4709 21.5941 34.4538 21.6853 34.4538C21.7309 34.4538 21.7936 34.4368 21.8734 34.4026C21.9533 34.3685 22.016 34.3514 22.0616 34.3514C22.1984 34.3969 22.301 34.4026 22.3694 34.3685C22.4378 34.3344 22.5176 34.2945 22.6088 34.249C22.6544 34.2035 22.7057 34.1637 22.7627 34.1296C22.8198 34.0954 22.8939 34.0783 22.9851 34.0783C23.3499 33.9873 23.6235 33.8394 23.806 33.6346C23.9884 33.4298 24.148 33.2136 24.2848 32.986C24.2848 32.9405 24.2962 32.895 24.319 32.8495C24.3418 32.804 24.3532 32.7585 24.3532 32.7129C24.3076 32.5309 24.319 32.4 24.3874 32.3204C24.4558 32.2407 24.6041 32.1554 24.8321 32.0644C24.8777 31.9733 24.9233 31.8823 24.9689 31.7913C25.0145 31.7003 25.0601 31.632 25.1057 31.5865C25.2425 31.541 25.3394 31.4784 25.3965 31.3987C25.4535 31.3191 25.5048 31.2337 25.5504 31.1427C25.5504 31.0972 25.5846 31.0631 25.653 31.0403C25.7214 31.0176 25.7556 30.9834 25.7556 30.9379C25.7556 30.8924 25.7727 30.8355 25.8069 30.7672C25.8411 30.699 25.8582 30.6421 25.8582 30.5966C25.7442 30.5055 25.7043 30.4316 25.7385 30.3747C25.7727 30.3178 25.8354 30.2666 25.9266 30.2211C26.0634 30.13 26.2174 30.0504 26.3884 29.9821C26.5594 29.9138 26.7133 29.8342 26.8501 29.7432C27.0325 29.6521 27.1466 29.5611 27.1922 29.4701C27.2378 29.3791 27.1922 29.2653 27.0553 29.1287C27.0097 29.0832 26.9755 29.032 26.9527 28.9751C26.9299 28.9182 26.8957 28.867 26.8501 28.8215C26.8501 28.594 26.833 28.3835 26.7988 28.19C26.7646 27.9966 26.7475 27.7861 26.7475 27.5585C26.7475 27.513 26.7646 27.4789 26.7988 27.4561C26.833 27.4334 26.8501 27.3992 26.8501 27.3537C26.9869 27.2172 27.1124 27.0806 27.2264 26.9441C27.3404 26.8075 27.4658 26.671 27.6026 26.5345C27.6482 26.4889 27.7109 26.4434 27.7907 26.3979C27.8705 26.3524 27.9561 26.3069 28.0473 26.2614C28.1841 26.2159 28.3209 26.1874 28.4577 26.176C28.5945 26.1647 28.7313 26.1362 28.8682 26.0907C28.8226 25.9542 28.8283 25.8347 28.8853 25.7323C28.9423 25.6299 29.062 25.5332 29.2444 25.4421C29.3356 25.3966 29.4154 25.317 29.4838 25.2032C29.5522 25.0894 29.632 24.987 29.7233 24.896C29.6777 24.4636 29.6035 24.0483 29.5009 23.65C29.3983 23.2518 29.2558 22.8706 29.0734 22.5065C29.0278 22.4382 29.0221 22.3529 29.0563 22.2505C29.0905 22.1481 29.1304 22.0741 29.176 22.0286C29.3128 21.9376 29.3527 21.8636 29.2957 21.8067C29.2387 21.7498 29.1646 21.6759 29.0734 21.5849C29.0278 21.5393 28.9708 21.4711 28.9024 21.38C28.834 21.289 28.7998 21.198 28.7998 21.107C28.7998 21.0159 28.7998 20.9249 28.7998 20.8339C28.7998 20.7428 28.8226 20.6518 28.8682 20.5608L29.4496 19.7415C29.5408 19.605 29.6263 19.4571 29.7062 19.2978C29.786 19.1385 29.9399 19.0361 30.1679 18.9906L30.2705 18.8882C30.4073 18.7516 30.5271 18.6151 30.6297 18.4785C30.7323 18.342 30.852 18.2055 30.9888 18.0689C31.1256 17.9324 31.2738 17.7901 31.4335 17.6422C31.5931 17.4943 31.7869 17.3976 32.0149 17.3521ZM34.1356 24.145C34.09 24.1905 34.0444 24.2303 33.9988 24.2645C33.9532 24.2986 33.9075 24.3157 33.8619 24.3157C33.7251 24.3157 33.6453 24.3384 33.6225 24.3839C33.5997 24.4295 33.5883 24.4977 33.5883 24.5888C33.5883 24.7025 33.594 24.7993 33.6054 24.8789C33.6168 24.9585 33.5427 25.0211 33.3831 25.0666C33.2919 25.1122 33.2064 25.152 33.1266 25.1861C33.0467 25.2203 32.984 25.2373 32.9384 25.2373C32.8472 25.2828 32.756 25.3283 32.6648 25.3739C32.5736 25.4194 32.4824 25.4421 32.3912 25.4421C32.1631 25.4876 31.9978 25.5275 31.8952 25.5616C31.7926 25.5957 31.7413 25.7038 31.7413 25.8859V25.9883C31.6501 26.1704 31.6159 26.3353 31.6387 26.4833C31.6615 26.6312 31.6957 26.8075 31.7413 27.0124C31.8325 27.1489 31.861 27.2854 31.8268 27.422C31.7926 27.5585 31.7071 27.6951 31.5703 27.8316C31.5247 27.8771 31.4905 27.9397 31.4677 28.0193C31.4449 28.099 31.4107 28.1616 31.365 28.2071C31.3194 28.2526 31.308 28.3152 31.3308 28.3948C31.3536 28.4745 31.365 28.5598 31.365 28.6508C31.365 28.8329 31.3765 29.015 31.3993 29.197C31.4221 29.3791 31.5019 29.5611 31.6387 29.7432C31.6843 29.8342 31.7698 29.9025 31.8952 29.948C32.0206 29.9935 32.1517 30.0163 32.2886 30.0163C32.4254 30.0163 32.528 29.9992 32.5964 29.9651C32.6648 29.9309 32.7218 29.8911 32.7674 29.8456C32.813 29.8001 32.87 29.7261 32.9384 29.6237C33.0068 29.5213 33.0638 29.4473 33.1095 29.4018C33.2463 29.2198 33.3603 29.0434 33.4515 28.8727C33.5427 28.702 33.5883 28.5029 33.5883 28.2754C33.5883 28.1843 33.6054 28.0933 33.6396 28.0023C33.6738 27.9112 33.7137 27.8202 33.7593 27.7292C33.8049 27.6382 33.8676 27.5415 33.9474 27.439C34.0273 27.3366 34.09 27.2172 34.1356 27.0806C34.2268 26.8075 34.3123 26.5345 34.3921 26.2614C34.4719 25.9883 34.5118 25.7152 34.5118 25.4421C34.5118 25.3966 34.5175 25.3625 34.5289 25.3397C34.5403 25.317 34.5688 25.2828 34.6144 25.2373L34.8881 25.4421C35.0249 25.3056 35.0363 25.0268 34.9223 24.6058C34.8083 24.1848 34.603 23.815 34.3066 23.4964C34.261 23.6785 34.2325 23.8207 34.2211 23.9231C34.2097 24.0255 34.1812 24.0995 34.1356 24.145Z" fill="black"/>
</svg>
