<svg width="48" height="35" viewBox="0 0 48 35" fill="none" xmlns="http://www.w3.org/2000/svg">
<path d="M40.4062 34.7645C40.5312 34.7017 40.6406 34.6389 40.7344 34.576C40.8281 34.5132 40.9375 34.4504 41.0625 34.3876C41.125 34.3248 41.1875 34.262 41.25 34.1992C41.3125 34.1364 41.375 34.105 41.4375 34.105C41.5625 34.0422 41.6641 33.9794 41.7422 33.9166C41.8203 33.8537 41.9219 33.7909 42.0469 33.7281C42.1094 33.6653 42.1953 33.6261 42.3047 33.6104C42.4141 33.5947 42.5 33.5554 42.5625 33.4926C42.75 33.2414 42.9141 32.9666 43.0547 32.6682C43.1953 32.3699 43.3281 32.0951 43.4531 31.8439C43.5156 31.6555 43.6172 31.5063 43.7578 31.3964C43.8984 31.2865 44.0938 31.2315 44.3438 31.2315C44.4062 31.2315 44.4453 31.2079 44.4609 31.1608C44.4766 31.1137 44.5156 31.0902 44.5781 31.0902C44.6406 30.9646 44.7109 30.8389 44.7891 30.7133C44.8672 30.5877 44.9688 30.4621 45.0938 30.3365C45.2188 30.2109 45.2578 30.0146 45.2109 29.7476C45.1641 29.4807 45.0781 29.2844 44.9531 29.1588C44.8281 29.2844 44.6875 29.3786 44.5312 29.4415C44.375 29.5043 44.2188 29.41 44.0625 29.1588H43.6875C43.5625 29.3472 43.4453 29.5592 43.3359 29.7948C43.2266 30.0303 43.1406 30.2423 43.0781 30.4307C42.9531 30.7447 42.7891 31.0352 42.5859 31.3022C42.3828 31.5691 42.125 31.7968 41.8125 31.9852C41.5 32.2364 41.1875 32.4877 40.875 32.7389C40.5625 32.9901 40.2812 33.2414 40.0312 33.4926C39.9062 33.6182 39.8125 33.7752 39.75 33.9637C39.6875 34.1521 39.6562 34.3405 39.6562 34.5289C39.6562 34.5917 39.6875 34.6703 39.75 34.7645C39.8125 34.8587 39.875 34.9372 39.9375 35C40 34.8116 40.0781 34.7095 40.1719 34.6938C40.2656 34.6781 40.3438 34.7017 40.4062 34.7645ZM46.125 24.8721C46 24.8093 45.8984 24.7465 45.8203 24.6837C45.7422 24.6209 45.6719 24.5581 45.6094 24.4953L45.2344 23.3176C45.1719 23.0664 45.0469 22.8623 44.8594 22.7052C44.6719 22.5482 44.4531 22.5011 44.2031 22.5639C44.2031 22.6267 44.2109 22.6974 44.2266 22.7759C44.2422 22.8544 44.2812 22.9565 44.3438 23.0821C44.5312 23.3333 44.7109 23.6081 44.8828 23.9065C45.0547 24.2048 45.2031 24.4796 45.3281 24.7308C45.3906 24.7936 45.4297 24.88 45.4453 24.9899C45.4609 25.0998 45.4688 25.1862 45.4688 25.249C45.4688 25.3746 45.4453 25.5238 45.3984 25.6965C45.3516 25.8692 45.3281 26.0184 45.3281 26.144C45.3281 26.2068 45.3047 26.2696 45.2578 26.3324C45.2109 26.3952 45.1562 26.4581 45.0938 26.5209C44.8438 26.7093 44.7188 26.8742 44.7188 27.0155C44.7188 27.1568 44.8438 27.2903 45.0938 27.4159C45.5938 27.7299 45.8359 27.9498 45.8203 28.0754C45.8047 28.201 45.7344 28.4836 45.6094 28.9233V29.0646C45.6094 29.1274 45.625 29.1824 45.6562 29.2295C45.6875 29.2766 45.7031 29.3001 45.7031 29.3001H45.8438C45.9062 28.4836 46.1562 27.7692 46.5938 27.1568C47.0312 26.5444 47.5 25.9556 48 25.3903C47.875 25.4531 47.7734 25.5081 47.6953 25.5552C47.6172 25.6023 47.5469 25.6258 47.4844 25.6258C47.1719 25.6258 46.9453 25.5552 46.8047 25.4139C46.6641 25.2725 46.5625 25.0449 46.5 24.7308C46.5 24.668 46.4688 24.5974 46.4062 24.5188C46.3438 24.4403 46.2812 24.3383 46.2188 24.2127H46.125V24.8721ZM23.7656 28.782C23.9531 29.2216 24.1406 29.6691 24.3281 30.1245C24.5156 30.5799 24.75 31.0274 25.0312 31.467C25.0938 31.3414 25.1328 31.2393 25.1484 31.1608C25.1641 31.0823 25.2031 31.0117 25.2656 30.9489C25.4531 31.0745 25.5625 31.098 25.5938 31.0195C25.625 30.941 25.6406 30.8389 25.6406 30.7133V30.1952C25.8281 29.9439 25.875 29.6848 25.7812 29.4179C25.6875 29.151 25.6406 28.8605 25.6406 28.5464C25.3281 28.6721 25.0312 28.8212 24.75 28.9939C24.4688 29.1667 24.1406 29.096 23.7656 28.782ZM37.7812 8.47914C38.0312 8.9188 38.3828 9.32705 38.8359 9.7039C39.2891 10.0808 39.6562 10.2692 39.9375 10.2692C39.6562 9.95514 39.3359 9.64109 38.9766 9.32705C38.6172 9.01301 38.2188 8.73037 37.7812 8.47914ZM18.0469 23.6003V23.3176L17.1562 23.459V23.7416L18.0469 23.6003ZM14.1562 0C14.2812 0.188427 14.4141 0.321892 14.5547 0.400402C14.6953 0.478916 14.8906 0.549572 15.1406 0.612381C15.2656 0.612381 15.4141 0.643787 15.5859 0.706596C15.7578 0.769402 15.9062 0.863617 16.0312 0.989231C16.1562 1.11485 16.2812 1.17766 16.4062 1.17766C16.5312 1.17766 16.6562 1.06775 16.7812 0.847916C16.8438 0.910721 16.8906 0.98138 16.9219 1.05989C16.9531 1.1384 17 1.24047 17.0625 1.36609C17.0625 1.30328 17.0781 1.26402 17.1094 1.24832C17.1406 1.23262 17.1562 1.19336 17.1562 1.13055H17.4375C17.5 1.13055 17.5391 1.15411 17.5547 1.20121C17.5703 1.24832 17.5781 1.27187 17.5781 1.27187C17.4531 1.39749 17.3828 1.55451 17.3672 1.74294C17.3516 1.93136 17.25 2.02557 17.0625 2.02557C16.9375 2.08838 16.8438 2.15119 16.7812 2.214C16.7188 2.27681 16.7188 2.37102 16.7812 2.49664C16.7812 2.65366 16.7656 2.79498 16.7344 2.92059C16.7031 3.04621 16.6875 3.20323 16.6875 3.39165C16.75 3.51727 16.8281 3.65074 16.9219 3.79206C17.0156 3.93338 17.0938 4.09825 17.1562 4.28668C17.1562 4.28668 17.1875 4.31023 17.25 4.35734C17.3125 4.40444 17.375 4.42799 17.4375 4.42799C17.625 4.42799 17.7656 4.4594 17.8594 4.52221C17.9531 4.58502 18.0625 4.67923 18.1875 4.80485C18.3125 4.93046 18.4219 5.04823 18.5156 5.15814C18.6094 5.26806 18.75 5.32302 18.9375 5.32302C19 5.32302 19.0625 5.37012 19.125 5.46433C19.1875 5.55855 19.25 5.63706 19.3125 5.69987C19.4375 5.76267 19.5469 5.84118 19.6406 5.9354C19.7344 6.02961 19.8438 6.07672 19.9688 6.07672C20.0938 6.07672 20.2109 6.02961 20.3203 5.9354C20.4297 5.84118 20.5156 5.76267 20.5781 5.69987C20.7656 5.38582 20.8984 5.04038 20.9766 4.66353C21.0547 4.28668 21.0938 3.86272 21.0938 3.39165C21.0938 3.0148 21.1172 2.63795 21.1641 2.2611C21.2109 1.88425 21.2344 1.5074 21.2344 1.13055C21.4219 1.25617 21.6094 1.35823 21.7969 1.43674C21.9844 1.51525 22.1719 1.61732 22.3594 1.74294C22.4219 1.80574 22.4766 1.86855 22.5234 1.93136C22.5703 1.99417 22.5938 2.05698 22.5938 2.11979V2.77927C22.5938 2.90489 22.625 2.99125 22.6875 3.03836C22.75 3.08546 22.8438 3.07761 22.9688 3.0148C23.1875 2.952 23.3906 2.9991 23.5781 3.15612C23.7656 3.31314 23.8594 3.48587 23.8594 3.67429C23.8594 3.98834 23.8984 4.30238 23.9766 4.61642C24.0547 4.93046 24.1875 5.2445 24.375 5.55855C24.5 5.74697 24.5547 5.9825 24.5391 6.26514C24.5234 6.54778 24.5469 6.83042 24.6094 7.11306C24.6094 7.17586 24.6406 7.23867 24.7031 7.30148C24.7656 7.36429 24.8281 7.4271 24.8906 7.48991C25.0781 7.61552 25.2891 7.74114 25.5234 7.86676C25.7578 7.99237 25.9688 8.14939 26.1562 8.33782C26.2188 8.40063 26.2734 8.48699 26.3203 8.5969C26.3672 8.70682 26.3906 8.79318 26.3906 8.85599C26.5781 9.10722 26.7266 9.36631 26.8359 9.63324C26.9453 9.90018 26.9688 10.1907 26.9062 10.5047H27.7969V11.0229C27.7969 11.2741 27.8594 11.4939 27.9844 11.6824C28.1094 11.8708 28.2969 11.9964 28.5469 12.0592L28.9219 12.4361C28.9844 12.6245 29.0703 12.8129 29.1797 13.0013C29.2891 13.1898 29.375 13.3782 29.4375 13.5666C29.5625 14.0063 29.6641 14.4459 29.7422 14.8856C29.8203 15.3253 29.7969 15.7806 29.6719 16.2517C29.5469 16.817 29.4688 17.3822 29.4375 17.9475C29.4062 18.5128 29.3125 19.0781 29.1562 19.6433C29.1562 19.7061 29.1328 19.7925 29.0859 19.9024C29.0391 20.0123 28.9844 20.0987 28.9219 20.1615C28.5469 20.4127 28.3203 20.7189 28.2422 21.0801C28.1641 21.4412 28.0625 21.8102 27.9375 22.1871C27.9375 22.2499 27.9141 22.3362 27.8672 22.4462C27.8203 22.5561 27.7969 22.6424 27.7969 22.7052C27.5469 23.0193 27.3984 23.3647 27.3516 23.7416C27.3047 24.1184 27.2812 24.4953 27.2812 24.8721C27.2812 25.0606 27.2266 25.194 27.1172 25.2725C27.0078 25.3511 26.8594 25.3903 26.6719 25.3903C26.4219 25.3903 26.1719 25.4296 25.9219 25.5081C25.6719 25.5866 25.4531 25.7515 25.2656 26.0027C25.1406 26.1283 25.0078 26.2539 24.8672 26.3795C24.7266 26.5052 24.5625 26.6308 24.375 26.7564L23.625 26.0027L23.4844 26.2382H23.3906V25.6258H23.25C23.25 25.6886 23.2266 25.7436 23.1797 25.7907C23.1328 25.8378 23.1094 25.8614 23.1094 25.8614C23.0469 25.987 22.9609 26.0969 22.8516 26.1911C22.7422 26.2853 22.6562 26.3952 22.5938 26.5209C22.5938 26.5209 22.5312 26.513 22.4062 26.4973C22.2812 26.4816 22.2188 26.4424 22.2188 26.3795C21.9688 25.9399 21.6484 25.563 21.2578 25.249C20.8672 24.9349 20.3906 24.6837 19.8281 24.4953C19.7656 24.4953 19.7266 24.4639 19.7109 24.4011C19.6953 24.3383 19.6562 24.2755 19.5938 24.2127C19.5938 24.1498 19.5859 24.0949 19.5703 24.0478C19.5547 24.0007 19.5156 23.9771 19.4531 23.9771C19.3281 23.6631 19.2109 23.459 19.1016 23.3647C18.9922 23.2705 18.7656 23.2548 18.4219 23.3176C18.3594 23.1292 18.4062 22.9251 18.5625 22.7052C18.7188 22.4854 18.6406 22.2656 18.3281 22.0458C18.2656 22.2028 18.1953 22.3362 18.1172 22.4462C18.0391 22.5561 17.9375 22.6424 17.8125 22.7052H17.5781C17.6406 22.5168 17.7031 22.3284 17.7656 22.14C17.8281 21.9515 17.8906 21.7945 17.9531 21.6689C18.0156 21.5433 18.0703 21.4177 18.1172 21.2921C18.1641 21.1664 18.1875 21.0408 18.1875 20.9152V20.6797C18.125 20.6797 18.0703 20.6875 18.0234 20.7032C17.9766 20.7189 17.9531 20.7582 17.9531 20.821C17.8906 20.9466 17.8281 21.0487 17.7656 21.1272C17.7031 21.2057 17.6719 21.3078 17.6719 21.4334C17.6719 21.4962 17.6719 21.5511 17.6719 21.5983C17.6719 21.6454 17.6406 21.6689 17.5781 21.6689C17.3906 21.7945 17.1953 21.928 16.9922 22.0693C16.7891 22.2106 16.5938 22.3755 16.4062 22.5639C16.4062 22.5011 16.3906 22.4226 16.3594 22.3284C16.3281 22.2342 16.3125 22.14 16.3125 22.0458C16.3125 21.7945 16.2656 21.5747 16.1719 21.3863C16.0781 21.1978 15.9062 21.0408 15.6562 20.9152C15.5938 20.8524 15.5547 20.7896 15.5391 20.7268C15.5234 20.664 15.5156 20.6012 15.5156 20.5384C15.5156 20.3499 15.4844 20.1929 15.4219 20.0673C15.3594 19.9417 15.2344 19.8475 15.0469 19.7847C14.9844 19.7847 14.8984 19.7611 14.7891 19.714C14.6797 19.6669 14.5938 19.6433 14.5312 19.6433C14.3438 19.6433 14.1562 19.6119 13.9688 19.5491C13.7812 19.4863 13.625 19.3921 13.5 19.2665C13.5 19.2665 13.4766 19.2508 13.4297 19.2194C13.3828 19.188 13.3281 19.1723 13.2656 19.1723C12.9531 19.2351 12.6406 19.2822 12.3281 19.3136C12.0156 19.345 11.7031 19.4235 11.3906 19.5491C10.9844 19.6747 10.6094 19.7768 10.2656 19.8553C9.92188 19.9338 9.53125 19.9103 9.09375 19.7847C8.71875 19.659 8.34375 19.6669 7.96875 19.8082C7.59375 19.9495 7.25 20.1144 6.9375 20.3028C6.6875 20.4913 6.41406 20.6718 6.11719 20.8445C5.82031 21.0173 5.54688 21.1664 5.29688 21.2921L3.79688 22.0458C3.60938 22.14 3.39844 22.2185 3.16406 22.2813C2.92969 22.3441 2.71875 22.4383 2.53125 22.5639C2.46875 22.5639 2.40625 22.5796 2.34375 22.611C2.28125 22.6424 2.21875 22.6267 2.15625 22.5639C2.03125 22.3755 1.88281 22.2106 1.71094 22.0693C1.53906 21.928 1.39062 21.7631 1.26562 21.5747L1.40625 21.1978C1.53125 21.135 1.625 21.0565 1.6875 20.9623C1.75 20.8681 1.78125 20.7268 1.78125 20.5384V20.3028C1.96875 19.8632 1.98438 19.4628 1.82812 19.1016C1.67188 18.7405 1.53125 18.3715 1.40625 17.9946C1.40625 17.9318 1.38281 17.8454 1.33594 17.7355C1.28906 17.6256 1.26562 17.5079 1.26562 17.3822C1.26562 17.2566 1.25781 17.1467 1.24219 17.0525C1.22656 16.9583 1.1875 16.8484 1.125 16.7227C0.9375 16.2831 0.757812 15.867 0.585938 15.4744C0.414062 15.0819 0.265625 14.6501 0.140625 14.179C0.078125 14.1162 0.0390625 14.0377 0.0234375 13.9435C0.0078125 13.8493 0 13.7708 0 13.7079L0.375 14.179C0.4375 14.0534 0.492188 13.9513 0.539062 13.8728C0.585938 13.7943 0.609375 13.6922 0.609375 13.5666C0.609375 13.441 0.5625 13.3154 0.46875 13.1898C0.375 13.0642 0.296875 12.9699 0.234375 12.9071C0.046875 12.5931 -0.0234375 12.3105 0.0234375 12.0592C0.0703125 11.808 0.1875 11.541 0.375 11.2584C0.6875 10.8188 1.02344 10.4183 1.38281 10.0572C1.74219 9.69605 2.20312 9.42126 2.76562 9.23284C3.07812 9.10722 3.375 8.9345 3.65625 8.71467C3.9375 8.49484 4.23438 8.29071 4.54688 8.10229C4.54688 8.03948 4.57031 8.00023 4.61719 7.98452C4.66406 7.96882 4.71875 7.96097 4.78125 7.96097C5.03125 7.96097 5.23438 7.92957 5.39062 7.86676C5.54688 7.80395 5.6875 7.67833 5.8125 7.48991C5.875 7.36429 5.96094 7.25437 6.07031 7.16016C6.17969 7.06595 6.26562 6.95603 6.32812 6.83042C6.45312 6.7048 6.53906 6.57133 6.58594 6.43001C6.63281 6.28869 6.625 6.12382 6.5625 5.9354C6.5625 5.68416 6.64062 5.48004 6.79688 5.32302C6.95312 5.16599 7.09375 4.99327 7.21875 4.80485C7.28125 4.93046 7.32031 5.07963 7.33594 5.25236C7.35156 5.42508 7.39062 5.57425 7.45312 5.69987C7.57812 5.63706 7.64844 5.55855 7.66406 5.46433C7.67969 5.37012 7.6875 5.07178 7.6875 4.56931L8.34375 4.66353C8.15625 4.34948 8.19531 4.09825 8.46094 3.90982C8.72656 3.7214 8.85938 3.47017 8.85938 3.15612L9.32812 3.29744V3.0148C9.45312 2.952 9.5625 2.87349 9.65625 2.77927C9.75 2.68506 9.85938 2.59085 9.98438 2.49664H10.2188C10.4062 2.71646 10.6016 2.88134 10.8047 2.99125C11.0078 3.10117 11.1094 3.28174 11.1094 3.53297C11.1094 3.53297 11.1172 3.55653 11.1328 3.60363C11.1484 3.65074 11.1875 3.7057 11.25 3.76851C11.3125 3.64289 11.3516 3.54082 11.3672 3.46231C11.3828 3.3838 11.4219 3.28174 11.4844 3.15612L12.2344 3.67429C12.2344 3.61148 12.2578 3.57223 12.3047 3.55653C12.3516 3.54082 12.375 3.53297 12.375 3.53297C12.125 3.09332 12.1172 2.70076 12.3516 2.35532C12.5859 2.00987 12.7656 1.64872 12.8906 1.27187C12.9531 1.14626 13.0312 1.02849 13.125 0.918575C13.2188 0.808659 13.3906 0.785107 13.6406 0.847916H14.0156C14.2656 0.785107 14.4219 0.714447 14.4844 0.635937C14.5469 0.557426 14.4688 0.423958 14.25 0.235531C14.125 0.235531 14.0781 0.196278 14.1094 0.117767C14.1406 0.039257 14.1562 0 14.1562 0ZM40.4062 34.7645C40.2812 34.7017 40.1797 34.6624 40.1016 34.6467C40.0234 34.631 39.9219 34.5917 39.7969 34.5289C39.7344 34.4661 39.6562 34.3798 39.5625 34.2699C39.4688 34.1599 39.4531 34.0736 39.5156 34.0108C39.5781 33.8223 39.625 33.6339 39.6562 33.4455C39.6875 33.2571 39.7812 33.1 39.9375 32.9744C40.1875 32.7232 40.4609 32.472 40.7578 32.2207C41.0547 31.9695 41.3594 31.7183 41.6719 31.467C41.9844 31.31 42.25 31.098 42.4688 30.8311C42.6875 30.5642 42.8438 30.2737 42.9375 29.9596C43 29.677 43.0938 29.4415 43.2188 29.253C43.3438 29.0646 43.4688 28.8762 43.5938 28.6878C43.5938 28.6878 43.6562 28.6721 43.7812 28.6406C43.9062 28.6092 43.9688 28.6249 43.9688 28.6878C44.0938 28.939 44.2266 29.0332 44.3672 28.9704C44.5078 28.9076 44.6719 28.8134 44.8594 28.6878C44.9844 28.8134 45.0625 29.0018 45.0938 29.253C45.125 29.5043 45.0781 29.6927 44.9531 29.8183C44.8906 29.9439 44.8281 30.0695 44.7656 30.1952C44.7031 30.3208 44.6094 30.4464 44.4844 30.572C44.4844 30.6348 44.4531 30.6741 44.3906 30.6898C44.3281 30.7055 44.2656 30.7133 44.2031 30.7133C44.0156 30.7133 43.8516 30.784 43.7109 30.9253C43.5703 31.0666 43.4375 31.2001 43.3125 31.3257C43.125 31.5769 42.9609 31.8517 42.8203 32.1501C42.6797 32.4484 42.5469 32.7232 42.4219 32.9744C42.3594 33.0372 42.2969 33.1 42.2344 33.1629C42.1719 33.2257 42.0781 33.2571 41.9531 33.2571C41.8281 33.3199 41.7031 33.3827 41.5781 33.4455C41.4531 33.5083 41.3594 33.5711 41.2969 33.6339C41.2344 33.6967 41.1719 33.7517 41.1094 33.7988C41.0469 33.8459 40.9844 33.8694 40.9219 33.8694C40.9219 34.1835 40.8672 34.3955 40.7578 34.5054C40.6484 34.6153 40.5312 34.7017 40.4062 34.7645ZM46.125 24.8721V24.4953H46.2188C46.2812 24.5581 46.3438 24.6209 46.4062 24.6837C46.4688 24.7465 46.5 24.8407 46.5 24.9664C46.5625 25.249 46.6641 25.4688 46.8047 25.6258C46.9453 25.7829 47.1719 25.8614 47.4844 25.8614C47.5469 25.8614 47.6328 25.8378 47.7422 25.7907C47.8516 25.7436 47.9375 25.6886 48 25.6258C47.5625 26.2539 47.1094 26.8742 46.6406 27.4865C46.1719 28.0989 45.9062 28.782 45.8438 29.5357H45.7031C45.7031 29.4729 45.6875 29.4179 45.6562 29.3708C45.625 29.3237 45.6094 29.3001 45.6094 29.3001V29.1588C45.7344 28.7192 45.8047 28.4365 45.8203 28.3109C45.8359 28.1853 45.5938 27.9655 45.0938 27.6514C44.8438 27.463 44.7188 27.3138 44.7188 27.2039C44.7188 27.094 44.8438 26.9448 45.0938 26.7564C45.1562 26.6936 45.2109 26.6308 45.2578 26.568C45.3047 26.5052 45.3281 26.4424 45.3281 26.3795C45.3906 26.2539 45.4297 26.1048 45.4453 25.932C45.4609 25.7593 45.4688 25.6101 45.4688 25.4845C45.4688 25.4217 45.4453 25.3354 45.3984 25.2254C45.3516 25.1155 45.3281 25.0292 45.3281 24.9664C45.1406 24.7151 44.9609 24.4482 44.7891 24.1655C44.6172 23.8829 44.4688 23.6003 44.3438 23.3176C44.2812 23.2548 44.2422 23.192 44.2266 23.1292C44.2109 23.0664 44.2031 22.9722 44.2031 22.8466C44.4531 22.7838 44.6719 22.8152 44.8594 22.9408C45.0469 23.0664 45.1719 23.2862 45.2344 23.6003C45.2969 23.7887 45.3438 23.9771 45.375 24.1655C45.4062 24.354 45.4844 24.5424 45.6094 24.7308C45.6719 24.668 45.7578 24.6602 45.8672 24.7073C45.9766 24.7544 46.0625 24.8093 46.125 24.8721ZM23.7656 28.782C24.1406 29.0332 24.4766 29.0725 24.7734 28.8997C25.0703 28.727 25.4062 28.6092 25.7812 28.5464C25.7812 28.8605 25.8281 29.1353 25.9219 29.3708C26.0156 29.6063 25.9688 29.8811 25.7812 30.1952C25.7188 30.258 25.7031 30.3443 25.7344 30.4542C25.7656 30.5642 25.7812 30.6505 25.7812 30.7133C25.7812 30.8389 25.75 30.941 25.6875 31.0195C25.625 31.098 25.5312 31.0745 25.4062 30.9489C25.3438 31.0117 25.2969 31.0823 25.2656 31.1608C25.2344 31.2393 25.1875 31.3414 25.125 31.467C24.875 31.0274 24.6484 30.5799 24.4453 30.1245C24.2422 29.6691 24.0156 29.2216 23.7656 28.782ZM37.7812 8.47914C38.2812 8.73037 38.6953 8.99731 39.0234 9.27995C39.3516 9.56258 39.6562 9.89233 39.9375 10.2692C39.6562 10.332 39.2891 10.175 38.8359 9.79812C38.3828 9.42126 38.0312 8.98161 37.7812 8.47914ZM18.0469 23.6003L17.1562 23.7416V23.459L18.0469 23.3176V23.6003Z" fill="black"/>
</svg>
