<svg width="45" height="45" viewBox="0 0 45 45" fill="none" xmlns="http://www.w3.org/2000/svg">
<path d="M41.1328 22.0119C41.3086 21.9541 41.477 21.8892 41.6382 21.817C41.7993 21.7449 41.9092 21.651 41.9678 21.5356C42.1436 21.3046 42.3193 21.052 42.4951 20.7778C42.6709 20.5035 42.8467 20.2509 43.0225 20.02C43.1982 19.7891 43.374 19.5437 43.5498 19.2839C43.7256 19.0241 43.9893 18.8364 44.3408 18.7209L44.4727 18.591C44.5898 18.1869 44.6777 17.79 44.7363 17.4002C44.7949 17.0105 44.8535 16.6425 44.9121 16.296C44.6777 16.3538 44.4434 16.3899 44.209 16.4043C43.9746 16.4187 43.7402 16.4548 43.5059 16.5126C43.2129 16.5703 42.9199 16.6208 42.6269 16.6641C42.334 16.7074 42.041 16.7291 41.748 16.7291C41.6894 16.7291 41.6455 16.7507 41.6162 16.794C41.5869 16.8373 41.543 16.859 41.4844 16.859C41.3672 16.9167 41.228 16.96 41.0669 16.9889C40.9058 17.0177 40.7666 16.9744 40.6494 16.859C40.5322 16.7435 40.3931 16.628 40.2319 16.5126C40.0708 16.3971 39.9316 16.2816 39.8144 16.1661L40.2978 15.9063L39.2432 14.8671C39.126 14.8093 39.0308 14.73 38.9575 14.6289C38.8843 14.5279 38.7744 14.4485 38.6279 14.3908C38.5107 14.333 38.3789 14.2753 38.2324 14.2176C38.0859 14.1598 37.9834 14.0732 37.9248 13.9577C37.8076 13.8423 37.7124 13.7051 37.6392 13.5464C37.5659 13.3876 37.4707 13.2505 37.3535 13.135C37.2949 12.9618 37.207 12.7886 37.0898 12.6154C36.9727 12.4422 36.8555 12.2978 36.7383 12.1824C36.5625 12.0669 36.438 11.9298 36.3647 11.771C36.2915 11.6122 36.2256 11.4462 36.167 11.273V11.0132C36.1084 10.7245 36.0425 10.4575 35.9692 10.2121C35.896 9.96676 35.6836 9.7286 35.332 9.49765C35.2148 9.43992 35.1416 9.3461 35.1123 9.21619C35.083 9.08629 35.0391 8.99247 34.9805 8.93473C34.9805 8.877 34.9585 8.81926 34.9145 8.76152C34.8706 8.70379 34.8486 8.64605 34.8486 8.58832C34.7314 8.35737 34.5923 8.10478 34.4311 7.83054C34.27 7.55629 34.1309 7.3037 34.0137 7.07275L33.3105 5.99021C33.1934 5.817 33.0908 5.62936 33.0029 5.42728C32.915 5.22521 32.9004 5.02313 32.959 4.82106C33.1348 5.08087 33.2812 5.35511 33.3984 5.64379C33.5156 5.93247 33.7207 6.17785 34.0137 6.37992C34.248 5.94691 34.4019 5.54997 34.4751 5.18913C34.5483 4.82827 34.3945 4.47464 34.0137 4.12823C33.7793 4.07049 33.5229 4.03441 33.2446 4.01997C32.9663 4.00554 32.71 3.96946 32.4756 3.91172H32.2559C31.7871 4.08493 31.2964 4.20761 30.7837 4.27979C30.271 4.35196 29.7803 4.41691 29.3115 4.47464C28.9893 4.53238 28.7476 4.51794 28.5864 4.43134C28.4253 4.34474 28.3447 4.21483 28.3447 4.04163C28.3447 3.86842 28.2715 3.73851 28.125 3.65191C27.9785 3.5653 27.8174 3.49314 27.6416 3.4354C27.4072 3.37766 27.1802 3.32714 26.9604 3.28384C26.7407 3.24054 26.5723 3.13229 26.4551 2.95908C26.2207 3.24776 26.0156 3.42097 25.8398 3.4787C25.6641 3.53644 25.4004 3.44983 25.0488 3.21889C24.873 3.27663 24.7485 3.36323 24.6753 3.4787C24.602 3.59417 24.6094 3.73851 24.6973 3.91172C24.8145 3.96946 24.873 4.03441 24.873 4.10658C24.873 4.17875 24.8145 4.27257 24.6973 4.38804C24.4922 4.44577 24.3311 4.46743 24.2139 4.45299C24.0967 4.43856 23.9795 4.37361 23.8623 4.25813C23.6865 4.08493 23.4814 3.96224 23.2471 3.89007C23.0127 3.8179 22.7783 3.78181 22.5439 3.78181C22.3682 3.78181 22.229 3.75294 22.1265 3.69521C22.0239 3.63747 21.9727 3.50757 21.9727 3.3055C21.9727 3.24776 21.9434 3.19724 21.8848 3.15394C21.8262 3.11064 21.7676 3.08899 21.709 3.08899C21.4746 3.03125 21.2329 2.9663 20.9839 2.89413C20.7349 2.82196 20.4639 2.81474 20.1709 2.87247C19.9365 2.87247 19.7534 2.83639 19.6216 2.76422C19.4897 2.69205 19.3652 2.56936 19.248 2.39616C19.248 2.33842 19.2041 2.30233 19.1162 2.2879C19.0283 2.27347 18.9844 2.26625 18.9844 2.26625C18.8672 2.32399 18.7573 2.33842 18.6548 2.30955C18.5522 2.28069 18.501 2.23738 18.501 2.17965C18.501 2.09304 18.5303 2.02087 18.5889 1.96314C18.6475 1.9054 18.7353 1.84767 18.8525 1.78993C19.1162 1.67446 19.2554 1.53734 19.27 1.37856C19.2847 1.21979 19.2334 1.0538 19.1162 0.880592C19.0576 0.822857 19.0283 0.765121 19.0283 0.707386C19.0283 0.649651 19.0576 0.591915 19.1162 0.534176C19.2334 0.418705 19.27 0.332104 19.2261 0.274368C19.1821 0.216629 19.0576 0.187763 18.8525 0.187763C18.6768 0.187763 18.501 0.166111 18.3252 0.12281C18.1494 0.0795097 17.9736 0.0578575 17.7978 0.0578575C17.5049 0.0578575 17.2339 0.0434227 16.9849 0.0145569C16.7358 -0.0143127 16.4941 0.00012207 16.2598 0.0578575C16.0254 0.115593 15.791 0.15168 15.5566 0.166111C15.3223 0.180546 15.0879 0.187763 14.8535 0.187763C14.3262 0.245499 13.8062 0.281582 13.2935 0.296017C12.7808 0.310452 12.3047 0.462009 11.8652 0.750687H11.7773C11.4258 0.808422 11.1621 0.873375 10.9863 0.945545C10.8105 1.01772 10.6348 1.11153 10.459 1.22701C10.4004 1.34248 10.3198 1.40743 10.2173 1.42186C10.1147 1.4363 10.0049 1.41465 9.88769 1.35691H8.9209C8.74512 1.35691 8.59131 1.34248 8.45947 1.31361C8.32764 1.28474 8.20312 1.21257 8.08594 1.0971C8.08594 1.03936 8.04199 1.00328 7.9541 0.988846C7.86621 0.974411 7.74902 0.938328 7.60254 0.880592C7.74902 1.16927 7.79297 1.37856 7.73437 1.50847C7.67578 1.63837 7.55859 1.73219 7.38281 1.78993C7.14844 1.84767 6.9873 1.95592 6.89941 2.11469C6.81152 2.27347 6.73828 2.41059 6.67969 2.52606L5.97656 3.5653C5.80078 3.73851 5.625 3.93337 5.44922 4.14988C5.27344 4.36639 5.08301 4.56125 4.87793 4.73446C4.76074 4.84993 4.65088 4.9654 4.54834 5.08087C4.4458 5.19634 4.36523 5.31181 4.30664 5.42728C4.24805 5.42728 4.18945 5.44894 4.13086 5.49224C4.07227 5.53554 4.01367 5.58606 3.95508 5.64379C3.83789 5.70153 3.69873 5.75927 3.5376 5.817C3.37646 5.87474 3.2373 5.93247 3.12012 5.99021C3.06152 6.04794 2.96631 6.10568 2.83447 6.16341C2.70264 6.22115 2.60742 6.29332 2.54883 6.37992C2.43164 6.78407 2.20459 7.14492 1.86768 7.46247C1.53076 7.78002 1.27441 8.112 1.09863 8.45841C0.922852 8.68935 0.754394 8.9203 0.593262 9.15124C0.432129 9.38218 0.292969 9.61313 0.175781 9.84407C0.0585937 10.0173 0 10.1761 0 10.3204C0 10.4647 0.0878906 10.6235 0.263672 10.7967C0.322266 10.8544 0.358887 10.9338 0.373535 11.0349C0.388184 11.1359 0.395508 11.2153 0.395508 11.273C0.395508 11.3885 0.41748 11.4823 0.461426 11.5545C0.505371 11.6267 0.527344 11.7205 0.527344 11.836C0.527344 11.9514 0.541992 12.0669 0.571289 12.1824C0.600586 12.2978 0.585937 12.4133 0.527344 12.5288C0.46875 12.6443 0.402832 12.8535 0.32959 13.1567C0.256348 13.4598 0.161133 13.7557 0.0439453 14.0443V14.3042C0.102539 14.4196 0.13916 14.5351 0.153809 14.6506C0.168457 14.766 0.205078 14.8815 0.263672 14.997C0.380859 15.1702 0.439453 15.3578 0.439453 15.5599C0.439453 15.762 0.629883 15.9208 1.01074 16.0362L1.09863 16.1661C1.09863 16.3393 1.17187 16.5053 1.31836 16.6641C1.46484 16.8229 1.62598 16.96 1.80176 17.0755C2.18262 17.3353 2.47559 17.5807 2.68066 17.8116C2.88574 18.0425 3.07617 18.3024 3.25195 18.591C3.31055 18.6488 3.36914 18.7282 3.42773 18.8292C3.48633 18.9302 3.54492 18.9808 3.60352 18.9808C3.83789 18.9808 4.02832 19.0385 4.1748 19.154C4.32129 19.2694 4.48242 19.356 4.6582 19.4138C4.77539 19.4715 4.87793 19.5292 4.96582 19.587C5.05371 19.6447 5.15625 19.6736 5.27344 19.6736L6.32812 20.02H6.67969L9.27246 19.6736C9.7998 19.6158 10.3491 19.5509 10.9204 19.4787C11.4917 19.4066 12.0557 19.3127 12.6123 19.1973C12.7881 19.1395 12.9712 19.1034 13.1616 19.089C13.352 19.0746 13.5645 19.0674 13.7988 19.0674C13.916 19.0674 14.0479 19.0962 14.1943 19.154C14.3408 19.2117 14.4727 19.2694 14.5898 19.3272C14.8535 19.3849 15.0439 19.4499 15.1611 19.522C15.2783 19.5942 15.3662 19.7169 15.4248 19.8901C15.4248 19.9478 15.4541 19.9983 15.5127 20.0416C15.5713 20.085 15.6299 20.1066 15.6885 20.1066C15.9229 20.1932 16.1499 20.2509 16.3696 20.2798C16.5894 20.3087 16.7871 20.2942 16.9629 20.2365C17.1387 20.2365 17.3218 20.2437 17.5122 20.2582C17.7026 20.2726 17.8857 20.3087 18.0615 20.3664C18.1787 20.3664 18.2666 20.3881 18.3252 20.4314C18.3838 20.4747 18.4424 20.5252 18.501 20.5829C18.6182 20.7561 18.6548 20.9943 18.6108 21.2974C18.5669 21.6005 18.457 21.8387 18.2812 22.0119C18.2227 22.0696 18.1714 22.1274 18.1274 22.1851C18.0835 22.2428 18.0908 22.3006 18.1494 22.3583C18.208 22.4738 18.2446 22.5676 18.2593 22.6398C18.2739 22.7119 18.2812 22.8057 18.2812 22.9212C18.2812 23.0367 18.2666 23.1522 18.2373 23.2676C18.208 23.3831 18.2227 23.4697 18.2812 23.5274C18.3984 23.7584 18.5083 23.9821 18.6108 24.1986C18.7134 24.4151 18.8818 24.5811 19.1162 24.6966C19.1748 24.7543 19.2261 24.8121 19.27 24.8698C19.314 24.9275 19.3359 24.9853 19.3359 25.043C19.5117 25.4472 19.6875 25.8441 19.8633 26.2338C20.0391 26.6235 20.2148 27.006 20.3906 27.3813C20.4785 27.5545 20.5371 27.7061 20.5664 27.836C20.5957 27.9659 20.5811 28.1174 20.5225 28.2906V28.6371C20.5811 28.7525 20.6396 28.868 20.6982 28.9835C20.7568 29.0989 20.7861 29.2144 20.7861 29.3299C20.8447 29.4454 20.8667 29.5825 20.852 29.7413C20.8374 29.9 20.7715 30.0372 20.6543 30.1526C20.4785 30.3258 20.3613 30.4846 20.3027 30.6289C20.2441 30.7733 20.2441 30.9609 20.3027 31.1919C20.3027 31.3362 20.2954 31.4445 20.2808 31.5166C20.2661 31.5888 20.2295 31.6826 20.1709 31.7981C20.1123 31.9713 20.0464 32.1229 19.9731 32.2528C19.8999 32.3827 19.8926 32.5487 19.9512 32.7507C20.0098 33.0394 20.0903 33.3497 20.1929 33.6817C20.2954 34.0137 20.4053 34.324 20.5225 34.6127C20.6396 34.8437 20.7495 35.0529 20.852 35.2406C20.9546 35.4282 21.0059 35.6375 21.0059 35.8685C21.0059 35.9262 21.0132 35.9695 21.0278 35.9984C21.0425 36.0272 21.0791 36.0705 21.1377 36.1283C21.1963 36.2437 21.2329 36.3737 21.2476 36.518C21.2622 36.6623 21.2988 36.8067 21.3574 36.951V37.5139C21.4746 37.8604 21.5698 38.2068 21.6431 38.5532C21.7163 38.8996 21.8262 39.2604 21.9727 39.6357C21.9727 39.7512 22.0166 39.8378 22.1045 39.8955C22.1924 39.9533 22.2656 40.011 22.3242 40.0687C22.4414 40.1265 22.5513 40.2131 22.6538 40.3286C22.7563 40.444 22.8369 40.5595 22.8955 40.675C22.9541 40.8482 23.042 41.0214 23.1592 41.1946C23.2764 41.3678 23.2617 41.541 23.1152 41.7142C23.1152 41.7719 23.1226 41.808 23.1372 41.8225C23.1519 41.8369 23.1885 41.8441 23.2471 41.8441C23.4814 42.0751 23.606 42.3493 23.6206 42.6669C23.6353 42.9844 23.6719 43.2875 23.7305 43.5762C23.7305 43.6917 23.7598 43.7855 23.8184 43.8577C23.877 43.9298 23.9648 43.9948 24.082 44.0525C24.1406 44.1102 24.2212 44.168 24.3237 44.2257C24.4263 44.2835 24.5068 44.3412 24.5654 44.3989H24.7852C24.9023 44.3412 25.0049 44.3051 25.0928 44.2907C25.1807 44.2762 25.2832 44.2402 25.4004 44.1824H25.6201C25.7959 44.0669 26.0156 43.9948 26.2793 43.9659C26.543 43.937 26.792 43.8937 27.0264 43.836C27.1436 43.836 27.2827 43.8144 27.4438 43.771C27.605 43.7277 27.7441 43.7061 27.8613 43.7061C27.9199 43.7061 28.0005 43.6844 28.103 43.6411C28.2056 43.5978 28.2861 43.5762 28.3447 43.5762C28.5205 43.6339 28.6523 43.6411 28.7402 43.5978C28.8281 43.5545 28.9307 43.504 29.0478 43.4463C29.1064 43.3885 29.1724 43.338 29.2456 43.2947C29.3188 43.2514 29.4141 43.2298 29.5312 43.2298C30 43.1143 30.3516 42.9267 30.5859 42.6669C30.8203 42.407 31.0254 42.1328 31.2012 41.8441C31.2012 41.7864 31.2158 41.7286 31.2451 41.6709C31.2744 41.6132 31.2891 41.5554 31.2891 41.4977C31.2305 41.2668 31.2451 41.1008 31.333 40.9997C31.4209 40.8987 31.6113 40.7904 31.9043 40.675C31.9629 40.5595 32.0215 40.444 32.0801 40.3286C32.1387 40.2131 32.1973 40.1265 32.2559 40.0687C32.4316 40.011 32.5561 39.9316 32.6294 39.8306C32.7026 39.7295 32.7686 39.6213 32.8271 39.5058C32.8271 39.4481 32.8711 39.4048 32.959 39.3759C33.0469 39.347 33.0908 39.3037 33.0908 39.246C33.0908 39.1883 33.1128 39.1161 33.1567 39.0295C33.2007 38.9429 33.2227 38.8707 33.2227 38.813C33.0762 38.6975 33.0249 38.6037 33.0688 38.5315C33.1128 38.4594 33.1934 38.3944 33.3105 38.3367C33.4863 38.2212 33.6841 38.1202 33.9038 38.0336C34.1235 37.947 34.3213 37.8459 34.4971 37.7304C34.7314 37.615 34.8779 37.4995 34.9365 37.384C34.9951 37.2686 34.9365 37.1242 34.7607 36.951C34.7021 36.8933 34.6582 36.8283 34.6289 36.7562C34.5996 36.684 34.5557 36.619 34.4971 36.5613C34.4971 36.2726 34.4751 36.0056 34.4311 35.7602C34.3872 35.5148 34.3652 35.2478 34.3652 34.9591C34.3652 34.9014 34.3872 34.8581 34.4311 34.8292C34.4751 34.8004 34.4971 34.7571 34.4971 34.6993C34.6728 34.5261 34.834 34.3529 34.9805 34.1797C35.1269 34.0065 35.2881 33.8333 35.4639 33.6601C35.5225 33.6023 35.603 33.5446 35.7056 33.4869C35.8081 33.4291 35.918 33.3714 36.0352 33.3137C36.2109 33.2559 36.3867 33.2198 36.5625 33.2054C36.7383 33.191 36.9141 33.1549 37.0898 33.0971C37.0312 32.9239 37.0386 32.7724 37.1118 32.6425C37.1851 32.5126 37.3389 32.3899 37.5732 32.2744C37.6904 32.2167 37.793 32.1156 37.8809 31.9713C37.9687 31.827 38.0713 31.6971 38.1885 31.5816C38.1299 31.0331 38.0347 30.5063 37.9028 30.0011C37.771 29.4959 37.5879 29.0123 37.3535 28.5505C37.2949 28.4639 37.2876 28.3556 37.3315 28.2257C37.3755 28.0958 37.4268 28.002 37.4853 27.9442C37.6611 27.8288 37.7124 27.7349 37.6392 27.6628C37.5659 27.5906 37.4707 27.4968 37.3535 27.3813C37.2949 27.3236 37.2217 27.237 37.1338 27.1215C37.0459 27.006 37.0019 26.8906 37.0019 26.7751C37.0019 26.6596 37.0019 26.5441 37.0019 26.4287C37.0019 26.3132 37.0312 26.1977 37.0898 26.0823L37.8369 25.043C37.9541 24.8698 38.064 24.6822 38.1665 24.4801C38.269 24.278 38.4668 24.1481 38.7598 24.0904L38.8916 23.9605C39.0674 23.7873 39.2212 23.614 39.353 23.4408C39.4849 23.2676 39.6387 23.0944 39.8144 22.9212C39.9902 22.748 40.1807 22.5676 40.3857 22.3799C40.5908 22.1923 40.8398 22.0696 41.1328 22.0119ZM43.8574 30.6289C43.7988 30.6867 43.7402 30.7372 43.6816 30.7805C43.623 30.8238 43.5644 30.8455 43.5059 30.8455C43.3301 30.8455 43.2275 30.8743 43.1982 30.9321C43.1689 30.9898 43.1543 31.0764 43.1543 31.1919C43.1543 31.3362 43.1616 31.4589 43.1763 31.5599C43.1909 31.661 43.0957 31.7404 42.8906 31.7981C42.7734 31.8558 42.6636 31.9063 42.561 31.9497C42.4585 31.993 42.3779 32.0146 42.3193 32.0146C42.2021 32.0723 42.085 32.1301 41.9678 32.1878C41.8506 32.2455 41.7334 32.2744 41.6162 32.2744C41.3232 32.3322 41.1108 32.3827 40.979 32.426C40.8472 32.4693 40.7812 32.6064 40.7812 32.8373V32.9672C40.6641 33.1982 40.6201 33.4075 40.6494 33.5951C40.6787 33.7828 40.7227 34.0065 40.7812 34.2663C40.8984 34.4395 40.9351 34.6127 40.8911 34.7859C40.8472 34.9591 40.7373 35.1323 40.5615 35.3055C40.5029 35.3633 40.459 35.4427 40.4297 35.5437C40.4004 35.6447 40.3564 35.7241 40.2978 35.7819C40.2393 35.8396 40.2246 35.919 40.2539 36.02C40.2832 36.1211 40.2978 36.2293 40.2978 36.3448C40.2978 36.5757 40.3125 36.8067 40.3418 37.0376C40.3711 37.2686 40.4736 37.4995 40.6494 37.7304C40.708 37.8459 40.8179 37.9325 40.979 37.9903C41.1401 38.048 41.3086 38.0769 41.4844 38.0769C41.6602 38.0769 41.792 38.0552 41.8799 38.0119C41.9678 37.9686 42.041 37.9181 42.0996 37.8604C42.1582 37.8026 42.2314 37.7088 42.3193 37.5789C42.4072 37.449 42.4805 37.3552 42.5391 37.2974C42.7148 37.0665 42.8613 36.8428 42.9785 36.6262C43.0957 36.4097 43.1543 36.1571 43.1543 35.8685C43.1543 35.753 43.1763 35.6375 43.2202 35.5221C43.2642 35.4066 43.3154 35.2911 43.374 35.1756C43.4326 35.0602 43.5132 34.9375 43.6157 34.8076C43.7183 34.6777 43.7988 34.5261 43.8574 34.3529C43.9746 34.0065 44.0845 33.6601 44.187 33.3137C44.2895 32.9672 44.3408 32.6208 44.3408 32.2744C44.3408 32.2167 44.3481 32.1734 44.3628 32.1445C44.3774 32.1156 44.4141 32.0723 44.4727 32.0146L44.8242 32.2744C45 32.1012 45.0146 31.7476 44.8682 31.2135C44.7217 30.6795 44.458 30.2104 44.0771 29.8062C44.0186 30.0372 43.9819 30.2176 43.9673 30.3475C43.9526 30.4774 43.916 30.5712 43.8574 30.6289Z" fill="#12499E"/>
</svg>
