<svg width="40" height="40" viewBox="0 0 40 40" fill="none" xmlns="http://www.w3.org/2000/svg">
<rect width="40" height="40" fill="white"/>
<path d="M5.83535 13.3396C4.45497 13.3396 3.33594 14.4586 3.33594 15.839V27.5029C3.33594 28.8833 4.45497 30.0023 5.83535 30.0023C7.21573 30.0023 8.33477 28.8833 8.33477 27.5029V15.839C8.33477 14.4586 7.21573 13.3396 5.83535 13.3396Z" fill="#4CAF50"/>
<path d="M34.1635 13.3396C32.7831 13.3396 31.6641 14.4586 31.6641 15.839V27.5029C31.6641 28.8833 32.7831 30.0023 34.1635 30.0023C35.5439 30.0023 36.6629 28.8833 36.6629 27.5029V15.839C36.6629 14.4586 35.5439 13.3396 34.1635 13.3396Z" fill="#4CAF50"/>
<path d="M29.1621 13.3396H10.8332C10.373 13.3396 10 13.7126 10 14.1728V27.5029C9.99961 29.4828 11.3927 31.1893 13.3326 31.5853V37.5006C13.3326 38.881 14.4516 40 15.832 40C17.2124 40 18.3314 38.881 18.3314 37.5006V31.6686H21.664V37.5006C21.664 38.881 22.783 40 24.1634 40C25.5438 40 26.6628 38.881 26.6628 37.5006V31.5853C28.6027 31.1893 29.9958 29.4828 29.9954 27.5029V14.1728C29.9953 13.7126 29.6223 13.3396 29.1621 13.3396Z" fill="#4CAF50"/>
<path d="M26.0547 3.46192L28.0859 1.4324C28.4168 1.11271 28.426 0.585331 28.1063 0.254315C27.7867 -0.0766233 27.2593 -0.0857618 26.9283 0.233851C26.9213 0.240568 26.9145 0.247363 26.9078 0.254315L24.5417 2.62048C21.6438 1.36163 18.3534 1.36163 15.4555 2.62048L13.0894 0.252674C12.7585 -0.0670162 12.231 -0.0577996 11.9113 0.273138C11.5995 0.596031 11.5995 1.10786 11.9113 1.43068L13.9408 3.46184C11.4666 5.09896 9.98481 7.87339 10.0001 10.8401C10.0001 11.3002 10.3732 11.6733 10.8333 11.6733H29.1623C29.6225 11.6733 29.9955 11.3002 29.9955 10.8401C30.0107 7.87347 28.5289 5.09904 26.0547 3.46192Z" fill="#4CAF50"/>
<path d="M15.8332 8.34077C16.2933 8.34077 16.6663 7.96775 16.6663 7.5076C16.6663 7.04746 16.2933 6.67444 15.8332 6.67444C15.373 6.67444 15 7.04746 15 7.5076C15 7.96775 15.373 8.34077 15.8332 8.34077Z" fill="#FAFAFA"/>
<path d="M24.1652 8.34077C24.6253 8.34077 24.9984 7.96775 24.9984 7.5076C24.9984 7.04746 24.6253 6.67444 24.1652 6.67444C23.7051 6.67444 23.332 7.04746 23.332 7.5076C23.332 7.96775 23.7051 8.34077 24.1652 8.34077Z" fill="#FAFAFA"/>
</svg>
