<svg width="48" height="48" viewBox="0 0 48 48" fill="none" xmlns="http://www.w3.org/2000/svg">
<rect width="48" height="48" rx="24" fill="white"/>
<path d="M33.8015 20.555C32.1629 21.5635 31.1509 23.2921 31.1509 25.2129C31.1509 27.3738 32.4521 29.3426 34.428 30.1589C34.0424 31.4074 33.4641 32.5599 32.7412 33.6163C31.681 35.1049 30.5726 36.6415 28.934 36.6415C27.2954 36.6415 26.8135 35.6811 24.8858 35.6811C23.0063 35.6811 22.3316 36.6895 20.7894 36.6895C19.2473 36.6895 18.187 35.2969 16.9822 33.5683C15.3918 31.1673 14.4762 28.3822 14.428 25.453C14.428 20.6991 17.5123 18.1541 20.5967 18.1541C22.2352 18.1541 23.5846 19.2105 24.5967 19.2105C25.5605 19.2105 27.1027 18.1061 28.934 18.1061C30.8617 18.0581 32.693 18.9704 33.8015 20.555ZM28.0665 16.0893C28.8858 15.1289 29.3195 13.9284 29.3677 12.6799C29.3677 12.5358 29.3677 12.3438 29.3195 12.1997C27.922 12.3438 26.6207 13.016 25.7051 14.0725C24.8858 14.9848 24.4039 16.1373 24.3557 17.3858C24.3557 17.5298 24.3557 17.6739 24.4039 17.818C24.5003 17.818 24.6448 17.866 24.7412 17.866C26.0424 17.7699 27.2473 17.0977 28.0665 16.0893Z" fill="black"/>
<rect x="0.5" y="0.5" width="47" height="47" rx="23.5" stroke="#E9EBF1"/>
</svg>
