<svg width="14" height="17" viewBox="0 0 14 17" fill="none" xmlns="http://www.w3.org/2000/svg">
<path d="M7.02762 3.906C7.78477 3.906 8.73387 3.3895 9.29906 2.70084C9.81094 2.07674 10.1842 1.20516 10.1842 0.33357C10.1842 0.215207 10.1735 0.096843 10.1522 0C9.30973 0.032281 8.29664 0.570298 7.68879 1.29124C7.20891 1.84002 6.77168 2.70084 6.77168 3.58319C6.77168 3.71231 6.79301 3.84144 6.80367 3.88448C6.85699 3.89524 6.94231 3.906 7.02762 3.906ZM4.3616 16.926C5.39602 16.926 5.85457 16.2266 7.14492 16.2266C8.4566 16.2266 8.74453 16.9045 9.89625 16.9045C11.0266 16.9045 11.7838 15.85 12.4983 14.817C13.2981 13.6333 13.6287 12.4712 13.65 12.4174C13.5754 12.3959 11.4105 11.5028 11.4105 8.99564C11.4105 6.82205 13.1168 5.84286 13.2128 5.76754C12.0824 4.13197 10.3655 4.08893 9.89625 4.08893C8.62723 4.08893 7.59281 4.86367 6.9423 4.86367C6.23848 4.86367 5.3107 4.13197 4.2123 4.13197C2.12215 4.13197 0 5.87514 0 9.1678C0 11.2123 0.78914 13.3751 1.75957 14.7739C2.59137 15.9576 3.31652 16.926 4.3616 16.926Z" fill="black"/>
</svg>
