<svg width="305" height="286" viewBox="0 0 305 286" fill="none" xmlns="http://www.w3.org/2000/svg">
<g clip-path="url(#clip0_1761_13315)">
<path d="M244.441 221.475C241.957 221.475 239.529 220.741 237.464 219.365C235.399 217.989 233.789 216.034 232.839 213.746C231.888 211.459 231.64 208.941 232.124 206.513C232.609 204.084 233.805 201.853 235.561 200.103C237.317 198.352 239.555 197.159 241.991 196.676C244.427 196.193 246.952 196.441 249.246 197.389C251.541 198.336 253.502 199.941 254.882 202C256.262 204.059 256.998 206.479 256.998 208.955C256.995 212.275 255.67 215.457 253.316 217.804C250.962 220.151 247.77 221.471 244.441 221.475Z" fill="#CCCCCC"/>
<path d="M250.235 208.474H244.922V202.455C244.922 202.327 244.871 202.204 244.781 202.114C244.69 202.024 244.567 201.973 244.439 201.973C244.311 201.973 244.188 202.024 244.098 202.114C244.007 202.204 243.956 202.327 243.956 202.455V208.474H238.643C238.515 208.474 238.392 208.525 238.302 208.615C238.211 208.705 238.16 208.828 238.16 208.955C238.16 209.083 238.211 209.206 238.302 209.296C238.392 209.386 238.515 209.437 238.643 209.437H243.956V215.456C243.956 215.584 244.007 215.706 244.098 215.796C244.188 215.887 244.311 215.937 244.439 215.937C244.567 215.937 244.69 215.887 244.781 215.796C244.871 215.706 244.922 215.584 244.922 215.456V209.437H250.235C250.363 209.437 250.486 209.386 250.576 209.296C250.667 209.206 250.718 209.083 250.718 208.955C250.718 208.828 250.667 208.705 250.576 208.615C250.486 208.525 250.363 208.474 250.235 208.474Z" fill="white"/>
<path d="M292.799 280.144L287.278 280.143L284.652 258.91L292.801 258.91L292.799 280.144Z" fill="#FFB8B8"/>
<path d="M283.334 278.57H293.983V285.255H276.629C276.629 284.377 276.802 283.508 277.139 282.697C277.476 281.885 277.97 281.149 278.593 280.528C279.215 279.907 279.954 279.415 280.768 279.079C281.581 278.743 282.453 278.57 283.334 278.57Z" fill="#2F2E41"/>
<path d="M270.823 280.144L265.301 280.143L262.676 258.91L270.825 258.91L270.823 280.144Z" fill="#FFB8B8"/>
<path d="M261.357 278.57H272.006V285.255H254.652C254.652 284.377 254.826 283.508 255.163 282.697C255.5 281.885 255.994 281.149 256.616 280.528C257.239 279.907 257.978 279.415 258.791 279.079C259.605 278.743 260.477 278.57 261.357 278.57Z" fill="#2F2E41"/>
<path d="M297.051 206.734C296.606 206.245 296.275 205.664 296.08 205.033C295.885 204.403 295.831 203.737 295.922 203.083C296.013 202.429 296.247 201.803 296.606 201.249C296.966 200.695 297.444 200.226 298.005 199.876L296.295 189.7L302.244 187.155L304.457 201.56C304.985 202.539 305.134 203.677 304.876 204.758C304.618 205.84 303.972 206.789 303.059 207.427C302.146 208.065 301.03 208.346 299.923 208.219C298.815 208.091 297.793 207.563 297.051 206.734Z" fill="#FFB8B8"/>
<path d="M250.475 201.926C250.994 201.516 251.417 200.998 251.714 200.408C252.011 199.818 252.175 199.171 252.193 198.511C252.212 197.851 252.085 197.195 251.822 196.589C251.559 195.984 251.166 195.443 250.67 195.005L254.043 185.25L248.597 181.761L244.028 195.603C243.345 196.482 243.01 197.579 243.085 198.688C243.16 199.797 243.64 200.84 244.435 201.619C245.229 202.399 246.283 202.86 247.396 202.917C248.51 202.973 249.605 202.621 250.475 201.926Z" fill="#FFB8B8"/>
<path d="M278.753 130.063C285.305 130.063 290.616 124.768 290.616 118.236C290.616 111.704 285.305 106.409 278.753 106.409C272.202 106.409 266.891 111.704 266.891 118.236C266.891 124.768 272.202 130.063 278.753 130.063Z" fill="#FFB8B8"/>
<path d="M250.108 194.628C249.905 194.628 249.702 194.599 249.507 194.543L246.049 193.553C245.497 193.394 245.03 193.024 244.751 192.523C244.472 192.022 244.402 191.432 244.558 190.88L251.693 165.763L261.644 141.409C262.634 138.988 264.701 137.4 267.039 137.266C268.107 137.214 269.167 137.471 270.091 138.008C271.015 138.544 271.763 139.336 272.245 140.288C272.78 141.307 273.074 142.434 273.104 143.584C273.134 144.733 272.899 145.874 272.417 146.919L261.107 171.578L252.116 193.287C251.952 193.684 251.673 194.023 251.316 194.261C250.959 194.5 250.538 194.628 250.108 194.628Z" fill="#3F3D56"/>
<path d="M285.447 128.154L278.856 128.271C278.169 128.284 277.489 128.137 276.87 127.84C276.252 127.543 275.711 127.106 275.293 126.563C274.875 126.02 274.591 125.386 274.463 124.714C274.336 124.041 274.369 123.348 274.559 122.69C274.7 122.215 274.806 121.73 274.876 121.239C274.95 120.704 274.964 120.163 274.919 119.625C274.877 119.086 274.653 118.577 274.283 118.182C273.913 117.786 273.42 117.528 272.883 117.449C272.347 117.37 271.8 117.476 271.331 117.748C270.862 118.02 270.501 118.442 270.305 118.946C269.196 118.962 266.835 118.602 265.727 118.618C263.374 112.603 268.502 104.734 274.022 101.778C279.649 98.7643 286.954 101.83 289.111 108.111C292.105 108.164 294.537 111.108 294.923 114.422C295.309 117.735 293.941 121.196 291.85 123.735C289.758 126.275 287.011 128.126 285.447 128.154Z" fill="#2F2E41"/>
<path d="M263.78 278.161C263.246 278.158 262.732 277.96 262.335 277.604C261.937 277.248 261.685 276.759 261.625 276.23L259.18 194.257L289.988 196.443L290.012 196.641C296.974 254.743 294.594 274.856 294.569 275.053C294.552 275.35 294.474 275.641 294.339 275.906C294.204 276.172 294.016 276.407 293.786 276.597C293.556 276.787 293.289 276.928 293.002 277.01C292.715 277.093 292.414 277.115 292.118 277.076L285.31 277.239C284.793 277.181 284.315 276.94 283.962 276.561C283.608 276.181 283.403 275.688 283.383 275.171L277.021 215.798C276.982 215.644 276.889 215.508 276.76 215.415C276.63 215.322 276.472 215.278 276.313 215.29C276.149 215.289 275.99 215.345 275.864 215.449C275.737 215.552 275.65 215.696 275.618 215.856L273.16 275.423C273.186 275.976 272.998 276.518 272.635 276.937C272.272 277.355 271.761 277.619 271.208 277.672L263.996 278.15C263.924 278.158 263.852 278.161 263.78 278.161Z" fill="#2F2E41"/>
<path d="M276.564 204.052C276.38 204.052 276.196 204.049 276.011 204.043C267.152 203.777 260.221 197.095 258.308 195.053C258.065 194.793 257.889 194.477 257.798 194.132C257.707 193.788 257.703 193.427 257.786 193.08L262.897 171.525L261.541 152.785C261.328 150.185 261.67 147.568 262.544 145.109C263.419 142.649 264.806 140.403 266.615 138.516C268.122 136.929 269.953 135.683 271.986 134.864C274.018 134.044 276.203 133.669 278.393 133.766C287.017 134.176 293.821 141.861 293.882 151.261C293.977 165.82 293.547 166.82 293.406 167.149C289.102 177.163 291.453 191.22 292.276 195.29C292.349 195.653 292.329 196.029 292.216 196.382C292.103 196.735 291.901 197.053 291.63 197.306C286.897 201.784 281.83 204.051 276.564 204.052Z" fill="#3F3D56"/>
<path d="M298.815 198.572C298.324 198.572 297.847 198.405 297.462 198.1C297.078 197.794 296.809 197.368 296.7 196.89L291.427 173.99L284.36 147.815C284.059 146.705 284.016 145.541 284.236 144.412C284.456 143.284 284.933 142.22 285.629 141.304C286.262 140.445 287.132 139.787 288.132 139.41C289.132 139.033 290.22 138.953 291.264 139.18C293.548 139.698 295.324 141.605 295.899 144.155L301.673 169.787L304.552 195.761C304.614 196.33 304.448 196.901 304.089 197.349C303.731 197.797 303.209 198.085 302.638 198.152L299.064 198.558C298.982 198.568 298.899 198.572 298.815 198.572Z" fill="#3F3D56"/>
<path d="M14.8934 201.042C15.519 200.614 16.043 200.055 16.4285 199.404C16.8139 198.753 17.0514 198.025 17.1243 197.272C17.1971 196.519 17.1035 195.76 16.8501 195.047C16.5967 194.334 16.1895 193.686 15.6574 193.147L17.6701 148.356L7.42325 149.502L8.01856 193.314C7.16965 194.265 6.70022 195.494 6.69922 196.767C6.69822 198.041 7.16572 199.27 8.01313 200.222C8.86054 201.175 10.029 201.785 11.2971 201.936C12.5652 202.087 13.8447 201.769 14.8934 201.042Z" fill="#FFB8B8"/>
<path d="M33.5859 276.863L39.418 277.885L45.182 255.945L37.5407 254.436L33.5859 276.863Z" fill="#FFB8B8"/>
<path d="M49.7109 285.255L31.3821 282.043L32.627 274.983L43.8743 276.954C44.8042 277.117 45.6929 277.461 46.4895 277.966C47.2861 278.472 47.9751 279.129 48.5171 279.9C49.0591 280.67 49.4435 281.54 49.6483 282.459C49.8531 283.378 49.8744 284.328 49.7109 285.255Z" fill="#2F2E41"/>
<path d="M17.5752 279.773H23.4966L26.3134 257.003L17.5742 257.003L17.5752 279.773Z" fill="#FFB8B8"/>
<path d="M34.918 285.255L16.308 285.255L16.3077 278.087L27.7274 278.086C29.6344 278.086 31.4633 278.842 32.8118 280.186C34.1603 281.53 34.9179 283.353 34.918 285.255Z" fill="#2F2E41"/>
<path d="M42.7656 273.538C42.6732 273.538 42.5808 273.533 42.4891 273.522L35.5195 272.95C35.2022 272.913 34.8958 272.812 34.6189 272.653C34.342 272.494 34.1003 272.28 33.9087 272.025C33.7171 271.771 33.5794 271.48 33.504 271.17C33.4287 270.86 33.4173 270.539 33.4704 270.225L39.9061 234.264L35.5575 211.404C35.522 211.218 35.4204 211.051 35.2714 210.934C35.1223 210.817 34.9359 210.758 34.7465 210.768C34.5571 210.777 34.3775 210.854 34.2408 210.985C34.1041 211.116 34.0196 211.292 34.0028 211.481L28.5663 272.455C28.5066 273.067 28.2108 273.632 27.7414 274.031C27.272 274.429 26.6656 274.631 26.0502 274.592L19.484 274.348C18.9086 274.308 18.368 274.058 17.9643 273.648C17.5606 273.237 17.3218 272.693 17.2929 272.118L16.8516 199.038L50.8933 194.796L53.2713 231.411L53.2619 231.45L45.0555 271.742C44.9305 272.254 44.6369 272.709 44.2217 273.035C43.8066 273.36 43.2938 273.537 42.7656 273.538Z" fill="#2F2E41"/>
<path d="M28.0776 119.331C34.6292 119.331 39.9403 114.036 39.9403 107.504C39.9403 100.972 34.6292 95.677 28.0776 95.677C21.526 95.677 16.2148 100.972 16.2148 107.504C16.2148 114.036 21.526 119.331 28.0776 119.331Z" fill="#FFB8B8"/>
<path d="M39.253 204.379C37.3977 204.39 35.578 203.871 34.0092 202.884C28.2629 199.303 21.7362 200.726 18.357 201.893C18.0217 202.01 17.6642 202.05 17.3112 202.01C16.9582 201.97 16.6189 201.851 16.3186 201.661C16.0217 201.476 15.7708 201.225 15.5848 200.929C15.3987 200.633 15.2823 200.299 15.2442 199.951L9.09935 145.237C8.06961 136.07 13.6085 127.451 22.2694 124.743C22.5948 124.642 22.9256 124.545 23.262 124.454C25.9572 123.726 28.7798 123.595 31.5312 124.071C34.2825 124.547 36.8958 125.618 39.1872 127.21C41.5211 128.819 43.473 130.918 44.9056 133.36C46.3381 135.802 47.2163 138.527 47.4786 141.344L52.6516 196.425C52.6868 196.781 52.6386 197.141 52.5106 197.476C52.3826 197.811 52.1784 198.111 51.914 198.354C50.1006 200.027 44.8374 204.379 39.253 204.379Z" fill="#007061"/>
<path d="M20.5418 156.97L6.67838 155.451C6.28393 155.407 5.90346 155.28 5.56288 155.077C5.22231 154.874 4.92964 154.6 4.7048 154.274C4.47995 153.948 4.32822 153.577 4.25994 153.188C4.19166 152.798 4.20843 152.398 4.30911 152.015L7.83786 138.607C8.07121 136.596 9.0948 134.759 10.6842 133.5C12.2737 132.24 14.2992 131.66 16.3167 131.888C18.3343 132.115 20.1791 133.13 21.4468 134.711C22.7145 136.293 23.3016 138.31 23.0793 140.322L23.6031 154.13C23.618 154.526 23.5473 154.92 23.3957 155.285C23.2441 155.651 23.0152 155.98 22.7247 156.249C22.4342 156.519 22.0888 156.723 21.7121 156.847C21.3354 156.971 20.9363 157.013 20.5418 156.97Z" fill="#007061"/>
<path d="M52.598 199.124C53.1674 198.624 53.62 198.006 53.9239 197.313C54.2278 196.621 54.3756 195.87 54.357 195.114C54.3383 194.358 54.1536 193.615 53.8158 192.938C53.4781 192.261 52.9955 191.666 52.4021 191.194L48.986 146.488L38.9453 148.742L44.8392 192.279C44.1114 193.325 43.7939 194.601 43.9469 195.865C44.0998 197.129 44.7125 198.293 45.6688 199.137C46.6252 199.981 47.8588 200.446 49.1359 200.443C50.413 200.441 51.6449 199.971 52.598 199.124Z" fill="#FFB8B8"/>
<path d="M35.0951 154.16C34.8045 153.89 34.5756 153.562 34.424 153.196C34.2724 152.83 34.2018 152.437 34.2168 152.041L34.7407 138.233C34.5184 136.221 35.1055 134.203 36.3732 132.622C37.6409 131.041 39.4857 130.026 41.5032 129.798C43.5208 129.571 45.5463 130.151 47.1357 131.411C48.7252 132.67 49.7488 134.507 49.9821 136.517L53.5109 149.926C53.6115 150.309 53.6283 150.709 53.56 151.098C53.4918 151.488 53.34 151.859 53.1152 152.185C52.8903 152.511 52.5977 152.785 52.2571 152.988C51.9165 153.191 51.536 153.318 51.1416 153.361L37.2782 154.881C36.8837 154.925 36.4844 154.883 36.1077 154.758C35.7309 154.634 35.3855 154.43 35.0951 154.16Z" fill="#007061"/>
<path d="M27.3699 119.776C27.159 119.776 26.9489 119.752 26.7437 119.703L26.6834 119.689C16.2535 118.098 13.9485 112.075 13.4426 109.56C12.9189 106.956 13.5152 104.442 14.8626 103.466C14.128 101.153 14.2459 99.1026 15.2139 97.3685C16.9021 94.3444 20.566 93.3218 21.0573 93.1967C23.9833 91.0447 27.4842 92.4813 28.1212 92.7726C33.7811 90.6849 35.9444 92.4227 36.3357 92.8107C38.8657 93.2638 40.4078 94.2381 40.9198 95.7074C41.8815 98.467 38.8403 101.9 38.7104 102.045L38.6429 102.12L34.1124 102.335C33.6825 102.355 33.2618 102.466 32.8774 102.659C32.493 102.852 32.1536 103.123 31.8812 103.455C31.6088 103.787 31.4095 104.173 31.2962 104.587C31.1829 105.001 31.1582 105.434 31.2236 105.858C31.3462 106.405 31.5011 106.945 31.6875 107.474C32.4612 109.885 33.0409 111.944 32.2932 112.727C32.1238 112.878 31.915 112.979 31.6908 113.018C31.4666 113.057 31.2359 113.032 31.0252 112.946C30.3169 112.757 29.8359 112.797 29.5963 113.064C29.2243 113.478 29.3378 114.525 29.9161 116.013C30.0975 116.484 30.1464 116.995 30.0573 117.491C29.9683 117.988 29.7448 118.45 29.4109 118.829C29.1596 119.125 28.847 119.362 28.4946 119.526C28.1423 119.689 27.7586 119.775 27.3699 119.776Z" fill="#2F2E41"/>
<path d="M68.1016 286H0.48299C0.354893 286 0.232035 285.949 0.141457 285.859C0.0508786 285.769 0 285.646 0 285.518C0 285.391 0.0508786 285.268 0.141457 285.178C0.232035 285.088 0.354893 285.037 0.48299 285.037H68.1016C68.2297 285.037 68.3526 285.088 68.4431 285.178C68.5337 285.268 68.5846 285.391 68.5846 285.518C68.5846 285.646 68.5337 285.769 68.4431 285.859C68.3526 285.949 68.2297 286 68.1016 286Z" fill="#CCCCCC"/>
<path d="M303.801 286H236.182C236.054 286 235.931 285.949 235.841 285.859C235.75 285.769 235.699 285.646 235.699 285.518C235.699 285.391 235.75 285.268 235.841 285.178C235.931 285.088 236.054 285.037 236.182 285.037H303.801C303.929 285.037 304.052 285.088 304.142 285.178C304.233 285.268 304.284 285.391 304.284 285.518C304.284 285.646 304.233 285.769 304.142 285.859C304.052 285.949 303.929 286 303.801 286Z" fill="#CCCCCC"/>
<path d="M207.066 204.168H90.182C85.7002 204.163 81.4033 202.386 78.2342 199.227C75.0651 196.067 73.2824 191.783 73.2773 187.315V16.8535C73.2824 12.3853 75.0651 8.10144 78.2342 4.94188C81.4033 1.78233 85.7002 0.00507115 90.182 0H207.066C211.547 0.00507115 215.844 1.78233 219.013 4.94188C222.183 8.10144 223.965 12.3853 223.97 16.8535V187.315C223.965 191.783 222.183 196.067 219.013 199.227C215.844 202.386 211.547 204.163 207.066 204.168Z" fill="white"/>
<path d="M188.711 135.324H108.534C100.344 135.285 100.31 122.847 108.535 122.804L188.711 122.804C196.895 122.842 196.939 135.281 188.711 135.324Z" fill="#CCCCCC"/>
<path d="M188.711 35.1374H108.534C100.344 35.0981 100.31 22.6603 108.535 22.6177L188.711 22.6176C196.895 22.6559 196.939 35.0947 188.711 35.1374Z" fill="#CCCCCC"/>
<path d="M188.711 158.437H108.534C100.344 158.398 100.31 145.96 108.535 145.918L188.711 145.918C196.895 145.956 196.939 158.395 188.711 158.437Z" fill="#CCCCCC"/>
<path d="M188.711 181.551H108.534C100.344 181.511 100.31 169.074 108.535 169.031L188.711 169.031C196.895 169.069 196.939 181.508 188.711 181.551Z" fill="#CCCCCC"/>
<path d="M187.259 107.78H109.981C107.868 107.778 105.843 106.94 104.349 105.451C102.854 103.961 102.014 101.942 102.012 99.8351V56.6903C102.014 54.5838 102.854 52.5643 104.349 51.0748C105.843 49.5853 107.868 48.7474 109.981 48.7451H187.259C189.372 48.7474 191.398 49.5853 192.892 51.0748C194.386 52.5643 195.226 54.5838 195.229 56.6903V99.8351C195.226 101.942 194.386 103.961 192.892 105.451C191.398 106.94 189.372 107.778 187.259 107.78Z" fill="#007061"/>
<path d="M207.066 204.168H90.182C85.7002 204.163 81.4033 202.386 78.2342 199.227C75.0651 196.067 73.2824 191.783 73.2773 187.315V16.8535C73.2824 12.3853 75.0651 8.10144 78.2342 4.94188C81.4033 1.78233 85.7002 0.00507115 90.182 0H207.066C211.547 0.00507115 215.844 1.78233 219.013 4.94188C222.183 8.10144 223.965 12.3853 223.97 16.8535V187.315C223.965 191.783 222.183 196.067 219.013 199.227C215.844 202.386 211.547 204.163 207.066 204.168ZM90.182 2.88918C86.4685 2.89336 82.9083 4.36595 80.2824 6.98387C77.6565 9.60178 76.1795 13.1512 76.1753 16.8535V187.315C76.1795 191.017 77.6565 194.567 80.2824 197.185C82.9083 199.803 86.4685 201.275 90.182 201.279H207.066C210.779 201.275 214.339 199.803 216.965 197.185C219.591 194.567 221.068 191.017 221.072 187.315V16.8535C221.068 13.1512 219.591 9.60177 216.965 6.98385C214.339 4.36593 210.779 2.89335 207.066 2.88918H90.182Z" fill="#E6E6E6"/>
</g>
<defs>
<clipPath id="clip0_1761_13315">
<rect width="305" height="286" fill="white"/>
</clipPath>
</defs>
</svg>
