<svg width="46" height="45" viewBox="0 0 46 45" fill="none" xmlns="http://www.w3.org/2000/svg">
<path d="M45.1318 11.085L43.9453 10.3922C43.9453 10.4499 43.9746 10.5077 44.0332 10.5654C44.0918 10.6232 44.0625 10.7098 43.9453 10.8252C43.8867 10.8252 43.8501 10.7819 43.8354 10.6953C43.8208 10.6087 43.8135 10.5365 43.8135 10.4788C43.8135 10.3633 43.7842 10.2551 43.7256 10.154C43.667 10.053 43.5791 10.0025 43.4619 10.0025C43.3447 10.0025 43.2495 10.0025 43.1763 10.0025C43.103 10.0025 42.9932 9.97363 42.8467 9.91589C42.7881 9.91589 42.7368 9.88702 42.6929 9.82928C42.6489 9.77155 42.627 9.71381 42.627 9.65608V9.43957L42.4951 9.30967C42.3779 9.19419 42.2607 9.10759 42.1436 9.04985C42.0264 8.99212 41.9092 8.91995 41.792 8.83334H41.5723C41.4551 8.83334 41.3379 8.855 41.2207 8.8983C41.1035 8.9416 40.9863 8.96325 40.8691 8.96325C40.752 8.96325 40.6348 8.95603 40.5176 8.9416C40.4004 8.92717 40.3125 8.86221 40.2539 8.74674H40.166C40.0781 8.80448 40.0342 8.88386 40.0342 8.9849C40.0342 9.08594 40.0781 9.16533 40.166 9.22306L40.2539 9.30967V9.56947C40.2539 9.62721 40.2319 9.65608 40.188 9.65608C40.144 9.65608 40.0928 9.65608 40.0342 9.65608C39.9756 9.65608 39.9316 9.64164 39.9023 9.61278C39.873 9.58391 39.8291 9.56947 39.7705 9.56947C39.7119 9.56947 39.6533 9.52617 39.5947 9.43957C39.5361 9.35297 39.4482 9.30967 39.3311 9.30967H38.7158C38.6572 9.30967 38.5767 9.29523 38.4741 9.26636C38.3716 9.2375 38.291 9.22306 38.2324 9.22306H37.793L37.6611 9.30967V9.43957C37.6611 9.38183 37.6538 9.3241 37.6392 9.26636C37.6245 9.20863 37.5879 9.15089 37.5293 9.09315C37.4707 9.03542 37.4121 8.99933 37.3535 8.9849C37.2949 8.97047 37.2363 8.96325 37.1777 8.96325V8.74674C37.2363 8.689 37.2437 8.63127 37.1997 8.57353C37.1558 8.5158 37.1045 8.48693 37.0459 8.48693C36.9287 8.42919 36.8115 8.40033 36.6943 8.40033C36.5771 8.40033 36.46 8.40033 36.3428 8.40033C36.1084 8.22712 35.896 8.11165 35.7056 8.05391C35.5151 7.99617 35.332 7.99617 35.1562 8.05391H34.9365C34.9365 7.93844 34.8999 7.85184 34.8267 7.7941C34.7534 7.73636 34.6289 7.7075 34.4531 7.7075C34.4531 7.59203 34.3872 7.53429 34.2554 7.53429C34.1235 7.53429 34.0283 7.50542 33.9697 7.44769C34.0283 7.38995 34.1016 7.3683 34.1895 7.38273C34.2773 7.39717 34.292 7.34665 34.2334 7.23117C34.1748 7.23117 34.0942 7.23117 33.9917 7.23117C33.8892 7.23117 33.8086 7.26004 33.75 7.31778H33.6182C33.5596 7.26004 33.5229 7.20231 33.5083 7.14457C33.4937 7.08684 33.457 7.0291 33.3984 6.97137L33.2666 7.10127C33.208 7.15901 33.1714 7.21674 33.1567 7.27448C33.1421 7.33221 33.1055 7.38995 33.0469 7.44769H32.915C32.915 7.44769 32.9224 7.42603 32.937 7.38273C32.9517 7.33943 32.9883 7.31778 33.0469 7.31778L33.1787 7.23117C33.0322 7.23117 32.9297 7.20231 32.8711 7.14457C32.8125 7.08684 32.7539 7.00023 32.6953 6.88476H32.5635C32.4463 6.88476 32.3364 6.87754 32.2339 6.86311C32.1313 6.84868 32.0508 6.81259 31.9922 6.75486C31.9336 6.75486 31.897 6.76207 31.8823 6.77651C31.8677 6.79094 31.8604 6.82703 31.8604 6.88476V6.97137H31.5088V7.7075C31.3916 7.7075 31.2891 7.73636 31.2012 7.7941C31.1133 7.85184 31.0107 7.85184 30.8936 7.7941C30.7178 7.85184 30.564 7.8807 30.4321 7.8807C30.3003 7.8807 30.1465 7.85184 29.9707 7.7941C29.9121 7.7941 29.8462 7.7941 29.7729 7.7941C29.6997 7.7941 29.6045 7.76523 29.4873 7.7075C29.4287 7.76523 29.3921 7.8374 29.3774 7.924C29.3628 8.01061 29.3262 8.08278 29.2676 8.14051H29.1357C29.0771 8.14051 29.0405 8.12608 29.0259 8.09721C29.0112 8.06834 28.9746 8.05391 28.916 8.05391C28.7695 7.93844 28.6597 7.80132 28.5864 7.64254C28.5132 7.48377 28.418 7.34665 28.3008 7.23117C28.418 7.28891 28.4912 7.31778 28.5205 7.31778C28.5498 7.31778 28.5938 7.28891 28.6523 7.23117L28.4326 6.53835C28.374 6.59608 28.2935 6.62495 28.1909 6.62495C28.0884 6.62495 28.0078 6.59608 27.9492 6.53835C27.832 6.42287 27.7148 6.3507 27.5977 6.32184C27.4805 6.29297 27.3633 6.27854 27.2461 6.27854V6.62495C26.8945 6.68269 26.543 6.66825 26.1914 6.58165C25.8398 6.49504 25.5176 6.36514 25.2246 6.19193C25.166 6.19193 25.1074 6.19193 25.0488 6.19193C24.9902 6.19193 24.9316 6.2208 24.873 6.27854C24.8145 6.27854 24.7412 6.29297 24.6533 6.32184C24.5654 6.3507 24.5654 6.42287 24.6533 6.53835C24.5654 6.48061 24.5361 6.40123 24.5654 6.30019C24.5947 6.19915 24.5801 6.11976 24.5215 6.06203C24.4629 6.1775 24.4043 6.24245 24.3457 6.25689C24.2871 6.27132 24.2285 6.24967 24.1699 6.19193L24.0381 6.06203C23.9209 5.88882 23.8257 5.795 23.7524 5.78056C23.6792 5.76613 23.6133 5.81665 23.5547 5.93212L23.6865 6.06203L22.5 6.53835C22.5 6.48061 22.522 6.42287 22.5659 6.36514C22.6099 6.3074 22.6318 6.27854 22.6318 6.27854C22.6904 6.2208 22.7637 6.16306 22.8516 6.10533C22.9395 6.04759 23.0127 5.98986 23.0713 5.93212H23.2031C23.3203 5.81665 23.4375 5.72283 23.5547 5.65066C23.6719 5.57849 23.7891 5.48467 23.9062 5.3692C23.9648 5.3692 24.0234 5.36198 24.082 5.34755C24.1406 5.33311 24.1699 5.29703 24.1699 5.23929C24.2285 5.12382 24.2871 5.05887 24.3457 5.04443C24.4043 5.03 24.4629 5.02278 24.5215 5.02278C24.6387 4.96505 24.7046 4.90731 24.7192 4.84958C24.7339 4.79184 24.7119 4.71967 24.6533 4.63307L24.7412 4.54646L24.6533 4.41656C24.5654 4.35882 24.4922 4.31552 24.4336 4.28665C24.375 4.25779 24.3164 4.18562 24.2578 4.07014H24.1699C24.0527 4.01241 23.9355 3.97632 23.8184 3.96189C23.7012 3.94745 23.584 3.91137 23.4668 3.85363C23.4082 3.85363 23.3423 3.8392 23.269 3.81033C23.1958 3.78146 23.1299 3.7959 23.0713 3.85363C23.0127 3.9691 22.9541 4.01241 22.8955 3.98354C22.8369 3.95467 22.7783 3.94024 22.7197 3.94024L22.9834 3.59382L22.2803 3.50722L22.6318 3.24741C22.6318 3.24741 22.6245 3.22576 22.6099 3.18246C22.5952 3.13915 22.5586 3.1175 22.5 3.1175C22.3828 3.05976 22.2437 3.01646 22.0825 2.9876C21.9214 2.95873 21.7822 3.00203 21.665 3.1175C21.6064 3.1175 21.5332 3.16802 21.4453 3.26906C21.3574 3.3701 21.3135 3.44948 21.3135 3.50722C21.3135 3.68043 21.2988 3.78146 21.2695 3.81033C21.2402 3.8392 21.1377 3.85363 20.9619 3.85363H20.7422L20.9619 4.07014C20.9033 4.01241 20.8447 3.98354 20.7861 3.98354C20.7275 3.98354 20.6689 4.01241 20.6104 4.07014H19.9951C19.9365 4.07014 19.8999 4.07736 19.8853 4.09179C19.8706 4.10623 19.834 4.14231 19.7754 4.20005C19.6582 4.20005 19.541 4.20726 19.4238 4.2217C19.3066 4.23613 19.1895 4.30109 19.0723 4.41656C19.0137 4.53203 18.9258 4.6042 18.8086 4.63307C18.6914 4.66193 18.5742 4.70523 18.457 4.76297C18.3984 4.76297 18.3398 4.78462 18.2812 4.82793C18.2227 4.87123 18.1348 4.89288 18.0176 4.89288V5.02278H17.7539L18.0176 5.23929H17.7539C17.8125 5.47023 17.8638 5.61457 17.9077 5.67231C17.9517 5.73005 17.9443 5.81665 17.8857 5.93212C17.8271 5.93212 17.7759 5.91769 17.7319 5.88882C17.688 5.85995 17.666 5.87439 17.666 5.93212C17.5781 5.98986 17.5122 6.02594 17.4683 6.04037C17.4243 6.05481 17.4023 6.06203 17.4023 6.06203C17.3438 6.06203 17.3071 6.06203 17.2925 6.06203C17.2778 6.06203 17.2412 6.10533 17.1826 6.19193C17.0654 6.24967 16.9409 6.29297 16.8091 6.32184C16.6772 6.3507 16.5234 6.33627 16.3477 6.27854C16.2891 6.33627 16.2598 6.45174 16.2598 6.62495C16.2598 6.79816 16.2891 6.91363 16.3477 6.97137C16.4062 6.91363 16.4429 6.88476 16.4575 6.88476C16.4722 6.88476 16.5088 6.91363 16.5674 6.97137H16.6992C16.6992 7.0291 16.7212 7.0724 16.7651 7.10127C16.8091 7.13014 16.8311 7.17344 16.8311 7.23117V7.31778C16.7725 7.31778 16.7285 7.31778 16.6992 7.31778C16.6699 7.31778 16.626 7.28891 16.5674 7.23117C16.4795 7.1157 16.3696 7.0291 16.2378 6.97137C16.106 6.91363 15.9521 6.88476 15.7764 6.88476C15.7764 6.88476 15.7617 6.88476 15.7324 6.88476H15.6445C15.5859 6.82703 15.5273 6.79816 15.4688 6.79816C15.4102 6.79816 15.3809 6.82703 15.3809 6.88476L15.6445 7.10127V7.23117C15.5859 7.23117 15.542 7.22396 15.5127 7.20953C15.4834 7.19509 15.4395 7.15901 15.3809 7.10127H15.1611V7.31778C15.2197 7.37551 15.271 7.41882 15.3149 7.44769C15.3589 7.47655 15.3809 7.51986 15.3809 7.57759C15.3809 7.63533 15.4248 7.67141 15.5127 7.68584C15.6006 7.70028 15.6445 7.73636 15.6445 7.7941V7.924H15.5127C15.4541 7.86627 15.3735 7.81575 15.271 7.77245C15.1685 7.72915 15.0586 7.7075 14.9414 7.7075L14.8096 7.57759C14.8096 7.46212 14.8169 7.36108 14.8315 7.27448C14.8462 7.18787 14.8828 7.08684 14.9414 6.97137C15 6.91363 15 6.84146 14.9414 6.75486C14.8828 6.66825 14.7949 6.59608 14.6777 6.53835V6.75486C14.6777 6.81259 14.6704 6.88476 14.6558 6.97137C14.6411 7.05797 14.6045 7.10127 14.5459 7.10127L14.1943 7.44769C14.2529 7.50542 14.2969 7.56316 14.3262 7.62089C14.3555 7.67863 14.3994 7.7075 14.458 7.7075C14.5166 7.76523 14.5459 7.84462 14.5459 7.94566C14.5459 8.0467 14.5166 8.15495 14.458 8.27042C14.3994 8.38589 14.3628 8.49414 14.3481 8.59518C14.3335 8.69622 14.3262 8.77561 14.3262 8.83334C14.3262 8.83334 14.3335 8.855 14.3481 8.8983C14.3628 8.9416 14.3994 8.96325 14.458 8.96325H14.6777C14.8535 8.90551 14.9854 8.90551 15.0732 8.96325C15.1611 9.02098 15.2637 9.10759 15.3809 9.22306C15.4395 9.2808 15.4688 9.33853 15.4688 9.39627C15.4688 9.454 15.4395 9.51174 15.3809 9.56947C15.3223 9.62721 15.293 9.68495 15.293 9.74268C15.293 9.80042 15.3223 9.85815 15.3809 9.91589C15.3809 9.91589 15.4102 9.93032 15.4688 9.95919C15.5273 9.98806 15.5859 10.0025 15.6445 10.0025C15.5273 10.0602 15.4248 10.0458 15.3369 9.95919C15.249 9.87259 15.2344 9.74268 15.293 9.56947V9.30967C15.293 9.25193 15.271 9.21584 15.2271 9.20141C15.1831 9.18697 15.1611 9.15089 15.1611 9.09315C15.1611 9.03542 15.1392 8.99933 15.0952 8.9849C15.0513 8.97047 15 8.96325 14.9414 8.96325C14.8828 8.96325 14.8389 8.9849 14.8096 9.0282C14.7803 9.0715 14.7363 9.09315 14.6777 9.09315C14.6191 9.09315 14.5825 9.11481 14.5679 9.15811C14.5532 9.20141 14.5459 9.25193 14.5459 9.30967C14.5459 9.3674 14.5532 9.42514 14.5679 9.48287C14.5825 9.54061 14.6191 9.56947 14.6777 9.56947V9.78598C14.6191 9.90145 14.5386 10.0169 14.436 10.1324C14.3335 10.2479 14.2529 10.3633 14.1943 10.4788C14.1357 10.5365 14.0771 10.5871 14.0186 10.6304C13.96 10.6737 13.8721 10.6665 13.7549 10.6087C13.6963 10.6665 13.6157 10.6809 13.5132 10.652C13.4106 10.6232 13.3301 10.6087 13.2715 10.6087L13.1396 10.4788V10.3922H13.2715C13.3301 10.3922 13.3887 10.4066 13.4473 10.4355C13.5059 10.4644 13.5645 10.4788 13.623 10.4788C13.623 10.4788 13.645 10.4788 13.689 10.4788C13.7329 10.4788 13.7549 10.4499 13.7549 10.3922C13.8135 10.3345 13.8501 10.2695 13.8647 10.1973C13.8794 10.1252 13.916 10.0602 13.9746 10.0025L14.1064 9.91589C14.165 9.85815 14.209 9.81485 14.2383 9.78598C14.2676 9.75711 14.2529 9.68495 14.1943 9.56947V9.43957C14.2529 9.38183 14.2676 9.34575 14.2383 9.33131C14.209 9.31688 14.1943 9.2808 14.1943 9.22306V8.14051C14.1943 8.02504 14.1943 7.93122 14.1943 7.85905C14.1943 7.78688 14.165 7.69306 14.1064 7.57759C14.0479 7.51986 14.0186 7.47655 14.0186 7.44769C14.0186 7.41882 14.0479 7.37551 14.1064 7.31778C14.165 7.26004 14.1943 7.18066 14.1943 7.07962C14.1943 6.97858 14.1943 6.87033 14.1943 6.75486C14.1943 6.69712 14.1943 6.6466 14.1943 6.6033C14.1943 6.56 14.165 6.53835 14.1064 6.53835H13.623L13.2715 7.23117C13.2129 7.28891 13.1689 7.34665 13.1396 7.40438C13.1104 7.46212 13.0371 7.51986 12.9199 7.57759C12.8613 7.63533 12.8027 7.70028 12.7441 7.77245C12.6855 7.84462 12.6562 7.93844 12.6562 8.05391C12.6562 8.11165 12.6562 8.18382 12.6562 8.27042C12.6562 8.35703 12.627 8.42919 12.5684 8.48693C12.5098 8.54467 12.4951 8.6024 12.5244 8.66014C12.5537 8.71787 12.5977 8.74674 12.6562 8.74674C12.7148 8.74674 12.7588 8.76839 12.7881 8.81169C12.8174 8.855 12.8613 8.90551 12.9199 8.96325C12.9785 9.02098 13.0298 9.06429 13.0737 9.09315C13.1177 9.12202 13.1396 9.16533 13.1396 9.22306V9.30967C13.1396 9.3674 13.1177 9.4107 13.0737 9.43957C13.0298 9.46844 13.0078 9.51174 13.0078 9.56947C12.9492 9.56947 12.9199 9.54782 12.9199 9.50452C12.9199 9.46122 12.9199 9.43957 12.9199 9.43957C12.7441 9.26636 12.561 9.12202 12.3706 9.00655C12.1802 8.89108 11.9678 8.83334 11.7334 8.83334C11.6748 8.83334 11.6162 8.83334 11.5576 8.83334C11.499 8.83334 11.4697 8.80448 11.4697 8.74674C11.4111 8.74674 11.3525 8.71787 11.2939 8.66014C11.2354 8.6024 11.1475 8.54467 11.0303 8.48693H10.8984C10.8398 8.48693 10.7812 8.46528 10.7227 8.42198C10.6641 8.37867 10.6055 8.32816 10.5469 8.27042C10.4883 8.27042 10.4443 8.25599 10.415 8.22712C10.3857 8.19825 10.3418 8.21268 10.2832 8.27042C10.2832 8.32816 10.2905 8.36424 10.3052 8.37867C10.3198 8.39311 10.3564 8.42919 10.415 8.48693C10.4736 8.54467 10.5322 8.58075 10.5908 8.59518C10.6494 8.60962 10.708 8.61684 10.7666 8.61684L10.8984 8.74674C10.8984 8.80448 10.9204 8.86221 10.9644 8.91995C11.0083 8.97768 11.0303 9.03542 11.0303 9.09315C11.0303 9.15089 11.0229 9.20141 11.0083 9.24471C10.9937 9.28801 10.957 9.30967 10.8984 9.30967H10.7666V9.43957C10.708 9.43957 10.6641 9.43235 10.6348 9.41792C10.6055 9.40348 10.6201 9.3674 10.6787 9.30967C10.6787 9.25193 10.6714 9.20141 10.6567 9.15811C10.6421 9.11481 10.6055 9.09315 10.5469 9.09315H10.2832C10.166 9.20863 10.0708 9.29523 9.99756 9.35297C9.92432 9.4107 9.8291 9.43957 9.71191 9.43957C9.65332 9.43957 9.59473 9.44678 9.53613 9.46122C9.47754 9.47565 9.41895 9.51174 9.36035 9.56947C9.30176 9.62721 9.22119 9.65608 9.11865 9.65608C9.01611 9.65608 8.93555 9.62721 8.87695 9.56947H9.00879C9.00879 9.51174 9.00879 9.454 9.00879 9.39627C9.00879 9.33853 9.03809 9.2808 9.09668 9.22306C9.03809 9.22306 8.96484 9.2375 8.87695 9.26636C8.78906 9.29523 8.74512 9.39627 8.74512 9.56947C8.68652 9.56947 8.6499 9.54782 8.63525 9.50452C8.62061 9.46122 8.58398 9.43957 8.52539 9.43957C8.4668 9.49731 8.38623 9.53339 8.28369 9.54782C8.18115 9.56226 8.07129 9.59834 7.9541 9.65608C7.89551 9.71381 7.85156 9.77155 7.82227 9.82928C7.79297 9.88702 7.70508 9.91589 7.55859 9.91589C7.5 9.91589 7.44873 9.94476 7.40479 10.0025C7.36084 10.0602 7.33887 10.1468 7.33887 10.2623C7.33887 10.32 7.33154 10.3706 7.31689 10.4139C7.30225 10.4572 7.26562 10.4788 7.20703 10.4788C7.14844 10.4788 7.0752 10.4716 6.9873 10.4572C6.89941 10.4427 6.85547 10.3778 6.85547 10.2623C6.73828 10.2046 6.69434 10.1468 6.72363 10.0891C6.75293 10.0314 6.79688 9.97363 6.85547 9.91589C6.91406 9.91589 6.97266 9.89424 7.03125 9.85094C7.08984 9.80764 7.14844 9.78598 7.20703 9.78598C7.14844 9.72825 7.09717 9.67051 7.05322 9.61278C7.00928 9.55504 6.9873 9.49731 6.9873 9.43957H6.63574L6.50391 9.56947C6.50391 9.68495 6.48926 9.80042 6.45996 9.91589C6.43066 10.0314 6.41602 10.1468 6.41602 10.2623C6.5332 10.32 6.5918 10.3922 6.5918 10.4788C6.5918 10.5654 6.5625 10.7242 6.50391 10.9551C6.50391 10.9551 6.48926 10.9479 6.45996 10.9335C6.43066 10.919 6.41602 10.883 6.41602 10.8252L6.28418 10.7386C6.22559 10.7386 6.16699 10.7386 6.1084 10.7386C6.0498 10.7386 5.99121 10.7675 5.93262 10.8252L5.80078 10.9551C5.74219 10.9551 5.68359 10.984 5.625 11.0417C5.56641 11.0995 5.50781 11.1861 5.44922 11.3015V11.5181L5.58105 11.648V11.9078H5.31738C5.25879 11.9078 5.22217 11.8861 5.20752 11.8428C5.19287 11.7995 5.15625 11.7779 5.09766 11.7779C4.98047 11.7201 4.89258 11.6768 4.83398 11.648C4.77539 11.6191 4.74609 11.5758 4.74609 11.5181C4.74609 11.5181 4.72412 11.5036 4.68018 11.4748C4.63623 11.4459 4.61426 11.4603 4.61426 11.5181C4.55566 11.5181 4.51904 11.5469 4.50439 11.6047C4.48975 11.6624 4.48242 11.7201 4.48242 11.7779C4.48242 11.8356 4.51172 11.9078 4.57031 11.9944C4.62891 12.081 4.6875 12.1243 4.74609 12.1243C4.80469 12.1243 4.83398 12.1315 4.83398 12.1459C4.83398 12.1604 4.83398 12.1965 4.83398 12.2542C4.83398 12.3119 4.81201 12.3408 4.76807 12.3408C4.72412 12.3408 4.67285 12.3408 4.61426 12.3408C4.55566 12.3408 4.50439 12.3336 4.46045 12.3191C4.4165 12.3047 4.39453 12.2398 4.39453 12.1243L4.2627 11.9944C4.2041 11.9944 4.16748 11.9944 4.15283 11.9944C4.13818 11.9944 4.13086 11.9655 4.13086 11.9078V11.3015C4.13086 11.2438 4.13086 11.1716 4.13086 11.085C4.13086 10.9984 4.10156 10.9551 4.04297 10.9551C3.80859 10.8397 3.64014 10.7242 3.5376 10.6087C3.43506 10.4932 3.35449 10.3778 3.2959 10.2623L3.42773 10.3922C3.48633 10.3922 3.53027 10.4066 3.55957 10.4355C3.58887 10.4644 3.63281 10.4788 3.69141 10.4788L4.74609 10.8252C4.92188 10.883 5.07568 10.8902 5.20752 10.8469C5.33936 10.8036 5.46387 10.7242 5.58105 10.6087C5.69824 10.4932 5.75684 10.3778 5.75684 10.2623C5.75684 10.1468 5.69824 10.0602 5.58105 10.0025L5.31738 9.78598C5.25879 9.78598 5.2002 9.76433 5.1416 9.72103C5.08301 9.67773 5.02441 9.62721 4.96582 9.56947C4.84863 9.454 4.75342 9.3674 4.68018 9.30967C4.60693 9.25193 4.54102 9.22306 4.48242 9.22306C4.36523 9.16533 4.27002 9.10759 4.19678 9.04985C4.12354 8.99212 4.02832 8.91995 3.91113 8.83334H3.42773C3.42773 8.83334 3.40576 8.83334 3.36182 8.83334C3.31787 8.83334 3.2959 8.80448 3.2959 8.74674L3.55957 8.61684C3.50098 8.61684 3.44238 8.59518 3.38379 8.55188C3.3252 8.50858 3.2959 8.48693 3.2959 8.48693C3.2959 8.48693 3.27393 8.50858 3.22998 8.55188C3.18604 8.59518 3.13477 8.61684 3.07617 8.61684H2.94434C2.82715 8.67457 2.71729 8.73952 2.61475 8.81169C2.51221 8.88386 2.43164 8.97768 2.37305 9.09315C2.31445 9.20863 2.29248 9.31688 2.30713 9.41792C2.32178 9.51896 2.3877 9.59834 2.50488 9.65608C2.62207 9.71381 2.68066 9.80042 2.68066 9.91589C2.68066 10.0314 2.65137 10.1468 2.59277 10.2623C2.47559 10.2623 2.41699 10.2912 2.41699 10.3489C2.41699 10.4066 2.44629 10.4932 2.50488 10.6087C2.56348 10.6665 2.6001 10.7314 2.61475 10.8036C2.62939 10.8757 2.66602 10.9696 2.72461 11.085V11.9944C2.72461 12.0521 2.73193 12.0954 2.74658 12.1243C2.76123 12.1532 2.79785 12.1965 2.85645 12.2542C2.91504 12.3119 2.94434 12.348 2.94434 12.3624C2.94434 12.3769 2.91504 12.413 2.85645 12.4707C2.85645 12.4707 2.83447 12.4779 2.79053 12.4923C2.74658 12.5068 2.72461 12.5429 2.72461 12.6006L3.07617 12.947C3.13477 13.0048 3.16406 13.0697 3.16406 13.1419C3.16406 13.214 3.13477 13.3079 3.07617 13.4233C2.95898 13.3656 2.8418 13.38 2.72461 13.4666C2.60742 13.5532 2.49023 13.6831 2.37305 13.8564C2.31445 13.9141 2.27783 13.9718 2.26318 14.0296C2.24854 14.0873 2.21191 14.1162 2.15332 14.1162C2.21191 14.1162 2.24121 14.1306 2.24121 14.1595C2.24121 14.1883 2.24121 14.2028 2.24121 14.2028C2.24121 14.2605 2.27051 14.2966 2.3291 14.311C2.3877 14.3255 2.44629 14.3327 2.50488 14.3327C2.50488 14.3327 2.51953 14.3399 2.54883 14.3543C2.57812 14.3688 2.59277 14.4048 2.59277 14.4626C2.47559 14.4626 2.36572 14.477 2.26318 14.5059C2.16064 14.5348 2.08008 14.6358 2.02148 14.809C2.02148 14.8667 1.99951 14.9245 1.95557 14.9822C1.91162 15.0399 1.88965 15.0977 1.88965 15.1554V15.5018L1.75781 15.6317V15.8482C1.81641 15.9637 1.8457 16.0936 1.8457 16.238C1.8457 16.3823 1.94824 16.4545 2.15332 16.4545H2.24121C2.2998 16.4545 2.3584 16.4761 2.41699 16.5194C2.47559 16.5627 2.50488 16.6132 2.50488 16.671V17.0174C2.56348 17.1329 2.62207 17.2267 2.68066 17.2989C2.73926 17.371 2.79785 17.436 2.85645 17.4937C2.85645 17.4937 2.87109 17.5154 2.90039 17.5587C2.92969 17.602 2.91504 17.6236 2.85645 17.6236C2.85645 17.6236 2.82715 17.638 2.76855 17.6669C2.70996 17.6958 2.65137 17.7102 2.59277 17.7102H2.50488C2.50488 17.768 2.50488 17.8329 2.50488 17.9051C2.50488 17.9772 2.53418 18.0711 2.59277 18.1865C2.82715 18.3597 2.98828 18.4608 3.07617 18.4897C3.16406 18.5185 3.2373 18.533 3.2959 18.533C3.44238 18.4175 3.55957 18.403 3.64746 18.4897C3.73535 18.5763 3.7793 18.6773 3.7793 18.7928C3.7793 18.8505 3.80127 18.901 3.84521 18.9443C3.88916 18.9876 3.91113 19.0093 3.91113 19.0093C4.02832 19.0093 4.09424 19.0526 4.10889 19.1392C4.12354 19.2258 4.13086 19.298 4.13086 19.3557C4.18945 19.3557 4.2334 19.3773 4.2627 19.4206C4.29199 19.4639 4.33594 19.4856 4.39453 19.4856H4.48242C4.54102 19.4279 4.58496 19.4134 4.61426 19.4423C4.64355 19.4712 4.6875 19.5145 4.74609 19.5722L4.83398 19.7021C4.92188 19.7021 4.99512 19.7238 5.05371 19.7671C5.1123 19.8104 5.1709 19.832 5.22949 19.832L5.31738 19.9186C5.31738 20.0052 5.31738 20.0774 5.31738 20.1351C5.31738 20.1929 5.28809 20.2506 5.22949 20.3083V20.3949C5.22949 20.5104 5.22217 20.5826 5.20752 20.6114C5.19287 20.6403 5.15625 20.6547 5.09766 20.6547C5.03906 20.6547 4.96582 20.698 4.87793 20.7846C4.79004 20.8713 4.77539 20.9434 4.83398 21.0012H5.09766L4.74609 21.2177L4.83398 21.3476C4.83398 21.4053 4.81934 21.4558 4.79004 21.4991C4.76074 21.5424 4.74609 21.5641 4.74609 21.5641L4.48242 21.8239C4.48242 21.8816 4.50439 21.9177 4.54834 21.9321C4.59229 21.9466 4.61426 21.9827 4.61426 22.0404L5.31738 22.7332C5.37598 22.791 5.44922 22.8559 5.53711 22.9281C5.625 23.0003 5.66895 23.0941 5.66895 23.2096C5.72754 23.325 5.75684 23.4188 5.75684 23.491C5.75684 23.5632 5.69824 23.6281 5.58105 23.6859C5.52246 23.7436 5.43457 23.7725 5.31738 23.7725C5.2002 23.7725 5.08301 23.7725 4.96582 23.7725C4.79004 23.8302 4.62158 23.8158 4.46045 23.7292C4.29932 23.6426 4.16016 23.5415 4.04297 23.4261C3.92578 23.3683 3.77197 23.3395 3.58154 23.3395C3.39111 23.3395 3.2666 23.3683 3.20801 23.4261C3.09082 23.5415 2.97363 23.6281 2.85645 23.6859C2.73926 23.7436 2.62207 23.7436 2.50488 23.6859H2.37305C2.37305 23.8013 2.36572 23.8879 2.35107 23.9457C2.33643 24.0034 2.27051 24.0323 2.15332 24.0323H1.88965C1.83105 24.0323 1.77979 24.0539 1.73584 24.0972C1.69189 24.1405 1.66992 24.1911 1.66992 24.2488C1.66992 24.2488 1.68457 24.2777 1.71387 24.3354C1.74316 24.3931 1.75781 24.4509 1.75781 24.5086C1.81641 24.6241 1.82373 24.7179 1.77979 24.7901C1.73584 24.8622 1.77246 24.9561 1.88965 25.0715V25.2014C1.88965 25.2592 1.91162 25.2953 1.95557 25.3097C1.99951 25.3241 2.02148 25.3602 2.02148 25.4179C2.02148 25.4179 2.04346 25.4396 2.0874 25.4829C2.13135 25.5262 2.18262 25.5478 2.24121 25.5478C2.2998 25.5478 2.33643 25.5695 2.35107 25.6128C2.36572 25.6561 2.37305 25.6778 2.37305 25.6778L2.50488 25.7644C2.56348 25.7644 2.6001 25.7499 2.61475 25.7211C2.62939 25.6922 2.66602 25.6778 2.72461 25.6778C2.7832 25.6778 2.81982 25.6561 2.83447 25.6128C2.84912 25.5695 2.88574 25.5478 2.94434 25.5478C3.00293 25.5478 3.04688 25.5695 3.07617 25.6128C3.10547 25.6561 3.14941 25.6778 3.20801 25.6778C3.3252 25.7355 3.42041 25.7788 3.49365 25.8077C3.56689 25.8365 3.66211 25.7932 3.7793 25.6778C3.83789 25.62 3.88184 25.5912 3.91113 25.5912C3.94043 25.5912 3.98438 25.62 4.04297 25.6778H4.2627V26.4572L3.91113 27.6263C3.85254 27.7418 3.82324 27.8573 3.82324 27.9728C3.82324 28.0882 3.85254 28.2181 3.91113 28.3625C3.91113 28.4202 3.93311 28.4779 3.97705 28.5357C4.021 28.5934 4.04297 28.6511 4.04297 28.7089C3.98438 28.8821 3.96973 29.0481 3.99902 29.2069C4.02832 29.3656 4.07227 29.5027 4.13086 29.6182C4.24805 29.7914 4.34326 29.9646 4.4165 30.1378C4.48975 30.3111 4.55566 30.4843 4.61426 30.6575C4.61426 30.7152 4.63623 30.7585 4.68018 30.7874C4.72412 30.8162 4.74609 30.8595 4.74609 30.9173C4.86328 31.0327 4.95117 31.1554 5.00977 31.2853C5.06836 31.4152 5.09766 31.5668 5.09766 31.74C5.09766 31.8555 5.10498 31.971 5.11963 32.0864C5.13428 32.2019 5.2002 32.3174 5.31738 32.4328C5.37598 32.4906 5.43457 32.5555 5.49316 32.6277C5.55176 32.6999 5.61035 32.7937 5.66895 32.9092C5.66895 32.9669 5.69092 33.0246 5.73486 33.0824C5.77881 33.1401 5.80078 33.1978 5.80078 33.2556C5.85938 33.371 5.91797 33.5082 5.97656 33.6669C6.03516 33.8257 6.09375 33.9628 6.15234 34.0783C6.15234 34.1938 6.15967 34.302 6.17432 34.4031C6.18896 34.5041 6.22559 34.5835 6.28418 34.6412C6.28418 34.699 6.30615 34.7567 6.3501 34.8144C6.39404 34.8722 6.41602 34.9299 6.41602 34.9876C6.41602 35.1031 6.44531 35.1897 6.50391 35.2475C6.5625 35.3052 6.65039 35.2908 6.76758 35.2042C6.76758 35.0309 6.8335 34.9227 6.96533 34.8794C7.09717 34.8361 7.22168 34.7567 7.33887 34.6412H7.4707C7.5293 34.6412 7.58789 34.6196 7.64648 34.5763C7.70508 34.533 7.76367 34.4825 7.82227 34.4247C7.88086 34.367 7.91748 34.3093 7.93213 34.2515C7.94678 34.1938 7.9834 34.136 8.04199 34.0783C8.10059 34.0206 8.18115 33.9917 8.28369 33.9917C8.38623 33.9917 8.4668 34.0206 8.52539 34.0783C8.58398 33.8762 8.62793 33.7608 8.65723 33.7319C8.68652 33.703 8.75977 33.6597 8.87695 33.602C9.05273 33.5443 9.20654 33.4577 9.33838 33.3422C9.47021 33.2267 9.59473 33.1112 9.71191 32.9958C9.77051 32.938 9.82178 32.8803 9.86572 32.8226C9.90967 32.7648 9.93164 32.6782 9.93164 32.5627V32.3029C10.0488 32.1297 10.1514 31.9782 10.2393 31.8483C10.3271 31.7184 10.4297 31.5668 10.5469 31.3936C10.5469 31.3359 10.5249 31.2781 10.481 31.2204C10.437 31.1627 10.415 31.0905 10.415 31.0039C10.415 30.9461 10.3931 30.8956 10.3491 30.8523C10.3052 30.809 10.2539 30.7874 10.1953 30.7874C10.0781 30.7874 9.99023 30.7369 9.93164 30.6358C9.87305 30.5348 9.84375 30.4265 9.84375 30.3111C9.84375 30.1956 9.82178 30.1018 9.77783 30.0296C9.73389 29.9574 9.71191 29.8636 9.71191 29.7481C9.65332 29.8636 9.59473 29.9574 9.53613 30.0296C9.47754 30.1018 9.41895 30.1956 9.36035 30.3111C9.30176 30.4265 9.23584 30.4987 9.1626 30.5276C9.08936 30.5564 8.99414 30.5709 8.87695 30.5709H8.65723C8.59863 30.6286 8.55469 30.6358 8.52539 30.5925C8.49609 30.5492 8.45215 30.4987 8.39355 30.441V29.9646C8.39355 29.9646 8.39355 29.9502 8.39355 29.9213C8.39355 29.8925 8.36426 29.878 8.30566 29.878L8.17383 29.9646C8.17383 30.0224 8.1665 30.0657 8.15186 30.0945C8.13721 30.1234 8.10059 30.1667 8.04199 30.2244C7.9834 30.1667 7.9541 30.109 7.9541 30.0512C7.9541 29.9935 7.9541 29.9358 7.9541 29.878C7.9541 29.8203 7.94678 29.7553 7.93213 29.6832C7.91748 29.611 7.88086 29.5461 7.82227 29.4883C7.70508 29.3728 7.61719 29.2429 7.55859 29.0986C7.5 28.9543 7.4707 28.8244 7.4707 28.7089C7.41211 28.5357 7.39014 28.4274 7.40479 28.3841C7.41943 28.3408 7.51465 28.2903 7.69043 28.2326C7.80762 28.2326 7.89551 28.2398 7.9541 28.2542C8.0127 28.2686 8.04199 28.3336 8.04199 28.4491C8.10059 28.5645 8.14453 28.6656 8.17383 28.7522C8.20312 28.8388 8.24707 28.9398 8.30566 29.0553C8.30566 29.113 8.32764 29.1636 8.37158 29.2069C8.41553 29.2502 8.4668 29.2718 8.52539 29.2718L8.74512 29.4883C8.8623 29.5461 8.98682 29.6182 9.11865 29.7048C9.25049 29.7914 9.375 29.8059 9.49219 29.7481C9.66797 29.6904 9.77051 29.6687 9.7998 29.6832C9.8291 29.6976 9.87305 29.7914 9.93164 29.9646C9.93164 30.0224 9.96094 30.0729 10.0195 30.1162C10.0781 30.1595 10.1367 30.1523 10.1953 30.0945C10.2539 30.0945 10.2905 30.0729 10.3052 30.0296C10.3198 29.9863 10.3564 29.9646 10.415 29.9646C10.5322 29.9646 10.6348 29.9863 10.7227 30.0296C10.8105 30.0729 10.9131 30.0945 11.0303 30.0945C11.0889 30.1523 11.1768 30.2028 11.2939 30.2461C11.4111 30.2894 11.5576 30.2822 11.7334 30.2244C11.8506 30.2244 11.9458 30.2172 12.019 30.2028C12.0923 30.1884 12.1875 30.1523 12.3047 30.0945C12.3633 30.0945 12.4219 30.1234 12.4805 30.1811C12.5391 30.2389 12.5977 30.3255 12.6562 30.441V30.5709C12.6562 30.6286 12.6636 30.6791 12.6782 30.7224C12.6929 30.7657 12.7295 30.7874 12.7881 30.7874C12.8467 30.7874 12.8833 30.809 12.8979 30.8523C12.9126 30.8956 12.9492 30.9461 13.0078 31.0039C13.0664 31.0905 13.125 31.1554 13.1836 31.1987C13.2422 31.242 13.3154 31.2637 13.4033 31.2637H13.4912C13.4326 31.3792 13.374 31.4297 13.3154 31.4152C13.2568 31.4008 13.1982 31.4225 13.1396 31.4802C13.1982 31.5379 13.2568 31.6173 13.3154 31.7184C13.374 31.8194 13.4326 31.8988 13.4912 31.9565C13.5498 32.0143 13.6084 32.0503 13.667 32.0648C13.7256 32.0792 13.7842 32.0864 13.8428 32.0864C13.9014 32.0287 13.96 31.971 14.0186 31.9132C14.0771 31.8555 14.1064 31.7977 14.1064 31.74V31.6101C14.1064 31.7256 14.1211 31.8194 14.1504 31.8916C14.1797 31.9637 14.1943 32.0576 14.1943 32.173V32.6493C14.2529 32.8226 14.2822 32.9958 14.2822 33.169C14.2822 33.3422 14.3408 33.5154 14.458 33.6886V33.8185C14.458 33.9917 14.48 34.1649 14.5239 34.3381C14.5679 34.5113 14.6191 34.6845 14.6777 34.8577C14.7363 34.9732 14.7729 35.0743 14.7876 35.1609C14.8022 35.2475 14.8096 35.3485 14.8096 35.464C14.8682 35.6372 14.9341 35.8104 15.0073 35.9836C15.0806 36.1568 15.1758 36.33 15.293 36.5032C15.293 36.5609 15.3149 36.6187 15.3589 36.6764C15.4028 36.7342 15.4541 36.7919 15.5127 36.8496C15.5127 36.8496 15.5347 36.8496 15.5786 36.8496C15.6226 36.8496 15.6445 36.8208 15.6445 36.763C15.7031 36.6187 15.7764 36.5104 15.8643 36.4383C15.9521 36.3661 15.9961 36.2723 15.9961 36.1568V36.0269C15.9961 35.9692 16.0107 35.9331 16.04 35.9186C16.0693 35.9042 16.084 35.8681 16.084 35.8104C16.084 35.7526 16.0913 35.6733 16.106 35.5722C16.1206 35.4712 16.1572 35.3918 16.2158 35.3341C16.2158 35.2186 16.2378 35.1248 16.2817 35.0526C16.3257 34.9804 16.3477 34.8866 16.3477 34.7711V34.0783C16.3477 34.0206 16.3696 33.9845 16.4136 33.9701C16.4575 33.9556 16.4795 33.9484 16.4795 33.9484C16.5967 33.8907 16.6846 33.8041 16.7432 33.6886C16.8018 33.5731 16.8311 33.4577 16.8311 33.3422C16.8896 33.169 16.9482 33.003 17.0068 32.8442C17.0654 32.6854 17.1533 32.5483 17.2705 32.4328C17.2705 32.4328 17.2778 32.4112 17.2925 32.3679C17.3071 32.3246 17.3438 32.3029 17.4023 32.3029C17.4609 32.2452 17.5049 32.1947 17.5342 32.1514C17.5635 32.1081 17.6367 32.0864 17.7539 32.0864H18.0176C18.0176 31.9132 18.0469 31.805 18.1055 31.7617C18.1641 31.7184 18.252 31.6678 18.3691 31.6101H18.457C18.5156 31.5524 18.6108 31.5235 18.7427 31.5235C18.8745 31.5235 18.9404 31.4369 18.9404 31.2637C18.9404 31.206 18.9624 31.1771 19.0063 31.1771C19.0503 31.1771 19.0723 31.206 19.0723 31.2637C19.0723 31.3214 19.0942 31.3792 19.1382 31.4369C19.1821 31.4946 19.2041 31.5524 19.2041 31.6101C19.2041 31.7256 19.2261 31.8338 19.27 31.9349C19.314 32.0359 19.3652 32.1153 19.4238 32.173L19.5557 32.3029C19.6729 32.4761 19.7388 32.6782 19.7534 32.9092C19.7681 33.1401 19.7754 33.371 19.7754 33.602C19.7754 33.6597 19.7827 33.7102 19.7974 33.7535C19.812 33.7968 19.8486 33.8185 19.9072 33.8185C19.9658 33.8185 20.0024 33.8113 20.0171 33.7968C20.0317 33.7824 20.0684 33.7463 20.127 33.6886C20.1855 33.6309 20.2222 33.5731 20.2368 33.5154C20.2515 33.4577 20.2881 33.3999 20.3467 33.3422C20.4346 33.4577 20.5005 33.5803 20.5444 33.7102C20.5884 33.8401 20.6104 33.9628 20.6104 34.0783C20.6104 34.1938 20.6323 34.302 20.6763 34.4031C20.7202 34.5041 20.7422 34.5835 20.7422 34.6412C20.7422 34.699 20.7568 34.7639 20.7861 34.8361C20.8154 34.9083 20.8301 35.0021 20.8301 35.1176V36.0269C20.8301 36.0846 20.8301 36.1496 20.8301 36.2218C20.8301 36.2939 20.8008 36.3877 20.7422 36.5032C20.7422 36.5609 20.7422 36.6042 20.7422 36.6331C20.7422 36.662 20.7715 36.7053 20.8301 36.763C20.9473 36.8785 21.0425 37.0012 21.1157 37.1311C21.189 37.261 21.2549 37.4414 21.3135 37.6724C21.3135 37.7878 21.3354 37.9033 21.3794 38.0188C21.4233 38.1342 21.4453 38.2209 21.4453 38.2786C21.4453 38.3363 21.46 38.3941 21.4893 38.4518C21.5186 38.5095 21.5332 38.5673 21.5332 38.625C21.5918 38.7982 21.7017 38.9281 21.8628 39.0147C22.0239 39.1013 22.1631 39.2024 22.2803 39.3178C22.2803 39.2601 22.2729 39.2168 22.2583 39.1879C22.2437 39.1591 22.207 39.1158 22.1484 39.058C22.0898 38.9425 22.0386 38.8271 21.9946 38.7116C21.9507 38.5961 21.958 38.4518 22.0166 38.2786V38.1487C22.0166 38.0909 22.0166 38.0332 22.0166 37.9755C22.0166 37.9177 21.9873 37.8889 21.9287 37.8889C21.8701 37.8311 21.8262 37.7734 21.7969 37.7157C21.7676 37.6579 21.7236 37.6002 21.665 37.5425C21.6064 37.4847 21.5698 37.4342 21.5552 37.3909C21.5405 37.3476 21.5039 37.3259 21.4453 37.3259C21.3281 37.2682 21.2549 37.2033 21.2256 37.1311C21.1963 37.0589 21.1816 36.9651 21.1816 36.8496C21.1816 36.7919 21.1816 36.7125 21.1816 36.6115C21.1816 36.5104 21.1523 36.431 21.0938 36.3733C20.9766 36.3156 20.9253 36.2578 20.9399 36.2001C20.9546 36.1424 20.9619 36.0558 20.9619 35.9403C21.0205 35.7671 21.0571 35.5867 21.0718 35.399C21.0864 35.2114 21.0938 35.0309 21.0938 34.8577C21.0938 34.8 21.1084 34.7711 21.1377 34.7711C21.167 34.7711 21.1816 34.7711 21.1816 34.7711C21.2402 34.8289 21.2988 34.865 21.3574 34.8794C21.416 34.8938 21.4746 34.9299 21.5332 34.9876L21.7969 35.2042C21.7969 35.2908 21.8188 35.3413 21.8628 35.3557C21.9067 35.3701 21.9287 35.4062 21.9287 35.464C21.9287 35.5217 21.9287 35.5722 21.9287 35.6155C21.9287 35.6588 21.958 35.6805 22.0166 35.6805C22.0166 35.7382 22.0386 35.7959 22.0825 35.8537C22.1265 35.9114 22.1484 35.9403 22.1484 35.9403C22.2656 35.8826 22.3389 35.8898 22.3682 35.9619C22.3975 36.0341 22.4414 36.0991 22.5 36.1568C22.5 36.2145 22.478 36.2723 22.4341 36.33C22.3901 36.3877 22.3682 36.4455 22.3682 36.5032L22.5 36.3733C22.5586 36.3733 22.6099 36.3517 22.6538 36.3084C22.6978 36.2651 22.7197 36.2145 22.7197 36.1568C22.7783 36.0991 22.8223 36.0341 22.8516 35.9619C22.8809 35.8898 22.9541 35.8826 23.0713 35.9403L23.2031 35.8104C23.2031 35.6949 23.2324 35.6083 23.291 35.5506C23.3496 35.4928 23.4082 35.464 23.4668 35.464V34.4247C23.4668 34.3093 23.4375 34.1938 23.3789 34.0783C23.3203 33.9628 23.2617 33.8762 23.2031 33.8185C23.1445 33.703 23.064 33.6092 22.9614 33.537C22.8589 33.4649 22.7783 33.371 22.7197 33.2556C22.6611 33.1978 22.6245 33.1112 22.6099 32.9958C22.5952 32.8803 22.5586 32.7648 22.5 32.6493C22.4414 32.5339 22.4634 32.4184 22.5659 32.3029C22.6685 32.1875 22.7197 32.072 22.7197 31.9565H22.8516C22.8516 31.9565 22.8735 31.9493 22.9175 31.9349C22.9614 31.9204 22.9834 31.8844 22.9834 31.8266L23.2031 31.6101H23.335C23.335 31.6101 23.3423 31.6318 23.3569 31.6751C23.3716 31.7184 23.4082 31.74 23.4668 31.74L23.5547 31.6101C23.6133 31.7256 23.6206 31.8338 23.5767 31.9349C23.5327 32.0359 23.5693 32.1153 23.6865 32.173C23.6865 32.0576 23.7085 31.971 23.7524 31.9132C23.7964 31.8555 23.8477 31.7977 23.9062 31.74C24.0234 31.6823 24.126 31.6029 24.2139 31.5019C24.3018 31.4008 24.4043 31.3214 24.5215 31.2637H24.6533C24.7119 31.3214 24.7705 31.3286 24.8291 31.2853C24.8877 31.242 24.9463 31.1915 25.0049 31.1338C25.0635 31.076 25.1221 31.0039 25.1807 30.9173C25.2393 30.8307 25.3271 30.7874 25.4443 30.7874H25.5762C25.6934 30.7296 25.7812 30.6647 25.8398 30.5925C25.8984 30.5203 25.9277 30.3977 25.9277 30.2244V29.9646C25.9277 29.8492 25.957 29.7409 26.0156 29.6399C26.0742 29.5388 26.1621 29.4594 26.2793 29.4017C26.3379 29.4017 26.3965 29.3728 26.4551 29.3151C26.5137 29.2574 26.543 29.1996 26.543 29.1419L26.6309 29.0553C26.6309 28.9976 26.6528 28.9543 26.6968 28.9254C26.7407 28.8965 26.7627 28.8532 26.7627 28.7955C26.7627 28.68 26.77 28.5934 26.7847 28.5357C26.7993 28.4779 26.8359 28.4202 26.8945 28.3625L26.4111 28.2326L26.7627 27.9728L26.4111 27.5397L26.7627 27.6263C26.7627 27.5686 26.7407 27.5325 26.6968 27.5181C26.6528 27.5036 26.6309 27.4676 26.6309 27.4098L26.543 27.2799C26.4844 27.1645 26.4404 27.0706 26.4111 26.9985C26.3818 26.9263 26.3379 26.8325 26.2793 26.717C26.2793 26.6593 26.2646 26.616 26.2354 26.5871C26.2061 26.5582 26.1914 26.5149 26.1914 26.4572C26.1328 26.3995 26.1035 26.3417 26.1035 26.284C26.1035 26.2262 26.1328 26.1685 26.1914 26.1108L26.2793 26.0242C26.3379 25.9087 26.4258 25.8004 26.543 25.6994C26.6602 25.5984 26.7773 25.5478 26.8945 25.5478L26.9824 25.4179C26.9824 25.3602 26.9678 25.3241 26.9385 25.3097C26.9092 25.2953 26.8945 25.288 26.8945 25.288C26.8359 25.288 26.792 25.288 26.7627 25.288C26.7334 25.288 26.6895 25.2592 26.6309 25.2014C26.5723 25.1437 26.5356 25.1148 26.521 25.1148C26.5063 25.1148 26.4697 25.1437 26.4111 25.2014C26.4111 25.2014 26.4038 25.2159 26.3892 25.2447C26.3745 25.2736 26.3379 25.288 26.2793 25.288C26.2207 25.288 26.1841 25.3097 26.1694 25.353C26.1548 25.3963 26.1182 25.4179 26.0596 25.4179C26.0596 25.3602 26.0376 25.3241 25.9937 25.3097C25.9497 25.2953 25.9277 25.2592 25.9277 25.2014C25.9277 25.086 25.9204 25.0138 25.9058 24.9849C25.8911 24.9561 25.8252 24.9416 25.708 24.9416C25.6494 24.9416 25.5908 24.9344 25.5322 24.92C25.4736 24.9055 25.4443 24.8406 25.4443 24.7251C25.4443 24.6096 25.4736 24.5447 25.5322 24.5303C25.5908 24.5158 25.6494 24.5086 25.708 24.5086C25.7666 24.5086 25.8032 24.5014 25.8179 24.487C25.8325 24.4725 25.8691 24.4364 25.9277 24.3787C25.9863 24.321 26.0303 24.2632 26.0596 24.2055C26.0889 24.1478 26.1328 24.1189 26.1914 24.1189L26.2793 24.0323C26.2793 23.9746 26.3013 23.9312 26.3452 23.9024C26.3892 23.8735 26.4111 23.8302 26.4111 23.7725C26.4697 23.7147 26.521 23.6859 26.5649 23.6859C26.6089 23.6859 26.6309 23.7147 26.6309 23.7725C26.6895 23.8302 26.7041 23.8879 26.6748 23.9457C26.6455 24.0034 26.6309 24.0323 26.6309 24.0323C26.5723 24.09 26.5356 24.1694 26.521 24.2704C26.5063 24.3715 26.4697 24.4797 26.4111 24.5952C26.4697 24.5952 26.5063 24.5808 26.521 24.5519C26.5356 24.523 26.5723 24.5086 26.6309 24.5086C26.6895 24.4509 26.7554 24.3931 26.8286 24.3354C26.9019 24.2777 26.9971 24.2055 27.1143 24.1189C27.1729 24.0612 27.2461 24.0539 27.334 24.0972C27.4219 24.1405 27.4658 24.1911 27.4658 24.2488C27.5244 24.3065 27.5391 24.3643 27.5098 24.422C27.4805 24.4797 27.4219 24.5375 27.334 24.5952C27.2754 24.6529 27.2461 24.7107 27.2461 24.7684C27.2461 24.8262 27.2754 24.8839 27.334 24.9416C27.4219 24.9416 27.4878 24.9272 27.5317 24.8983C27.5757 24.8695 27.5977 24.8839 27.5977 24.9416C27.6562 24.9994 27.6929 25.0571 27.7075 25.1148C27.7222 25.1726 27.7588 25.2303 27.8174 25.288C27.7588 25.288 27.7295 25.3169 27.7295 25.3746C27.7295 25.4324 27.7295 25.4901 27.7295 25.5478V25.8943C27.6709 25.952 27.6562 26.0314 27.6855 26.1324C27.7148 26.2335 27.7295 26.3128 27.7295 26.3706C27.8467 26.3128 27.9419 26.2335 28.0151 26.1324C28.0884 26.0314 28.1836 25.952 28.3008 25.8943H28.4326C28.4912 25.8943 28.5205 25.887 28.5205 25.8726C28.5205 25.8582 28.5205 25.7932 28.5205 25.6778C28.5205 25.62 28.5205 25.5551 28.5205 25.4829C28.5205 25.4107 28.4912 25.3458 28.4326 25.288C28.4326 25.2303 28.4253 25.1942 28.4106 25.1798C28.396 25.1653 28.3594 25.1293 28.3008 25.0715C28.2422 24.9561 28.1689 24.855 28.0811 24.7684C27.9932 24.6818 27.9492 24.5519 27.9492 24.3787C27.9492 24.321 27.9419 24.2849 27.9272 24.2704C27.9126 24.256 27.876 24.2488 27.8174 24.2488C27.7588 24.1911 27.7295 24.1405 27.7295 24.0972C27.7295 24.0539 27.7588 24.0323 27.8174 24.0323C27.876 23.9746 27.9199 23.9168 27.9492 23.8591C27.9785 23.8013 28.0225 23.7436 28.0811 23.6859C28.1396 23.6281 28.1763 23.5704 28.1909 23.5127C28.2056 23.4549 28.2422 23.4261 28.3008 23.4261C28.3008 23.4261 28.3228 23.4261 28.3667 23.4261C28.4106 23.4261 28.4326 23.3972 28.4326 23.3395C28.4326 23.1662 28.4766 23.0363 28.5645 22.9497C28.6523 22.8631 28.7695 22.7477 28.916 22.6033C28.9746 22.5456 29.0332 22.5167 29.0918 22.5167C29.1504 22.5167 29.209 22.5456 29.2676 22.6033C29.3262 22.6611 29.3774 22.6899 29.4214 22.6899C29.4653 22.6899 29.4873 22.6611 29.4873 22.6033C29.4873 22.5456 29.5532 22.4879 29.6851 22.4301C29.8169 22.3724 29.9121 22.2858 29.9707 22.1703C30.1465 21.9394 30.3149 21.6796 30.4761 21.3909C30.6372 21.1022 30.7764 20.8135 30.8936 20.5248C31.0107 20.2939 31.106 20.0774 31.1792 19.8753C31.2524 19.6732 31.3184 19.4279 31.377 19.1392C31.377 19.0237 31.3843 18.901 31.3989 18.7711C31.4136 18.6412 31.4502 18.5185 31.5088 18.403C31.5674 18.2876 31.582 18.1938 31.5527 18.1216C31.5234 18.0494 31.5088 17.9556 31.5088 17.8401C31.5088 17.7824 31.4795 17.703 31.4209 17.602C31.3623 17.5009 31.3037 17.4215 31.2451 17.3638V17.2772C31.1865 17.1329 31.1279 17.0607 31.0693 17.0607C31.0107 17.0607 30.9521 17.0896 30.8936 17.1473L30.6738 17.3638C30.6738 17.3638 30.6519 17.371 30.6079 17.3855C30.564 17.3999 30.542 17.436 30.542 17.4937V17.0174C30.4834 17.0751 30.4541 17.1329 30.4541 17.1906C30.4541 17.2483 30.4541 17.2772 30.4541 17.2772V16.8875H30.0586V16.8009C30.0586 16.7431 30.0806 16.6998 30.1245 16.671C30.1685 16.6421 30.1904 16.5988 30.1904 16.5411C30.1904 16.4256 30.2197 16.339 30.2783 16.2813C30.3369 16.2235 30.4248 16.1947 30.542 16.1947C30.542 16.0214 30.5566 15.8988 30.5859 15.8266C30.6152 15.7544 30.6885 15.6895 30.8057 15.6317C30.9229 15.5163 31.04 15.3791 31.1572 15.2204C31.2744 15.0616 31.3916 14.9245 31.5088 14.809C31.5674 14.7513 31.6333 14.6791 31.7065 14.5925C31.7798 14.5059 31.875 14.4626 31.9922 14.4626H33.0469C33.1055 14.4048 33.186 14.376 33.2886 14.376C33.3911 14.376 33.4717 14.4048 33.5303 14.4626H33.6182C33.6768 14.4048 33.7354 14.3688 33.7939 14.3543C33.8525 14.3399 33.9111 14.3327 33.9697 14.3327H34.1016C34.1602 14.3327 34.2114 14.3543 34.2554 14.3976C34.2993 14.4409 34.3213 14.4626 34.3213 14.4626L34.2334 14.5925V14.6791H34.4531C34.5117 14.6791 34.5703 14.6647 34.6289 14.6358C34.6875 14.6069 34.7461 14.5925 34.8047 14.5925C34.9219 14.6502 35.0244 14.643 35.1123 14.5708C35.2002 14.4987 35.3027 14.4626 35.4199 14.4626C35.3613 14.4626 35.3247 14.4409 35.3101 14.3976C35.2954 14.3543 35.2881 14.3327 35.2881 14.3327C35.2295 14.3327 35.1929 14.311 35.1782 14.2677C35.1636 14.2244 35.1562 14.1739 35.1562 14.1162C35.2148 14.0007 35.2808 13.8852 35.354 13.7698C35.4272 13.6543 35.5225 13.5677 35.6396 13.5099C35.6982 13.5099 35.7349 13.4883 35.7495 13.445C35.7642 13.4017 35.7715 13.3512 35.7715 13.2934C35.7715 13.2357 35.7935 13.178 35.8374 13.1202C35.8813 13.0625 35.9326 13.0336 35.9912 13.0336H36.2549C36.3135 13.0336 36.3647 13.0264 36.4087 13.012C36.4526 12.9975 36.4746 13.0481 36.4746 13.1635L36.6064 13.0336L36.4746 13.5099L36.6064 13.6398L36.6943 13.5099C36.7529 13.4522 36.8188 13.38 36.8921 13.2934C36.9653 13.2068 37.0605 13.1635 37.1777 13.1635V12.8171C37.1777 12.7016 37.2437 12.6223 37.3755 12.579C37.5073 12.5357 37.6025 12.5717 37.6611 12.6872C37.5439 12.6872 37.478 12.7161 37.4634 12.7738C37.4487 12.8315 37.4414 12.8893 37.4414 12.947V13.2934C37.3828 13.3512 37.3389 13.4233 37.3096 13.5099C37.2803 13.5965 37.2363 13.6398 37.1777 13.6398C37.1191 13.6398 37.0825 13.6615 37.0679 13.7048C37.0532 13.7481 37.0166 13.7698 36.958 13.7698C36.958 13.7698 36.936 13.7914 36.8921 13.8347C36.8481 13.878 36.8262 13.9285 36.8262 13.9863C36.7676 14.1017 36.687 14.1956 36.5845 14.2677C36.4819 14.3399 36.4014 14.4481 36.3428 14.5925C36.2256 14.7657 36.1011 14.91 35.9692 15.0255C35.8374 15.141 35.6836 15.2276 35.5078 15.2853C35.5078 15.3431 35.4932 15.4008 35.4639 15.4585C35.4346 15.5163 35.4199 15.574 35.4199 15.6317V15.8482C35.4785 15.906 35.5078 15.9637 35.5078 16.0214C35.5078 16.0792 35.5078 16.1369 35.5078 16.1947C35.4492 16.4256 35.4199 16.6638 35.4199 16.9091C35.4199 17.1545 35.4199 17.3927 35.4199 17.6236C35.4199 17.7968 35.4053 17.9845 35.376 18.1865C35.3467 18.3886 35.3906 18.5907 35.5078 18.7928C35.625 18.6484 35.7202 18.5185 35.7935 18.403C35.8667 18.2876 35.9326 18.1721 35.9912 18.0566C35.9912 17.9412 36.0205 17.8546 36.0791 17.7968C36.1377 17.7391 36.1963 17.7102 36.2549 17.7102C36.3135 17.6525 36.3428 17.6164 36.3428 17.602C36.3428 17.5875 36.3428 17.5514 36.3428 17.4937C36.2842 17.2628 36.2842 17.0968 36.3428 16.9957C36.4014 16.8947 36.5186 16.7864 36.6943 16.671L36.8262 16.5411C36.8848 16.4833 36.9287 16.4328 36.958 16.3895C36.9873 16.3462 37.0605 16.3246 37.1777 16.3246H37.3096V16.1947C37.251 16.0792 37.2217 16.007 37.2217 15.9781C37.2217 15.9493 37.251 15.8627 37.3096 15.7183C37.3096 15.7183 37.3169 15.7039 37.3315 15.675C37.3462 15.6462 37.3828 15.6317 37.4414 15.6317H37.1777C37.1191 15.6317 37.0679 15.6029 37.0239 15.5451C36.98 15.4874 36.9873 15.4297 37.0459 15.3719C37.0459 15.3142 37.0679 15.2564 37.1118 15.1987C37.1558 15.141 37.1777 15.0832 37.1777 15.0255C37.1777 14.9678 37.1997 14.9317 37.2437 14.9173C37.2876 14.9028 37.3096 14.8667 37.3096 14.809C37.3096 14.7513 37.3315 14.7007 37.3755 14.6574C37.4194 14.6141 37.4414 14.5925 37.4414 14.5925C37.5 14.4481 37.5586 14.376 37.6172 14.376C37.6758 14.376 37.7344 14.4048 37.793 14.4626L38.0127 14.1162C38.0713 14.2316 38.1299 14.2966 38.1885 14.311C38.2471 14.3255 38.3057 14.3327 38.3643 14.3327C38.4814 14.2172 38.5986 14.1595 38.7158 14.1595C38.833 14.1595 38.9502 14.2172 39.0674 14.3327C39.126 14.2749 39.2139 14.1956 39.3311 14.0945C39.4482 13.9935 39.5654 13.9141 39.6826 13.8564C39.7998 13.7409 39.917 13.6543 40.0342 13.5965C40.1514 13.5388 40.2686 13.4811 40.3857 13.4233C40.5029 13.3656 40.6348 13.3151 40.7812 13.2718C40.9277 13.2285 41.0303 13.1202 41.0889 12.947C41.1475 12.947 41.2061 12.9615 41.2646 12.9903C41.3232 13.0192 41.3818 13.0336 41.4404 13.0336C41.499 13.0336 41.5576 13.0264 41.6162 13.012C41.6748 12.9975 41.7041 12.9326 41.7041 12.8171C41.5869 12.8171 41.4917 12.7666 41.4185 12.6656C41.3452 12.5645 41.2793 12.4563 41.2207 12.3408C41.1621 12.2253 41.1108 12.1315 41.0669 12.0593C41.0229 11.9872 41.0303 11.8933 41.0889 11.7779C41.0303 11.7779 40.9937 11.7707 40.979 11.7562C40.9644 11.7418 40.9277 11.7057 40.8691 11.648V11.5181H41.2207C41.2793 11.4026 41.3599 11.3521 41.4624 11.3665C41.5649 11.3809 41.6455 11.3593 41.7041 11.3015C42.1729 11.417 42.4438 11.4603 42.5171 11.4315C42.5903 11.4026 42.627 11.3593 42.627 11.3015C42.5684 11.2438 42.5391 11.1933 42.5391 11.15C42.5391 11.1067 42.5684 11.085 42.627 11.085C42.6855 11.085 42.7222 11.0634 42.7368 11.0201C42.7515 10.9768 42.7881 10.9551 42.8467 10.9551C42.7881 11.0706 42.7588 11.1644 42.7588 11.2366C42.7588 11.3088 42.7881 11.3737 42.8467 11.4315C42.9346 11.4892 43.0078 11.5036 43.0664 11.4748C43.125 11.4459 43.1836 11.4315 43.2422 11.4315C43.3008 11.4315 43.374 11.4531 43.4619 11.4964C43.5498 11.5397 43.5938 11.5902 43.5938 11.648C43.5938 11.7057 43.6084 11.7418 43.6377 11.7562C43.667 11.7707 43.6816 11.7779 43.6816 11.7779C43.7402 11.8356 43.7988 11.8717 43.8574 11.8861C43.916 11.9006 43.9746 11.9366 44.0332 11.9944C44.0918 12.0521 44.1577 12.1026 44.231 12.1459C44.3042 12.1892 44.3701 12.182 44.4287 12.1243L44.2969 11.9944H44.4287V11.4315L44.7803 11.5181L44.6484 11.4315L44.8682 11.5181L45.1318 11.085ZM33.8818 43.1717C33.8818 43.1717 33.8599 43.1428 33.8159 43.0851C33.772 43.0274 33.75 42.9696 33.75 42.9119C33.75 42.8541 33.7427 42.7964 33.728 42.7387C33.7134 42.6809 33.6768 42.6232 33.6182 42.5655C33.6182 42.5655 33.6182 42.551 33.6182 42.5222C33.6182 42.4933 33.5889 42.4789 33.5303 42.4789L33.75 42.349C33.75 42.2912 33.728 42.2335 33.6841 42.1758C33.6401 42.118 33.6182 42.0891 33.6182 42.0891C33.5596 42.0314 33.5083 42.0025 33.4644 42.0025C33.4204 42.0025 33.3984 42.0025 33.3984 42.0025C33.3398 41.9448 33.2886 41.9015 33.2446 41.8726C33.2007 41.8438 33.1787 41.8005 33.1787 41.7427C33.1201 41.685 33.0542 41.6128 32.981 41.5262C32.9077 41.4396 32.8418 41.3675 32.7832 41.3097L32.0801 40.9633C32.0215 40.9056 31.9482 40.8623 31.8604 40.8334C31.7725 40.8045 31.6846 40.7612 31.5967 40.7035C31.5381 40.7035 31.4795 40.6963 31.4209 40.6818C31.3623 40.6674 31.3037 40.6025 31.2451 40.487C31.1865 40.4292 31.1279 40.3932 31.0693 40.3787C31.0107 40.3643 30.9521 40.3571 30.8936 40.3571C30.835 40.4725 30.7617 40.5736 30.6738 40.6602C30.5859 40.7468 30.5127 40.8478 30.4541 40.9633C30.3955 41.021 30.3369 41.0427 30.2783 41.0283C30.2197 41.0138 30.1904 40.9489 30.1904 40.8334C30.1904 40.7179 30.1685 40.6169 30.1245 40.5303C30.0806 40.4437 30.0586 40.3426 30.0586 40.2272C30.0586 40.1694 30.0586 40.1189 30.0586 40.0756C30.0586 40.0323 30.0293 40.0107 29.9707 40.0107C29.9121 39.9529 29.8315 39.9168 29.729 39.9024C29.6265 39.888 29.5459 39.8808 29.4873 39.8808C29.4287 39.8808 29.3701 39.9241 29.3115 40.0107C29.2529 40.0973 29.1943 40.1694 29.1357 40.2272C29.1943 40.2849 29.2456 40.3282 29.2896 40.3571C29.3335 40.3859 29.3555 40.4292 29.3555 40.487C29.3555 40.5447 29.3848 40.588 29.4434 40.6169C29.502 40.6458 29.5605 40.6313 29.6191 40.5736H29.8389L29.9707 40.7035H29.8389C29.7803 40.7035 29.7144 40.7107 29.6411 40.7251C29.5679 40.7396 29.4727 40.7757 29.3555 40.8334C29.4141 40.8911 29.4507 40.9416 29.4653 40.985C29.48 41.0283 29.4873 41.0499 29.4873 41.0499C29.4873 41.0499 29.5093 41.0788 29.5532 41.1365C29.5972 41.1942 29.6191 41.252 29.6191 41.3097L29.707 41.1798C29.7656 41.2375 29.8242 41.2736 29.8828 41.2881C29.9414 41.3025 30 41.3386 30.0586 41.3963L30.1904 41.5262C30.3076 41.584 30.4248 41.62 30.542 41.6345C30.6592 41.6489 30.7764 41.685 30.8936 41.7427C30.9521 41.7427 30.9888 41.7716 31.0034 41.8293C31.0181 41.8871 31.0254 41.9448 31.0254 42.0025C31.0254 42.0603 31.0474 42.118 31.0913 42.1758C31.1353 42.2335 31.1572 42.2912 31.1572 42.349C31.1572 42.4067 31.1499 42.4428 31.1353 42.4572C31.1206 42.4716 31.084 42.5077 31.0254 42.5655C30.9668 42.5655 30.9302 42.5871 30.9155 42.6304C30.9009 42.6737 30.8643 42.6954 30.8057 42.6954C30.7471 42.7531 30.7324 42.8036 30.7617 42.8469C30.791 42.8902 30.835 42.883 30.8936 42.8253H31.2451C31.3037 42.8253 31.3477 42.8253 31.377 42.8253C31.4062 42.8253 31.4502 42.8541 31.5088 42.9119C31.5674 42.9696 31.604 43.0274 31.6187 43.0851C31.6333 43.1428 31.6699 43.1717 31.7285 43.1717C31.7871 43.1717 31.8677 43.1861 31.9702 43.215C32.0728 43.2439 32.1533 43.2294 32.2119 43.1717C32.2705 43.114 32.3071 43.0562 32.3218 42.9985C32.3364 42.9408 32.373 42.883 32.4316 42.8253C32.4902 42.7675 32.5342 42.7315 32.5635 42.717C32.5928 42.7026 32.666 42.6954 32.7832 42.6954C32.9004 42.7531 33.0176 42.8397 33.1348 42.9552C33.252 43.0707 33.3398 43.215 33.3984 43.3882C33.457 43.4459 33.4937 43.5037 33.5083 43.5614C33.5229 43.6191 33.5596 43.648 33.6182 43.648C33.6768 43.648 33.7427 43.6624 33.8159 43.6913C33.8892 43.7202 33.9844 43.7346 34.1016 43.7346H34.3213C34.3213 43.7346 34.3213 43.7202 34.3213 43.6913C34.3213 43.6624 34.292 43.648 34.2334 43.648C34.1748 43.5903 34.1309 43.5109 34.1016 43.4099C34.0723 43.3088 33.999 43.2294 33.8818 43.1717ZM25.4443 40.487C25.4443 40.4292 25.4663 40.3643 25.5103 40.2921C25.5542 40.22 25.5762 40.1261 25.5762 40.0107C25.5762 39.8952 25.5981 39.8086 25.6421 39.7508C25.686 39.6931 25.7373 39.6642 25.7959 39.6642C25.8545 39.6642 25.8911 39.6426 25.9058 39.5993C25.9204 39.556 25.9277 39.5343 25.9277 39.5343C25.9277 39.4766 25.9058 39.4405 25.8618 39.4261C25.8179 39.4117 25.7959 39.3756 25.7959 39.3178C25.7959 39.2601 25.7812 39.224 25.752 39.2096C25.7227 39.1951 25.708 39.1879 25.708 39.1879C25.708 39.0725 25.6714 38.9786 25.5981 38.9065C25.5249 38.8343 25.5176 38.7405 25.5762 38.625C25.5762 38.625 25.5835 38.5961 25.5981 38.5384C25.6128 38.4807 25.6494 38.4229 25.708 38.3652C25.708 38.3075 25.7227 38.2786 25.752 38.2786C25.7812 38.2786 25.7959 38.2786 25.7959 38.2786C25.7959 38.2209 25.8179 38.1848 25.8618 38.1703C25.9058 38.1559 25.9277 38.1487 25.9277 38.1487L26.0596 38.0188C26.0596 37.961 26.0522 37.925 26.0376 37.9105C26.0229 37.8961 25.9863 37.8889 25.9277 37.8889H25.7959C25.7373 37.8889 25.686 37.8889 25.6421 37.8889C25.5981 37.8889 25.5762 37.86 25.5762 37.8023C25.5762 37.7445 25.5542 37.7012 25.5103 37.6724C25.4663 37.6435 25.415 37.6002 25.3564 37.5425C25.3564 37.5425 25.3345 37.5713 25.2905 37.6291C25.2466 37.6868 25.2246 37.7445 25.2246 37.8023C25.166 37.9177 25.1074 38.026 25.0488 38.127C24.9902 38.2281 24.9316 38.3075 24.873 38.3652C24.7559 38.3075 24.6899 38.2858 24.6753 38.3002C24.6606 38.3147 24.6533 38.3796 24.6533 38.4951C24.6533 38.5528 24.6313 38.5889 24.5874 38.6034C24.5435 38.6178 24.5215 38.6539 24.5215 38.7116C24.5215 38.8271 24.4922 38.9137 24.4336 38.9714C24.375 39.0292 24.2871 39.058 24.1699 39.058C24.1113 39.058 24.0527 39.0725 23.9941 39.1013C23.9355 39.1302 23.9062 39.2024 23.9062 39.3178V39.4477C23.9062 39.5632 23.8989 39.6209 23.8843 39.6209C23.8696 39.6209 23.8037 39.5921 23.6865 39.5343H23.5547C23.4961 39.4766 23.4375 39.455 23.3789 39.4694C23.3203 39.4838 23.2617 39.5488 23.2031 39.6642V40.0107C23.2031 40.0684 23.2104 40.1045 23.2251 40.1189C23.2397 40.1333 23.2764 40.1694 23.335 40.2272C23.335 40.2849 23.3423 40.3426 23.3569 40.4004C23.3716 40.4581 23.4082 40.487 23.4668 40.487C23.5254 40.5447 23.5767 40.6241 23.6206 40.7251C23.6646 40.8262 23.6865 40.9344 23.6865 41.0499V41.1798C23.6865 41.2375 23.7085 41.2881 23.7524 41.3314C23.7964 41.3747 23.8477 41.3675 23.9062 41.3097H24.0381C24.0967 41.3675 24.1333 41.3963 24.1479 41.3963C24.1626 41.3963 24.1992 41.3963 24.2578 41.3963C24.3164 41.3386 24.397 41.3314 24.4995 41.3747C24.6021 41.418 24.6826 41.4685 24.7412 41.5262C24.7998 41.584 24.8438 41.6128 24.873 41.6128C24.9023 41.6128 24.9463 41.584 25.0049 41.5262C25.1221 41.4685 25.188 41.4035 25.2026 41.3314C25.2173 41.2592 25.2246 41.1654 25.2246 41.0499C25.2832 40.8767 25.3198 40.754 25.3345 40.6818C25.3491 40.6097 25.3857 40.5447 25.4443 40.487ZM8.87695 7.7075V7.44769C8.93555 7.44769 8.98682 7.47655 9.03076 7.53429C9.07471 7.59203 9.09668 7.64976 9.09668 7.7075C9.09668 7.82297 9.11865 7.88792 9.1626 7.90236C9.20654 7.91679 9.22852 7.924 9.22852 7.924C9.3457 7.98174 9.46289 8.01783 9.58008 8.03226C9.69727 8.0467 9.78516 8.05391 9.84375 8.05391H10.0635C10.0635 7.99617 10.0415 7.95287 9.99756 7.924C9.95361 7.89514 9.93164 7.85184 9.93164 7.7941C9.87305 7.73636 9.81445 7.67863 9.75586 7.62089C9.69727 7.56316 9.63867 7.46212 9.58008 7.31778C9.52148 7.20231 9.49951 7.10849 9.51416 7.03632C9.52881 6.96415 9.59473 6.87033 9.71191 6.75486V6.62495C9.71191 6.56721 9.73389 6.5167 9.77783 6.47339C9.82178 6.43009 9.84375 6.40844 9.84375 6.40844C9.90234 6.3507 9.93164 6.3074 9.93164 6.27854C9.93164 6.24967 9.90234 6.1775 9.84375 6.06203C9.84375 6.00429 9.84375 5.9249 9.84375 5.82387C9.84375 5.72283 9.87305 5.64344 9.93164 5.58571C9.99023 5.52797 10.0708 5.47023 10.1733 5.4125C10.2759 5.35476 10.3564 5.29703 10.415 5.23929C10.5322 5.23929 10.6274 5.23207 10.7007 5.21764C10.7739 5.20321 10.8398 5.16712 10.8984 5.10939C11.0156 4.93618 11.1548 4.81349 11.3159 4.74132C11.4771 4.66915 11.6162 4.6042 11.7334 4.54646C11.8506 4.48873 11.9897 4.43099 12.1509 4.37326C12.312 4.31552 12.4512 4.25779 12.5684 4.20005C12.627 4.14231 12.7002 4.08458 12.7881 4.02684C12.876 3.9691 12.9492 3.91137 13.0078 3.85363C13.0078 3.85363 13.0225 3.82476 13.0518 3.76703C13.0811 3.70929 13.0664 3.65156 13.0078 3.59382C13.0078 3.53609 12.9932 3.50722 12.9639 3.50722C12.9346 3.50722 12.9199 3.50722 12.9199 3.50722C12.8613 3.50722 12.7954 3.50722 12.7222 3.50722C12.6489 3.50722 12.5537 3.53609 12.4365 3.59382C12.3193 3.65156 12.2168 3.70929 12.1289 3.76703C12.041 3.82476 11.9092 3.85363 11.7334 3.85363C11.6748 4.02684 11.5649 4.11345 11.4038 4.11345C11.2427 4.11345 11.0742 4.14231 10.8984 4.20005C10.7812 4.25779 10.6641 4.32995 10.5469 4.41656C10.4297 4.50316 10.3125 4.57533 10.1953 4.63307L9.93164 4.89288C9.87305 4.89288 9.84375 4.90009 9.84375 4.91453C9.84375 4.92896 9.84375 4.99392 9.84375 5.10939V5.23929C9.78516 5.23929 9.74854 5.27538 9.73389 5.34755C9.71924 5.41972 9.71191 5.4558 9.71191 5.4558C9.71191 5.51354 9.68994 5.57127 9.646 5.62901C9.60205 5.68674 9.55078 5.71561 9.49219 5.71561C9.49219 5.71561 9.47021 5.73726 9.42627 5.78056C9.38232 5.82387 9.36035 5.87439 9.36035 5.93212C9.36035 6.04759 9.35303 6.1342 9.33838 6.19193C9.32373 6.24967 9.24316 6.27854 9.09668 6.27854C9.09668 6.39401 9.07471 6.46618 9.03076 6.49504C8.98682 6.52391 8.93555 6.53835 8.87695 6.53835L9.00879 6.75486L8.74512 6.97137C8.62793 6.97137 8.57666 7.01467 8.59131 7.10127C8.60596 7.18787 8.58398 7.26004 8.52539 7.31778H8.74512C8.74512 7.46212 8.73779 7.56316 8.72314 7.62089C8.7085 7.67863 8.75977 7.7075 8.87695 7.7075ZM22.5 41.8726V41.3097C22.5 41.252 22.522 41.2087 22.5659 41.1798C22.6099 41.1509 22.6318 41.1076 22.6318 41.0499C22.6318 40.9344 22.6025 40.8406 22.5439 40.7684C22.4854 40.6963 22.4268 40.6313 22.3682 40.5736H22.2803C22.2803 40.5736 22.2803 40.5952 22.2803 40.6385C22.2803 40.6818 22.3096 40.7035 22.3682 40.7035L22.5 40.8334C22.4414 40.8334 22.3901 40.8262 22.3462 40.8117C22.3022 40.7973 22.2803 40.7612 22.2803 40.7035C22.2217 40.6458 22.1777 40.588 22.1484 40.5303C22.1191 40.4725 22.0752 40.4148 22.0166 40.3571H21.9287C21.8701 40.3571 21.8335 40.3354 21.8188 40.2921C21.8042 40.2488 21.7969 40.1983 21.7969 40.1406V39.8808C21.7383 39.823 21.6943 39.7653 21.665 39.7075C21.6357 39.6498 21.5918 39.5921 21.5332 39.5343C21.4746 39.4766 21.4014 39.4189 21.3135 39.3611C21.2256 39.3034 21.1523 39.2457 21.0938 39.1879C21.0352 39.1879 20.9912 39.1663 20.9619 39.123C20.9326 39.0797 20.8887 39.0292 20.8301 38.9714C20.7715 38.9137 20.7349 38.8559 20.7202 38.7982C20.7056 38.7405 20.6689 38.6827 20.6104 38.625C20.5518 38.5673 20.5151 38.5095 20.5005 38.4518C20.4858 38.3941 20.4346 38.3363 20.3467 38.2786C20.3467 38.2209 20.3247 38.1775 20.2808 38.1487C20.2368 38.1198 20.1855 38.0765 20.127 38.0188C20.0684 37.961 19.9878 37.925 19.8853 37.9105C19.7827 37.8961 19.7021 37.8889 19.6436 37.8889V38.0188C19.7021 38.0765 19.7461 38.1559 19.7754 38.2569C19.8047 38.358 19.8486 38.4374 19.9072 38.4951C19.9658 38.5528 20.0171 38.6178 20.061 38.69C20.105 38.7621 20.127 38.8559 20.127 38.9714C20.127 38.9714 20.1343 38.9859 20.1489 39.0147C20.1636 39.0436 20.2002 39.058 20.2588 39.058C20.376 39.1158 20.4419 39.2024 20.4565 39.3178C20.4712 39.4333 20.4785 39.5488 20.4785 39.6642C20.4785 39.722 20.5005 39.7581 20.5444 39.7725C20.5884 39.7869 20.6104 39.823 20.6104 39.8808C20.6689 39.9385 20.7202 40.0034 20.7642 40.0756C20.8081 40.1478 20.8301 40.2416 20.8301 40.3571C20.8887 40.5303 20.9692 40.7035 21.0718 40.8767C21.1743 41.0499 21.2549 41.1942 21.3135 41.3097C21.3721 41.4829 21.4526 41.6273 21.5552 41.7427C21.6577 41.8582 21.7822 41.9737 21.9287 42.0891H22.2803C22.3975 42.0314 22.4634 41.9809 22.478 41.9376C22.4927 41.8943 22.5 41.8726 22.5 41.8726ZM31.5088 24.855C31.4502 24.9705 31.4062 25.0787 31.377 25.1798C31.3477 25.2808 31.2744 25.3602 31.1572 25.4179C31.0986 25.4757 31.04 25.4973 30.9814 25.4829C30.9229 25.4685 30.8936 25.4035 30.8936 25.288C30.8936 25.3458 30.8789 25.4035 30.8496 25.4612C30.8203 25.519 30.8057 25.5478 30.8057 25.5478C30.8057 25.6056 30.7983 25.6417 30.7837 25.6561C30.769 25.6705 30.7324 25.7066 30.6738 25.7644C30.6738 25.8221 30.6519 25.8654 30.6079 25.8943C30.564 25.9231 30.542 25.9664 30.542 26.0242C30.542 26.0819 30.5273 26.1108 30.498 26.1108C30.4688 26.1108 30.4541 26.1108 30.4541 26.1108C30.3955 26.053 30.3516 26.0386 30.3223 26.0675C30.293 26.0963 30.249 26.1108 30.1904 26.1108H29.8389C29.7803 26.1108 29.7437 26.118 29.729 26.1324C29.7144 26.1469 29.707 26.1829 29.707 26.2407L29.3555 26.5871C29.2969 26.6448 29.2676 26.6809 29.2676 26.6953C29.2676 26.7098 29.2969 26.7459 29.3555 26.8036C29.4141 26.8036 29.4727 26.8036 29.5312 26.8036C29.5898 26.8036 29.6484 26.7747 29.707 26.717C29.7656 26.6593 29.8535 26.6015 29.9707 26.5438C30.0879 26.4861 30.2051 26.4572 30.3223 26.4572C30.4395 26.4572 30.5054 26.4716 30.52 26.5005C30.5347 26.5294 30.542 26.6015 30.542 26.717V26.8036H30.8057C30.8643 26.7459 30.9082 26.6881 30.9375 26.6304C30.9668 26.5727 30.9521 26.4861 30.8936 26.3706L31.1572 26.5871C31.2158 26.5294 31.2744 26.4933 31.333 26.4788C31.3916 26.4644 31.4502 26.4283 31.5088 26.3706C31.5674 26.3128 31.626 26.2335 31.6846 26.1324C31.7432 26.0314 31.8018 25.952 31.8604 25.8943C31.9189 25.8365 31.9556 25.7499 31.9702 25.6345C31.9849 25.519 31.9922 25.3746 31.9922 25.2014C31.9922 25.1437 31.9922 25.086 31.9922 25.0282C31.9922 24.9705 32.0215 24.9128 32.0801 24.855C32.1387 24.7973 32.1753 24.7395 32.1899 24.6818C32.2046 24.6241 32.2119 24.5663 32.2119 24.5086C32.2119 24.4509 32.1899 24.3282 32.146 24.1405C32.1021 23.9529 32.0801 23.8013 32.0801 23.6859C31.9629 23.6859 31.8604 23.7364 31.7725 23.8374C31.6846 23.9385 31.6699 24.0756 31.7285 24.2488C31.7285 24.3643 31.7065 24.4653 31.6626 24.5519C31.6187 24.6385 31.5674 24.7395 31.5088 24.855ZM26.0596 41.1798C26.1182 41.1798 26.1548 41.2015 26.1694 41.2448C26.1841 41.2881 26.1914 41.3386 26.1914 41.3963V42.0025C26.25 41.9448 26.3013 41.8871 26.3452 41.8293C26.3892 41.7716 26.4111 41.7139 26.4111 41.6561V41.0499L26.543 40.9633C26.543 40.9633 26.5576 40.985 26.5869 41.0283C26.6162 41.0716 26.6309 41.1221 26.6309 41.1798V41.3097C26.6309 41.3675 26.6528 41.4252 26.6968 41.4829C26.7407 41.5407 26.7627 41.5984 26.7627 41.6561H26.8945C27.0117 41.5984 27.0703 41.5551 27.0703 41.5262C27.0703 41.4974 27.041 41.4252 26.9824 41.3097V41.1798C26.9824 41.1221 26.9824 41.0643 26.9824 41.0066C26.9824 40.9489 26.9531 40.8911 26.8945 40.8334C26.8359 40.7757 26.8066 40.7324 26.8066 40.7035C26.8066 40.6746 26.8359 40.6313 26.8945 40.5736C26.9531 40.5158 27.0044 40.4798 27.0483 40.4653C27.0923 40.4509 27.1143 40.4148 27.1143 40.3571V40.2272H26.9824C26.9238 40.2272 26.8506 40.256 26.7627 40.3138C26.6748 40.3715 26.6309 40.4292 26.6309 40.487C26.5723 40.5447 26.5356 40.5736 26.521 40.5736C26.5063 40.5736 26.4697 40.5447 26.4111 40.487C26.3525 40.3715 26.3306 40.256 26.3452 40.1406C26.3599 40.0251 26.4258 39.9385 26.543 39.8808C26.6602 39.823 26.7773 39.7942 26.8945 39.7942C27.0117 39.7942 27.1289 39.823 27.2461 39.8808H27.4658C27.5244 39.823 27.5684 39.7653 27.5977 39.7075C27.627 39.6498 27.6709 39.5921 27.7295 39.5343C27.7295 39.5343 27.7075 39.5416 27.6636 39.556C27.6196 39.5704 27.5977 39.6065 27.5977 39.6642C27.4805 39.7797 27.3633 39.8447 27.2461 39.8591C27.1289 39.8735 27.0117 39.8519 26.8945 39.7942C26.8359 39.7942 26.7773 39.7797 26.7188 39.7508C26.6602 39.722 26.6016 39.7364 26.543 39.7942C26.4844 39.8519 26.4258 39.888 26.3672 39.9024C26.3086 39.9168 26.2793 39.9529 26.2793 40.0107L25.9277 41.1798C25.9277 41.1221 25.9351 41.1076 25.9497 41.1365C25.9644 41.1654 26.001 41.1798 26.0596 41.1798ZM31.5088 5.10939C31.5088 5.10939 31.5234 5.09495 31.5527 5.06609C31.582 5.03722 31.5967 5.05165 31.5967 5.10939C31.6846 5.16712 31.7505 5.18156 31.7944 5.15269C31.8384 5.12382 31.8604 5.10939 31.8604 5.10939H32.0801C32.1973 5.10939 32.2632 5.10217 32.2778 5.08773C32.2925 5.0733 32.2705 5.00835 32.2119 4.89288V4.76297C32.2119 4.76297 32.2192 4.74132 32.2339 4.69802C32.2485 4.65472 32.2852 4.63307 32.3438 4.63307L32.4316 4.76297C32.4316 4.87844 32.4609 4.96505 32.5195 5.02278C32.5781 5.08052 32.666 5.10939 32.7832 5.10939C32.7832 5.10939 32.8052 5.10939 32.8491 5.10939C32.8931 5.10939 32.915 5.08052 32.915 5.02278C32.915 4.96505 32.937 4.90731 32.981 4.84958C33.0249 4.79184 33.0469 4.76297 33.0469 4.76297V4.63307C33.0469 4.57533 32.981 4.51038 32.8491 4.43821C32.7173 4.36604 32.6221 4.35882 32.5635 4.41656C32.5049 4.47429 32.4243 4.51038 32.3218 4.52481C32.2192 4.53925 32.1387 4.54646 32.0801 4.54646H31.9922C31.9336 4.6042 31.8896 4.61863 31.8604 4.58976C31.8311 4.5609 31.7871 4.54646 31.7285 4.54646C31.6992 4.51759 31.6626 4.49594 31.6187 4.48151C31.5747 4.46708 31.5381 4.45986 31.5088 4.45986C31.4502 4.45986 31.3989 4.46708 31.355 4.48151C31.311 4.49594 31.2744 4.51759 31.2451 4.54646C31.1865 4.6042 31.1572 4.66915 31.1572 4.74132C31.1572 4.81349 31.1572 4.90731 31.1572 5.02278C31.1572 5.08052 31.1572 5.13104 31.1572 5.17434C31.1572 5.21764 31.1865 5.23929 31.2451 5.23929C31.2451 5.23929 31.2744 5.23207 31.333 5.21764C31.3916 5.20321 31.4502 5.16712 31.5088 5.10939ZM31.8604 22.8631C31.8604 22.8631 31.8604 22.8776 31.8604 22.9064C31.8604 22.9353 31.8604 22.9209 31.8604 22.8631C31.8018 22.9209 31.7651 22.9714 31.7505 23.0147C31.7358 23.058 31.7285 23.0796 31.7285 23.0796V23.2096C31.7285 23.2673 31.7358 23.325 31.7505 23.3828C31.7651 23.4405 31.8018 23.4982 31.8604 23.556L32.0801 23.4261L31.8604 23.2096C31.9775 23.2096 32.0947 23.2023 32.2119 23.1879C32.3291 23.1735 32.4463 23.2529 32.5635 23.4261C32.5635 23.3683 32.5708 23.3322 32.5854 23.3178C32.6001 23.3034 32.6367 23.2673 32.6953 23.2096C32.6953 23.0941 32.7393 23.0291 32.8271 23.0147C32.915 23.0003 32.9883 22.993 33.0469 22.993C33.1055 22.993 33.1421 22.9858 33.1567 22.9714C33.1714 22.957 33.208 22.9209 33.2666 22.8631C33.2666 22.8054 33.2739 22.7621 33.2886 22.7332C33.3032 22.7044 33.3398 22.6611 33.3984 22.6033L33.6182 22.3868H33.2666C33.1494 22.4446 33.0542 22.4518 32.981 22.4085C32.9077 22.3652 32.8418 22.3146 32.7832 22.2569C32.7246 22.1992 32.6733 22.1414 32.6294 22.0837C32.5854 22.026 32.5635 21.9682 32.5635 21.9105H32.4316L32.3438 22.0404C32.4023 22.0981 32.417 22.1775 32.3877 22.2786C32.3584 22.3796 32.3438 22.459 32.3438 22.5167C32.2266 22.5745 32.146 22.6611 32.1021 22.7765C32.0581 22.892 31.9775 22.9209 31.8604 22.8631ZM20.127 1.03901H19.9951C19.8193 1.09675 19.7241 1.14727 19.7095 1.19057C19.6948 1.23387 19.7168 1.34213 19.7754 1.51534C19.834 1.57307 19.8926 1.64524 19.9512 1.73185C20.0098 1.81845 20.0684 1.86175 20.127 1.86175C20.1855 1.91949 20.2734 1.93392 20.3906 1.90505C20.5078 1.87618 20.625 1.90505 20.7422 1.99165H20.9619C21.0205 1.99165 21.0498 1.96279 21.0498 1.90505C21.0498 1.84732 21.0205 1.78958 20.9619 1.73185V1.60194C20.9619 1.5442 20.9839 1.50812 21.0278 1.49368C21.0718 1.47925 21.0938 1.44316 21.0938 1.38543C21.0938 1.32769 21.0864 1.26996 21.0718 1.21222C21.0571 1.15449 21.0205 1.09675 20.9619 1.03901C20.9033 1.03901 20.8521 1.0318 20.8081 1.01736C20.7642 1.00293 20.7422 1.05345 20.7422 1.16892C20.7422 1.16892 20.7202 1.16171 20.6763 1.14727C20.6323 1.13284 20.6104 1.09675 20.6104 1.03901C20.5811 1.01015 20.5444 0.988495 20.5005 0.974064C20.4565 0.959629 20.4053 0.952412 20.3467 0.952412C20.3174 0.952412 20.2808 0.959629 20.2368 0.974064C20.1929 0.988495 20.1562 1.01015 20.127 1.03901ZM20.9619 2.68448C20.9619 2.68448 20.9619 2.69892 20.9619 2.72779C20.9619 2.75665 20.9619 2.74222 20.9619 2.68448C21.1963 2.68448 21.4307 2.65562 21.665 2.59788C21.8994 2.54015 22.1045 2.48241 22.2803 2.42467C22.3389 2.42467 22.3755 2.41024 22.3901 2.38137C22.4048 2.3525 22.4414 2.33807 22.5 2.33807V2.20816C22.5 2.20816 22.4927 2.18651 22.478 2.14321C22.4634 2.09991 22.4268 2.07826 22.3682 2.07826C22.3096 2.07826 22.251 2.07826 22.1924 2.07826C22.1338 2.07826 22.0752 2.04939 22.0166 1.99165C21.958 1.90505 21.8994 1.86175 21.8408 1.86175C21.7822 1.86175 21.7236 1.90505 21.665 1.99165V1.86175L21.3135 1.73185C21.3135 1.78958 21.3062 1.86175 21.2915 1.94835C21.2769 2.03496 21.2402 2.07826 21.1816 2.07826V2.20816C21.1816 2.2659 21.167 2.32364 21.1377 2.38137C21.1084 2.43911 21.0938 2.49684 21.0938 2.55458C21.0352 2.55458 20.9985 2.57623 20.9839 2.61953C20.9692 2.66283 20.9619 2.68448 20.9619 2.68448ZM27.8174 36.2867C27.7588 36.3444 27.7295 36.3805 27.7295 36.395C27.7295 36.4094 27.7295 36.4455 27.7295 36.5032C27.7295 36.5609 27.7075 36.6042 27.6636 36.6331C27.6196 36.662 27.5977 36.7053 27.5977 36.763C27.5391 36.763 27.5024 36.7775 27.4878 36.8063C27.4731 36.8352 27.4219 36.8496 27.334 36.8496C27.334 36.8496 27.3193 36.8496 27.29 36.8496C27.2607 36.8496 27.2461 36.8208 27.2461 36.763C27.1875 36.7053 27.1436 36.6909 27.1143 36.7197C27.085 36.7486 27.041 36.763 26.9824 36.763C26.9238 36.763 26.8872 36.7847 26.8726 36.828C26.8579 36.8713 26.8213 36.9218 26.7627 36.9795C26.7041 37.0373 26.6675 37.095 26.6528 37.1527C26.6382 37.2105 26.6309 37.2682 26.6309 37.3259C26.6895 37.2682 26.748 37.2321 26.8066 37.2177C26.8652 37.2033 26.9238 37.1672 26.9824 37.1094C27.041 37.0517 27.0776 37.0373 27.0923 37.0661C27.1069 37.095 27.1143 37.1383 27.1143 37.196V37.3259C27.1143 37.4992 27.1655 37.6218 27.2681 37.694C27.3706 37.7662 27.4805 37.8311 27.5977 37.8889V37.5425C27.5977 37.4847 27.605 37.4342 27.6196 37.3909C27.6343 37.3476 27.6709 37.3259 27.7295 37.3259C27.7881 37.3259 27.8394 37.3043 27.8833 37.261C27.9272 37.2177 27.9492 37.1672 27.9492 37.1094C27.9492 37.0517 27.9565 36.9434 27.9712 36.7847C27.9858 36.6259 27.9346 36.4599 27.8174 36.2867ZM26.4111 33.8185H26.2793C26.2793 33.934 26.3013 34.0278 26.3452 34.1C26.3892 34.1721 26.4111 34.2371 26.4111 34.2948C26.4111 34.3526 26.4331 34.3886 26.4771 34.4031C26.521 34.4175 26.543 34.4536 26.543 34.5113C26.543 34.6268 26.5503 34.699 26.5649 34.7278C26.5796 34.7567 26.6455 34.7711 26.7627 34.7711H26.8945C26.9531 34.7711 27.0044 34.7856 27.0483 34.8144C27.0923 34.8433 27.1143 34.8577 27.1143 34.8577L26.9824 34.6412H26.8945C26.8359 34.4103 26.8066 34.2587 26.8066 34.1866C26.8066 34.1144 26.8652 33.9917 26.9824 33.8185C26.9824 33.7608 27.0044 33.7102 27.0483 33.6669C27.0923 33.6236 27.1143 33.602 27.1143 33.602C27.1143 33.5443 27.1069 33.4649 27.0923 33.3638C27.0776 33.2628 27.041 33.1834 26.9824 33.1257H26.7627C26.6455 33.0679 26.5796 33.0607 26.5649 33.104C26.5503 33.1473 26.543 33.2267 26.543 33.3422C26.4844 33.3999 26.4478 33.4649 26.4331 33.537C26.4185 33.6092 26.4111 33.703 26.4111 33.8185ZM23.9062 42.349C23.9062 42.349 23.8916 42.349 23.8623 42.349C23.833 42.349 23.8477 42.349 23.9062 42.349C23.7891 42.4067 23.7012 42.4139 23.6426 42.3706C23.584 42.3273 23.5254 42.2768 23.4668 42.2191C23.4082 42.2191 23.3643 42.1974 23.335 42.1541C23.3057 42.1108 23.2617 42.0603 23.2031 42.0025C23.1445 42.0025 23.0859 41.9809 23.0273 41.9376C22.9688 41.8943 22.9102 41.8726 22.8516 41.8726C22.793 41.8726 22.7563 41.8943 22.7417 41.9376C22.7271 41.9809 22.6904 42.0314 22.6318 42.0891V42.2191C22.6318 42.2191 22.6465 42.2263 22.6758 42.2407C22.7051 42.2551 22.7197 42.2912 22.7197 42.349H22.8516C22.9102 42.4067 22.9907 42.4572 23.0933 42.5005C23.1958 42.5438 23.2764 42.5655 23.335 42.5655C23.3936 42.5077 23.4521 42.4933 23.5107 42.5222C23.5693 42.551 23.6279 42.5655 23.6865 42.5655H23.8184C23.9941 42.5655 24.1626 42.5366 24.3237 42.4789C24.4849 42.4211 24.624 42.3345 24.7412 42.2191H24.6533C24.4482 42.3345 24.2871 42.3995 24.1699 42.4139C24.0527 42.4283 23.9648 42.4067 23.9062 42.349ZM32.4316 20.3083C32.4316 20.2506 32.439 20.1929 32.4536 20.1351C32.4683 20.0774 32.5049 20.0485 32.5635 20.0485C32.5049 19.7021 32.4536 19.3773 32.4097 19.0742C32.3657 18.7711 32.2559 18.4752 32.0801 18.1865V19.0093C32.0801 19.1247 32.0947 19.2402 32.124 19.3557C32.1533 19.4712 32.1387 19.5866 32.0801 19.7021V21.5641C32.0801 21.5641 32.0874 21.5496 32.1021 21.5208C32.1167 21.4919 32.1533 21.4775 32.2119 21.4775L32.3438 21.3476L32.4316 21.4775C32.4316 21.4775 32.439 21.4919 32.4536 21.5208C32.4683 21.5496 32.5049 21.5641 32.5635 21.5641H32.6953C32.6953 21.5063 32.688 21.4558 32.6733 21.4125C32.6587 21.3692 32.6221 21.3476 32.5635 21.3476C32.4463 21.2321 32.3804 21.1166 32.3657 21.0012C32.3511 20.8857 32.3438 20.7702 32.3438 20.6547C32.4023 20.597 32.4316 20.5393 32.4316 20.4815C32.4316 20.4238 32.4316 20.3661 32.4316 20.3083ZM18.9404 1.16892C18.999 1.22666 19.0356 1.26274 19.0503 1.27718C19.0649 1.29161 19.0723 1.32769 19.0723 1.38543C19.1309 1.44316 19.2041 1.45038 19.292 1.40708C19.3799 1.36378 19.4238 1.31326 19.4238 1.25552C19.541 1.14005 19.6143 1.0751 19.6436 1.06067C19.6729 1.04623 19.7168 1.03901 19.7754 1.03901C19.834 1.03901 19.8926 1.01736 19.9512 0.974064C20.0098 0.930759 20.0684 0.909111 20.127 0.909111C20.127 0.909111 20.1489 0.909111 20.1929 0.909111C20.2368 0.909111 20.2588 0.880241 20.2588 0.822506C20.083 0.880241 19.9585 0.880241 19.8853 0.822506C19.812 0.764771 19.7754 0.634865 19.7754 0.432789L19.292 0.346184C19.3506 0.403923 19.3799 0.461658 19.3799 0.519394C19.3799 0.577129 19.3506 0.634865 19.292 0.6926L19.2041 0.822506C19.2041 0.880241 19.2041 0.916325 19.2041 0.930759C19.2041 0.945194 19.2334 0.981277 19.292 1.03901L19.4238 1.16892H19.2041C19.2041 1.11118 19.1748 1.08232 19.1162 1.08232C19.0576 1.08232 18.999 1.11118 18.9404 1.16892ZM15.9961 36.8496C15.9961 36.9651 16.0034 37.0806 16.0181 37.196C16.0327 37.3115 16.0986 37.3981 16.2158 37.4559L16.3477 37.5425C16.5234 37.3115 16.5894 37.0806 16.5454 36.8496C16.5015 36.6187 16.3477 36.3877 16.084 36.1568C16.0254 36.33 15.9961 36.4599 15.9961 36.5465C15.9961 36.6331 15.9961 36.7342 15.9961 36.8496ZM29.0039 27.4098L29.1357 27.1933V27.8861C29.1357 27.8861 29.1431 27.9006 29.1577 27.9295C29.1724 27.9583 29.209 27.9728 29.2676 27.9728C29.2676 27.9728 29.2676 27.9583 29.2676 27.9295C29.2676 27.9006 29.2969 27.8861 29.3555 27.8861C29.4141 27.8284 29.458 27.7418 29.4873 27.6263C29.5166 27.5109 29.5605 27.3954 29.6191 27.2799V27.0634C29.5605 27.0057 29.5166 26.9479 29.4873 26.8902C29.458 26.8325 29.4141 26.8036 29.3555 26.8036C29.1797 26.9479 29.0625 27.0562 29.0039 27.1284C28.9453 27.2005 28.9453 27.2944 29.0039 27.4098ZM34.4531 5.23929L34.585 5.10939L34.4531 5.02278C34.3359 5.02278 34.2407 5.00113 34.1675 4.95783C34.0942 4.91453 33.999 4.89288 33.8818 4.89288C33.8232 4.89288 33.7646 4.88566 33.7061 4.87123C33.6475 4.85679 33.5889 4.7774 33.5303 4.63307L33.2666 5.02278C33.4424 5.08052 33.6182 5.13104 33.7939 5.17434C33.9697 5.21764 34.1455 5.23929 34.3213 5.23929H34.4531ZM26.8945 35.464C26.8359 35.5217 26.7993 35.5867 26.7847 35.6588C26.77 35.731 26.7627 35.8248 26.7627 35.9403H26.9824V36.3733C26.9824 36.3733 26.9897 36.395 27.0044 36.4383C27.019 36.4816 27.0557 36.5032 27.1143 36.5032C27.1143 36.5032 27.1362 36.496 27.1802 36.4816C27.2241 36.4671 27.2461 36.431 27.2461 36.3733C27.3047 36.3156 27.334 36.2578 27.334 36.2001C27.334 36.1424 27.334 36.0558 27.334 35.9403V35.8104C27.334 35.7526 27.3193 35.7021 27.29 35.6588C27.2607 35.6155 27.2461 35.5939 27.2461 35.5939C27.1875 35.5939 27.1289 35.5867 27.0703 35.5722C27.0117 35.5578 26.9531 35.5217 26.8945 35.464ZM34.585 41.8726C34.5264 41.9304 34.4458 41.9665 34.3433 41.9809C34.2407 41.9953 34.1602 42.0025 34.1016 42.0025H33.8818C33.9404 42.118 34.021 42.2046 34.1235 42.2624C34.2261 42.3201 34.3359 42.349 34.4531 42.349C34.5703 42.2912 34.6802 42.1902 34.7827 42.0458C34.8853 41.9015 34.9365 41.7716 34.9365 41.6561L34.8047 41.7427C34.7461 41.7427 34.7095 41.75 34.6948 41.7644C34.6802 41.7788 34.6436 41.8149 34.585 41.8726ZM32.6953 6.19193C32.5781 5.98986 32.439 5.87439 32.2778 5.84552C32.1167 5.81665 31.9775 5.93212 31.8604 6.19193C31.9775 6.24967 32.0947 6.29297 32.2119 6.32184C32.3291 6.3507 32.4463 6.33627 32.5635 6.27854C32.6221 6.27854 32.6587 6.2641 32.6733 6.23523C32.688 6.20637 32.6953 6.19193 32.6953 6.19193ZM10.1953 0.346184V0.216282C10.1953 0.216282 10.188 0.19463 10.1733 0.151329C10.1587 0.108025 10.1221 0.0863762 10.0635 0.0863762C10.0049 0.0863762 9.92432 0.0719414 9.82178 0.0430717C9.71924 0.0142059 9.63867 -0.000228882 9.58008 -0.000228882H9.49219C9.55078 0.115242 9.53613 0.187412 9.44824 0.216282C9.36035 0.245148 9.28711 0.288448 9.22852 0.346184C9.3457 0.461658 9.50684 0.519394 9.71191 0.519394C9.91699 0.519394 10.0781 0.461658 10.1953 0.346184ZM1.88965 23.9024C1.94824 23.8446 2.00684 23.8086 2.06543 23.7941C2.12402 23.7797 2.18262 23.7725 2.24121 23.7725H2.37305C2.31445 23.7147 2.27783 23.657 2.26318 23.5993C2.24854 23.5415 2.21191 23.4838 2.15332 23.4261H1.75781C1.75781 23.5415 1.74316 23.6426 1.71387 23.7292C1.68457 23.8158 1.66992 23.9168 1.66992 24.0323C1.72852 24.0323 1.77979 24.0251 1.82373 24.0106C1.86768 23.9962 1.88965 23.9601 1.88965 23.9024ZM7.82227 0.909111C7.88086 0.909111 7.93945 0.873024 7.99805 0.800854C8.05664 0.728683 8.11523 0.6926 8.17383 0.6926C8.17383 0.6926 8.1958 0.685383 8.23975 0.670948C8.28369 0.656517 8.30566 0.62043 8.30566 0.562695H8.52539V0.432789H8.39355C8.33496 0.432789 8.26172 0.454441 8.17383 0.497742C8.08594 0.541042 8.0127 0.562695 7.9541 0.562695C7.89551 0.562695 7.81494 0.584347 7.7124 0.627647C7.60986 0.670948 7.5293 0.6926 7.4707 0.6926V0.822506C7.5293 0.880241 7.58789 0.909111 7.64648 0.909111C7.70508 0.909111 7.76367 0.909111 7.82227 0.909111ZM26.543 31.6101L26.8945 30.5709C26.8945 30.5131 26.8872 30.4626 26.8726 30.4193C26.8579 30.376 26.8213 30.3832 26.7627 30.441C26.7041 30.4987 26.6528 30.5781 26.6089 30.6791C26.5649 30.7802 26.5723 30.8595 26.6309 30.9173C26.6895 30.975 26.7041 31.0327 26.6748 31.0905C26.6455 31.1482 26.6309 31.206 26.6309 31.2637C26.5137 31.3214 26.4551 31.3792 26.4551 31.4369C26.4551 31.4946 26.4844 31.5524 26.543 31.6101ZM42.2754 8.05391H42.4072C42.4658 8.05391 42.5244 8.03226 42.583 7.98896C42.6416 7.94566 42.7002 7.924 42.7588 7.924H43.1104C43.1104 7.924 43.103 7.90236 43.0884 7.85905C43.0737 7.81575 43.0371 7.7941 42.9785 7.7941C42.8613 7.67863 42.7075 7.64254 42.5171 7.68584C42.3267 7.72915 42.1729 7.80853 42.0557 7.924V8.05391H42.2754ZM23.6865 32.7793C23.7451 32.7215 23.7964 32.6566 23.8403 32.5844C23.8843 32.5122 23.9062 32.4184 23.9062 32.3029H23.5547C23.4961 32.3029 23.4302 32.3679 23.3569 32.4978C23.2837 32.6277 23.2764 32.7215 23.335 32.7793C23.335 32.837 23.3569 32.8731 23.4009 32.8875C23.4448 32.9019 23.4668 32.9092 23.4668 32.9092C23.5254 32.9092 23.5767 32.9019 23.6206 32.8875C23.6646 32.8731 23.6865 32.837 23.6865 32.7793ZM27.7295 43.0418C27.6709 43.0418 27.627 43.0634 27.5977 43.1067C27.5684 43.15 27.5244 43.2006 27.4658 43.2583C27.4072 43.2583 27.356 43.2872 27.312 43.3449C27.2681 43.4026 27.2461 43.5037 27.2461 43.648C27.2461 43.7057 27.2607 43.7346 27.29 43.7346C27.3193 43.7346 27.334 43.7346 27.334 43.7346C27.4219 43.7346 27.4731 43.713 27.4878 43.6697C27.5024 43.6264 27.5391 43.5758 27.5977 43.5181C27.6562 43.4604 27.6929 43.4026 27.7075 43.3449C27.7222 43.2872 27.7588 43.2583 27.8174 43.2583C27.876 43.2583 27.9346 43.2366 27.9932 43.1933C28.0518 43.15 28.1104 43.0995 28.1689 43.0418V42.9119C28.1104 42.9119 28.0371 42.9335 27.9492 42.9768C27.8613 43.0201 27.7881 43.0418 27.7295 43.0418ZM10.1953 0.6926C10.1367 0.6926 10.0781 0.714252 10.0195 0.757553C9.96094 0.800854 9.90234 0.822506 9.84375 0.822506L9.71191 0.909111L9.84375 1.03901C9.90234 1.03901 9.97559 1.0318 10.0635 1.01736C10.1514 1.00293 10.2246 0.966846 10.2832 0.909111C10.2832 0.909111 10.3052 0.909111 10.3491 0.909111C10.3931 0.909111 10.415 0.880241 10.415 0.822506C10.415 0.822506 10.437 0.815289 10.481 0.800854C10.5249 0.786419 10.5469 0.750336 10.5469 0.6926V0.562695C10.4883 0.62043 10.4297 0.642082 10.3711 0.627647C10.3125 0.613213 10.2539 0.634865 10.1953 0.6926ZM11.4697 0.432789C11.2939 0.201847 11.1475 0.122459 11.0303 0.19463C10.9131 0.2668 10.7959 0.389488 10.6787 0.562695C10.7959 0.62043 10.9277 0.6493 11.0742 0.6493C11.2207 0.6493 11.3525 0.577129 11.4697 0.432789ZM0.351562 17.0174C0.351562 17.0751 0.32959 17.1329 0.285645 17.1906C0.241699 17.2483 0.219727 17.3061 0.219727 17.3638C0.102539 17.3061 0.0366211 17.2772 0.0219727 17.2772C0.00732422 17.2772 0 17.3061 0 17.3638C0.117188 17.3638 0.234375 17.371 0.351562 17.3855C0.46875 17.3999 0.585938 17.436 0.703125 17.4937C0.703125 17.4937 0.725098 17.4865 0.769043 17.4721C0.812988 17.4576 0.834961 17.4215 0.834961 17.3638V17.1473C0.776367 17.0896 0.695801 17.0535 0.593262 17.039C0.490723 17.0246 0.410156 17.0174 0.351562 17.0174ZM29.8389 26.8036C29.7217 26.8036 29.6558 26.8541 29.6411 26.9552C29.6265 27.0562 29.6191 27.1645 29.6191 27.2799C29.6191 27.2799 29.6191 27.3016 29.6191 27.3449C29.6191 27.3882 29.6484 27.4098 29.707 27.4098L29.8389 27.2799C29.8389 27.2222 29.8608 27.1861 29.9048 27.1717C29.9487 27.1572 29.9707 27.1211 29.9707 27.0634C30.0879 27.1211 30.1538 27.1139 30.1685 27.0418C30.1831 26.9696 30.1904 26.8902 30.1904 26.8036V26.5871H29.9707C29.9707 26.6448 29.9634 26.6953 29.9487 26.7386C29.9341 26.782 29.8975 26.8036 29.8389 26.8036ZM28.6523 39.6642V39.4477C28.5938 39.4477 28.5571 39.4261 28.5425 39.3828C28.5278 39.3395 28.5205 39.3178 28.5205 39.3178C28.5205 39.3178 28.5205 39.2962 28.5205 39.2529C28.5205 39.2096 28.4912 39.1879 28.4326 39.1879C28.4326 39.1879 28.4106 39.1951 28.3667 39.2096C28.3228 39.224 28.3008 39.2601 28.3008 39.3178C28.2422 39.4333 28.2349 39.5704 28.2788 39.7292C28.3228 39.888 28.374 40.0251 28.4326 40.1406C28.4326 40.0251 28.4546 39.9457 28.4985 39.9024C28.5425 39.8591 28.5938 39.7797 28.6523 39.6642C28.5938 39.722 28.5791 39.7364 28.6084 39.7075C28.6377 39.6787 28.6523 39.6642 28.6523 39.6642ZM27.7295 35.464C27.6709 35.464 27.5903 35.4423 27.4878 35.399C27.3853 35.3557 27.3047 35.3341 27.2461 35.3341V35.464C27.3047 35.464 27.356 35.4712 27.3999 35.4856C27.4438 35.5001 27.4219 35.5361 27.334 35.5939C27.2754 35.7093 27.2827 35.8032 27.356 35.8753C27.4292 35.9475 27.4658 36.0413 27.4658 36.1568C27.5244 36.0991 27.5684 36.0413 27.5977 35.9836C27.627 35.9259 27.6709 35.8681 27.7295 35.8104C27.7881 35.6949 27.8174 35.6083 27.8174 35.5506C27.8174 35.4928 27.7881 35.464 27.7295 35.464ZM25.5762 42.9119H25.2246V43.0418L25.3564 43.1717C25.4736 43.1717 25.5615 43.15 25.6201 43.1067C25.6787 43.0634 25.7373 43.0418 25.7959 43.0418V42.9119H25.5762ZM7.69043 8.83334C7.63184 8.91995 7.60254 8.99212 7.60254 9.04985C7.60254 9.10759 7.63184 9.16533 7.69043 9.22306C7.74902 9.2808 7.80762 9.30967 7.86621 9.30967C7.9248 9.30967 7.9541 9.2808 7.9541 9.22306C8.0127 9.22306 8.04932 9.19419 8.06396 9.13646C8.07861 9.07872 8.11523 9.02098 8.17383 8.96325C8.11523 8.90551 8.03467 8.855 7.93213 8.81169C7.82959 8.76839 7.74902 8.77561 7.69043 8.83334ZM27.334 42.9119H27.1143C26.9971 42.9696 26.9019 42.9985 26.8286 42.9985C26.7554 42.9985 26.6602 42.9696 26.543 42.9119C26.4844 42.9119 26.4258 42.9191 26.3672 42.9335C26.3086 42.948 26.25 42.9841 26.1914 43.0418C26.4258 43.215 26.6309 43.2511 26.8066 43.15C26.9824 43.049 27.1582 42.9696 27.334 42.9119ZM29.2676 41.3097C29.2676 41.252 29.2456 41.1942 29.2017 41.1365C29.1577 41.0788 29.1357 41.0499 29.1357 41.0499C29.0771 40.9344 28.9966 40.8911 28.894 40.92C28.7915 40.9489 28.7109 40.9633 28.6523 40.9633L28.5205 41.0499L28.6523 41.1798C28.7109 41.1798 28.7915 41.187 28.894 41.2015C28.9966 41.2159 29.0771 41.252 29.1357 41.3097H29.2676ZM25.5762 36.763C25.6934 36.6187 25.8105 36.4888 25.9277 36.3733C26.0449 36.2578 26.1328 36.1424 26.1914 36.0269V35.8104L25.5762 36.763ZM3.91113 26.0242C3.85254 26.0819 3.78662 26.1324 3.71338 26.1757C3.64014 26.219 3.54492 26.2407 3.42773 26.2407L3.2959 26.3706L3.42773 26.4572H3.69141C3.69141 26.3417 3.71338 26.2551 3.75732 26.1974C3.80127 26.1396 3.85254 26.0819 3.91113 26.0242ZM24.1699 5.58571C24.2285 5.64344 24.3018 5.67231 24.3896 5.67231C24.4775 5.67231 24.5654 5.64344 24.6533 5.58571L24.7412 5.4558L24.6533 5.3692C24.5068 5.42693 24.4043 5.46302 24.3457 5.47745C24.2871 5.49189 24.2285 5.52797 24.1699 5.58571ZM35.6396 42.0025C35.6396 42.118 35.6616 42.2118 35.7056 42.284C35.7495 42.3562 35.8154 42.4211 35.9033 42.4789H35.9912V42.349C35.9326 42.2912 35.874 42.2191 35.8154 42.1324C35.7568 42.0458 35.6982 42.0025 35.6396 42.0025ZM12.2168 0.346184C12.0996 0.230713 11.9824 0.172977 11.8652 0.172977C11.748 0.172977 11.6602 0.230713 11.6016 0.346184C11.6602 0.403923 11.748 0.432789 11.8652 0.432789C11.9824 0.432789 12.0996 0.403923 12.2168 0.346184ZM26.0596 43.3882C26.0596 43.4459 26.1182 43.5181 26.2354 43.6047C26.3525 43.6913 26.4111 43.7346 26.4111 43.7346V43.648C26.4111 43.5903 26.3672 43.5325 26.2793 43.4748C26.1914 43.4171 26.1182 43.3882 26.0596 43.3882ZM10.1953 0.0863762C10.2539 0.0863762 10.3125 0.0719414 10.3711 0.0430717C10.4297 0.0142059 10.4883 -0.000228882 10.5469 -0.000228882H9.71191C9.77051 0.0575066 9.83643 0.0863762 9.90967 0.0863762C9.98291 0.0863762 10.0781 0.0863762 10.1953 0.0863762ZM26.4111 34.8577C26.4111 34.9155 26.4331 34.9732 26.4771 35.0309C26.521 35.0887 26.543 35.1609 26.543 35.2475H26.6309V35.1176L26.4111 34.8577ZM19.0723 0.0863762L18.9404 -0.000228882C18.8818 -0.000228882 18.8452 0.0142059 18.8306 0.0430717C18.8159 0.0719414 18.7793 0.0863762 18.7207 0.0863762L18.9404 0.346184L19.0723 0.0863762ZM27.9492 41.0499C27.9492 41.1076 27.9712 41.1509 28.0151 41.1798C28.0591 41.2087 28.1104 41.252 28.1689 41.3097C28.1689 41.3097 28.1909 41.3025 28.2349 41.2881C28.2788 41.2736 28.3008 41.2375 28.3008 41.1798L28.0811 40.9633L27.9492 41.0499ZM34.9365 41.1798L35.1562 41.6561C35.1562 41.5984 35.1782 41.5551 35.2222 41.5262C35.2661 41.4974 35.2881 41.4541 35.2881 41.3963C35.2295 41.3963 35.1709 41.3747 35.1123 41.3314C35.0537 41.2881 34.9951 41.2375 34.9365 41.1798ZM9.00879 0.909111C9.00879 0.909111 9.02344 0.894676 9.05273 0.865807C9.08203 0.836941 9.06738 0.851372 9.00879 0.909111C9.06738 0.851372 9.08203 0.800854 9.05273 0.757553C9.02344 0.714252 9.00879 0.6926 9.00879 0.6926C8.9502 0.6926 8.90625 0.699818 8.87695 0.714252C8.84766 0.728683 8.80371 0.764771 8.74512 0.822506V0.909111H9.00879ZM36.6064 42.6954C36.6064 42.8108 36.6357 42.8974 36.6943 42.9552C36.7529 43.0129 36.8408 43.0418 36.958 43.0418L36.6064 42.6954ZM37.1777 43.0418C37.1777 43.1573 37.207 43.2511 37.2656 43.3232C37.3242 43.3954 37.3828 43.4604 37.4414 43.5181C37.3828 43.4604 37.3389 43.381 37.3096 43.2799C37.2803 43.1789 37.2363 43.0995 37.1777 43.0418ZM31.8604 5.58571C31.8018 5.58571 31.7651 5.59292 31.7505 5.60736C31.7358 5.62179 31.7285 5.65788 31.7285 5.71561V5.80222H31.9922V5.58571H31.8604ZM37.1777 43.648L36.958 43.2583C36.958 43.3738 36.9653 43.4676 36.98 43.5398C36.9946 43.6119 37.0605 43.648 37.1777 43.648ZM29.0039 44.2109H29.3555V44.081L29.0039 44.2109ZM15.9961 6.62495V6.53835L15.8643 6.62495V6.75486C15.8643 6.69712 15.8716 6.66103 15.8862 6.6466C15.9009 6.63217 15.9375 6.62495 15.9961 6.62495ZM27.4658 36.1568C27.4658 36.2145 27.4438 36.2506 27.3999 36.2651C27.356 36.2795 27.334 36.3156 27.334 36.3733L27.4658 36.5032V36.1568C27.4658 36.2145 27.4658 36.229 27.4658 36.2001C27.4658 36.1712 27.4658 36.1568 27.4658 36.1568ZM24.873 42.9119V43.1717L25.0928 43.0418L24.873 42.9119Z" fill="#12499E"/>
</svg>
