<svg width="110" height="110" viewBox="0 0 110 110" fill="none" xmlns="http://www.w3.org/2000/svg">
<rect width="110" height="110" rx="55" fill="#12499E"/>
<path d="M55.1308 26C36.7337 26 21.8198 38.8327 21.8198 54.6621C21.8198 62.8182 25.7794 70.1784 32.134 75.3976C32.0528 77.8863 31.1843 80.3477 29.6647 82.3235C32.6091 82.2058 35.4934 81.0326 37.7111 79.0963C42.7793 81.7747 48.7449 83.3228 55.1299 83.3228C73.5269 83.3228 88.4408 70.4901 88.4408 54.6608C88.4408 38.8314 73.5278 26 55.1308 26ZM75.8343 68.5512C75.2251 69.2187 74.4831 69.7516 73.6559 70.1155C72.8287 70.4794 71.9345 70.6664 71.0308 70.6644H39.2307C38.327 70.6664 37.4329 70.4794 36.6057 70.1155C35.7784 69.7516 35.0365 69.2187 34.4273 68.5512C30.9512 64.7203 28.8796 59.9015 28.8796 54.6621C28.8796 49.4226 30.9507 44.6043 34.4269 40.7734C35.036 40.1057 35.778 39.5727 36.6053 39.2087C37.4326 38.8447 38.3269 38.6577 39.2307 38.6597H71.0304C71.9446 38.6606 72.8483 38.8534 73.6833 39.2257C74.5182 39.598 75.2657 40.1414 75.8773 40.8208C79.3279 44.6438 81.3819 49.4464 81.3819 54.6621C81.3819 59.8993 79.3104 64.7203 75.8343 68.5512Z" fill="white"/>
<path d="M20.2342 54.6619C20.2342 58.5934 21.0864 62.4058 22.7698 66.0079C18.2724 64.5292 15 61.6019 15 54.6619C15 48.079 18.2728 44.7947 22.7715 43.3159C21.0868 46.9198 20.2342 50.734 20.2342 54.6619Z" fill="white"/>
<path d="M18.885 34.8073V43.3999C17.7479 44.1251 16.7483 45.0458 15.9322 46.1195L15.9111 46.1476V34.8073C15.9178 34.4174 16.0774 34.0457 16.3556 33.7723C16.6337 33.4989 17.0081 33.3457 17.398 33.3457C17.788 33.3457 18.1624 33.4989 18.4405 33.7723C18.7187 34.0457 18.8783 34.4174 18.885 34.8073Z" fill="white"/>
<path d="M90.0278 54.6619C90.0278 58.5934 89.1756 62.4058 87.4922 66.0079C91.9896 64.5292 95.2637 61.6019 95.2637 54.6619C95.2637 48.079 91.9909 44.7947 87.4922 43.3159C89.1751 46.9198 90.0278 50.734 90.0278 54.6619Z" fill="white"/>
<path d="M91.377 34.8073V43.3999C92.514 44.1251 93.5136 45.0458 94.3297 46.1195L94.3508 46.1476V34.8073C94.3441 34.4174 94.1845 34.0457 93.9064 33.7723C93.6282 33.4989 93.2539 33.3457 92.8639 33.3457C92.4739 33.3457 92.0995 33.4989 91.8214 33.7723C91.5433 34.0457 91.3837 34.4174 91.377 34.8073Z" fill="white"/>
<path d="M48.0524 53.7735C47.0864 55.2633 45.6884 53.7735 42.7712 53.7735C39.8541 53.7735 38.4582 55.2633 37.491 53.7735C36.5544 52.3312 39.1384 48.7729 42.7712 48.7729C46.4041 48.7729 48.9885 52.3312 48.0524 53.7735Z" fill="white"/>
<path d="M72.7715 53.7735C71.8056 55.2633 70.4071 53.7735 67.4904 53.7735C64.5737 53.7735 63.1774 55.2633 62.2097 53.7735C61.2732 52.3312 63.8575 48.7729 67.4904 48.7729C71.1233 48.7729 73.7076 52.3312 72.7715 53.7735Z" fill="white"/>
<path d="M55.1311 60.5512C53.0956 60.5512 51.7503 58.9367 51.6958 58.8682C51.5532 58.689 51.4869 58.4608 51.5113 58.233C51.5357 58.0053 51.6488 57.7963 51.8262 57.6514C52.0035 57.5064 52.2308 57.4371 52.4589 57.4585C52.6869 57.4799 52.8974 57.5903 53.0446 57.7657C53.0499 57.7723 53.9324 58.8094 55.1311 58.8094C56.3298 58.8094 57.2123 57.7723 57.2211 57.7618C57.2928 57.6708 57.3821 57.595 57.4835 57.5389C57.5849 57.4829 57.6965 57.4476 57.8117 57.4352C57.9269 57.4228 58.0435 57.4335 58.1545 57.4667C58.2655 57.4999 58.3688 57.5549 58.4583 57.6285C58.5478 57.7021 58.6218 57.7928 58.6758 57.8954C58.7298 57.9979 58.7628 58.1102 58.7728 58.2257C58.7829 58.3411 58.7698 58.4574 58.7344 58.5677C58.6989 58.6781 58.6418 58.7802 58.5664 58.8682C58.5119 58.9367 57.1666 60.5512 55.1311 60.5512Z" fill="white"/>
<path d="M67.2659 84.4059L73.7966 82.6946C75.8059 83.6922 78.0266 84.2201 80.2852 84.2212H80.2933C88.346 84.2204 94.8991 77.6683 94.9024 69.6145C94.9037 65.7153 93.3831 62.0418 90.627 59.2835C87.8706 56.5247 84.1977 55.0019 80.2933 55C72.2398 55.0005 65.6847 61.5502 65.6812 69.604C65.6807 71.9794 66.2599 74.3031 67.3557 76.3911L65.6179 82.7422L65 85L67.2659 84.4059Z" fill="#25D366" stroke="#12499E" stroke-width="1.1"/>
<path fill-rule="evenodd" clip-rule="evenodd" d="M76.8625 63.8606C76.6053 63.2892 76.3349 63.2779 76.0901 63.2679C75.8903 63.2592 75.6613 63.2598 75.4327 63.2598C75.204 63.2598 74.8321 63.3458 74.5176 63.6892C74.2031 64.0324 73.3164 64.8626 73.3164 66.5508C73.3164 68.2394 74.5463 69.8706 74.7177 70.0999C74.8892 70.3286 77.0915 73.9039 80.5794 75.2793C83.4781 76.4224 84.0679 76.195 84.6972 76.1379C85.3265 76.0806 86.7275 75.308 87.0134 74.5067C87.2995 73.7054 87.2995 73.0188 87.2135 72.8752C87.1278 72.7322 86.899 72.6465 86.5558 72.4747C86.2126 72.3033 84.5255 71.4728 84.211 71.3584C83.8965 71.244 83.6677 71.187 83.4389 71.5304C83.2101 71.8736 82.553 72.6464 82.3526 72.8752C82.1525 73.1045 81.9524 73.1332 81.6089 72.9615C81.2658 72.7895 80.1606 72.4274 78.8495 71.2584C77.8295 70.3489 77.1407 69.2259 76.9406 68.8821C76.7402 68.539 76.9193 68.3532 77.0912 68.182C77.2454 68.0281 77.4344 67.7815 77.6061 67.5811C77.7773 67.3808 77.8344 67.2377 77.9488 67.0089C78.0631 66.7799 78.0061 66.5795 77.9204 66.4078C77.8344 66.236 77.1675 64.5391 76.8625 63.8606Z" fill="white"/>
</svg>
