<svg width="42" height="42" viewBox="0 0 42 42" fill="none" xmlns="http://www.w3.org/2000/svg">
<path d="M21 14C29.6985 14 36.75 11.6495 36.75 8.75C36.75 5.85051 29.6985 3.5 21 3.5C12.3015 3.5 5.25 5.85051 5.25 8.75C5.25 11.6495 12.3015 14 21 14Z" stroke="#12499E" stroke-width="1.5" stroke-linecap="round" stroke-linejoin="round"/>
<path d="M5.25001 21C5.24748 21.9785 6.06541 22.9378 7.61151 23.7696C9.1576 24.6014 11.3703 25.2726 14 25.7075" stroke="#12499E" stroke-width="1.5" stroke-linecap="round" stroke-linejoin="round"/>
<path d="M36.75 16.275V8.75" stroke="#12499E" stroke-width="1.5" stroke-linecap="round" stroke-linejoin="round"/>
<path d="M5.25 8.75V33.25C5.24889 34.3852 6.35167 35.4899 8.393 36.3986C10.4343 37.3073 13.3042 37.9709 16.5725 38.29" stroke="#12499E" stroke-width="1.5" stroke-linecap="round" stroke-linejoin="round"/>
<path d="M21 21V28H28" stroke="#12499E" stroke-width="1.5" stroke-linecap="round" stroke-linejoin="round"/>
<path d="M22.75 35C23.8519 36.4692 25.3881 37.5544 27.141 38.102C28.894 38.6496 30.7748 38.6317 32.517 38.051C34.2592 37.4702 35.7746 36.356 36.8484 34.8662C37.9222 33.3764 38.5 31.5865 38.5 29.75C38.5 27.6614 37.6703 25.6584 36.1935 24.1815C34.7166 22.7047 32.7136 21.875 30.625 21.875C28.2975 21.875 26.18 22.82 24.6575 24.3425L21 28" stroke="#12499E" stroke-width="1.5" stroke-linecap="round" stroke-linejoin="round"/>
</svg>
