<svg width="35" height="22" viewBox="0 0 35 22" fill="none" xmlns="http://www.w3.org/2000/svg">
<path opacity="0.07" d="M32.0656 0.00244141H2.91276C1.36402 0.00244141 0.179688 1.1867 0.179688 2.73534V19.1328C0.179688 20.6814 1.45512 21.8657 2.91276 21.8657H32.0656C33.6143 21.8657 34.7986 20.6814 34.7986 19.1328V2.73534C34.7986 1.1867 33.5232 0.00244141 32.0656 0.00244141Z" fill="black"/>
<path d="M32.0686 0.912598C33.0707 0.912598 33.8907 1.73247 33.8907 2.73453V19.132C33.8907 20.134 33.0707 20.9539 32.0686 20.9539H2.9158C1.91367 20.9539 1.09375 20.134 1.09375 19.132V2.73453C1.09375 1.73247 1.91367 0.912598 2.9158 0.912598H32.0686Z" fill="white"/>
<path d="M3.43422 6.52484H2.00391V11.5352H3.43422C4.19037 11.5352 4.73698 11.353 5.21983 10.9613C5.79377 10.4876 6.13085 9.777 6.13085 9.03911C6.12174 7.55424 5.0194 6.52484 3.43422 6.52484ZM4.58211 10.2963C4.27236 10.5695 3.88062 10.6971 3.2429 10.6971H2.9787V7.38115H3.2429C3.87151 7.38115 4.25414 7.49047 4.58211 7.78198C4.91919 8.0826 5.11961 8.54719 5.11961 9.03C5.11961 9.51282 4.91919 9.99563 4.58211 10.2963ZM6.57725 6.52484H7.55205V11.5352H6.57725V6.52484ZM9.93894 8.44699C9.35588 8.22835 9.18279 8.0826 9.18279 7.81842C9.18279 7.49958 9.49253 7.26273 9.91161 7.26273C10.2031 7.26273 10.4491 7.38115 10.6951 7.67266L11.2053 7.00766C10.7862 6.64327 10.2851 6.45197 9.7294 6.45197C8.84571 6.45197 8.16244 7.07142 8.16244 7.89129C8.16244 8.58363 8.4813 8.93891 9.39232 9.26686C9.77495 9.4035 9.96627 9.4946 10.0665 9.54926C10.2578 9.67679 10.358 9.85899 10.358 10.0685C10.358 10.4784 10.0391 10.7791 9.60186 10.7791C9.13723 10.7791 8.76371 10.5422 8.53596 10.1141L7.90735 10.7244C8.35375 11.3894 8.90037 11.6809 9.6383 11.6809C10.6495 11.6809 11.3692 11.0068 11.3692 10.0321C11.3875 9.22131 11.0504 8.85692 9.93894 8.44699ZM11.6881 9.03911C11.6881 10.5149 12.8451 11.6536 14.3301 11.6536C14.7491 11.6536 15.1136 11.5716 15.5509 11.3621V10.2143C15.1591 10.606 14.8129 10.7608 14.3756 10.7608C13.3917 10.7608 12.6902 10.0503 12.6902 9.03C12.6902 8.06438 13.4099 7.30828 14.3301 7.30828C14.7947 7.30828 15.15 7.47225 15.5509 7.87308V6.72526C15.1227 6.50662 14.7674 6.41553 14.3483 6.41553C12.8815 6.41553 11.6881 7.58157 11.6881 9.03911ZM23.3128 9.89542L21.9736 6.52484H20.9077L23.0304 11.6627H23.5588L25.7179 6.52484H24.6611L23.3128 9.89542ZM26.1643 11.5352H28.9338V10.688H27.1391V9.33973H28.87V8.49253H27.1391V7.38115H28.9338V6.52484H26.1643V11.5352ZM32.8057 8.00972C32.8057 7.07142 32.1588 6.53395 31.0292 6.53395H29.5806V11.5443H30.5554V9.53104H30.683L32.0313 11.5443H33.2339L31.6578 9.43083C32.3957 9.27597 32.8057 8.77493 32.8057 8.00972ZM30.8379 8.8387H30.5554V7.31739H30.8561C31.4665 7.31739 31.7944 7.57246 31.7944 8.06438C31.7944 8.56541 31.4665 8.8387 30.8379 8.8387Z" fill="#231F20"/>
<path d="M18.549 11.717C19.2571 11.717 19.9362 11.4357 20.437 10.935C20.9377 10.4343 21.219 9.75514 21.219 9.047C21.219 8.33886 20.9377 7.65972 20.437 7.15899C19.9362 6.65826 19.2571 6.37695 18.549 6.37695C17.8408 6.37695 17.1617 6.65826 16.6609 7.15899C16.1602 7.65972 15.8789 8.33886 15.8789 9.047C15.8789 9.75514 16.1602 10.4343 16.6609 10.935C17.1617 11.4357 17.8408 11.717 18.549 11.717Z" fill="url(#paint0_linear_2780_31415)"/>
<path opacity="0.65" d="M18.549 11.717C19.2571 11.717 19.9362 11.4357 20.437 10.935C20.9377 10.4343 21.219 9.75514 21.219 9.047C21.219 8.33886 20.9377 7.65972 20.437 7.15899C19.9362 6.65826 19.2571 6.37695 18.549 6.37695C17.8408 6.37695 17.1617 6.65826 16.6609 7.15899C16.1602 7.65972 15.8789 8.33886 15.8789 9.047C15.8789 9.75514 16.1602 10.4343 16.6609 10.935C17.1617 11.4357 17.8408 11.717 18.549 11.717Z" fill="url(#paint1_linear_2780_31415)"/>
<path d="M33.4972 6.83977C33.4972 6.74867 33.4335 6.70312 33.3333 6.70312H33.1875V7.14039H33.2968V6.96731L33.4244 7.14039H33.5519L33.4061 6.9582C33.4608 6.94909 33.4972 6.90354 33.4972 6.83977ZM33.315 6.90354H33.2968V6.78511H33.315C33.3697 6.78511 33.397 6.80333 33.397 6.83977C33.397 6.88532 33.3697 6.90354 33.315 6.90354Z" fill="#231F20"/>
<path d="M33.3514 6.53906C33.1418 6.53906 32.9688 6.71215 32.9688 6.92167C32.9688 7.13119 33.1418 7.30428 33.3514 7.30428C33.5609 7.30428 33.734 7.13119 33.734 6.92167C33.734 6.71215 33.5609 6.53906 33.3514 6.53906ZM33.3514 7.24051C33.1874 7.24051 33.0416 7.10386 33.0416 6.92167C33.0416 6.74859 33.1783 6.60283 33.3514 6.60283C33.5153 6.60283 33.652 6.74859 33.652 6.92167C33.652 7.09475 33.5153 7.24051 33.3514 7.24051Z" fill="#231F20"/>
<path d="M33.8899 11.8306C33.8899 11.8306 24.8617 18.1062 8.35938 20.9548H32.067C32.5477 20.9548 33.009 20.7649 33.3502 20.4263C33.6915 20.0878 33.8852 19.6281 33.889 19.1475L33.9109 16.3963L33.8899 11.8306Z" fill="#F48120"/>
<defs>
<linearGradient id="paint0_linear_2780_31415" x1="19.9127" y1="11.1841" x2="18.068" y2="8.29545" gradientUnits="userSpaceOnUse">
<stop stop-color="#F89F20"/>
<stop offset="0.25" stop-color="#F79A20"/>
<stop offset="0.533" stop-color="#F68D20"/>
<stop offset="0.62" stop-color="#F58720"/>
<stop offset="0.723" stop-color="#F48120"/>
<stop offset="1" stop-color="#F37521"/>
</linearGradient>
<linearGradient id="paint1_linear_2780_31415" x1="19.6221" y1="11.145" x2="16.9256" y2="5.8741" gradientUnits="userSpaceOnUse">
<stop stop-color="#F58720"/>
<stop offset="0.359" stop-color="#E16F27"/>
<stop offset="0.703" stop-color="#D4602C"/>
<stop offset="0.982" stop-color="#D05B2E"/>
</linearGradient>
</defs>
</svg>
