<svg width="42" height="42" viewBox="0 0 42 42" fill="none" xmlns="http://www.w3.org/2000/svg">
<path d="M37.695 26.25H29.75C28.8217 26.25 27.9315 26.6187 27.2751 27.2751C26.6187 27.9315 26.25 28.8217 26.25 29.75V37.695" stroke="#12499E" stroke-width="1.5" stroke-linecap="round" stroke-linejoin="round"/>
<path d="M12.25 5.84473V8.74973C12.25 10.1421 12.8031 11.4775 13.7877 12.462C14.7723 13.4466 16.1076 13.9997 17.5 13.9997C18.4283 13.9997 19.3185 14.3685 19.9749 15.0249C20.6313 15.6812 21 16.5715 21 17.4997C21 19.4247 22.575 20.9997 24.5 20.9997C25.4283 20.9997 26.3185 20.631 26.9749 19.9746C27.6313 19.3182 28 18.428 28 17.4997C28 15.5747 29.575 13.9997 31.5 13.9997H37.0475" stroke="#12499E" stroke-width="1.5" stroke-linecap="round" stroke-linejoin="round"/>
<path d="M19.2499 38.4125V31.5C19.2499 30.5717 18.8812 29.6815 18.2248 29.0251C17.5684 28.3688 16.6782 28 15.7499 28C14.8216 28 13.9314 27.6313 13.275 26.9749C12.6187 26.3185 12.2499 25.4283 12.2499 24.5V22.75C12.2499 21.8217 11.8812 20.9315 11.2248 20.2751C10.5684 19.6187 9.67816 19.25 8.7499 19.25H3.5874" stroke="#12499E" stroke-width="1.5" stroke-linecap="round" stroke-linejoin="round"/>
<path d="M21 38.5C30.665 38.5 38.5 30.665 38.5 21C38.5 11.335 30.665 3.5 21 3.5C11.335 3.5 3.5 11.335 3.5 21C3.5 30.665 11.335 38.5 21 38.5Z" stroke="#12499E" stroke-width="1.5" stroke-linecap="round" stroke-linejoin="round"/>
</svg>
