<svg width="45" height="45" viewBox="0 0 45 45" fill="none" xmlns="http://www.w3.org/2000/svg">
<path d="M35.3467 0.0288849C35.2881 0.0577545 35.2368 0.0938377 35.1929 0.137142C35.1489 0.180443 35.1123 0.216526 35.083 0.245396L34.9072 0.418602C34.9072 0.418602 34.9072 0.404167 34.9072 0.375301C34.9072 0.346432 34.8926 0.317566 34.8633 0.288696C34.8633 0.202095 34.8486 0.144356 34.8193 0.11549C34.79 0.0866203 34.7461 0.0721893 34.6875 0.0721893C34.5996 0.0433197 34.5337 0.0505371 34.4897 0.0938377C34.4458 0.137142 34.4238 0.230961 34.4238 0.375301C34.4238 0.461903 34.4238 0.512424 34.4238 0.526855C34.4238 0.54129 34.4092 0.548508 34.3799 0.548508C34.3213 0.548508 34.2773 0.555725 34.248 0.57016C34.2188 0.584595 34.1895 0.606243 34.1602 0.635113C34.1309 0.663979 34.1016 0.685631 34.0723 0.700066C34.043 0.714497 34.0283 0.707283 34.0283 0.678413C34.0283 0.678413 34.0283 0.663979 34.0283 0.635113C34.0283 0.606243 34.043 0.577377 34.0723 0.548508C34.0723 0.461903 34.0723 0.39695 34.0723 0.353649C34.0723 0.310349 34.0576 0.274261 34.0283 0.245396C33.9697 0.18766 33.9111 0.173225 33.8525 0.202095C33.7939 0.230961 33.6914 0.288696 33.5449 0.375301C33.457 0.433037 33.3911 0.476337 33.3472 0.505207C33.3032 0.534073 33.2373 0.548508 33.1494 0.548508C33.0908 0.548508 33.0322 0.562943 32.9736 0.591808C32.915 0.620678 32.8564 0.649548 32.7979 0.678413C32.71 0.707283 32.6074 0.786667 32.4902 0.916573C32.373 1.04648 32.2998 1.16917 32.2705 1.28464C32.2119 1.42898 32.1533 1.53002 32.0947 1.58775C32.0361 1.64549 31.9482 1.65992 31.8311 1.63105C31.7725 1.60218 31.7212 1.59497 31.6772 1.6094C31.6333 1.62384 31.5527 1.67435 31.4355 1.76096C31.2891 1.87643 31.1792 1.97025 31.106 2.04242C31.0327 2.11459 30.9814 2.19398 30.9521 2.28058C30.9229 2.36718 30.8936 2.43935 30.8643 2.49709C30.835 2.55482 30.791 2.59813 30.7324 2.627C30.6445 2.7136 30.5347 2.82907 30.4028 2.97341C30.271 3.11775 30.1025 3.31982 29.8975 3.57964C29.8682 3.63737 29.8096 3.70954 29.7217 3.79615C29.6338 3.88275 29.5605 3.94048 29.502 3.96935C29.4141 4.02709 29.3481 4.08482 29.3042 4.14256C29.2603 4.20029 29.2383 4.25803 29.2383 4.31577C29.209 4.34464 29.1504 4.41681 29.0625 4.53228C28.9746 4.64775 28.8721 4.76322 28.7549 4.87869C28.667 4.99416 28.5791 5.10963 28.4912 5.22511C28.4033 5.34058 28.3447 5.41275 28.3154 5.44162C28.2861 5.52822 28.2642 5.61482 28.2495 5.70143C28.2349 5.78803 28.2422 5.84576 28.2715 5.87463C28.2715 5.9035 28.2642 5.93237 28.2495 5.96124C28.2349 5.9901 28.1836 6.01897 28.0957 6.04784C27.9785 6.13445 27.8906 6.22105 27.832 6.30765C27.7734 6.39426 27.7441 6.49529 27.7441 6.61076C27.7734 6.6685 27.7954 6.72623 27.8101 6.78397C27.8247 6.84171 27.832 6.88501 27.832 6.91388C27.8613 6.94275 27.8687 6.97161 27.854 7.00048C27.8394 7.02935 27.7734 7.08709 27.6562 7.17369C27.5391 7.23142 27.4585 7.28916 27.4146 7.3469C27.3706 7.40463 27.3633 7.46237 27.3926 7.5201C27.3926 7.57784 27.3779 7.62114 27.3486 7.65001C27.3193 7.67887 27.2168 7.75105 27.041 7.86652C26.7188 8.03973 26.4771 8.21293 26.3159 8.38614C26.1548 8.55935 26.0596 8.71812 26.0303 8.86246C26.0303 9.0068 26.0449 9.07897 26.0742 9.07897C26.1035 9.07897 26.2061 9.02123 26.3818 8.90576C26.6162 8.70369 26.7847 8.581 26.8872 8.5377C26.9897 8.49439 27.0557 8.53048 27.085 8.64595C27.085 8.67482 27.0703 8.7109 27.041 8.7542C27.0117 8.79751 26.9678 8.84803 26.9092 8.90576C26.7627 9.0501 26.6309 9.14392 26.5137 9.18723C26.3965 9.23053 26.25 9.23774 26.0742 9.20887C25.9863 9.18001 25.9204 9.16557 25.8765 9.16557C25.8325 9.16557 25.752 9.18001 25.6348 9.20887C25.2539 9.38208 24.8804 9.56972 24.5142 9.7718C24.1479 9.97387 23.8037 10.1904 23.4814 10.4213H23.5254C23.2617 10.5945 23.0933 10.71 23.02 10.7677C22.9468 10.8255 22.9248 10.8688 22.9541 10.8976C22.9834 10.9842 22.998 11.0709 22.998 11.1575C22.998 11.2441 22.998 11.3018 22.998 11.3307C22.9688 11.3884 22.9395 11.4389 22.9102 11.4822C22.8809 11.5255 22.8516 11.5616 22.8223 11.5905C22.7637 11.6482 22.7124 11.7132 22.6685 11.7853C22.6245 11.8575 22.6025 11.9369 22.6025 12.0235L22.5146 12.4998C22.4854 12.673 22.4854 12.7741 22.5146 12.8029C22.5439 12.8318 22.6172 12.8462 22.7344 12.8462C22.8516 12.8462 22.9321 12.8534 22.9761 12.8679C23.02 12.8823 23.042 12.9184 23.042 12.9761C23.042 12.9761 23.0127 13.0194 22.9541 13.106C22.8955 13.1926 22.8223 13.2792 22.7344 13.3659C22.5586 13.5102 22.4561 13.604 22.4268 13.6473C22.3975 13.6906 22.3975 13.7267 22.4268 13.7556C22.4268 13.7844 22.4414 13.8061 22.4707 13.8205C22.5 13.835 22.5293 13.8566 22.5586 13.8855C22.6172 13.8855 22.6685 13.8855 22.7124 13.8855C22.7563 13.8855 22.8369 13.8566 22.9541 13.7989C22.9834 13.77 23.0054 13.7628 23.02 13.7772C23.0347 13.7917 23.0273 13.8422 22.998 13.9288C22.998 13.9865 22.9761 14.0442 22.9321 14.102C22.8882 14.1597 22.8076 14.2319 22.6904 14.3185C22.6318 14.3762 22.5952 14.434 22.5806 14.4917C22.5659 14.5494 22.5586 14.6505 22.5586 14.7948C22.5586 14.8814 22.5952 14.9608 22.6685 15.033C22.7417 15.1051 22.8516 15.1701 22.998 15.2278L23.3496 15.3577C23.4961 15.4732 23.7305 15.4516 24.0527 15.2928C24.375 15.134 24.7998 14.8381 25.3271 14.4051C25.5029 14.2608 25.6128 14.1597 25.6567 14.102C25.7007 14.0442 25.752 13.9576 25.8105 13.8422L25.9863 13.5391L26.0742 13.7123C26.0742 13.77 26.0815 13.835 26.0962 13.9071C26.1108 13.9793 26.1182 14.0587 26.1182 14.1453C26.1182 14.3185 26.1401 14.5133 26.1841 14.7299C26.228 14.9464 26.2646 15.1124 26.2939 15.2278C26.3232 15.2856 26.3599 15.3577 26.4038 15.4443C26.4478 15.5309 26.4844 15.6175 26.5137 15.7041C26.6016 15.7908 26.6528 15.8557 26.6675 15.899C26.6821 15.9423 26.6748 15.9784 26.6455 16.0073C26.6162 16.0939 26.6089 16.1588 26.6235 16.2021C26.6382 16.2454 26.6895 16.2959 26.7773 16.3537C26.8066 16.3825 26.8359 16.4114 26.8652 16.4403C26.8945 16.4691 26.9092 16.498 26.9092 16.5269C26.9092 16.5846 26.9385 16.664 26.9971 16.765C27.0557 16.8661 27.1289 16.9599 27.2168 17.0465C27.3047 17.1042 27.356 17.1548 27.3706 17.1981C27.3853 17.2414 27.3926 17.3208 27.3926 17.4362C27.4219 17.7249 27.4438 17.9775 27.4585 18.194C27.4731 18.4105 27.4951 18.5188 27.5244 18.5188C27.5244 18.5188 27.5537 18.5188 27.6123 18.5188C27.6709 18.5188 27.7441 18.5043 27.832 18.4755C28.0078 18.4466 28.1104 18.4177 28.1396 18.3889C28.1689 18.36 28.1982 18.2157 28.2275 17.9558C28.2275 17.8692 28.2349 17.7899 28.2495 17.7177C28.2642 17.6455 28.2861 17.595 28.3154 17.5661C28.3154 17.5373 28.3301 17.5156 28.3594 17.5012C28.3887 17.4867 28.4766 17.4795 28.623 17.4795C28.623 17.4795 28.6304 17.4795 28.645 17.4795C28.6597 17.4795 28.667 17.4795 28.667 17.4795C28.7549 17.4795 28.8281 17.4723 28.8867 17.4579C28.9453 17.4434 29.0039 17.4218 29.0625 17.3929C29.2969 17.2774 29.5166 17.0537 29.7217 16.7217C29.9268 16.3898 30.0293 16.1083 30.0293 15.8774L29.9854 15.2711C29.9268 14.9247 29.9268 14.701 29.9854 14.6C30.0439 14.4989 30.2344 14.3474 30.5566 14.1453C30.7617 14.0298 30.9082 13.9432 30.9961 13.8855C31.084 13.8277 31.1279 13.77 31.1279 13.7123L31.3037 13.3225C31.3916 13.0916 31.4355 12.9545 31.4355 12.9112C31.4355 12.8679 31.3916 12.8318 31.3037 12.8029C31.1865 12.7741 31.1206 12.7524 31.106 12.738C31.0913 12.7235 31.1133 12.673 31.1719 12.5864C31.2012 12.5575 31.2305 12.5287 31.2598 12.4998C31.2891 12.4709 31.3037 12.4421 31.3037 12.4132C31.3037 12.3843 31.2744 12.3555 31.2158 12.3266C31.1572 12.2977 31.0254 12.2689 30.8203 12.24C30.5859 12.2111 30.4468 12.1895 30.4028 12.175C30.3589 12.1606 30.3223 12.1245 30.293 12.0668C30.2637 12.0091 30.2563 11.9225 30.271 11.807C30.2856 11.6915 30.3076 11.5472 30.3369 11.374L30.3809 10.8976C30.3809 10.8399 30.4028 10.7677 30.4468 10.6811C30.4907 10.5945 30.6006 10.4213 30.7764 10.1615C31.04 9.69963 31.3184 9.26661 31.6113 8.86246C31.9043 8.45831 32.2119 8.06859 32.5342 7.69331L32.4902 7.73661C32.5488 7.67887 32.5928 7.64279 32.6221 7.62836C32.6514 7.61392 32.6807 7.62114 32.71 7.65001C32.7686 7.65001 32.7979 7.63557 32.7979 7.60671C32.7979 7.57784 32.7686 7.44793 32.71 7.21699C32.6807 7.15926 32.6587 7.10152 32.644 7.04378C32.6294 6.98605 32.6074 6.91388 32.5781 6.82727C32.5781 6.76954 32.6001 6.73345 32.644 6.71902C32.688 6.70459 32.7979 6.6685 32.9736 6.61076C33.1787 6.55303 33.2886 6.51694 33.3032 6.50251C33.3179 6.48808 33.3105 6.43756 33.2812 6.35095C33.1934 6.23548 33.1641 6.15609 33.1934 6.11279C33.2227 6.06949 33.2959 5.9901 33.4131 5.87463L33.6768 5.70143L33.9844 5.83133L34.4678 6.04784C34.5264 6.10558 34.5996 6.17053 34.6875 6.2427C34.7754 6.31487 34.8193 6.36539 34.8193 6.39426C34.8193 6.39426 34.812 6.40147 34.7974 6.4159C34.7827 6.43034 34.7607 6.43756 34.7314 6.43756C34.6436 6.46643 34.5557 6.52416 34.4678 6.61076C34.3799 6.69737 34.3066 6.7984 34.248 6.91388C34.1895 7.02935 34.1235 7.1809 34.0503 7.36855C33.9771 7.55619 33.9404 7.70774 33.9404 7.82322C33.9111 7.88095 33.8892 7.92425 33.8745 7.95312C33.8599 7.98199 33.8379 7.99642 33.8086 7.99642C33.75 7.99642 33.7134 8.01807 33.6987 8.06137C33.6841 8.10468 33.6914 8.1552 33.7207 8.21293C33.75 8.2418 33.7646 8.26345 33.7646 8.27789C33.7646 8.29232 33.7354 8.31397 33.6768 8.34284C33.6182 8.3717 33.5596 8.41501 33.501 8.47274C33.4424 8.53048 33.3838 8.58821 33.3252 8.64595C33.2666 8.73256 33.2007 8.81194 33.1274 8.88411C33.0542 8.95628 32.9883 9.0068 32.9297 9.03567C32.8711 9.0934 32.8345 9.12949 32.8198 9.14392C32.8052 9.15836 32.7979 9.19444 32.7979 9.25218C32.7979 9.30991 32.7905 9.36043 32.7759 9.40373C32.7612 9.44703 32.7393 9.49755 32.71 9.55529V9.51199C32.6807 9.59859 32.6587 9.67076 32.644 9.7285C32.6294 9.78623 32.6367 9.88727 32.666 10.0316L32.7539 10.6811C32.7832 10.8832 32.8125 11.0781 32.8418 11.2657C32.8711 11.4534 32.9004 11.5905 32.9297 11.6771C32.9883 11.8214 33.0469 11.9225 33.1055 11.9802C33.1641 12.0379 33.3105 12.1245 33.5449 12.24C33.6621 12.3266 33.772 12.3988 33.8745 12.4565C33.9771 12.5142 34.043 12.5431 34.0723 12.5431C34.0723 12.5431 34.1016 12.5503 34.1602 12.5648C34.2188 12.5792 34.2773 12.572 34.3359 12.5431C34.5117 12.5431 34.6875 12.4998 34.8633 12.4132C35.0391 12.3266 35.3027 12.139 35.6543 11.8503C36.0059 11.5905 36.2695 11.41 36.4453 11.309C36.6211 11.208 36.7822 11.1575 36.9287 11.1575C37.0459 11.1286 37.1558 11.0709 37.2583 10.9842C37.3608 10.8976 37.5439 10.7244 37.8076 10.4646C37.9834 10.2626 38.1299 10.0749 38.2471 9.9017C38.3643 9.7285 38.4814 9.51199 38.5986 9.25218C38.6865 9.07897 38.7378 8.92741 38.7524 8.79751C38.7671 8.6676 38.7598 8.54491 38.7305 8.42944C38.6426 8.25623 38.54 8.11911 38.4229 8.01807C38.3057 7.91704 38.1592 7.83765 37.9834 7.77991L37.8516 7.73661L37.8955 7.65001C37.9248 7.59227 37.9395 7.54176 37.9395 7.49845C37.9395 7.45515 37.9395 7.40463 37.9395 7.3469C37.9395 7.28916 37.9395 7.24586 37.9395 7.21699C37.9395 7.18812 37.9688 7.13039 38.0273 7.04378L38.1152 6.91388L37.8076 6.87057L37.4561 6.82727C37.4561 6.82727 37.4487 6.80562 37.4341 6.76232C37.4194 6.71902 37.3975 6.68293 37.3682 6.65407C37.3682 6.56746 37.3608 6.50973 37.3462 6.48086C37.3315 6.45199 37.2949 6.42312 37.2363 6.39426C37.207 6.39426 37.1704 6.37982 37.1265 6.35095C37.0825 6.32209 37.0459 6.29322 37.0166 6.26435L36.9727 6.13445L37.1045 5.65812L37.2803 5.1818L36.8848 4.74879C36.7969 4.63332 36.709 4.52506 36.6211 4.42402C36.5332 4.32298 36.4746 4.25803 36.4453 4.22916C36.416 4.17143 36.4014 4.10648 36.4014 4.03431C36.4014 3.96214 36.416 3.83945 36.4453 3.66624L36.5332 3.40643L36.2695 3.18992C36.1816 3.10332 36.1084 3.03115 36.0498 2.97341C35.9912 2.91568 35.9326 2.88681 35.874 2.88681L35.6982 2.84351L35.6104 2.36718L35.4785 1.84756C35.4785 1.8187 35.4932 1.79704 35.5225 1.78261C35.5518 1.76818 35.5957 1.76096 35.6543 1.76096C35.7129 1.73209 35.7715 1.69601 35.8301 1.65271C35.8887 1.6094 35.9619 1.54445 36.0498 1.45785L36.3135 1.19804L36.2256 1.15474C36.1963 1.12587 36.1597 1.10421 36.1157 1.08978C36.0718 1.07535 36.0352 1.06813 36.0059 1.06813C36.0059 1.06813 35.9985 1.06813 35.9839 1.06813C35.9692 1.06813 35.9619 1.06813 35.9619 1.06813C35.9033 1.06813 35.8594 1.06813 35.8301 1.06813C35.8008 1.06813 35.7568 1.0537 35.6982 1.02483H35.7422C35.6836 0.99596 35.6616 0.981525 35.6763 0.981525C35.6909 0.981525 35.7129 0.967091 35.7422 0.938225C35.8008 0.909355 35.8447 0.873272 35.874 0.829971C35.9033 0.786667 35.918 0.736149 35.918 0.678413C35.918 0.649548 35.9253 0.627895 35.9399 0.613461C35.9546 0.599026 36.0059 0.577377 36.0938 0.548508C36.2402 0.519642 36.3208 0.49799 36.3354 0.483555C36.3501 0.46912 36.3281 0.433037 36.2695 0.375301C36.2109 0.288696 36.1084 0.209309 35.9619 0.137142C35.8154 0.0649719 35.6982 0.0288849 35.6104 0.0288849C35.5518 1.90735e-05 35.5005 -0.00719833 35.4565 0.00723648C35.4126 0.0216675 35.376 0.0288849 35.3467 0.0288849ZM10.7373 2.88681C10.7373 2.91568 10.7373 2.93732 10.7373 2.95176C10.7373 2.96619 10.7373 2.98785 10.7373 3.01671C10.7373 3.07445 10.73 3.10332 10.7153 3.10332C10.7007 3.10332 10.6641 3.07445 10.6055 3.01671L10.5176 2.93011L10.2539 3.06001C10.1074 3.11775 9.96826 3.18992 9.83643 3.27652C9.70459 3.36313 9.62402 3.42086 9.59473 3.44973C9.59473 3.53633 9.62402 3.60851 9.68262 3.66624C9.74121 3.72398 9.8584 3.78171 10.0342 3.83945C10.1221 3.86832 10.1733 3.89718 10.188 3.92605C10.2026 3.95492 10.166 3.99822 10.0781 4.05596C10.0488 4.08482 10.0122 4.10648 9.96826 4.12091C9.92432 4.13534 9.87305 4.12813 9.81445 4.09926C9.72656 4.09926 9.6167 4.09926 9.48486 4.09926C9.35303 4.09926 9.25781 4.11369 9.19922 4.14256C9.16992 4.17143 9.14062 4.21473 9.11133 4.27246C9.08203 4.3302 9.06738 4.38794 9.06738 4.44567C9.09668 4.50341 9.11865 4.53228 9.1333 4.53228C9.14795 4.53228 9.19922 4.53228 9.28711 4.53228C9.43359 4.53228 9.54346 4.55393 9.6167 4.59723C9.68994 4.64053 9.72656 4.71992 9.72656 4.83539C9.72656 4.86426 9.71924 4.90034 9.70459 4.94365C9.68994 4.98695 9.65332 5.02303 9.59473 5.0519C9.53613 5.1385 9.49219 5.1818 9.46289 5.1818C9.43359 5.1818 9.375 5.1818 9.28711 5.1818C9.16992 5.1818 9.104 5.18902 9.08936 5.20346C9.07471 5.21789 9.05273 5.28284 9.02344 5.39831V5.57152L9.19922 5.61482C9.3457 5.61482 9.47754 5.65812 9.59473 5.74473C9.71191 5.83133 9.84375 5.96124 9.99023 6.13445C10.166 6.30765 10.3052 6.43756 10.4077 6.52416C10.5103 6.61076 10.6201 6.6685 10.7373 6.69737C10.7666 6.69737 10.8325 6.69015 10.9351 6.67572C11.0376 6.66128 11.1475 6.63963 11.2646 6.61076C11.499 6.55303 11.6968 6.51694 11.8579 6.50251C12.019 6.48808 12.1436 6.49529 12.2314 6.52416C12.2607 6.55303 12.29 6.56025 12.3193 6.54581C12.3486 6.53138 12.4072 6.50973 12.4951 6.48086C12.5244 6.45199 12.605 6.4159 12.7368 6.3726C12.8687 6.3293 13.0078 6.29322 13.1543 6.26435C13.4766 6.14888 13.7036 6.06227 13.8354 6.00454C13.9673 5.9468 14.0771 5.87463 14.165 5.78803C14.3115 5.67256 14.3921 5.53543 14.4067 5.37666C14.4214 5.21789 14.3994 5.0519 14.3408 4.87869C14.2822 4.76322 14.2529 4.67662 14.2529 4.61888C14.2529 4.56115 14.2822 4.51784 14.3408 4.48898C14.3701 4.46011 14.3848 4.40959 14.3848 4.33742C14.3848 4.26525 14.3701 4.20029 14.3408 4.14256C14.2822 4.11369 14.2456 4.09204 14.231 4.07761C14.2163 4.06318 14.1943 4.07039 14.165 4.09926L14.0332 4.18586V4.05596C14.0039 3.96935 13.9673 3.89718 13.9233 3.83945C13.8794 3.78171 13.8281 3.73841 13.7695 3.70954C13.7109 3.70954 13.667 3.72398 13.6377 3.75284C13.6084 3.78171 13.5791 3.83945 13.5498 3.92605C13.5205 4.01265 13.4985 4.05596 13.4839 4.05596C13.4692 4.05596 13.4473 4.02709 13.418 3.96935C13.3887 3.91162 13.3521 3.87553 13.3081 3.8611C13.2642 3.84666 13.2129 3.86832 13.1543 3.92605L12.9785 3.96935C12.9785 3.99822 12.9785 4.00544 12.9785 3.991C12.9785 3.97657 12.9785 3.95492 12.9785 3.92605C12.9785 3.86832 12.9346 3.82501 12.8467 3.79615C12.7588 3.76728 12.6416 3.75284 12.4951 3.75284C12.3193 3.75284 12.2021 3.76006 12.1436 3.77449C12.085 3.78893 12.041 3.82501 12.0117 3.88275C11.9824 3.94048 11.9604 3.96935 11.9458 3.96935C11.9312 3.96935 11.9385 3.94048 11.9678 3.88275C11.9971 3.82501 12.0117 3.76728 12.0117 3.70954C12.0117 3.65181 11.9971 3.60851 11.9678 3.57964C11.9385 3.57964 11.9165 3.57964 11.9019 3.57964C11.8872 3.57964 11.8652 3.57964 11.8359 3.57964C11.8359 3.57964 11.8213 3.57964 11.792 3.57964C11.7627 3.57964 11.748 3.57964 11.748 3.57964C11.6602 3.57964 11.6016 3.59407 11.5723 3.62294C11.543 3.65181 11.499 3.70954 11.4404 3.79615C11.4111 3.91162 11.3818 3.97657 11.3525 3.991C11.3232 4.00544 11.2793 4.02709 11.2207 4.05596H11.0889L11.1768 3.83945C11.2646 3.66624 11.3013 3.50025 11.2866 3.34148C11.272 3.1827 11.2061 3.04558 11.0889 2.93011C11.0303 2.87237 10.9644 2.83629 10.8911 2.82185C10.8179 2.80742 10.7666 2.82907 10.7373 2.88681ZM36.4453 12.4998C36.2988 12.4998 36.1157 12.5359 35.896 12.6081C35.6763 12.6802 35.4932 12.7452 35.3467 12.8029C35.2588 12.8318 35.1709 12.8679 35.083 12.9112C34.9951 12.9545 34.9219 13.005 34.8633 13.0627C34.6875 13.1782 34.5923 13.272 34.5776 13.3442C34.563 13.4164 34.6143 13.4958 34.7314 13.5824C34.79 13.669 34.8267 13.7267 34.8413 13.7556C34.856 13.7844 34.8633 13.8566 34.8633 13.9721C34.8633 14.1453 34.8926 14.2463 34.9512 14.2752C35.0098 14.3041 35.127 14.2752 35.3027 14.1886C35.3613 14.1597 35.3979 14.1453 35.4126 14.1453C35.4272 14.1453 35.4492 14.1742 35.4785 14.2319C35.5078 14.2608 35.5225 14.2824 35.5225 14.2968C35.5225 14.3113 35.5078 14.3474 35.4785 14.4051C35.4492 14.4628 35.4346 14.5711 35.4346 14.7299C35.4346 14.8886 35.4492 15.0546 35.4785 15.2278C35.4785 15.401 35.4712 15.5237 35.4565 15.5959C35.4419 15.6681 35.3906 15.7186 35.3027 15.7475C35.2148 15.8052 35.1123 15.798 34.9951 15.7258C34.8779 15.6536 34.7607 15.5309 34.6436 15.3577L34.4678 15.1412H34.248C34.2188 15.1412 34.2041 15.1412 34.2041 15.1412C34.2041 15.1412 34.1895 15.1412 34.1602 15.1412C34.1309 15.1412 34.0869 15.1412 34.0283 15.1412C33.9697 15.1412 33.9258 15.1268 33.8965 15.0979V15.1412C33.8672 15.1124 33.8379 15.1051 33.8086 15.1196C33.7793 15.134 33.7354 15.1701 33.6768 15.2278C33.5303 15.4299 33.4058 15.6536 33.3032 15.899C33.2007 16.1444 33.1201 16.397 33.0615 16.6568V16.7001L33.1055 16.9599C33.1348 16.9888 33.1641 17.0609 33.1934 17.1764C33.2227 17.2919 33.2373 17.3929 33.2373 17.4795C33.2666 17.6527 33.2959 17.7682 33.3252 17.8259C33.3545 17.8837 33.3838 17.9414 33.4131 17.9991C33.4717 18.0569 33.5156 18.0858 33.5449 18.0858C33.5742 18.0858 33.6768 18.0858 33.8525 18.0858C34.0283 18.0569 34.1309 18.0569 34.1602 18.0858C34.1895 18.1146 34.2041 18.2012 34.2041 18.3456C34.2041 18.3744 34.1968 18.4249 34.1821 18.4971C34.1675 18.5693 34.1455 18.6342 34.1162 18.692C34.0869 18.7786 34.0723 18.8435 34.0723 18.8868C34.0723 18.9301 34.0723 18.9951 34.0723 19.0817V19.3415L33.9404 19.3848C33.8818 19.3848 33.8452 19.3848 33.8306 19.3848C33.8159 19.3848 33.7939 19.3415 33.7646 19.2549L33.6768 19.125L33.3691 19.1683C33.1348 19.1972 32.915 19.226 32.71 19.2549C32.5049 19.2838 32.3291 19.3126 32.1826 19.3415C32.0361 19.3704 31.9263 19.3776 31.853 19.3632C31.7798 19.3487 31.6553 19.2693 31.4795 19.125C31.4209 19.0673 31.3623 19.0167 31.3037 18.9734C31.2451 18.9301 31.2012 18.9085 31.1719 18.9085C31.084 18.9085 30.9302 18.959 30.7104 19.06C30.4907 19.1611 30.293 19.2549 30.1172 19.3415L29.3262 19.7745C29.209 19.8323 29.0991 19.89 28.9966 19.9477C28.894 20.0055 28.8135 20.0343 28.7549 20.0343C28.7256 20.0632 28.6743 20.0993 28.6011 20.1426C28.5278 20.1859 28.4619 20.2364 28.4033 20.2941C28.2861 20.3807 28.2202 20.4313 28.2056 20.4457C28.1909 20.4601 28.1836 20.4529 28.1836 20.424C28.1836 20.3374 28.1616 20.2725 28.1177 20.2292C28.0737 20.1859 28.0078 20.1354 27.9199 20.0776L27.7002 19.991C27.7002 19.991 27.7075 19.9838 27.7222 19.9694C27.7368 19.9549 27.7588 19.9333 27.7881 19.9044C27.7881 19.8756 27.8027 19.8395 27.832 19.7962C27.8613 19.7529 27.876 19.7312 27.876 19.7312C27.876 19.6446 27.8394 19.5364 27.7661 19.4065C27.6929 19.2766 27.627 19.1972 27.5684 19.1683C27.5098 19.1106 27.4658 19.0889 27.4365 19.1033C27.4072 19.1178 27.3486 19.1539 27.2607 19.2116C27.2021 19.2693 27.1729 19.3271 27.1729 19.3848C27.1729 19.4425 27.2021 19.4858 27.2607 19.5147C27.3193 19.5436 27.3486 19.5724 27.3486 19.6013C27.3486 19.6302 27.3047 19.659 27.2168 19.6879C27.0996 19.8034 26.9458 19.8828 26.7554 19.9261C26.5649 19.9694 26.4111 19.9766 26.2939 19.9477C26.2646 19.9189 26.2427 19.9116 26.228 19.9261C26.2134 19.9405 26.1768 19.991 26.1182 20.0776C26.0596 20.1642 26.0229 20.2148 26.0083 20.2292C25.9937 20.2436 25.957 20.2508 25.8984 20.2508C25.8691 20.2508 25.8398 20.2436 25.8105 20.2292C25.7812 20.2148 25.752 20.2075 25.7227 20.2075C25.7227 20.2075 25.7227 20.1931 25.7227 20.1642C25.7227 20.1354 25.7227 20.1065 25.7227 20.0776C25.7227 20.0199 25.708 19.9838 25.6787 19.9694C25.6494 19.9549 25.5762 19.9189 25.459 19.8611L25.0635 19.7745C25.0049 19.7457 24.9536 19.724 24.9097 19.7096C24.8657 19.6951 24.8438 19.6879 24.8438 19.6879C24.873 19.659 24.8877 19.6374 24.8877 19.623C24.8877 19.6085 24.9023 19.5869 24.9316 19.558H24.8877C24.917 19.5291 24.939 19.5003 24.9536 19.4714C24.9683 19.4425 24.9756 19.3992 24.9756 19.3415C24.9756 19.2838 24.9609 19.2405 24.9316 19.2116C24.9023 19.1827 24.8438 19.1394 24.7559 19.0817L24.4922 18.9951C24.4629 18.9951 24.4702 18.9662 24.5142 18.9085C24.5581 18.8507 24.6094 18.793 24.668 18.7353C24.7852 18.5909 24.9023 18.4249 25.0195 18.2373C25.1367 18.0497 25.2246 17.8837 25.2832 17.7393C25.3125 17.6527 25.3418 17.595 25.3711 17.5661C25.4004 17.5373 25.4883 17.494 25.6348 17.4362C25.8105 17.3208 25.8911 17.2414 25.8765 17.1981C25.8618 17.1548 25.7373 17.1042 25.5029 17.0465C25.4443 17.0465 25.3931 17.0393 25.3491 17.0249C25.3052 17.0104 25.2832 16.9888 25.2832 16.9599C25.2539 16.9599 25.2466 16.931 25.2612 16.8733C25.2759 16.8156 25.2979 16.7434 25.3271 16.6568C25.3857 16.5124 25.4297 16.3465 25.459 16.1588C25.4883 15.9712 25.4883 15.8774 25.459 15.8774C25.4297 15.8774 25.3564 15.9134 25.2393 15.9856C25.1221 16.0578 25.0488 16.1227 25.0195 16.1805C25.0195 16.2093 25.0049 16.231 24.9756 16.2454C24.9463 16.2599 24.8877 16.2671 24.7998 16.2671L24.4043 16.3104H24.1846L24.0088 16.5702L23.7891 16.8733C23.7891 16.931 23.811 16.9599 23.855 16.9599C23.8989 16.9599 23.9502 16.9455 24.0088 16.9166C24.0674 16.8877 24.1333 16.8589 24.2065 16.83C24.2798 16.8011 24.3457 16.7867 24.4043 16.7867C24.4336 16.7867 24.4629 16.7939 24.4922 16.8083C24.5215 16.8228 24.5508 16.83 24.5801 16.83C24.6387 16.83 24.6826 16.8372 24.7119 16.8516C24.7412 16.8661 24.7559 16.8733 24.7559 16.8733C24.7559 16.9022 24.6899 16.9455 24.5581 17.0032C24.4263 17.0609 24.3311 17.0898 24.2725 17.0898C24.2432 17.0898 24.2212 17.0898 24.2065 17.0898C24.1919 17.0898 24.1846 17.0898 24.1846 17.0898C24.126 17.0898 24.0674 17.0898 24.0088 17.0898C23.9502 17.0898 23.9062 17.0754 23.877 17.0465V17.0898C23.8184 17.0609 23.7671 17.0393 23.7231 17.0249C23.6792 17.0104 23.6572 17.0176 23.6572 17.0465C23.6279 17.1331 23.6133 17.2269 23.6133 17.328C23.6133 17.429 23.6133 17.5228 23.6133 17.6094C23.6133 17.6383 23.6133 17.6672 23.6133 17.696C23.6133 17.7249 23.6133 17.7538 23.6133 17.7826C23.6133 18.1579 23.6206 18.3816 23.6353 18.4538C23.6499 18.526 23.6719 18.5909 23.7012 18.6487C23.7305 18.7064 23.7451 18.7641 23.7451 18.8219C23.7451 18.8796 23.7451 18.9807 23.7451 19.125C23.7451 19.2982 23.7671 19.457 23.811 19.6013C23.855 19.7457 23.9062 19.8756 23.9648 19.991C24.0234 20.0488 24.0527 20.0921 24.0527 20.1209C24.0527 20.1498 24.0381 20.1931 24.0088 20.2508C23.9795 20.3086 23.9355 20.3591 23.877 20.4024C23.8184 20.4457 23.7744 20.4385 23.7451 20.3807C23.7158 20.3519 23.6865 20.3519 23.6572 20.3807C23.6279 20.4096 23.6133 20.4529 23.6133 20.5107C23.6133 20.5395 23.6133 20.5756 23.6133 20.6189C23.6133 20.6622 23.5986 20.6983 23.5693 20.7272C23.5693 20.7849 23.562 20.821 23.5474 20.8354C23.5327 20.8498 23.4961 20.8571 23.4375 20.8571C23.3789 20.8571 23.3276 20.8426 23.2837 20.8138C23.2397 20.7849 23.1885 20.7272 23.1299 20.6406L22.9102 20.424L22.7344 20.5973L22.5146 20.8138C22.4854 20.8426 22.4634 20.8571 22.4487 20.8571C22.4341 20.8571 22.3975 20.8571 22.3389 20.8571C22.1924 20.8282 21.9946 20.8354 21.7456 20.8787C21.4966 20.922 21.3135 20.987 21.1963 21.0736C21.1377 21.1313 21.1084 21.1818 21.1084 21.2251C21.1084 21.2684 21.123 21.4056 21.1523 21.6365C21.1523 21.6942 21.1523 21.7375 21.1523 21.7664C21.1523 21.7953 21.1377 21.8241 21.1084 21.853C21.0498 21.9107 21.0132 21.9468 20.9985 21.9613C20.9839 21.9757 20.9326 21.9685 20.8447 21.9396H20.6689L20.5811 21.2901L20.4492 21.5066L20.1855 21.9829C20.0684 22.185 19.9658 22.3365 19.8779 22.4376C19.79 22.5386 19.6582 22.6469 19.4824 22.7623C19.3359 22.849 19.2261 22.9283 19.1528 23.0005C19.0796 23.0727 19.043 23.1232 19.043 23.1521C18.8379 23.2387 18.6475 23.3181 18.4717 23.3902C18.2959 23.4624 18.1348 23.5418 17.9883 23.6284H18.0322C18.0322 23.6284 18.0249 23.6284 18.0103 23.6284C17.9956 23.6284 17.9883 23.6284 17.9883 23.6284C17.959 23.6284 17.9443 23.6284 17.9443 23.6284C17.9443 23.6284 17.9297 23.6284 17.9004 23.6284C17.8711 23.5995 17.7539 23.5923 17.5488 23.6067C17.3438 23.6212 17.2119 23.6428 17.1533 23.6717C17.0947 23.7006 17.0435 23.7511 16.9995 23.8232C16.9556 23.8954 16.9043 24.0325 16.8457 24.2346C16.7578 24.4367 16.6699 24.5882 16.582 24.6893C16.4941 24.7903 16.3477 24.8697 16.1426 24.9274C16.084 24.9563 16.04 24.9707 16.0107 24.9707C15.9814 24.9707 15.9375 24.9563 15.8789 24.9274C15.8203 24.8986 15.7617 24.8986 15.7031 24.9274C15.6445 24.9563 15.5713 25.0429 15.4834 25.1873C15.3955 25.3027 15.3223 25.3749 15.2637 25.4038C15.2051 25.4326 15.1172 25.4182 15 25.3605C14.9121 25.3027 14.8462 25.245 14.8022 25.1873C14.7583 25.1295 14.7363 25.0429 14.7363 24.9274V24.7542L14.5605 24.7975C14.4727 24.7975 14.4141 24.7975 14.3848 24.7975C14.3555 24.7975 14.3115 24.7831 14.2529 24.7542C14.165 24.6965 14.0991 24.6748 14.0552 24.6893C14.0112 24.7037 13.96 24.7542 13.9014 24.8408C13.8721 24.8986 13.8501 24.9563 13.8354 25.014C13.8208 25.0718 13.8135 25.1295 13.8135 25.1873C13.8135 25.245 13.8208 25.2955 13.8354 25.3388C13.8501 25.3821 13.8721 25.4326 13.9014 25.4904C13.9307 25.5481 13.9453 25.5914 13.9453 25.6203C13.9453 25.6491 13.9307 25.7069 13.9014 25.7935C13.9014 25.8512 13.894 25.9017 13.8794 25.945C13.8647 25.9883 13.8428 26.0244 13.8135 26.0533C13.7842 26.0822 13.7476 26.1038 13.7036 26.1182C13.6597 26.1327 13.5645 26.1255 13.418 26.0966H13.0225C12.9932 26.0677 12.9639 26.0389 12.9346 26.01C12.9053 25.9811 12.876 25.9522 12.8467 25.9234V25.8801L12.7588 25.7502L11.1328 25.7935L11.001 25.8801C11.001 25.9089 10.9937 25.9378 10.979 25.9667C10.9644 25.9956 10.9424 26.0244 10.9131 26.0533C10.9131 26.0822 10.9277 26.1038 10.957 26.1182C10.9863 26.1327 11.0156 26.1543 11.0449 26.1832L11.2207 26.2698L11.0449 26.3564L10.8252 26.443C10.7959 26.443 10.7739 26.4502 10.7593 26.4647C10.7446 26.4791 10.7373 26.4863 10.7373 26.4863C10.7373 26.544 10.7593 26.609 10.8032 26.6812C10.8472 26.7533 10.9131 26.8183 11.001 26.876C11.0596 26.9338 11.1035 26.9698 11.1328 26.9843C11.1621 26.9987 11.2354 27.0059 11.3525 27.0059C11.4404 26.9771 11.5063 26.9698 11.5503 26.9843C11.5942 26.9987 11.6602 27.0204 11.748 27.0492C11.8359 27.1358 11.9312 27.2369 12.0337 27.3523C12.1362 27.4678 12.2314 27.6122 12.3193 27.7854C12.3486 27.9008 12.3853 27.9802 12.4292 28.0235C12.4731 28.0668 12.5098 28.1029 12.5391 28.1318L12.7148 28.2184C12.7148 28.2184 12.7075 28.2328 12.6929 28.2617C12.6782 28.2905 12.6562 28.3338 12.627 28.3916L12.5391 28.5215L12.627 28.7813C12.6562 28.8679 12.6855 28.9617 12.7148 29.0628C12.7441 29.1638 12.7734 29.2865 12.8027 29.4308C12.8027 29.5752 12.8174 29.7051 12.8467 29.8205C12.876 29.936 12.8906 30.0371 12.8906 30.1237C12.9199 30.2103 12.9346 30.268 12.9346 30.2969C12.9346 30.3257 12.9053 30.3835 12.8467 30.4701C12.7881 30.5567 12.7002 30.7227 12.583 30.968C12.4658 31.2134 12.3633 31.466 12.2754 31.7258C12.2168 31.899 12.1655 32.0217 12.1216 32.0939C12.0776 32.1661 11.9824 32.2743 11.8359 32.4187C11.7188 32.5341 11.5649 32.6785 11.3745 32.8517C11.1841 33.0249 11.0449 33.1404 10.957 33.1981C10.8984 33.1981 10.8472 33.1909 10.8032 33.1764C10.7593 33.162 10.708 33.1404 10.6494 33.1115H10.6934L9.94629 32.895C9.62402 32.8661 9.32373 32.8012 9.04541 32.7001C8.76709 32.5991 8.49609 32.4908 8.23242 32.3754H8.27637C8.04199 32.2599 7.85156 32.1805 7.70508 32.1372C7.55859 32.0939 7.44141 32.0722 7.35352 32.0722C7.35352 32.0722 7.34619 32.0722 7.33154 32.0722C7.31689 32.0722 7.30957 32.0722 7.30957 32.0722C7.28027 32.0722 7.24365 32.0722 7.19971 32.0722C7.15576 32.0722 7.11914 32.0578 7.08984 32.0289C7.03125 32.0001 6.96533 31.9784 6.89209 31.964C6.81885 31.9496 6.75293 31.9279 6.69434 31.899H6.65039C6.5332 31.899 6.41602 31.8702 6.29883 31.8124C6.18164 31.7547 6.0791 31.6825 5.99121 31.5959C5.93262 31.5671 5.87402 31.5382 5.81543 31.5093C5.75684 31.4804 5.71289 31.466 5.68359 31.466C5.5957 31.466 5.52979 31.4804 5.48584 31.5093C5.44189 31.5382 5.39062 31.5959 5.33203 31.6825L5.24414 31.8124L4.89258 31.8557C4.6582 31.8846 4.48975 31.9279 4.38721 31.9856C4.28467 32.0434 4.21875 32.1588 4.18945 32.3321C4.16016 32.3898 4.14551 32.4331 4.14551 32.462C4.14551 32.4908 4.1748 32.5486 4.2334 32.6352C4.2334 32.664 4.24072 32.7001 4.25537 32.7434C4.27002 32.7867 4.29199 32.8228 4.32129 32.8517C4.29199 32.9094 4.2627 32.9599 4.2334 33.0032C4.2041 33.0465 4.1748 33.0826 4.14551 33.1115C4.08691 33.1692 4.04297 33.227 4.01367 33.2847C3.98438 33.3424 3.96973 33.3857 3.96973 33.4146C3.94043 33.4435 3.88184 33.5012 3.79395 33.5878C3.70605 33.6744 3.51562 33.8187 3.22266 34.0208C3.13477 34.0786 3.06885 34.1291 3.0249 34.1724C2.98096 34.2157 2.95898 34.2373 2.95898 34.2373L3.00293 34.4105C3.06152 34.4971 3.0835 34.5765 3.06885 34.6487C3.0542 34.7209 2.98828 34.8003 2.87109 34.8869C2.69531 35.0023 2.57812 35.0962 2.51953 35.1683C2.46094 35.2405 2.43164 35.3343 2.43164 35.4498C2.43164 35.5075 2.3877 35.5941 2.2998 35.7096C2.21191 35.8251 1.94824 36.1137 1.50879 36.5756C1.24512 36.8354 1.02539 37.0664 0.849609 37.2685C0.673828 37.4705 0.585938 37.586 0.585938 37.6149L0.629883 37.8314C0.65918 37.9757 0.703125 38.0984 0.761719 38.1995C0.820312 38.3005 0.878906 38.3799 0.9375 38.4376C0.966797 38.4953 0.98877 38.5386 1.00342 38.5675C1.01807 38.5964 1.01074 38.6397 0.981445 38.6974C0.952148 38.7263 0.915527 38.7696 0.871582 38.8273C0.827637 38.8851 0.776367 38.9428 0.717773 39.0005C0.629883 39.0583 0.571289 39.116 0.541992 39.1737C0.512695 39.2315 0.527344 39.3036 0.585938 39.3903C0.644531 39.4769 0.651855 39.5635 0.60791 39.6501C0.563965 39.7367 0.454102 39.8666 0.27832 40.0398C0.19043 40.1553 0.117188 40.2419 0.0585938 40.2996C0 40.3573 -0.0146484 40.4006 0.0146484 40.4295L0.893555 40.6027L1.72852 40.7759L1.9043 40.9491C1.96289 40.978 2.03613 41.0285 2.12402 41.1007C2.21191 41.1728 2.2998 41.2378 2.3877 41.2955C2.65137 41.4976 2.84912 41.6852 2.98096 41.8585C3.11279 42.0317 3.19336 42.2193 3.22266 42.4214C3.25195 42.5657 3.34717 42.6523 3.5083 42.6812C3.66943 42.7101 3.98438 42.6812 4.45312 42.5946C4.62891 42.5369 4.82666 42.4935 5.04639 42.4647C5.26611 42.4358 5.47852 42.4214 5.68359 42.4214C5.80078 42.4214 5.91797 42.4214 6.03516 42.4214C6.15234 42.4214 6.25488 42.4358 6.34277 42.4647C6.48926 42.4935 6.59912 42.5152 6.67236 42.5296C6.74561 42.5441 6.79688 42.5657 6.82617 42.5946C6.88477 42.6235 6.92871 42.6379 6.95801 42.6379C6.9873 42.6379 7.03125 42.6235 7.08984 42.5946C7.14844 42.5657 7.19971 42.5369 7.24365 42.508C7.2876 42.4791 7.35352 42.4647 7.44141 42.4647C7.55859 42.4647 7.66846 42.4502 7.771 42.4214C7.87354 42.3925 8.04199 42.3203 8.27637 42.2049C8.45215 42.1471 8.64258 42.0822 8.84766 42.01C9.05273 41.9378 9.25781 41.8729 9.46289 41.8152H9.50684C9.56543 41.7863 9.60205 41.7574 9.6167 41.7286C9.63135 41.6997 9.63867 41.6564 9.63867 41.5986L9.59473 41.4254L9.81445 41.2522C9.90234 41.2234 10.0122 41.1656 10.144 41.079C10.2759 40.9924 10.4004 40.9202 10.5176 40.8625C10.6934 40.7759 10.8105 40.711 10.8691 40.6677C10.9277 40.6244 10.9717 40.5738 11.001 40.5161C11.0303 40.4006 11.0522 40.2852 11.0669 40.1697C11.0815 40.0542 11.0596 39.9243 11.001 39.78C10.9424 39.5779 10.9131 39.4047 10.9131 39.2603C10.9131 39.116 10.957 38.9861 11.0449 38.8706C11.1328 38.7263 11.2646 38.5675 11.4404 38.3943C11.6162 38.2211 11.8359 38.0335 12.0996 37.8314C12.2168 37.7448 12.334 37.6437 12.4512 37.5283C12.5684 37.4128 12.6562 37.3262 12.7148 37.2685C12.8613 37.153 12.9785 37.0664 13.0664 37.0087C13.1543 36.9509 13.2715 36.922 13.418 36.922C13.5352 36.8932 13.645 36.8643 13.7476 36.8354C13.8501 36.8066 14.0332 36.72 14.2969 36.5756L14.9121 36.2725H15.2637C15.3516 36.2725 15.4395 36.2725 15.5273 36.2725C15.6152 36.2725 15.6592 36.2581 15.6592 36.2292C15.6592 36.2292 15.6738 36.2076 15.7031 36.1643C15.7324 36.121 15.7471 36.0849 15.7471 36.056C15.7764 35.9694 15.7983 35.9117 15.813 35.8828C15.8276 35.8539 15.8643 35.8395 15.9229 35.8395C16.0107 35.8106 16.0693 35.7745 16.0986 35.7312C16.1279 35.6879 16.1426 35.623 16.1426 35.5364C16.1426 35.5075 16.1426 35.4787 16.1426 35.4498C16.1426 35.4209 16.1279 35.4065 16.0986 35.4065C16.0693 35.3776 16.0474 35.3271 16.0327 35.2549C16.0181 35.1828 16.0107 35.0745 16.0107 34.9302C16.0107 34.7281 16.0547 34.5332 16.1426 34.3456C16.2305 34.1579 16.3623 34.0208 16.5381 33.9342L16.6699 33.8909L17.0654 34.0641C17.3877 34.2085 17.5854 34.2879 17.6587 34.3023C17.7319 34.3167 17.8271 34.3095 17.9443 34.2806L18.208 34.2373C18.208 34.2373 18.23 34.259 18.2739 34.3023C18.3179 34.3456 18.3691 34.3817 18.4277 34.4105C18.4863 34.4683 18.5449 34.5188 18.6035 34.5621C18.6621 34.6054 18.7061 34.6415 18.7354 34.6704C18.8232 34.6992 18.9697 34.7137 19.1748 34.7137C19.3799 34.7137 19.5117 34.6992 19.5703 34.6704C19.5996 34.6415 19.6729 34.5693 19.79 34.4538C19.9072 34.3384 20.0391 34.2085 20.1855 34.0641C20.4199 33.8043 20.5664 33.6455 20.625 33.5878C20.6836 33.5301 20.7422 33.5012 20.8008 33.5012C20.8594 33.5301 20.9546 33.5156 21.0864 33.4579C21.2183 33.4002 21.3867 33.2991 21.5918 33.1548L22.0752 32.895L22.207 32.8084L22.4268 32.895L22.7783 33.0249C22.8662 33.0538 22.9248 33.0898 22.9541 33.1331C22.9834 33.1764 23.0713 33.2991 23.2178 33.5012C23.3643 33.761 23.4595 33.9487 23.5034 34.0641C23.5474 34.1796 23.584 34.3528 23.6133 34.5837C23.6426 34.8147 23.7158 35.0095 23.833 35.1683C23.9502 35.3271 24.2578 35.5653 24.7559 35.8828C24.9609 36.056 25.1221 36.1931 25.2393 36.2942C25.3564 36.3952 25.4883 36.5179 25.6348 36.6622C25.8398 36.8932 25.9937 37.0447 26.0962 37.1169C26.1987 37.1891 26.3379 37.2107 26.5137 37.1819C26.6016 37.1819 26.6675 37.1891 26.7114 37.2035C26.7554 37.2179 26.8066 37.254 26.8652 37.3118C26.9531 37.3406 27.0117 37.3839 27.041 37.4417C27.0703 37.4994 27.1143 37.586 27.1729 37.7015C27.2314 37.817 27.2754 37.8963 27.3047 37.9396C27.334 37.9829 27.3926 38.019 27.4805 38.0479C27.5391 38.0768 27.6123 38.1056 27.7002 38.1345C27.7881 38.1634 27.8613 38.1778 27.9199 38.1778L28.2275 38.2211V38.351C28.2275 38.4376 28.2495 38.5531 28.2935 38.6974C28.3374 38.8418 28.374 38.9139 28.4033 38.9139L28.623 38.9572C28.7109 38.9861 28.7769 39.015 28.8208 39.0438C28.8647 39.0727 28.916 39.116 28.9746 39.1737C29.1211 39.2892 29.231 39.4336 29.3042 39.6068C29.3774 39.78 29.4727 40.0686 29.5898 40.4728C29.6484 40.6749 29.6704 40.7903 29.6558 40.8192C29.6411 40.8481 29.5752 40.9058 29.458 40.9924C29.3994 40.9924 29.3628 41.0141 29.3481 41.0574C29.3335 41.1007 29.3115 41.1656 29.2822 41.2522C29.2822 41.31 29.2676 41.3821 29.2383 41.4687C29.209 41.5553 29.1797 41.6275 29.1504 41.6852C29.0918 41.8007 29.0625 41.8729 29.0625 41.9018C29.0625 41.9306 29.0771 41.9595 29.1064 41.9884C29.1943 42.0172 29.2822 42.0172 29.3701 41.9884C29.458 41.9595 29.5459 41.9018 29.6338 41.8152C29.6924 41.7574 29.751 41.6419 29.8096 41.4687C29.8682 41.2955 29.9268 41.1223 29.9854 40.9491C30.0146 40.8336 30.0586 40.7398 30.1172 40.6677C30.1758 40.5955 30.2783 40.5305 30.4248 40.4728C30.542 40.4151 30.6152 40.3645 30.6445 40.3212C30.6738 40.2779 30.6738 40.1841 30.6445 40.0398C30.6445 39.8377 30.6372 39.715 30.6226 39.6717C30.6079 39.6284 30.5713 39.6068 30.5127 39.6068C30.4834 39.6068 30.4102 39.5707 30.293 39.4985C30.1758 39.4263 30.0586 39.3469 29.9414 39.2603C29.9121 39.2603 29.9561 39.1232 30.0732 38.849C30.1904 38.5747 30.3076 38.3799 30.4248 38.2644L30.5127 38.1345L30.7324 38.2211L31.1719 38.3943C31.2598 38.4232 31.3843 38.5098 31.5454 38.6541C31.7065 38.7985 31.8164 38.9139 31.875 39.0005C31.875 39.0294 31.8823 39.0438 31.897 39.0438C31.9116 39.0438 31.9336 39.0294 31.9629 39.0005C31.9922 38.9428 32.0142 38.8634 32.0288 38.7624C32.0435 38.6613 32.0361 38.5675 32.0068 38.4809C31.9482 38.3366 31.8237 38.1995 31.6333 38.0695C31.4429 37.9396 31.0693 37.7448 30.5127 37.485C30.2783 37.3695 30.0586 37.254 29.8535 37.1386C29.6484 37.0231 29.4434 36.8932 29.2383 36.7488L29.2822 36.7921C29.2822 36.7633 29.2969 36.7272 29.3262 36.6839C29.3555 36.6406 29.3848 36.5901 29.4141 36.5323L29.5898 36.3158C29.5898 36.287 29.5239 36.2581 29.3921 36.2292C29.2603 36.2003 29.0918 36.1859 28.8867 36.1859C28.7402 36.1859 28.623 36.1859 28.5352 36.1859C28.4473 36.1859 28.3594 36.1715 28.2715 36.1426C27.9492 36.0271 27.6929 35.8395 27.5024 35.5797C27.312 35.3199 27.1875 35.0023 27.1289 34.627C27.0703 34.3672 27.0044 34.1796 26.9312 34.0641C26.8579 33.9487 26.6748 33.7754 26.3818 33.5445C26.2939 33.4868 26.2134 33.4218 26.1401 33.3496C26.0669 33.2775 26.001 33.2125 25.9424 33.1548C25.8838 33.0682 25.8398 32.9888 25.8105 32.9166C25.7812 32.8445 25.7666 32.7651 25.7666 32.6785C25.7666 32.6207 25.7666 32.563 25.7666 32.5053C25.7666 32.4475 25.7812 32.3898 25.8105 32.3321V32.3754C25.8398 32.2599 25.8618 32.1877 25.8765 32.1588C25.8911 32.13 25.8691 32.0867 25.8105 32.0289C25.7812 31.9135 25.7666 31.7908 25.7666 31.6609C25.7666 31.531 25.7959 31.4516 25.8545 31.4227C25.9131 31.365 25.9863 31.3072 26.0742 31.2495C26.1621 31.1918 26.25 31.134 26.3379 31.0763H26.3818L26.8213 30.8165L26.9971 30.8598C27.0264 30.8887 27.063 30.9103 27.1069 30.9247C27.1509 30.9392 27.1875 30.9464 27.2168 30.9464C27.2461 30.9464 27.2681 30.9536 27.2827 30.968C27.2974 30.9825 27.3047 30.9897 27.3047 30.9897L27.2168 31.2062L27.085 31.4227L27.1729 31.6392L27.3047 31.9856C27.334 32.0434 27.356 32.0867 27.3706 32.1155C27.3853 32.1444 27.3926 32.1588 27.3926 32.1588C27.4512 32.1011 27.5024 32.0362 27.5464 31.964C27.5903 31.8918 27.627 31.8124 27.6562 31.7258C27.6562 31.697 27.6709 31.6681 27.7002 31.6392C27.7295 31.6104 27.7588 31.5815 27.7881 31.5526L27.876 31.4227L27.9639 31.5526C28.0225 31.6104 28.0737 31.6681 28.1177 31.7258C28.1616 31.7836 28.2422 31.8557 28.3594 31.9423C28.3887 31.9712 28.4106 32.0073 28.4253 32.0506C28.4399 32.0939 28.4473 32.2021 28.4473 32.3754C28.4473 32.462 28.4473 32.5413 28.4473 32.6135C28.4473 32.6857 28.4619 32.7218 28.4912 32.7218C28.4912 32.7506 28.5132 32.7867 28.5571 32.83C28.6011 32.8733 28.6377 32.9094 28.667 32.9383C28.7256 32.9671 28.7695 33.0032 28.7988 33.0465C28.8281 33.0898 28.8574 33.1259 28.8867 33.1548C28.8867 33.2414 28.9307 33.3208 29.0186 33.3929C29.1064 33.4651 29.209 33.5301 29.3262 33.5878C29.4141 33.6167 29.4727 33.6455 29.502 33.6744C29.5312 33.7033 29.5459 33.7466 29.5459 33.8043L29.5898 33.9342H29.8096C30.0146 33.9342 30.1978 33.9775 30.3589 34.0641C30.52 34.1507 30.7178 34.2951 30.9521 34.4971C31.04 34.5837 31.1133 34.6487 31.1719 34.692C31.2305 34.7353 31.2891 34.7714 31.3477 34.8003C31.4941 34.8291 31.6772 34.9085 31.897 35.0384C32.1167 35.1683 32.2852 35.291 32.4023 35.4065C32.4609 35.4642 32.5122 35.5003 32.5562 35.5147C32.6001 35.5292 32.6807 35.5075 32.7979 35.4498C32.8564 35.4498 32.8857 35.457 32.8857 35.4714C32.8857 35.4859 32.8857 35.5075 32.8857 35.5364C32.8857 35.5653 32.8931 35.5869 32.9077 35.6013C32.9224 35.6158 32.9443 35.6374 32.9736 35.6663C33.0322 35.6663 33.0615 35.6807 33.0615 35.7096C33.0615 35.7385 33.0615 35.8251 33.0615 35.9694C33.0615 36.0849 33.0615 36.1787 33.0615 36.2509C33.0615 36.323 33.1055 36.4602 33.1934 36.6622L33.3691 37.0953L33.1055 37.6149L33.1934 37.7881C33.2227 37.9324 33.2886 38.0623 33.3911 38.1778C33.4937 38.2933 33.6035 38.4232 33.7207 38.5675C33.9258 38.7119 34.0576 38.8201 34.1162 38.8923C34.1748 38.9644 34.2041 39.0583 34.2041 39.1737C34.2041 39.2315 34.2188 39.282 34.248 39.3253C34.2773 39.3686 34.3066 39.4047 34.3359 39.4336C34.4238 39.5202 34.5264 39.5851 34.6436 39.6284C34.7607 39.6717 34.8926 39.7078 35.0391 39.7367L35.3467 39.8233L35.2148 39.8666C35.1855 39.8954 35.1636 39.9243 35.1489 39.9532C35.1343 39.982 35.1123 40.0253 35.083 40.0831C35.0537 40.1119 35.0391 40.1408 35.0391 40.1697C35.0391 40.1986 35.0537 40.2419 35.083 40.2996C35.1123 40.3573 35.1709 40.4223 35.2588 40.4944C35.3467 40.5666 35.4199 40.6171 35.4785 40.646C35.5664 40.6749 35.7275 40.6821 35.9619 40.6677C36.1963 40.6532 36.4307 40.6316 36.665 40.6027C36.958 40.5738 37.1631 40.5594 37.2803 40.5594C37.3975 40.5594 37.4561 40.5738 37.4561 40.6027C37.4561 40.6604 37.4341 40.7254 37.3901 40.7976C37.3462 40.8697 37.2949 40.9058 37.2363 40.9058C37.1484 40.9347 37.0605 40.9491 36.9727 40.9491C36.8848 40.9491 36.7383 40.9347 36.5332 40.9058C36.2988 40.8481 36.1011 40.8192 35.9399 40.8192C35.7788 40.8192 35.6543 40.8481 35.5664 40.9058C35.4785 40.9636 35.4126 41.0357 35.3687 41.1223C35.3247 41.2089 35.3027 41.31 35.3027 41.4254C35.3027 41.5698 35.3247 41.6708 35.3687 41.7286C35.4126 41.7863 35.5371 41.844 35.7422 41.9018C35.8301 41.9306 35.9033 41.9595 35.9619 41.9884C36.0205 42.0172 36.0498 42.0461 36.0498 42.075C36.0498 42.075 36.0571 42.1255 36.0718 42.2265C36.0864 42.3276 36.0938 42.4502 36.0938 42.5946C36.0938 42.7678 36.1011 42.8833 36.1157 42.941C36.1304 42.9987 36.1523 43.0565 36.1816 43.1142C36.2402 43.1431 36.2988 43.1719 36.3574 43.2008C36.416 43.2297 36.4746 43.2441 36.5332 43.2441C36.5332 43.2441 36.5405 43.2441 36.5552 43.2441C36.5698 43.2441 36.5771 43.2441 36.5771 43.2441C36.6357 43.2441 36.6943 43.2008 36.7529 43.1142C36.8115 43.0276 36.8408 42.9554 36.8408 42.8977C36.8408 42.8688 36.8408 42.84 36.8408 42.8111C36.8408 42.7822 36.8408 42.7678 36.8408 42.7678L37.1045 43.1575C37.1631 43.2441 37.2217 43.3235 37.2803 43.3957C37.3389 43.4678 37.3682 43.5039 37.3682 43.5039C37.3975 43.5039 37.4268 43.4678 37.4561 43.3957C37.4854 43.3235 37.5146 43.2441 37.5439 43.1575L37.5879 42.941C37.5879 42.941 37.6099 42.9627 37.6538 43.006C37.6978 43.0493 37.749 43.0998 37.8076 43.1575C37.8955 43.2441 37.9688 43.3091 38.0273 43.3524C38.0859 43.3957 38.1299 43.4173 38.1592 43.4173C38.1885 43.4173 38.2031 43.4029 38.2031 43.374C38.2031 43.3452 38.2031 43.2585 38.2031 43.1142C38.2031 42.941 38.1738 42.8039 38.1152 42.7028C38.0566 42.6018 37.9688 42.508 37.8516 42.4214C37.7051 42.277 37.6172 42.1977 37.5879 42.1832C37.5586 42.1688 37.5586 42.1038 37.5879 41.9884V41.8152L37.8955 41.9884C38.1299 42.1038 38.313 42.1544 38.4448 42.1399C38.5767 42.1255 38.6426 42.0605 38.6426 41.9451C38.6426 41.8873 38.606 41.8296 38.5327 41.7719C38.4595 41.7141 38.335 41.6564 38.1592 41.5986L37.8955 41.512V40.9491L38.0273 40.9924C38.0566 41.0213 38.0933 41.0429 38.1372 41.0574C38.1812 41.0718 38.2324 41.079 38.291 41.079C38.3496 41.1079 38.4082 41.1368 38.4668 41.1656C38.5254 41.1945 38.584 41.2378 38.6426 41.2955C38.7891 41.411 38.8916 41.4832 38.9502 41.512C39.0088 41.5409 39.0674 41.5409 39.126 41.512C39.2139 41.4543 39.2505 41.3966 39.2358 41.3388C39.2212 41.2811 39.1553 41.1945 39.0381 41.079C38.9795 41.0502 38.9355 41.0069 38.9062 40.9491C38.877 40.8914 38.8477 40.8336 38.8184 40.7759C38.8184 40.7182 38.7524 40.6388 38.6206 40.5377C38.4888 40.4367 38.3203 40.3285 38.1152 40.213C37.8516 40.0686 37.6538 39.9315 37.522 39.8016C37.3901 39.6717 37.2949 39.5202 37.2363 39.3469C37.1777 39.2026 37.1338 39.0871 37.1045 39.0005C37.0752 38.9139 37.0752 38.8706 37.1045 38.8706C37.1045 38.8706 37.1338 38.8851 37.1924 38.9139C37.251 38.9428 37.3242 38.9717 37.4121 39.0005C37.5586 39.0294 37.6538 39.0511 37.6978 39.0655C37.7417 39.0799 37.7783 39.0583 37.8076 39.0005C37.8369 38.9428 37.8223 38.8851 37.7637 38.8273C37.7051 38.7696 37.5732 38.6686 37.3682 38.5242C37.2803 38.4665 37.1851 38.4015 37.0825 38.3294C36.98 38.2572 36.9141 38.1922 36.8848 38.1345C36.7969 38.0479 36.7456 37.9685 36.731 37.8963C36.7163 37.8242 36.7236 37.6726 36.7529 37.4417C36.7822 37.2685 36.8042 37.1602 36.8188 37.1169C36.8335 37.0736 36.8701 37.052 36.9287 37.052C36.9873 37.052 37.0532 37.1025 37.1265 37.2035C37.1997 37.3045 37.2949 37.485 37.4121 37.7448C37.5586 38.0046 37.6831 38.185 37.7856 38.2861C37.8882 38.3871 37.9834 38.3799 38.0713 38.2644C38.1006 38.2067 38.1152 38.1417 38.1152 38.0695C38.1152 37.9974 38.1006 37.9469 38.0713 37.918C38.0127 37.8891 37.9614 37.8386 37.9175 37.7664C37.8735 37.6943 37.8662 37.6582 37.8955 37.6582C37.8955 37.6582 37.9248 37.6798 37.9834 37.7231C38.042 37.7664 38.1006 37.817 38.1592 37.8747C38.2764 37.9902 38.3569 38.0551 38.4009 38.0695C38.4448 38.084 38.4961 38.0768 38.5547 38.0479C38.6133 38.019 38.6279 37.9829 38.5986 37.9396C38.5693 37.8963 38.4521 37.7592 38.2471 37.5283C38.1592 37.4128 38.1445 37.3551 38.2031 37.3551C38.2617 37.3551 38.3789 37.4128 38.5547 37.5283C38.6719 37.6149 38.7524 37.6654 38.7964 37.6798C38.8403 37.6943 38.877 37.687 38.9062 37.6582C38.9355 37.6004 38.9355 37.5355 38.9062 37.4633C38.877 37.3911 38.8037 37.2973 38.6865 37.1819C38.6279 37.1241 38.5913 37.088 38.5767 37.0736C38.562 37.0592 38.5693 37.0664 38.5986 37.0953C38.6865 37.153 38.7524 37.1674 38.7964 37.1386C38.8403 37.1097 38.8916 37.0087 38.9502 36.8354C38.9502 36.7777 38.9648 36.7128 38.9941 36.6406C39.0234 36.5684 39.0527 36.5179 39.082 36.489C39.1113 36.4602 39.1992 36.4169 39.3457 36.3591C39.4922 36.3014 39.6094 36.2725 39.6973 36.2725C39.7266 36.2725 39.7778 36.2653 39.8511 36.2509C39.9243 36.2364 39.9902 36.2148 40.0488 36.1859C40.166 36.157 40.2612 36.1426 40.3345 36.1426C40.4077 36.1426 40.5029 36.1426 40.6201 36.1426C40.708 36.1426 40.7886 36.1426 40.8618 36.1426C40.9351 36.1426 40.9717 36.1282 40.9717 36.0993C41.001 36.0993 41.0303 36.0993 41.0596 36.0993C41.0889 36.0993 41.1035 36.0993 41.1035 36.0993C41.1035 36.157 41.0889 36.2148 41.0596 36.2725C41.0303 36.3303 41.001 36.3736 40.9717 36.4024C40.9131 36.5468 40.8765 36.6622 40.8618 36.7488C40.8472 36.8354 40.8545 36.8787 40.8838 36.8787C41.0303 36.7921 41.1694 36.6983 41.3013 36.5973C41.4331 36.4962 41.5576 36.4024 41.6748 36.3158C41.7334 36.2581 41.77 36.2076 41.7847 36.1643C41.7993 36.121 41.8066 36.0849 41.8066 36.056C41.8066 35.9983 41.814 35.955 41.8286 35.9261C41.8433 35.8972 41.8945 35.8539 41.9824 35.7962C42.1289 35.7096 42.2681 35.6374 42.3999 35.5797C42.5317 35.522 42.7148 35.4642 42.9492 35.4065C43.2715 35.3199 43.4692 35.2549 43.5425 35.2116C43.6157 35.1683 43.667 35.1034 43.6963 35.0168L43.7402 34.9302L43.3447 34.7137C43.1104 34.5693 42.8906 34.4178 42.6855 34.259C42.4805 34.1002 42.3047 33.9342 42.1582 33.761L41.8945 33.4579L41.9824 33.2414C42.041 33.1548 42.0776 33.0754 42.0923 33.0032C42.1069 32.9311 42.1143 32.8228 42.1143 32.6785C42.1143 32.5341 42.1289 32.397 42.1582 32.2671C42.1875 32.1372 42.2168 32.0001 42.2461 31.8557L42.334 31.466L42.2461 30.8598C42.2461 30.8021 42.2388 30.7371 42.2241 30.6649C42.2095 30.5928 42.2021 30.5134 42.2021 30.4268C42.2021 30.3979 42.2021 30.369 42.2021 30.3402C42.2021 30.3113 42.2021 30.2824 42.2021 30.2536L42.6416 29.8638L42.9932 29.4741L42.9492 29.3875L42.6416 28.6514C42.6416 28.6225 42.6636 28.6153 42.7075 28.6297C42.7515 28.6442 42.8027 28.6514 42.8613 28.6514C42.9199 28.6803 42.9639 28.6947 42.9932 28.6947C43.0225 28.6947 43.0518 28.6803 43.0811 28.6514L43.125 28.305C43.1836 27.9874 43.2715 27.7348 43.3887 27.5472C43.5059 27.3596 43.667 27.2224 43.8721 27.1358C43.9307 27.107 43.9966 27.0853 44.0698 27.0709C44.1431 27.0564 44.2529 27.0492 44.3994 27.0492H44.751V26.2265L44.7949 24.2779L44.8389 23.1521L44.751 23.1954C44.6924 23.2531 44.5752 23.2748 44.3994 23.2603C44.2236 23.2459 44.0186 23.1954 43.7842 23.1088C43.4326 23.0222 43.1982 22.9716 43.0811 22.9572C42.9639 22.9428 42.832 22.9644 42.6855 23.0222C42.5391 23.051 42.4438 23.0655 42.3999 23.0655C42.356 23.0655 42.2754 23.0366 42.1582 22.9789L41.8506 22.849L41.7188 22.8056V22.6324C41.748 22.517 41.7627 22.452 41.7627 22.4376C41.7627 22.4232 41.7334 22.3726 41.6748 22.286C41.6162 22.2572 41.5723 22.2139 41.543 22.1561C41.5137 22.0984 41.499 22.0262 41.499 21.9396C41.4697 21.8241 41.4258 21.7375 41.3672 21.6798C41.3086 21.6221 41.2207 21.5499 41.1035 21.4633C41.0742 21.4344 41.0522 21.3911 41.0376 21.3334C41.0229 21.2757 41.0156 21.1746 41.0156 21.0303L40.9717 20.6406L41.2354 20.7705L41.4551 20.987C41.4844 21.0158 41.521 21.0231 41.5649 21.0086C41.6089 20.9942 41.6455 20.9581 41.6748 20.9004C41.7041 20.8715 41.7261 20.8498 41.7407 20.8354C41.7554 20.821 41.7773 20.7993 41.8066 20.7705C41.9238 20.7416 41.9531 20.6478 41.8945 20.489C41.8359 20.3302 41.7334 20.1931 41.5869 20.0776L41.2354 19.7745C41.1475 19.7168 41.0815 19.6663 41.0376 19.623C40.9937 19.5797 40.9424 19.5291 40.8838 19.4714L40.7959 19.3415V18.2157L40.708 18.0858C40.6494 17.9991 40.5688 17.927 40.4663 17.8692C40.3638 17.8115 40.1953 17.7249 39.9609 17.6094C39.8438 17.5806 39.7485 17.5373 39.6753 17.4795C39.6021 17.4218 39.5215 17.3641 39.4336 17.3063C39.3457 17.2197 39.1626 17.0176 38.8843 16.7001C38.606 16.3825 38.4375 16.1805 38.3789 16.0939L38.291 15.964L38.3789 15.7475C38.4961 15.3433 38.4961 15.0546 38.3789 14.8814C38.2617 14.7082 37.9688 14.5927 37.5 14.535C37.4414 14.535 37.3755 14.5206 37.3022 14.4917C37.229 14.4628 37.1631 14.434 37.1045 14.4051L36.9727 14.3185L37.1484 14.1453C37.2656 14.0587 37.3535 13.9793 37.4121 13.9071C37.4707 13.835 37.5 13.7844 37.5 13.7556C37.4707 13.7267 37.4487 13.705 37.4341 13.6906C37.4194 13.6762 37.3975 13.6545 37.3682 13.6257C37.3096 13.5968 37.2656 13.5751 37.2363 13.5607C37.207 13.5463 37.1777 13.5246 37.1484 13.4958C37.1191 13.4669 37.1045 13.4308 37.1045 13.3875C37.1045 13.3442 37.1191 13.3081 37.1484 13.2792C37.1777 13.2504 37.207 13.2215 37.2363 13.1926C37.2656 13.1638 37.2803 13.1349 37.2803 13.106L37.3682 12.8462C37.3975 12.7885 37.4048 12.7524 37.3901 12.738C37.3755 12.7235 37.3535 12.6875 37.3242 12.6297C37.2656 12.6009 37.1851 12.572 37.0825 12.5431C36.98 12.5142 36.8848 12.4998 36.7969 12.4998H36.7529C36.7529 12.4709 36.7236 12.4637 36.665 12.4782C36.6064 12.4926 36.5332 12.4998 36.4453 12.4998ZM14.5605 13.6257C14.5312 13.6257 14.4946 13.6401 14.4507 13.669C14.4067 13.6978 14.3701 13.7267 14.3408 13.7556C14.2822 13.8422 14.231 13.9216 14.187 13.9937C14.1431 14.0659 14.1211 14.1453 14.1211 14.2319V14.2752C14.1211 14.3041 14.1284 14.3185 14.1431 14.3185C14.1577 14.3185 14.2236 14.3185 14.3408 14.3185C14.458 14.3185 14.5752 14.2896 14.6924 14.2319C14.8096 14.1742 14.9121 14.1164 15 14.0587C15.0293 14.0009 15.0513 13.9432 15.0659 13.8855C15.0806 13.8277 15.0879 13.77 15.0879 13.7123C15.0879 13.7123 15.0879 13.705 15.0879 13.6906C15.0879 13.6762 15.0879 13.6545 15.0879 13.6257C15.0879 13.5968 15.0732 13.5751 15.0439 13.5607C15.0146 13.5463 14.9707 13.5391 14.9121 13.5391C14.8535 13.5391 14.7949 13.5463 14.7363 13.5607C14.6777 13.5751 14.6191 13.5968 14.5605 13.6257ZM15.6592 13.9721C15.5713 13.9721 15.4688 14.0226 15.3516 14.1236C15.2344 14.2247 15.0439 14.3907 14.7803 14.6216L14.4287 15.0113L14.3408 14.8814C14.2529 14.8237 14.1724 14.7804 14.0991 14.7515C14.0259 14.7226 13.9453 14.7226 13.8574 14.7515C13.8281 14.7515 13.7988 14.7587 13.7695 14.7732C13.7402 14.7876 13.7256 14.7948 13.7256 14.7948L13.9014 15.0979C13.9307 15.1845 13.9673 15.2639 14.0112 15.3361C14.0552 15.4083 14.1064 15.4443 14.165 15.4443L14.2529 15.5309L13.9453 15.7475C13.7402 15.8341 13.5791 15.9351 13.4619 16.0506C13.3447 16.166 13.2715 16.2815 13.2422 16.397C13.2129 16.5124 13.2129 16.5846 13.2422 16.6135C13.2715 16.6424 13.3301 16.6568 13.418 16.6568C13.5938 16.6568 13.7256 16.664 13.8135 16.6784C13.9014 16.6929 13.9453 16.7145 13.9453 16.7434C13.9453 16.7723 13.916 16.8372 13.8574 16.9383C13.7988 17.0393 13.7402 17.1475 13.6816 17.263L13.374 17.7393C13.374 17.7393 13.4033 17.7393 13.4619 17.7393C13.6377 17.6816 13.7695 17.6455 13.8574 17.6311C13.9453 17.6166 14.0039 17.6094 14.0332 17.6094C14.0625 17.6383 14.0552 17.6888 14.0112 17.761C13.9673 17.8332 13.9014 17.9125 13.8135 17.9991C13.7256 18.0569 13.6743 18.1002 13.6597 18.1291C13.645 18.1579 13.667 18.2012 13.7256 18.259C13.7842 18.3456 13.8647 18.4033 13.9673 18.4322C14.0698 18.461 14.2236 18.4466 14.4287 18.3889C14.5752 18.36 14.6851 18.3383 14.7583 18.3239C14.8315 18.3095 14.8828 18.3167 14.9121 18.3456C14.9707 18.4033 14.9854 18.4827 14.9561 18.5837C14.9268 18.6848 14.8682 18.793 14.7803 18.9085L14.6924 19.0384L14.7803 19.2549C14.8389 19.457 14.8535 19.6085 14.8242 19.7096C14.7949 19.8106 14.707 19.9333 14.5605 20.0776C14.4434 20.1931 14.3555 20.2508 14.2969 20.2508C14.2383 20.2508 14.0918 20.1931 13.8574 20.0776C13.7695 20.0488 13.6963 20.0199 13.6377 19.991C13.5791 19.9622 13.5352 19.9622 13.5059 19.991C13.4766 19.991 13.4619 20.0343 13.4619 20.1209C13.4619 20.2075 13.4766 20.2941 13.5059 20.3807L13.5498 20.554H13.418C13.3008 20.554 13.2422 20.5756 13.2422 20.6189C13.2422 20.6622 13.3008 20.7272 13.418 20.8138C13.5352 20.8715 13.5938 20.922 13.5938 20.9653C13.5938 21.0086 13.5791 21.0736 13.5498 21.1602C13.4912 21.2468 13.4033 21.319 13.2861 21.3767C13.1689 21.4344 13.0225 21.5066 12.8467 21.5932C12.7295 21.6221 12.6343 21.6509 12.561 21.6798C12.4878 21.7087 12.4512 21.7231 12.4512 21.7231C12.3926 21.7808 12.356 21.853 12.3413 21.9396C12.3267 22.0262 12.3047 22.1128 12.2754 22.1994C12.2754 22.2283 12.3193 22.2427 12.4072 22.2427C12.4951 22.2427 12.627 22.2572 12.8027 22.286H13.3301L13.4619 22.4159C13.4912 22.4737 13.5205 22.5098 13.5498 22.5242C13.5791 22.5386 13.6523 22.5458 13.7695 22.5458C13.8281 22.5458 13.8867 22.5458 13.9453 22.5458C14.0039 22.5458 14.0332 22.5458 14.0332 22.5458C14.0332 22.5747 13.9893 22.6252 13.9014 22.6974C13.8135 22.7696 13.7402 22.8201 13.6816 22.849C13.623 22.8778 13.5718 22.8923 13.5278 22.8923C13.4839 22.8923 13.3887 22.8634 13.2422 22.8056C13.1836 22.8056 13.125 22.7984 13.0664 22.784C13.0078 22.7696 12.9492 22.7623 12.8906 22.7623C12.8613 22.7623 12.7954 22.8201 12.6929 22.9356C12.5903 23.051 12.5244 23.1376 12.4951 23.1954C12.4658 23.2242 12.3926 23.2675 12.2754 23.3253C12.1582 23.383 11.9531 23.4552 11.6602 23.5418C11.3086 23.6861 11.1035 23.7655 11.0449 23.7799C10.9863 23.7944 10.9717 23.8305 11.001 23.8882C11.0889 23.9748 11.2207 24.0253 11.3965 24.0398C11.5723 24.0542 11.8066 24.0325 12.0996 23.9748L12.627 23.8882C12.6562 23.8882 12.6855 23.8954 12.7148 23.9098C12.7441 23.9243 12.7588 23.9459 12.7588 23.9748C12.7588 24.0037 12.7661 24.0253 12.7808 24.0398C12.7954 24.0542 12.8174 24.0614 12.8467 24.0614L13.0225 23.9315C13.1982 23.816 13.3374 23.7439 13.4399 23.715C13.5425 23.6861 13.6523 23.7294 13.7695 23.8449C13.8574 23.9026 13.938 23.9243 14.0112 23.9098C14.0845 23.8954 14.2236 23.8593 14.4287 23.8016L14.7803 23.715C14.8096 23.715 14.8315 23.7294 14.8462 23.7583C14.8608 23.7872 14.8828 23.816 14.9121 23.8449C15 23.9604 15.0806 24.0542 15.1538 24.1264C15.2271 24.1985 15.293 24.2202 15.3516 24.1913C15.4102 24.1913 15.4541 24.1552 15.4834 24.0831C15.5127 24.0109 15.5273 23.9315 15.5273 23.8449C15.5273 23.816 15.5273 23.7944 15.5273 23.7799C15.5273 23.7655 15.542 23.7583 15.5713 23.7583C15.7471 23.816 15.9229 23.8449 16.0986 23.8449C16.2744 23.8449 16.4502 23.8305 16.626 23.8016C16.8018 23.7727 16.9775 23.7006 17.1533 23.5851C17.3291 23.4696 17.417 23.383 17.417 23.3253C17.417 23.2675 17.395 23.2242 17.3511 23.1954C17.3071 23.1665 17.2266 23.1232 17.1094 23.0655C17.0508 23.0655 16.9995 23.051 16.9556 23.0222C16.9116 22.9933 16.8896 22.9789 16.8896 22.9789C16.8604 22.9789 16.8604 22.9572 16.8896 22.9139C16.9189 22.8706 16.9629 22.8345 17.0215 22.8056L17.2412 22.5891C17.2705 22.5603 17.2998 22.5386 17.3291 22.5242C17.3584 22.5098 17.373 22.5025 17.373 22.5025C17.4902 22.5025 17.644 22.4376 17.8345 22.3077C18.0249 22.1778 18.1641 22.0551 18.252 21.9396C18.2812 21.9107 18.2959 21.8819 18.2959 21.853C18.2959 21.8241 18.2959 21.7953 18.2959 21.7664C18.2373 21.6509 18.1714 21.5643 18.0981 21.5066C18.0249 21.4489 17.9443 21.3911 17.8564 21.3334C17.7686 21.3334 17.688 21.3334 17.6147 21.3334C17.5415 21.3334 17.4756 21.3334 17.417 21.3334C17.3877 21.3334 17.3657 21.3334 17.3511 21.3334C17.3364 21.3334 17.3291 21.3334 17.3291 21.3334C17.2119 21.3334 17.1167 21.3262 17.0435 21.3117C16.9702 21.2973 16.9336 21.2901 16.9336 21.2901L17.1094 20.7705C17.2852 20.3663 17.3657 20.0632 17.3511 19.8611C17.3364 19.659 17.2119 19.457 16.9775 19.2549L16.7578 19.0384L16.8018 18.8652C16.8018 18.7786 16.7944 18.7208 16.7798 18.692C16.7651 18.6631 16.7139 18.6631 16.626 18.692C16.5674 18.7208 16.5088 18.7281 16.4502 18.7136C16.3916 18.6992 16.3623 18.6775 16.3623 18.6487L16.4941 18.259C16.582 18.0569 16.6333 17.9053 16.6479 17.8043C16.6626 17.7033 16.6553 17.6094 16.626 17.5228C16.626 17.4651 16.5894 17.4146 16.5161 17.3713C16.4429 17.328 16.3916 17.3063 16.3623 17.3063C16.333 17.3063 16.3037 17.2991 16.2744 17.2847C16.2451 17.2702 16.2158 17.263 16.1865 17.263C16.1572 17.2341 16.1279 17.2125 16.0986 17.1981C16.0693 17.1836 16.04 17.162 16.0107 17.1331C15.9521 17.1331 15.9229 17.1259 15.9229 17.1115C15.9229 17.097 15.9375 17.0465 15.9668 16.9599C15.9961 16.8444 16.0693 16.7217 16.1865 16.5918C16.3037 16.4619 16.4795 16.2671 16.7139 16.0073C16.9775 15.7475 17.1387 15.5742 17.1973 15.4876C17.2559 15.401 17.2705 15.3144 17.2412 15.2278C17.2412 15.1701 17.1387 15.134 16.9336 15.1196C16.7285 15.1051 16.4648 15.1268 16.1426 15.1845L15.7031 15.2278C15.6738 15.2278 15.7471 15.1484 15.9229 14.9897C16.0986 14.8309 16.2891 14.6649 16.4941 14.4917C16.6113 14.4051 16.7212 14.3185 16.8237 14.2319C16.9263 14.1453 16.9775 14.102 16.9775 14.102C16.9775 14.102 16.9775 14.0948 16.9775 14.0803C16.9775 14.0659 16.9775 14.0442 16.9775 14.0154C16.9482 13.9865 16.897 13.9721 16.8237 13.9721C16.7505 13.9721 16.5967 13.9721 16.3623 13.9721C16.3037 13.9721 16.2378 13.9649 16.1646 13.9504C16.0913 13.936 16.0254 13.9288 15.9668 13.9288C15.9082 13.9288 15.8569 13.9288 15.813 13.9288C15.769 13.9288 15.7178 13.9432 15.6592 13.9721ZM11.9238 17.3929C11.8359 17.4218 11.748 17.4579 11.6602 17.5012C11.5723 17.5445 11.499 17.595 11.4404 17.6527C11.4111 17.6816 11.3818 17.7033 11.3525 17.7177C11.3232 17.7321 11.2939 17.7393 11.2646 17.7393C11.1768 17.7393 11.1108 17.761 11.0669 17.8043C11.0229 17.8476 11.0156 17.8837 11.0449 17.9125C11.0742 17.9414 11.1035 17.9631 11.1328 17.9775C11.1621 17.9919 11.1914 17.9991 11.2207 17.9991C11.2793 17.9991 11.3159 18.0064 11.3306 18.0208C11.3452 18.0352 11.3525 18.0713 11.3525 18.1291C11.3525 18.1579 11.3379 18.1868 11.3086 18.2157C11.2793 18.2445 11.2354 18.2734 11.1768 18.3023C11.1182 18.3311 11.0815 18.3456 11.0669 18.3456C11.0522 18.3456 11.0303 18.3311 11.001 18.3023C10.8838 18.2157 10.7227 18.1507 10.5176 18.1074C10.3125 18.0641 10.1514 18.0713 10.0342 18.1291C9.94629 18.1579 9.8584 18.2084 9.77051 18.2806C9.68262 18.3528 9.63867 18.4177 9.63867 18.4755C9.63867 18.4755 9.646 18.4899 9.66064 18.5188C9.67529 18.5476 9.69727 18.5621 9.72656 18.5621C9.75586 18.5909 9.77783 18.6198 9.79248 18.6487C9.80713 18.6775 9.81445 18.7064 9.81445 18.7353C9.84375 18.793 9.84375 18.8363 9.81445 18.8652C9.78516 18.8941 9.71191 18.9229 9.59473 18.9518C9.44824 19.0095 9.36035 19.0456 9.33105 19.06C9.30176 19.0745 9.28711 19.0817 9.28711 19.0817C9.28711 19.1394 9.31641 19.1972 9.375 19.2549C9.43359 19.3126 9.49219 19.3559 9.55078 19.3848C9.58008 19.4137 9.63135 19.4353 9.70459 19.4498C9.77783 19.4642 9.84375 19.4858 9.90234 19.5147L10.166 19.558L9.94629 19.6446C9.8291 19.6735 9.74121 19.6807 9.68262 19.6663C9.62402 19.6518 9.58008 19.6157 9.55078 19.558C9.52148 19.4714 9.49219 19.4425 9.46289 19.4714C9.43359 19.5003 9.38965 19.558 9.33105 19.6446L9.28711 19.8611C9.28711 19.8611 9.26514 19.8539 9.22119 19.8395C9.17725 19.825 9.14062 19.8178 9.11133 19.8178L8.8916 19.7312C8.83301 19.7312 8.78174 19.7601 8.73779 19.8178C8.69385 19.8756 8.67188 19.9333 8.67188 19.991C8.67188 20.0488 8.6792 20.0849 8.69385 20.0993C8.7085 20.1137 8.73047 20.1354 8.75977 20.1642L8.8916 20.2075L8.67188 20.2508C8.61328 20.2797 8.56201 20.3014 8.51807 20.3158C8.47412 20.3302 8.4375 20.3519 8.4082 20.3807C8.37891 20.3807 8.37891 20.4024 8.4082 20.4457C8.4375 20.489 8.4668 20.5395 8.49609 20.5973C8.52539 20.6261 8.54004 20.6622 8.54004 20.7055C8.54004 20.7488 8.49609 20.8138 8.4082 20.9004C8.37891 20.9292 8.35693 20.9653 8.34229 21.0086C8.32764 21.0519 8.32031 21.0736 8.32031 21.0736C8.32031 21.1024 8.35693 21.1385 8.43018 21.1818C8.50342 21.2251 8.58398 21.2757 8.67188 21.3334L9.02344 21.4633H9.46289C9.75586 21.4344 10.0415 21.3983 10.3198 21.355C10.5981 21.3117 10.8105 21.2757 10.957 21.2468C11.1914 21.189 11.4258 21.0952 11.6602 20.9653C11.8945 20.8354 12.0703 20.7127 12.1875 20.5973C12.3047 20.4529 12.3999 20.2653 12.4731 20.0343C12.5464 19.8034 12.583 19.6157 12.583 19.4714L12.5391 19.2982L13.2422 18.8219V18.4322C13.2422 18.259 13.2349 18.1291 13.2202 18.0424C13.2056 17.9558 13.1836 17.8837 13.1543 17.8259C13.125 17.7105 13.0884 17.6455 13.0444 17.6311C13.0005 17.6166 12.9346 17.6239 12.8467 17.6527C12.8174 17.6527 12.7881 17.6527 12.7588 17.6527C12.7295 17.6527 12.7148 17.6527 12.7148 17.6527C12.6855 17.6239 12.6489 17.6022 12.605 17.5878C12.561 17.5733 12.5244 17.5661 12.4951 17.5661C12.4072 17.5373 12.356 17.5228 12.3413 17.5228C12.3267 17.5228 12.3193 17.494 12.3193 17.4362C12.3193 17.4074 12.3193 17.3857 12.3193 17.3713C12.3193 17.3568 12.2754 17.3496 12.1875 17.3496C12.1875 17.3496 12.1509 17.3496 12.0776 17.3496C12.0044 17.3496 11.9531 17.3641 11.9238 17.3929ZM22.1191 34.9735C21.8555 35.2044 21.687 35.3632 21.6138 35.4498C21.5405 35.5364 21.4893 35.6519 21.46 35.7962C21.46 35.8828 21.4526 35.9766 21.438 36.0777C21.4233 36.1787 21.416 36.2725 21.416 36.3591C21.416 36.5035 21.416 36.5973 21.416 36.6406C21.416 36.6839 21.4453 36.7344 21.5039 36.7921C21.5625 36.8787 21.6504 36.9653 21.7676 37.052C21.8848 37.1386 21.9727 37.1674 22.0312 37.1386C22.0898 37.1097 22.1631 37.0303 22.251 36.9004C22.3389 36.7705 22.4268 36.6334 22.5146 36.489C22.6025 36.2581 22.6538 36.0055 22.6685 35.7312C22.6831 35.457 22.6758 35.2333 22.6465 35.0601C22.6172 34.9735 22.5806 34.8941 22.5366 34.8219C22.4927 34.7497 22.4561 34.7137 22.4268 34.7137C22.4268 34.7137 22.3975 34.7425 22.3389 34.8003C22.2803 34.858 22.207 34.9157 22.1191 34.9735ZM21.8555 37.485C21.8262 37.5427 21.7603 37.6004 21.6577 37.6582C21.5552 37.7159 21.46 37.7736 21.3721 37.8314C21.1377 37.9757 21.0059 38.0912 20.9766 38.1778C20.9473 38.2644 20.9326 38.4953 20.9326 38.8706C20.9326 39.1016 20.9253 39.2748 20.9106 39.3903C20.896 39.5057 20.874 39.6356 20.8447 39.78C20.7861 40.0109 20.7495 40.213 20.7349 40.3862C20.7202 40.5594 20.7275 40.6604 20.7568 40.6893C20.7861 40.7182 20.8154 40.7326 20.8447 40.7326C20.874 40.7326 20.9326 40.7182 21.0205 40.6893C21.0791 40.6893 21.1377 40.6677 21.1963 40.6244C21.2549 40.5811 21.3135 40.5305 21.3721 40.4728C21.4893 40.3573 21.5698 40.2924 21.6138 40.2779C21.6577 40.2635 21.709 40.2852 21.7676 40.3429C21.7676 40.3718 21.7749 40.3934 21.7896 40.4078C21.8042 40.4223 21.8115 40.4295 21.8115 40.4295C21.8408 40.4295 21.8848 40.3718 21.9434 40.2563C22.002 40.1408 22.0605 39.982 22.1191 39.78L22.251 39.4769L22.1631 39.217C22.1045 39.0438 22.0825 38.9284 22.0972 38.8706C22.1118 38.8129 22.1631 38.7552 22.251 38.6974C22.3096 38.6397 22.3462 38.5603 22.3608 38.4593C22.3755 38.3582 22.3682 38.2211 22.3389 38.0479C22.3389 37.9036 22.3022 37.7592 22.229 37.6149C22.1558 37.4705 22.1045 37.3984 22.0752 37.3984C22.0459 37.3984 22.0093 37.4128 21.9653 37.4417C21.9214 37.4705 21.8848 37.485 21.8555 37.485ZM28.2715 41.7286C28.2129 41.7574 28.1177 41.7863 27.9858 41.8152C27.854 41.844 27.7148 41.8873 27.5684 41.9451C27.2461 42.0317 27.0044 42.075 26.8433 42.075C26.6821 42.075 26.5137 42.0317 26.3379 41.9451L26.1621 41.8585L25.8984 41.9018L25.459 42.0317C25.3125 42.0605 25.2026 42.1038 25.1294 42.1616C25.0562 42.2193 25.0049 42.3203 24.9756 42.4647C24.917 42.5802 24.9023 42.6668 24.9316 42.7245C24.9609 42.7822 25.0342 42.8544 25.1514 42.941C25.2979 43.0565 25.4883 43.1792 25.7227 43.3091C25.957 43.439 26.2793 43.5905 26.6895 43.7637L27.7881 44.1968L28.0957 44.3267L28.1836 44.1968C28.2715 44.0813 28.3228 43.9875 28.3374 43.9153C28.3521 43.8431 28.3594 43.7204 28.3594 43.5472C28.3301 43.1431 28.3228 42.876 28.3374 42.7461C28.3521 42.6162 28.374 42.5224 28.4033 42.4647C28.4619 42.3781 28.5059 42.2843 28.5352 42.1832C28.5645 42.0822 28.5791 41.9884 28.5791 41.9018C28.5791 41.8152 28.5645 41.7646 28.5352 41.7502C28.5059 41.7358 28.418 41.7286 28.2715 41.7286Z" fill="#12499E"/>
</svg>
