<svg width="28" height="29" viewBox="0 0 28 29" fill="none" xmlns="http://www.w3.org/2000/svg">
<g clip-path="url(#clip0_228_18573)">
<path d="M21.7703 0.950615C21.7343 0.968576 21.7029 0.99103 21.676 1.01797C21.649 1.04492 21.6266 1.06737 21.6086 1.08533L21.5008 1.19311C21.5008 1.19311 21.5008 1.18412 21.5008 1.16616C21.5008 1.1482 21.4918 1.13024 21.4739 1.11228C21.4739 1.05839 21.4649 1.02246 21.4469 1.0045C21.429 0.98654 21.402 0.977558 21.3661 0.977558C21.3122 0.959597 21.2718 0.964087 21.2449 0.99103C21.2179 1.01797 21.2044 1.07635 21.2044 1.16616C21.2044 1.22005 21.2044 1.25148 21.2044 1.26046C21.2044 1.26945 21.1955 1.27394 21.1775 1.27394C21.1416 1.27394 21.1146 1.27843 21.0967 1.28741C21.0787 1.29639 21.0607 1.30986 21.0428 1.32782C21.0248 1.34579 21.0069 1.35926 20.9889 1.36824C20.9709 1.37722 20.962 1.37273 20.962 1.35476C20.962 1.35476 20.962 1.34579 20.962 1.32782C20.962 1.30986 20.9709 1.2919 20.9889 1.27394C20.9889 1.22005 20.9889 1.17963 20.9889 1.15269C20.9889 1.12575 20.9799 1.10329 20.962 1.08533C20.926 1.04941 20.8901 1.04043 20.8542 1.05839C20.8183 1.07635 20.7554 1.11228 20.6656 1.16616C20.6117 1.20209 20.5713 1.22903 20.5443 1.24699C20.5174 1.26495 20.477 1.27394 20.4231 1.27394C20.3872 1.27394 20.3512 1.28292 20.3153 1.30088C20.2794 1.31884 20.2435 1.3368 20.2075 1.35476C20.1537 1.37273 20.0908 1.42212 20.0189 1.50295C19.9471 1.58378 19.9022 1.66012 19.8842 1.73197C19.8483 1.82178 19.8124 1.88465 19.7764 1.92058C19.7405 1.9565 19.6866 1.96548 19.6148 1.94752C19.5789 1.92956 19.5474 1.92507 19.5205 1.93405C19.4935 1.94303 19.4441 1.97446 19.3723 2.02835C19.2825 2.1002 19.2151 2.15858 19.1702 2.20348C19.1253 2.24839 19.0939 2.29778 19.0759 2.35167C19.058 2.40556 19.04 2.45046 19.022 2.48639C19.0041 2.52231 18.9771 2.54925 18.9412 2.56722C18.8873 2.6211 18.82 2.69295 18.7391 2.78276C18.6583 2.87257 18.555 2.99831 18.4293 3.15997C18.4113 3.19589 18.3754 3.2408 18.3215 3.29469C18.2676 3.34857 18.2227 3.3845 18.1868 3.40246C18.1329 3.43839 18.0925 3.47431 18.0655 3.51023C18.0386 3.54616 18.0251 3.58208 18.0251 3.61801C18.0072 3.63597 17.9712 3.68088 17.9174 3.75272C17.8635 3.82457 17.8006 3.89642 17.7288 3.96827C17.6749 4.04012 17.621 4.11197 17.5671 4.18382C17.5132 4.25567 17.4773 4.30057 17.4593 4.31853C17.4414 4.37242 17.4279 4.42631 17.4189 4.4802C17.4099 4.53408 17.4144 4.57001 17.4324 4.58797C17.4324 4.60593 17.4279 4.62389 17.4189 4.64186C17.4099 4.65982 17.3785 4.67778 17.3246 4.69574C17.2528 4.74963 17.1989 4.80352 17.1629 4.8574C17.127 4.91129 17.1091 4.97416 17.1091 5.04601C17.127 5.08193 17.1405 5.11786 17.1495 5.15378C17.1585 5.1897 17.1629 5.21665 17.1629 5.23461C17.1809 5.25257 17.1854 5.27053 17.1764 5.2885C17.1674 5.30646 17.127 5.34238 17.0552 5.39627C16.9833 5.43219 16.9339 5.46812 16.907 5.50404C16.88 5.53997 16.8755 5.57589 16.8935 5.61182C16.8935 5.64774 16.8845 5.67468 16.8666 5.69265C16.8486 5.71061 16.7857 5.75551 16.678 5.82736C16.4804 5.93514 16.3322 6.04291 16.2334 6.15068C16.1346 6.25846 16.0762 6.35725 16.0583 6.44706C16.0583 6.53687 16.0672 6.58178 16.0852 6.58178C16.1032 6.58178 16.166 6.54585 16.2738 6.474C16.4175 6.34827 16.5208 6.27193 16.5837 6.24499C16.6465 6.21804 16.6869 6.24049 16.7049 6.31234C16.7049 6.33031 16.6959 6.35276 16.678 6.3797C16.66 6.40664 16.6331 6.43808 16.5971 6.474C16.5073 6.56381 16.4265 6.62219 16.3546 6.64914C16.2828 6.67608 16.193 6.68057 16.0852 6.66261C16.0313 6.64465 15.9909 6.63566 15.964 6.63566C15.937 6.63566 15.8876 6.64465 15.8158 6.66261C15.5823 6.77038 15.3532 6.88713 15.1287 7.01287C14.9042 7.13861 14.6931 7.27332 14.4956 7.41702H14.5225C14.3608 7.5248 14.2576 7.59664 14.2126 7.63257C14.1677 7.66849 14.1543 7.69544 14.1722 7.7134C14.1902 7.76728 14.1992 7.82117 14.1992 7.87506C14.1992 7.92895 14.1992 7.96487 14.1992 7.98283C14.1812 8.01876 14.1632 8.05019 14.1453 8.07713C14.1273 8.10408 14.1094 8.12653 14.0914 8.14449C14.0555 8.18042 14.024 8.22083 13.9971 8.26574C13.9702 8.31064 13.9567 8.36004 13.9567 8.41393L13.9028 8.7103C13.8848 8.81808 13.8848 8.88094 13.9028 8.89891C13.9208 8.91687 13.9657 8.92585 14.0375 8.92585C14.1094 8.92585 14.1588 8.93034 14.1857 8.93932C14.2126 8.9483 14.2261 8.97075 14.2261 9.00668C14.2261 9.00668 14.2082 9.03362 14.1722 9.08751C14.1363 9.1414 14.0914 9.19528 14.0375 9.24917C13.9297 9.33898 13.8669 9.39736 13.8489 9.4243C13.8309 9.45124 13.8309 9.4737 13.8489 9.49166C13.8489 9.50962 13.8579 9.52309 13.8759 9.53208C13.8938 9.54106 13.9118 9.55453 13.9297 9.57249C13.9657 9.57249 13.9971 9.57249 14.024 9.57249C14.051 9.57249 14.1004 9.55453 14.1722 9.5186C14.1902 9.50064 14.2037 9.49615 14.2126 9.50513C14.2216 9.51411 14.2171 9.54555 14.1992 9.59943C14.1992 9.63536 14.1857 9.67128 14.1588 9.70721C14.1318 9.74313 14.0824 9.78804 14.0106 9.84192C13.9746 9.87785 13.9522 9.91377 13.9432 9.9497C13.9342 9.98562 13.9297 10.0485 13.9297 10.1383C13.9297 10.1922 13.9522 10.2416 13.9971 10.2865C14.042 10.3314 14.1094 10.3718 14.1992 10.4077L14.4147 10.4886C14.5045 10.5604 14.6482 10.5469 14.8458 10.4481C15.0434 10.3494 15.3039 10.1652 15.6272 9.89581C15.7349 9.806 15.8023 9.74313 15.8292 9.70721C15.8562 9.67128 15.8876 9.6174 15.9235 9.54555L16.0313 9.35694L16.0852 9.46472C16.0852 9.50064 16.0897 9.54106 16.0987 9.58596C16.1077 9.63087 16.1122 9.68026 16.1122 9.73415C16.1122 9.84192 16.1256 9.96317 16.1526 10.0979C16.1795 10.2326 16.202 10.3359 16.2199 10.4077C16.2379 10.4437 16.2603 10.4886 16.2873 10.5425C16.3142 10.5963 16.3367 10.6502 16.3546 10.7041C16.4085 10.758 16.44 10.7984 16.4489 10.8254C16.4579 10.8523 16.4534 10.8748 16.4355 10.8927C16.4175 10.9466 16.413 10.987 16.422 11.014C16.431 11.0409 16.4624 11.0723 16.5163 11.1083C16.5343 11.1262 16.5522 11.1442 16.5702 11.1621C16.5882 11.1801 16.5971 11.1981 16.5971 11.216C16.5971 11.252 16.6151 11.3014 16.651 11.3642C16.6869 11.4271 16.7318 11.4855 16.7857 11.5394C16.8396 11.5753 16.8711 11.6067 16.88 11.6337C16.889 11.6606 16.8935 11.71 16.8935 11.7818C16.9115 11.9615 16.9249 12.1186 16.9339 12.2534C16.9429 12.3881 16.9564 12.4554 16.9743 12.4554C16.9743 12.4554 16.9923 12.4554 17.0282 12.4554C17.0641 12.4554 17.1091 12.4464 17.1629 12.4285C17.2707 12.4105 17.3336 12.3926 17.3515 12.3746C17.3695 12.3566 17.3875 12.2668 17.4054 12.1052C17.4054 12.0513 17.4099 12.0019 17.4189 11.957C17.4279 11.9121 17.4414 11.8806 17.4593 11.8627C17.4593 11.8447 17.4683 11.8312 17.4863 11.8223C17.5042 11.8133 17.5581 11.8088 17.6479 11.8088C17.6479 11.8088 17.6524 11.8088 17.6614 11.8088C17.6704 11.8088 17.6749 11.8088 17.6749 11.8088C17.7288 11.8088 17.7737 11.8043 17.8096 11.7953C17.8455 11.7863 17.8814 11.7729 17.9174 11.7549C18.0611 11.6831 18.1958 11.5438 18.3215 11.3373C18.4472 11.1307 18.5101 10.9556 18.5101 10.8119L18.4832 10.4347C18.4472 10.2191 18.4472 10.0799 18.4832 10.0171C18.5191 9.95419 18.6358 9.85989 18.8334 9.73415C18.9592 9.6623 19.049 9.60841 19.1029 9.57249C19.1568 9.53657 19.1837 9.50064 19.1837 9.46472L19.2915 9.22223C19.3454 9.07853 19.3723 8.99321 19.3723 8.96626C19.3723 8.93932 19.3454 8.91687 19.2915 8.89891C19.2196 8.88094 19.1792 8.86747 19.1702 8.85849C19.1612 8.84951 19.1747 8.81808 19.2106 8.76419C19.2286 8.74623 19.2466 8.72827 19.2645 8.7103C19.2825 8.69234 19.2915 8.67438 19.2915 8.65642C19.2915 8.63845 19.2735 8.62049 19.2376 8.60253C19.2017 8.58457 19.1208 8.5666 18.9951 8.54864C18.8514 8.53068 18.7661 8.51721 18.7391 8.50823C18.7122 8.49925 18.6897 8.47679 18.6718 8.44087C18.6538 8.40495 18.6493 8.35106 18.6583 8.27921C18.6673 8.20736 18.6808 8.11755 18.6987 8.00978L18.7257 7.7134C18.7257 7.67747 18.7391 7.63257 18.7661 7.57868C18.793 7.5248 18.8604 7.41702 18.9681 7.25536C19.1298 6.96797 19.3004 6.69853 19.4801 6.44706C19.6597 6.19559 19.8483 5.9531 20.0459 5.71959L20.0189 5.74653C20.0549 5.71061 20.0818 5.68816 20.0998 5.67917C20.1177 5.67019 20.1357 5.67468 20.1537 5.69265C20.1896 5.69265 20.2075 5.68366 20.2075 5.6657C20.2075 5.64774 20.1896 5.56691 20.1537 5.42321C20.1357 5.38729 20.1222 5.35136 20.1132 5.31544C20.1043 5.27951 20.0908 5.23461 20.0728 5.18072C20.0728 5.1448 20.0863 5.12234 20.1132 5.11336C20.1402 5.10438 20.2075 5.08193 20.3153 5.04601C20.4411 5.01008 20.5084 4.98763 20.5174 4.97865C20.5264 4.96967 20.5219 4.93823 20.5039 4.88435C20.45 4.8125 20.4321 4.7631 20.45 4.73616C20.468 4.70921 20.5129 4.65982 20.5847 4.58797L20.7464 4.4802L20.935 4.56103L21.2314 4.69574C21.2673 4.73167 21.3122 4.77208 21.3661 4.81699C21.42 4.86189 21.4469 4.89333 21.4469 4.91129C21.4469 4.91129 21.4424 4.91578 21.4335 4.92476C21.4245 4.93374 21.411 4.93823 21.3931 4.93823C21.3392 4.95619 21.2853 4.99212 21.2314 5.04601C21.1775 5.09989 21.1326 5.16276 21.0967 5.23461C21.0607 5.30646 21.0203 5.40076 20.9754 5.51752C20.9305 5.63427 20.9081 5.72857 20.9081 5.80042C20.8901 5.83634 20.8766 5.86329 20.8677 5.88125C20.8587 5.89921 20.8452 5.90819 20.8272 5.90819C20.7913 5.90819 20.7689 5.92167 20.7599 5.94861C20.7509 5.97555 20.7554 6.00698 20.7734 6.04291C20.7913 6.06087 20.8003 6.07434 20.8003 6.08332C20.8003 6.09231 20.7823 6.10578 20.7464 6.12374C20.7105 6.1417 20.6746 6.16865 20.6386 6.20457C20.6027 6.24049 20.5668 6.27642 20.5309 6.31234C20.4949 6.36623 20.4545 6.41563 20.4096 6.46053C20.3647 6.50544 20.3243 6.53687 20.2884 6.55483C20.2524 6.59076 20.23 6.61321 20.221 6.62219C20.212 6.63117 20.2075 6.65363 20.2075 6.68955C20.2075 6.72548 20.2031 6.75691 20.1941 6.78385C20.1851 6.81079 20.1716 6.84223 20.1537 6.87815V6.85121C20.1357 6.9051 20.1222 6.95 20.1132 6.98593C20.1043 7.02185 20.1088 7.08472 20.1267 7.17453L20.1806 7.57868C20.1986 7.70442 20.2165 7.82566 20.2345 7.94242C20.2524 8.05917 20.2704 8.14449 20.2884 8.19838C20.3243 8.28819 20.3602 8.35106 20.3961 8.38698C20.4321 8.42291 20.5219 8.47679 20.6656 8.54864C20.7374 8.60253 20.8048 8.64743 20.8677 8.68336C20.9305 8.71928 20.9709 8.73725 20.9889 8.73725C20.9889 8.73725 21.0069 8.74174 21.0428 8.75072C21.0787 8.7597 21.1146 8.75521 21.1506 8.73725C21.2583 8.73725 21.3661 8.7103 21.4739 8.65642C21.5817 8.60253 21.7433 8.48577 21.9589 8.30615C22.1744 8.14449 22.3361 8.03223 22.4438 7.96936C22.5516 7.90649 22.6504 7.87506 22.7402 7.87506C22.8121 7.8571 22.8794 7.82117 22.9423 7.76728C23.0052 7.7134 23.1174 7.60563 23.2791 7.44396C23.3869 7.31823 23.4767 7.20148 23.5485 7.0937C23.6204 6.98593 23.6922 6.85121 23.7641 6.68955C23.818 6.58178 23.8494 6.48748 23.8584 6.40664C23.8673 6.32582 23.8629 6.24948 23.8449 6.17763C23.791 6.06985 23.7281 5.98453 23.6563 5.92167C23.5844 5.8588 23.4946 5.8094 23.3869 5.77348L23.306 5.74653L23.333 5.69265C23.3509 5.65672 23.3599 5.62529 23.3599 5.59834C23.3599 5.5714 23.3599 5.53997 23.3599 5.50404C23.3599 5.46812 23.3599 5.44118 23.3599 5.42321C23.3599 5.40525 23.3779 5.36933 23.4138 5.31544L23.4677 5.23461L23.2791 5.20767L23.0635 5.18072C23.0635 5.18072 23.059 5.16725 23.0501 5.14031C23.0411 5.11336 23.0276 5.09091 23.0097 5.07295C23.0097 5.01906 23.0052 4.98314 22.9962 4.96518C22.9872 4.94721 22.9647 4.92925 22.9288 4.91129C22.9109 4.91129 22.8884 4.90231 22.8615 4.88435C22.8345 4.86638 22.8121 4.84842 22.7941 4.83046L22.7672 4.74963L22.848 4.45325L22.9558 4.15688L22.7133 3.88744C22.6594 3.81559 22.6055 3.74823 22.5516 3.68537C22.4977 3.6225 22.4618 3.58208 22.4438 3.56412C22.4259 3.5282 22.4169 3.48778 22.4169 3.44287C22.4169 3.39797 22.4259 3.32163 22.4438 3.21386L22.4977 3.0522L22.3361 2.91748C22.2822 2.86359 22.2373 2.81869 22.2014 2.78276C22.1654 2.74684 22.1295 2.72888 22.0936 2.72888L21.9858 2.70193L21.9319 2.40556L21.8511 2.08224C21.8511 2.06427 21.8601 2.0508 21.878 2.04182C21.896 2.03284 21.9229 2.02835 21.9589 2.02835C21.9948 2.01039 22.0307 1.98793 22.0666 1.96099C22.1026 1.93405 22.1475 1.89363 22.2014 1.83975L22.363 1.67809L22.3091 1.65114C22.2912 1.63318 22.2687 1.61971 22.2418 1.61073C22.2148 1.60175 22.1924 1.59726 22.1744 1.59726C22.1744 1.59726 22.1699 1.59726 22.1609 1.59726C22.152 1.59726 22.1475 1.59726 22.1475 1.59726C22.1115 1.59726 22.0846 1.59726 22.0666 1.59726C22.0487 1.59726 22.0217 1.58827 21.9858 1.57031H22.0127C21.9768 1.55235 21.9634 1.54337 21.9723 1.54337C21.9813 1.54337 21.9948 1.53439 22.0127 1.51643C22.0487 1.49846 22.0756 1.47601 22.0936 1.44907C22.1115 1.42212 22.1205 1.39069 22.1205 1.35476C22.1205 1.3368 22.125 1.32333 22.134 1.31435C22.143 1.30537 22.1744 1.2919 22.2283 1.27394C22.3181 1.25597 22.3675 1.2425 22.3765 1.23352C22.3855 1.22454 22.372 1.20209 22.3361 1.16616C22.3001 1.11228 22.2373 1.06288 22.1475 1.01797C22.0577 0.973068 21.9858 0.950615 21.9319 0.950615C21.896 0.932653 21.8646 0.928162 21.8376 0.937143C21.8107 0.946125 21.7882 0.950615 21.7703 0.950615ZM6.68198 2.72888C6.68198 2.74684 6.68198 2.76031 6.68198 2.76929C6.68198 2.77827 6.68198 2.79174 6.68198 2.80971C6.68198 2.84563 6.67749 2.86359 6.6685 2.86359C6.65952 2.86359 6.63707 2.84563 6.60115 2.80971L6.54726 2.75582L6.3856 2.83665C6.29579 2.87257 6.21047 2.91748 6.12964 2.97137C6.04881 3.02525 5.99941 3.06118 5.98145 3.07914C5.98145 3.13303 5.99941 3.17793 6.03534 3.21386C6.07126 3.24978 6.14311 3.28571 6.25088 3.32163C6.30477 3.33959 6.3362 3.35756 6.34518 3.37552C6.35417 3.39348 6.33171 3.42042 6.27783 3.45635C6.25986 3.47431 6.23741 3.48778 6.21047 3.49676C6.18352 3.50574 6.15209 3.50125 6.11617 3.48329C6.06228 3.48329 5.99492 3.48329 5.91409 3.48329C5.83326 3.48329 5.77488 3.49227 5.73896 3.51023C5.721 3.5282 5.70303 3.55514 5.68507 3.59106C5.66711 3.62699 5.65813 3.66291 5.65813 3.69884C5.67609 3.73476 5.68956 3.75272 5.69854 3.75272C5.70753 3.75272 5.73896 3.75272 5.79285 3.75272C5.88266 3.75272 5.95002 3.7662 5.99492 3.79314C6.03983 3.82008 6.06228 3.86948 6.06228 3.94133C6.06228 3.95929 6.05779 3.98174 6.04881 4.00869C6.03983 4.03563 6.01737 4.05808 5.98145 4.07604C5.94552 4.12993 5.91858 4.15688 5.90062 4.15688C5.88266 4.15688 5.84673 4.15688 5.79285 4.15688C5.721 4.15688 5.68058 4.16137 5.6716 4.17035C5.66262 4.17933 5.64915 4.21974 5.63119 4.29159V4.39936L5.73896 4.42631C5.82877 4.42631 5.9096 4.45325 5.98145 4.50714C6.0533 4.56103 6.13413 4.64186 6.22394 4.74963C6.33171 4.8574 6.41703 4.93823 6.4799 4.99212C6.54277 5.04601 6.61013 5.08193 6.68198 5.09989C6.69994 5.09989 6.74035 5.0954 6.80322 5.08642C6.86609 5.07744 6.93345 5.06397 7.0053 5.04601C7.149 5.01008 7.27024 4.98763 7.36903 4.97865C7.46782 4.96967 7.54416 4.97416 7.59805 4.99212C7.61601 5.01008 7.63398 5.01457 7.65194 5.00559C7.6699 4.99661 7.70582 4.98314 7.75971 4.96518C7.77767 4.94721 7.82707 4.92476 7.9079 4.89782C7.98873 4.87087 8.07405 4.84842 8.16386 4.83046C8.36145 4.75861 8.50065 4.70472 8.58148 4.6688C8.66231 4.63287 8.72967 4.58797 8.78356 4.53408C8.87337 4.46223 8.92277 4.37691 8.93175 4.27812C8.94073 4.17933 8.92726 4.07604 8.89133 3.96827C8.85541 3.89642 8.83745 3.84254 8.83745 3.80661C8.83745 3.77069 8.85541 3.74374 8.89133 3.72578C8.9093 3.70782 8.91828 3.67639 8.91828 3.63148C8.91828 3.58657 8.9093 3.54616 8.89133 3.51023C8.85541 3.49227 8.83296 3.4788 8.82397 3.46982C8.81499 3.46084 8.80152 3.46533 8.78356 3.48329L8.70273 3.53718V3.45635C8.68477 3.40246 8.66231 3.35756 8.63537 3.32163C8.60843 3.28571 8.57699 3.25876 8.54107 3.2408C8.50514 3.2408 8.4782 3.24978 8.46024 3.26774C8.44228 3.28571 8.42431 3.32163 8.40635 3.37552C8.38839 3.4294 8.37492 3.45635 8.36594 3.45635C8.35696 3.45635 8.34348 3.43839 8.32552 3.40246C8.30756 3.36654 8.28511 3.34408 8.25816 3.3351C8.23122 3.32612 8.19979 3.33959 8.16386 3.37552L8.05609 3.40246C8.05609 3.42042 8.05609 3.42491 8.05609 3.41593C8.05609 3.40695 8.05609 3.39348 8.05609 3.37552C8.05609 3.33959 8.02915 3.31265 7.97526 3.29469C7.92137 3.27673 7.84952 3.26774 7.75971 3.26774C7.65194 3.26774 7.58009 3.27223 7.54416 3.28122C7.50824 3.2902 7.4813 3.31265 7.46333 3.34857C7.44537 3.3845 7.4319 3.40246 7.42292 3.40246C7.41394 3.40246 7.41843 3.3845 7.43639 3.34857C7.45435 3.31265 7.46333 3.27673 7.46333 3.2408C7.46333 3.20488 7.45435 3.17793 7.43639 3.15997C7.41843 3.15997 7.40496 3.15997 7.39598 3.15997C7.38699 3.15997 7.37352 3.15997 7.35556 3.15997C7.35556 3.15997 7.34658 3.15997 7.32862 3.15997C7.31066 3.15997 7.30167 3.15997 7.30167 3.15997C7.24779 3.15997 7.21186 3.16895 7.1939 3.18691C7.17594 3.20488 7.149 3.2408 7.11307 3.29469C7.09511 3.36654 7.07715 3.40695 7.05918 3.41593C7.04122 3.42491 7.01428 3.43839 6.97835 3.45635H6.89752L6.95141 3.32163C7.0053 3.21386 7.02775 3.11057 7.01877 3.01178C7.00979 2.91299 6.96937 2.82767 6.89752 2.75582C6.8616 2.7199 6.82118 2.69744 6.77628 2.68846C6.73137 2.67948 6.69994 2.69295 6.68198 2.72888ZM22.4438 8.7103C22.354 8.7103 22.2418 8.73276 22.107 8.77766C21.9723 8.82257 21.8601 8.86298 21.7703 8.89891C21.7164 8.91687 21.6625 8.93932 21.6086 8.96626C21.5547 8.99321 21.5098 9.02464 21.4739 9.06057C21.3661 9.13242 21.3077 9.19079 21.2987 9.2357C21.2898 9.2806 21.3212 9.33 21.3931 9.38389C21.429 9.43777 21.4514 9.4737 21.4604 9.49166C21.4694 9.50962 21.4739 9.55453 21.4739 9.62638C21.4739 9.73415 21.4918 9.79702 21.5278 9.81498C21.5637 9.83294 21.6355 9.81498 21.7433 9.76109C21.7792 9.74313 21.8017 9.73415 21.8107 9.73415C21.8197 9.73415 21.8331 9.75211 21.8511 9.78804C21.869 9.806 21.878 9.81947 21.878 9.82845C21.878 9.83743 21.869 9.85989 21.8511 9.89581C21.8331 9.93173 21.8241 9.99909 21.8241 10.0979C21.8241 10.1967 21.8331 10.3 21.8511 10.4077C21.8511 10.5155 21.8466 10.5918 21.8376 10.6368C21.8286 10.6817 21.7972 10.7131 21.7433 10.7311C21.6894 10.767 21.6266 10.7625 21.5547 10.7176C21.4829 10.6727 21.411 10.5963 21.3392 10.4886L21.2314 10.3538H21.0967C21.0787 10.3538 21.0697 10.3538 21.0697 10.3538C21.0697 10.3538 21.0607 10.3538 21.0428 10.3538C21.0248 10.3538 20.9979 10.3538 20.962 10.3538C20.926 10.3538 20.8991 10.3449 20.8811 10.3269V10.3538C20.8632 10.3359 20.8452 10.3314 20.8272 10.3404C20.8093 10.3494 20.7823 10.3718 20.7464 10.4077C20.6566 10.5335 20.5803 10.6727 20.5174 10.8254C20.4545 10.978 20.4051 11.1352 20.3692 11.2969V11.3238L20.3961 11.4855C20.4141 11.5034 20.4321 11.5483 20.45 11.6202C20.468 11.692 20.477 11.7549 20.477 11.8088C20.4949 11.9166 20.5129 11.9884 20.5309 12.0243C20.5488 12.0603 20.5668 12.0962 20.5847 12.1321C20.6207 12.168 20.6476 12.186 20.6656 12.186C20.6835 12.186 20.7464 12.186 20.8542 12.186C20.962 12.168 21.0248 12.168 21.0428 12.186C21.0607 12.204 21.0697 12.2578 21.0697 12.3477C21.0697 12.3656 21.0652 12.3971 21.0563 12.442C21.0473 12.4869 21.0338 12.5273 21.0158 12.5632C20.9979 12.6171 20.9889 12.6575 20.9889 12.6844C20.9889 12.7114 20.9889 12.7518 20.9889 12.8057V12.9674L20.9081 12.9943C20.8721 12.9943 20.8497 12.9943 20.8407 12.9943C20.8317 12.9943 20.8183 12.9674 20.8003 12.9135L20.7464 12.8326L20.5578 12.8596C20.4141 12.8775 20.2794 12.8955 20.1537 12.9135C20.0279 12.9314 19.9201 12.9494 19.8303 12.9674C19.7405 12.9853 19.6732 12.9898 19.6283 12.9808C19.5834 12.9718 19.507 12.9224 19.3992 12.8326C19.3633 12.7967 19.3274 12.7653 19.2915 12.7383C19.2555 12.7114 19.2286 12.6979 19.2106 12.6979C19.1568 12.6979 19.0625 12.7294 18.9277 12.7922C18.793 12.8551 18.6718 12.9135 18.564 12.9674L18.079 13.2368C18.0072 13.2727 17.9398 13.3086 17.8769 13.3446C17.8141 13.3805 17.7647 13.3984 17.7288 13.3984C17.7108 13.4164 17.6794 13.4389 17.6345 13.4658C17.5895 13.4927 17.5491 13.5242 17.5132 13.5601C17.4414 13.614 17.4009 13.6454 17.392 13.6544C17.383 13.6634 17.3785 13.6589 17.3785 13.6409C17.3785 13.5871 17.365 13.5466 17.3381 13.5197C17.3111 13.4927 17.2707 13.4613 17.2168 13.4254L17.0821 13.3715C17.0821 13.3715 17.0866 13.367 17.0956 13.358C17.1046 13.3491 17.118 13.3356 17.136 13.3176C17.136 13.2997 17.145 13.2772 17.1629 13.2503C17.1809 13.2233 17.1899 13.2098 17.1899 13.2098C17.1899 13.156 17.1674 13.0886 17.1225 13.0078C17.0776 12.9269 17.0372 12.8775 17.0013 12.8596C16.9654 12.8237 16.9384 12.8102 16.9205 12.8192C16.9025 12.8281 16.8666 12.8506 16.8127 12.8865C16.7768 12.9224 16.7588 12.9584 16.7588 12.9943C16.7588 13.0302 16.7768 13.0572 16.8127 13.0751C16.8486 13.0931 16.8666 13.1111 16.8666 13.129C16.8666 13.147 16.8396 13.1649 16.7857 13.1829C16.7139 13.2547 16.6196 13.3041 16.5028 13.3311C16.3861 13.358 16.2918 13.3625 16.2199 13.3446C16.202 13.3266 16.1885 13.3221 16.1795 13.3311C16.1705 13.3401 16.1481 13.3715 16.1122 13.4254C16.0762 13.4793 16.0538 13.5107 16.0448 13.5197C16.0358 13.5287 16.0134 13.5332 15.9774 13.5332C15.9595 13.5332 15.9415 13.5287 15.9235 13.5197C15.9056 13.5107 15.8876 13.5062 15.8697 13.5062C15.8697 13.5062 15.8697 13.4972 15.8697 13.4793C15.8697 13.4613 15.8697 13.4434 15.8697 13.4254C15.8697 13.3895 15.8607 13.367 15.8427 13.358C15.8248 13.3491 15.7799 13.3266 15.708 13.2907L15.4655 13.2368C15.4296 13.2188 15.3982 13.2054 15.3712 13.1964C15.3443 13.1874 15.3308 13.1829 15.3308 13.1829C15.3488 13.1649 15.3577 13.1515 15.3577 13.1425C15.3577 13.1335 15.3667 13.12 15.3847 13.1021H15.3577C15.3757 13.0841 15.3892 13.0661 15.3982 13.0482C15.4071 13.0302 15.4116 13.0033 15.4116 12.9674C15.4116 12.9314 15.4026 12.9045 15.3847 12.8865C15.3667 12.8686 15.3308 12.8416 15.2769 12.8057L15.1152 12.7518C15.0973 12.7518 15.1018 12.7338 15.1287 12.6979C15.1557 12.662 15.1871 12.6261 15.223 12.5901C15.2949 12.5003 15.3667 12.3971 15.4386 12.2803C15.5104 12.1635 15.5643 12.0603 15.6002 11.9704C15.6182 11.9166 15.6362 11.8806 15.6541 11.8627C15.6721 11.8447 15.726 11.8178 15.8158 11.7818C15.9235 11.71 15.9729 11.6606 15.964 11.6337C15.955 11.6067 15.8786 11.5753 15.7349 11.5394C15.699 11.5394 15.6676 11.5349 15.6406 11.5259C15.6137 11.5169 15.6002 11.5034 15.6002 11.4855C15.5823 11.4855 15.5778 11.4675 15.5868 11.4316C15.5957 11.3957 15.6092 11.3508 15.6272 11.2969C15.6631 11.2071 15.69 11.1038 15.708 10.987C15.726 10.8703 15.726 10.8119 15.708 10.8119C15.69 10.8119 15.6451 10.8343 15.5733 10.8792C15.5014 10.9241 15.4565 10.9646 15.4386 11.0005C15.4386 11.0184 15.4296 11.0319 15.4116 11.0409C15.3937 11.0499 15.3577 11.0544 15.3039 11.0544L15.0614 11.0813H14.9266L14.8189 11.243L14.6842 11.4316C14.6842 11.4675 14.6976 11.4855 14.7246 11.4855C14.7515 11.4855 14.7829 11.4765 14.8189 11.4585C14.8548 11.4406 14.8952 11.4226 14.9401 11.4046C14.985 11.3867 15.0254 11.3777 15.0614 11.3777C15.0793 11.3777 15.0973 11.3822 15.1152 11.3912C15.1332 11.4001 15.1512 11.4046 15.1691 11.4046C15.2051 11.4046 15.232 11.4091 15.25 11.4181C15.2679 11.4271 15.2769 11.4316 15.2769 11.4316C15.2769 11.4495 15.2365 11.4765 15.1557 11.5124C15.0748 11.5483 15.0165 11.5663 14.9805 11.5663C14.9626 11.5663 14.9491 11.5663 14.9401 11.5663C14.9311 11.5663 14.9266 11.5663 14.9266 11.5663C14.8907 11.5663 14.8548 11.5663 14.8189 11.5663C14.7829 11.5663 14.756 11.5573 14.738 11.5394V11.5663C14.7021 11.5483 14.6707 11.5349 14.6437 11.5259C14.6168 11.5169 14.6033 11.5214 14.6033 11.5394C14.5854 11.5932 14.5764 11.6516 14.5764 11.7145C14.5764 11.7774 14.5764 11.8357 14.5764 11.8896C14.5764 11.9076 14.5764 11.9255 14.5764 11.9435C14.5764 11.9615 14.5764 11.9794 14.5764 11.9974C14.5764 12.2309 14.5809 12.3701 14.5899 12.415C14.5988 12.4599 14.6123 12.5003 14.6303 12.5363C14.6482 12.5722 14.6572 12.6081 14.6572 12.644C14.6572 12.68 14.6572 12.7428 14.6572 12.8326C14.6572 12.9404 14.6707 13.0392 14.6976 13.129C14.7246 13.2188 14.756 13.2997 14.7919 13.3715C14.8279 13.4074 14.8458 13.4344 14.8458 13.4523C14.8458 13.4703 14.8368 13.4972 14.8189 13.5332C14.8009 13.5691 14.774 13.6005 14.738 13.6275C14.7021 13.6544 14.6752 13.6499 14.6572 13.614C14.6392 13.596 14.6213 13.596 14.6033 13.614C14.5854 13.632 14.5764 13.6589 14.5764 13.6948C14.5764 13.7128 14.5764 13.7352 14.5764 13.7622C14.5764 13.7891 14.5674 13.8116 14.5494 13.8295C14.5494 13.8655 14.5449 13.8879 14.536 13.8969C14.527 13.9059 14.5045 13.9104 14.4686 13.9104C14.4327 13.9104 14.4012 13.9014 14.3743 13.8834C14.3474 13.8655 14.3159 13.8295 14.28 13.7757L14.1453 13.6409L14.0375 13.7487L13.9028 13.8834C13.8848 13.9014 13.8714 13.9104 13.8624 13.9104C13.8534 13.9104 13.8309 13.9104 13.795 13.9104C13.7052 13.8924 13.584 13.8969 13.4313 13.9238C13.2786 13.9508 13.1663 13.9912 13.0945 14.0451C13.0586 14.081 13.0406 14.1124 13.0406 14.1394C13.0406 14.1663 13.0496 14.2517 13.0676 14.3954C13.0676 14.4313 13.0676 14.4582 13.0676 14.4762C13.0676 14.4941 13.0586 14.5121 13.0406 14.5301C13.0047 14.566 12.9822 14.5884 12.9733 14.5974C12.9643 14.6064 12.9328 14.6019 12.879 14.584H12.7712L12.7173 14.1798L12.6365 14.3145L12.4748 14.6109C12.403 14.7366 12.3401 14.8309 12.2862 14.8938C12.2323 14.9567 12.1515 15.024 12.0437 15.0959C11.9539 15.1498 11.8865 15.1992 11.8416 15.2441C11.7967 15.289 11.7743 15.3204 11.7743 15.3384C11.6485 15.3923 11.5318 15.4417 11.424 15.4866C11.3162 15.5315 11.2174 15.5809 11.1276 15.6347H11.1546C11.1546 15.6347 11.1501 15.6347 11.1411 15.6347C11.1321 15.6347 11.1276 15.6347 11.1276 15.6347C11.1097 15.6347 11.1007 15.6347 11.1007 15.6347C11.1007 15.6347 11.0917 15.6347 11.0737 15.6347C11.0558 15.6168 10.9839 15.6123 10.8582 15.6213C10.7325 15.6303 10.6516 15.6437 10.6157 15.6617C10.5798 15.6797 10.5483 15.7111 10.5214 15.756C10.4945 15.8009 10.463 15.8862 10.4271 16.012C10.3732 16.1377 10.3193 16.232 10.2654 16.2949C10.2116 16.3577 10.1217 16.4071 9.99601 16.443C9.96009 16.461 9.93314 16.47 9.91518 16.47C9.89722 16.47 9.87027 16.461 9.83435 16.443C9.79843 16.4251 9.7625 16.4251 9.72658 16.443C9.69065 16.461 9.64575 16.5149 9.59186 16.6047C9.53797 16.6766 9.49307 16.7215 9.45714 16.7394C9.42122 16.7574 9.36733 16.7484 9.29548 16.7125C9.2416 16.6766 9.20118 16.6406 9.17424 16.6047C9.14729 16.5688 9.13382 16.5149 9.13382 16.443V16.3353L9.02605 16.3622C8.97216 16.3622 8.93624 16.3622 8.91828 16.3622C8.90031 16.3622 8.87337 16.3532 8.83745 16.3353C8.78356 16.2993 8.74314 16.2859 8.7162 16.2949C8.68926 16.3038 8.65782 16.3353 8.6219 16.3892C8.60394 16.4251 8.59046 16.461 8.58148 16.4969C8.5725 16.5329 8.56801 16.5688 8.56801 16.6047C8.56801 16.6406 8.5725 16.6721 8.58148 16.699C8.59046 16.726 8.60394 16.7574 8.6219 16.7933C8.63986 16.8292 8.64884 16.8562 8.64884 16.8741C8.64884 16.8921 8.63986 16.928 8.6219 16.9819C8.6219 17.0178 8.61741 17.0493 8.60843 17.0762C8.59945 17.1032 8.58597 17.1256 8.56801 17.1436C8.55005 17.1615 8.5276 17.175 8.50065 17.184C8.47371 17.193 8.41533 17.1885 8.32552 17.1705H8.08303C8.06507 17.1526 8.04711 17.1346 8.02915 17.1166C8.01118 17.0987 7.99322 17.0807 7.97526 17.0627V17.0358L7.92137 16.955L6.92447 16.9819L6.84364 17.0358C6.84364 17.0538 6.83915 17.0717 6.83016 17.0897C6.82118 17.1076 6.80771 17.1256 6.78975 17.1436C6.78975 17.1615 6.79873 17.175 6.81669 17.184C6.83466 17.193 6.85262 17.2064 6.87058 17.2244L6.97835 17.2783L6.87058 17.3322L6.73586 17.3861C6.7179 17.3861 6.70443 17.3906 6.69545 17.3995C6.68647 17.4085 6.68198 17.413 6.68198 17.413C6.68198 17.4489 6.69545 17.4893 6.72239 17.5343C6.74933 17.5792 6.78975 17.6196 6.84364 17.6555C6.87956 17.6914 6.9065 17.7139 6.92447 17.7229C6.94243 17.7318 6.98734 17.7363 7.05918 17.7363C7.11307 17.7184 7.15349 17.7139 7.18043 17.7229C7.20737 17.7318 7.24779 17.7453 7.30167 17.7633C7.35556 17.8172 7.41394 17.88 7.47681 17.9519C7.53967 18.0237 7.59805 18.1135 7.65194 18.2213C7.6699 18.2932 7.69235 18.3426 7.7193 18.3695C7.74624 18.3964 7.76869 18.4189 7.78665 18.4369L7.89443 18.4907C7.89443 18.4907 7.88994 18.4997 7.88096 18.5177C7.87198 18.5356 7.8585 18.5626 7.84054 18.5985L7.78665 18.6793L7.84054 18.841C7.8585 18.8949 7.87647 18.9533 7.89443 19.0161C7.91239 19.079 7.93035 19.1553 7.94832 19.2452C7.94832 19.335 7.9573 19.4158 7.97526 19.4876C7.99322 19.5595 8.0022 19.6224 8.0022 19.6762C8.02016 19.7301 8.02915 19.7661 8.02915 19.784C8.02915 19.802 8.01118 19.8379 7.97526 19.8918C7.93933 19.9457 7.88545 20.049 7.8136 20.2016C7.74175 20.3543 7.67888 20.5115 7.62499 20.6732C7.58907 20.7809 7.55764 20.8573 7.53069 20.9022C7.50375 20.9471 7.44537 21.0144 7.35556 21.1042C7.28371 21.1761 7.18941 21.2659 7.07266 21.3737C6.9559 21.4815 6.87058 21.5533 6.81669 21.5892C6.78077 21.5892 6.74933 21.5847 6.72239 21.5758C6.69545 21.5668 6.66401 21.5533 6.62809 21.5353H6.65503L6.197 21.4006C5.99941 21.3827 5.8153 21.3422 5.64466 21.2794C5.47402 21.2165 5.30787 21.1492 5.1462 21.0773H5.17315C5.02945 21.0055 4.9127 20.9561 4.82289 20.9291C4.73307 20.9022 4.66122 20.8887 4.60734 20.8887C4.60734 20.8887 4.60285 20.8887 4.59387 20.8887C4.58489 20.8887 4.58039 20.8887 4.58039 20.8887C4.56243 20.8887 4.53998 20.8887 4.51304 20.8887C4.48609 20.8887 4.46364 20.8797 4.44568 20.8618C4.40975 20.8438 4.36934 20.8303 4.32443 20.8213C4.27953 20.8124 4.23911 20.7989 4.20319 20.7809H4.17624C4.1044 20.7809 4.03255 20.763 3.9607 20.727C3.88885 20.6911 3.82598 20.6462 3.77209 20.5923C3.73617 20.5744 3.70024 20.5564 3.66432 20.5384C3.6284 20.5205 3.60145 20.5115 3.58349 20.5115C3.5296 20.5115 3.48919 20.5205 3.46225 20.5384C3.4353 20.5564 3.40387 20.5923 3.36794 20.6462L3.31406 20.727L3.09851 20.754C2.95481 20.7719 2.85153 20.7989 2.78866 20.8348C2.72579 20.8707 2.68538 20.9426 2.66742 21.0504C2.64945 21.0863 2.64047 21.1132 2.64047 21.1312C2.64047 21.1492 2.65844 21.1851 2.69436 21.239C2.69436 21.2569 2.69885 21.2794 2.70783 21.3063C2.71681 21.3333 2.73028 21.3557 2.74825 21.3737C2.73028 21.4096 2.71232 21.441 2.69436 21.468C2.6764 21.4949 2.65844 21.5174 2.64047 21.5353C2.60455 21.5713 2.57761 21.6072 2.55964 21.6431C2.54168 21.679 2.5327 21.706 2.5327 21.7239C2.51474 21.7419 2.47881 21.7778 2.42493 21.8317C2.37104 21.8856 2.25428 21.9754 2.07466 22.1012C2.02078 22.1371 1.98036 22.1685 1.95342 22.1955C1.92647 22.2224 1.913 22.2359 1.913 22.2359L1.93995 22.3436C1.97587 22.3975 1.98934 22.4469 1.98036 22.4918C1.97138 22.5367 1.93096 22.5861 1.85912 22.64C1.75134 22.7119 1.67949 22.7702 1.64357 22.8152C1.60764 22.8601 1.58968 22.9184 1.58968 22.9903C1.58968 23.0262 1.56274 23.0801 1.50885 23.1519C1.45496 23.2238 1.2933 23.4034 1.02387 23.6908C0.862211 23.8525 0.727494 23.9962 0.619721 24.1219C0.511947 24.2476 0.458061 24.3195 0.458061 24.3375L0.485004 24.4722C0.502966 24.562 0.52991 24.6383 0.565834 24.7012C0.601759 24.7641 0.637683 24.8135 0.673608 24.8494C0.69157 24.8853 0.705042 24.9122 0.714023 24.9302C0.723004 24.9482 0.718513 24.9751 0.700551 25.011C0.682589 25.029 0.660136 25.0559 0.633193 25.0919C0.606249 25.1278 0.574815 25.1637 0.538891 25.1996C0.485004 25.2356 0.44908 25.2715 0.431117 25.3074C0.413155 25.3433 0.422136 25.3882 0.458061 25.4421C0.493985 25.496 0.498476 25.5499 0.471532 25.6038C0.444589 25.6577 0.377231 25.7385 0.269457 25.8463C0.21557 25.9181 0.170665 25.972 0.13474 26.0079C0.0988159 26.0439 0.0898348 26.0708 0.107797 26.0888L0.646664 26.1965L1.15859 26.3043L1.26636 26.4121C1.30229 26.4301 1.34719 26.4615 1.40108 26.5064C1.45496 26.5513 1.50885 26.5917 1.56274 26.6276C1.7244 26.7534 1.84564 26.8701 1.92647 26.9779C2.0073 27.0857 2.0567 27.2024 2.07466 27.3282C2.09262 27.418 2.151 27.4719 2.24979 27.4898C2.34859 27.5078 2.54168 27.4898 2.82908 27.4359C2.93685 27.4 3.05809 27.3731 3.19281 27.3551C3.32753 27.3371 3.45775 27.3282 3.58349 27.3282C3.65534 27.3282 3.72719 27.3282 3.79904 27.3282C3.87089 27.3282 3.93375 27.3371 3.98764 27.3551C4.07745 27.3731 4.14481 27.3865 4.18972 27.3955C4.23462 27.4045 4.26606 27.418 4.28402 27.4359C4.31994 27.4539 4.34689 27.4629 4.36485 27.4629C4.38281 27.4629 4.40975 27.4539 4.44568 27.4359C4.4816 27.418 4.51304 27.4 4.53998 27.3821C4.56692 27.3641 4.60734 27.3551 4.66122 27.3551C4.73307 27.3551 4.80043 27.3461 4.8633 27.3282C4.92617 27.3102 5.02945 27.2653 5.17315 27.1934C5.28092 27.1575 5.39768 27.1171 5.52341 27.0722C5.64915 27.0273 5.77488 26.9869 5.90062 26.951H5.92756C5.96349 26.933 5.98594 26.915 5.99492 26.8971C6.0039 26.8791 6.00839 26.8522 6.00839 26.8162L5.98145 26.7085L6.11617 26.6007C6.17005 26.5827 6.23741 26.5468 6.31824 26.4929C6.39907 26.439 6.47541 26.3941 6.54726 26.3582C6.65503 26.3043 6.72688 26.2639 6.76281 26.237C6.79873 26.21 6.82567 26.1786 6.84364 26.1427C6.8616 26.0708 6.87507 25.999 6.88405 25.9271C6.89303 25.8553 6.87956 25.7744 6.84364 25.6846C6.80771 25.5589 6.78975 25.4511 6.78975 25.3613C6.78975 25.2715 6.81669 25.1907 6.87058 25.1188C6.92447 25.029 7.0053 24.9302 7.11307 24.8224C7.22084 24.7147 7.35556 24.5979 7.51722 24.4722C7.58907 24.4183 7.66092 24.3554 7.73277 24.2836C7.80462 24.2117 7.8585 24.1578 7.89443 24.1219C7.98424 24.0501 8.05609 23.9962 8.10997 23.9602C8.16386 23.9243 8.23571 23.9064 8.32552 23.9064C8.39737 23.8884 8.46473 23.8704 8.5276 23.8525C8.59046 23.8345 8.70273 23.7806 8.86439 23.6908L9.2416 23.5022H9.45714C9.51103 23.5022 9.56492 23.5022 9.6188 23.5022C9.67269 23.5022 9.69963 23.4932 9.69963 23.4753C9.69963 23.4753 9.70861 23.4618 9.72658 23.4348C9.74454 23.4079 9.75352 23.3855 9.75352 23.3675C9.77148 23.3136 9.78495 23.2777 9.79393 23.2597C9.80292 23.2418 9.82537 23.2328 9.86129 23.2328C9.91518 23.2148 9.95111 23.1924 9.96907 23.1654C9.98703 23.1385 9.99601 23.0981 9.99601 23.0442C9.99601 23.0262 9.99601 23.0082 9.99601 22.9903C9.99601 22.9723 9.98703 22.9633 9.96907 22.9633C9.95111 22.9454 9.93763 22.9139 9.92865 22.869C9.91967 22.8241 9.91518 22.7568 9.91518 22.667C9.91518 22.5412 9.94212 22.42 9.99601 22.3032C10.0499 22.1865 10.1307 22.1012 10.2385 22.0473L10.3193 22.0203L10.5618 22.1281C10.7594 22.2179 10.8807 22.2673 10.9256 22.2763C10.9705 22.2853 11.0288 22.2808 11.1007 22.2628L11.2623 22.2359C11.2623 22.2359 11.2758 22.2493 11.3028 22.2763C11.3297 22.3032 11.3611 22.3257 11.3971 22.3436C11.433 22.3796 11.4689 22.411 11.5048 22.4379C11.5408 22.4649 11.5677 22.4873 11.5857 22.5053C11.6396 22.5233 11.7294 22.5322 11.8551 22.5322C11.9808 22.5322 12.0617 22.5233 12.0976 22.5053C12.1156 22.4873 12.1605 22.4424 12.2323 22.3706C12.3042 22.2987 12.385 22.2179 12.4748 22.1281C12.6185 21.9664 12.7083 21.8676 12.7442 21.8317C12.7802 21.7958 12.8161 21.7778 12.852 21.7778C12.8879 21.7958 12.9463 21.7868 13.0271 21.7509C13.108 21.715 13.2113 21.6521 13.337 21.5623L13.6334 21.4006L13.7142 21.3467L13.8489 21.4006L14.0645 21.4815C14.1183 21.4994 14.1543 21.5219 14.1722 21.5488C14.1902 21.5758 14.2441 21.6521 14.3339 21.7778C14.4237 21.9395 14.4821 22.0562 14.509 22.1281C14.536 22.1999 14.5584 22.3077 14.5764 22.4514C14.5943 22.5951 14.6392 22.7164 14.7111 22.8152C14.7829 22.9139 14.9715 23.0621 15.2769 23.2597C15.4026 23.3675 15.5014 23.4528 15.5733 23.5157C15.6451 23.5785 15.726 23.6549 15.8158 23.7447C15.9415 23.8884 16.0358 23.9827 16.0987 24.0276C16.1615 24.0725 16.2469 24.086 16.3546 24.068C16.4085 24.068 16.4489 24.0725 16.4759 24.0815C16.5028 24.0905 16.5343 24.1129 16.5702 24.1488C16.6241 24.1668 16.66 24.1938 16.678 24.2297C16.6959 24.2656 16.7229 24.3195 16.7588 24.3913C16.7947 24.4632 16.8217 24.5126 16.8396 24.5395C16.8576 24.5665 16.8935 24.5889 16.9474 24.6069C16.9833 24.6248 17.0282 24.6428 17.0821 24.6608C17.136 24.6787 17.1809 24.6877 17.2168 24.6877L17.4054 24.7147V24.7955C17.4054 24.8494 17.4189 24.9212 17.4458 25.011C17.4728 25.1008 17.4952 25.1458 17.5132 25.1458L17.6479 25.1727C17.7018 25.1907 17.7422 25.2086 17.7692 25.2266C17.7961 25.2445 17.8275 25.2715 17.8635 25.3074C17.9533 25.3793 18.0206 25.4691 18.0655 25.5768C18.1105 25.6846 18.1688 25.8642 18.2407 26.1157C18.2766 26.2414 18.2901 26.3133 18.2811 26.3313C18.2721 26.3492 18.2317 26.3851 18.1598 26.439C18.1239 26.439 18.1015 26.4525 18.0925 26.4794C18.0835 26.5064 18.07 26.5468 18.0521 26.6007C18.0521 26.6366 18.0431 26.6815 18.0251 26.7354C18.0072 26.7893 17.9892 26.8342 17.9712 26.8701C17.9353 26.942 17.9174 26.9869 17.9174 27.0048C17.9174 27.0228 17.9263 27.0408 17.9443 27.0587C17.9982 27.0767 18.0521 27.0767 18.106 27.0587C18.1598 27.0408 18.2137 27.0048 18.2676 26.951C18.3035 26.915 18.3395 26.8432 18.3754 26.7354C18.4113 26.6276 18.4472 26.5199 18.4832 26.4121C18.5011 26.3402 18.5281 26.2819 18.564 26.237C18.5999 26.1921 18.6628 26.1516 18.7526 26.1157C18.8244 26.0798 18.8694 26.0484 18.8873 26.0214C18.9053 25.9945 18.9053 25.9361 18.8873 25.8463C18.8873 25.7205 18.8828 25.6442 18.8738 25.6173C18.8649 25.5903 18.8424 25.5768 18.8065 25.5768C18.7885 25.5768 18.7436 25.5544 18.6718 25.5095C18.5999 25.4646 18.5281 25.4152 18.4562 25.3613C18.4383 25.3613 18.4652 25.276 18.5371 25.1053C18.6089 24.9347 18.6808 24.8135 18.7526 24.7416L18.8065 24.6608L18.9412 24.7147L19.2106 24.8224C19.2645 24.8404 19.3409 24.8943 19.4397 24.9841C19.5384 25.0739 19.6058 25.1458 19.6417 25.1996C19.6417 25.2176 19.6462 25.2266 19.6552 25.2266C19.6642 25.2266 19.6777 25.2176 19.6956 25.1996C19.7136 25.1637 19.7271 25.1143 19.736 25.0515C19.745 24.9886 19.7405 24.9302 19.7226 24.8763C19.6866 24.7865 19.6103 24.7012 19.4935 24.6204C19.3768 24.5395 19.1478 24.4183 18.8065 24.2566C18.6628 24.1848 18.5281 24.1129 18.4023 24.0411C18.2766 23.9692 18.1509 23.8884 18.0251 23.7986L18.0521 23.8255C18.0521 23.8076 18.0611 23.7851 18.079 23.7582C18.097 23.7312 18.1149 23.6998 18.1329 23.6639L18.2407 23.5292C18.2407 23.5112 18.2003 23.4932 18.1194 23.4753C18.0386 23.4573 17.9353 23.4483 17.8096 23.4483C17.7198 23.4483 17.6479 23.4483 17.594 23.4483C17.5401 23.4483 17.4863 23.4393 17.4324 23.4214C17.2348 23.3495 17.0776 23.2328 16.9609 23.0711C16.8441 22.9095 16.7678 22.7119 16.7318 22.4784C16.6959 22.3167 16.6555 22.1999 16.6106 22.1281C16.5657 22.0562 16.4534 21.9485 16.2738 21.8048C16.2199 21.7689 16.1705 21.7284 16.1256 21.6835C16.0807 21.6386 16.0403 21.5982 16.0044 21.5623C15.9685 21.5084 15.9415 21.459 15.9235 21.4141C15.9056 21.3692 15.8966 21.3198 15.8966 21.2659C15.8966 21.23 15.8966 21.1941 15.8966 21.1581C15.8966 21.1222 15.9056 21.0863 15.9235 21.0504V21.0773C15.9415 21.0055 15.955 20.9606 15.964 20.9426C15.9729 20.9246 15.9595 20.8977 15.9235 20.8618C15.9056 20.7899 15.8966 20.7136 15.8966 20.6327C15.8966 20.5519 15.9146 20.5025 15.9505 20.4846C15.9864 20.4486 16.0313 20.4127 16.0852 20.3768C16.1391 20.3409 16.193 20.3049 16.2469 20.269H16.2738L16.5432 20.1073L16.651 20.1343C16.669 20.1522 16.6914 20.1657 16.7184 20.1747C16.7453 20.1837 16.7678 20.1882 16.7857 20.1882C16.8037 20.1882 16.8172 20.1927 16.8262 20.2016C16.8351 20.2106 16.8396 20.2151 16.8396 20.2151L16.7857 20.3498L16.7049 20.4846L16.7588 20.6193L16.8396 20.8348C16.8576 20.8707 16.8711 20.8977 16.88 20.9156C16.889 20.9336 16.8935 20.9426 16.8935 20.9426C16.9294 20.9067 16.9609 20.8662 16.9878 20.8213C17.0148 20.7764 17.0372 20.727 17.0552 20.6732C17.0552 20.6552 17.0641 20.6372 17.0821 20.6193C17.1001 20.6013 17.118 20.5833 17.136 20.5654L17.1899 20.4846L17.2438 20.5654C17.2797 20.6013 17.3111 20.6372 17.3381 20.6732C17.365 20.7091 17.4144 20.754 17.4863 20.8079C17.5042 20.8258 17.5177 20.8483 17.5267 20.8752C17.5357 20.9022 17.5401 20.9695 17.5401 21.0773C17.5401 21.1312 17.5401 21.1806 17.5401 21.2255C17.5401 21.2704 17.5491 21.2929 17.5671 21.2929C17.5671 21.3108 17.5806 21.3333 17.6075 21.3602C17.6345 21.3872 17.6569 21.4096 17.6749 21.4276C17.7108 21.4455 17.7377 21.468 17.7557 21.4949C17.7737 21.5219 17.7916 21.5443 17.8096 21.5623C17.8096 21.6162 17.8365 21.6656 17.8904 21.7105C17.9443 21.7554 18.0072 21.7958 18.079 21.8317C18.1329 21.8497 18.1688 21.8676 18.1868 21.8856C18.2048 21.9036 18.2137 21.9305 18.2137 21.9664L18.2407 22.0473H18.3754C18.5011 22.0473 18.6134 22.0742 18.7122 22.1281C18.811 22.182 18.9322 22.2718 19.0759 22.3975C19.1298 22.4514 19.1747 22.4918 19.2106 22.5188C19.2466 22.5457 19.2825 22.5682 19.3184 22.5861C19.4082 22.6041 19.5205 22.6535 19.6552 22.7343C19.7899 22.8152 19.8932 22.8915 19.9651 22.9633C20.001 22.9993 20.0324 23.0217 20.0594 23.0307C20.0863 23.0397 20.1357 23.0262 20.2075 22.9903C20.2435 22.9903 20.2614 22.9948 20.2614 23.0038C20.2614 23.0127 20.2614 23.0262 20.2614 23.0442C20.2614 23.0621 20.2659 23.0756 20.2749 23.0846C20.2839 23.0936 20.2974 23.107 20.3153 23.125C20.3512 23.125 20.3692 23.134 20.3692 23.1519C20.3692 23.1699 20.3692 23.2238 20.3692 23.3136C20.3692 23.3855 20.3692 23.4438 20.3692 23.4887C20.3692 23.5336 20.3961 23.619 20.45 23.7447L20.5578 24.0141L20.3961 24.3375L20.45 24.4452C20.468 24.535 20.5084 24.6159 20.5713 24.6877C20.6341 24.7596 20.7015 24.8404 20.7734 24.9302C20.8991 25.02 20.9799 25.0874 21.0158 25.1323C21.0518 25.1772 21.0697 25.2356 21.0697 25.3074C21.0697 25.3433 21.0787 25.3748 21.0967 25.4017C21.1146 25.4287 21.1326 25.4511 21.1506 25.4691C21.2044 25.523 21.2673 25.5634 21.3392 25.5903C21.411 25.6173 21.4918 25.6397 21.5817 25.6577L21.7703 25.7116L21.6894 25.7385C21.6715 25.7565 21.658 25.7744 21.649 25.7924C21.64 25.8104 21.6266 25.8373 21.6086 25.8732C21.5906 25.8912 21.5817 25.9091 21.5817 25.9271C21.5817 25.9451 21.5906 25.972 21.6086 26.0079C21.6266 26.0439 21.6625 26.0843 21.7164 26.1292C21.7703 26.1741 21.8152 26.2055 21.8511 26.2235C21.905 26.2414 22.0038 26.2459 22.1475 26.237C22.2912 26.228 22.4349 26.2145 22.5786 26.1965C22.7582 26.1786 22.8839 26.1696 22.9558 26.1696C23.0276 26.1696 23.0635 26.1786 23.0635 26.1965C23.0635 26.2325 23.0501 26.2729 23.0231 26.3178C22.9962 26.3627 22.9647 26.3851 22.9288 26.3851C22.8749 26.4031 22.821 26.4121 22.7672 26.4121C22.7133 26.4121 22.6235 26.4031 22.4977 26.3851C22.354 26.3492 22.2328 26.3313 22.134 26.3313C22.0352 26.3313 21.9589 26.3492 21.905 26.3851C21.8511 26.4211 21.8107 26.466 21.7837 26.5199C21.7568 26.5738 21.7433 26.6366 21.7433 26.7085C21.7433 26.7983 21.7568 26.8611 21.7837 26.8971C21.8107 26.933 21.887 26.9689 22.0127 27.0048C22.0666 27.0228 22.1115 27.0408 22.1475 27.0587C22.1834 27.0767 22.2014 27.0947 22.2014 27.1126C22.2014 27.1126 22.2058 27.1441 22.2148 27.2069C22.2238 27.2698 22.2283 27.3461 22.2283 27.4359C22.2283 27.5437 22.2328 27.6156 22.2418 27.6515C22.2507 27.6874 22.2642 27.7233 22.2822 27.7593C22.3181 27.7772 22.354 27.7952 22.39 27.8131C22.4259 27.8311 22.4618 27.8401 22.4977 27.8401C22.4977 27.8401 22.5022 27.8401 22.5112 27.8401C22.5202 27.8401 22.5247 27.8401 22.5247 27.8401C22.5606 27.8401 22.5965 27.8131 22.6324 27.7593C22.6684 27.7054 22.6863 27.6605 22.6863 27.6245C22.6863 27.6066 22.6863 27.5886 22.6863 27.5707C22.6863 27.5527 22.6863 27.5437 22.6863 27.5437L22.848 27.7862C22.8839 27.8401 22.9198 27.8895 22.9558 27.9344C22.9917 27.9793 23.0097 28.0017 23.0097 28.0017C23.0276 28.0017 23.0456 27.9793 23.0635 27.9344C23.0815 27.8895 23.0995 27.8401 23.1174 27.7862L23.1444 27.6515C23.1444 27.6515 23.1578 27.665 23.1848 27.6919C23.2117 27.7188 23.2432 27.7503 23.2791 27.7862C23.333 27.8401 23.3779 27.8805 23.4138 27.9074C23.4497 27.9344 23.4767 27.9479 23.4946 27.9479C23.5126 27.9479 23.5216 27.9389 23.5216 27.9209C23.5216 27.903 23.5216 27.8491 23.5216 27.7593C23.5216 27.6515 23.5036 27.5662 23.4677 27.5033C23.4318 27.4404 23.3779 27.3821 23.306 27.3282C23.2162 27.2384 23.1623 27.189 23.1444 27.18C23.1264 27.171 23.1264 27.1306 23.1444 27.0587V26.951L23.333 27.0587C23.4767 27.1306 23.5889 27.162 23.6698 27.153C23.7506 27.1441 23.791 27.1036 23.791 27.0318C23.791 26.9959 23.7686 26.9599 23.7237 26.924C23.6787 26.8881 23.6024 26.8522 23.4946 26.8162L23.333 26.7624V26.4121L23.4138 26.439C23.4318 26.457 23.4542 26.4705 23.4812 26.4794C23.5081 26.4884 23.5395 26.4929 23.5755 26.4929C23.6114 26.5109 23.6473 26.5288 23.6832 26.5468C23.7192 26.5648 23.7551 26.5917 23.791 26.6276C23.8808 26.6995 23.9437 26.7444 23.9796 26.7624C24.0155 26.7803 24.0515 26.7803 24.0874 26.7624C24.1413 26.7264 24.1637 26.6905 24.1547 26.6546C24.1458 26.6187 24.1053 26.5648 24.0335 26.4929C23.9976 26.475 23.9706 26.448 23.9527 26.4121C23.9347 26.3762 23.9167 26.3402 23.8988 26.3043C23.8988 26.2684 23.8584 26.219 23.7775 26.1561C23.6967 26.0933 23.5934 26.0259 23.4677 25.9541C23.306 25.8642 23.1848 25.7789 23.104 25.6981C23.0231 25.6173 22.9647 25.523 22.9288 25.4152C22.8929 25.3254 22.866 25.2535 22.848 25.1996C22.83 25.1458 22.83 25.1188 22.848 25.1188C22.848 25.1188 22.866 25.1278 22.9019 25.1458C22.9378 25.1637 22.9827 25.1817 23.0366 25.1996C23.1264 25.2176 23.1848 25.2311 23.2117 25.2401C23.2387 25.249 23.2611 25.2356 23.2791 25.1996C23.297 25.1637 23.2881 25.1278 23.2521 25.0919C23.2162 25.0559 23.1354 24.9931 23.0097 24.9033C22.9558 24.8673 22.8974 24.8269 22.8345 24.782C22.7717 24.7371 22.7312 24.6967 22.7133 24.6608C22.6594 24.6069 22.628 24.5575 22.619 24.5126C22.61 24.4677 22.6145 24.3734 22.6324 24.2297C22.6504 24.1219 22.6639 24.0545 22.6729 24.0276C22.6818 24.0007 22.7043 23.9872 22.7402 23.9872C22.7761 23.9872 22.8166 24.0186 22.8615 24.0815C22.9064 24.1444 22.9647 24.2566 23.0366 24.4183C23.1264 24.5799 23.2027 24.6922 23.2656 24.7551C23.3285 24.8179 23.3869 24.8135 23.4407 24.7416C23.4587 24.7057 23.4677 24.6653 23.4677 24.6204C23.4677 24.5755 23.4587 24.544 23.4407 24.5261C23.4048 24.5081 23.3734 24.4767 23.3464 24.4318C23.3195 24.3868 23.315 24.3644 23.333 24.3644C23.333 24.3644 23.3509 24.3779 23.3869 24.4048C23.4228 24.4318 23.4587 24.4632 23.4946 24.4991C23.5665 24.571 23.6159 24.6114 23.6428 24.6204C23.6698 24.6293 23.7012 24.6248 23.7371 24.6069C23.773 24.5889 23.782 24.5665 23.7641 24.5395C23.7461 24.5126 23.6743 24.4273 23.5485 24.2836C23.4946 24.2117 23.4857 24.1758 23.5216 24.1758C23.5575 24.1758 23.6293 24.2117 23.7371 24.2836C23.809 24.3375 23.8584 24.3689 23.8853 24.3779C23.9123 24.3868 23.9347 24.3824 23.9527 24.3644C23.9706 24.3285 23.9706 24.2881 23.9527 24.2431C23.9347 24.1982 23.8898 24.1399 23.818 24.068C23.782 24.0321 23.7596 24.0096 23.7506 24.0007C23.7416 23.9917 23.7461 23.9962 23.7641 24.0141C23.818 24.0501 23.8584 24.059 23.8853 24.0411C23.9123 24.0231 23.9437 23.9602 23.9796 23.8525C23.9796 23.8165 23.9886 23.7761 24.0066 23.7312C24.0245 23.6863 24.0425 23.6549 24.0604 23.6369C24.0784 23.619 24.1323 23.592 24.2221 23.5561C24.3119 23.5202 24.3838 23.5022 24.4377 23.5022C24.4556 23.5022 24.487 23.4977 24.532 23.4887C24.5769 23.4798 24.6173 23.4663 24.6532 23.4483C24.725 23.4304 24.7834 23.4214 24.8283 23.4214C24.8732 23.4214 24.9316 23.4214 25.0035 23.4214C25.0573 23.4214 25.1067 23.4214 25.1516 23.4214C25.1966 23.4214 25.219 23.4124 25.219 23.3944C25.237 23.3944 25.2549 23.3944 25.2729 23.3944C25.2909 23.3944 25.2998 23.3944 25.2998 23.3944C25.2998 23.4304 25.2909 23.4663 25.2729 23.5022C25.2549 23.5381 25.237 23.5651 25.219 23.583C25.1831 23.6728 25.1606 23.7447 25.1516 23.7986C25.1427 23.8525 25.1472 23.8794 25.1651 23.8794C25.2549 23.8255 25.3403 23.7671 25.4211 23.7043C25.5019 23.6414 25.5783 23.583 25.6501 23.5292C25.686 23.4932 25.7085 23.4618 25.7175 23.4348C25.7264 23.4079 25.7309 23.3855 25.7309 23.3675C25.7309 23.3316 25.7354 23.3046 25.7444 23.2867C25.7534 23.2687 25.7848 23.2418 25.8387 23.2058C25.9285 23.1519 26.0138 23.107 26.0947 23.0711C26.1755 23.0352 26.2878 22.9993 26.4315 22.9633C26.629 22.9095 26.7503 22.869 26.7952 22.8421C26.8401 22.8152 26.8715 22.7747 26.8895 22.7208L26.9164 22.667L26.6739 22.5322C26.5303 22.4424 26.3955 22.3481 26.2698 22.2493C26.1441 22.1505 26.0363 22.0473 25.9465 21.9395L25.7848 21.7509L25.8387 21.6162C25.8746 21.5623 25.8971 21.5129 25.9061 21.468C25.915 21.4231 25.9195 21.3557 25.9195 21.2659C25.9195 21.1761 25.9285 21.0908 25.9465 21.0099C25.9644 20.9291 25.9824 20.8438 26.0004 20.754L26.0543 20.5115L26.0004 20.1343C26.0004 20.0984 25.9959 20.0579 25.9869 20.013C25.9779 19.9681 25.9734 19.9187 25.9734 19.8649C25.9734 19.8469 25.9734 19.8289 25.9734 19.811C25.9734 19.793 25.9734 19.775 25.9734 19.7571L26.2429 19.5146L26.4584 19.2721L26.4315 19.2182L26.2429 18.7602C26.2429 18.7422 26.2563 18.7377 26.2833 18.7467C26.3102 18.7557 26.3416 18.7602 26.3776 18.7602C26.4135 18.7781 26.4404 18.7871 26.4584 18.7871C26.4764 18.7871 26.4943 18.7781 26.5123 18.7602L26.5392 18.5446C26.5752 18.347 26.629 18.1899 26.7009 18.0731C26.7727 17.9564 26.8715 17.871 26.9973 17.8172C27.0332 17.7992 27.0736 17.7857 27.1185 17.7767C27.1634 17.7678 27.2308 17.7633 27.3206 17.7633H27.5361V17.2513L27.5631 16.0389L27.59 15.3384L27.5361 15.3653C27.5002 15.4012 27.4284 15.4147 27.3206 15.4057C27.2128 15.3967 27.0871 15.3653 26.9434 15.3114C26.7278 15.2575 26.5841 15.2261 26.5123 15.2171C26.4404 15.2081 26.3596 15.2216 26.2698 15.2575C26.18 15.2755 26.1216 15.2845 26.0947 15.2845C26.0677 15.2845 26.0183 15.2665 25.9465 15.2306L25.7579 15.1498L25.677 15.1228V15.015C25.695 14.9432 25.704 14.9028 25.704 14.8938C25.704 14.8848 25.686 14.8534 25.6501 14.7995C25.6142 14.7815 25.5872 14.7546 25.5693 14.7187C25.5513 14.6827 25.5423 14.6378 25.5423 14.584C25.5244 14.5121 25.4974 14.4582 25.4615 14.4223C25.4256 14.3864 25.3717 14.3415 25.2998 14.2876C25.2819 14.2696 25.2684 14.2427 25.2594 14.2067C25.2504 14.1708 25.246 14.108 25.246 14.0181L25.219 13.7757L25.3807 13.8565L25.5154 13.9912C25.5333 14.0092 25.5558 14.0137 25.5827 14.0047C25.6097 13.9957 25.6321 13.9732 25.6501 13.9373C25.6681 13.9194 25.6815 13.9059 25.6905 13.8969C25.6995 13.8879 25.713 13.8744 25.7309 13.8565C25.8028 13.8385 25.8207 13.7801 25.7848 13.6814C25.7489 13.5826 25.686 13.4972 25.5962 13.4254L25.3807 13.2368C25.3268 13.2009 25.2864 13.1694 25.2594 13.1425C25.2325 13.1155 25.201 13.0841 25.1651 13.0482L25.1112 12.9674V12.2668L25.0573 12.186C25.0214 12.1321 24.972 12.0872 24.9092 12.0513C24.8463 12.0154 24.743 11.9615 24.5993 11.8896C24.5275 11.8717 24.4691 11.8447 24.4242 11.8088C24.3793 11.7729 24.3299 11.7369 24.276 11.701C24.2221 11.6471 24.1098 11.5214 23.9392 11.3238C23.7686 11.1262 23.6653 11.0005 23.6293 10.9466L23.5755 10.8658L23.6293 10.7311C23.7012 10.4796 23.7012 10.3 23.6293 10.1922C23.5575 10.0844 23.3779 10.0126 23.0905 9.97664C23.0546 9.97664 23.0141 9.96766 22.9692 9.9497C22.9243 9.93173 22.8839 9.91377 22.848 9.89581L22.7672 9.84192L22.8749 9.73415C22.9468 9.68026 23.0007 9.63087 23.0366 9.58596C23.0725 9.54106 23.0905 9.50962 23.0905 9.49166C23.0725 9.4737 23.059 9.46023 23.0501 9.45124C23.0411 9.44226 23.0276 9.42879 23.0097 9.41083C22.9737 9.39287 22.9468 9.3794 22.9288 9.37041C22.9109 9.36143 22.8929 9.34796 22.8749 9.33C22.857 9.31204 22.848 9.28959 22.848 9.26264C22.848 9.2357 22.857 9.21325 22.8749 9.19528C22.8929 9.17732 22.9109 9.15936 22.9288 9.1414C22.9468 9.12343 22.9558 9.10547 22.9558 9.08751L23.0097 8.92585C23.0276 8.88993 23.0321 8.86747 23.0231 8.85849C23.0141 8.84951 23.0007 8.82706 22.9827 8.79113C22.9468 8.77317 22.8974 8.75521 22.8345 8.73725C22.7717 8.71928 22.7133 8.7103 22.6594 8.7103H22.6324C22.6324 8.69234 22.6145 8.68785 22.5786 8.69683C22.5426 8.70581 22.4977 8.7103 22.4438 8.7103ZM9.02605 9.41083C9.00809 9.41083 8.98563 9.41981 8.95869 9.43777C8.93175 9.45574 8.9093 9.4737 8.89133 9.49166C8.85541 9.54555 8.82397 9.59494 8.79703 9.63985C8.77009 9.68475 8.75662 9.73415 8.75662 9.78804V9.81498C8.75662 9.83294 8.76111 9.84192 8.77009 9.84192C8.77907 9.84192 8.81948 9.84192 8.89133 9.84192C8.96318 9.84192 9.03503 9.82396 9.10688 9.78804C9.17873 9.75211 9.2416 9.71619 9.29548 9.68026C9.31345 9.64434 9.32692 9.60841 9.3359 9.57249C9.34488 9.53657 9.34937 9.50064 9.34937 9.46472C9.34937 9.46472 9.34937 9.46023 9.34937 9.45124C9.34937 9.44226 9.34937 9.42879 9.34937 9.41083C9.34937 9.39287 9.34039 9.3794 9.32243 9.37041C9.30446 9.36143 9.27752 9.35694 9.2416 9.35694C9.20567 9.35694 9.16975 9.36143 9.13382 9.37041C9.0979 9.3794 9.06197 9.39287 9.02605 9.41083ZM9.69963 9.62638C9.64575 9.62638 9.58288 9.65781 9.51103 9.72068C9.43918 9.78355 9.32243 9.88683 9.16077 10.0305L8.94522 10.273L8.89133 10.1922C8.83745 10.1563 8.78805 10.1293 8.74314 10.1114C8.69824 10.0934 8.64884 10.0934 8.59496 10.1114C8.57699 10.1114 8.55903 10.1158 8.54107 10.1248C8.52311 10.1338 8.51413 10.1383 8.51413 10.1383L8.6219 10.3269C8.63986 10.3808 8.66231 10.4302 8.68926 10.4751C8.7162 10.52 8.74763 10.5425 8.78356 10.5425L8.83745 10.5963L8.64884 10.7311C8.52311 10.7849 8.42431 10.8478 8.35247 10.9197C8.28062 10.9915 8.23571 11.0634 8.21775 11.1352C8.19979 11.2071 8.19979 11.252 8.21775 11.2699C8.23571 11.2879 8.27164 11.2969 8.32552 11.2969C8.4333 11.2969 8.51413 11.3014 8.56801 11.3103C8.6219 11.3193 8.64884 11.3328 8.64884 11.3508C8.64884 11.3687 8.63088 11.4091 8.59496 11.472C8.55903 11.5349 8.52311 11.6022 8.48718 11.6741L8.29858 11.9704C8.29858 11.9704 8.31654 11.9704 8.35247 11.9704C8.46024 11.9345 8.54107 11.9121 8.59496 11.9031C8.64884 11.8941 8.68477 11.8896 8.70273 11.8896C8.72069 11.9076 8.7162 11.939 8.68926 11.9839C8.66231 12.0288 8.6219 12.0782 8.56801 12.1321C8.51413 12.168 8.48269 12.195 8.47371 12.2129C8.46473 12.2309 8.4782 12.2578 8.51413 12.2938C8.55005 12.3477 8.59945 12.3836 8.66231 12.4015C8.72518 12.4195 8.81948 12.4105 8.94522 12.3746C9.03503 12.3566 9.10239 12.3432 9.14729 12.3342C9.1922 12.3252 9.22363 12.3297 9.2416 12.3477C9.27752 12.3836 9.2865 12.433 9.26854 12.4958C9.25058 12.5587 9.21465 12.6261 9.16077 12.6979L9.10688 12.7787L9.16077 12.9135C9.19669 13.0392 9.20567 13.1335 9.18771 13.1964C9.16975 13.2592 9.11586 13.3356 9.02605 13.4254C8.9542 13.4972 8.90031 13.5332 8.86439 13.5332C8.82846 13.5332 8.73865 13.4972 8.59496 13.4254C8.54107 13.4074 8.49616 13.3895 8.46024 13.3715C8.42431 13.3535 8.39737 13.3535 8.37941 13.3715C8.36145 13.3715 8.35247 13.3984 8.35247 13.4523C8.35247 13.5062 8.36145 13.5601 8.37941 13.614L8.40635 13.7218H8.32552C8.25367 13.7218 8.21775 13.7352 8.21775 13.7622C8.21775 13.7891 8.25367 13.8295 8.32552 13.8834C8.39737 13.9194 8.4333 13.9508 8.4333 13.9777C8.4333 14.0047 8.42431 14.0451 8.40635 14.099C8.37043 14.1529 8.31654 14.1978 8.24469 14.2337C8.17284 14.2696 8.08303 14.3145 7.97526 14.3684C7.90341 14.3864 7.84503 14.4043 7.80013 14.4223C7.75522 14.4403 7.73277 14.4492 7.73277 14.4492C7.69684 14.4852 7.67439 14.5301 7.66541 14.584C7.65643 14.6378 7.64296 14.6917 7.62499 14.7456C7.62499 14.7636 7.65194 14.7726 7.70582 14.7726C7.75971 14.7726 7.84054 14.7815 7.94832 14.7995H8.27164L8.35247 14.8803C8.37043 14.9163 8.38839 14.9387 8.40635 14.9477C8.42431 14.9567 8.46922 14.9612 8.54107 14.9612C8.57699 14.9612 8.61292 14.9612 8.64884 14.9612C8.68477 14.9612 8.70273 14.9612 8.70273 14.9612C8.70273 14.9791 8.67579 15.0106 8.6219 15.0555C8.56801 15.1004 8.52311 15.1318 8.48718 15.1498C8.45126 15.1677 8.41982 15.1767 8.39288 15.1767C8.36594 15.1767 8.30756 15.1587 8.21775 15.1228C8.18182 15.1228 8.1459 15.1183 8.10997 15.1094C8.07405 15.1004 8.03813 15.0959 8.0022 15.0959C7.98424 15.0959 7.94382 15.1318 7.88096 15.2037C7.81809 15.2755 7.77767 15.3294 7.75971 15.3653C7.74175 15.3833 7.69684 15.4102 7.62499 15.4461C7.55315 15.4821 7.42741 15.527 7.24779 15.5809C7.03224 15.6707 6.9065 15.7201 6.87058 15.729C6.83466 15.738 6.82567 15.7605 6.84364 15.7964C6.89752 15.8503 6.97835 15.8817 7.08613 15.8907C7.1939 15.8997 7.3376 15.8862 7.51722 15.8503L7.84054 15.7964C7.8585 15.7964 7.87647 15.8009 7.89443 15.8099C7.91239 15.8189 7.92137 15.8323 7.92137 15.8503C7.92137 15.8683 7.92586 15.8817 7.93484 15.8907C7.94382 15.8997 7.9573 15.9042 7.97526 15.9042L8.08303 15.8233C8.19081 15.7515 8.27613 15.7066 8.33899 15.6886C8.40186 15.6707 8.46922 15.6976 8.54107 15.7695C8.59496 15.8054 8.64435 15.8189 8.68926 15.8099C8.73416 15.8009 8.81948 15.7784 8.94522 15.7425L9.16077 15.6886C9.17873 15.6886 9.1922 15.6976 9.20118 15.7156C9.21016 15.7335 9.22363 15.7515 9.2416 15.7695C9.29548 15.8413 9.34488 15.8997 9.38978 15.9446C9.43469 15.9895 9.47511 16.003 9.51103 15.985C9.54695 15.985 9.5739 15.9626 9.59186 15.9177C9.60982 15.8727 9.6188 15.8233 9.6188 15.7695C9.6188 15.7515 9.6188 15.738 9.6188 15.729C9.6188 15.7201 9.62778 15.7156 9.64575 15.7156C9.75352 15.7515 9.86129 15.7695 9.96907 15.7695C10.0768 15.7695 10.1846 15.7605 10.2924 15.7425C10.4002 15.7246 10.5079 15.6797 10.6157 15.6078C10.7235 15.536 10.7774 15.4821 10.7774 15.4461C10.7774 15.4102 10.7639 15.3833 10.737 15.3653C10.71 15.3474 10.6606 15.3204 10.5888 15.2845C10.5528 15.2845 10.5214 15.2755 10.4945 15.2575C10.4675 15.2396 10.454 15.2306 10.454 15.2306C10.4361 15.2306 10.4361 15.2171 10.454 15.1902C10.472 15.1632 10.499 15.1408 10.5349 15.1228L10.6696 14.9881C10.6876 14.9701 10.7055 14.9567 10.7235 14.9477C10.7414 14.9387 10.7504 14.9342 10.7504 14.9342C10.8223 14.9342 10.9166 14.8938 11.0333 14.813C11.1501 14.7321 11.2354 14.6558 11.2893 14.584C11.3073 14.566 11.3162 14.548 11.3162 14.5301C11.3162 14.5121 11.3162 14.4941 11.3162 14.4762C11.2803 14.4043 11.2399 14.3504 11.195 14.3145C11.1501 14.2786 11.1007 14.2427 11.0468 14.2067C10.9929 14.2067 10.9435 14.2067 10.8986 14.2067C10.8537 14.2067 10.8133 14.2067 10.7774 14.2067C10.7594 14.2067 10.7459 14.2067 10.737 14.2067C10.728 14.2067 10.7235 14.2067 10.7235 14.2067C10.6516 14.2067 10.5933 14.2023 10.5483 14.1933C10.5034 14.1843 10.481 14.1798 10.481 14.1798L10.5888 13.8565C10.6965 13.605 10.7459 13.4164 10.737 13.2907C10.728 13.1649 10.6516 13.0392 10.5079 12.9135L10.3732 12.7787L10.4002 12.671C10.4002 12.6171 10.3957 12.5812 10.3867 12.5632C10.3777 12.5452 10.3463 12.5452 10.2924 12.5632C10.2565 12.5812 10.2205 12.5857 10.1846 12.5767C10.1487 12.5677 10.1307 12.5542 10.1307 12.5363L10.2116 12.2938C10.2654 12.168 10.2969 12.0737 10.3059 12.0109C10.3148 11.948 10.3103 11.8896 10.2924 11.8357C10.2924 11.7998 10.2699 11.7684 10.225 11.7414C10.1801 11.7145 10.1487 11.701 10.1307 11.701C10.1128 11.701 10.0948 11.6965 10.0768 11.6875C10.0589 11.6786 10.0409 11.6741 10.023 11.6741C10.005 11.6561 9.98703 11.6426 9.96907 11.6337C9.95111 11.6247 9.93314 11.6112 9.91518 11.5932C9.87926 11.5932 9.86129 11.5888 9.86129 11.5798C9.86129 11.5708 9.87027 11.5394 9.88824 11.4855C9.9062 11.4136 9.95111 11.3373 10.023 11.2565C10.0948 11.1756 10.2026 11.0544 10.3463 10.8927C10.5079 10.7311 10.6067 10.6233 10.6427 10.5694C10.6786 10.5155 10.6876 10.4616 10.6696 10.4077C10.6696 10.3718 10.6067 10.3494 10.481 10.3404C10.3553 10.3314 10.1936 10.3449 9.99601 10.3808L9.72658 10.4077C9.70861 10.4077 9.75352 10.3583 9.86129 10.2595C9.96907 10.1608 10.0858 10.0575 10.2116 9.9497C10.2834 9.89581 10.3508 9.84192 10.4136 9.78804C10.4765 9.73415 10.5079 9.70721 10.5079 9.70721C10.5079 9.70721 10.5079 9.70272 10.5079 9.69374C10.5079 9.68475 10.5079 9.67128 10.5079 9.65332C10.49 9.63536 10.4585 9.62638 10.4136 9.62638C10.3687 9.62638 10.2744 9.62638 10.1307 9.62638C10.0948 9.62638 10.0544 9.62189 10.0095 9.61291C9.96458 9.60392 9.92416 9.59943 9.88824 9.59943C9.85231 9.59943 9.82088 9.59943 9.79393 9.59943C9.76699 9.59943 9.73556 9.60841 9.69963 9.62638ZM7.40945 11.7549C7.35556 11.7729 7.30167 11.7953 7.24779 11.8223C7.1939 11.8492 7.149 11.8806 7.11307 11.9166C7.09511 11.9345 7.07715 11.948 7.05918 11.957C7.04122 11.966 7.02326 11.9704 7.0053 11.9704C6.95141 11.9704 6.911 11.9839 6.88405 12.0109C6.85711 12.0378 6.85262 12.0603 6.87058 12.0782C6.88854 12.0962 6.9065 12.1097 6.92447 12.1186C6.94243 12.1276 6.96039 12.1321 6.97835 12.1321C7.01428 12.1321 7.03673 12.1366 7.04571 12.1456C7.05469 12.1546 7.05918 12.177 7.05918 12.2129C7.05918 12.2309 7.0502 12.2489 7.03224 12.2668C7.01428 12.2848 6.98733 12.3027 6.95141 12.3207C6.91549 12.3387 6.89303 12.3477 6.88405 12.3477C6.87507 12.3477 6.8616 12.3387 6.84364 12.3207C6.77179 12.2668 6.673 12.2264 6.54726 12.1995C6.42152 12.1725 6.32273 12.177 6.25088 12.2129C6.197 12.2309 6.14311 12.2623 6.08922 12.3072C6.03534 12.3521 6.00839 12.3926 6.00839 12.4285C6.00839 12.4285 6.01288 12.4375 6.02186 12.4554C6.03085 12.4734 6.04432 12.4824 6.06228 12.4824C6.08024 12.5003 6.09371 12.5183 6.10269 12.5363C6.11168 12.5542 6.11617 12.5722 6.11617 12.5901C6.13413 12.6261 6.13413 12.653 6.11617 12.671C6.0982 12.6889 6.0533 12.7069 5.98145 12.7249C5.89164 12.7608 5.83775 12.7832 5.81979 12.7922C5.80183 12.8012 5.79285 12.8057 5.79285 12.8057C5.79285 12.8416 5.81081 12.8775 5.84673 12.9135C5.88266 12.9494 5.91858 12.9763 5.95451 12.9943C5.97247 13.0123 6.0039 13.0257 6.04881 13.0347C6.09371 13.0437 6.13413 13.0572 6.17005 13.0751L6.33171 13.1021L6.197 13.156C6.12515 13.1739 6.07126 13.1784 6.03534 13.1694C5.99941 13.1604 5.97247 13.138 5.95451 13.1021C5.93654 13.0482 5.91858 13.0302 5.90062 13.0482C5.88266 13.0661 5.85571 13.1021 5.81979 13.156L5.79285 13.2907C5.79285 13.2907 5.77937 13.2862 5.75243 13.2772C5.72549 13.2682 5.70303 13.2637 5.68507 13.2637L5.55036 13.2098C5.51443 13.2098 5.483 13.2278 5.45605 13.2637C5.42911 13.2997 5.41564 13.3356 5.41564 13.3715C5.41564 13.4074 5.42013 13.4299 5.42911 13.4389C5.43809 13.4478 5.45156 13.4613 5.46953 13.4793L5.55036 13.5062L5.41564 13.5332C5.37971 13.5511 5.34828 13.5646 5.32134 13.5736C5.29439 13.5826 5.27194 13.596 5.25398 13.614C5.23602 13.614 5.23602 13.6275 5.25398 13.6544C5.27194 13.6814 5.2899 13.7128 5.30787 13.7487C5.32583 13.7667 5.33481 13.7891 5.33481 13.8161C5.33481 13.843 5.30787 13.8834 5.25398 13.9373C5.23602 13.9553 5.22254 13.9777 5.21356 14.0047C5.20458 14.0316 5.20009 14.0451 5.20009 14.0451C5.20009 14.0631 5.22254 14.0855 5.26745 14.1124C5.31236 14.1394 5.36175 14.1708 5.41564 14.2067L5.63119 14.2876H5.90062C6.08024 14.2696 6.25537 14.2472 6.42601 14.2202C6.59666 14.1933 6.72688 14.1708 6.81669 14.1529C6.96039 14.1169 7.10409 14.0586 7.24779 13.9777C7.39149 13.8969 7.49926 13.8206 7.57111 13.7487C7.64296 13.6589 7.70133 13.5421 7.74624 13.3984C7.79115 13.2547 7.8136 13.138 7.8136 13.0482L7.78665 12.9404L8.21775 12.644V12.4015C8.21775 12.2938 8.21326 12.2129 8.20428 12.1591C8.1953 12.1052 8.18182 12.0603 8.16386 12.0243C8.1459 11.9525 8.12345 11.9121 8.0965 11.9031C8.06956 11.8941 8.02915 11.8986 7.97526 11.9166C7.9573 11.9166 7.93933 11.9166 7.92137 11.9166C7.90341 11.9166 7.89443 11.9166 7.89443 11.9166C7.87647 11.8986 7.85401 11.8851 7.82707 11.8761C7.80013 11.8672 7.77767 11.8627 7.75971 11.8627C7.70582 11.8447 7.67439 11.8357 7.66541 11.8357C7.65643 11.8357 7.65194 11.8178 7.65194 11.7818C7.65194 11.7639 7.65194 11.7504 7.65194 11.7414C7.65194 11.7324 7.62499 11.728 7.57111 11.728C7.57111 11.728 7.54866 11.728 7.50375 11.728C7.45884 11.728 7.42741 11.7369 7.40945 11.7549ZM13.6603 22.6939C13.4986 22.8376 13.3954 22.9364 13.3505 22.9903C13.3056 23.0442 13.2741 23.116 13.2562 23.2058C13.2562 23.2597 13.2517 23.3181 13.2427 23.381C13.2337 23.4438 13.2292 23.5022 13.2292 23.5561C13.2292 23.6459 13.2292 23.7043 13.2292 23.7312C13.2292 23.7582 13.2472 23.7896 13.2831 23.8255C13.319 23.8794 13.3729 23.9333 13.4448 23.9872C13.5166 24.0411 13.5705 24.059 13.6064 24.0411C13.6423 24.0231 13.6873 23.9737 13.7411 23.8929C13.795 23.8121 13.8489 23.7267 13.9028 23.6369C13.9567 23.4932 13.9881 23.3361 13.9971 23.1654C14.0061 22.9948 14.0016 22.8556 13.9836 22.7478C13.9657 22.6939 13.9432 22.6445 13.9163 22.5996C13.8893 22.5547 13.8669 22.5322 13.8489 22.5322C13.8489 22.5322 13.8309 22.5502 13.795 22.5861C13.7591 22.6221 13.7142 22.658 13.6603 22.6939ZM13.4986 24.2566C13.4807 24.2925 13.4403 24.3285 13.3774 24.3644C13.3145 24.4003 13.2562 24.4362 13.2023 24.4722C13.0586 24.562 12.9777 24.6338 12.9598 24.6877C12.9418 24.7416 12.9328 24.8853 12.9328 25.1188C12.9328 25.2625 12.9283 25.3703 12.9194 25.4421C12.9104 25.514 12.8969 25.5948 12.879 25.6846C12.843 25.8283 12.8206 25.9541 12.8116 26.0618C12.8026 26.1696 12.8071 26.2325 12.8251 26.2504C12.843 26.2684 12.861 26.2774 12.879 26.2774C12.8969 26.2774 12.9328 26.2684 12.9867 26.2504C13.0226 26.2504 13.0586 26.237 13.0945 26.21C13.1304 26.1831 13.1663 26.1516 13.2023 26.1157C13.2741 26.0439 13.3235 26.0034 13.3505 25.9945C13.3774 25.9855 13.4088 25.999 13.4448 26.0349C13.4448 26.0528 13.4493 26.0663 13.4582 26.0753C13.4672 26.0843 13.4717 26.0888 13.4717 26.0888C13.4897 26.0888 13.5166 26.0528 13.5525 25.981C13.5885 25.9091 13.6244 25.8104 13.6603 25.6846L13.7411 25.496L13.6873 25.3344C13.6513 25.2266 13.6379 25.1547 13.6468 25.1188C13.6558 25.0829 13.6873 25.047 13.7411 25.011C13.7771 24.9751 13.7995 24.9257 13.8085 24.8628C13.8175 24.8 13.813 24.7147 13.795 24.6069C13.795 24.5171 13.7726 24.4273 13.7277 24.3375C13.6828 24.2476 13.6513 24.2027 13.6334 24.2027C13.6154 24.2027 13.5929 24.2117 13.566 24.2297C13.5391 24.2476 13.5166 24.2566 13.4986 24.2566ZM17.4324 26.8971C17.3965 26.915 17.3381 26.933 17.2572 26.951C17.1764 26.9689 17.0911 26.9959 17.0013 27.0318C16.8037 27.0857 16.6555 27.1126 16.5567 27.1126C16.4579 27.1126 16.3546 27.0857 16.2469 27.0318L16.1391 26.9779L15.9774 27.0048L15.708 27.0857C15.6182 27.1036 15.5508 27.1306 15.5059 27.1665C15.461 27.2024 15.4296 27.2653 15.4116 27.3551C15.3757 27.427 15.3667 27.4808 15.3847 27.5168C15.4026 27.5527 15.4475 27.5976 15.5194 27.6515C15.6092 27.7233 15.726 27.7997 15.8697 27.8805C16.0134 27.9613 16.2109 28.0556 16.4624 28.1634L17.136 28.4328L17.3246 28.5137L17.3785 28.4328C17.4324 28.361 17.4638 28.3026 17.4728 28.2577C17.4818 28.2128 17.4863 28.1365 17.4863 28.0287C17.4683 27.7772 17.4638 27.6111 17.4728 27.5302C17.4818 27.4494 17.4952 27.391 17.5132 27.3551C17.5491 27.3012 17.5761 27.2428 17.594 27.18C17.612 27.1171 17.621 27.0587 17.621 27.0048C17.621 26.951 17.612 26.9195 17.594 26.9105C17.5761 26.9016 17.5222 26.8971 17.4324 26.8971Z" fill="#008E7C"/>
</g>
<defs>
<clipPath id="clip0_228_18573">
<rect width="27.59" height="28" fill="white" transform="matrix(1 0 0 -1 0 28.7188)"/>
</clipPath>
</defs>
</svg>
