<svg width="16" height="17" viewBox="0 0 16 17" fill="none" xmlns="http://www.w3.org/2000/svg">
<path d="M15.9777 8.6835C15.9777 8.14138 15.9329 7.59632 15.8372 7.06299H8.16016V10.1341H12.5564C12.374 11.1245 11.7878 12.0007 10.9295 12.5575V14.5502H13.5523C15.0925 13.1612 15.9777 11.1099 15.9777 8.6835Z" fill="#4285F4"/>
<path d="M8.15999 16.4755C10.3551 16.4755 12.2063 15.7692 13.5551 14.5502L10.9323 12.5575C10.2026 13.0439 9.26055 13.3194 8.16298 13.3194C6.03962 13.3194 4.23924 11.9157 3.59326 10.0286H0.886719V12.0828C2.2684 14.7758 5.08261 16.4755 8.15999 16.4755Z" fill="#34A853"/>
<path d="M3.59083 10.0286C3.2499 9.03811 3.2499 7.96559 3.59083 6.97511V4.9209H0.887279C-0.267114 7.17438 -0.267114 9.82932 0.887279 12.0828L3.59083 10.0286Z" fill="#FBBC04"/>
<path d="M8.15999 3.68124C9.32036 3.66366 10.4419 4.0915 11.2822 4.87684L13.606 2.59992C12.1346 1.24607 10.1817 0.501752 8.15999 0.525196C5.08261 0.525196 2.2684 2.22483 0.886719 4.9208L3.59027 6.97501C4.23326 5.0849 6.03663 3.68124 8.15999 3.68124Z" fill="#EA4335"/>
</svg>
