<svg width="40" height="40" viewBox="0 0 40 40" fill="none" xmlns="http://www.w3.org/2000/svg">
<g clip-path="url(#clip0_1400_10953)">
<path fill-rule="evenodd" clip-rule="evenodd" d="M24.6885 11.4572C23.9548 11.4572 23.0891 11.6283 22.0914 11.9705C21.0936 12.3128 20.3746 12.4841 19.9344 12.4842C19.5921 12.4842 18.9 12.3326 17.8582 12.0292C16.8165 11.7259 15.9288 11.5742 15.1951 11.5742C13.4735 11.5742 12.0478 12.2982 10.918 13.7462C9.78815 15.1935 9.22325 17.0666 9.22325 19.3656C9.22769 20.6381 9.41547 21.9033 9.78081 23.1222C10.1829 24.4541 10.7393 25.7344 11.4389 26.9369C12.1823 28.2379 12.9306 29.2136 13.6838 29.8641C14.437 30.5146 15.1951 30.8398 15.9581 30.8398C16.4667 30.8398 17.1295 30.6711 17.9463 30.3335C18.7631 29.996 19.4796 29.8273 20.0959 29.8273C20.7121 29.8273 21.4677 29.9887 22.3628 30.3117C23.2578 30.6348 23.9597 30.7962 24.4684 30.796C25.114 30.796 25.7596 30.5514 26.4052 30.0622C27.0507 29.573 27.6963 28.8344 28.342 27.8464C28.7506 27.2292 29.1206 26.5873 29.4498 25.9244C29.7458 25.3288 29.9936 24.7106 30.1908 24.0755C29.3006 23.8116 28.5083 23.1807 27.8138 22.1828C27.1236 21.1994 26.7593 20.0243 26.772 18.823C26.7749 18.0081 26.9577 17.2038 27.3076 16.4678C27.6646 15.6998 28.386 14.8562 29.4718 13.9369C28.7773 13.076 28.0437 12.4474 27.2709 12.0511C26.4703 11.6485 25.5845 11.4448 24.6885 11.4572ZM24.4391 5.79356C22.6881 6.19411 21.4335 6.93752 20.6754 8.02379C19.9173 9.10952 19.5285 10.3957 19.509 11.8824C20.272 11.8434 20.8834 11.7211 21.3432 11.5155C21.8485 11.2779 22.306 10.9497 22.693 10.5472C23.2955 9.96126 23.7702 9.25681 24.087 8.4783C24.3804 7.73489 24.5272 7.05023 24.5272 6.42432C24.5272 6.32658 24.5222 6.22885 24.5125 6.13057C24.4991 6.01611 24.4745 5.90322 24.4391 5.79356ZM20 0.670349C30.6919 0.670349 39.3594 9.33754 39.3594 20.0299C39.3594 30.7218 30.6919 39.389 20 39.389C9.30812 39.389 0.640625 30.7218 0.640625 20.0299C0.640625 9.33757 9.3081 0.670349 20 0.670349Z" fill="black"/>
</g>
<defs>
<clipPath id="clip0_1400_10953">
<rect width="40" height="40" fill="white"/>
</clipPath>
</defs>
</svg>
