<svg id="Layer_1" data-name="Layer 1" xmlns="http://www.w3.org/2000/svg" viewBox="0 0 443.92 143.76"><defs><style>.cls-1{fill:#14499e;}.cls-2{fill:#41b655;}.cls-3{font-size:21.69px;fill:#fbaf17;font-family:Poppins-SemiBold, Poppins;font-weight:600;letter-spacing:0.05em;}.cls-4{letter-spacing:0.05em;}.cls-5{letter-spacing:0.05em;}.cls-6{letter-spacing:0.05em;}.cls-7{letter-spacing:0.05em;}.cls-8{letter-spacing:0em;}</style></defs><title>Horizontal</title><path class="cls-1" d="M189.17,63.48a18.58,18.58,0,0,0-5.24-3.07,41,41,0,0,0-5.24-1.81c-1.33-.32-3-.64-5-1-.81-.16-2.19-.36-4.16-.6a39.85,39.85,0,0,1-4.16-.66c-.8-.2-1.8-.51-3-.91a4.93,4.93,0,0,1-2.47-1.5,3.92,3.92,0,0,1-.66-2.36,3.91,3.91,0,0,1,1.93-3.73q1.92-1.08,6.5-1.08,8.44,0,8.44,3.61l1.2,1.2h14.46l1.21-1.2A15.17,15.17,0,0,0,186,37q-7-4.71-18.32-4.7-12.76,0-19,5.12a16,16,0,0,0-6.26,12.95q0,15.42,22.89,19.28c.65.08,1.61.22,2.9.42s2.18.36,2.71.48l2.17.49a5.26,5.26,0,0,1,1.86.66l1.21.9a2.6,2.6,0,0,1,1,1.33,5.9,5.9,0,0,1,.24,1.74q0,4.83-9.64,4.82-4.82,0-7.22-1.32T158,74.51l-1.2-1.2H142.36l-1.21,1.2a18.11,18.11,0,0,0,7.06,14.82q7,5.67,19.45,5.66,13.5,0,20-5.6a17.42,17.42,0,0,0,6.5-13.68,17,17,0,0,0-1.5-7.29,15.15,15.15,0,0,0-3.5-4.94"/><path class="cls-1" d="M270.08,32.34a26.06,26.06,0,0,0-7,.9,20.62,20.62,0,0,0-5.13,2,21.43,21.43,0,0,0-3.43,2.59,15.23,15.23,0,0,0-1.93,2l-.6.9h-1.2q-5.67-8.43-16.87-8.43a23.44,23.44,0,0,0-5.67.66,19.39,19.39,0,0,0-4.15,1.44,15.14,15.14,0,0,0-2.72,1.81,11.11,11.11,0,0,0-1.5,1.45,5.41,5.41,0,0,0-.42.66h-1.21l-1.2-3.61-1.21-1.21H202.61l-1.21,1.21V92.58l1.21,1.21h14.46l1.2-1.21V60.05q0-13.26,10.85-13.26,9.63,0,9.64,10.85V92.58l1.2,1.21h14.46l1.21-1.21V60.05q0-13.26,10.84-13.26,9.63,0,9.64,10.85V92.58l1.2,1.21h14.46L293,92.58V56.43q0-11.68-6-17.89t-16.93-6.2"/><path class="cls-1" d="M326.72,32.34q-13,0-19.16,5.66t-6.15,12.41l1.21,1.21h14.46l1.2-1.21a4.63,4.63,0,0,1,2.05-2.53,6.78,6.78,0,0,1,2.71-1c.85-.08,2.07-.13,3.68-.13,3.61,0,5.92.45,6.93,1.33s1.5,2.85,1.5,5.9v1.21l-1.2,1.2-1-.24a19.33,19.33,0,0,0-3.19-.66,30.37,30.37,0,0,0-4.28-.3,56.75,56.75,0,0,0-6.5.36,32.75,32.75,0,0,0-6.93,1.69,23.72,23.72,0,0,0-6.57,3.43,16.25,16.25,0,0,0-4.64,6,20.58,20.58,0,0,0-1.87,9q0,9,5.85,14.15T320.69,95a19.82,19.82,0,0,0,7.17-1.32,20.82,20.82,0,0,0,4.52-2.17A18,18,0,0,0,334,90.17h1.2l1.21,2.41,1.2,1.21h13.26l1.2-1.21V60.05q0-14.22-5.66-21t-19.64-6.74m8.43,39.76a7.3,7.3,0,0,1-3.13,6,12.25,12.25,0,0,1-7.71,2.41q-8.44,0-8.44-6,0-7.23,10.85-7.23a16.86,16.86,0,0,1,7.23,1.2l1.2,1.21Z"/><path class="cls-1" d="M423.71,48H437l1.2-1.21v-12L437,33.54H423.71l-1.2-1.2V21.49l-1.21-1.2H406.84l-1.2,1.2V32.34l-1.21,1.2H391.18A22.27,22.27,0,0,0,383,34.87q-3.37,1.32-4.1,2.17a7.34,7.34,0,0,0-1,1.32h-1.21l-1.2-3.61-1.21-1.21H361.06l-1.21,1.21V92.58l1.21,1.21h14.46l1.2-1.21V63.66q0-8.19,3.07-11.92T390,48h14.45l1.21,1.21v26.5q0,9.29,5.78,13.68t14.7,4.4H437l1.2-1.21v-12l-1.2-1.2H426.12q-3.62,0-3.61-3.62V49.21Z"/><path class="cls-2" d="M35.66,17a29.93,29.93,0,0,0,0,59.85h1.71l.07-36.75a5.72,5.72,0,0,1,5.72-5.71H75V17Z"/><path class="cls-2" d="M89.71,99.49v10h-2V103L85,109.46H83.52L80.83,103v6.49h-2v-10h2.28l3.17,7.42,3.17-7.42ZM75,100.27a1.18,1.18,0,0,1,0-1.68,1.33,1.33,0,0,1,1.75,0,1.18,1.18,0,0,1,0,1.68,1.33,1.33,0,0,1-1.75,0m1.86,9.19h-2v-7.91h2Zm-9.14-.25a3,3,0,0,1-1.32-1,2.69,2.69,0,0,1-.5-1.59H68a1.38,1.38,0,0,0,.44,1,1.53,1.53,0,0,0,1.08.36,1.65,1.65,0,0,0,1.1-.34,1.09,1.09,0,0,0,.4-.87,1,1,0,0,0-.27-.73,1.92,1.92,0,0,0-.68-.45c-.27-.11-.65-.23-1.13-.37a12.88,12.88,0,0,1-1.57-.56,2.77,2.77,0,0,1-1-.85,2.39,2.39,0,0,1-.43-1.5,2.69,2.69,0,0,1,.44-1.55,2.84,2.84,0,0,1,1.24-1,4.63,4.63,0,0,1,1.83-.35,4,4,0,0,1,2.51.75,2.83,2.83,0,0,1,1.07,2.1H70.81a1.11,1.11,0,0,0-.43-.85A1.61,1.61,0,0,0,69.3,101a1.41,1.41,0,0,0-.94.3,1.09,1.09,0,0,0-.35.87.9.9,0,0,0,.27.67,1.89,1.89,0,0,0,.65.43c.27.11.64.23,1.11.38a11.64,11.64,0,0,1,1.59.57,2.9,2.9,0,0,1,1.06.86,2.41,2.41,0,0,1,.44,1.5,2.84,2.84,0,0,1-.41,1.48,3,3,0,0,1-1.22,1.1,4.16,4.16,0,0,1-1.9.4,4.7,4.7,0,0,1-1.88-.35m-3.08-3.11H58.85a2,2,0,0,0,.6,1.35,1.87,1.87,0,0,0,1.3.48,1.63,1.63,0,0,0,1.59-1H64.5a3.62,3.62,0,0,1-1.32,1.88,3.84,3.84,0,0,1-2.39.73,4.23,4.23,0,0,1-2-.5,3.62,3.62,0,0,1-1.41-1.44,4.41,4.41,0,0,1-.51-2.15,4.52,4.52,0,0,1,.5-2.15,3.51,3.51,0,0,1,1.4-1.43,4.12,4.12,0,0,1,2.07-.5,4.23,4.23,0,0,1,2,.48,3.46,3.46,0,0,1,1.38,1.38,4.18,4.18,0,0,1,.5,2,4.38,4.38,0,0,1-.06.77m-2-1.34a1.57,1.57,0,0,0-.55-1.24,2,2,0,0,0-1.33-.46,1.81,1.81,0,0,0-1.25.45,2,2,0,0,0-.62,1.25ZM92.78,52.43H91.07V89.17a5.73,5.73,0,0,1-5.72,5.72H53.44v17.38H92.78a29.92,29.92,0,1,0,0-59.84"/><path class="cls-2" d="M94.47,54.14V38.62a7.54,7.54,0,0,0-7.53-7.53H43.16a9.07,9.07,0,0,0-9.12,9L34,73.48h0v17.2a7.55,7.55,0,0,0,7.54,7.54H85.35a9.07,9.07,0,0,0,9.12-9v-35ZM86.94,34.47a4.15,4.15,0,0,1,4.15,4.15V52.45H89.55v0H75.43v-18ZM56.41,34.4H72.05v18H56.41Zm-19,5.73a5.74,5.74,0,0,1,5.74-5.73H53V55.85H89.55v0h1.54V73.46H54.7v0H37.36ZM72.05,94.91H56.39v-18H72.05Zm-19-.08H41.51a4.15,4.15,0,0,1-4.15-4.15V76.86H53Zm32.34.08H75.43v-18H91.09V89.17a5.75,5.75,0,0,1-5.74,5.74"/><text class="cls-3" transform="translate(141.15 113.68) scale(1 1.01)">O<tspan class="cls-4" x="18.11" y="0">n</tspan><tspan class="cls-5" x="33.52" y="0">e c</tspan><tspan class="cls-4" x="68.38" y="0">hi</tspan><tspan x="90.87" y="0">p</tspan><tspan class="cls-4" x="106.67" y="0">,</tspan><tspan x="113.24" y="0"> </tspan><tspan class="cls-4" x="119.49" y="0">g</tspan><tspan x="135.26" y="0">lo</tspan><tspan class="cls-6" x="157.3" y="0">b</tspan><tspan class="cls-7" x="173.07" y="0">al i</tspan><tspan class="cls-6" x="209.34" y="0">n</tspan><tspan class="cls-7" x="224.74" y="0">ter</tspan><tspan class="cls-6" x="258.56" y="0">n</tspan><tspan x="273.96" y="0">e</tspan><tspan class="cls-8" x="288.43" y="0">t</tspan></text></svg>