<svg width="304" height="204" viewBox="0 0 304 204" fill="none" xmlns="http://www.w3.org/2000/svg">
<path d="M227.56 0C219.31 0 211.597 0.993972 204.407 2.99186C197.221 4.98974 191.565 7.25931 187.44 9.78068C183.312 12.312 179.518 15.1713 176.062 18.3653C172.6 21.5626 170.47 23.7559 169.671 24.9553C168.873 26.1481 168.207 27.152 167.676 27.9472H163.687C151.17 9.32014 132.543 0 107.796 0C101.137 0 94.8846 0.735535 89.0268 2.19336C83.1689 3.66113 78.5801 5.26142 75.2536 6.98761C71.9205 8.72044 68.932 10.7183 66.2681 12.9746C63.6109 15.2409 61.9377 16.8379 61.2817 17.7689C60.6157 18.7032 60.1452 19.4288 59.8901 19.9623H55.891L51.9019 7.98491L47.9061 3.99576H3.98915L0 7.98491V199.616L3.98915 203.609H51.9019L55.891 199.616V91.8231C55.891 62.5507 67.8684 47.9061 91.8264 47.9061C113.114 47.9061 123.759 59.8868 123.759 83.8415V199.616L127.752 203.609H175.658L179.654 199.616V91.8231C179.654 62.5507 191.625 47.9061 215.589 47.9061C236.873 47.9061 247.522 59.8868 247.522 83.8415V199.616L251.515 203.609H299.421L303.417 199.616V79.8458C303.417 54.0356 296.827 34.2688 283.656 20.5586C270.476 6.85509 251.78 0 227.56 0Z" fill="#12499E"/>
</svg>
