<svg width="35" height="35" viewBox="0 0 35 35" fill="none" xmlns="http://www.w3.org/2000/svg">
<path d="M17.5 30.625C24.7487 30.625 30.625 24.7487 30.625 17.5C30.625 10.2513 24.7487 4.375 17.5 4.375C10.2513 4.375 4.375 10.2513 4.375 17.5C4.375 20.274 5.23556 22.8469 6.70427 24.9665C6.85662 25.1864 6.88713 25.4703 6.77438 25.7129L4.99839 29.5341C4.72062 30.0202 5.07161 30.625 5.63148 30.625H17.5Z" stroke="#3FB655" stroke-width="2"/>
<path d="M11.667 15.8916C12.5551 15.8916 13.2752 16.6119 13.2754 17.5C13.2754 18.3883 12.5553 19.1084 11.667 19.1084C10.7789 19.1082 10.0586 18.3881 10.0586 17.5C10.0588 16.612 10.779 15.8918 11.667 15.8916Z" fill="#3FB655" stroke="#3FB655" stroke-width="0.3" stroke-linecap="round" stroke-linejoin="round"/>
<path d="M23.333 15.8916C24.2212 15.8916 24.9412 16.6119 24.9414 17.5C24.9414 18.3883 24.2213 19.1084 23.333 19.1084C22.4449 19.1082 21.7246 18.3881 21.7246 17.5C21.7248 16.612 22.445 15.8918 23.333 15.8916Z" fill="#3FB655" stroke="#3FB655" stroke-width="0.3" stroke-linecap="round" stroke-linejoin="round"/>
<path d="M17.501 15.8916C18.3891 15.8916 19.1092 16.6119 19.1094 17.5C19.1094 18.3883 18.3892 19.1084 17.501 19.1084C16.6129 19.1082 15.8926 18.3881 15.8926 17.5C15.8928 16.612 16.613 15.8918 17.501 15.8916Z" fill="#3FB655" stroke="#3FB655" stroke-width="0.3" stroke-linecap="round" stroke-linejoin="round"/>
</svg>
