<svg width="48" height="44" viewBox="0 0 48 44" fill="none" xmlns="http://www.w3.org/2000/svg">
<path d="M23.5185 40.5497C23.5185 40.2898 23.5185 40.2248 23.5185 40.3548C23.5185 40.4847 23.5185 40.5497 23.5185 40.5497ZM35.8014 43.1924C35.8014 42.9324 35.8014 42.8675 35.8014 42.9974C35.8014 43.1274 35.8014 43.1924 35.8014 43.1924ZM37.907 42.6725C38.1702 42.6725 38.3457 42.6509 38.4334 42.6075C38.5211 42.5642 38.7112 42.3981 39.0037 42.1093H38.4334C38.1702 42.1093 38.0167 42.131 37.9728 42.1743C37.9289 42.2176 37.907 42.3837 37.907 42.6725C37.907 42.3837 37.8851 42.2176 37.8412 42.1743C37.7973 42.131 37.6438 42.1093 37.3806 42.1093C37.3806 42.1093 37.4025 42.2032 37.4464 42.3909C37.4903 42.5786 37.6438 42.6725 37.907 42.6725C37.6438 42.6725 37.578 42.6725 37.7096 42.6725C37.8412 42.6725 37.907 42.6725 37.907 42.6725ZM36.8542 36.3475C36.591 36.3475 36.5032 36.1669 36.591 35.8059C36.6787 35.4449 36.591 35.2644 36.3278 35.2644C36.3278 35.0045 36.24 34.7445 36.0646 34.4846C35.8891 34.2247 35.8014 33.9647 35.8014 33.7048L35.2311 32.6651C34.7047 32.6651 34.0905 32.7517 33.3886 32.925C32.6868 33.0983 32.058 33.1849 31.5023 33.1849C30.9759 33.4449 30.5811 33.6181 30.3179 33.7048C30.0547 33.7914 29.9231 33.9647 29.9231 34.2247C29.9231 34.4846 29.8134 34.7229 29.5941 34.9395C29.3748 35.1561 29.1335 35.2644 28.8703 35.2644C28.5778 35.2644 28.4097 35.1777 28.3658 35.0045C28.322 34.8312 28.3 34.7445 28.3 34.7445H24.0449V37.9071C24.0449 37.9071 23.9791 37.9071 23.8475 37.9071C23.7159 37.9071 23.7817 37.9071 24.0449 37.9071V40.5497C24.0449 40.8097 24.1326 40.9829 24.3081 41.0696C24.4835 41.1562 24.5713 41.3295 24.5713 41.5895H25.668C25.9312 41.5895 26.1066 41.5245 26.1944 41.3945C26.2821 41.2645 26.4576 41.3295 26.7208 41.5895H27.2472L27.7736 41.0696H29.3967C29.6599 41.0696 29.8134 40.9829 29.8573 40.8097C29.9012 40.6364 29.9231 40.5497 29.9231 40.5497H30.9759C31.2391 40.5497 31.4146 40.4414 31.5023 40.2248C31.5901 40.0082 31.7802 39.7699 32.0726 39.51H32.599C32.8622 39.51 33.0377 39.4161 33.1254 39.2284C33.2132 39.0407 33.3886 38.9468 33.6519 38.9468H34.1783C34.1783 38.9468 34.266 38.9251 34.4415 38.8818C34.6169 38.8385 34.7047 38.6869 34.7047 38.4269C34.7047 38.4269 34.7924 38.4053 34.9679 38.3619C35.1433 38.3186 35.2311 38.167 35.2311 37.9071V37.3872C35.5235 37.1273 35.8014 36.954 36.0646 36.8673C36.3278 36.7807 36.591 36.6074 36.8542 36.3475ZM12.6832 18.1087C12.6832 17.9066 12.6978 17.7116 12.7271 17.5239C12.7563 17.3362 12.7709 17.1412 12.7709 16.939C12.7709 16.708 12.8075 16.5058 12.8806 16.3325C12.9537 16.1592 13.0195 15.9426 13.078 15.6827V15.1195C13.078 15.004 13.0926 14.9029 13.1219 14.8162C13.1511 14.7296 13.1657 14.6574 13.1657 14.5996C13.1657 14.4263 13.1584 14.2386 13.1438 14.0364C13.1292 13.8343 13.1072 13.6321 13.078 13.4299C13.078 13.2855 13.1511 13.2278 13.2973 13.2566C13.4436 13.2855 13.5605 13.3144 13.6483 13.3433C13.7945 13.4588 13.948 13.5671 14.1089 13.6682C14.2697 13.7693 14.4525 13.7909 14.6572 13.7332C14.8327 13.7043 15.0155 13.6104 15.2056 13.4516C15.3957 13.2927 15.5638 13.1556 15.71 13.04C15.9148 12.8956 16.1195 12.7584 16.3242 12.6285C16.5289 12.4985 16.7629 12.3902 17.0261 12.3035C17.0553 12.4768 17.1138 12.679 17.2015 12.9101C17.2893 13.1411 17.3916 13.3577 17.5086 13.5599C17.3916 13.5599 17.3478 13.5888 17.377 13.6465C17.4063 13.7043 17.4501 13.7332 17.5086 13.7332C17.5963 13.7332 17.6695 13.7476 17.728 13.7765C17.7864 13.8054 17.7426 13.892 17.5963 14.0364C17.2162 14.2675 16.8214 14.448 16.4119 14.578C16.0025 14.7079 15.5784 14.8451 15.1398 14.9895L16.4997 16.4625C16.4704 16.5203 16.3827 16.5564 16.2365 16.5708C16.0902 16.5852 15.9879 16.6213 15.9294 16.6791C15.8709 16.708 15.849 16.7802 15.8636 16.8957C15.8782 17.0112 15.8709 17.0979 15.8417 17.1556C15.7247 17.2423 15.5711 17.2712 15.381 17.2423C15.1909 17.2134 15.0374 17.2712 14.9204 17.4156C14.7742 17.5889 14.6572 17.7694 14.5695 17.9571C14.4818 18.1448 14.3355 18.2676 14.1308 18.3254C13.9846 18.3542 13.7579 18.3398 13.4509 18.282C13.1438 18.2243 12.8879 18.1665 12.6832 18.1087ZM34.1783 25.2569C34.1783 25.2569 34.1783 25.3219 34.1783 25.4519C34.1783 25.5818 34.1783 25.5169 34.1783 25.2569L34.7047 25.7768H37.3806C37.3806 25.7768 37.4683 25.7551 37.6438 25.7118C37.8193 25.6685 37.907 25.5169 37.907 25.2569C37.907 24.997 37.9289 24.8454 37.9728 24.802C38.0167 24.7587 38.1702 24.7371 38.4334 24.7371C38.7259 24.7371 38.894 24.6288 38.9379 24.4121C38.9818 24.1955 39.0037 23.9573 39.0037 23.6973C39.2669 23.6973 39.4204 23.6107 39.4643 23.4374C39.5082 23.2641 39.5301 23.1775 39.5301 23.1775V23.6973C39.5301 23.6973 39.6178 23.719 39.7933 23.7623C39.9688 23.8056 40.0565 23.9573 40.0565 24.2172V25.2569C39.7933 25.5169 39.6398 25.5818 39.5959 25.4519C39.552 25.3219 39.5301 25.2569 39.5301 25.2569V26.34C39.5301 26.5999 39.5959 26.6866 39.7275 26.5999C39.8591 26.5133 39.7933 26.5999 39.5301 26.8599H39.0037C39.2669 26.8599 39.3327 27.0548 39.2011 27.4447C39.0695 27.8346 39.0037 28.1595 39.0037 28.4195C39.0037 28.6794 38.9818 28.831 38.9379 28.8743C38.894 28.9177 38.7259 28.9393 38.4334 28.9393H35.2311L34.1783 27.8996V25.2569ZM0.575761 1.5596C0.575761 1.5596 0.641562 1.5596 0.773165 1.5596C0.904767 1.5596 0.838966 1.5596 0.575761 1.5596C0.838966 1.29967 0.926701 1.12638 0.838966 1.03973C0.751231 0.953087 0.838966 0.779797 1.10217 0.519863C0.838966 0.519863 0.773165 0.498203 0.904767 0.45488C1.03637 0.411556 1.10217 0.25993 1.10217 -3.8147e-06H3.25168C3.51488 0.25993 3.69035 0.411556 3.77809 0.45488C3.86582 0.498203 4.04129 0.519863 4.3045 0.519863V1.03973H2.15499L1.62858 1.5596C1.62858 1.5596 1.54085 1.58126 1.36538 1.62458C1.18991 1.66791 1.10217 1.81953 1.10217 2.07947L0.575761 2.59933C0.575761 2.59933 0.597695 2.51269 0.641562 2.3394C0.68543 2.16611 0.838966 2.07947 1.10217 2.07947C1.10217 2.07947 1.18991 2.05781 1.36538 2.01448C1.54085 1.97116 1.62858 1.81953 1.62858 1.5596C1.36538 1.5596 1.1241 1.62458 0.904767 1.75455C0.68543 1.88452 0.575761 1.81953 0.575761 1.5596ZM1.10217 3.6824V3.11921L1.62858 2.59933H4.83091C4.83091 2.3394 5.01369 2.25276 5.37925 2.3394C5.74481 2.42605 5.9276 2.3394 5.9276 2.07947H4.83091C4.83091 2.07947 4.85284 1.99282 4.89671 1.81953C4.94058 1.64624 5.09411 1.5596 5.35732 1.5596H7.50683L8.03324 1.03973C8.03324 1.03973 8.12097 1.01807 8.29644 0.974747C8.47191 0.931427 8.55965 0.779797 8.55965 0.519863C8.8521 0.519863 9.04219 0.43322 9.12992 0.25993C9.21766 0.0866394 9.39313 -3.8147e-06 9.65633 -3.8147e-06H12.3323C12.3323 -3.8147e-06 12.3542 0.0866394 12.3981 0.25993C12.4419 0.43322 12.5955 0.519863 12.8587 0.519863H13.9115C13.9115 0.25993 13.9115 0.194946 13.9115 0.324913C13.9115 0.45488 13.9115 0.519863 13.9115 0.519863L14.4379 1.03973H14.9643C14.9643 1.03973 15.0593 1.06139 15.2494 1.10472C15.4395 1.14804 15.5346 1.29967 15.5346 1.5596H19.2633C19.5265 1.5596 19.702 1.47295 19.7897 1.29967C19.8775 1.12638 20.0529 1.03973 20.3161 1.03973H21.369C21.369 1.03973 21.4567 0.974747 21.6322 0.84478C21.8076 0.714813 21.8954 0.779797 21.8954 1.03973H22.9921V1.5596L23.5185 2.07947V2.59933H24.0449L24.5713 3.11921C24.5713 3.11921 24.4835 3.05422 24.3081 2.92426C24.1326 2.79429 24.0449 2.85927 24.0449 3.11921V3.6824H23.5185V4.72213C23.5185 4.72213 23.5404 4.80878 23.5843 4.98207C23.6281 5.15536 23.7817 5.242 24.0449 5.242V5.76187C24.0449 6.0218 24.0668 6.10845 24.1107 6.0218C24.1545 5.93516 24.3081 6.0218 24.5713 6.28174V7.3648C24.3081 7.3648 24.1545 7.42978 24.1107 7.55975C24.0668 7.68971 24.0449 7.62473 24.0449 7.3648V6.84493H21.8954C21.8954 6.84493 21.8076 6.90991 21.6322 7.03988C21.4567 7.16985 21.369 7.10486 21.369 6.84493H19.7897C19.5265 6.84493 19.2341 6.93157 18.9124 7.10486C18.5907 7.27815 18.1666 7.3648 17.6402 7.3648H16.5874C16.5874 7.3648 16.4997 7.29981 16.3242 7.16985C16.1487 7.03988 16.061 7.10486 16.061 7.3648C15.7978 7.3648 15.5492 7.42978 15.3152 7.55975C15.0813 7.68971 14.9643 7.62473 14.9643 7.3648H14.4379V7.88466H13.9115V8.9244H13.3851V7.88466C13.3851 7.88466 13.4509 7.863 13.5825 7.81968C13.7141 7.77636 13.6483 7.62473 13.3851 7.3648H12.3323C12.3323 7.3648 12.2372 7.34314 12.0471 7.29981C11.857 7.25649 11.762 7.10486 11.762 6.84493C11.4988 6.84493 11.3233 6.93157 11.2356 7.10486C11.1478 7.27815 10.9724 7.3648 10.7092 7.3648C10.7092 7.3648 10.6872 7.42978 10.6434 7.55975C10.5995 7.68971 10.4459 7.62473 10.1827 7.3648H9.12992C8.83747 7.3648 8.66931 7.27815 8.62545 7.10486C8.58158 6.93157 8.55965 6.84493 8.55965 6.84493C8.29644 6.84493 8.12097 6.75106 8.03324 6.56333C7.9455 6.3756 7.77003 6.28174 7.50683 6.28174H6.98042V6.84493H5.9276C5.9276 6.84493 5.90566 6.75106 5.86179 6.56333C5.81793 6.3756 5.64977 6.28174 5.35732 6.28174C5.35732 6.28174 5.35732 6.21675 5.35732 6.08678C5.35732 5.95682 5.35732 6.0218 5.35732 6.28174C5.35732 6.28174 5.26958 6.26007 5.09411 6.21675C4.91864 6.17343 4.83091 6.0218 4.83091 5.76187L4.3045 6.28174H2.72527C2.46206 6.0218 2.4182 5.95682 2.59367 6.08678C2.76914 6.21675 2.98847 6.28174 3.25168 6.28174C2.98847 6.57055 2.90074 6.55611 2.98847 6.23841C3.07621 5.92072 2.98847 5.76187 2.72527 5.76187C2.72527 5.76187 2.79107 5.74021 2.92267 5.69688C3.05427 5.65356 2.98847 5.50193 2.72527 5.242H2.15499C2.15499 5.242 2.13306 5.17702 2.08919 5.04705C2.04532 4.91708 1.89179 4.98207 1.62858 5.242H1.10217C1.36538 5.242 1.43118 5.15536 1.29957 4.98207C1.16797 4.80878 1.10217 4.72213 1.10217 4.72213V5.242C1.10217 4.98207 1.18991 4.91708 1.36538 5.04705C1.54085 5.17702 1.62858 5.242 1.62858 5.242C1.62858 5.242 1.54085 5.22034 1.36538 5.17702C1.18991 5.13369 1.10217 4.98207 1.10217 4.72213H1.62858C1.62858 4.72213 1.56278 4.72213 1.43118 4.72213C1.29957 4.72213 1.36538 4.72213 1.62858 4.72213V4.20226L2.15499 3.6824C1.89179 3.42246 1.65051 3.35748 1.43118 3.48745C1.21184 3.61741 1.10217 3.6824 1.10217 3.6824ZM17.0261 12.3035C17.3478 12.1014 17.6841 11.9136 18.035 11.7404C18.386 11.5671 18.7369 11.3649 19.0878 11.1338C19.1756 11.0761 19.2706 11.0039 19.373 10.9172C19.4753 10.8306 19.5704 10.7295 19.6581 10.614C19.7751 10.4407 19.8117 10.2602 19.7678 10.0724C19.7239 9.88471 19.7166 9.74752 19.7459 9.66088C19.7459 9.37207 19.7751 9.19156 19.8336 9.11935C19.8921 9.04715 19.9067 8.93884 19.8775 8.79443C19.8775 8.65002 19.8117 8.46952 19.6801 8.2529C19.5485 8.03629 19.5704 7.85578 19.7459 7.71138C19.8628 7.65361 19.9725 7.61751 20.0749 7.60307C20.1772 7.58863 20.2723 7.52364 20.36 7.40812C20.4477 7.37924 20.5647 7.28537 20.7109 7.12652C20.8572 6.96767 20.901 6.87381 20.8425 6.84493C20.7841 6.78716 20.7841 6.77272 20.8425 6.80161C20.901 6.83049 20.9303 6.84493 20.9303 6.84493C20.9888 6.84493 21.0399 6.80883 21.0838 6.73662C21.1277 6.66442 21.1789 6.59943 21.2374 6.54167C21.2958 6.48391 21.4348 6.46947 21.6541 6.49835C21.8734 6.52723 22.027 6.54167 22.1147 6.54167C22.1732 6.54167 22.2244 6.55611 22.2682 6.58499C22.3121 6.61388 22.3633 6.62831 22.4218 6.62831C22.5095 6.62831 22.5826 6.61388 22.6411 6.58499C22.6996 6.55611 22.7581 6.54167 22.8166 6.54167C23.0213 6.48391 23.1017 6.54889 23.0579 6.73662C23.014 6.92435 23.0652 7.01822 23.2114 7.01822C23.2991 7.01822 23.3649 6.9749 23.4088 6.88825C23.4527 6.80161 23.5185 6.75828 23.6062 6.75828C23.6939 6.75828 23.7524 6.83049 23.7817 6.9749C23.8109 7.1193 23.8548 7.23483 23.9133 7.32147C23.9425 7.37924 23.9718 7.40812 24.001 7.40812C24.0303 7.40812 24.0595 7.40812 24.0887 7.40812C24.1472 7.46588 24.1692 7.53086 24.1545 7.60307C24.1399 7.67527 24.1472 7.71138 24.1765 7.71138C24.2935 7.79802 24.4177 7.89911 24.5493 8.01463C24.681 8.13016 24.6883 8.26012 24.5713 8.40453C24.7175 8.34677 24.8272 8.36121 24.9003 8.44785C24.9734 8.5345 25.0392 8.57782 25.0977 8.57782C25.1854 8.63559 25.2585 8.6428 25.317 8.59948C25.3755 8.55616 25.5656 8.54894 25.8873 8.57782C25.8873 8.69335 25.8361 8.75111 25.7338 8.75111C25.6314 8.75111 25.5802 8.79443 25.5802 8.88108C25.5217 9.02549 25.5437 9.14101 25.646 9.22766C25.7484 9.3143 25.8288 9.42983 25.8873 9.57423C25.8873 9.71864 25.8361 9.76197 25.7338 9.7042C25.6314 9.64644 25.5802 9.68976 25.5802 9.83417C25.5802 9.89193 25.5583 9.92804 25.5144 9.94247C25.4706 9.95692 25.4194 9.99302 25.3609 10.0508C25.3609 10.1085 25.3682 10.1735 25.3828 10.2457C25.3975 10.3179 25.434 10.3829 25.4925 10.4407C25.434 10.4407 25.3828 10.4335 25.339 10.419C25.2951 10.4046 25.2439 10.3829 25.1854 10.354C25.1854 10.3829 25.1708 10.4262 25.1416 10.484C25.1123 10.5418 25.1269 10.5851 25.1854 10.614C25.2439 10.6717 25.2878 10.7223 25.317 10.7656C25.3463 10.8089 25.3317 10.8595 25.2732 10.9172C25.2147 11.0039 25.1708 11.0689 25.1416 11.1122C25.1123 11.1555 25.1269 11.2205 25.1854 11.3071C25.2439 11.3649 25.2951 11.4299 25.339 11.5021C25.3828 11.5743 25.4633 11.6393 25.5802 11.697C25.6387 11.7548 25.785 11.892 26.0189 12.1086C26.2529 12.3252 26.2675 12.4768 26.0628 12.5635C26.1505 12.5635 26.1944 12.5996 26.1944 12.6718C26.1944 12.744 26.2529 12.7801 26.3699 12.7801C26.4576 12.7801 26.538 12.8018 26.6111 12.8451C26.6842 12.8884 26.7647 12.9245 26.8524 12.9534C26.9401 13.0111 27.0644 13.1122 27.2253 13.2566C27.3861 13.401 27.5543 13.5021 27.7297 13.5599C27.8467 13.5599 27.971 13.661 28.1026 13.8631C28.2342 14.0653 28.3439 14.2242 28.4316 14.3397C28.5778 14.4263 28.629 14.5419 28.5852 14.6863C28.5413 14.8307 28.4901 14.9751 28.4316 15.1195C28.4316 15.1484 28.4389 15.2495 28.4536 15.4228C28.4682 15.596 28.5194 15.6827 28.6071 15.6827C28.6656 15.6827 28.7241 15.6899 28.7826 15.7043C28.8411 15.7188 28.8849 15.7404 28.9142 15.7693C28.9727 15.8271 29.0019 15.8993 29.0019 15.9859C29.0019 16.0726 29.0019 16.1304 29.0019 16.1592C29.0019 16.217 29.0311 16.2964 29.0896 16.3975C29.1481 16.4986 29.2505 16.6213 29.3967 16.7657C29.5137 16.7946 29.5722 16.8668 29.5722 16.9824C29.5722 17.0979 29.616 17.1845 29.7038 17.2423C29.6453 17.2423 29.4991 17.2206 29.2651 17.1773C29.0311 17.134 28.9142 17.0979 28.9142 17.069C28.9727 17.1556 28.9361 17.1773 28.8045 17.134C28.6729 17.0907 28.5778 17.069 28.5194 17.069C28.4316 17.069 28.322 17.0762 28.1904 17.0907C28.0587 17.1051 27.9783 17.1556 27.9491 17.2423C27.8321 17.4445 27.7371 17.7044 27.6639 18.0221C27.5908 18.3398 27.3934 18.4986 27.0717 18.4986L25.2732 18.3254C24.9807 18.2676 24.7833 18.1665 24.681 18.0221C24.5786 17.8777 24.3812 17.7188 24.0887 17.5455C23.3576 16.9968 22.6119 16.4264 21.8515 15.8343C21.0911 15.2422 20.3015 14.7729 19.4827 14.4263C19.1902 14.2819 18.8978 14.2025 18.6053 14.1881C18.3129 14.1736 18.0496 14.1231 17.8157 14.0364C17.9619 13.8343 17.9765 13.7404 17.8596 13.7548C17.7426 13.7693 17.6548 13.7332 17.5963 13.6465V13.4299C17.6548 13.401 17.6622 13.3577 17.6183 13.3C17.5744 13.2422 17.5379 13.1989 17.5086 13.17C17.3624 13.0545 17.2527 12.9173 17.1796 12.7584C17.1065 12.5996 17.0553 12.448 17.0261 12.3035ZM39.0037 21.5745L38.4334 22.0944C38.4334 22.0944 38.5285 22.0727 38.7186 22.0294C38.9086 21.9861 39.0037 21.8345 39.0037 21.5745ZM22.4656 3.6824C22.4656 3.6824 22.5314 3.6824 22.663 3.6824C22.7946 3.6824 22.7288 3.6824 22.4656 3.6824L22.9921 3.11921C22.9921 3.11921 23.014 3.21307 23.0579 3.4008C23.1017 3.58853 23.2553 3.6824 23.5185 3.6824C23.5185 3.6824 23.6062 3.70406 23.7817 3.74738C23.9571 3.7907 24.0449 3.94233 24.0449 4.20226L24.5713 4.72213H25.0977L25.668 4.20226H26.1944L26.7208 3.6824C26.984 3.6824 27.1595 3.70406 27.2472 3.74738C27.3349 3.7907 27.5104 3.94233 27.7736 4.20226C27.5104 4.20226 27.4446 4.28891 27.5762 4.4622C27.7078 4.63549 27.7736 4.72213 27.7736 4.72213C27.5104 4.72213 27.4446 4.80878 27.5762 4.98207C27.7078 5.15536 27.7736 5.242 27.7736 5.242L28.3 5.76187C28.3 6.0218 28.322 6.2673 28.3658 6.49835C28.4097 6.7294 28.5778 6.84493 28.8703 6.84493H29.9231L30.9759 7.88466C31.2391 7.88466 31.5097 7.94965 31.7875 8.07961C32.0653 8.20958 32.3358 8.1446 32.599 7.88466C32.8622 7.88466 33.1474 7.79802 33.4545 7.62473C33.7615 7.45144 34.1783 7.3648 34.7047 7.3648V6.84493H35.2311C35.5235 6.84493 35.5966 6.82327 35.4504 6.77995C35.3042 6.73662 35.2311 6.57055 35.2311 6.28174L35.8014 5.76187H39.0037L39.5301 6.28174H40.5829C40.8461 6.28174 40.9997 6.3034 41.0435 6.34672C41.0874 6.39004 41.1093 6.55611 41.1093 6.84493C41.1093 6.84493 41.1971 6.86659 41.3725 6.90991C41.548 6.95323 41.6357 7.10486 41.6357 7.3648C41.6357 7.3648 41.6577 7.45144 41.7015 7.62473C41.7454 7.79802 41.9136 7.88466 42.206 7.88466H43.2588V9.44427C43.2588 9.73309 43.2369 9.9858 43.193 10.2024C43.1492 10.419 42.9956 10.5273 42.7324 10.5273C42.7324 10.5273 42.6447 10.549 42.4692 10.5923C42.2938 10.6356 42.206 10.7873 42.206 11.0472C42.206 11.0472 42.228 11.2205 42.2718 11.5671C42.3157 11.9136 42.4692 12.0869 42.7324 12.0869C42.9956 12.0869 43.0614 12.1736 42.9298 12.3469C42.7982 12.5202 42.7324 12.6068 42.7324 12.6068C42.7324 12.8667 42.8202 13.1122 42.9956 13.3433C43.1711 13.5743 43.2588 13.6899 43.2588 13.6899C43.2588 13.9498 43.2808 14.1231 43.3246 14.2097C43.3685 14.2964 43.522 14.4697 43.7852 14.7296H44.8381C45.1305 14.7296 45.2767 14.8379 45.2767 15.0545C45.2767 15.2711 45.1305 15.5094 44.8381 15.7693L43.7852 16.8524L44.3117 17.3723C44.5749 17.6322 44.8234 17.9571 45.0574 18.347C45.2914 18.7369 45.4083 18.9319 45.4083 18.9319H46.4612L46.9876 20.0149C46.9876 20.2749 47.0095 20.4265 47.0534 20.4698C47.0972 20.5131 47.2508 20.5348 47.514 20.5348V21.0547C47.514 21.3146 47.3385 21.4012 46.9876 21.3146C46.6366 21.2279 46.4612 21.3146 46.4612 21.5745H45.9348V23.1775C45.9348 23.4374 45.847 23.5024 45.6716 23.3724C45.4961 23.2424 45.4083 23.1775 45.4083 23.1775H44.8381C44.8381 23.1775 44.7723 23.1775 44.6407 23.1775C44.5091 23.1775 44.5749 23.1775 44.8381 23.1775H41.6357C41.6357 23.1775 41.6138 23.1053 41.5699 22.9608C41.5261 22.8164 41.3725 22.8886 41.1093 23.1775C41.1093 23.1775 41.0216 23.1558 40.8461 23.1125C40.6707 23.0691 40.5829 22.9031 40.5829 22.6143C40.3197 22.3543 40.1662 22.1161 40.1223 21.8994C40.0784 21.6828 40.0565 21.5745 40.0565 21.5745C40.0565 21.3146 39.9468 21.163 39.7275 21.1196C39.5082 21.0763 39.2669 21.0547 39.0037 21.0547H38.4334C38.4334 21.0547 38.3457 21.0763 38.1702 21.1196C37.9947 21.163 37.907 21.3146 37.907 21.5745H37.3806L36.8542 22.0944C36.591 22.0944 36.4155 22.0078 36.3278 21.8345C36.24 21.6612 36.0646 21.5745 35.8014 21.5745C35.5382 21.5745 35.3554 21.5529 35.253 21.5095C35.1507 21.4662 34.9679 21.3146 34.7047 21.0547C34.7047 21.0547 34.6169 21.033 34.4415 20.9897C34.266 20.9464 34.1783 20.7947 34.1783 20.5348C34.1783 20.5348 34.0905 20.5131 33.9151 20.4698C33.7396 20.4265 33.6519 20.2749 33.6519 20.0149L33.1254 19.4517H32.0726C31.7802 19.4517 31.612 19.3434 31.5681 19.1268C31.5243 18.9102 31.5023 18.6719 31.5023 18.412V17.8921C31.5023 17.8921 31.4146 17.8705 31.2391 17.8271C31.0637 17.7838 30.9759 17.6322 30.9759 17.3723C30.9759 17.3723 30.9101 17.3723 30.7785 17.3723C30.6469 17.3723 30.7127 17.3723 30.9759 17.3723C30.9759 17.3723 30.954 17.2856 30.9101 17.1123C30.8663 16.939 30.7127 16.8524 30.4495 16.8524L29.9231 16.3325C29.9231 16.0437 29.8354 16.0365 29.6599 16.3109C29.4844 16.5852 29.3967 16.5925 29.3967 16.3325H28.3C28.0368 16.3325 27.9491 16.4192 28.0368 16.5925C28.1245 16.7657 28.0368 16.8524 27.7736 16.8524V16.3325L27.2472 15.7693V15.2495C26.984 15.2495 26.8524 15.1412 26.8524 14.9245C26.8524 14.7079 26.984 14.4697 27.2472 14.2097C27.2472 13.9498 27.2253 13.7982 27.1814 13.7548C27.1375 13.7115 26.984 13.6899 26.7208 13.6899C26.7208 13.4299 26.6989 13.2783 26.655 13.235C26.6111 13.1917 26.4576 13.17 26.1944 13.17C25.9312 13.17 25.7776 13.0761 25.7338 12.8884C25.6899 12.7007 25.668 12.6068 25.668 12.6068H24.5713C24.8345 12.6068 24.8126 12.4335 24.5055 12.0869C24.1984 11.7404 24.0449 11.5671 24.0449 11.5671L23.5185 11.0472V8.40453C23.5185 8.40453 23.4527 8.31789 23.3211 8.1446C23.1895 7.97131 23.2553 7.88466 23.5185 7.88466C23.5185 7.88466 23.6062 7.863 23.7817 7.81968C23.9571 7.77636 24.0449 7.62473 24.0449 7.3648H22.9921C22.9921 7.3648 22.9701 7.29981 22.9263 7.16985C22.8824 7.03988 22.7288 7.10486 22.4656 7.3648C22.4656 7.10486 22.3706 6.93157 22.1805 6.84493C21.9904 6.75828 21.8954 6.57055 21.8954 6.28174V5.76187L21.369 5.242V4.20226H20.8425V3.6824C20.5793 3.6824 20.4916 3.58853 20.5793 3.4008C20.6671 3.21307 20.5793 3.11921 20.3161 3.11921C21.369 3.66795 21.9904 3.96399 22.1805 4.00731C22.3706 4.05064 22.4656 3.94233 22.4656 3.6824C22.4656 3.94233 22.4656 4.00731 22.4656 3.87735C22.4656 3.74738 22.4656 3.6824 22.4656 3.6824ZM13.078 12.4768C13.1072 12.4191 13.173 12.3324 13.2754 12.2169C13.3778 12.1014 13.4728 12.0292 13.5605 12.0003C13.4143 11.8559 13.407 11.7548 13.5386 11.697C13.6702 11.6393 13.8091 11.6104 13.9553 11.6104C13.8676 11.466 13.8676 11.3721 13.9553 11.3288C14.0431 11.2855 14.1016 11.2205 14.1308 11.1338C14.1308 11.0761 14.1089 10.9967 14.065 10.8956C14.0211 10.7945 13.9553 10.7439 13.8676 10.7439C13.7506 10.7439 13.7433 10.6934 13.8457 10.5923C13.948 10.4912 13.9115 10.4696 13.736 10.5273C13.5021 10.5851 13.3631 10.5562 13.3193 10.4407C13.2754 10.3252 13.2535 10.2241 13.2535 10.1374C13.2535 10.0508 13.2608 9.92804 13.2754 9.76919C13.29 9.61034 13.2535 9.47315 13.1657 9.35762C13.078 9.29986 13.0561 9.19878 13.0999 9.05437C13.1438 8.90996 13.1657 8.77999 13.1657 8.66447C13.1657 8.63559 13.2169 8.65002 13.3193 8.70779C13.4216 8.76555 13.4728 8.79443 13.4728 8.79443L13.6483 8.57782C13.7068 8.54894 13.7287 8.49118 13.7141 8.40453C13.6995 8.31789 13.7068 8.24568 13.736 8.18792H14.1308C14.1016 8.10128 14.065 8.02185 14.0211 7.94965C13.9773 7.87745 13.9553 7.79802 13.9553 7.71138C13.9553 7.65361 13.9627 7.58863 13.9773 7.51642C13.9919 7.44422 14.0138 7.37924 14.0431 7.32147H14.3502C14.4379 7.37924 14.5037 7.437 14.5476 7.49476C14.5914 7.55252 14.6572 7.56697 14.745 7.53809C14.8327 7.53809 14.9277 7.51642 15.0301 7.4731C15.1325 7.42978 15.2275 7.37924 15.3152 7.32147C15.4322 7.26371 15.5419 7.22039 15.6442 7.19151C15.7466 7.16262 15.8709 7.14819 16.0171 7.14819C16.1049 7.14819 16.1853 7.18428 16.2584 7.25649C16.3315 7.32869 16.4119 7.37924 16.4997 7.40812C16.6166 7.46588 16.7556 7.49476 16.9164 7.49476C17.0773 7.49476 17.2015 7.46588 17.2893 7.40812C17.5525 7.40812 17.7864 7.34314 17.9912 7.21317C18.1959 7.0832 18.4298 6.98933 18.693 6.93157C18.927 6.84493 19.1683 6.83049 19.4169 6.88825C19.6654 6.94601 19.9067 6.93157 20.1407 6.84493C20.2869 6.78716 20.4258 6.71496 20.5574 6.62831C20.689 6.54167 20.7841 6.64276 20.8425 6.93157C20.8425 6.98933 20.7914 7.07598 20.689 7.19151C20.5867 7.30703 20.5062 7.37924 20.4477 7.40812C20.36 7.52364 20.265 7.58863 20.1626 7.60307C20.0602 7.61751 19.9652 7.65361 19.8775 7.71138C19.6727 7.85578 19.6216 8.03629 19.7239 8.2529C19.8263 8.46952 19.9067 8.65002 19.9652 8.79443C19.9652 8.88108 19.9506 8.97494 19.9213 9.07603C19.8921 9.17711 19.8775 9.27098 19.8775 9.35762V10.354C19.8775 10.6717 19.373 11.0905 18.364 11.6104C17.3551 12.1303 16.5143 12.6068 15.8417 13.04C15.6369 13.2133 15.3957 13.3866 15.1178 13.5599C14.84 13.7332 14.5841 13.7332 14.3502 13.5599C14.2624 13.5021 14.182 13.4516 14.1089 13.4083C14.0358 13.3649 13.9553 13.3144 13.8676 13.2566C13.7214 13.17 13.5971 13.1339 13.4947 13.1483C13.3924 13.1628 13.3412 13.17 13.3412 13.17C13.2535 13.1989 13.2096 13.0906 13.2096 12.8451C13.2096 12.5996 13.1657 12.4768 13.078 12.4768ZM43.2588 31.582C43.522 31.3221 43.5878 31.1704 43.4562 31.1271C43.3246 31.0838 43.2588 31.0621 43.2588 31.0621C43.522 31.0621 43.5878 31.0838 43.4562 31.1271C43.3246 31.1704 43.2588 31.3221 43.2588 31.582ZM39.5301 22.6143C39.5301 22.6143 39.5959 22.6143 39.7275 22.6143C39.8591 22.6143 39.7933 22.6143 39.5301 22.6143C39.7933 22.6143 39.9249 22.7081 39.9249 22.8959C39.9249 23.0836 39.7933 23.1775 39.5301 23.1775V22.6143ZM35.2311 33.1849C36.0499 32.925 36.7445 32.6795 37.3148 32.4484C37.8851 32.2174 38.448 32.1019 39.0037 32.1019C39.2669 31.8419 39.3327 31.8203 39.2011 32.0369C39.0695 32.2535 39.0037 32.1019 39.0037 31.582C39.0037 31.3221 39.0256 31.0621 39.0695 30.8022C39.1134 30.5423 39.2669 30.2823 39.5301 30.0224C39.5301 29.7625 39.5959 29.517 39.7275 29.2859C39.8591 29.0549 39.7933 28.9393 39.5301 28.9393L39.0037 28.4195C39.0037 28.1595 39.0695 27.8346 39.2011 27.4447C39.3327 27.0548 39.2669 26.8599 39.0037 26.8599H39.5301V25.7768C39.5301 26.0656 39.5301 26.1378 39.5301 25.9934C39.5301 25.849 39.5301 25.7768 39.5301 25.7768C39.5301 26.0656 39.6178 26.2533 39.7933 26.34C39.9688 26.4266 40.0565 26.5999 40.0565 26.8599C40.3197 27.1198 40.5829 27.2714 40.8461 27.3147C41.1093 27.3581 41.3725 27.3797 41.6357 27.3797H42.206C42.4692 27.3797 42.6228 27.4664 42.6666 27.6397C42.7105 27.8129 42.7324 27.8996 42.7324 27.8996C42.7324 27.8996 42.7544 27.9862 42.7982 28.1595C42.8421 28.3328 42.9956 28.4195 43.2588 28.4195L43.7852 28.9393C44.0485 28.9393 44.1143 29.1198 43.9827 29.4809C43.851 29.8419 43.7852 30.0224 43.7852 30.0224C43.7852 30.2823 43.6756 30.5423 43.4562 30.8022C43.2369 31.0621 42.9956 31.3221 42.7324 31.582C42.7324 31.582 42.7105 31.6686 42.6666 31.8419C42.6228 32.0152 42.4692 32.1019 42.206 32.1019C42.206 32.1019 42.1841 32.0369 42.1402 31.9069C42.0963 31.7769 41.9282 31.8419 41.6357 32.1019C41.3725 32.1019 41.2848 32.2174 41.3725 32.4484C41.4603 32.6795 41.3725 32.925 41.1093 33.1849V34.7445C40.8461 34.7445 40.6049 34.7662 40.3855 34.8095C40.1662 34.8528 40.0565 35.0045 40.0565 35.2644V35.7843H39.5301C39.2669 35.7843 39.1134 35.8131 39.0695 35.8709C39.0256 35.9287 39.0037 36.0875 39.0037 36.3475V36.8673C39.0037 36.8673 38.9818 36.954 38.9379 37.1273C38.894 37.3005 38.7259 37.3872 38.4334 37.3872H37.907C37.6438 37.3872 37.3806 37.4738 37.1174 37.6471C36.8542 37.8204 36.591 37.9071 36.3278 37.9071C36.0646 37.9071 35.9768 37.7338 36.0646 37.3872C36.1523 37.0406 36.0646 36.8673 35.8014 36.8673C35.8014 36.8673 35.7794 36.759 35.7356 36.5424C35.6917 36.3258 35.5235 36.0731 35.2311 35.7843C35.5235 35.0045 35.5966 34.4413 35.4504 34.0947C35.3042 33.7481 35.2311 33.4449 35.2311 33.1849ZM0.0493509 17.1556C-0.0383841 16.9535 -0.00913906 16.7585 0.137086 16.5708C0.283311 16.3831 0.327178 16.1881 0.268688 15.9859C0.210198 15.7838 0.144397 15.596 0.0712847 15.4228C-0.00182781 15.2495 0.122463 15.0473 0.444158 14.8162C0.444158 14.9606 0.517271 15.0256 0.663496 15.0112C0.809721 14.9967 0.941323 14.9606 1.0583 14.9029C1.20453 14.8451 1.35806 14.8307 1.51891 14.8596C1.67976 14.8884 1.84792 14.9029 2.02339 14.9029C2.2281 14.9029 2.41088 14.9245 2.57173 14.9679C2.73258 15.0112 2.91536 15.0617 3.12008 15.1195C3.20781 15.1195 3.2663 15.1556 3.29555 15.2278C3.32479 15.3 3.36866 15.3505 3.42715 15.3794H3.82196C3.8512 15.3794 3.88045 15.4011 3.90969 15.4444C3.93894 15.4877 3.96818 15.5383 3.99743 15.596H4.3045C4.50921 15.596 4.67737 15.6466 4.80897 15.7477C4.94058 15.8488 5.09411 15.8993 5.26958 15.8993C5.41581 15.9282 5.57666 15.8921 5.75213 15.791C5.9276 15.6899 6.07382 15.596 6.1908 15.5094C6.22005 15.4516 6.26391 15.4011 6.3224 15.3578C6.38089 15.3144 6.46863 15.2639 6.58561 15.2061C6.61485 15.2639 6.65872 15.3072 6.71721 15.3361C6.7757 15.365 6.81957 15.3505 6.84881 15.2928C6.81957 15.2928 6.79763 15.2783 6.78301 15.2495C6.76839 15.2206 6.76108 15.235 6.76108 15.2928L7.06815 14.9895C7.15589 15.0473 7.25093 15.0473 7.35329 14.9895C7.45565 14.9318 7.55069 14.9029 7.63843 14.9029C7.60918 14.9606 7.55069 14.9967 7.46296 15.0112C7.37522 15.0256 7.30211 15.0906 7.24362 15.2061C7.24362 15.2061 7.37522 15.1556 7.63843 15.0545C7.90163 14.9534 7.9455 14.9029 7.77003 14.9029C7.91626 14.8451 8.04055 14.8668 8.1429 14.9679C8.24526 15.069 8.36955 15.1195 8.51578 15.1195C8.57427 15.1195 8.64738 15.0906 8.73512 15.0329C8.82285 14.9751 8.88134 14.9606 8.91059 14.9895C8.96908 14.9895 9.02757 15.0256 9.08606 15.0978C9.02757 15.0256 8.93983 14.9895 8.82285 14.9895C8.82285 15.0473 8.81554 15.1267 8.80092 15.2278C8.78629 15.3289 8.82285 15.3794 8.91059 15.3794C9.02757 15.4372 9.08606 15.4733 9.08606 15.4877C9.08606 15.5022 9.12992 15.5383 9.21766 15.596C9.21766 15.5383 9.26884 15.4805 9.37119 15.4228C9.47355 15.365 9.45162 15.2928 9.30539 15.2061C9.45162 15.2639 9.57591 15.3361 9.67827 15.4228C9.78062 15.5094 9.91954 15.5383 10.095 15.5094C10.1535 15.5094 10.2485 15.4805 10.3801 15.4228C10.5117 15.365 10.5483 15.3939 10.4898 15.5094C10.6068 15.4516 10.7311 15.4155 10.8627 15.4011C10.9943 15.3867 11.104 15.3794 11.1917 15.3794C11.2794 15.3505 11.3745 15.3217 11.4768 15.2928C11.5792 15.2639 11.6889 15.2061 11.8058 15.1195L12.7709 17.8055C12.6247 17.9788 12.5443 18.2026 12.5297 18.477C12.515 18.7514 12.4639 18.9896 12.3761 19.1918C12.3176 19.2784 12.2884 19.3723 12.2884 19.4734C12.2884 19.5745 12.2884 19.6683 12.2884 19.755C12.2884 19.8705 12.2445 19.9716 12.1568 20.0582C12.069 20.1449 12.0398 20.246 12.069 20.3615C12.0398 20.3037 11.9813 20.2532 11.8936 20.2099C11.8058 20.1666 11.7327 20.116 11.6742 20.0582C11.5865 20.0005 11.5134 19.9283 11.4549 19.8416C11.3964 19.755 11.3379 19.6683 11.2794 19.5817C11.1917 19.4951 11.0747 19.394 10.9285 19.2784C10.7823 19.1629 10.7384 19.0329 10.7969 18.8885C10.8554 18.7441 10.8188 18.6069 10.6872 18.477C10.5556 18.347 10.4606 18.2243 10.4021 18.1087C10.3143 17.9643 10.2266 17.7983 10.1389 17.6105C10.0511 17.4228 9.97803 17.2423 9.91954 17.069C9.8318 17.1556 9.766 17.264 9.72213 17.3939C9.67827 17.5239 9.67096 17.6322 9.7002 17.7188C9.84643 17.8632 9.93416 18.0293 9.96341 18.217C9.99265 18.4048 10.0804 18.5997 10.2266 18.8019C10.3143 18.9463 10.4094 19.0907 10.5117 19.2351C10.6141 19.3795 10.7384 19.5239 10.8846 19.6683L11.1917 19.9716C11.2502 20.0294 11.3014 20.1016 11.3452 20.1882C11.3891 20.2749 11.3379 20.2604 11.1917 20.1449C11.2794 20.2604 11.3087 20.3615 11.2794 20.4481C11.2502 20.5348 11.2941 20.607 11.411 20.6648C11.4988 20.7514 11.5719 20.8453 11.6304 20.9464C11.6889 21.0474 11.7474 21.1413 11.8058 21.2279C11.8058 21.2857 11.8205 21.3363 11.8497 21.3796C11.879 21.4229 11.9228 21.4734 11.9813 21.5312C12.0398 21.5601 12.0471 21.6034 12.0032 21.6612C11.9594 21.7189 11.9228 21.7767 11.8936 21.8345C11.8936 21.8633 11.9228 21.9139 11.9813 21.9861C12.0398 22.0583 12.069 22.0944 12.069 22.0944L12.3761 22.7009C12.5223 23.0475 12.6832 23.3724 12.8587 23.6757C13.0341 23.9789 13.195 24.3038 13.3412 24.6504C13.3997 24.7948 13.4728 24.9176 13.5605 25.0187C13.6483 25.1197 13.7506 25.2136 13.8676 25.3003C13.9553 25.4158 14.0504 25.5024 14.1528 25.5602C14.2551 25.6179 14.3502 25.7046 14.4379 25.8201C14.3794 25.8201 14.3136 25.8129 14.2405 25.7985C14.1674 25.784 14.1016 25.7479 14.0431 25.6902C14.0138 25.8923 14.0138 26.1017 14.0431 26.3183C14.0723 26.5349 14.1016 26.6866 14.1308 26.7732C14.2478 26.8599 14.2332 26.9754 14.087 27.1198C13.9407 27.2642 13.7945 27.3364 13.6483 27.3364C13.619 27.3364 13.5752 27.3292 13.5167 27.3147C13.4582 27.3003 13.3997 27.3508 13.3412 27.4664C13.312 27.4952 13.29 27.553 13.2754 27.6397C13.2608 27.7263 13.2242 27.7985 13.1657 27.8563C13.1072 27.9429 13.0707 28.0079 13.0561 28.0512C13.0414 28.0945 12.9756 28.1162 12.8587 28.1162C12.8294 28.1162 12.7563 28.1306 12.6393 28.1595C12.5223 28.1884 12.4346 28.2462 12.3761 28.3328C12.3176 28.4772 12.2738 28.6072 12.2445 28.7227C12.2153 28.8382 12.0983 28.896 11.8936 28.896C11.6304 28.896 11.433 28.831 11.3014 28.7011C11.1698 28.5711 11.0308 28.5061 10.8846 28.5061C10.4459 28.5061 10.095 28.5205 9.8318 28.5494C9.5686 28.5783 9.26153 28.5639 8.91059 28.5061C8.91059 28.4772 8.92521 28.4339 8.95445 28.3761C8.9837 28.3184 8.96908 28.2751 8.91059 28.2462C8.88134 28.1306 8.83747 28.1234 8.77898 28.2245C8.72049 28.3256 8.67663 28.3906 8.64738 28.4195C8.5304 28.535 8.32569 28.5783 8.03324 28.5494C7.74079 28.5205 7.55069 28.5061 7.46296 28.5061H0.663496L0.444158 19.4951C0.444158 19.2929 0.444158 19.0763 0.444158 18.8452C0.444158 18.6142 0.414913 18.3976 0.356423 18.1954C0.297933 18.1087 0.246755 17.9499 0.202887 17.7188C0.15902 17.4878 0.107841 17.3001 0.0493509 17.1556ZM22.9921 36.3475C22.9921 36.3475 22.9263 36.3475 22.7946 36.3475C22.663 36.3475 22.7288 36.3475 22.9921 36.3475C22.7288 36.3475 22.5753 36.2536 22.5314 36.0659C22.4876 35.8781 22.4656 35.7843 22.4656 35.7843C22.4656 36.0731 22.4876 36.2391 22.5314 36.2825C22.5753 36.3258 22.7288 36.3475 22.9921 36.3475ZM23.5185 36.8673V36.3475L22.9921 35.7843C22.9921 35.5243 22.8824 35.351 22.663 35.2644C22.4437 35.1777 22.1878 35.0045 21.8954 34.7445L21.369 34.2247C21.369 34.2247 21.347 34.138 21.3032 33.9647C21.2593 33.7914 21.1058 33.7048 20.8425 33.7048V32.1019L20.3161 31.582C20.3161 31.582 20.2284 31.5603 20.0529 31.517C19.8775 31.4737 19.7897 31.3221 19.7897 31.0621C19.5265 31.0621 19.373 30.9538 19.3291 30.7372C19.2852 30.5206 19.2633 30.2823 19.2633 30.0224V27.3797C19.2633 27.3797 19.1975 27.3147 19.0659 27.1848C18.9343 27.0548 19.0001 27.1198 19.2633 27.3797V26.34C19.2633 26.0512 19.1683 25.8634 18.9782 25.7768C18.7881 25.6902 18.693 25.5169 18.693 25.2569C18.693 25.2569 18.6053 25.2353 18.4298 25.1919C18.2544 25.1486 18.1666 24.997 18.1666 24.7371V24.2172C18.1666 24.2172 18.1447 24.1305 18.1008 23.9573C18.057 23.784 17.9034 23.6973 17.6402 23.6973C17.9034 23.6973 17.9473 23.5168 17.7718 23.1558C17.5963 22.7948 17.377 22.6143 17.1138 22.6143L16.061 21.5745C15.7978 21.3146 15.5492 21.033 15.3152 20.7297C15.0813 20.4265 14.9643 20.0005 14.9643 19.4517C14.9643 19.4517 14.9424 19.3651 14.8985 19.1918C14.8546 19.0185 14.7011 18.9319 14.4379 18.9319H13.9115V16.8524C14.1747 16.8524 14.4379 16.9174 14.7011 17.0473C14.9643 17.1773 15.2421 17.1123 15.5346 16.8524C15.7978 16.8524 15.9733 16.6719 16.061 16.3109C16.1487 15.9498 16.3242 15.7693 16.5874 15.7693H17.1138C17.1138 15.5094 17.1357 15.3578 17.1796 15.3144C17.2235 15.2711 17.377 15.2495 17.6402 15.2495L16.061 13.6899C16.5874 13.6899 17.0261 13.5816 17.377 13.3649C17.728 13.1483 18.1666 12.8956 18.693 12.6068C18.9855 12.6068 19.2633 12.6285 19.5265 12.6718C19.7897 12.7151 20.0529 12.8812 20.3161 13.17C21.1058 13.4299 21.8807 13.8848 22.6411 14.5346C23.4015 15.1845 24.0449 15.7838 24.5713 16.3325C24.8345 16.3325 25.01 16.4192 25.0977 16.5925C25.1854 16.7657 25.3755 16.8524 25.668 16.8524C25.9312 17.1123 26.1066 17.264 26.1944 17.3073C26.2821 17.3506 26.4576 17.3723 26.7208 17.3723H29.3967C29.6599 17.3723 29.8134 17.4589 29.8573 17.6322C29.9012 17.8055 29.9231 17.8921 29.9231 17.8921C29.9231 18.1521 30.0328 18.217 30.2521 18.0871C30.4715 17.9571 30.7127 17.8921 30.9759 17.8921C30.9759 17.8921 31.0637 17.9138 31.2391 17.9571C31.4146 18.0004 31.5023 18.1521 31.5023 18.412L32.0726 18.9319V19.4517C32.0726 19.4517 32.1604 19.4806 32.3358 19.5384C32.5113 19.5961 32.599 19.755 32.599 20.0149L33.1254 20.5348C33.1254 20.7947 33.2132 20.968 33.3886 21.0547C33.5641 21.1413 33.6519 21.3146 33.6519 21.5745C33.6519 21.8345 33.6738 21.9861 33.7177 22.0294C33.7615 22.0727 33.9151 22.0944 34.1783 22.0944V23.1775L34.7047 23.6973C34.7047 23.6973 34.7266 23.784 34.7705 23.9573C34.8143 24.1305 34.9679 24.2172 35.2311 24.2172C35.2311 24.2172 35.2603 24.3038 35.3188 24.4771C35.3773 24.6504 35.5382 24.7371 35.8014 24.7371H36.3278V25.7768C36.591 26.0656 36.8322 26.405 37.0516 26.7949C37.2709 27.1848 37.3806 27.3797 37.3806 27.3797C38.1702 27.3797 38.7697 27.4014 39.1792 27.4447C39.5886 27.488 40.0565 27.6397 40.5829 27.8996C40.5829 28.1595 40.6707 28.3328 40.8461 28.4195C41.0216 28.5061 41.1093 28.6794 41.1093 28.9393V29.5025C41.1093 30.0224 41.0216 30.5206 40.8461 30.9971C40.6707 31.4737 40.5829 31.8419 40.5829 32.1019C39.5301 32.6506 38.353 33.0766 37.0516 33.3799C35.7502 33.6831 34.4415 33.9647 33.1254 34.2247C32.8622 34.2247 32.6868 34.2463 32.599 34.2896C32.5113 34.333 32.3358 34.4846 32.0726 34.7445C31.7802 34.7445 31.5243 34.9467 31.3049 35.351C31.0856 35.7554 30.9759 36.0875 30.9759 36.3475L30.4495 36.8673L29.9231 36.3475H26.1944C25.9312 36.3475 25.7776 36.2825 25.7338 36.1525C25.6899 36.0225 25.668 36.0875 25.668 36.3475C25.3755 36.3475 25.2074 36.4341 25.1635 36.6074C25.1196 36.7807 25.0977 36.8673 25.0977 36.8673C24.5713 36.6074 24.2423 36.4774 24.1107 36.4774C23.9791 36.4774 23.7817 36.6074 23.5185 36.8673C23.7817 36.6074 23.9133 36.5424 23.9133 36.6724C23.9133 36.8023 23.7817 36.8673 23.5185 36.8673ZM22.4656 35.7843C22.4656 36.0731 22.4656 36.1453 22.4656 36.0009C22.4656 35.8565 22.4656 35.7843 22.4656 35.7843ZM11.6742 15.3794C11.7327 15.3505 11.8058 15.2639 11.8936 15.1195C11.9813 14.9751 11.9813 14.874 11.8936 14.8162C12.0398 14.6141 12.1275 14.3975 12.1568 14.1664C12.186 13.9354 12.2299 13.6899 12.2884 13.4299C12.2884 13.401 12.2957 13.3288 12.3103 13.2133C12.3249 13.0978 12.3761 13.0111 12.4639 12.9534C12.5223 12.9245 12.537 12.8812 12.5077 12.8234C12.4785 12.7656 12.4639 12.7079 12.4639 12.6501C12.5223 12.6212 12.5881 12.614 12.6613 12.6285C12.7344 12.6429 12.7709 12.6501 12.7709 12.6501C12.8587 12.6501 12.9172 12.614 12.9464 12.5418C12.9756 12.4696 12.9903 12.4191 12.9903 12.3902C13.1365 12.3902 13.1877 12.5851 13.1438 12.975C13.0999 13.3649 13.078 13.6465 13.078 13.8198C13.078 13.7909 13.0341 13.7404 12.9464 13.6682C12.8587 13.596 12.7709 13.5599 12.6832 13.5599C12.5662 13.5021 12.5004 13.5238 12.4858 13.6249C12.4712 13.726 12.4346 13.7909 12.3761 13.8198C12.3761 13.9354 12.3688 14.0798 12.3542 14.253C12.3396 14.4263 12.3761 14.513 12.4639 14.513C12.7271 14.4552 12.7636 14.5058 12.5735 14.6646C12.3834 14.8235 12.3176 14.9751 12.3761 15.1195C12.4346 15.2061 12.5516 15.1917 12.7271 15.0762C12.9025 14.9606 13.0195 14.9029 13.078 14.9029V15.5094C13.078 15.6538 13.0561 15.791 13.0122 15.921C12.9683 16.0509 12.9172 16.1737 12.8587 16.2892C12.8294 16.4625 12.8148 16.7152 12.8148 17.0473C12.8148 17.3795 12.7417 17.6322 12.5955 17.8055L11.6742 15.3794ZM12.3323 12.4768C12.5955 12.2169 12.6832 11.9786 12.5955 11.762C12.5077 11.5454 12.5955 11.4371 12.8587 11.4371V10.9172L13.3851 10.3974H13.9115C13.9115 10.6573 13.8457 10.8089 13.7141 10.8522C13.5825 10.8956 13.6483 10.9172 13.9115 10.9172C13.9115 10.9172 13.8237 10.9389 13.6483 10.9822C13.4728 11.0255 13.3851 11.1772 13.3851 11.4371L12.8587 11.957C12.8587 12.2169 12.8367 12.3685 12.7929 12.4118C12.749 12.4552 12.5955 12.4768 12.3323 12.4768C12.5955 12.7656 12.7271 12.8379 12.7271 12.6934C12.7271 12.549 12.5955 12.4768 12.3323 12.4768ZM28.8703 17.3723C28.8703 17.3723 28.8703 17.4445 28.8703 17.5889C28.8703 17.7333 28.8703 17.6611 28.8703 17.3723C29.1335 17.6611 29.2651 17.7333 29.2651 17.5889C29.2651 17.4445 29.1335 17.3723 28.8703 17.3723ZM27.2472 18.4553C27.5396 18.4553 27.7297 18.2531 27.8175 17.8488C27.9052 17.4445 28.0807 17.1123 28.3439 16.8524H29.3967V17.3723C29.3967 17.3723 29.309 17.4011 29.1335 17.4589C28.958 17.5167 28.8703 17.6755 28.8703 17.9354C28.8703 17.9354 28.958 17.9571 29.1335 18.0004C29.309 18.0438 29.3967 18.1954 29.3967 18.4553C29.3967 18.7153 29.4844 18.8885 29.6599 18.9752C29.8354 19.0618 29.9231 19.2351 29.9231 19.4951H28.8703V18.9752C28.6071 18.7153 28.2708 18.5636 27.8613 18.5203C27.4519 18.477 27.2472 18.4553 27.2472 18.4553ZM28.3439 18.8019C28.8703 18.8019 29.1335 18.4553 29.1335 17.7622C29.1335 17.069 28.8703 16.7224 28.3439 16.7224C27.8175 16.9824 27.5543 17.3939 27.5543 17.9571C27.5543 18.5203 27.8175 18.8019 28.3439 18.8019ZM33.1254 24.0872C33.1254 24.0872 33.0596 24.0222 32.928 23.8923C32.7964 23.7623 32.8622 23.8273 33.1254 24.0872C33.1254 23.8273 33.1254 23.6323 33.1254 23.5024C33.1254 23.3724 33.1254 23.5674 33.1254 24.0872C33.1254 23.8273 33.1474 23.5168 33.1912 23.1558C33.2351 22.7948 33.3886 22.7587 33.6519 23.0475C33.6519 23.0475 33.7469 23.0691 33.937 23.1125C34.1271 23.1558 34.2221 23.3074 34.2221 23.5674V25.127C34.2221 25.127 34.2002 25.2136 34.1563 25.3869C34.1125 25.5602 33.9443 25.6468 33.6519 25.6468H33.1254V24.0872ZM8.60351 9.87749L9.12992 9.3143C9.39313 9.3143 9.48086 9.22766 9.39313 9.05437C9.30539 8.88108 9.39313 8.79443 9.65633 8.79443H10.7092C11.0016 8.79443 11.1917 8.70779 11.2794 8.5345C11.3672 8.36121 11.5426 8.27457 11.8058 8.27457L11.2794 8.79443V9.3143H10.7092C10.7092 9.3143 10.6214 9.33596 10.4459 9.37928C10.2705 9.42261 10.1827 9.58868 10.1827 9.87749C9.91954 10.1374 9.65633 10.2674 9.39313 10.2674C9.12992 10.2674 8.86672 10.1374 8.60351 9.87749Z" fill="#12499E"/>
</svg>
