<svg width="46" height="45" viewBox="0 0 46 45" fill="none" xmlns="http://www.w3.org/2000/svg">
<path d="M44.8682 24.7256L45.0879 24.5091C45.0293 24.3936 44.9707 24.2998 44.9121 24.2276C44.8535 24.1554 44.7949 24.0905 44.7363 24.0328L44.5166 24.1627V23.8162H44.1211C44.0039 23.874 43.8867 23.9317 43.7695 23.9894C43.6523 24.0472 43.5352 24.1482 43.418 24.2926C43.3594 24.206 43.3594 24.1194 43.418 24.0328C43.4766 23.9461 43.5938 23.874 43.7695 23.8162C43.8867 23.7585 44.0039 23.7152 44.1211 23.6863C44.2383 23.6575 44.3262 23.6142 44.3848 23.5564V23.4698C44.3262 23.4698 44.2676 23.4482 44.209 23.4049C44.1504 23.3616 44.0918 23.3399 44.0332 23.3399C43.916 23.3399 43.7842 23.3471 43.6377 23.3616C43.4912 23.376 43.3887 23.2966 43.3301 23.1234H43.1982C43.0811 23.0657 42.9712 22.9791 42.8687 22.8636C42.7661 22.7481 42.7148 22.6327 42.7148 22.5172C42.7148 22.4595 42.7075 22.4017 42.6929 22.344C42.6782 22.2862 42.6123 22.2285 42.4951 22.1708L42.3633 22.0409C42.4219 22.0986 42.4805 22.1275 42.5391 22.1275C42.5977 22.1275 42.6562 22.0986 42.7148 22.0409C42.7734 21.9831 42.8174 21.9254 42.8467 21.8677C42.876 21.8099 42.832 21.7522 42.7148 21.6945C42.6562 21.6945 42.6196 21.68 42.605 21.6511C42.5903 21.6223 42.5537 21.6078 42.4951 21.6078C42.3779 21.4635 42.2461 21.3336 42.0996 21.2181C41.9531 21.1027 41.8799 20.9583 41.8799 20.7851C41.8799 20.7274 41.8579 20.648 41.814 20.547C41.77 20.4459 41.7188 20.3665 41.6602 20.3088C41.6602 20.2511 41.6382 20.1933 41.5942 20.1356C41.5503 20.0779 41.5283 20.0201 41.5283 19.9624V19.616C41.4697 19.7892 41.3892 19.984 41.2866 20.2005C41.1841 20.417 41.1035 20.6119 41.0449 20.7851C40.9277 20.7274 40.8545 20.6985 40.8252 20.6985C40.7959 20.6985 40.752 20.7562 40.6934 20.8717C40.6934 20.9295 40.6348 20.9872 40.5176 21.0449C40.4004 21.1027 40.3125 21.1315 40.2539 21.1315C40.166 21.0738 40.0854 21.0016 40.0122 20.915C39.939 20.8284 39.8145 20.7851 39.6387 20.7851V20.6552C39.6387 20.5975 39.6167 20.547 39.5728 20.5037C39.5288 20.4604 39.5068 20.4387 39.5068 20.4387C39.3896 20.3232 39.3311 20.2078 39.3311 20.0923C39.3311 19.9768 39.3604 19.8902 39.4189 19.8325C39.4775 19.7747 39.5142 19.717 39.5288 19.6593C39.5435 19.6015 39.5801 19.5438 39.6387 19.4861H39.4189C39.2432 19.5438 39.082 19.551 38.9355 19.5077C38.7891 19.4644 38.6279 19.4139 38.4521 19.3562C38.3936 19.2984 38.3203 19.2407 38.2324 19.1829C38.1445 19.1252 38.1006 19.0675 38.1006 19.0097L37.9688 18.9231C37.8516 18.9231 37.7637 18.8726 37.7051 18.7716C37.6465 18.6705 37.6172 18.5912 37.6172 18.5334C37.5 18.5334 37.3828 18.519 37.2656 18.4901C37.1484 18.4612 37.0312 18.4468 36.9141 18.4468C36.8555 18.4468 36.7896 18.4252 36.7163 18.3819C36.6431 18.3386 36.5479 18.3169 36.4307 18.3169C36.3135 18.2592 36.2256 18.2664 36.167 18.3386C36.1084 18.4107 36.0791 18.4757 36.0791 18.5334C36.0205 18.5912 36.0132 18.6561 36.0571 18.7283C36.1011 18.8004 36.1523 18.8654 36.2109 18.9231C36.2695 18.9809 36.3062 19.017 36.3208 19.0314C36.3354 19.0458 36.3428 19.0819 36.3428 19.1396C36.2842 19.1974 36.2549 19.2768 36.2549 19.3778C36.2549 19.4788 36.2842 19.5871 36.3428 19.7026C36.4014 19.7603 36.4307 19.818 36.4307 19.8758C36.4307 19.9335 36.4307 19.9912 36.4307 20.049V20.3088C36.3135 20.4243 36.2549 20.5037 36.2549 20.547C36.2549 20.5903 36.3135 20.6696 36.4307 20.7851V20.8717C36.4307 20.9295 36.4526 20.9872 36.4966 21.0449C36.5405 21.1027 36.5625 21.1604 36.5625 21.2181C36.6211 21.3336 36.6577 21.4563 36.6724 21.5862C36.687 21.7161 36.7236 21.8388 36.7822 21.9543C36.8408 22.1275 36.8628 22.3151 36.8481 22.5172C36.8335 22.7193 36.7383 22.878 36.5625 22.9935C36.4453 23.109 36.3208 23.2317 36.189 23.3616C36.0571 23.4915 35.8594 23.5564 35.5957 23.5564C35.5957 23.6142 35.6177 23.6719 35.6616 23.7296C35.7056 23.7874 35.7275 23.8451 35.7275 23.9028C35.7275 23.9606 35.7495 24.0183 35.7935 24.0761C35.8374 24.1338 35.8594 24.206 35.8594 24.2926C35.8594 24.3503 35.8813 24.4513 35.9253 24.5957C35.9692 24.74 35.9912 24.8988 35.9912 25.072V25.3318C35.9912 25.3895 35.9692 25.4256 35.9253 25.4401C35.8813 25.4545 35.9033 25.4906 35.9912 25.5483V25.6782C35.8447 25.5627 35.7568 25.5122 35.7275 25.5267C35.6982 25.5411 35.625 25.6638 35.5078 25.8947C35.4492 25.837 35.3906 25.8009 35.332 25.7865C35.2734 25.772 35.2148 25.736 35.1562 25.6782C35.0391 25.5627 34.9585 25.4473 34.9146 25.3318C34.8706 25.2163 34.79 25.1009 34.6729 24.9854C34.6143 24.7544 34.5557 24.5885 34.4971 24.4874C34.4385 24.3864 34.4092 24.2781 34.4092 24.1627V23.21C34.4092 23.1523 34.3872 23.1162 34.3433 23.1018C34.2993 23.0873 34.248 23.0512 34.1895 22.9935H33.2666C33.1201 22.9358 33.0029 22.878 32.915 22.8203C32.8271 22.7626 32.6953 22.7337 32.5195 22.7337C32.5195 22.7337 32.5049 22.7337 32.4756 22.7337C32.4463 22.7337 32.4316 22.7048 32.4316 22.6471C32.373 22.6471 32.3291 22.6254 32.2998 22.5821C32.2705 22.5388 32.2266 22.5172 32.168 22.5172C32.0508 22.5172 31.9482 22.4883 31.8604 22.4306C31.7725 22.3728 31.7285 22.2862 31.7285 22.1708C31.6406 22.0553 31.582 21.9687 31.5527 21.911C31.5234 21.8532 31.4209 21.8244 31.2451 21.8244C31.1865 21.8244 31.1279 21.8027 31.0693 21.7594C31.0107 21.7161 30.9814 21.6945 30.9814 21.6945C30.9229 21.6367 30.8643 21.6078 30.8057 21.6078C30.7471 21.6078 30.6592 21.6367 30.542 21.6945C30.4834 21.6945 30.4175 21.7161 30.3442 21.7594C30.271 21.8027 30.2051 21.8244 30.1465 21.8244V21.348C30.1465 21.2903 30.1318 21.2109 30.1025 21.1099C30.0732 21.0088 30.0586 20.9295 30.0586 20.8717C30.0586 20.814 30.0293 20.7635 29.9707 20.7202C29.9121 20.6769 29.8242 20.6552 29.707 20.6552C29.5312 20.6552 29.4287 20.6263 29.3994 20.5686C29.3701 20.5109 29.3555 20.4243 29.3555 20.3088C29.3555 20.0779 29.3774 19.8397 29.4214 19.5943C29.4653 19.3489 29.5166 19.0819 29.5752 18.7932C29.5752 18.6778 29.6265 18.5839 29.729 18.5118C29.8315 18.4396 29.9414 18.3746 30.0586 18.3169C30.1758 18.2592 30.249 18.1942 30.2783 18.1221C30.3076 18.0499 30.3516 17.9561 30.4102 17.8406H30.6299C30.7471 17.8406 30.835 17.8189 30.8936 17.7756C30.9521 17.7323 30.9814 17.6818 30.9814 17.6241C30.9814 17.5086 30.9375 17.4581 30.8496 17.4725C30.7617 17.487 30.6885 17.4653 30.6299 17.4076C30.5713 17.4076 30.52 17.4004 30.4761 17.3859C30.4321 17.3715 30.4102 17.3354 30.4102 17.2777C30.4102 17.1622 30.3662 17.09 30.2783 17.0612C30.1904 17.0323 30.1172 17.0179 30.0586 17.0179C30 17.0179 29.9561 17.0179 29.9268 17.0179C29.8975 17.0179 29.8535 16.989 29.7949 16.9313H30.1465C30.293 16.989 30.4248 17.0251 30.542 17.0395C30.6592 17.0539 30.7764 17.09 30.8936 17.1478C31.0693 17.2055 31.1865 17.2127 31.2451 17.1694C31.3037 17.1261 31.333 17.0467 31.333 16.9313V16.8013C31.3916 16.8013 31.4502 16.823 31.5088 16.8663C31.5674 16.9096 31.6406 16.9313 31.7285 16.9313C31.7871 16.9313 31.8457 16.9457 31.9043 16.9746C31.9629 17.0034 32.0215 16.989 32.0801 16.9313C32.1387 16.8158 32.1973 16.7147 32.2559 16.6281C32.3145 16.5415 32.4023 16.4405 32.5195 16.325L32.6514 16.2384C32.5928 16.2384 32.5562 16.2312 32.5415 16.2168C32.5269 16.2023 32.4902 16.1663 32.4316 16.1085H32.168C32.0508 16.1085 31.9189 16.0796 31.7725 16.0219C31.626 15.9642 31.5234 15.8776 31.4648 15.7621V15.6322H31.5967C31.6553 15.6899 31.7139 15.726 31.7725 15.7405C31.8311 15.7549 31.8896 15.791 31.9482 15.8487C32.0654 15.993 32.1899 16.0796 32.3218 16.1085C32.4536 16.1374 32.6074 16.0508 32.7832 15.8487L32.8711 15.7621C32.9297 15.7044 32.959 15.6466 32.959 15.5889C32.959 15.5312 32.9297 15.5023 32.8711 15.5023C32.8711 15.5023 32.8711 15.4879 32.8711 15.459C32.8711 15.4301 32.8418 15.4157 32.7832 15.4157H33.1348C33.1934 15.5312 33.2739 15.5745 33.3765 15.5456C33.479 15.5167 33.5889 15.5023 33.7061 15.5023C33.7646 15.3868 33.728 15.3074 33.5962 15.2641C33.4644 15.2208 33.4277 15.1126 33.4863 14.9394L33.9697 15.5023C34.0283 15.4446 34.0796 15.4085 34.1235 15.394C34.1675 15.3796 34.1895 15.3435 34.1895 15.2858C34.248 15.228 34.314 15.1559 34.3872 15.0693C34.4604 14.9827 34.5557 14.9394 34.6729 14.9394C34.7314 14.9394 34.7681 14.9177 34.7827 14.8744C34.7974 14.8311 34.8047 14.7806 34.8047 14.7229C34.7461 14.5785 34.6875 14.4558 34.6289 14.3548C34.5703 14.2538 34.4971 14.1744 34.4092 14.1166V13.9867H34.541C34.5996 13.9867 34.6582 13.9867 34.7168 13.9867C34.7754 13.9867 34.834 13.9579 34.8926 13.9001C34.8926 13.9001 34.8926 13.8713 34.8926 13.8135C34.8926 13.7558 34.8633 13.698 34.8047 13.6403C34.8633 13.5826 34.8853 13.5321 34.8706 13.4888C34.856 13.4455 34.79 13.4238 34.6729 13.4238C34.6143 13.4238 34.5557 13.4022 34.4971 13.3589C34.4385 13.3155 34.3799 13.265 34.3213 13.2073C34.3213 13.2073 34.314 13.1856 34.2993 13.1423C34.2847 13.099 34.248 13.0774 34.1895 13.0774C34.0723 13.0774 33.9478 13.0557 33.8159 13.0124C33.6841 12.9691 33.5303 12.9475 33.3545 12.9475C33.2959 12.9475 33.2446 12.9547 33.2007 12.9691C33.1567 12.9836 33.1348 13.0197 33.1348 13.0774C33.1348 13.1351 33.1201 13.1929 33.0908 13.2506C33.0615 13.3083 33.1201 13.3661 33.2666 13.4238C33.3252 13.4815 33.3545 13.5537 33.3545 13.6403C33.3545 13.7269 33.3252 13.7702 33.2666 13.7702C33.1201 13.828 33.0396 13.8857 33.0249 13.9434C33.0103 14.0012 33.0029 14.0589 33.0029 14.1166C33.0029 14.1744 32.981 14.2321 32.937 14.2898C32.8931 14.3476 32.8711 14.4053 32.8711 14.463H32.7832V14.3331C32.7832 14.2754 32.7759 14.2393 32.7612 14.2249C32.7466 14.2105 32.71 14.1744 32.6514 14.1166H32.5195V14.3331C32.5195 14.3331 32.5415 14.3404 32.5854 14.3548C32.6294 14.3692 32.6514 14.4053 32.6514 14.463C32.6514 14.5208 32.666 14.5785 32.6953 14.6363C32.7246 14.694 32.71 14.7517 32.6514 14.8095C32.6514 14.8672 32.6147 14.9105 32.5415 14.9394C32.4683 14.9682 32.4316 15.0115 32.4316 15.0693C32.373 15.0115 32.3145 14.9321 32.2559 14.8311C32.1973 14.7301 32.1387 14.6507 32.0801 14.593C32.0215 14.5352 31.9922 14.4558 31.9922 14.3548C31.9922 14.2538 32.0508 14.1744 32.168 14.1166V13.9867C32.168 13.8713 32.124 13.7847 32.0361 13.7269C31.9482 13.6692 31.875 13.6114 31.8164 13.5537C31.7578 13.5537 31.7212 13.5321 31.7065 13.4888C31.6919 13.4455 31.6553 13.4238 31.5967 13.4238L31.4648 13.5537C31.4062 13.6692 31.355 13.763 31.311 13.8352C31.2671 13.9073 31.2451 14.0012 31.2451 14.1166C31.1865 14.0589 31.1646 13.9795 31.1792 13.8785C31.1938 13.7774 31.1719 13.698 31.1133 13.6403C31.0547 13.5248 31.0474 13.4527 31.0913 13.4238C31.1353 13.3949 31.1865 13.3516 31.2451 13.2939C31.1279 13.063 31.0254 12.897 30.9375 12.7959C30.8496 12.6949 30.7178 12.7021 30.542 12.8176C30.542 12.7598 30.5347 12.6877 30.52 12.6011C30.5054 12.5145 30.5859 12.4423 30.7617 12.3846C30.8203 12.3846 30.8496 12.3557 30.8496 12.298C30.8496 12.2402 30.8203 12.1825 30.7617 12.1247C30.6445 12.067 30.564 11.9948 30.52 11.9082C30.4761 11.8216 30.3955 11.7783 30.2783 11.7783V11.6484C30.2783 11.4752 30.2417 11.3309 30.1685 11.2154C30.0952 11.0999 29.9707 11.0133 29.7949 10.9556C29.7363 10.9556 29.707 10.9339 29.707 10.8906C29.707 10.8473 29.7363 10.7968 29.7949 10.7391C29.8535 10.6814 29.9121 10.602 29.9707 10.5009C30.0293 10.3999 30.0879 10.3205 30.1465 10.2628C30.0879 10.205 30.0586 10.1689 30.0586 10.1545C30.0586 10.1401 30.0586 10.104 30.0586 10.0463C30.1172 10.0463 30.1758 10.0463 30.2344 10.0463C30.293 10.0463 30.3516 10.0751 30.4102 10.1329C30.4688 10.1329 30.542 10.1329 30.6299 10.1329C30.7178 10.1329 30.7617 10.104 30.7617 10.0463L31.1133 9.35343C31.1719 9.2957 31.1792 9.23796 31.1353 9.18023C31.0913 9.12249 31.0107 9.09362 30.8936 9.09362H30.4102C30.2344 8.97815 30.0732 8.92763 29.9268 8.94206C29.7803 8.9565 29.6191 8.96371 29.4434 8.96371C29.3262 8.96371 29.2603 8.9998 29.2456 9.07197C29.231 9.14414 29.2236 9.23796 29.2236 9.35343V9.44004H29.0039V9.91636C29.0039 10.0318 29.0186 10.1256 29.0479 10.1978C29.0771 10.27 29.0918 10.3782 29.0918 10.5226C29.0918 10.6381 29.1064 10.7463 29.1357 10.8473C29.165 10.9484 29.1504 11.0278 29.0918 11.0855C29.0332 11.201 28.9893 11.2948 28.96 11.367C28.9307 11.4391 28.9453 11.5041 29.0039 11.5618L28.8721 11.4319H28.7402C28.6816 11.4897 28.6523 11.569 28.6523 11.6701C28.6523 11.7711 28.6816 11.8505 28.7402 11.9082C28.7988 11.966 28.8281 12.0021 28.8281 12.0165C28.8281 12.0309 28.7988 12.067 28.7402 12.1247C28.623 12.2402 28.6084 12.3701 28.6963 12.5145C28.7842 12.6588 28.916 12.731 29.0918 12.731C29.1504 12.731 29.209 12.731 29.2676 12.731C29.3262 12.731 29.3848 12.7598 29.4434 12.8176C29.502 12.8176 29.5532 12.8464 29.5972 12.9042C29.6411 12.9619 29.6338 13.0197 29.5752 13.0774C29.5752 13.1351 29.5532 13.1929 29.5093 13.2506C29.4653 13.3083 29.4434 13.3661 29.4434 13.4238V13.5537L29.707 13.2073C29.8242 13.3805 29.8096 13.5393 29.6631 13.6836C29.5166 13.828 29.3262 13.929 29.0918 13.9867V14.1166C29.0918 14.1744 29.0991 14.2321 29.1138 14.2898C29.1284 14.3476 29.165 14.4053 29.2236 14.463C29.2236 14.5208 29.2163 14.5713 29.2017 14.6146C29.187 14.6579 29.1211 14.6507 29.0039 14.593C28.8574 14.5352 28.7622 14.4775 28.7183 14.4197C28.6743 14.362 28.6816 14.3043 28.7402 14.2465C28.7402 14.1888 28.7622 14.1311 28.8062 14.0733C28.8501 14.0156 28.8721 13.9867 28.8721 13.9867C28.7549 13.9867 28.6377 13.9795 28.5205 13.9651C28.4033 13.9506 28.3154 13.8857 28.2568 13.7702H28.6084C28.667 13.7125 28.7256 13.6764 28.7842 13.662C28.8428 13.6475 28.8721 13.6403 28.8721 13.6403C28.9307 13.6403 28.9819 13.6403 29.0259 13.6403C29.0698 13.6403 29.0918 13.6114 29.0918 13.5537V13.2073H28.6084V13.0774H29.0039C29.0039 13.0197 28.9746 12.9691 28.916 12.9258C28.8574 12.8825 28.7988 12.8897 28.7402 12.9475C28.623 13.0052 28.5278 13.0124 28.4546 12.9691C28.3813 12.9258 28.3154 12.8753 28.2568 12.8176C28.1396 12.7598 28.0664 12.7382 28.0371 12.7526C28.0078 12.7671 27.9639 12.832 27.9053 12.9475V13.0774C27.9053 13.1351 27.8906 13.1712 27.8613 13.1856C27.832 13.2001 27.8174 13.2073 27.8174 13.2073C27.7588 13.2073 27.7148 13.2217 27.6855 13.2506C27.6562 13.2795 27.6123 13.2939 27.5537 13.2939C27.6123 13.2939 27.6709 13.3155 27.7295 13.3589C27.7881 13.4022 27.8174 13.4238 27.8174 13.4238C27.9346 13.4238 28.0225 13.4455 28.0811 13.4888C28.1396 13.5321 28.1689 13.5826 28.1689 13.6403L28.0371 13.7702H27.8174V14.2465C27.5537 14.1888 27.334 14.1744 27.1582 14.2032C26.9824 14.2321 26.8066 14.2465 26.6309 14.2465C26.5137 14.2465 26.3965 14.2321 26.2793 14.2032C26.1621 14.1744 26.0742 14.1022 26.0156 13.9867L25.8838 13.9001C25.7666 13.9001 25.6714 13.8785 25.5981 13.8352C25.5249 13.7919 25.4297 13.7702 25.3125 13.7702C25.1953 13.7702 25.1294 13.7414 25.1147 13.6836C25.1001 13.6259 25.0928 13.5393 25.0928 13.4238C25.0928 13.3661 25.0635 13.3155 25.0049 13.2722C24.9463 13.2289 24.8877 13.2073 24.8291 13.2073C24.6533 13.265 24.4995 13.3228 24.3677 13.3805C24.2358 13.4382 24.082 13.496 23.9062 13.5537C23.8477 13.5537 23.8257 13.5754 23.8403 13.6187C23.855 13.662 23.833 13.7125 23.7744 13.7702H23.9941C24.1113 13.7125 24.2285 13.662 24.3457 13.6187C24.4629 13.5754 24.5947 13.5537 24.7412 13.5537H24.8291C24.7705 13.6692 24.6899 13.7414 24.5874 13.7702C24.4849 13.7991 24.375 13.8424 24.2578 13.9001C24.1406 13.9001 24.0674 13.929 24.0381 13.9867C24.0088 14.0445 23.9941 14.1311 23.9941 14.2465C24.0527 14.362 24.0967 14.4558 24.126 14.528C24.1553 14.6002 24.1992 14.6651 24.2578 14.7229L23.9941 14.9394C23.9355 14.9394 23.8916 14.9321 23.8623 14.9177C23.833 14.9033 23.8477 14.8383 23.9062 14.7229C23.9062 14.6651 23.8989 14.6002 23.8843 14.528C23.8696 14.4558 23.833 14.3909 23.7744 14.3331C23.6572 14.2754 23.5474 14.2177 23.4448 14.1599C23.3423 14.1022 23.2471 14.0445 23.1592 13.9867H23.0713C22.8955 13.9867 22.7344 14.0084 22.5879 14.0517C22.4414 14.095 22.2803 14.1166 22.1045 14.1166H21.2695C21.1523 14.1166 21.0938 14.095 21.0938 14.0517C21.0938 14.0084 21.123 13.9579 21.1816 13.9001C21.2402 13.8424 21.2988 13.7991 21.3574 13.7702C21.416 13.7414 21.5039 13.698 21.6211 13.6403C21.6211 13.5248 21.5332 13.4022 21.3574 13.2722C21.1816 13.1423 21.0352 13.1207 20.918 13.2073H20.4785C20.332 13.1207 20.2002 13.0557 20.083 13.0124C19.9658 12.9691 19.8486 12.9475 19.7314 12.9475C19.5557 12.8897 19.3872 12.8464 19.2261 12.8176C19.0649 12.7887 18.9258 12.7165 18.8086 12.6011C18.6914 12.4856 18.5376 12.4495 18.3472 12.4928C18.1567 12.5361 18.0322 12.6155 17.9736 12.731C17.915 12.8464 17.8491 12.9114 17.7759 12.9258C17.7026 12.9403 17.6074 12.9475 17.4902 12.9475V12.3846H17.3584C17.3584 12.4423 17.3438 12.4784 17.3145 12.4928C17.2852 12.5072 17.2705 12.5433 17.2705 12.6011C17.2119 12.6588 17.168 12.7165 17.1387 12.7743C17.1094 12.832 17.0654 12.8897 17.0068 12.9475L16.9189 13.0774C16.8604 13.0774 16.8164 13.0702 16.7871 13.0557C16.7578 13.0413 16.7139 13.0052 16.6553 12.9475C16.6553 12.8897 16.6553 12.832 16.6553 12.7743C16.6553 12.7165 16.626 12.6588 16.5674 12.6011C16.5088 12.4856 16.4355 12.3773 16.3477 12.2763C16.2598 12.1753 16.1279 12.0959 15.9521 12.0381L16.084 12.3846C16.0254 12.5 15.9668 12.5866 15.9082 12.6444C15.8496 12.7021 15.791 12.7598 15.7324 12.8176C15.6152 12.7598 15.52 12.731 15.4468 12.731C15.3735 12.731 15.3076 12.7598 15.249 12.8176C15.1904 12.8753 15.1465 12.9258 15.1172 12.9691C15.0879 13.0124 15.0146 13.0052 14.8975 12.9475H14.7656C14.6484 13.0052 14.5532 13.063 14.48 13.1207C14.4067 13.1784 14.3408 13.2362 14.2822 13.2939C14.2822 13.3516 14.2529 13.4022 14.1943 13.4455C14.1357 13.4888 14.0479 13.4815 13.9307 13.4238C13.9307 13.4238 13.938 13.4022 13.9526 13.3589C13.9673 13.3155 14.0039 13.2939 14.0625 13.2939C14.2383 13.1784 14.3994 13.0485 14.5459 12.9042C14.6924 12.7598 14.8828 12.6588 15.1172 12.6011C15.1758 12.6011 15.2344 12.5794 15.293 12.5361C15.3516 12.4928 15.4102 12.4423 15.4688 12.3846V12.2547L14.4141 12.6011C14.3555 12.6011 14.3042 12.6227 14.2603 12.666C14.2163 12.7093 14.1943 12.731 14.1943 12.731C14.1357 12.731 14.0771 12.7454 14.0186 12.7743C13.96 12.8031 13.9014 12.7887 13.8428 12.731C13.7842 12.6732 13.6963 12.6588 13.5791 12.6877C13.4619 12.7165 13.3447 12.7598 13.2275 12.8176C13.1104 12.8753 13.0444 12.933 13.0298 12.9908C13.0151 13.0485 13.0371 13.1207 13.0957 13.2073C13.0957 13.265 13.1177 13.3011 13.1616 13.3155C13.2056 13.33 13.2275 13.3661 13.2275 13.4238C13.1104 13.3661 12.9932 13.33 12.876 13.3155C12.7588 13.3011 12.6416 13.2939 12.5244 13.2939C12.3486 13.2939 12.1948 13.2434 12.063 13.1423C11.9312 13.0413 11.8066 12.9331 11.6895 12.8176H11.3379C11.1621 12.8176 10.9644 12.8104 10.7446 12.7959C10.5249 12.7815 10.3271 12.7165 10.1514 12.6011C10.0928 12.5433 10.0269 12.5145 9.95361 12.5145C9.88037 12.5145 9.78516 12.5433 9.66797 12.6011C9.66797 12.7165 9.62402 12.7815 9.53613 12.7959C9.44824 12.8104 9.3457 12.8176 9.22852 12.8176C9.14062 12.8176 9.06738 12.8031 9.00879 12.7743C8.9502 12.7454 8.8916 12.731 8.83301 12.731L8.61328 12.9475C8.55469 13.0052 8.4375 13.0485 8.26172 13.0774C8.08594 13.1063 7.96875 13.063 7.91016 12.9475C7.85156 12.832 7.76367 12.7454 7.64648 12.6877C7.5293 12.6299 7.38281 12.6011 7.20703 12.6011C7.14844 12.6011 7.06787 12.5794 6.96533 12.5361C6.86279 12.4928 6.78223 12.4712 6.72363 12.4712C6.66504 12.4712 6.62842 12.4495 6.61377 12.4062C6.59912 12.3629 6.5625 12.3124 6.50391 12.2547C6.44531 12.1969 6.38672 12.1608 6.32812 12.1464C6.26953 12.132 6.24023 12.0959 6.24023 12.0381C6.24023 12.0381 6.21826 12.0165 6.17432 11.9732C6.13037 11.9299 6.0791 11.9082 6.02051 11.9082H5.18555C4.95117 11.9082 4.73877 11.9588 4.54834 12.0598C4.35791 12.1608 4.1748 12.2691 3.99902 12.3846C3.94043 12.4423 3.85986 12.4928 3.75732 12.5361C3.65479 12.5794 3.57422 12.6011 3.51562 12.6011C3.39844 12.6011 3.30322 12.6227 3.22998 12.666C3.15674 12.7093 3.06152 12.731 2.94434 12.731C2.65137 12.8464 2.3584 12.9691 2.06543 13.099C1.77246 13.2289 1.50879 13.3805 1.27441 13.5537C1.21582 13.6114 1.15723 13.6403 1.09863 13.6403C1.04004 13.6403 0.981445 13.6403 0.922852 13.6403C0.864258 13.6403 0.805664 13.662 0.74707 13.7053C0.688477 13.7486 0.629883 13.7702 0.571289 13.7702C0.688477 13.8857 0.783691 13.9651 0.856934 14.0084C0.930176 14.0517 1.02539 14.0445 1.14258 13.9867H1.40625C1.46484 14.0445 1.53809 14.1022 1.62598 14.1599C1.71387 14.2177 1.78711 14.2754 1.8457 14.3331C1.9043 14.3331 1.94824 14.3548 1.97754 14.3981C2.00684 14.4414 2.05078 14.463 2.10938 14.463C2.22656 14.5208 2.33643 14.593 2.43896 14.6796C2.5415 14.7662 2.59277 14.8961 2.59277 15.0693C2.59277 15.127 2.61475 15.1775 2.65869 15.2208C2.70264 15.2641 2.75391 15.2858 2.8125 15.2858H3.03223C3.03223 15.2858 3.03223 15.3074 3.03223 15.3507C3.03223 15.394 3.00293 15.4157 2.94434 15.4157C2.82715 15.4157 2.73193 15.4229 2.65869 15.4373C2.58545 15.4518 2.51953 15.5167 2.46094 15.6322H2.3291C2.21191 15.6322 2.09473 15.6105 1.97754 15.5672C1.86035 15.5239 1.74316 15.5023 1.62598 15.5023V15.2858C1.56738 15.2858 1.50146 15.2569 1.42822 15.1992C1.35498 15.1414 1.25977 15.1703 1.14258 15.2858L0.791016 15.6322C0.732422 15.6322 0.629883 15.6538 0.483398 15.6971C0.336914 15.7405 0.205078 15.791 0.0878906 15.8487C0.0292969 15.9353 0 15.9858 0 16.0003C0 16.0147 0.0292969 16.0508 0.0878906 16.1085C0.146484 16.1663 0.227051 16.2023 0.32959 16.2168C0.432129 16.2312 0.512695 16.2673 0.571289 16.325C0.512695 16.3828 0.483398 16.4405 0.483398 16.4982C0.483398 16.556 0.512695 16.5848 0.571289 16.5848L0.65918 16.6714C0.74707 16.6714 0.820312 16.6931 0.878906 16.7364C0.9375 16.7797 0.996094 16.8013 1.05469 16.8013H1.75781C1.81641 16.8013 1.875 16.7941 1.93359 16.7797C1.99219 16.7653 2.05078 16.7292 2.10938 16.6714C2.16797 16.6137 2.22656 16.5632 2.28516 16.5199C2.34375 16.4766 2.40234 16.4549 2.46094 16.4549H2.68066V16.5848C2.56348 16.6426 2.51953 16.7147 2.54883 16.8013C2.57812 16.8879 2.62207 16.9601 2.68066 17.0179C2.73926 17.1911 2.72461 17.3138 2.63672 17.3859C2.54883 17.4581 2.41699 17.4653 2.24121 17.4076C2.15332 17.4076 2.10205 17.4076 2.0874 17.4076C2.07275 17.4076 2.03613 17.4364 1.97754 17.4942C1.97754 17.5519 1.95557 17.6096 1.91162 17.6674C1.86768 17.7251 1.8457 17.7829 1.8457 17.8406L1.27441 17.6241C1.33301 17.7973 1.35498 17.9416 1.34033 18.0571C1.32568 18.1726 1.23047 18.2592 1.05469 18.3169V18.4468C0.996094 18.5046 0.952148 18.5839 0.922852 18.685C0.893555 18.786 0.849609 18.8654 0.791016 18.9231C0.908203 18.9809 0.98877 19.0386 1.03271 19.0963C1.07666 19.1541 1.04004 19.2407 0.922852 19.3562L1.40625 19.8325C1.40625 19.8325 1.42822 19.8397 1.47217 19.8541C1.51611 19.8686 1.56738 19.9046 1.62598 19.9624C1.68457 19.9624 1.74316 19.9768 1.80176 20.0057C1.86035 20.0345 1.91895 20.049 1.97754 20.049C2.03613 20.1356 2.09473 20.1789 2.15332 20.1789C2.21191 20.1789 2.24121 20.1356 2.24121 20.049C2.24121 20.049 2.24121 20.0345 2.24121 20.0057C2.24121 19.9768 2.27051 19.9624 2.3291 19.9624C2.50488 20.0779 2.56348 20.215 2.50488 20.3737C2.44629 20.5325 2.47559 20.6985 2.59277 20.8717C2.65137 20.814 2.70996 20.7779 2.76855 20.7635C2.82715 20.749 2.91504 20.7129 3.03223 20.6552C3.09082 20.6552 3.14941 20.6336 3.20801 20.5903C3.2666 20.547 3.3252 20.5253 3.38379 20.5253H3.64746C3.76465 20.4676 3.87451 20.4459 3.97705 20.4604C4.07959 20.4748 4.16016 20.5397 4.21875 20.6552C4.21875 20.6552 4.22607 20.6769 4.24072 20.7202C4.25537 20.7635 4.29199 20.7851 4.35059 20.7851H4.57031C4.51172 20.9006 4.46045 20.9872 4.4165 21.0449C4.37256 21.1027 4.35059 21.1604 4.35059 21.2181C4.35059 21.4202 4.29932 21.579 4.19678 21.6945C4.09424 21.8099 3.98438 21.9254 3.86719 22.0409H3.7793C3.57422 22.0986 3.43506 22.178 3.36182 22.279C3.28857 22.3801 3.22266 22.4595 3.16406 22.5172C3.10547 22.5749 3.06885 22.611 3.0542 22.6254C3.03955 22.6399 3.00293 22.6471 2.94434 22.6471H2.59277C2.53418 22.7048 2.47559 22.7842 2.41699 22.8853C2.3584 22.9863 2.2998 23.0657 2.24121 23.1234H2.3291C2.3877 23.1234 2.44629 23.1018 2.50488 23.0585C2.56348 23.0152 2.59277 22.9935 2.59277 22.9935L2.8125 22.7337C2.87109 22.7914 2.91504 22.8203 2.94434 22.8203C2.97363 22.8203 3.04688 22.7914 3.16406 22.7337C3.22266 22.7337 3.25928 22.7193 3.27393 22.6904C3.28857 22.6615 3.3252 22.6471 3.38379 22.6471C3.58887 22.6471 3.76465 22.611 3.91113 22.5388C4.05762 22.4667 4.16016 22.344 4.21875 22.1708C4.21875 22.1708 4.22607 22.1491 4.24072 22.1058C4.25537 22.0625 4.29199 22.0409 4.35059 22.0409C4.46777 21.9831 4.56299 21.9254 4.63623 21.8677C4.70947 21.8099 4.80469 21.7522 4.92188 21.6945L5.31738 21.348C5.37598 21.348 5.4126 21.3264 5.42725 21.2831C5.44189 21.2398 5.47852 21.2181 5.53711 21.2181C5.5957 21.1027 5.70557 21.0233 5.8667 20.98C6.02783 20.9367 6.1084 20.8284 6.1084 20.6552C6.22559 20.5975 6.28418 20.5397 6.28418 20.482C6.28418 20.4243 6.22559 20.3665 6.1084 20.3088C6.1084 20.3088 6.09375 20.3016 6.06445 20.2871C6.03516 20.2727 6.02051 20.2366 6.02051 20.1789C6.0791 20.1212 6.15967 20.0634 6.26221 20.0057C6.36475 19.9479 6.44531 19.8902 6.50391 19.8325C6.5625 19.8325 6.59912 19.8108 6.61377 19.7675C6.62842 19.7242 6.66504 19.6737 6.72363 19.616C6.72363 19.616 6.73096 19.5871 6.74561 19.5294C6.76025 19.4716 6.79688 19.4139 6.85547 19.3562C6.97266 19.2407 7.08984 19.1252 7.20703 19.0097C7.32422 18.8943 7.44141 18.7355 7.55859 18.5334L8.04199 18.7932H7.91016C7.73438 18.7355 7.60986 18.7283 7.53662 18.7716C7.46338 18.8149 7.42676 18.8943 7.42676 19.0097C7.42676 19.0675 7.40479 19.1252 7.36084 19.1829C7.31689 19.2407 7.29492 19.2984 7.29492 19.3562C7.23633 19.4139 7.22168 19.4716 7.25098 19.5294C7.28027 19.5871 7.38281 19.6448 7.55859 19.7026L7.20703 19.9624C7.32422 20.0201 7.41943 20.0418 7.49268 20.0273C7.56592 20.0129 7.66113 19.9479 7.77832 19.8325C7.89551 19.717 8.02734 19.616 8.17383 19.5294C8.32031 19.4428 8.51074 19.4283 8.74512 19.4861V19.1396C8.62793 19.0242 8.58398 18.9304 8.61328 18.8582C8.64258 18.786 8.71582 18.7211 8.83301 18.6633L9.31641 18.9231H9.58008C9.4043 18.9809 9.30176 19.0242 9.27246 19.053C9.24316 19.0819 9.25781 19.1541 9.31641 19.2696H9.44824C9.50684 19.2118 9.56543 19.1685 9.62402 19.1396C9.68262 19.1108 9.74121 19.1541 9.7998 19.2696H9.93164C9.99023 19.2696 10.0488 19.2407 10.1074 19.1829C10.166 19.1252 10.2246 19.0675 10.2832 19.0097C10.3418 18.952 10.437 18.9231 10.5688 18.9231C10.7007 18.9231 10.7959 18.952 10.8545 19.0097V19.1396L10.9863 19.2696C10.752 19.5582 10.6567 19.7314 10.7007 19.7892C10.7446 19.8469 10.7959 19.9335 10.8545 20.049C10.9717 20.1933 11.0522 20.2655 11.0962 20.2655C11.1401 20.2655 11.2207 20.1933 11.3379 20.049C11.3379 20.049 11.3599 20.0345 11.4038 20.0057C11.4478 19.9768 11.4697 19.9912 11.4697 20.049L11.5576 20.1789C11.5576 20.1789 11.5576 20.2005 11.5576 20.2438C11.5576 20.2871 11.5283 20.3088 11.4697 20.3088C11.4111 20.3665 11.3818 20.4026 11.3818 20.417C11.3818 20.4315 11.4404 20.4676 11.5576 20.5253C11.792 20.583 12.0044 20.6696 12.1948 20.7851C12.3853 20.9006 12.5391 21.0449 12.6562 21.2181H12.7441V21.0016L13.2275 21.2181C13.2275 21.1027 13.2056 21.0088 13.1616 20.9367C13.1177 20.8645 13.0957 20.7707 13.0957 20.6552C13.2129 20.7707 13.2861 20.8862 13.3154 21.0016C13.3447 21.1171 13.3594 21.2326 13.3594 21.348L13.2275 21.4779C13.2275 21.4779 13.2056 21.4707 13.1616 21.4563C13.1177 21.4419 13.0957 21.4058 13.0957 21.348V21.2181C12.9785 21.2759 12.9053 21.3408 12.876 21.413C12.8467 21.4852 12.8906 21.579 13.0078 21.6945C13.125 21.8099 13.1982 21.9254 13.2275 22.0409C13.2568 22.1563 13.3447 22.2429 13.4912 22.3007C13.4912 22.3007 13.4912 22.3151 13.4912 22.344C13.4912 22.3728 13.5205 22.3873 13.5791 22.3873C13.6963 22.2718 13.7109 22.1563 13.623 22.0409C13.5352 21.9254 13.5205 21.8099 13.5791 21.6945H13.7109V22.0409C13.8867 21.9831 13.9673 21.9037 13.9526 21.8027C13.938 21.7017 13.9307 21.5934 13.9307 21.4779C14.0479 21.5934 14.1064 21.7233 14.1064 21.8677C14.1064 22.012 14.0479 22.113 13.9307 22.1708C13.8135 22.2285 13.7549 22.3079 13.7549 22.4089C13.7549 22.51 13.7842 22.5894 13.8428 22.6471L14.1943 22.3873C14.3115 22.5605 14.3848 22.6615 14.4141 22.6904C14.4434 22.7193 14.5166 22.7337 14.6338 22.7337C14.5752 22.676 14.5239 22.6399 14.48 22.6254C14.436 22.611 14.4141 22.5749 14.4141 22.5172V22.3873H14.5459C14.6631 22.5028 14.729 22.6038 14.7437 22.6904C14.7583 22.777 14.6484 22.9213 14.4141 23.1234C14.4141 23.0657 14.3921 23.0007 14.3481 22.9286C14.3042 22.8564 14.2822 22.7914 14.2822 22.7337L14.1943 22.8636V22.9935C14.2529 23.109 14.2822 23.2028 14.2822 23.275C14.2822 23.3471 14.2529 23.441 14.1943 23.5564C14.1943 23.5564 14.209 23.5853 14.2383 23.643C14.2676 23.7008 14.2822 23.7585 14.2822 23.8162C14.2822 23.7585 14.3042 23.7008 14.3481 23.643C14.3921 23.5853 14.4141 23.5564 14.4141 23.5564L14.6338 23.6863C14.6338 23.6286 14.6411 23.5709 14.6558 23.5131C14.6704 23.4554 14.707 23.3977 14.7656 23.3399L15.0293 23.4698L15.1172 23.3399C15.1758 23.3399 15.2197 23.3616 15.249 23.4049C15.2783 23.4482 15.3223 23.4698 15.3809 23.4698C15.4395 23.5276 15.4834 23.5853 15.5127 23.643C15.542 23.7008 15.6152 23.7585 15.7324 23.8162C15.791 23.8162 15.8276 23.8595 15.8423 23.9461C15.8569 24.0328 15.8936 24.1049 15.9521 24.1627C16.0107 24.2204 16.0474 24.2998 16.062 24.4008C16.0767 24.5019 16.1133 24.5812 16.1719 24.639L16.5674 24.9854C16.5088 25.0431 16.4575 25.1009 16.4136 25.1586C16.3696 25.2163 16.377 25.2741 16.4355 25.3318V25.4184C16.4355 25.5339 16.4648 25.6061 16.5234 25.6349C16.582 25.6638 16.6699 25.6782 16.7871 25.6782C16.9043 25.6782 16.9922 25.7071 17.0508 25.7648C17.1094 25.8226 17.1387 25.9092 17.1387 26.0246C17.0215 26.0246 16.9116 26.003 16.8091 25.9597C16.7065 25.9164 16.626 25.8659 16.5674 25.8081C16.5088 25.7504 16.4502 25.7215 16.3916 25.7215C16.333 25.7215 16.2598 25.7504 16.1719 25.8081C16.3184 25.8659 16.4282 25.938 16.5015 26.0246C16.5747 26.1112 16.6699 26.1834 16.7871 26.2411C16.8457 26.2989 16.9043 26.3566 16.9629 26.4144C17.0215 26.4721 17.0801 26.501 17.1387 26.501C17.3145 26.5587 17.439 26.6381 17.5122 26.7391C17.5854 26.8402 17.666 26.9484 17.7539 27.0639C17.8125 27.2371 17.8711 27.4392 17.9297 27.6701C17.9883 27.901 18.0469 28.132 18.1055 28.3629L17.9736 28.4928C17.9736 28.666 17.959 28.8537 17.9297 29.0558C17.9004 29.2578 17.915 29.4455 17.9736 29.6187V30.0084C17.9736 30.1239 17.9663 30.2393 17.9517 30.3548C17.937 30.4703 17.9004 30.5858 17.8418 30.7012C17.8418 30.8744 17.8271 31.026 17.7979 31.1559C17.7686 31.2858 17.7832 31.4374 17.8418 31.6106C17.8418 31.7838 17.8711 31.957 17.9297 32.1302C17.9883 32.3034 18.0469 32.4477 18.1055 32.5632C18.1641 32.6787 18.2227 32.7725 18.2812 32.8447C18.3398 32.9168 18.3984 33.0107 18.457 33.1261C18.5156 33.1839 18.5742 33.2633 18.6328 33.3643C18.6914 33.4653 18.75 33.5447 18.8086 33.6025C18.9258 33.6602 19.0063 33.7468 19.0503 33.8623C19.0942 33.9777 19.0869 34.0932 19.0283 34.2087V34.2953C19.0869 34.4685 19.1968 34.6128 19.3579 34.7283C19.519 34.8438 19.6875 34.9304 19.8633 34.9881C19.9219 34.9881 19.9951 35.017 20.083 35.0747C20.1709 35.1325 20.2148 35.1902 20.2148 35.2479C20.2734 35.3057 20.3101 35.3634 20.3247 35.4211C20.3394 35.4789 20.376 35.5366 20.4346 35.5943C20.5225 35.6521 20.5737 35.7315 20.5884 35.8325C20.603 35.9335 20.6396 36.0129 20.6982 36.0707C20.7568 36.1861 20.8154 36.316 20.874 36.4604C20.9326 36.6047 20.9912 36.7491 21.0498 36.8934C21.1084 36.9511 21.167 37.0233 21.2256 37.1099C21.2842 37.1965 21.3428 37.2687 21.4014 37.3264C21.5186 37.4419 21.6064 37.5646 21.665 37.6945C21.7236 37.8244 21.7529 37.9759 21.7529 38.1491H21.4014C21.5186 38.2069 21.6357 38.2863 21.7529 38.3873C21.8701 38.4883 21.9873 38.5677 22.1045 38.6255C22.2217 38.7409 22.3242 38.842 22.4121 38.9286C22.5 39.0152 22.5146 39.1451 22.4561 39.3183V39.4482C22.5732 39.6214 22.7197 39.7946 22.8955 39.9678C23.0713 40.141 23.2471 40.3142 23.4229 40.4874L23.5547 40.3575C23.6133 40.2421 23.6206 40.1555 23.5767 40.0977C23.5327 40.04 23.4814 39.9823 23.4229 39.9245C23.4229 39.9245 23.3936 39.9029 23.335 39.8596C23.2764 39.8163 23.2178 39.7946 23.1592 39.7946L23.0713 39.6647C23.0713 39.607 23.0493 39.542 23.0054 39.4699C22.9614 39.3977 22.9395 39.3039 22.9395 39.1884C22.8809 39.0152 22.8003 38.8275 22.6978 38.6255C22.5952 38.4234 22.4854 38.2213 22.3682 38.0192C22.3096 37.9038 22.2217 37.7883 22.1045 37.6728C21.9873 37.5574 21.958 37.413 22.0166 37.2398C22.0166 37.2398 22.0093 37.2182 21.9946 37.1749C21.98 37.1316 21.9434 37.1099 21.8848 37.1099C21.709 37.0522 21.5845 36.9656 21.5112 36.8501C21.438 36.7346 21.4014 36.6191 21.4014 36.5037C21.4014 36.3882 21.3794 36.2944 21.3354 36.2222C21.2915 36.15 21.2695 36.0562 21.2695 35.9408C21.3281 35.9408 21.3867 35.9624 21.4453 36.0057C21.5039 36.049 21.5625 36.0707 21.6211 36.0707C21.6797 36.0707 21.7456 36.0923 21.8188 36.1356C21.8921 36.1789 21.958 36.2294 22.0166 36.2872C22.0752 36.4604 22.1118 36.6552 22.1265 36.8717C22.1411 37.0883 22.1777 37.2831 22.2363 37.4563C22.2949 37.3986 22.3535 37.3914 22.4121 37.4347C22.4707 37.478 22.5293 37.5285 22.5879 37.5862C22.6465 37.7017 22.7417 37.7955 22.8735 37.8677C23.0054 37.9399 23.0713 38.0337 23.0713 38.1491L23.1592 38.2791C23.2178 38.3368 23.2764 38.3945 23.335 38.4523C23.3936 38.51 23.4229 38.5677 23.4229 38.6255C23.3643 38.7409 23.3789 38.8492 23.4668 38.9502C23.5547 39.0513 23.6572 39.1307 23.7744 39.1884C23.7744 39.1884 23.7964 39.1956 23.8403 39.21C23.8843 39.2245 23.9062 39.2606 23.9062 39.3183C24.1992 39.6647 24.4629 39.9967 24.6973 40.3142C24.9316 40.6318 25.1367 41.0071 25.3125 41.4401V42.003C25.4883 42.003 25.6201 42.0535 25.708 42.1546C25.7959 42.2556 25.8984 42.3639 26.0156 42.4793C26.0742 42.5948 26.1621 42.6886 26.2793 42.7608C26.3965 42.833 26.5137 42.8979 26.6309 42.9557C26.6895 43.0134 26.748 43.0495 26.8066 43.0639C26.8652 43.0783 26.9531 43.1144 27.0703 43.1722C27.1289 43.2299 27.1948 43.266 27.2681 43.2804C27.3413 43.2948 27.4365 43.3021 27.5537 43.3021C27.7295 43.3021 27.8833 43.3454 28.0151 43.432C28.147 43.5186 28.2715 43.5907 28.3887 43.6485C28.5059 43.764 28.6084 43.8289 28.6963 43.8433C28.7842 43.8578 28.916 43.8361 29.0918 43.7784C29.1504 43.7784 29.209 43.764 29.2676 43.7351C29.3262 43.7062 29.3848 43.7206 29.4434 43.7784C29.5605 43.8361 29.6777 43.8939 29.7949 43.9516C29.9121 44.0093 30 44.0671 30.0586 44.1248C30.1172 44.1248 30.1538 44.1465 30.1685 44.1898C30.1831 44.2331 30.2197 44.2836 30.2783 44.3413C30.3369 44.1681 30.4102 44.031 30.498 43.9299C30.5859 43.8289 30.7471 43.8073 30.9814 43.865C30.9814 43.865 31.0034 43.8433 31.0474 43.8C31.0913 43.7567 31.1133 43.7062 31.1133 43.6485C31.1133 43.6485 31.106 43.6268 31.0913 43.5835C31.0767 43.5402 31.04 43.5186 30.9814 43.5186C30.8643 43.4608 30.8203 43.3815 30.8496 43.2804C30.8789 43.1794 30.9229 43.1 30.9814 43.0423H31.5967C31.6553 43.0423 31.6919 43.0423 31.7065 43.0423C31.7212 43.0423 31.7578 43.0134 31.8164 42.9557C31.875 42.8979 31.9409 42.8474 32.0142 42.8041C32.0874 42.7608 32.1826 42.768 32.2998 42.8257V41.8731C32.2998 41.8154 32.3218 41.7576 32.3657 41.6999C32.4097 41.6422 32.4609 41.5844 32.5195 41.5267L32.7832 41.3102C32.7832 41.3102 32.7759 41.2885 32.7612 41.2452C32.7466 41.2019 32.71 41.1803 32.6514 41.1803H32.2998C32.1826 41.1803 32.0874 41.1875 32.0142 41.2019C31.9409 41.2164 31.8311 41.2524 31.6846 41.3102C31.626 41.3679 31.5527 41.4257 31.4648 41.4834C31.377 41.5411 31.3037 41.5989 31.2451 41.6566C31.3037 41.7721 31.3257 41.8875 31.311 42.003C31.2964 42.1185 31.2305 42.234 31.1133 42.3494C31.0547 42.4072 30.9961 42.4649 30.9375 42.5226C30.8789 42.5804 30.8203 42.6092 30.7617 42.6092C30.7031 42.6092 30.6519 42.5948 30.6079 42.5659C30.564 42.5371 30.542 42.5515 30.542 42.6092C30.4834 42.667 30.4028 42.6814 30.3003 42.6525C30.1978 42.6237 30.1172 42.6381 30.0586 42.6958C29.8828 42.7536 29.729 42.7824 29.5972 42.7824C29.4653 42.7824 29.3408 42.7247 29.2236 42.6092L29.0039 42.3494C28.916 42.2917 28.8721 42.234 28.8721 42.1762C28.8721 42.1185 28.8721 42.0607 28.8721 42.003C28.8135 41.8875 28.7329 41.7504 28.6304 41.5916C28.5278 41.4329 28.4473 41.2957 28.3887 41.1803C28.3301 40.8916 28.3008 40.6029 28.3008 40.3142C28.3008 40.0256 28.3301 39.7369 28.3887 39.4482V38.4956C28.3887 38.3801 28.418 38.2646 28.4766 38.1491C28.5352 38.0337 28.623 37.9182 28.7402 37.8027C28.7988 37.745 28.8574 37.6656 28.916 37.5646C28.9746 37.4635 29.0332 37.3841 29.0918 37.3264C29.209 37.2687 29.3042 37.2109 29.3774 37.1532C29.4507 37.0955 29.5166 37.0377 29.5752 36.98C29.6338 36.9223 29.6997 36.8717 29.7729 36.8284C29.8462 36.7851 29.9414 36.7635 30.0586 36.7635C30.2344 36.7635 30.3882 36.7996 30.52 36.8717C30.6519 36.9439 30.7764 37.0666 30.8936 37.2398C30.9521 37.3553 31.0474 37.413 31.1792 37.413C31.311 37.413 31.4062 37.3553 31.4648 37.2398L31.5967 37.3264C31.5967 37.3264 31.6113 37.3264 31.6406 37.3264C31.6699 37.3264 31.6846 37.2975 31.6846 37.2398V37.1099C31.626 36.9367 31.626 36.814 31.6846 36.7418C31.7432 36.6697 31.8311 36.6336 31.9482 36.6336H32.2998C32.2998 36.6336 32.3071 36.6552 32.3218 36.6985C32.3364 36.7418 32.373 36.7635 32.4316 36.7635C32.4902 36.7635 32.5488 36.7563 32.6074 36.7418C32.666 36.7274 32.7246 36.6913 32.7832 36.6336C32.9004 36.5758 32.9956 36.5686 33.0688 36.6119C33.1421 36.6552 33.208 36.7058 33.2666 36.7635L33.3545 36.8934C33.3545 36.9511 33.3838 36.98 33.4424 36.98C33.501 36.98 33.5596 36.9511 33.6182 36.8934L33.7061 36.7635C33.8232 36.7058 33.8965 36.6769 33.9258 36.6769C33.9551 36.6769 33.999 36.7058 34.0576 36.7635C34.1162 36.8212 34.1602 36.8717 34.1895 36.915C34.2188 36.9583 34.2627 36.98 34.3213 36.98C34.3213 37.0377 34.3359 37.0955 34.3652 37.1532C34.3945 37.2109 34.4092 37.2687 34.4092 37.3264C34.4092 37.4419 34.4165 37.5574 34.4312 37.6728C34.4458 37.7883 34.4824 37.8749 34.541 37.9326C34.5996 38.1058 34.6802 38.2574 34.7827 38.3873C34.8853 38.5172 34.9658 38.6688 35.0244 38.842C35.0244 38.8997 35.0464 38.9358 35.0903 38.9502C35.1343 38.9647 35.1855 38.9719 35.2441 38.9719H35.376V37.8027C35.376 37.745 35.354 37.6656 35.3101 37.5646C35.2661 37.4635 35.2441 37.3841 35.2441 37.3264C35.2441 37.2687 35.2295 37.2109 35.2002 37.1532C35.1709 37.0955 35.1562 37.0377 35.1562 36.98C35.0391 36.6913 34.9731 36.4099 34.9585 36.1356C34.9438 35.8614 35.083 35.6088 35.376 35.3778C35.4932 35.2335 35.625 35.1252 35.7715 35.0531C35.918 34.9809 36.0205 34.8871 36.0791 34.7716C36.0791 34.7139 36.1011 34.6778 36.145 34.6634C36.189 34.6489 36.2109 34.6128 36.2109 34.5551C36.2109 34.4974 36.2329 34.4252 36.2769 34.3386C36.3208 34.252 36.3721 34.2087 36.4307 34.2087C36.5479 34.1509 36.6431 34.086 36.7163 34.0138C36.7896 33.9417 36.8555 33.8767 36.9141 33.819C36.9727 33.9633 37.0532 33.9922 37.1558 33.9056C37.2583 33.819 37.3389 33.7179 37.3975 33.6025C37.3389 33.6025 37.2729 33.5808 37.1997 33.5375C37.1265 33.4942 37.1484 33.4437 37.2656 33.3859C37.2656 33.3859 37.2583 33.3571 37.2437 33.2993C37.229 33.2416 37.1924 33.1839 37.1338 33.1261C37.1338 33.1261 37.1118 33.1117 37.0679 33.0828C37.0239 33.054 36.9727 33.0395 36.9141 33.0395C37.0312 32.9241 37.0532 32.8086 36.98 32.6931C36.9067 32.5776 36.8115 32.491 36.6943 32.4333C36.8115 32.3756 36.8774 32.3323 36.8921 32.3034C36.9067 32.2745 36.9141 32.2024 36.9141 32.0869V31.7405C36.9141 31.7405 36.9214 31.7188 36.936 31.6755C36.9507 31.6322 36.9873 31.6106 37.0459 31.6106C37.0459 31.8415 37.0532 32.0075 37.0679 32.1085C37.0825 32.2096 37.1484 32.3178 37.2656 32.4333L37.3975 31.8704C37.4561 31.8704 37.4927 31.8632 37.5073 31.8487C37.522 31.8343 37.5586 31.7982 37.6172 31.7405C37.6758 31.6827 37.7344 31.625 37.793 31.5673C37.8516 31.5095 37.8809 31.4518 37.8809 31.3941C37.9395 31.2209 38.0127 31.0982 38.1006 31.026C38.1885 30.9538 38.3496 30.9177 38.584 30.9177C38.6426 30.9177 38.6938 30.8961 38.7378 30.8528C38.7817 30.8095 38.8037 30.7878 38.8037 30.7878V30.7012L38.2324 30.7878C38.291 30.6724 38.3496 30.6074 38.4082 30.593C38.4668 30.5785 38.5547 30.5713 38.6719 30.5713C38.7305 30.5713 38.7964 30.5497 38.8696 30.5064C38.9429 30.4631 39.0088 30.4414 39.0674 30.4414L39.2871 30.5713V29.6187C39.2871 29.561 39.3091 29.5032 39.353 29.4455C39.397 29.3877 39.4482 29.33 39.5068 29.2723C39.624 29.2145 39.7412 29.1712 39.8584 29.1424C39.9756 29.1135 40.0635 29.0413 40.1221 28.9259H40.2539C40.3711 29.0413 40.4663 29.0702 40.5396 29.0125C40.6128 28.9547 40.708 28.897 40.8252 28.8393C40.8838 28.7815 40.9497 28.7238 41.0229 28.666C41.0962 28.6083 41.1914 28.5794 41.3086 28.5794C41.4258 28.5217 41.521 28.464 41.5942 28.4062C41.6675 28.3485 41.7334 28.2908 41.792 28.233L41.8799 28.1031L41.792 28.3629L42.1436 28.4928L42.0117 28.5794C41.8359 28.5794 41.6895 28.63 41.5723 28.731C41.4551 28.832 41.3672 28.9403 41.3086 29.0558C41.25 29.1135 41.2207 29.1929 41.2207 29.2939C41.2207 29.395 41.2793 29.4743 41.3965 29.5321C41.4551 29.5898 41.521 29.597 41.5942 29.5537C41.6675 29.5104 41.7334 29.4599 41.792 29.4022C41.9092 29.2867 42.0117 29.1785 42.0996 29.0774C42.1875 28.9764 42.3193 28.9259 42.4951 28.9259L42.583 28.8393C42.6416 28.7815 42.7002 28.7238 42.7588 28.666C42.8174 28.6083 42.876 28.5794 42.9346 28.5794C43.0811 28.5794 43.1836 28.5361 43.2422 28.4495C43.3008 28.3629 43.3594 28.2908 43.418 28.233C43.4766 28.233 43.5132 28.2114 43.5278 28.1681C43.5425 28.1248 43.5498 28.1031 43.5498 28.1031C43.5498 28.0454 43.5278 27.9877 43.4839 27.9299C43.4399 27.8722 43.418 27.7856 43.418 27.6701C43.3594 27.7856 43.2861 27.8722 43.1982 27.9299C43.1104 27.9877 43.0664 28.0454 43.0664 28.1031C43.0664 28.1609 43.0444 28.2042 43.0005 28.233C42.9565 28.2619 42.9053 28.3052 42.8467 28.3629C42.7295 28.3629 42.5977 28.3629 42.4512 28.3629C42.3047 28.3629 42.2021 28.2763 42.1436 28.1031L41.792 27.7567C41.6455 27.6412 41.5723 27.5258 41.5723 27.4103C41.5723 27.2948 41.6016 27.1793 41.6602 27.0639L41.3965 27.1938C41.3965 27.136 41.4185 27.1 41.4624 27.0855C41.5063 27.0711 41.5283 27.0206 41.5283 26.934V26.5876C41.5283 26.5298 41.4844 26.4793 41.3965 26.436C41.3086 26.3927 41.2354 26.371 41.1768 26.371C41.0596 26.4288 40.9204 26.4865 40.7593 26.5443C40.5981 26.602 40.459 26.6597 40.3418 26.7175C40.2246 26.7752 40.1147 26.8762 40.0122 27.0206C39.9097 27.1649 39.8291 27.266 39.7705 27.3237C39.4775 27.6124 39.2944 27.8 39.2212 27.8866C39.1479 27.9732 39.0527 28.0454 38.9355 28.1031L39.2871 27.4103L39.5068 27.1938C39.624 27.0783 39.7119 26.9701 39.7705 26.869C39.8291 26.768 39.9463 26.7175 40.1221 26.7175L40.2539 26.5876C40.3125 26.4721 40.3784 26.3855 40.4517 26.3277C40.5249 26.27 40.6494 26.2123 40.8252 26.1545C41.1182 26.1545 41.4331 26.1401 41.77 26.1112C42.1069 26.0824 42.4219 26.0968 42.7148 26.1545C42.9492 26.1545 43.1396 26.1185 43.2861 26.0463C43.4326 25.9741 43.5645 25.8514 43.6816 25.6782C43.7402 25.5627 43.7988 25.4906 43.8574 25.4617C43.916 25.4328 44.0039 25.4184 44.1211 25.4184C44.1797 25.4184 44.2383 25.4184 44.2969 25.4184C44.3555 25.4184 44.4287 25.3895 44.5166 25.3318L44.8682 24.9854V24.7256ZM31.333 1.5158L31.1133 1.73231H31.4648C31.4648 1.73231 31.4575 1.75396 31.4429 1.79726C31.4282 1.84056 31.3916 1.86222 31.333 1.86222C31.2744 1.97769 31.2524 2.04986 31.2671 2.07872C31.2817 2.10759 31.3477 2.15089 31.4648 2.20863C31.4648 2.20863 31.4868 2.21585 31.5308 2.23028C31.5747 2.24471 31.5967 2.2808 31.5967 2.33854C31.7139 2.45401 31.853 2.53339 32.0142 2.57669C32.1753 2.62 32.3438 2.58391 32.5195 2.46844C32.5781 2.46844 32.6221 2.44679 32.6514 2.40349C32.6807 2.36019 32.7246 2.33854 32.7832 2.33854V2.55505C32.7832 2.55505 32.7832 2.57669 32.7832 2.62C32.7832 2.6633 32.8125 2.68495 32.8711 2.68495C32.9883 2.68495 33.1128 2.7066 33.2446 2.7499C33.3765 2.79321 33.5303 2.81485 33.7061 2.81485C33.7646 2.81485 33.8086 2.80764 33.8379 2.79321C33.8672 2.77877 33.9111 2.74269 33.9697 2.68495C34.0283 2.62721 34.0869 2.59113 34.1455 2.57669C34.2041 2.56226 34.2627 2.55505 34.3213 2.55505C34.5557 2.61278 34.8193 2.59835 35.1123 2.51174C35.4053 2.42514 35.6104 2.29523 35.7275 2.12202C35.7861 2.2375 35.8081 2.33854 35.7935 2.42514C35.7788 2.51174 35.6836 2.55505 35.5078 2.55505C35.332 2.61278 35.1562 2.65608 34.9805 2.68495C34.8047 2.71382 34.6582 2.75712 34.541 2.81485C34.4824 2.81485 34.4458 2.82929 34.4312 2.85816C34.4165 2.88702 34.3799 2.90146 34.3213 2.90146C34.3213 2.95919 34.3359 3.00249 34.3652 3.03136C34.3945 3.06023 34.4092 3.10353 34.4092 3.16127C34.4678 3.21901 34.5483 3.27674 34.6509 3.33448C34.7534 3.39221 34.834 3.44995 34.8926 3.50768C34.7754 3.50768 34.6509 3.49325 34.519 3.46438C34.3872 3.43552 34.3213 3.36335 34.3213 3.24788C34.1455 3.07467 33.9624 2.95919 33.772 2.90146C33.5815 2.84372 33.3691 2.81485 33.1348 2.81485C33.0176 2.81485 32.9297 2.83651 32.8711 2.87981C32.8125 2.92311 32.7832 2.97363 32.7832 3.03136C32.7832 3.14684 32.8125 3.25509 32.8711 3.35613C32.9297 3.45716 33.0176 3.50768 33.1348 3.50768C33.1934 3.50768 33.2666 3.52934 33.3545 3.57264C33.4424 3.61594 33.4863 3.66646 33.4863 3.72419C33.6035 3.8974 33.728 4.04174 33.8599 4.15721C33.9917 4.27268 34.1455 4.35929 34.3213 4.41702L34.4092 4.54693H34.0576C33.9404 4.54693 33.8452 4.52528 33.772 4.48198C33.6987 4.43867 33.6035 4.38816 33.4863 4.33042C33.3105 4.27268 33.1201 4.26546 32.915 4.30877C32.71 4.35207 32.5488 4.43146 32.4316 4.54693C32.373 4.60466 32.3364 4.6624 32.3218 4.72013C32.3071 4.77787 32.2998 4.83561 32.2998 4.89334C32.2998 4.89334 32.3438 4.91499 32.4316 4.9583C32.5195 5.0016 32.5928 5.02325 32.6514 5.02325C32.71 5.02325 32.7759 5.0016 32.8491 4.9583C32.9224 4.91499 33.0176 4.89334 33.1348 4.89334C33.1934 4.89334 33.2446 4.87169 33.2886 4.82839C33.3325 4.78509 33.3545 4.76344 33.3545 4.76344C33.3545 4.85004 33.3398 4.91499 33.3105 4.9583C33.2812 5.0016 33.2666 5.02325 33.2666 5.02325C33.208 5.08099 33.1787 5.13872 33.1787 5.19646C33.1787 5.25419 33.208 5.31193 33.2666 5.36966C33.3252 5.4274 33.3838 5.46349 33.4424 5.47792C33.501 5.49235 33.5596 5.52843 33.6182 5.58617V5.84598C33.6182 5.84598 33.5889 5.86042 33.5303 5.88929C33.4717 5.91815 33.4131 5.90372 33.3545 5.84598C33.2959 5.96146 33.2373 6.00476 33.1787 5.97589C33.1201 5.94702 33.0615 5.90372 33.0029 5.84598C32.9443 5.73051 32.8564 5.64391 32.7393 5.58617C32.6221 5.52843 32.4756 5.49957 32.2998 5.49957C32.2412 5.49957 32.1899 5.50679 32.146 5.52122C32.1021 5.53565 32.0801 5.60061 32.0801 5.71608C32.0801 5.77382 32.1167 5.8099 32.1899 5.82433C32.2632 5.83877 32.2998 5.87485 32.2998 5.93259C32.3584 5.99032 32.395 6.02641 32.4097 6.04084C32.4243 6.05527 32.4609 6.06249 32.5195 6.06249C32.4609 6.06249 32.4097 6.08414 32.3657 6.12745C32.3218 6.17075 32.2998 6.1924 32.2998 6.1924C32.1826 6.25013 32.0654 6.28622 31.9482 6.30065C31.8311 6.31509 31.7139 6.35117 31.5967 6.40891C31.5381 6.40891 31.5015 6.43777 31.4868 6.49551C31.4722 6.55325 31.4648 6.61098 31.4648 6.66872C31.4648 6.72646 31.4868 6.75532 31.5308 6.75532C31.5747 6.75532 31.626 6.75532 31.6846 6.75532H32.4316C32.5488 6.75532 32.644 6.76254 32.7173 6.77697C32.7905 6.7914 32.8857 6.82749 33.0029 6.88523C33.1201 6.94296 33.2227 6.97183 33.3105 6.97183C33.3984 6.97183 33.501 6.94296 33.6182 6.88523L33.7061 6.75532H34.8047C34.8047 6.75532 34.8193 6.76254 34.8486 6.77697C34.8779 6.7914 34.8926 6.82749 34.8926 6.88523C35.0098 7.0007 35.127 7.05843 35.2441 7.05843C35.3613 7.05843 35.4785 7.0007 35.5957 6.88523C35.6543 6.82749 35.7129 6.7914 35.7715 6.77697C35.8301 6.76254 35.9033 6.75532 35.9912 6.75532C36.0498 6.75532 36.1011 6.73367 36.145 6.69037C36.189 6.64707 36.2109 6.59655 36.2109 6.53881C36.2109 6.48108 36.2036 6.42334 36.189 6.3656C36.1743 6.30787 36.1377 6.25013 36.0791 6.1924C36.0205 6.1924 35.9619 6.21405 35.9033 6.25735C35.8447 6.30065 35.7861 6.3223 35.7275 6.3223H35.5957C35.5371 6.17796 35.4565 6.09858 35.354 6.08414C35.2515 6.06971 35.1416 6.06249 35.0244 6.06249H34.6729C34.6143 6.06249 34.5703 6.04084 34.541 5.99754C34.5117 5.95424 34.4678 5.93259 34.4092 5.93259C34.4092 5.87485 34.4385 5.84598 34.4971 5.84598C34.5557 5.84598 34.6143 5.84598 34.6729 5.84598H35.5957C35.7715 5.84598 35.874 5.81712 35.9033 5.75938C35.9326 5.70164 35.918 5.61504 35.8594 5.49957C35.8594 5.44183 35.8667 5.3841 35.8813 5.32636C35.896 5.26863 35.9619 5.23976 36.0791 5.23976H36.5625C36.6211 5.23976 36.6724 5.23976 36.7163 5.23976C36.7603 5.23976 36.7822 5.21089 36.7822 5.15315C36.8408 5.03768 36.8994 4.93665 36.958 4.85004C37.0166 4.76344 37.0459 4.6624 37.0459 4.54693C37.1045 4.48919 37.1411 4.42424 37.1558 4.35207C37.1704 4.2799 37.207 4.18608 37.2656 4.07061C37.1484 3.95514 36.9873 3.92627 36.7822 3.984C36.5771 4.04174 36.3867 4.04174 36.2109 3.984C36.2109 3.984 36.2329 3.97679 36.2769 3.96235C36.3208 3.94792 36.3428 3.91183 36.3428 3.8541C36.5186 3.79636 36.6724 3.74585 36.8042 3.70254C36.936 3.65924 37.0898 3.66646 37.2656 3.72419C37.4414 3.72419 37.5439 3.71698 37.5732 3.70254C37.6025 3.68811 37.6172 3.62316 37.6172 3.50768H38.1006C38.335 3.56542 38.4814 3.57985 38.54 3.55099C38.5986 3.52212 38.6865 3.39221 38.8037 3.16127C38.8623 3.10353 38.9062 3.0458 38.9355 2.98806C38.9648 2.93033 39.0381 2.90146 39.1553 2.90146C39.2725 2.90146 39.375 2.87981 39.4629 2.83651C39.5508 2.79321 39.6533 2.74269 39.7705 2.68495C40.0049 2.56948 40.2466 2.43957 40.4956 2.29523C40.7446 2.15089 41.0156 2.04986 41.3086 1.99212H41.3965C41.3965 1.99212 41.4185 1.96325 41.4624 1.90552C41.5063 1.84778 41.5283 1.79005 41.5283 1.73231C41.4697 1.73231 41.4331 1.71788 41.4185 1.68901C41.4038 1.66014 41.3672 1.64571 41.3086 1.64571H40.2539C40.3711 1.53024 40.5029 1.45807 40.6494 1.4292C40.7959 1.40033 40.9277 1.38589 41.0449 1.38589C41.3379 1.44363 41.5942 1.41476 41.814 1.29929C42.0337 1.18382 42.2607 1.06835 42.4951 0.952877C42.5537 0.952877 42.5903 0.931225 42.605 0.887924C42.6196 0.844624 42.6562 0.822971 42.7148 0.822971V0.693066L42.583 0.56316H42.3633C42.2461 0.56316 42.1362 0.555943 42.0337 0.541508C41.9312 0.527077 41.8506 0.462124 41.792 0.346653L41.6602 0.216747C41.543 0.216747 41.4258 0.202312 41.3086 0.173443C41.1914 0.144577 41.0742 0.130142 40.957 0.130142C40.8398 0.187878 40.7227 0.223961 40.6055 0.238396C40.4883 0.252831 40.3711 0.288914 40.2539 0.346653C40.2539 0.288914 40.2686 0.252831 40.2979 0.238396C40.3271 0.223961 40.3418 0.187878 40.3418 0.130142C40.3418 0.130142 40.3271 0.122925 40.2979 0.10849C40.2686 0.094059 40.2539 0.057972 40.2539 0.000236511H40.1221C40.0049 0.000236511 39.9316 0.0218887 39.9023 0.0651894C39.873 0.10849 39.8291 0.130142 39.7705 0.130142C39.7705 0.187878 39.7266 0.216747 39.6387 0.216747C39.5508 0.216747 39.5068 0.216747 39.5068 0.216747C39.3896 0.216747 39.2725 0.202312 39.1553 0.173443C39.0381 0.144577 38.9209 0.130142 38.8037 0.130142C38.6865 0.187878 38.5693 0.216747 38.4521 0.216747C38.335 0.216747 38.2178 0.216747 38.1006 0.216747H37.2656C37.207 0.216747 37.1484 0.216747 37.0898 0.216747C37.0312 0.216747 36.9727 0.187878 36.9141 0.130142C36.8555 0.0724068 36.8042 0.0435371 36.7603 0.0435371C36.7163 0.0435371 36.6943 0.0724068 36.6943 0.130142C36.6357 0.245613 36.5552 0.288914 36.4526 0.260048C36.3501 0.231178 36.2695 0.187878 36.2109 0.130142C36.0352 0.0724068 35.8813 0.0435371 35.7495 0.0435371C35.6177 0.0435371 35.4932 0.0724068 35.376 0.130142C35.4346 0.245613 35.4419 0.310566 35.3979 0.325001C35.354 0.339436 35.2734 0.346653 35.1562 0.346653C35.0391 0.346653 34.9658 0.353867 34.9365 0.368301C34.9072 0.382736 34.8926 0.447689 34.8926 0.56316V0.693066H34.3213C34.2627 0.866272 34.1895 0.967312 34.1016 0.996178C34.0137 1.02505 33.8818 1.01061 33.7061 0.952877H33.6182C33.5596 0.895142 33.4717 0.859055 33.3545 0.844624C33.2373 0.830189 33.1201 0.822971 33.0029 0.822971V1.03948L32.6514 1.16938C32.6514 1.22712 32.644 1.27764 32.6294 1.32094C32.6147 1.36424 32.5781 1.38589 32.5195 1.38589C32.4609 1.44363 32.4023 1.45807 32.3438 1.4292C32.2852 1.40033 32.2266 1.38589 32.168 1.38589C32.1094 1.32816 32.0361 1.28486 31.9482 1.25599C31.8604 1.22712 31.7725 1.24155 31.6846 1.29929L31.333 1.64571C31.1572 1.58797 30.9814 1.56632 30.8057 1.58075C30.6299 1.59519 30.542 1.68901 30.542 1.86222C30.835 1.63127 31.0107 1.50137 31.0693 1.4725C31.1279 1.44363 31.2158 1.45807 31.333 1.5158ZM40.6934 15.4157C40.8105 15.4734 40.9277 15.5312 41.0449 15.5889C41.1621 15.6466 41.25 15.7332 41.3086 15.8487C41.3672 15.9353 41.4038 16.0075 41.4185 16.0652C41.4331 16.1229 41.4697 16.1807 41.5283 16.2384C41.5283 16.2384 41.5503 16.2529 41.5942 16.2817C41.6382 16.3106 41.6602 16.2962 41.6602 16.2384C41.7188 16.1807 41.7773 16.1374 41.8359 16.1085C41.8945 16.0796 41.9531 16.0363 42.0117 15.9786C42.0117 15.9209 42.041 15.8631 42.0996 15.8054C42.1582 15.7477 42.2461 15.6899 42.3633 15.6322C42.4219 15.5745 42.4878 15.5167 42.561 15.459C42.6343 15.4013 42.6416 15.3435 42.583 15.2858C42.583 15.228 42.5684 15.1487 42.5391 15.0476C42.5098 14.9466 42.4072 14.8672 42.2314 14.8095C42.1729 14.8095 42.1436 14.7878 42.1436 14.7445C42.1436 14.7012 42.1436 14.6507 42.1436 14.593C42.1436 14.4775 42.085 14.3692 41.9678 14.2682C41.8506 14.1672 41.7041 14.1166 41.5283 14.1166C41.4111 14.1166 41.2939 14.095 41.1768 14.0517C41.0596 14.0084 40.9424 13.9579 40.8252 13.9001C40.7666 13.9001 40.73 13.8929 40.7153 13.8785C40.7007 13.864 40.6641 13.828 40.6055 13.7702C40.5469 13.7125 40.4663 13.6764 40.3638 13.662C40.2612 13.6475 40.1807 13.6114 40.1221 13.5537C40.0635 13.496 40.0269 13.4382 40.0122 13.3805C39.9976 13.3228 39.9902 13.265 39.9902 13.2073H40.3418C40.4004 13.2073 40.4443 13.1856 40.4736 13.1423C40.5029 13.099 40.5469 13.0774 40.6055 13.0774L40.4736 12.9475H40.2539C40.2539 12.9475 40.2319 12.9403 40.188 12.9258C40.144 12.9114 40.1221 12.8753 40.1221 12.8176C40.1221 12.8176 40.1221 12.8031 40.1221 12.7743C40.1221 12.7454 40.166 12.731 40.2539 12.731C40.3711 12.6732 40.4297 12.6155 40.4297 12.5578C40.4297 12.5 40.4004 12.4423 40.3418 12.3846C40.2832 12.3268 40.2246 12.2835 40.166 12.2547C40.1074 12.2258 40.0488 12.2691 39.9902 12.3846H39.8584C39.8584 12.3268 39.8657 12.2691 39.8804 12.2114C39.895 12.1536 39.9316 12.1247 39.9902 12.1247C40.0488 12.0093 40.0562 11.9371 40.0122 11.9082C39.9683 11.8794 39.8877 11.8361 39.7705 11.7783H39.4189C39.3604 11.7783 39.3018 11.7711 39.2432 11.7567C39.1846 11.7422 39.1553 11.7062 39.1553 11.6484V11.5618C39.0381 11.5041 38.9355 11.5402 38.8477 11.6701C38.7598 11.8 38.6279 11.7928 38.4521 11.6484C38.5107 11.5907 38.5693 11.5546 38.6279 11.5402C38.6865 11.5257 38.7451 11.4897 38.8037 11.4319C38.8623 11.3742 38.8989 11.3237 38.9136 11.2804C38.9282 11.2371 38.9355 11.2154 38.9355 11.2154L38.6719 11.0855C38.6133 11.0855 38.5547 11.1072 38.4961 11.1505C38.4375 11.1938 38.3496 11.2154 38.2324 11.2154V11.302C38.1738 11.2443 38.1152 11.1865 38.0566 11.1288C37.998 11.0711 37.9688 11.0133 37.9688 10.9556C37.9688 10.8979 37.9468 10.8473 37.9028 10.804C37.8589 10.7607 37.8076 10.7391 37.749 10.7391C37.6904 10.7391 37.6392 10.7174 37.5952 10.6741C37.5513 10.6308 37.5293 10.5803 37.5293 10.5226C37.5293 10.4648 37.5 10.4071 37.4414 10.3494C37.3828 10.2916 37.3242 10.2628 37.2656 10.2628C37.207 10.2628 37.1265 10.2411 37.0239 10.1978C36.9214 10.1545 36.8115 10.1329 36.6943 10.1329H36.5625C36.4453 10.1906 36.3574 10.2556 36.2988 10.3277C36.2402 10.3999 36.2109 10.4937 36.2109 10.6092H36.0791L35.5957 10.3927L35.0244 10.7391V10.5226C35.083 10.3205 35.0903 10.1329 35.0464 9.95966C35.0024 9.78645 34.9219 9.61324 34.8047 9.44004C34.7461 9.3823 34.6582 9.339 34.541 9.31013C34.4238 9.28126 34.3066 9.2957 34.1895 9.35343C34.0723 9.41117 33.9771 9.46169 33.9038 9.50499C33.8306 9.54829 33.7354 9.56994 33.6182 9.56994C33.3252 9.68541 33.1567 9.8081 33.1128 9.93801C33.0688 10.0679 33.1201 10.2628 33.2666 10.5226V10.7391C33.1201 10.8546 33.0542 10.9267 33.0688 10.9556C33.0835 10.9845 33.1787 11.0278 33.3545 11.0855C33.4131 11.1432 33.4644 11.1793 33.5083 11.1938C33.5522 11.2082 33.5449 11.2443 33.4863 11.302C33.3105 11.302 33.1641 11.2587 33.0469 11.1721C32.9297 11.0855 32.8418 10.9845 32.7832 10.869C32.7832 10.7535 32.7612 10.6525 32.7173 10.5659C32.6733 10.4793 32.6514 10.3782 32.6514 10.2628V10.0463C32.71 9.93079 32.7905 9.82975 32.8931 9.74315C32.9956 9.65654 33.0762 9.55551 33.1348 9.44004L33.2666 9.35343C33.2666 9.35343 33.2373 9.33178 33.1787 9.28848C33.1201 9.24518 33.0615 9.22353 33.0029 9.22353C32.8857 9.22353 32.7759 9.24518 32.6733 9.28848C32.5708 9.33178 32.4902 9.35343 32.4316 9.35343C31.875 9.4689 31.5234 9.73593 31.377 10.1545C31.2305 10.5731 31.2158 10.9267 31.333 11.2154C31.333 11.2731 31.3623 11.3237 31.4209 11.367C31.4795 11.4103 31.5381 11.4319 31.5967 11.4319C31.7139 11.4319 31.8091 11.4391 31.8823 11.4536C31.9556 11.468 32.0215 11.5041 32.0801 11.5618C32.1387 11.5618 32.1753 11.5763 32.1899 11.6051C32.2046 11.634 32.2412 11.6484 32.2998 11.6484C32.2412 11.6484 32.1899 11.6701 32.146 11.7134C32.1021 11.7567 32.0801 11.7783 32.0801 11.7783C32.0215 11.7783 31.9629 11.7711 31.9043 11.7567C31.8457 11.7422 31.7725 11.7062 31.6846 11.6484C31.626 11.6484 31.5967 11.6556 31.5967 11.6701C31.5967 11.6845 31.5967 11.7206 31.5967 11.7783V11.9082C31.7139 12.0237 31.8384 12.1103 31.9702 12.168C32.1021 12.2258 32.2559 12.2547 32.4316 12.2547C32.4902 12.2547 32.5415 12.2619 32.5854 12.2763C32.6294 12.2907 32.6514 12.3268 32.6514 12.3846C32.71 12.5 32.7759 12.565 32.8491 12.5794C32.9224 12.5939 33.0176 12.6011 33.1348 12.6011C33.3691 12.6011 33.5815 12.6083 33.772 12.6227C33.9624 12.6372 34.1455 12.7021 34.3213 12.8176H34.541C34.6582 12.7598 34.7754 12.7093 34.8926 12.666C35.0098 12.6227 35.127 12.6011 35.2441 12.6011C35.3027 12.6011 35.3613 12.6083 35.4199 12.6227C35.4785 12.6372 35.5371 12.6732 35.5957 12.731C35.5957 12.731 35.6177 12.731 35.6616 12.731C35.7056 12.731 35.7275 12.7598 35.7275 12.8176L35.5957 12.1247L35.7275 12.0381C35.7861 12.0959 35.8667 12.132 35.9692 12.1464C36.0718 12.1608 36.1523 12.1969 36.2109 12.2547C36.3281 12.3701 36.4526 12.4856 36.5845 12.6011C36.7163 12.7165 36.8701 12.832 37.0459 12.9475C37.1045 13.0052 37.1338 13.063 37.1338 13.1207C37.1338 13.1784 37.1045 13.2073 37.0459 13.2073C36.9873 13.2073 36.9287 13.2217 36.8701 13.2506C36.8115 13.2795 36.7822 13.2939 36.7822 13.2939L36.9141 13.4238C36.9727 13.4238 37.0239 13.4022 37.0679 13.3589C37.1118 13.3155 37.1338 13.2939 37.1338 13.2939C37.3389 13.2362 37.4561 13.2145 37.4854 13.2289C37.5146 13.2434 37.5586 13.3083 37.6172 13.4238C37.6172 13.4815 37.6465 13.5321 37.7051 13.5754C37.7637 13.6187 37.8223 13.6114 37.8809 13.5537C37.9395 13.5537 37.9761 13.5537 37.9907 13.5537C38.0054 13.5537 38.042 13.5826 38.1006 13.6403C38.2764 13.8135 38.3936 13.9723 38.4521 14.1166C38.5107 14.261 38.5107 14.463 38.4521 14.7229C38.4521 14.7806 38.4741 14.8311 38.5181 14.8744C38.562 14.9177 38.6133 14.9394 38.6719 14.9394C38.7598 14.9394 38.811 14.9177 38.8257 14.8744C38.8403 14.8311 38.877 14.8095 38.9355 14.8095C39.0527 14.7517 39.1992 14.7662 39.375 14.8528C39.5508 14.9394 39.6387 15.0404 39.6387 15.1559C39.6387 15.1559 39.6313 15.1775 39.6167 15.2208C39.6021 15.2641 39.5654 15.2858 39.5068 15.2858C39.4482 15.3435 39.375 15.3796 39.2871 15.394C39.1992 15.4085 39.126 15.4446 39.0674 15.5023C39.0088 15.3868 38.9429 15.2858 38.8696 15.1992C38.7964 15.1126 38.7012 15.0693 38.584 15.0693C38.4668 15.0115 38.335 14.9827 38.1885 14.9827C38.042 14.9827 37.9395 15.0404 37.8809 15.1559C37.7637 15.2713 37.7197 15.3724 37.749 15.459C37.7783 15.5456 37.8223 15.6466 37.8809 15.7621V15.9786C37.8223 16.0363 37.7124 16.0869 37.5513 16.1302C37.3901 16.1735 37.251 16.1663 37.1338 16.1085C37.0166 16.1085 36.8994 16.0869 36.7822 16.0436C36.665 16.0003 36.5479 16.0652 36.4307 16.2384H36.3428C36.2256 16.2962 36.1523 16.3539 36.123 16.4116C36.0938 16.4694 36.0791 16.556 36.0791 16.6714C36.0791 16.7869 36.123 16.8591 36.2109 16.8879C36.2988 16.9168 36.3721 16.9313 36.4307 16.9313H37.1338C37.1924 16.9313 37.251 16.924 37.3096 16.9096C37.3682 16.8952 37.3975 16.8591 37.3975 16.8013L37.5293 16.6714C37.6465 16.6714 37.7563 16.7003 37.8589 16.758C37.9614 16.8158 38.042 16.8735 38.1006 16.9313C38.1006 16.989 38.1226 17.0395 38.1665 17.0828C38.2104 17.1261 38.2617 17.1478 38.3203 17.1478C38.4375 17.1478 38.5107 17.1911 38.54 17.2777C38.5693 17.3643 38.584 17.4364 38.584 17.4942C38.584 17.6096 38.6133 17.6963 38.6719 17.754C38.7305 17.8117 38.8184 17.8406 38.9355 17.8406C38.9941 17.8406 39.0454 17.8478 39.0894 17.8622C39.1333 17.8767 39.1553 17.9128 39.1553 17.9705C39.3311 18.0282 39.5288 18.0932 39.7485 18.1654C39.9683 18.2375 40.166 18.3313 40.3418 18.4468C40.4004 18.4468 40.4663 18.4685 40.5396 18.5118C40.6128 18.5551 40.708 18.6056 40.8252 18.6633C40.8252 18.5479 40.7739 18.4324 40.6714 18.3169C40.5688 18.2014 40.459 18.086 40.3418 17.9705C40.2246 17.855 40.1074 17.7612 39.9902 17.689C39.873 17.6169 39.7559 17.523 39.6387 17.4076C39.8145 17.4076 39.9683 17.4364 40.1001 17.4942C40.2319 17.5519 40.3564 17.6385 40.4736 17.754C40.5908 17.8117 40.708 17.8622 40.8252 17.9055C40.9424 17.9488 41.0596 17.9705 41.1768 17.9705C41.2939 17.9705 41.3818 17.9272 41.4404 17.8406C41.499 17.754 41.5283 17.6818 41.5283 17.6241C41.5283 17.5663 41.5063 17.5158 41.4624 17.4725C41.4185 17.4292 41.3672 17.4076 41.3086 17.4076C41.1914 17.321 41.1182 17.2488 41.0889 17.1911C41.0596 17.1333 41.0449 17.0467 41.0449 16.9313C41.0449 16.8158 41.0156 16.7292 40.957 16.6714C40.8984 16.6137 40.8105 16.5848 40.6934 16.5848C40.5762 16.5271 40.4663 16.4621 40.3638 16.39C40.2612 16.3178 40.1807 16.224 40.1221 16.1085V15.9786C40.1807 15.9209 40.2173 15.8704 40.2319 15.8271C40.2466 15.7838 40.2539 15.7621 40.2539 15.7621C40.2539 15.7044 40.2686 15.6466 40.2979 15.5889C40.3271 15.5312 40.3418 15.5023 40.3418 15.5023C40.459 15.3868 40.5322 15.3291 40.5615 15.3291C40.5908 15.3291 40.6348 15.358 40.6934 15.4157ZM26.8506 12.731H27.0703C27.0117 12.6732 26.9751 12.6155 26.9604 12.5578C26.9458 12.5 26.9092 12.4423 26.8506 12.3846C26.7334 12.2691 26.5942 12.1753 26.4331 12.1031C26.272 12.0309 26.1328 11.966 26.0156 11.9082C25.8398 11.8505 25.7153 11.7639 25.6421 11.6484C25.5688 11.533 25.5322 11.3886 25.5322 11.2154C25.5322 11.1577 25.5322 11.1144 25.5322 11.0855C25.5322 11.0566 25.5029 11.0133 25.4443 10.9556C25.4443 10.8979 25.4224 10.8618 25.3784 10.8473C25.3345 10.8329 25.3125 10.7968 25.3125 10.7391C25.2539 10.5659 25.2319 10.3927 25.2466 10.2195C25.2612 10.0463 25.3271 9.90192 25.4443 9.78645C25.5615 9.67098 25.5981 9.58437 25.5542 9.52664C25.5103 9.4689 25.4297 9.41117 25.3125 9.35343C25.1953 9.2957 25.0781 9.28848 24.9609 9.33178C24.8438 9.37508 24.7266 9.45447 24.6094 9.56994L25.0928 10.0463H24.9609C24.9023 9.93079 24.8145 9.85862 24.6973 9.82975C24.5801 9.80088 24.4629 9.78645 24.3457 9.78645C24.2285 9.78645 24.1406 9.80088 24.082 9.82975C24.0234 9.85862 23.9941 9.93079 23.9941 10.0463C24.0527 10.1617 24.0967 10.2989 24.126 10.4576C24.1553 10.6164 24.1992 10.7535 24.2578 10.869C24.2578 10.9267 24.2505 10.9628 24.2358 10.9772C24.2212 10.9917 24.1846 11.0278 24.126 11.0855C24.0674 11.0855 24.0161 11.0783 23.9722 11.0639C23.9282 11.0494 23.9062 11.0133 23.9062 10.9556C23.9062 10.8979 23.8843 10.8257 23.8403 10.7391C23.7964 10.6525 23.7744 10.5803 23.7744 10.5226C23.7744 10.4648 23.6792 10.3566 23.4888 10.1978C23.2983 10.039 23.1152 9.98853 22.9395 10.0463C22.998 10.104 23.0493 10.1401 23.0933 10.1545C23.1372 10.1689 23.1592 10.205 23.1592 10.2628V10.3927H22.5879C22.5879 10.2195 22.5366 10.0968 22.4341 10.0246C22.3315 9.95244 22.1924 9.91636 22.0166 9.91636C21.958 9.91636 21.8994 9.93801 21.8408 9.98131C21.7822 10.0246 21.7529 10.0751 21.7529 10.1329C21.7529 10.2483 21.7163 10.3277 21.6431 10.371C21.5698 10.4143 21.4453 10.3782 21.2695 10.2628H21.4014C21.5186 10.205 21.5845 10.1401 21.5991 10.0679C21.6138 9.99574 21.5918 9.90192 21.5332 9.78645C21.4746 9.67098 21.4087 9.62768 21.3354 9.65654C21.2622 9.68541 21.167 9.69984 21.0498 9.69984C20.9326 9.69984 20.7715 9.74315 20.5664 9.82975C20.3613 9.91636 20.2002 10.0174 20.083 10.1329C20.0244 10.1906 19.9512 10.2483 19.8633 10.3061C19.7754 10.3638 19.7314 10.3927 19.7314 10.3927C19.7314 10.5081 19.7095 10.5875 19.6655 10.6308C19.6216 10.6741 19.5703 10.7535 19.5117 10.869C19.4531 10.9267 19.4458 10.9845 19.4897 11.0422C19.5337 11.0999 19.585 11.1577 19.6436 11.2154C19.7021 11.2154 19.7461 11.2371 19.7754 11.2804C19.8047 11.3237 19.8779 11.3742 19.9951 11.4319L20.8301 11.302V11.4319C20.8301 11.4319 20.8081 11.4391 20.7642 11.4536C20.7202 11.468 20.6982 11.5041 20.6982 11.5618C20.5811 11.6196 20.4639 11.6556 20.3467 11.6701C20.2295 11.6845 20.1123 11.7206 19.9951 11.7783C19.8779 11.8361 19.812 11.8938 19.7974 11.9515C19.7827 12.0093 19.8047 12.0381 19.8633 12.0381C20.0391 12.0959 20.2002 12.1464 20.3467 12.1897C20.4932 12.233 20.6543 12.2547 20.8301 12.2547C20.9473 12.2547 21.0645 12.2402 21.1816 12.2114C21.2988 12.1825 21.4453 12.1969 21.6211 12.2547C21.7383 12.2547 21.8555 12.2763 21.9727 12.3196C22.0898 12.3629 22.1777 12.4134 22.2363 12.4712V12.6011C22.1777 12.6011 22.1191 12.6227 22.0605 12.666C22.002 12.7093 21.9434 12.731 21.8848 12.731H21.2695C21.0938 12.731 20.918 12.7454 20.7422 12.7743C20.5664 12.8031 20.3906 12.8176 20.2148 12.8176C20.0977 12.8176 20.0317 12.8609 20.0171 12.9475C20.0024 13.0341 20.0244 13.1207 20.083 13.2073C20.2588 13.3228 20.4419 13.4094 20.6323 13.4671C20.8228 13.5248 21.0059 13.5537 21.1816 13.5537C21.2402 13.5537 21.2915 13.5609 21.3354 13.5754C21.3794 13.5898 21.4014 13.6547 21.4014 13.7702C21.4014 13.828 21.4087 13.9001 21.4233 13.9867C21.438 14.0733 21.5039 14.1166 21.6211 14.1166C21.8848 14.1744 22.1338 14.196 22.3682 14.1816C22.6025 14.1672 22.8369 14.1022 23.0713 13.9867C23.1299 13.929 23.1885 13.9001 23.2471 13.9001C23.3057 13.9001 23.3643 13.9001 23.4229 13.9001C23.5986 13.9001 23.7305 13.8857 23.8184 13.8568C23.9062 13.828 24.0088 13.7269 24.126 13.5537C24.1846 13.496 24.2212 13.4671 24.2358 13.4671C24.2505 13.4671 24.2871 13.496 24.3457 13.5537C24.4043 13.6114 24.4629 13.6403 24.5215 13.6403C24.5801 13.6403 24.6094 13.6403 24.6094 13.6403C24.6094 13.6403 24.6313 13.6475 24.6753 13.662C24.7192 13.6764 24.7705 13.7125 24.8291 13.7702C25.0049 13.8857 25.2026 13.9362 25.4224 13.9218C25.6421 13.9073 25.8398 13.9001 26.0156 13.9001C26.1328 13.9001 26.1987 13.8568 26.2134 13.7702C26.228 13.6836 26.2061 13.6114 26.1475 13.5537C26.0889 13.496 26.0449 13.4599 26.0156 13.4455C25.9863 13.431 25.9424 13.4238 25.8838 13.4238L25.7959 13.5537C25.7373 13.5537 25.6934 13.5537 25.6641 13.5537C25.6348 13.5537 25.5908 13.5826 25.5322 13.6403L25.4443 13.5537L26.1475 12.8176C26.2646 12.7598 26.3672 12.7021 26.4551 12.6444C26.543 12.5866 26.6748 12.6155 26.8506 12.731ZM29.0918 3.8541C29.1504 3.96957 29.2236 4.03452 29.3115 4.04896C29.3994 4.06339 29.5312 4.07061 29.707 4.07061C29.8242 4.07061 29.9194 4.05618 29.9927 4.02731C30.0659 3.99844 30.1611 3.984 30.2783 3.984C30.3369 3.984 30.3809 3.99844 30.4102 4.02731C30.4395 4.05618 30.4834 4.07061 30.542 4.07061L30.4102 4.20052C30.3516 4.25825 30.2637 4.29433 30.1465 4.30877C30.0293 4.3232 29.9121 4.35929 29.7949 4.41702L29.9268 4.54693C29.9854 4.60466 30.0659 4.6624 30.1685 4.72013C30.271 4.77787 30.3516 4.83561 30.4102 4.89334C30.4688 5.00882 30.5493 5.08099 30.6519 5.10985C30.7544 5.13872 30.835 5.18202 30.8936 5.23976C30.9521 5.29749 31.0254 5.32636 31.1133 5.32636C31.2012 5.32636 31.2744 5.29749 31.333 5.23976C31.3916 5.18202 31.4722 5.15315 31.5747 5.15315C31.6772 5.15315 31.7578 5.18202 31.8164 5.23976C31.9336 5.29749 32.0068 5.31193 32.0361 5.28306C32.0654 5.25419 32.1094 5.21089 32.168 5.15315C32.168 5.09542 32.1753 5.05212 32.1899 5.02325C32.2046 4.99438 32.2412 4.95108 32.2998 4.89334L32.4316 4.76344C32.4902 4.76344 32.5269 4.749 32.5415 4.72013C32.5562 4.69127 32.5928 4.67683 32.6514 4.67683C32.71 4.6191 32.7466 4.56136 32.7612 4.50363C32.7759 4.44589 32.8125 4.41702 32.8711 4.41702C32.9297 4.35929 33.0103 4.33042 33.1128 4.33042C33.2153 4.33042 33.2959 4.33042 33.3545 4.33042C33.4131 4.33042 33.457 4.30877 33.4863 4.26546C33.5156 4.22216 33.5596 4.20052 33.6182 4.20052C33.5596 4.20052 33.5156 4.17886 33.4863 4.13556C33.457 4.09226 33.4131 4.07061 33.3545 4.07061H33.0029C32.8857 4.07061 32.8198 4.04896 32.8052 4.00566C32.7905 3.96235 32.7832 3.91183 32.7832 3.8541C32.7832 3.79636 32.7759 3.76028 32.7612 3.74585C32.7466 3.73141 32.71 3.69533 32.6514 3.63759C32.5928 3.57985 32.5562 3.53655 32.5415 3.50768C32.5269 3.47882 32.5195 3.43552 32.5195 3.37778L32.4316 3.24788C32.373 3.24788 32.3364 3.26952 32.3218 3.31283C32.3071 3.35613 32.2998 3.37778 32.2998 3.37778V3.50768L32.0801 3.24788C32.0215 3.1324 31.9556 3.06023 31.8823 3.03136C31.8091 3.00249 31.7139 2.95919 31.5967 2.90146C31.4795 2.84372 31.3623 2.77155 31.2451 2.68495C31.1279 2.59835 31.0107 2.52618 30.8936 2.46844C30.835 2.41071 30.7764 2.37462 30.7178 2.36019C30.6592 2.34575 30.6006 2.33854 30.542 2.33854C30.4834 2.39627 30.3955 2.43235 30.2783 2.44679C30.1611 2.46122 30.0439 2.46844 29.9268 2.46844C29.9268 2.46844 29.9048 2.48288 29.8608 2.51174C29.8169 2.54061 29.7656 2.55505 29.707 2.55505L30.0586 2.68495C30 2.74269 29.9414 2.77877 29.8828 2.79321C29.8242 2.80764 29.7656 2.81485 29.707 2.81485C29.6484 2.81485 29.5898 2.81485 29.5312 2.81485C29.4727 2.81485 29.4434 2.84372 29.4434 2.90146C29.4434 2.95919 29.4653 3.01693 29.5093 3.07467C29.5532 3.1324 29.5752 3.19014 29.5752 3.24788C29.6338 3.30561 29.6924 3.34169 29.751 3.35613C29.8096 3.37056 29.8682 3.37778 29.9268 3.37778C29.8682 3.43552 29.8169 3.4716 29.7729 3.48603C29.729 3.50047 29.6191 3.50768 29.4434 3.50768H29.2236C29.2236 3.56542 29.231 3.60151 29.2456 3.61594C29.2603 3.63037 29.2969 3.66646 29.3555 3.72419C29.1211 3.66646 29.0039 3.65924 29.0039 3.70254C29.0039 3.74585 29.0332 3.79636 29.0918 3.8541ZM17.9736 11.4319C17.9736 11.4897 17.9956 11.5402 18.0396 11.5835C18.0835 11.6268 18.1055 11.6484 18.1055 11.6484L18.8086 11.302C18.9844 11.2443 19.0869 11.201 19.1162 11.1721C19.1455 11.1432 19.1602 11.0711 19.1602 10.9556C19.1602 10.8401 19.1895 10.7535 19.248 10.6958C19.3066 10.6381 19.3945 10.5803 19.5117 10.5226C19.5703 10.5226 19.6069 10.4937 19.6216 10.436C19.6362 10.3782 19.6436 10.3205 19.6436 10.2628C19.6436 10.205 19.6729 10.1473 19.7314 10.0896C19.79 10.0318 19.8779 9.97409 19.9951 9.91636C20.1709 9.85862 20.3467 9.77923 20.5225 9.6782C20.6982 9.57716 20.874 9.49777 21.0498 9.44004C21.1084 9.3823 21.1377 9.34621 21.1377 9.33178C21.1377 9.31734 21.1084 9.28126 21.0498 9.22353L20.6982 8.87711C20.5811 8.76164 20.4346 8.68225 20.2588 8.63895C20.083 8.59565 19.9072 8.63173 19.7314 8.74721C19.6729 8.74721 19.6362 8.72556 19.6216 8.68225C19.6069 8.63895 19.5703 8.6173 19.5117 8.6173C19.4531 8.6173 19.3799 8.6173 19.292 8.6173C19.2041 8.6173 19.1602 8.58843 19.1602 8.5307C18.9844 8.41523 18.8232 8.35027 18.6768 8.33584C18.5303 8.3214 18.3691 8.34306 18.1934 8.40079C18.1934 8.51626 18.1641 8.61008 18.1055 8.68225C18.0469 8.75442 17.959 8.81937 17.8418 8.87711V8.96371C17.8418 9.05032 17.8271 9.12249 17.7979 9.18023C17.7686 9.23796 17.7539 9.2957 17.7539 9.35343C17.666 9.41117 17.6147 9.4689 17.6001 9.52664C17.5854 9.58437 17.5488 9.64211 17.4902 9.69984V9.91636C17.4316 9.97409 17.395 10.0318 17.3804 10.0896C17.3657 10.1473 17.3291 10.205 17.2705 10.2628C17.1533 10.436 17.1167 10.537 17.1606 10.5659C17.2046 10.5947 17.3145 10.6092 17.4902 10.6092C17.6074 10.7824 17.7026 10.9339 17.7759 11.0639C17.8491 11.1938 17.915 11.3164 17.9736 11.4319ZM30.542 8.18428C30.542 8.24202 30.564 8.29254 30.6079 8.33584C30.6519 8.37914 30.7031 8.40079 30.7617 8.40079C30.8203 8.40079 30.8569 8.40801 30.8716 8.42244C30.8862 8.43687 30.9229 8.47296 30.9814 8.5307C31.0986 8.64617 31.2305 8.7039 31.377 8.7039C31.5234 8.7039 31.626 8.64617 31.6846 8.5307L31.8164 8.40079C31.875 8.51626 31.9629 8.58843 32.0801 8.6173C32.1973 8.64617 32.3145 8.68947 32.4316 8.74721H33.1348C33.3105 8.74721 33.479 8.73999 33.6401 8.72556C33.8013 8.71112 33.9404 8.64617 34.0576 8.5307H34.1895C34.3066 8.5307 34.4238 8.54513 34.541 8.574C34.6582 8.60287 34.7461 8.6173 34.8047 8.6173C34.8633 8.6173 34.8999 8.59565 34.9146 8.55235C34.9292 8.50904 34.9658 8.45853 35.0244 8.40079C35.083 8.40079 35.1196 8.37914 35.1343 8.33584C35.1489 8.29254 35.1855 8.27089 35.2441 8.27089C35.2441 8.27089 35.2661 8.27089 35.3101 8.27089C35.354 8.27089 35.376 8.24202 35.376 8.18428C35.4346 8.12654 35.4712 8.06159 35.4858 7.98943C35.5005 7.91726 35.5371 7.82343 35.5957 7.70796C35.4199 7.65023 35.2441 7.60693 35.0684 7.57806C34.8926 7.54919 34.6729 7.50589 34.4092 7.44815C34.2334 7.44815 34.0649 7.45537 33.9038 7.4698C33.7427 7.48424 33.6035 7.52032 33.4863 7.57806C33.3691 7.63579 33.252 7.67188 33.1348 7.68631C33.0176 7.70074 32.9004 7.70796 32.7832 7.70796H32.168C32.0508 7.65023 31.9556 7.59249 31.8823 7.53476C31.8091 7.47702 31.7139 7.41928 31.5967 7.36155C31.5967 7.30381 31.6113 7.26051 31.6406 7.23164C31.6699 7.20277 31.6846 7.15947 31.6846 7.10174C31.8311 7.044 31.897 6.98626 31.8823 6.92853C31.8677 6.87079 31.7725 6.81306 31.5967 6.75532C31.4795 6.69759 31.3623 6.65429 31.2451 6.62542C31.1279 6.59655 31.0107 6.61098 30.8936 6.66872C30.7178 6.66872 30.542 6.63985 30.3662 6.58212C30.1904 6.52438 30.0439 6.46664 29.9268 6.40891C29.8096 6.35117 29.6704 6.3223 29.5093 6.3223C29.3481 6.3223 29.209 6.3223 29.0918 6.3223C28.9746 6.3223 28.9087 6.35117 28.894 6.40891C28.8794 6.46664 28.916 6.55325 29.0039 6.66872C29.0625 6.72646 29.1431 6.78419 29.2456 6.84193C29.3481 6.89966 29.458 6.9574 29.5752 7.01513C29.6924 7.07287 29.8096 7.10174 29.9268 7.10174C30.0439 7.10174 30.1611 7.07287 30.2783 7.01513C30.3955 7.1306 30.5127 7.25329 30.6299 7.3832C30.7471 7.5131 30.7471 7.69353 30.6299 7.92447C30.5127 7.92447 30.4688 7.95334 30.498 8.01107C30.5273 8.06881 30.542 8.12654 30.542 8.18428ZM21.6211 6.88523C21.5625 6.82749 21.5039 6.79862 21.4453 6.79862C21.3867 6.79862 21.2988 6.82749 21.1816 6.88523C21.1816 6.94296 21.1523 6.97905 21.0938 6.99348C21.0352 7.00792 20.9766 7.044 20.918 7.10174L20.8301 7.23164C20.8301 7.28938 20.8447 7.32546 20.874 7.3399C20.9033 7.35433 20.918 7.36155 20.918 7.36155H21.1816C21.0645 7.41928 20.9326 7.44815 20.7861 7.44815C20.6396 7.44815 20.5664 7.53476 20.5664 7.70796L21.1816 7.57806C21.0645 7.63579 20.9326 7.67909 20.7861 7.70796C20.6396 7.73683 20.5225 7.809 20.4346 7.92447C20.5811 7.98221 20.7056 8.03994 20.8081 8.09768C20.9106 8.15541 20.9912 8.18428 21.0498 8.18428C21.1084 8.18428 21.167 8.17707 21.2256 8.16263C21.2842 8.1482 21.3428 8.11211 21.4014 8.05437L21.7529 7.70796V8.05437L22.7197 7.92447V8.05437C22.7197 8.11211 22.6904 8.1482 22.6318 8.16263C22.5732 8.17707 22.5146 8.21315 22.4561 8.27089C22.3389 8.27089 22.2437 8.29254 22.1704 8.33584C22.0972 8.37914 22.002 8.40079 21.8848 8.40079C21.8262 8.40079 21.7676 8.42244 21.709 8.46574C21.6504 8.50904 21.6211 8.5307 21.6211 8.5307C21.6211 8.5307 21.6431 8.55235 21.687 8.59565C21.731 8.63895 21.7529 8.68947 21.7529 8.74721C21.8115 8.74721 21.8701 8.76886 21.9287 8.81216C21.9873 8.85546 22.0459 8.87711 22.1045 8.87711L23.1592 8.5307C23.3057 8.41523 23.4155 8.32862 23.4888 8.27089C23.562 8.21315 23.6572 8.21315 23.7744 8.27089H24.6094C24.668 8.21315 24.7266 8.18428 24.7852 8.18428C24.8438 8.18428 24.9023 8.18428 24.9609 8.18428C25.0781 8.12654 25.144 8.00386 25.1587 7.81622C25.1733 7.62857 25.1514 7.47702 25.0928 7.36155C25.0342 7.24607 24.9756 7.18834 24.917 7.18834C24.8584 7.18834 24.7998 7.24607 24.7412 7.36155C24.6533 7.41928 24.5654 7.44815 24.4775 7.44815C24.3896 7.44815 24.3164 7.41928 24.2578 7.36155C24.1406 7.24607 24.0381 7.1306 23.9502 7.01513C23.8623 6.89966 23.7598 6.78419 23.6426 6.66872L23.291 7.01513C23.291 6.9574 23.2983 6.94296 23.313 6.97183C23.3276 7.0007 23.3643 7.01513 23.4229 7.01513C23.54 7.01513 23.5913 7.03679 23.5767 7.08009C23.562 7.12339 23.5547 7.1739 23.5547 7.23164L23.4229 7.36155L23.7744 7.70796C23.54 7.7657 23.335 7.77291 23.1592 7.72961C22.9834 7.68631 22.8369 7.59249 22.7197 7.44815C22.6611 7.33268 22.5513 7.23164 22.3901 7.14504C22.229 7.05843 22.0605 7.01513 21.8848 7.01513C21.8262 7.01513 21.7676 7.00792 21.709 6.99348C21.6504 6.97905 21.6211 6.94296 21.6211 6.88523ZM27.6855 11.4319H27.8174C27.876 11.3164 27.9565 11.2298 28.0591 11.1721C28.1616 11.1144 28.2715 11.0855 28.3887 11.0855C28.3887 11.0855 28.4106 11.0783 28.4546 11.0639C28.4985 11.0494 28.5205 11.0133 28.5205 10.9556C28.5791 10.7824 28.6157 10.6092 28.6304 10.436C28.645 10.2628 28.6816 10.0896 28.7402 9.91636L28.6084 9.78645L28.5205 9.91636V10.1329H28.3887C28.3887 10.0174 28.3594 9.95244 28.3008 9.93801C28.2422 9.92357 28.1543 9.91636 28.0371 9.91636C27.9785 9.91636 27.9419 9.8947 27.9272 9.8514C27.9126 9.8081 27.876 9.78645 27.8174 9.78645C27.8174 9.78645 27.8174 9.77201 27.8174 9.74315C27.8174 9.71428 27.8467 9.69984 27.9053 9.69984C27.9639 9.64211 28.0225 9.59881 28.0811 9.56994C28.1396 9.54107 28.1982 9.49777 28.2568 9.44004C28.3154 9.3823 28.3447 9.32456 28.3447 9.26683C28.3447 9.20909 28.3154 9.15136 28.2568 9.09362C28.1982 9.03588 28.1396 8.9998 28.0811 8.98537C28.0225 8.97093 27.9639 8.93485 27.9053 8.87711C27.8467 8.87711 27.7734 8.88433 27.6855 8.89876C27.5977 8.9132 27.5537 8.97815 27.5537 9.09362V9.35343H27.334C27.2168 9.2957 27.0996 9.26683 26.9824 9.26683C26.8652 9.26683 26.7773 9.2957 26.7188 9.35343C26.6602 9.41117 26.6309 9.46169 26.6309 9.50499C26.6309 9.54829 26.6309 9.56994 26.6309 9.56994C26.6309 9.56994 26.6528 9.59159 26.6968 9.63489C26.7407 9.6782 26.792 9.69984 26.8506 9.69984C27.0264 9.69984 27.1216 9.72871 27.1362 9.78645C27.1509 9.84418 27.1289 9.93079 27.0703 10.0463C27.0117 10.1617 26.9531 10.2195 26.8945 10.2195C26.8359 10.2195 26.748 10.1906 26.6309 10.1329C26.5723 10.0751 26.5137 10.039 26.4551 10.0246C26.3965 10.0102 26.3672 9.97409 26.3672 9.91636C26.25 9.97409 26.1914 10.039 26.1914 10.1112C26.1914 10.1834 26.2207 10.2772 26.2793 10.3927C26.3379 10.4504 26.3965 10.5009 26.4551 10.5442C26.5137 10.5875 26.5723 10.6092 26.6309 10.6092C26.6895 10.6669 26.748 10.7247 26.8066 10.7824C26.8652 10.8401 26.9238 10.869 26.9824 10.869C27.2168 10.9845 27.3779 11.0783 27.4658 11.1505C27.5537 11.2226 27.627 11.3164 27.6855 11.4319ZM27.4219 6.66872C27.3633 6.61098 27.3047 6.56768 27.2461 6.53881C27.1875 6.50994 27.0996 6.46664 26.9824 6.40891L26.8506 6.53881L27.334 7.10174C27.2754 7.044 27.2095 6.99348 27.1362 6.95018C27.063 6.90688 26.9678 6.88523 26.8506 6.88523C26.792 6.88523 26.7554 6.87801 26.7407 6.86357C26.7261 6.84914 26.6895 6.81306 26.6309 6.75532V7.01513C26.6309 7.07287 26.6455 7.10895 26.6748 7.12339C26.7041 7.13782 26.7188 7.1739 26.7188 7.23164C26.7188 7.28938 26.7261 7.32546 26.7407 7.3399C26.7554 7.35433 26.792 7.36155 26.8506 7.36155H26.7188C26.6602 7.36155 26.6235 7.3399 26.6089 7.29659C26.5942 7.25329 26.5576 7.23164 26.499 7.23164C26.3818 7.11617 26.2866 7.02235 26.2134 6.95018C26.1401 6.87801 26.0742 6.78419 26.0156 6.66872C26.0156 6.61098 25.9717 6.5749 25.8838 6.56046C25.7959 6.54603 25.7227 6.53881 25.6641 6.53881L25.5322 6.66872C25.5322 6.84193 25.6787 7.06565 25.9717 7.3399C26.2646 7.61414 26.5576 7.69353 26.8506 7.57806C26.9092 7.57806 26.9751 7.57084 27.0483 7.5564C27.1216 7.54197 27.2168 7.50589 27.334 7.44815C27.2754 7.50589 27.2388 7.57084 27.2241 7.64301C27.2095 7.71518 27.2021 7.78013 27.2021 7.83787V8.05437C27.2607 8.11211 27.4365 8.13376 27.7295 8.11933C28.0225 8.1049 28.1689 8.03994 28.1689 7.92447C28.2275 7.86673 28.2715 7.78735 28.3008 7.68631C28.3301 7.58527 28.3154 7.47702 28.2568 7.36155V7.23164C28.3154 7.05843 28.3008 6.9141 28.2129 6.79862C28.125 6.68315 27.9932 6.59655 27.8174 6.53881C27.8174 6.71202 27.7881 6.7914 27.7295 6.77697C27.6709 6.76254 27.5684 6.72646 27.4219 6.66872ZM35.1562 17.2777C35.1562 17.2199 35.127 17.1766 35.0684 17.1478C35.0098 17.1189 34.9512 17.0756 34.8926 17.0179C34.834 16.9601 34.7754 16.924 34.7168 16.9096C34.6582 16.8952 34.5996 16.8591 34.541 16.8013C34.541 16.7436 34.519 16.6859 34.4751 16.6281C34.4312 16.5704 34.3799 16.5127 34.3213 16.4549C34.2041 16.3972 34.1016 16.3467 34.0137 16.3034C33.9258 16.2601 33.8232 16.2384 33.7061 16.2384C33.6475 16.1807 33.5742 16.1229 33.4863 16.0652C33.3984 16.0075 33.3252 15.9353 33.2666 15.8487L33.1348 15.7621C33.0762 15.7621 33.0176 15.7765 32.959 15.8054C32.9004 15.8343 32.8711 15.8487 32.8711 15.8487C32.8125 15.993 32.7612 16.1374 32.7173 16.2817C32.6733 16.4261 32.6514 16.556 32.6514 16.6714C32.6514 16.7869 32.644 16.8807 32.6294 16.9529C32.6147 17.0251 32.5488 17.09 32.4316 17.1478C32.373 17.1478 32.3511 17.1694 32.3657 17.2127C32.3804 17.256 32.3584 17.321 32.2998 17.4076H32.5195C32.6367 17.321 32.71 17.2849 32.7393 17.2993C32.7686 17.3138 32.7832 17.3787 32.7832 17.4942C32.7832 17.5519 32.8052 17.6024 32.8491 17.6457C32.8931 17.689 32.9443 17.6818 33.0029 17.6241C33.1201 17.5663 33.2153 17.5086 33.2886 17.4509C33.3618 17.3931 33.4277 17.3354 33.4863 17.2777C33.6035 17.1622 33.6841 17.0972 33.728 17.0828C33.772 17.0684 33.8818 17.09 34.0576 17.1478C34.1162 17.2055 34.1968 17.2416 34.2993 17.256C34.4019 17.2704 34.4824 17.321 34.541 17.4076L35.1562 17.2777ZM25.5322 4.41702C25.5908 4.41702 25.6494 4.42424 25.708 4.43867C25.7666 4.45311 25.8252 4.48919 25.8838 4.54693C25.9424 4.54693 25.979 4.56858 25.9937 4.61188C26.0083 4.65518 26.0156 4.7057 26.0156 4.76344C25.957 4.76344 25.8984 4.77065 25.8398 4.78509C25.7812 4.79952 25.7227 4.83561 25.6641 4.89334C25.6055 4.89334 25.5688 4.90056 25.5542 4.91499C25.5396 4.92943 25.5029 4.96551 25.4443 5.02325L25.6641 5.23976H26.0156C26.1328 5.23976 26.272 5.24697 26.4331 5.26141C26.5942 5.27584 26.7334 5.31193 26.8506 5.36966C26.9092 5.4274 26.9751 5.48513 27.0483 5.54287C27.1216 5.60061 27.2168 5.65834 27.334 5.71608C27.3926 5.77382 27.4512 5.80268 27.5098 5.80268C27.5684 5.80268 27.627 5.77382 27.6855 5.71608C27.7441 5.65834 27.7881 5.60061 27.8174 5.54287C27.8467 5.48513 27.8027 5.4274 27.6855 5.36966L27.5537 5.23976C27.5537 5.12429 27.5317 5.05212 27.4878 5.02325C27.4438 4.99438 27.3926 4.95108 27.334 4.89334C27.2168 4.89334 27.1216 4.86448 27.0483 4.80674C26.9751 4.749 26.9092 4.6624 26.8506 4.54693H26.6309L26.499 4.67683C26.4404 4.6191 26.3818 4.56136 26.3232 4.50363C26.2646 4.44589 26.2061 4.41702 26.1475 4.41702C26.0303 4.35929 25.9131 4.33042 25.7959 4.33042C25.6787 4.33042 25.5615 4.33042 25.4443 4.33042C25.3857 4.33042 25.3125 4.35207 25.2246 4.39537C25.1367 4.43867 25.0928 4.48919 25.0928 4.54693C25.0928 4.48919 25.1367 4.46754 25.2246 4.48198C25.3125 4.49641 25.415 4.47476 25.5322 4.41702ZM19.0283 7.10174L19.292 7.44815L19.6436 7.10174C19.7607 7.15947 19.8267 7.1739 19.8413 7.14504C19.856 7.11617 19.8633 7.07287 19.8633 7.01513C19.8633 6.9574 19.8706 6.89966 19.8853 6.84193C19.8999 6.78419 19.9365 6.72646 19.9951 6.66872C19.9951 6.61098 20.0171 6.56768 20.061 6.53881C20.105 6.50994 20.1562 6.46664 20.2148 6.40891H20.3467V6.75532C20.2881 6.81306 20.2734 6.87079 20.3027 6.92853C20.332 6.98626 20.3467 7.01513 20.3467 7.01513C20.4053 7.01513 20.4419 6.99348 20.4565 6.95018C20.4712 6.90688 20.5078 6.88523 20.5664 6.88523L20.6982 6.75532C20.7568 6.75532 20.8081 6.73367 20.8521 6.69037C20.896 6.64707 20.918 6.59655 20.918 6.53881V6.1924L21.1816 5.93259C21.123 5.87485 21.0645 5.84598 21.0059 5.84598C20.9473 5.84598 20.8887 5.84598 20.8301 5.84598C20.7715 5.78825 20.7129 5.77382 20.6543 5.80268C20.5957 5.83155 20.5664 5.87485 20.5664 5.93259V6.06249H20.3467C20.2295 6.00476 20.1123 5.9831 19.9951 5.99754C19.8779 6.01197 19.7607 6.07693 19.6436 6.1924L19.5117 6.3223C19.4531 6.3223 19.4019 6.34396 19.3579 6.38726C19.314 6.43056 19.292 6.48108 19.292 6.53881C19.292 6.65429 19.2334 6.74089 19.1162 6.79862C18.999 6.85636 18.8525 6.88523 18.6768 6.88523H18.5449C18.5449 6.94296 18.5303 7.02235 18.501 7.12339C18.4717 7.22443 18.457 7.30381 18.457 7.36155C18.6328 7.41928 18.7573 7.40485 18.8306 7.31824C18.9038 7.23164 18.9697 7.15947 19.0283 7.10174ZM35.0244 9.56994C35.0244 9.62768 35.0464 9.68541 35.0903 9.74315C35.1343 9.80088 35.1855 9.85862 35.2441 9.91636C35.3027 10.0318 35.376 10.1112 35.4639 10.1545C35.5518 10.1978 35.6836 10.1906 35.8594 10.1329C35.9766 10.1329 36.0718 10.1184 36.145 10.0896C36.2183 10.0607 36.3135 10.0463 36.4307 10.0463H36.6943C36.7529 10.0463 36.7896 10.039 36.8042 10.0246C36.8188 10.0102 36.8555 9.97409 36.9141 9.91636V9.69984C36.6797 9.64211 36.4819 9.56994 36.3208 9.48334C36.1597 9.39673 35.9619 9.35343 35.7275 9.35343H35.0244V9.56994ZM28.8721 5.49957C28.9893 5.49957 29.0845 5.47792 29.1577 5.43462C29.231 5.39132 29.3262 5.36966 29.4434 5.36966V5.15315C29.4434 5.03768 29.436 4.96551 29.4214 4.93665C29.4067 4.90778 29.3408 4.89334 29.2236 4.89334C29.165 4.89334 29.1064 4.89334 29.0479 4.89334C28.9893 4.89334 28.9307 4.85004 28.8721 4.76344C28.6963 4.7057 28.5645 4.64796 28.4766 4.59023C28.3887 4.53249 28.2861 4.47476 28.1689 4.41702C28.1689 4.59023 28.1982 4.76344 28.2568 4.93665C28.3154 5.10985 28.4033 5.25419 28.5205 5.36966C28.5205 5.4274 28.5645 5.47792 28.6523 5.52122C28.7402 5.56452 28.8135 5.5573 28.8721 5.49957ZM30.0586 8.27089V8.18428C30 8.01107 29.9121 7.88839 29.7949 7.81622C29.6777 7.74405 29.5312 7.70796 29.3555 7.70796C29.2383 7.70796 29.1211 7.75126 29.0039 7.83787C28.8867 7.92447 28.7988 7.99664 28.7402 8.05437V8.27089C28.916 8.32862 29.0918 8.38636 29.2676 8.44409C29.4434 8.50183 29.5898 8.55956 29.707 8.6173C29.8828 8.55956 29.9854 8.51626 30.0146 8.4874C30.0439 8.45853 30.0586 8.38636 30.0586 8.27089ZM23.4229 5.36966C23.2471 5.36966 23.0713 5.37688 22.8955 5.39132C22.7197 5.40575 22.5439 5.44183 22.3682 5.49957C22.251 5.5573 22.1924 5.65113 22.1924 5.78103C22.1924 5.91093 22.251 6.00476 22.3682 6.06249C22.4854 6.12023 22.6025 6.1491 22.7197 6.1491C22.8369 6.1491 22.9541 6.12023 23.0713 6.06249C23.1299 6.00476 23.1738 5.94702 23.2031 5.88929C23.2324 5.83155 23.2178 5.77382 23.1592 5.71608L23.5547 5.49957L23.4229 5.36966ZM36.7822 14.7229C36.8408 14.7229 36.8994 14.7012 36.958 14.6579C37.0166 14.6146 37.0752 14.593 37.1338 14.593L37.2656 14.463C37.2656 14.4053 37.2583 14.3259 37.2437 14.2249C37.229 14.1238 37.1924 14.0445 37.1338 13.9867C37.0752 13.929 37.002 13.9001 36.9141 13.9001C36.8262 13.9001 36.7529 13.9001 36.6943 13.9001C36.5771 13.9001 36.4673 13.9434 36.3647 14.03C36.2622 14.1166 36.2109 14.2177 36.2109 14.3331C36.2695 14.4486 36.3501 14.5569 36.4526 14.6579C36.5552 14.7589 36.665 14.7806 36.7822 14.7229ZM22.7197 5.15315C22.8369 5.09542 22.9468 5.08099 23.0493 5.10985C23.1519 5.13872 23.2324 5.18202 23.291 5.23976C23.3496 5.29749 23.4082 5.31193 23.4668 5.28306C23.5254 5.25419 23.584 5.21089 23.6426 5.15315V4.89334C23.584 4.83561 23.5254 4.80674 23.4668 4.80674C23.4082 4.80674 23.3496 4.83561 23.291 4.89334C23.2324 4.89334 23.1958 4.91499 23.1812 4.9583C23.1665 5.0016 23.1299 5.02325 23.0713 5.02325H22.8076C22.6318 4.96551 22.5 4.94386 22.4121 4.9583C22.3242 4.97273 22.2217 5.03768 22.1045 5.15315V5.23976C22.1631 5.18202 22.251 5.15315 22.3682 5.15315C22.4854 5.15315 22.6025 5.15315 22.7197 5.15315ZM30.0586 5.58617C29.9414 5.52843 29.7803 5.52122 29.5752 5.56452C29.3701 5.60782 29.1797 5.65834 29.0039 5.71608C28.916 5.71608 28.8721 5.73773 28.8721 5.78103C28.8721 5.82433 28.8721 5.84598 28.8721 5.84598L29.0039 5.93259C29.1797 5.99032 29.3701 5.97589 29.5752 5.88929C29.7803 5.80268 29.9414 5.70164 30.0586 5.58617ZM14.2822 23.8162C14.2236 23.8162 14.1724 23.8379 14.1284 23.8812C14.0845 23.9245 14.0625 23.975 14.0625 24.0328C14.1211 24.1482 14.1577 24.2493 14.1724 24.3359C14.187 24.4225 14.2236 24.5235 14.2822 24.639C14.3994 24.5235 14.4727 24.408 14.502 24.2926C14.5312 24.1771 14.5459 24.0905 14.5459 24.0328C14.5459 23.975 14.5312 23.9245 14.502 23.8812C14.4727 23.8379 14.3994 23.8162 14.2822 23.8162ZM33.8379 18.3169C33.8965 18.3169 33.9551 18.3313 34.0137 18.3602C34.0723 18.3891 34.1309 18.3746 34.1895 18.3169C34.3066 18.2592 34.3945 18.1798 34.4531 18.0788C34.5117 17.9777 34.541 17.8983 34.541 17.8406C34.3652 17.7829 34.2407 17.7973 34.1675 17.8839C34.0942 17.9705 34.0283 18.0427 33.9697 18.1004C33.9111 18.1004 33.8745 18.1221 33.8599 18.1654C33.8452 18.2087 33.8379 18.2592 33.8379 18.3169ZM25.3125 6.1924C25.3711 6.25013 25.4224 6.25735 25.4663 6.21405C25.5103 6.17075 25.5322 6.12023 25.5322 6.06249C25.5322 5.94702 25.4663 5.83877 25.3345 5.73773C25.2026 5.63669 25.0781 5.5573 24.9609 5.49957C24.9609 5.67278 24.9902 5.81712 25.0488 5.93259C25.1074 6.04806 25.1953 6.13466 25.3125 6.1924ZM5.66895 21.6078L6.24023 21.4779L6.1084 21.348C6.28418 21.2903 6.37939 21.2398 6.39404 21.1965C6.40869 21.1532 6.35742 21.0449 6.24023 20.8717L5.66895 21.6078ZM31.4648 5.93259C31.4648 5.87485 31.4429 5.83155 31.3989 5.80268C31.355 5.77382 31.3037 5.70164 31.2451 5.58617C31.1865 5.64391 31.1133 5.70164 31.0254 5.75938C30.9375 5.81712 30.8936 5.87485 30.8936 5.93259C30.8936 5.99032 30.9155 6.04806 30.9595 6.10579C31.0034 6.16353 31.0547 6.1924 31.1133 6.1924C31.2305 6.1924 31.3184 6.16353 31.377 6.10579C31.4355 6.04806 31.4648 5.99032 31.4648 5.93259ZM0.65918 19.8325C0.600586 19.8325 0.549316 19.8397 0.505371 19.8541C0.461426 19.8686 0.439453 19.9046 0.439453 19.9624V20.1789C0.498047 20.2366 0.556641 20.2727 0.615234 20.2871C0.673828 20.3016 0.732422 20.3088 0.791016 20.3088C0.849609 20.3088 0.893555 20.2871 0.922852 20.2438C0.952148 20.2005 0.996094 20.1356 1.05469 20.049C0.996094 20.049 0.952148 20.0345 0.922852 20.0057C0.893555 19.9768 0.849609 19.9624 0.791016 19.9624C0.791016 19.9046 0.783691 19.8686 0.769043 19.8541C0.754395 19.8397 0.717773 19.8325 0.65918 19.8325ZM20.3467 7.10174C20.2295 7.21721 20.1123 7.31824 19.9951 7.40485C19.8779 7.49145 19.7607 7.59249 19.6436 7.70796C19.8779 7.70796 20.0537 7.65023 20.1709 7.53476C20.2881 7.41928 20.3467 7.27494 20.3467 7.10174ZM35.2441 18.6633L35.376 18.7932C35.4346 18.7355 35.4712 18.6778 35.4858 18.62C35.5005 18.5623 35.5371 18.5046 35.5957 18.4468L35.5078 18.3169C35.4492 18.3169 35.3906 18.3458 35.332 18.4035C35.2734 18.4612 35.2441 18.5479 35.2441 18.6633ZM25.8838 8.05437C25.8838 7.99664 25.8618 7.96056 25.8179 7.94612C25.7739 7.93169 25.7227 7.8956 25.6641 7.83787L25.4443 8.05437L25.6641 8.18428C25.7227 8.18428 25.7739 8.16263 25.8179 8.11933C25.8618 8.07603 25.8838 8.05437 25.8838 8.05437ZM27.8174 3.63759V3.37778C27.7588 3.32004 27.6929 3.28396 27.6196 3.26952C27.5464 3.25509 27.4512 3.24788 27.334 3.24788C27.3926 3.30561 27.4512 3.36335 27.5098 3.42108C27.5684 3.47882 27.627 3.50768 27.6855 3.50768C27.6855 3.56542 27.7075 3.60151 27.7515 3.61594C27.7954 3.63037 27.8174 3.63759 27.8174 3.63759ZM21.8848 5.58617C21.8848 5.58617 21.8774 5.57174 21.8628 5.54287C21.8481 5.514 21.8115 5.49957 21.7529 5.49957H21.4014V5.58617C21.46 5.64391 21.5186 5.68721 21.5771 5.71608C21.6357 5.74495 21.6943 5.78825 21.7529 5.84598C21.7529 5.78825 21.7749 5.73051 21.8188 5.67278C21.8628 5.61504 21.8848 5.58617 21.8848 5.58617ZM1.40625 23.6863L1.97754 23.4698C1.86035 23.4121 1.73584 23.4049 1.604 23.4482C1.47217 23.4915 1.40625 23.5709 1.40625 23.6863Z" fill="#12499E"/>
</svg>
