<svg width="45" height="33" viewBox="0 0 45 33" fill="none" xmlns="http://www.w3.org/2000/svg">
<path d="M37.8809 31.9568C37.998 31.8991 38.1006 31.8414 38.1885 31.7836C38.2764 31.7259 38.3789 31.6682 38.4961 31.6104C38.5547 31.5527 38.6133 31.4949 38.6719 31.4372C38.7305 31.3795 38.7891 31.3506 38.8477 31.3506C38.9648 31.2929 39.0601 31.2351 39.1333 31.1774C39.2065 31.1197 39.3018 31.0619 39.4189 31.0042C39.4775 30.9465 39.5581 30.9104 39.6606 30.8959C39.7632 30.8815 39.8438 30.8454 39.9023 30.7877C40.0781 30.5567 40.2319 30.3041 40.3638 30.0299C40.4956 29.7557 40.6201 29.5031 40.7373 29.2721C40.7959 29.0989 40.8911 28.9618 41.0229 28.8608C41.1548 28.7597 41.3379 28.7092 41.5723 28.7092C41.6309 28.7092 41.6675 28.6875 41.6821 28.6442C41.6968 28.6009 41.7334 28.5793 41.792 28.5793C41.8506 28.4638 41.9165 28.3483 41.9897 28.2329C42.063 28.1174 42.1582 28.0019 42.2754 27.8865C42.3926 27.771 42.4292 27.5906 42.3853 27.3452C42.3413 27.0998 42.2607 26.9194 42.1436 26.8039C42.0264 26.9194 41.8945 27.006 41.748 27.0637C41.6016 27.1215 41.4551 27.0349 41.3086 26.8039H40.957C40.8398 26.9771 40.73 27.172 40.6274 27.3885C40.5249 27.605 40.4443 27.7999 40.3857 27.9731C40.2686 28.2617 40.1147 28.5288 39.9243 28.7741C39.7339 29.0195 39.4922 29.2288 39.1992 29.402C38.9062 29.633 38.6133 29.8639 38.3203 30.0949C38.0273 30.3258 37.7637 30.5567 37.5293 30.7877C37.4121 30.9032 37.3242 31.0475 37.2656 31.2207C37.207 31.3939 37.1777 31.5671 37.1777 31.7403C37.1777 31.7981 37.207 31.8702 37.2656 31.9568C37.3242 32.0434 37.3828 32.1156 37.4414 32.1733C37.5 32.0001 37.5732 31.9063 37.6611 31.8919C37.749 31.8774 37.8223 31.8991 37.8809 31.9568ZM43.2422 22.8634C43.125 22.8057 43.0298 22.748 42.9565 22.6902C42.8833 22.6325 42.8174 22.5748 42.7588 22.517L42.4072 21.4345C42.3486 21.2035 42.2314 21.0159 42.0557 20.8716C41.8799 20.7272 41.6748 20.6839 41.4404 20.7417C41.4404 20.7994 41.4478 20.8643 41.4624 20.9365C41.4771 21.0087 41.5137 21.1025 41.5723 21.218C41.748 21.4489 41.9165 21.7015 42.0776 21.9758C42.2388 22.25 42.3779 22.5026 42.4951 22.7335C42.5537 22.7913 42.5903 22.8707 42.605 22.9717C42.6196 23.0727 42.627 23.1521 42.627 23.2099C42.627 23.3253 42.605 23.4625 42.561 23.6212C42.5171 23.78 42.4951 23.9171 42.4951 24.0326C42.4951 24.0903 42.4731 24.1481 42.4292 24.2058C42.3853 24.2635 42.334 24.3213 42.2754 24.379C42.041 24.5522 41.9238 24.7038 41.9238 24.8337C41.9238 24.9636 42.041 25.0863 42.2754 25.2017C42.7441 25.4904 42.9712 25.6925 42.9565 25.808C42.9419 25.9234 42.876 26.1833 42.7588 26.5874V26.7173C42.7588 26.775 42.7734 26.8256 42.8027 26.8689C42.832 26.9122 42.8467 26.9338 42.8467 26.9338H42.9785C43.0371 26.1833 43.2715 25.5265 43.6816 24.9636C44.0918 24.4007 44.5312 23.8594 45 23.3398C44.8828 23.3975 44.7876 23.448 44.7144 23.4913C44.6411 23.5346 44.5752 23.5563 44.5166 23.5563C44.2236 23.5563 44.0112 23.4913 43.8794 23.3614C43.7476 23.2315 43.6523 23.0222 43.5938 22.7335C43.5938 22.6758 43.5645 22.6109 43.5059 22.5387C43.4473 22.4665 43.3887 22.3727 43.3301 22.2572H43.2422V22.8634ZM22.2803 26.4575C22.4561 26.8616 22.6318 27.273 22.8076 27.6916C22.9834 28.1102 23.2031 28.5216 23.4668 28.9257C23.5254 28.8102 23.562 28.7164 23.5767 28.6442C23.5913 28.5721 23.6279 28.5071 23.6865 28.4494C23.8623 28.5649 23.9648 28.5865 23.9941 28.5143C24.0234 28.4422 24.0381 28.3483 24.0381 28.2329V27.7566C24.2139 27.5256 24.2578 27.2875 24.1699 27.0421C24.082 26.7967 24.0381 26.5297 24.0381 26.241C23.7451 26.3565 23.4668 26.4936 23.2031 26.6524C22.9395 26.8111 22.6318 26.7462 22.2803 26.4575ZM35.4199 7.79441C35.6543 8.19856 35.9839 8.57384 36.4087 8.92026C36.8335 9.26667 37.1777 9.43988 37.4414 9.43988C37.1777 9.1512 36.8774 8.86252 36.5405 8.57384C36.2036 8.28517 35.8301 8.02536 35.4199 7.79441ZM16.9189 21.6943V21.4345L16.084 21.5644V21.8242L16.9189 21.6943ZM13.2715 8.39233e-05C13.3887 0.17329 13.5132 0.29598 13.645 0.368151C13.7769 0.440319 13.96 0.505272 14.1943 0.563007C14.3115 0.563007 14.4507 0.591875 14.6118 0.649612C14.7729 0.707348 14.9121 0.793951 15.0293 0.909422C15.1465 1.02489 15.2637 1.08263 15.3809 1.08263C15.498 1.08263 15.6152 0.981592 15.7324 0.779516C15.791 0.837254 15.835 0.902206 15.8643 0.974375C15.8936 1.04655 15.9375 1.14037 15.9961 1.25584C15.9961 1.1981 16.0107 1.16202 16.04 1.14758C16.0693 1.13315 16.084 1.09706 16.084 1.03933H16.3477C16.4062 1.03933 16.4429 1.06098 16.4575 1.10428C16.4722 1.14758 16.4795 1.16923 16.4795 1.16923C16.3623 1.2847 16.2964 1.42904 16.2817 1.60225C16.2671 1.77546 16.1719 1.86206 15.9961 1.86206C15.8789 1.9198 15.791 1.97753 15.7324 2.03527C15.6738 2.09301 15.6738 2.17961 15.7324 2.29508C15.7324 2.43942 15.7178 2.56933 15.6885 2.6848C15.6592 2.80027 15.6445 2.94461 15.6445 3.11782C15.7031 3.23329 15.7764 3.35598 15.8643 3.48588C15.9521 3.61579 16.0254 3.76734 16.084 3.94055C16.084 3.94055 16.1133 3.9622 16.1719 4.0055C16.2305 4.04881 16.2891 4.07046 16.3477 4.07046C16.5234 4.07046 16.6553 4.09932 16.7432 4.15706C16.8311 4.2148 16.9336 4.3014 17.0508 4.41687C17.168 4.53234 17.2705 4.6406 17.3584 4.74163C17.4463 4.84267 17.5781 4.89319 17.7539 4.89319C17.8125 4.89319 17.8711 4.93649 17.9297 5.0231C17.9883 5.1097 18.0469 5.18187 18.1055 5.2396C18.2227 5.29734 18.3252 5.36951 18.4131 5.45611C18.501 5.54272 18.6035 5.58602 18.7207 5.58602C18.8379 5.58602 18.9478 5.54272 19.0503 5.45611C19.1528 5.36951 19.2334 5.29734 19.292 5.2396C19.4678 4.95093 19.5923 4.63338 19.6655 4.28696C19.7388 3.94055 19.7754 3.55083 19.7754 3.11782C19.7754 2.7714 19.7974 2.42499 19.8413 2.07857C19.8853 1.73216 19.9072 1.38574 19.9072 1.03933C20.083 1.1548 20.2588 1.24862 20.4346 1.32079C20.6104 1.39296 20.7861 1.48678 20.9619 1.60225C21.0205 1.65999 21.0718 1.71772 21.1157 1.77546C21.1597 1.83319 21.1816 1.89093 21.1816 1.94867V2.55489C21.1816 2.67036 21.2109 2.74975 21.2695 2.79305C21.3281 2.83635 21.416 2.82914 21.5332 2.7714C21.7383 2.71367 21.9287 2.75697 22.1045 2.90131C22.2803 3.04565 22.3682 3.20442 22.3682 3.37763C22.3682 3.66631 22.4048 3.95498 22.478 4.24366C22.5513 4.53234 22.6758 4.82102 22.8516 5.1097C22.9688 5.28291 23.02 5.49942 23.0054 5.75923C22.9907 6.01904 23.0127 6.27885 23.0713 6.53866C23.0713 6.5964 23.1006 6.65413 23.1592 6.71187C23.2178 6.7696 23.2764 6.82734 23.335 6.88507C23.5107 7.00055 23.7085 7.11602 23.9282 7.23149C24.1479 7.34696 24.3457 7.4913 24.5215 7.66451C24.5801 7.72224 24.6313 7.80163 24.6753 7.90267C24.7192 8.0037 24.7412 8.08309 24.7412 8.14083C24.917 8.37177 25.0562 8.60993 25.1587 8.85531C25.2612 9.10069 25.2832 9.36771 25.2246 9.65639H26.0596V10.1327C26.0596 10.3637 26.1182 10.5657 26.2354 10.7389C26.3525 10.9121 26.5283 11.0276 26.7627 11.0854L27.1143 11.4318C27.1729 11.605 27.2534 11.7782 27.356 11.9514C27.4585 12.1246 27.5391 12.2978 27.5977 12.471C27.7148 12.8752 27.8101 13.2793 27.8833 13.6835C27.9565 14.0876 27.9346 14.5062 27.8174 14.9392C27.7002 15.4588 27.627 15.9785 27.5977 16.4981C27.5684 17.0177 27.4805 17.5373 27.334 18.0569C27.334 18.1147 27.312 18.1941 27.2681 18.2951C27.2241 18.3961 27.1729 18.4755 27.1143 18.5333C26.7627 18.7642 26.5503 19.0457 26.4771 19.3777C26.4038 19.7096 26.3086 20.0488 26.1914 20.3952C26.1914 20.453 26.1694 20.5324 26.1255 20.6334C26.0815 20.7344 26.0596 20.8138 26.0596 20.8716C25.8252 21.1602 25.686 21.4778 25.6421 21.8242C25.5981 22.1706 25.5762 22.517 25.5762 22.8634C25.5762 23.0367 25.5249 23.1593 25.4224 23.2315C25.3198 23.3037 25.1807 23.3398 25.0049 23.3398C24.7705 23.3398 24.5361 23.3759 24.3018 23.448C24.0674 23.5202 23.8623 23.6717 23.6865 23.9027C23.5693 24.0182 23.4448 24.1336 23.313 24.2491C23.1812 24.3646 23.0273 24.48 22.8516 24.5955L22.1484 23.9027L22.0166 24.1192H21.9287V23.5563H21.7969C21.7969 23.614 21.7749 23.6645 21.731 23.7078C21.687 23.7511 21.665 23.7728 21.665 23.7728C21.6064 23.8883 21.5259 23.9893 21.4233 24.0759C21.3208 24.1625 21.2402 24.2635 21.1816 24.379C21.1816 24.379 21.123 24.3718 21.0059 24.3574C20.8887 24.3429 20.8301 24.3068 20.8301 24.2491C20.5957 23.845 20.2954 23.4985 19.9292 23.2099C19.563 22.9212 19.1162 22.6902 18.5889 22.517C18.5303 22.517 18.4937 22.4882 18.479 22.4304C18.4644 22.3727 18.4277 22.315 18.3691 22.2572C18.3691 22.1995 18.3618 22.149 18.3472 22.1057C18.3325 22.0624 18.2959 22.0407 18.2373 22.0407C18.1201 21.752 18.0103 21.5644 17.9077 21.4778C17.8052 21.3912 17.5928 21.3768 17.2705 21.4345C17.2119 21.2613 17.2559 21.0736 17.4023 20.8716C17.5488 20.6695 17.4756 20.4674 17.1826 20.2653C17.124 20.4097 17.0581 20.5324 16.9849 20.6334C16.9116 20.7344 16.8164 20.8138 16.6992 20.8716H16.4795C16.5381 20.6984 16.5967 20.5251 16.6553 20.3519C16.7139 20.1787 16.7725 20.0344 16.8311 19.9189C16.8896 19.8035 16.9409 19.688 16.9849 19.5725C17.0288 19.457 17.0508 19.3416 17.0508 19.2261V19.0096C16.9922 19.0096 16.9409 19.0168 16.897 19.0312C16.853 19.0457 16.8311 19.0818 16.8311 19.1395C16.7725 19.255 16.7139 19.3488 16.6553 19.421C16.5967 19.4931 16.5674 19.5869 16.5674 19.7024C16.5674 19.7601 16.5674 19.8107 16.5674 19.854C16.5674 19.8973 16.5381 19.9189 16.4795 19.9189C16.3037 20.0344 16.1206 20.1571 15.9302 20.287C15.7397 20.4169 15.5566 20.5685 15.3809 20.7417C15.3809 20.6839 15.3662 20.6118 15.3369 20.5251C15.3076 20.4385 15.293 20.3519 15.293 20.2653C15.293 20.0344 15.249 19.8323 15.1611 19.6591C15.0732 19.4859 14.9121 19.3416 14.6777 19.2261C14.6191 19.1684 14.5825 19.1106 14.5679 19.0529C14.5532 18.9952 14.5459 18.9374 14.5459 18.8797C14.5459 18.7065 14.5166 18.5621 14.458 18.4467C14.3994 18.3312 14.2822 18.2446 14.1064 18.1869C14.0479 18.1869 13.9673 18.1652 13.8647 18.1219C13.7622 18.0786 13.6816 18.0569 13.623 18.0569C13.4473 18.0569 13.2715 18.0281 13.0957 17.9703C12.9199 17.9126 12.7734 17.826 12.6562 17.7105C12.6562 17.7105 12.6343 17.6961 12.5903 17.6672C12.5464 17.6384 12.4951 17.6239 12.4365 17.6239C12.1436 17.6817 11.8506 17.725 11.5576 17.7538C11.2646 17.7827 10.9717 17.8549 10.6787 17.9703C10.2979 18.0858 9.94629 18.1796 9.62402 18.2518C9.30176 18.324 8.93555 18.3023 8.52539 18.1869C8.17383 18.0714 7.82227 18.0786 7.4707 18.2085C7.11914 18.3384 6.79688 18.49 6.50391 18.6632C6.26953 18.8364 6.01318 19.0024 5.73486 19.1611C5.45654 19.3199 5.2002 19.457 4.96582 19.5725L3.55957 20.2653C3.38379 20.3519 3.18604 20.4241 2.96631 20.4818C2.74658 20.5396 2.54883 20.6262 2.37305 20.7417C2.31445 20.7417 2.25586 20.7561 2.19727 20.785C2.13867 20.8138 2.08008 20.7994 2.02148 20.7417C1.9043 20.5685 1.76514 20.4169 1.604 20.287C1.44287 20.1571 1.30371 20.0055 1.18652 19.8323L1.31836 19.4859C1.43555 19.4282 1.52344 19.356 1.58203 19.2694C1.64062 19.1828 1.66992 19.0529 1.66992 18.8797V18.6632C1.8457 18.259 1.86035 17.891 1.71387 17.559C1.56738 17.227 1.43555 16.8878 1.31836 16.5414C1.31836 16.4836 1.29639 16.4043 1.25244 16.3032C1.2085 16.2022 1.18652 16.0939 1.18652 15.9785C1.18652 15.863 1.1792 15.7619 1.16455 15.6753C1.1499 15.5887 1.11328 15.4877 1.05469 15.3722C0.878906 14.9681 0.710449 14.5856 0.549316 14.2247C0.388184 13.8639 0.249023 13.467 0.131836 13.0339C0.0732422 12.9762 0.0366211 12.904 0.0219727 12.8174C0.00732422 12.7308 0 12.6587 0 12.6009L0.351562 13.0339C0.410156 12.9185 0.461426 12.8246 0.505371 12.7525C0.549316 12.6803 0.571289 12.5865 0.571289 12.471C0.571289 12.3555 0.527344 12.2401 0.439453 12.1246C0.351562 12.0091 0.27832 11.9225 0.219727 11.8648C0.0439453 11.5761 -0.0219727 11.3163 0.0219727 11.0854C0.065918 10.8544 0.175781 10.609 0.351562 10.3492C0.644531 9.94507 0.959473 9.577 1.29639 9.24502C1.6333 8.91304 2.06543 8.66045 2.59277 8.48724C2.88574 8.37177 3.16406 8.213 3.42773 8.01092C3.69141 7.80885 3.96973 7.62121 4.2627 7.448C4.2627 7.39026 4.28467 7.35418 4.32861 7.33974C4.37256 7.32531 4.42383 7.31809 4.48242 7.31809C4.7168 7.31809 4.90723 7.28922 5.05371 7.23149C5.2002 7.17375 5.33203 7.05828 5.44922 6.88507C5.50781 6.7696 5.58838 6.66857 5.69092 6.58196C5.79346 6.49536 5.87402 6.39432 5.93262 6.27885C6.0498 6.16338 6.13037 6.04069 6.17432 5.91078C6.21826 5.78088 6.21094 5.62932 6.15234 5.45611C6.15234 5.22517 6.22559 5.03753 6.37207 4.89319C6.51855 4.74885 6.65039 4.59008 6.76758 4.41687C6.82617 4.53234 6.86279 4.66946 6.87744 4.82824C6.89209 4.98701 6.92871 5.12413 6.9873 5.2396C7.10449 5.18187 7.17041 5.1097 7.18506 5.0231C7.19971 4.93649 7.20703 4.66225 7.20703 4.20036L7.82227 4.28696C7.64648 3.99829 7.68311 3.76734 7.93213 3.59414C8.18115 3.42093 8.30566 3.18999 8.30566 2.90131L8.74512 3.03121V2.7714C8.8623 2.71367 8.96484 2.64149 9.05273 2.55489C9.14062 2.46829 9.24316 2.38169 9.36035 2.29508H9.58008C9.75586 2.49716 9.93896 2.64871 10.1294 2.74975C10.3198 2.85079 10.415 3.01678 10.415 3.24772C10.415 3.24772 10.4224 3.26937 10.437 3.31267C10.4517 3.35598 10.4883 3.40649 10.5469 3.46423C10.6055 3.34876 10.6421 3.25494 10.6567 3.18277C10.6714 3.1106 10.708 3.01678 10.7666 2.90131L11.4697 3.37763C11.4697 3.31989 11.4917 3.28381 11.5356 3.26937C11.5796 3.25494 11.6016 3.24772 11.6016 3.24772C11.3672 2.84357 11.3599 2.48272 11.5796 2.16518C11.7993 1.84763 11.9678 1.51565 12.085 1.16923C12.1436 1.05376 12.2168 0.945507 12.3047 0.844469C12.3926 0.743433 12.5537 0.721781 12.7881 0.779516H13.1396C13.374 0.721781 13.5205 0.656828 13.5791 0.58466C13.6377 0.512489 13.5645 0.389801 13.3594 0.216593C13.2422 0.216593 13.1982 0.180508 13.2275 0.108337C13.2568 0.036171 13.2715 8.39233e-05 13.2715 8.39233e-05ZM37.8809 31.9568C37.7637 31.8991 37.6685 31.863 37.5952 31.8486C37.522 31.8341 37.4268 31.7981 37.3096 31.7403C37.251 31.6826 37.1777 31.6032 37.0898 31.5022C37.002 31.4011 36.9873 31.3217 37.0459 31.264C37.1045 31.0908 37.1484 30.9176 37.1777 30.7444C37.207 30.5712 37.2949 30.4268 37.4414 30.3114C37.6758 30.0804 37.9321 29.8495 38.2104 29.6185C38.4888 29.3876 38.7744 29.1566 39.0674 28.9257C39.3604 28.7814 39.6094 28.5865 39.8145 28.3411C40.0195 28.0958 40.166 27.8287 40.2539 27.54C40.3125 27.2802 40.4004 27.0637 40.5176 26.8905C40.6348 26.7173 40.752 26.5441 40.8691 26.3709C40.8691 26.3709 40.9277 26.3565 41.0449 26.3276C41.1621 26.2987 41.2207 26.3132 41.2207 26.3709C41.3379 26.6018 41.4624 26.6884 41.5942 26.6307C41.7261 26.573 41.8799 26.4864 42.0557 26.3709C42.1729 26.4864 42.2461 26.6596 42.2754 26.8905C42.3047 27.1215 42.2607 27.2947 42.1436 27.4101C42.085 27.5256 42.0264 27.6411 41.9678 27.7566C41.9092 27.872 41.8213 27.9875 41.7041 28.103C41.7041 28.1607 41.6748 28.1968 41.6162 28.2112C41.5576 28.2257 41.499 28.2329 41.4404 28.2329C41.2646 28.2329 41.1108 28.2978 40.979 28.4277C40.8472 28.5576 40.7227 28.6803 40.6055 28.7958C40.4297 29.0267 40.2759 29.2793 40.144 29.5536C40.0122 29.8278 39.8877 30.0804 39.7705 30.3114C39.7119 30.3691 39.6533 30.4268 39.5947 30.4846C39.5361 30.5423 39.4482 30.5712 39.3311 30.5712C39.2139 30.6289 39.0967 30.6866 38.9795 30.7444C38.8623 30.8021 38.7744 30.8599 38.7158 30.9176C38.6572 30.9753 38.5986 31.0258 38.54 31.0691C38.4814 31.1124 38.4229 31.1341 38.3643 31.1341C38.3643 31.4228 38.313 31.6176 38.2104 31.7187C38.1079 31.8197 37.998 31.8991 37.8809 31.9568ZM43.2422 22.8634V22.517H43.3301C43.3887 22.5748 43.4473 22.6325 43.5059 22.6902C43.5645 22.748 43.5938 22.8346 43.5938 22.9501C43.6523 23.2099 43.7476 23.4119 43.8794 23.5563C44.0112 23.7006 44.2236 23.7728 44.5166 23.7728C44.5752 23.7728 44.6558 23.7511 44.7583 23.7078C44.8608 23.6645 44.9414 23.614 45 23.5563C44.5898 24.1336 44.165 24.7038 43.7256 25.2667C43.2861 25.8296 43.0371 26.4575 42.9785 27.1503H42.8467C42.8467 27.0926 42.832 27.0421 42.8027 26.9988C42.7734 26.9555 42.7588 26.9338 42.7588 26.9338V26.8039C42.876 26.3998 42.9419 26.14 42.9565 26.0245C42.9712 25.909 42.7441 25.7069 42.2754 25.4183C42.041 25.245 41.9238 25.1079 41.9238 25.0069C41.9238 24.9059 42.041 24.7687 42.2754 24.5955C42.334 24.5378 42.3853 24.48 42.4292 24.4223C42.4731 24.3646 42.4951 24.3068 42.4951 24.2491C42.5537 24.1336 42.5903 23.9965 42.605 23.8377C42.6196 23.679 42.627 23.5418 42.627 23.4264C42.627 23.3686 42.605 23.2892 42.561 23.1882C42.5171 23.0872 42.4951 23.0078 42.4951 22.9501C42.3193 22.7191 42.1509 22.4737 41.9897 22.2139C41.8286 21.9541 41.6895 21.6943 41.5723 21.4345C41.5137 21.3768 41.4771 21.319 41.4624 21.2613C41.4478 21.2035 41.4404 21.1169 41.4404 21.0015C41.6748 20.9437 41.8799 20.9726 42.0557 21.0881C42.2314 21.2035 42.3486 21.4056 42.4072 21.6943C42.4658 21.8675 42.5098 22.0407 42.5391 22.2139C42.5684 22.3871 42.6416 22.5603 42.7588 22.7335C42.8174 22.6758 42.8979 22.6686 43.0005 22.7119C43.103 22.7552 43.1836 22.8057 43.2422 22.8634ZM22.2803 26.4575C22.6318 26.6884 22.9468 26.7245 23.2251 26.5658C23.5034 26.407 23.8184 26.2987 24.1699 26.241C24.1699 26.5297 24.2139 26.7823 24.3018 26.9988C24.3896 27.2153 24.3457 27.4679 24.1699 27.7566C24.1113 27.8143 24.0967 27.8937 24.126 27.9947C24.1553 28.0958 24.1699 28.1751 24.1699 28.2329C24.1699 28.3483 24.1406 28.4422 24.082 28.5143C24.0234 28.5865 23.9355 28.5649 23.8184 28.4494C23.7598 28.5071 23.7158 28.5721 23.6865 28.6442C23.6572 28.7164 23.6133 28.8102 23.5547 28.9257C23.3203 28.5216 23.1079 28.1102 22.9175 27.6916C22.7271 27.273 22.5146 26.8616 22.2803 26.4575ZM35.4199 7.79441C35.8887 8.02536 36.2769 8.27073 36.5845 8.53054C36.8921 8.79035 37.1777 9.09347 37.4414 9.43988C37.1777 9.49762 36.8335 9.35328 36.4087 9.00686C35.9839 8.66045 35.6543 8.2563 35.4199 7.79441ZM16.9189 21.6943L16.084 21.8242V21.5644L16.9189 21.4345V21.6943Z" fill="#12499E"/>
</svg>
