<svg width="42" height="42" viewBox="0 0 42 42" fill="none" xmlns="http://www.w3.org/2000/svg">
<rect width="42" height="42" rx="21" fill="#3FB655" fill-opacity="0.1"/>
<path d="M21.0013 34.3337C28.3651 34.3337 34.3346 28.3641 34.3346 21.0003C34.3346 13.6365 28.3651 7.66699 21.0013 7.66699C13.6375 7.66699 7.66797 13.6365 7.66797 21.0003C7.66797 28.3641 13.6375 34.3337 21.0013 34.3337Z" stroke="#3FB655" stroke-width="2" stroke-linecap="round" stroke-linejoin="round"/>
<path d="M21 29C25.4183 29 29 25.4183 29 21C29 16.5817 25.4183 13 21 13C16.5817 13 13 16.5817 13 21C13 25.4183 16.5817 29 21 29Z" stroke="#3FB655" stroke-width="2" stroke-linecap="round" stroke-linejoin="round"/>
<path d="M20.9987 23.6663C22.4715 23.6663 23.6654 22.4724 23.6654 20.9997C23.6654 19.5269 22.4715 18.333 20.9987 18.333C19.5259 18.333 18.332 19.5269 18.332 20.9997C18.332 22.4724 19.5259 23.6663 20.9987 23.6663Z" stroke="#3FB655" stroke-width="2" stroke-linecap="round" stroke-linejoin="round"/>
</svg>
