<svg width="42" height="42" viewBox="0 0 42 42" fill="none" xmlns="http://www.w3.org/2000/svg">
<rect width="42" height="42" rx="21" fill="#3FB655" fill-opacity="0.1"/>
<path d="M21.5 15.458V32.3747" stroke="#3FB655" stroke-width="2" stroke-linecap="round" stroke-linejoin="round"/>
<path d="M10.6263 28.75C10.3058 28.75 9.99849 28.6227 9.77188 28.3961C9.54527 28.1695 9.41797 27.8621 9.41797 27.5417V11.8333C9.41797 11.5129 9.54527 11.2055 9.77188 10.9789C9.99849 10.7523 10.3058 10.625 10.6263 10.625H16.668C17.9498 10.625 19.1792 11.1342 20.0857 12.0407C20.9921 12.9471 21.5013 14.1765 21.5013 15.4583C21.5013 14.1765 22.0105 12.9471 22.917 12.0407C23.8234 11.1342 25.0528 10.625 26.3346 10.625H32.3763C32.6968 10.625 33.0041 10.7523 33.2307 10.9789C33.4573 11.2055 33.5846 11.5129 33.5846 11.8333V27.5417C33.5846 27.8621 33.4573 28.1695 33.2307 28.3961C33.0041 28.6227 32.6968 28.75 32.3763 28.75H25.1263C24.1649 28.75 23.2429 29.1319 22.563 29.8117C21.8832 30.4916 21.5013 31.4136 21.5013 32.375C21.5013 31.4136 21.1194 30.4916 20.4396 29.8117C19.7597 29.1319 18.8377 28.75 17.8763 28.75H10.6263Z" stroke="#3FB655" stroke-width="2" stroke-linecap="round" stroke-linejoin="round"/>
</svg>
