<svg width="15" height="16" viewBox="0 0 15 16" fill="none" xmlns="http://www.w3.org/2000/svg">
<path d="M10.7692 10.3868C12.6164 9.35434 14.029 8.56773 14.1497 8.50628C14.536 8.29733 14.9345 7.74425 14.1497 7.31408C13.8962 7.17888 12.5319 6.41685 10.7692 5.43359L8.34253 7.91632L10.7692 10.3868Z" fill="#FFD400"/>
<path d="M8.34251 7.9165L0.591553 15.8686C0.77265 15.8932 0.977893 15.844 1.21936 15.7088C1.72643 15.4261 7.11105 12.4272 10.7692 10.3869L8.34251 7.9165Z" fill="#FF3333"/>
<path d="M8.34262 7.91658L10.7693 5.43385C10.7693 5.43385 1.76276 0.431526 1.21947 0.136548C1.01422 0.0136408 0.784833 -0.0232314 0.57959 0.0136408L8.34262 7.91658Z" fill="#48FF48"/>
<path d="M8.34254 7.91662L0.579511 0.0136719C0.265609 0.0874163 0 0.370104 0 0.947768C0 1.86957 0 14.1603 0 14.9346C0 15.4631 0.205244 15.8441 0.591584 15.881L8.34254 7.91662Z" fill="#3BCCFF"/>
</svg>
