<svg width="21" height="20" viewBox="0 0 21 20" fill="none" xmlns="http://www.w3.org/2000/svg">
<path d="M10.8422 10.8334L10.8422 17.5C10.8422 17.7211 10.93 17.933 11.0863 18.0893C11.2426 18.2456 11.4546 18.3334 11.6756 18.3334L18.3422 18.3334C18.5633 18.3334 18.7752 18.2456 18.9315 18.0893C19.0878 17.933 19.1756 17.7211 19.1756 17.5L19.1756 10.8334C19.1756 10.6124 19.0878 10.4004 18.9315 10.2441C18.7752 10.0878 18.5633 10 18.3422 10L11.6756 10C11.4546 10 11.2426 10.0878 11.0863 10.2441C10.93 10.4004 10.8422 10.6124 10.8422 10.8334ZM17.5089 11.6667L17.5089 16.6667L12.5089 16.6667L12.5089 11.6667L17.5089 11.6667ZM3.02558 1.73337C2.82195 1.81794 2.66014 1.97975 2.57558 2.18337C2.53288 2.28356 2.51023 2.39114 2.50891 2.50004L2.50891 7.50004C2.50891 7.72105 2.59671 7.93302 2.75299 8.0893C2.90927 8.24558 3.12123 8.33337 3.34224 8.33337C3.56326 8.33337 3.77522 8.24558 3.9315 8.0893C4.08778 7.93302 4.17558 7.72105 4.17558 7.50004L4.17558 4.50837L8.58391 8.92504C8.66138 9.00315 8.75355 9.06514 8.8551 9.10745C8.95665 9.14976 9.06557 9.17154 9.17558 9.17154C9.28559 9.17154 9.39451 9.14976 9.49606 9.10745C9.59761 9.06514 9.68978 9.00315 9.76724 8.92504C9.84535 8.84757 9.90735 8.7554 9.94965 8.65385C9.99196 8.5523 10.0137 8.44338 10.0137 8.33337C10.0137 8.22336 9.99196 8.11444 9.94965 8.01289C9.90735 7.91134 9.84535 7.81918 9.76724 7.74171L5.35058 3.33337L8.34224 3.33337C8.56326 3.33337 8.77522 3.24558 8.9315 3.0893C9.08778 2.93302 9.17558 2.72105 9.17558 2.50004C9.17558 2.27903 9.08778 2.06706 8.9315 1.91078C8.77522 1.7545 8.56326 1.66671 8.34224 1.66671L3.34224 1.66671C3.23335 1.66802 3.12576 1.69067 3.02558 1.73337Z" fill="white"/>
</svg>
