<svg width="260" height="244" viewBox="0 0 260 244" fill="none" xmlns="http://www.w3.org/2000/svg">
<path d="M211.593 91.8231H255.504L259.5 87.8274V47.9061L255.504 43.917H211.593L207.598 39.9212V3.98914L203.609 0H155.696L151.707 3.98914V39.9212L147.711 43.917H103.804C93.1551 43.917 84.1 45.3781 76.6485 48.307C69.197 51.2393 64.6778 53.6314 63.0808 55.4935C61.4805 57.3588 60.4169 58.8233 59.8868 59.8835H55.8977L51.9019 47.9061L47.9061 43.917H3.99576L0 47.9061V239.537L3.99576 243.53H51.9019L55.8977 239.537V143.722C55.8977 125.625 59.2838 112.451 66.0726 104.198C72.8615 95.9481 84.1 91.8231 99.8081 91.8231H147.711L151.707 95.8156V183.646C151.707 204.142 158.098 219.244 170.867 228.958C183.643 238.679 199.878 243.53 219.575 243.53H255.504L259.5 239.537V199.616L255.504 195.624H219.575C211.593 195.624 207.598 191.631 207.598 183.646V95.8156L211.593 91.8231Z" fill="#12499E"/>
</svg>
