<svg width="176" height="208" viewBox="0 0 176 208" fill="none" xmlns="http://www.w3.org/2000/svg">
<path d="M159.095 103.204C154.705 99.3442 148.914 95.9581 141.73 93.0225C134.541 90.0969 128.756 88.0991 124.362 87.0322C119.972 85.9753 114.443 84.9051 107.793 83.8415C105.129 83.3114 100.54 82.6421 94.0198 81.8437C87.4961 81.0485 82.9072 80.3163 80.2467 79.6503C77.5862 78.9876 74.2597 77.9871 70.2639 76.6551C66.2747 75.3265 63.5413 73.66 62.0802 71.6654C60.619 69.6675 59.8868 67.0732 59.8868 63.876C59.8868 58.0248 62.0139 53.8965 66.2747 51.501C70.5323 49.1088 77.7154 47.9095 87.834 47.9095C106.458 47.9095 115.778 51.9019 115.778 59.8868L119.774 63.876H167.68L171.669 59.8868C171.669 40.723 163.949 25.9526 148.513 15.5755C133.08 5.19185 112.846 0 87.834 0C59.6185 0 38.5926 5.6557 24.7499 16.9671C10.9105 28.2851 3.99577 42.5851 3.99577 59.8868C3.99577 93.9602 29.2758 115.251 79.8491 123.763C81.9762 124.034 85.1668 124.498 89.431 125.161C93.6852 125.827 96.6804 126.36 98.4099 126.755C100.139 127.159 102.535 127.692 105.6 128.355C108.654 129.024 110.719 129.75 111.789 130.548C112.846 131.347 114.181 132.347 115.778 133.54C117.375 134.74 118.438 136.207 118.975 137.937C119.502 139.67 119.774 141.595 119.774 143.725C119.774 154.374 109.125 159.695 87.834 159.695C77.1819 159.695 69.197 158.237 63.8826 155.301C58.5516 152.376 55.8911 147.187 55.8911 139.729L51.9019 135.743H3.99577L0 139.729C0 159.96 7.78944 176.331 23.3617 188.838C38.9273 201.352 60.4169 207.604 87.834 207.604C117.637 207.604 139.733 201.415 154.105 189.037C168.478 176.659 175.661 161.557 175.661 143.725C175.661 134.68 173.998 126.622 170.672 119.572C167.342 112.521 163.485 107.064 159.095 103.204Z" fill="#12499E"/>
</svg>
