<svg width="42" height="42" viewBox="0 0 42 42" fill="none" xmlns="http://www.w3.org/2000/svg">
<path d="M26.25 35L31.5 29.75H35C35.9283 29.75 36.8185 29.3813 37.4749 28.7249C38.1313 28.0685 38.5 27.1783 38.5 26.25V10.5C38.5 9.57174 38.1313 8.6815 37.4749 8.02513C36.8185 7.36875 35.9283 7 35 7H7C6.07174 7 5.1815 7.36875 4.52513 8.02513C3.86875 8.6815 3.5 9.57174 3.5 10.5V26.25C3.5 27.1783 3.86875 28.0685 4.52513 28.7249C5.1815 29.3813 6.07174 29.75 7 29.75H10.5L15.75 35H26.25Z" stroke="#12499E" stroke-width="1.5" stroke-linecap="round" stroke-linejoin="round"/>
<path d="M10.5 14V15.75" stroke="#12499E" stroke-width="1.5" stroke-linecap="round" stroke-linejoin="round"/>
<path d="M17.5 14V15.75" stroke="#12499E" stroke-width="1.5" stroke-linecap="round" stroke-linejoin="round"/>
<path d="M24.5 14V15.75" stroke="#12499E" stroke-width="1.5" stroke-linecap="round" stroke-linejoin="round"/>
<path d="M31.5 14V15.75" stroke="#12499E" stroke-width="1.5" stroke-linecap="round" stroke-linejoin="round"/>
</svg>
