<svg id="Layer_1" data-name="Layer 1" xmlns="http://www.w3.org/2000/svg" viewBox="0 0 117.12 95.4"><defs><style>.cls-1{fill:#41b655;}</style></defs><title>Icon</title><path class="cls-1" d="M30,.08a29.93,29.93,0,0,0,0,59.85h1.71l.07-36.75a5.72,5.72,0,0,1,5.72-5.71H69.35V.08Z"/><path class="cls-1" d="M84.05,82.53v10h-2V86l-2.68,6.49H77.86L75.17,86v6.49h-2v-10h2.27L78.62,90l3.17-7.42Zm-14.72.78a1.17,1.17,0,0,1,0-1.67,1.25,1.25,0,0,1,.88-.33,1.23,1.23,0,0,1,.88.33,1.17,1.17,0,0,1,0,1.67,1.2,1.2,0,0,1-.88.34,1.21,1.21,0,0,1-.88-.34m1.87,9.2h-2V84.59h2Zm-9.14-.26a3,3,0,0,1-1.32-1,2.57,2.57,0,0,1-.5-1.58h2.14a1.36,1.36,0,0,0,.44,1,1.52,1.52,0,0,0,1.07.36A1.71,1.71,0,0,0,65,90.63a1.11,1.11,0,0,0,.4-.88,1,1,0,0,0-.28-.73,1.84,1.84,0,0,0-.68-.45,10,10,0,0,0-1.12-.36,11.45,11.45,0,0,1-1.58-.57,2.69,2.69,0,0,1-1-.84,2.42,2.42,0,0,1-.44-1.51,2.66,2.66,0,0,1,.45-1.54,2.84,2.84,0,0,1,1.24-1,4.56,4.56,0,0,1,1.83-.35,4,4,0,0,1,2.51.75,2.77,2.77,0,0,1,1.06,2.1h-2.2a1.13,1.13,0,0,0-.43-.85,1.63,1.63,0,0,0-1.08-.34,1.4,1.4,0,0,0-.94.3,1.09,1.09,0,0,0-.35.87.9.9,0,0,0,.27.67,1.87,1.87,0,0,0,.65.42,11.38,11.38,0,0,0,1.11.38,11.51,11.51,0,0,1,1.59.58,2.77,2.77,0,0,1,1,.85,2.35,2.35,0,0,1,.45,1.5,2.8,2.8,0,0,1-.42,1.49,2.86,2.86,0,0,1-1.21,1.09,4.06,4.06,0,0,1-1.9.41,4.7,4.7,0,0,1-1.88-.36M59,89.15H53.19a2,2,0,0,0,.6,1.35,1.87,1.87,0,0,0,1.3.48,1.65,1.65,0,0,0,1.59-1h2.16a3.58,3.58,0,0,1-1.32,1.88,3.85,3.85,0,0,1-2.39.74,4.13,4.13,0,0,1-2.05-.51,3.53,3.53,0,0,1-1.41-1.43,4.41,4.41,0,0,1-.51-2.15,4.53,4.53,0,0,1,.5-2.16A3.51,3.51,0,0,1,53.06,85a4.49,4.49,0,0,1,4.1,0,3.4,3.4,0,0,1,1.38,1.38,4.14,4.14,0,0,1,.49,2,4.53,4.53,0,0,1-.05.77m-2-1.34a1.59,1.59,0,0,0-.55-1.24,2,2,0,0,0-1.33-.46,1.79,1.79,0,0,0-1.25.45,2,2,0,0,0-.63,1.25ZM87.12,35.48H85.41V72.22a5.72,5.72,0,0,1-5.72,5.71H47.78V95.32H87.12a29.92,29.92,0,1,0,0-59.84"/><path class="cls-1" d="M88.81,37.19V21.67a7.54,7.54,0,0,0-7.53-7.53H37.5a9.06,9.06,0,0,0-9.12,9l-.06,33.34h0V73.73a7.54,7.54,0,0,0,7.54,7.53H79.69a9.06,9.06,0,0,0,9.12-9v-35ZM81.28,17.52a4.16,4.16,0,0,1,4.15,4.15V35.5H83.89v0H69.77v-18Zm-30.53-.07H66.39v18H50.75Zm-19,5.73a5.74,5.74,0,0,1,5.74-5.73h9.83V38.9H83.89v0h1.54V56.5H49v0H31.7ZM66.39,78H50.73v-18H66.39Zm-19-.08H35.85a4.16,4.16,0,0,1-4.16-4.15V59.91H47.35ZM79.69,78H69.77v-18H85.43V72.22A5.75,5.75,0,0,1,79.69,78"/></svg>