<svg width="29" height="45" viewBox="0 0 29 45" fill="none" xmlns="http://www.w3.org/2000/svg">
<path d="M6.9873 0.000213623H7.25098L7.60254 0.693043C7.71973 0.866249 7.91016 1.02502 8.17383 1.16936C8.4375 1.3137 8.71582 1.35701 9.00879 1.29927H10.1953C10.3125 1.24153 10.4297 1.1838 10.5469 1.12606C10.6641 1.06833 10.7812 1.03946 10.8984 1.03946C11.0156 1.03946 11.1548 1.02502 11.3159 0.996155C11.477 0.967289 11.6162 0.952854 11.7334 0.952854V1.03946C11.6162 1.09719 11.5649 1.17658 11.5796 1.27762C11.5942 1.37865 11.6016 1.45804 11.6016 1.51578C11.6602 1.74672 11.7627 1.91993 11.9092 2.0354C12.0557 2.15087 12.3193 2.20861 12.7002 2.20861C12.7588 2.20861 12.832 2.21582 12.9199 2.23026C13.0078 2.24469 13.0811 2.28078 13.1396 2.33851C13.3154 2.45398 13.5278 2.56224 13.7769 2.66328C14.0259 2.76431 14.1797 2.93031 14.2383 3.16125V3.24785C14.3555 3.36332 14.4727 3.46436 14.5898 3.55096C14.707 3.63757 14.8535 3.73861 15.0293 3.85408C15.0879 3.85408 15.1685 3.83242 15.271 3.78912C15.3735 3.74582 15.4248 3.72417 15.4248 3.72417C15.542 3.89738 15.6592 3.96233 15.7764 3.91903C15.8936 3.87573 16.0107 3.85408 16.1279 3.85408C16.2451 3.85408 16.3843 3.87573 16.5454 3.91903C16.7065 3.96233 16.8457 4.01285 16.9629 4.07059C17.1387 4.18606 17.3145 4.32318 17.4902 4.48195C17.666 4.64073 17.8418 4.77785 18.0176 4.89332C18.1348 4.95106 18.2007 5.01601 18.2153 5.08818C18.23 5.16035 18.208 5.25417 18.1494 5.36964C18.0908 5.42738 18.0688 5.5212 18.0835 5.6511C18.0981 5.78101 18.1934 5.87483 18.3691 5.93256C18.5449 5.9903 18.6548 6.0769 18.6987 6.19238C18.7427 6.30785 18.8232 6.42332 18.9404 6.53879C19.0576 6.59653 19.1162 6.67591 19.1162 6.77695C19.1162 6.87799 19.0576 6.95737 18.9404 7.01511C18.8818 7.07285 18.8232 7.10893 18.7646 7.12336C18.7061 7.1378 18.6475 7.17388 18.5889 7.23162C18.5303 7.28936 18.479 7.32544 18.4351 7.33987C18.3911 7.35431 18.3691 7.39039 18.3691 7.44813L18.5889 7.70794C18.5889 7.6502 18.6108 7.59247 18.6548 7.53473C18.6987 7.477 18.7207 7.41926 18.7207 7.36153C18.7793 7.24605 18.8599 7.15945 18.9624 7.10172C19.0649 7.04398 19.1748 7.04398 19.292 7.10172C19.4385 7.15945 19.5703 7.2244 19.6875 7.29657C19.8047 7.36874 19.9219 7.46256 20.0391 7.57803L19.4238 8.27086L19.5557 8.40077L20.3906 7.92445C20.6836 8.15539 21.0059 8.31416 21.3574 8.40077C21.709 8.48737 22.0898 8.55954 22.5 8.61728V9.0936C22.5586 9.0936 22.6172 9.0936 22.6758 9.0936C22.7344 9.0936 22.793 9.0503 22.8516 8.96369H24.6533C24.9463 8.90596 25.2319 8.92761 25.5103 9.02864C25.7886 9.12968 26.0156 9.2668 26.1914 9.44001C26.3672 9.61322 26.543 9.76477 26.7187 9.89468C26.8945 10.0246 27.0703 10.1473 27.2461 10.2627C27.4805 10.3782 27.6709 10.5009 27.8174 10.6308C27.9639 10.7607 28.0957 10.9123 28.2129 11.0855C28.3301 11.3164 28.3447 11.5762 28.2568 11.8649C28.1689 12.1536 28.0664 12.4423 27.9492 12.731C27.8906 12.8464 27.854 12.9547 27.8394 13.0557C27.8247 13.1568 27.7881 13.2361 27.7295 13.2939C27.7295 13.3516 27.7222 13.4093 27.7075 13.4671C27.6929 13.5248 27.6562 13.5537 27.5977 13.5537C27.4219 13.6114 27.29 13.6908 27.2021 13.7918C27.1143 13.8929 27.0117 14.0011 26.8945 14.1166C26.6602 14.3476 26.4404 14.5641 26.2353 14.7661C26.0303 14.9682 25.8984 15.1847 25.8398 15.4157V15.8487C25.8398 15.9353 25.8545 16.0219 25.8838 16.1085C25.9131 16.1951 25.9277 16.2673 25.9277 16.325V17.9705C25.8105 18.1437 25.7007 18.3169 25.5981 18.4901C25.4956 18.6633 25.415 18.8365 25.3564 19.0097C25.2393 19.1829 25.1514 19.3778 25.0928 19.5943C25.0342 19.8108 25.0049 20.0057 25.0049 20.1789C25.0049 20.4098 24.917 20.5541 24.7412 20.6119C24.5654 20.6696 24.4189 20.7562 24.3018 20.8717C24.0088 21.0449 23.6792 21.1459 23.313 21.1748C22.9468 21.2037 22.6465 21.348 22.4121 21.6078H22.2803C22.1045 21.7233 21.9214 21.8171 21.731 21.8893C21.5405 21.9615 21.3281 22.0553 21.0937 22.1707C20.9766 22.2285 20.8594 22.3079 20.7422 22.4089C20.625 22.5099 20.5078 22.6182 20.3906 22.7337C20.3906 22.7337 20.3833 22.7625 20.3687 22.8203C20.354 22.878 20.3174 22.9357 20.2588 22.9935C20.1416 23.1667 20.0903 23.3615 20.105 23.5781C20.1196 23.7946 20.127 24.0327 20.127 24.2925C20.127 24.3503 20.127 24.4008 20.127 24.4441C20.127 24.4874 20.0977 24.509 20.0391 24.509C19.8047 24.74 19.563 24.9565 19.314 25.1586C19.0649 25.3607 18.9111 25.606 18.8525 25.8947C18.7939 25.8947 18.7134 25.9164 18.6108 25.9597C18.5083 26.003 18.4277 26.0246 18.3691 26.0246C18.3105 26.1978 18.252 26.3494 18.1934 26.4793C18.1348 26.6092 18.0762 26.7607 18.0176 26.934C17.959 27.136 17.8857 27.3381 17.7978 27.5402C17.71 27.7423 17.5488 27.901 17.3145 28.0165C17.1973 28.132 17.0728 28.2402 16.9409 28.3413C16.8091 28.4423 16.6553 28.5217 16.4795 28.5794C16.3037 28.6372 16.1279 28.666 15.9521 28.666C15.7764 28.666 15.6006 28.7238 15.4248 28.8392H15.293C15.1172 28.7815 14.9414 28.7238 14.7656 28.666C14.5898 28.6083 14.4141 28.5794 14.2383 28.5794H13.9746C13.9746 28.6372 13.9819 28.6949 13.9966 28.7526C14.0112 28.8104 14.0479 28.8392 14.1064 28.8392C14.165 28.897 14.231 28.9258 14.3042 28.9258C14.3774 28.9258 14.4727 28.9258 14.5898 28.9258C14.707 28.9836 14.7876 29.0269 14.8315 29.0557C14.8755 29.0846 14.8682 29.1568 14.8096 29.2723C14.751 29.3877 14.729 29.496 14.7437 29.597C14.7583 29.6981 14.8535 29.7486 15.0293 29.7486C15.1758 29.8063 15.249 29.8713 15.249 29.9434C15.249 30.0156 15.2197 30.1094 15.1611 30.2249L14.458 30.9177C14.1064 31.1487 13.7183 31.3363 13.2935 31.4806C12.8687 31.625 12.3926 31.6683 11.8652 31.6105C11.8652 31.6683 11.8652 31.726 11.8652 31.7838C11.8652 31.8415 11.8945 31.8992 11.9531 31.957V32.2168C11.9531 32.2745 11.9385 32.3539 11.9092 32.4549C11.8799 32.556 11.8652 32.6354 11.8652 32.6931C11.8652 32.8086 11.8359 32.8952 11.7773 32.9529C11.7187 33.0106 11.6309 33.0684 11.5137 33.1261C11.3965 33.1261 11.2793 33.1261 11.1621 33.1261C11.0449 33.1261 10.9131 33.0972 10.7666 33.0395C10.708 33.0395 10.6274 33.0106 10.5249 32.9529C10.4224 32.8952 10.3125 32.8374 10.1953 32.7797C10.1953 32.9529 10.2173 33.0828 10.2612 33.1694C10.3052 33.256 10.3271 33.3571 10.3271 33.4725C10.3271 33.588 10.3564 33.6818 10.415 33.754C10.4736 33.8262 10.5615 33.8911 10.6787 33.9488C10.7373 33.9488 10.8032 33.9272 10.8765 33.8839C10.9497 33.8406 11.0449 33.8189 11.1621 33.8189C11.2207 33.8767 11.2646 33.9416 11.2939 34.0138C11.3232 34.086 11.3086 34.1798 11.25 34.2953C11.1914 34.353 11.1328 34.3819 11.0742 34.3819C11.0156 34.3819 10.9131 34.353 10.7666 34.2953H10.415L10.6787 34.6417C10.2686 34.6994 10.0049 34.786 9.88769 34.9015C9.77051 35.017 9.71191 35.1757 9.71191 35.3778C9.71191 35.4933 9.69726 35.6015 9.66797 35.7026C9.63867 35.8036 9.53613 35.883 9.36035 35.9407C9.24316 35.9985 9.1333 36.0562 9.03076 36.1139C8.92822 36.1717 8.84766 36.2294 8.78906 36.2871C8.61328 36.4026 8.49609 36.5253 8.4375 36.6552C8.37891 36.7851 8.37891 36.9367 8.4375 37.1099C8.49609 37.2831 8.58398 37.4058 8.70117 37.4779C8.81836 37.5501 8.99414 37.6151 9.22851 37.6728C9.3457 37.6728 9.41894 37.7017 9.44824 37.7594C9.47754 37.8171 9.49219 37.8749 9.49219 37.9326C9.49219 37.9904 9.46289 38.0481 9.4043 38.1058C9.3457 38.1636 9.28711 38.2213 9.22851 38.279C9.05273 38.51 8.84766 38.7265 8.61328 38.9286C8.37891 39.1306 8.23242 39.376 8.17383 39.6647L8.04199 39.7946C7.80762 40.0255 7.62451 40.2493 7.49268 40.4658C7.36084 40.6823 7.35352 40.9637 7.4707 41.3102C7.5293 41.4256 7.58789 41.5195 7.64648 41.5916C7.70508 41.6638 7.76367 41.7576 7.82227 41.8731C7.76367 41.8731 7.70508 41.8586 7.64648 41.8298C7.58789 41.8009 7.5293 41.7865 7.4707 41.7865C7.41211 41.7865 7.35352 41.7865 7.29492 41.7865C7.23633 41.7865 7.17773 41.8153 7.11914 41.8731L7.33887 42.1329H7.60254C7.71973 42.1329 7.79297 42.1762 7.82227 42.2628C7.85156 42.3494 7.80762 42.4216 7.69043 42.4793L7.60254 42.6092H7.69043C7.74902 42.6669 7.80762 42.7247 7.86621 42.7824C7.9248 42.8402 7.9541 42.8979 7.9541 42.9556C8.01269 43.1866 8.13721 43.367 8.32764 43.4969C8.51807 43.6268 8.78906 43.7206 9.14062 43.7784C9.25781 43.7784 9.35303 43.7784 9.42627 43.7784C9.49951 43.7784 9.59473 43.8072 9.71191 43.865V43.9949C9.41894 44.0526 9.11865 44.132 8.81103 44.233C8.50342 44.3341 8.17383 44.3269 7.82227 44.2114C7.82227 44.2691 7.82959 44.3269 7.84424 44.3846C7.85889 44.4423 7.89551 44.4712 7.9541 44.4712V44.3413L7.33887 43.9949V44.3413H7.25098L6.63574 43.7784L6.50391 44.1248C6.44531 44.0093 6.37207 43.8866 6.28418 43.7567C6.19629 43.6268 6.00586 43.634 5.71289 43.7784V43.6485L6.06445 43.3886V43.0422C6.18164 43.1 6.26953 43.1577 6.32812 43.2154C6.38672 43.2732 6.44531 43.3309 6.50391 43.3886V42.9556H6.63574L6.76758 43.3886H6.89941C6.89941 43.2732 6.91406 43.1433 6.94336 42.9989C6.97266 42.8546 7.07519 42.7536 7.25098 42.6958H6.9873C6.92871 42.6958 6.87012 42.6814 6.81152 42.6525C6.75293 42.6236 6.69434 42.6092 6.63574 42.6092C6.69434 42.5515 6.73828 42.4937 6.76758 42.436C6.79687 42.3783 6.84082 42.3494 6.89941 42.3494C6.95801 42.3494 6.99463 42.3278 7.00928 42.2844C7.02393 42.2411 7.06055 42.1906 7.11914 42.1329C6.82617 42.1906 6.63574 42.2556 6.54785 42.3278C6.45996 42.3999 6.41602 42.5226 6.41602 42.6958C6.41602 42.869 6.37939 42.9845 6.30615 43.0422C6.23291 43.1 6.1084 43.1 5.93262 43.0422H5.71289V43.3886C5.6543 43.3886 5.5957 43.3886 5.53711 43.3886C5.47852 43.3886 5.44922 43.3598 5.44922 43.302C5.39062 43.2443 5.354 43.1866 5.33935 43.1288C5.32471 43.0711 5.28809 43.0134 5.22949 42.9556L5.36133 42.8257C5.36133 42.7103 5.39062 42.6309 5.44922 42.5876C5.50781 42.5443 5.625 42.5515 5.80078 42.6092C5.91797 42.6669 6.00586 42.6525 6.06445 42.5659C6.12305 42.4793 6.12305 42.3638 6.06445 42.2195L4.87793 42.6092L4.74609 42.4793C4.80469 42.4216 4.86328 42.3494 4.92187 42.2628C4.98047 42.1762 5.03906 42.1329 5.09766 42.1329C5.21484 42.0752 5.33935 42.0391 5.47119 42.0246C5.60303 42.0102 5.75684 42.003 5.93262 42.003V41.8731C5.69824 41.7576 5.47852 41.7432 5.27344 41.8298C5.06836 41.9164 4.84863 42.0174 4.61426 42.1329V41.7865L5.22949 41.5267L4.96582 41.1803L4.74609 41.5267C4.6875 41.4689 4.65088 41.4401 4.63623 41.4401C4.62158 41.4401 4.58496 41.4401 4.52637 41.4401C4.52637 41.3823 4.50439 41.339 4.46045 41.3102C4.4165 41.2813 4.39453 41.238 4.39453 41.1803L4.61426 40.9637C4.55566 40.9637 4.49707 40.9493 4.43848 40.9204C4.37988 40.8916 4.32129 40.906 4.26269 40.9637C4.14551 40.9637 4.04297 40.9204 3.95508 40.8338C3.86719 40.7472 3.85254 40.6751 3.91113 40.6173C4.08691 40.5019 4.18213 40.3431 4.19678 40.141C4.21143 39.9389 4.27734 39.7513 4.39453 39.5781V39.3183H4.26269C4.26269 39.376 4.26269 39.4337 4.26269 39.4915C4.26269 39.5492 4.2334 39.607 4.1748 39.6647C4.1748 39.7224 4.14551 39.7585 4.08691 39.7729C4.02832 39.7874 3.96973 39.7946 3.91113 39.7946C3.79395 39.7369 3.71338 39.6719 3.66943 39.5997C3.62549 39.5276 3.66211 39.4337 3.7793 39.3183L4.1748 38.9719C4.1748 38.9141 4.1748 38.878 4.1748 38.8636C4.1748 38.8492 4.2041 38.8131 4.26269 38.7554H4.1748L3.91113 38.9719H3.7793C3.7793 38.9141 3.7793 38.8347 3.7793 38.7337C3.7793 38.6327 3.75 38.5533 3.69141 38.4955H4.1748L4.26269 38.4089C4.08691 38.3512 4.01367 38.2718 4.04297 38.1708C4.07227 38.0697 4.14551 37.9904 4.26269 37.9326C4.26269 37.9326 4.28467 37.9037 4.32861 37.846C4.37256 37.7883 4.39453 37.7305 4.39453 37.6728C4.39453 37.6728 4.37256 37.6584 4.32861 37.6295C4.28467 37.6006 4.2334 37.5862 4.1748 37.5862C4.11621 37.5862 4.05029 37.5645 3.97705 37.5212C3.90381 37.4779 3.83789 37.4563 3.7793 37.4563C3.7207 37.4563 3.69141 37.4346 3.69141 37.3913C3.69141 37.348 3.7207 37.2975 3.7793 37.2398V36.7635C3.92578 36.7057 4.03564 36.648 4.10889 36.5903C4.18213 36.5325 4.27734 36.4748 4.39453 36.4171L4.1748 36.0706L4.26269 35.9407C4.32129 35.9985 4.37988 36.0346 4.43848 36.049C4.49707 36.0634 4.52637 36.0995 4.52637 36.1572C4.52637 36.215 4.51904 36.2727 4.50439 36.3304C4.48975 36.3882 4.45312 36.4459 4.39453 36.5037C4.27734 36.6191 4.24072 36.7129 4.28467 36.7851C4.32861 36.8573 4.43848 36.9222 4.61426 36.98C4.55566 36.8645 4.54102 36.7562 4.57031 36.6552C4.59961 36.5542 4.70215 36.5037 4.87793 36.5037V35.8108C4.93652 35.5799 4.97314 35.3273 4.98779 35.053C5.00244 34.7788 5.03906 34.5262 5.09766 34.2953C5.15625 34.1798 5.16357 34.086 5.11963 34.0138C5.07568 33.9416 5.02441 33.8478 4.96582 33.7323C4.79004 33.8478 4.6875 33.9633 4.6582 34.0788C4.62891 34.1942 4.61426 34.3097 4.61426 34.4252V34.7716C4.61426 34.8871 4.58496 34.9664 4.52637 35.0097C4.46777 35.053 4.35059 35.0458 4.1748 34.9881V34.6417C4.2334 34.5262 4.25537 34.4107 4.24072 34.2953C4.22607 34.1798 4.27734 34.0643 4.39453 33.9488C4.45312 33.8911 4.4751 33.7901 4.46045 33.6457C4.4458 33.5014 4.46777 33.3715 4.52637 33.256C4.52637 33.1405 4.56299 33.0034 4.63623 32.8447C4.70947 32.6859 4.74609 32.5488 4.74609 32.4333V31.957C4.6875 31.7838 4.6582 31.6394 4.6582 31.5239C4.6582 31.4085 4.6875 31.2786 4.74609 31.1342C4.86328 30.9033 4.9585 30.694 5.03174 30.5064C5.10498 30.3187 5.1709 30.1094 5.22949 29.8785C5.28809 29.7053 5.32471 29.5104 5.33935 29.2939C5.354 29.0774 5.39062 28.8825 5.44922 28.7093C5.56641 28.3629 5.6543 28.0165 5.71289 27.6701C5.77148 27.3237 5.77148 26.9628 5.71289 26.5875C5.71289 26.5298 5.72754 26.4576 5.75684 26.371C5.78613 26.2844 5.80078 26.2123 5.80078 26.1545C5.85937 25.9813 5.896 25.8225 5.91064 25.6782C5.92529 25.5339 5.93262 25.3751 5.93262 25.2019V24.3791L6.28418 22.3873V21.4779C6.40137 21.1315 6.48193 20.7995 6.52588 20.482C6.56982 20.1644 6.5625 19.8325 6.50391 19.486C6.44531 19.3128 6.43066 19.118 6.45996 18.9015C6.48926 18.685 6.38672 18.4901 6.15234 18.3169C5.85937 18.0859 5.55908 17.855 5.25146 17.6241C4.94385 17.3931 4.58496 17.191 4.1748 17.0178C3.85254 16.9024 3.63281 16.7436 3.51562 16.5415C3.39844 16.3394 3.25195 16.1518 3.07617 15.9786V15.8487C3.01758 15.7332 2.98096 15.6177 2.96631 15.5023C2.95166 15.3868 2.91504 15.2713 2.85645 15.1559C2.73926 14.9826 2.63672 14.8094 2.54883 14.6362C2.46094 14.463 2.44629 14.2898 2.50488 14.1166C2.50488 13.8857 2.44629 13.6908 2.3291 13.532C2.21191 13.3733 2.03613 13.265 1.80176 13.2073C1.86035 13.0052 1.86768 12.8897 1.82373 12.8609C1.77979 12.832 1.72852 12.7887 1.66992 12.731C1.49414 12.4423 1.33301 12.1392 1.18652 11.8216C1.04004 11.5041 0.761719 11.2587 0.351562 11.0855C0.292969 11.0277 0.241699 10.97 0.197754 10.9123C0.153809 10.8545 0.131836 10.7968 0.131836 10.7391C0.307617 10.6236 0.344238 10.5081 0.241699 10.3927C0.13916 10.2772 0.0585937 10.1906 0 10.1328V9.78643C0.175781 9.67096 0.300293 9.5627 0.373535 9.46166C0.446777 9.36063 0.600586 9.28124 0.834961 9.2235C0.893555 9.2235 0.930176 9.20185 0.944824 9.15855C0.959473 9.11525 0.966797 9.0503 0.966797 8.96369H0.703125C0.644531 8.84822 0.571289 8.76162 0.483398 8.70388C0.395508 8.64614 0.351562 8.58841 0.351562 8.53067C0.292969 8.47294 0.263672 8.4152 0.263672 8.35747C0.263672 8.29973 0.263672 8.242 0.263672 8.18426C0.263672 8.12652 0.27832 8.06879 0.307617 8.01105C0.336914 7.95332 0.351562 7.89558 0.351562 7.83784C0.351562 7.78011 0.373535 7.73681 0.41748 7.70794C0.461426 7.67907 0.483398 7.63577 0.483398 7.57803C0.600586 7.40483 0.695801 7.25327 0.769043 7.12336C0.842285 6.99346 0.908203 6.87077 0.966797 6.7553C0.966797 6.7553 0.988769 6.74086 1.03271 6.712C1.07666 6.68313 1.12793 6.66869 1.18652 6.66869C1.30371 6.66869 1.37695 6.63983 1.40625 6.58209C1.43555 6.52436 1.47949 6.43775 1.53809 6.32228C1.53809 6.17794 1.57471 6.05525 1.64795 5.95422C1.72119 5.85318 1.8457 5.77379 2.02148 5.71606C2.19727 5.65832 2.33643 5.5212 2.43896 5.30469C2.5415 5.08818 2.56348 4.90775 2.50488 4.76342C2.50488 4.64794 2.48291 4.51804 2.43896 4.3737C2.39502 4.22936 2.37305 4.09945 2.37305 3.98398C2.37305 3.81078 2.36572 3.63035 2.35107 3.44271C2.33643 3.25507 2.27051 3.07464 2.15332 2.90144C2.62207 2.38181 3.14209 1.86219 3.71338 1.34257C4.28467 0.822948 4.98047 0.447666 5.80078 0.216724C5.85937 0.389931 5.88867 0.570354 5.88867 0.757996C5.88867 0.945637 5.83008 1.12606 5.71289 1.29927L6.06445 1.64568H6.28418V1.16936C6.22559 0.938419 6.21094 0.779648 6.24023 0.693043C6.26953 0.606438 6.40137 0.534271 6.63574 0.476536C6.75293 0.418797 6.85547 0.353844 6.94336 0.281677C7.03125 0.209507 7.0459 0.115685 6.9873 0.000213623ZM13.4033 40.9637L12.7881 41.5267H12.5684V41.3102C12.5684 41.1947 12.6489 41.0936 12.8101 41.007C12.9712 40.9204 13.1689 40.906 13.4033 40.9637ZM13.2715 41.5267C13.3887 41.4689 13.4839 41.3968 13.5571 41.3102C13.6304 41.2236 13.7402 41.1803 13.8867 41.1803C13.9453 41.1803 14.0039 41.1875 14.0625 41.2019C14.1211 41.2163 14.209 41.2524 14.3262 41.3102C14.2676 41.3679 14.2236 41.4256 14.1943 41.4834C14.165 41.5411 14.0918 41.5988 13.9746 41.6566C13.916 41.5988 13.8281 41.5628 13.7109 41.5483C13.5937 41.5339 13.4473 41.5267 13.2715 41.5267Z" fill="#12499E"/>
</svg>
