<svg width="35" height="35" viewBox="0 0 35 35" fill="none" xmlns="http://www.w3.org/2000/svg">
<path d="M21.1165 28.2535L19.7005 29.6229C19.4287 29.935 19.0937 30.1857 18.7176 30.3584C18.3415 30.531 17.933 30.6217 17.5192 30.6243C17.1054 30.6269 16.6958 30.5414 16.3176 30.3736C15.9393 30.2057 15.6011 29.9593 15.3255 29.6506L7.29297 21.8748C5.10547 19.6873 2.91797 17.2081 2.91797 13.854C2.918 12.2311 3.41029 10.6465 4.32983 9.3093C5.24937 7.97213 6.55289 6.94534 8.06823 6.36454C9.58357 5.78375 11.2394 5.67628 12.8172 6.05632C14.3949 6.43636 15.8202 7.28604 16.9048 8.49313C16.9812 8.57481 17.0736 8.63994 17.1762 8.68446C17.2788 8.72898 17.3895 8.75196 17.5013 8.75196C17.6131 8.75196 17.7238 8.72898 17.8264 8.68446C17.929 8.63994 18.0214 8.57481 18.0978 8.49313C19.179 7.27819 20.6047 6.42137 22.1849 6.03671C23.7652 5.65205 25.4251 5.7578 26.9438 6.33987C28.4625 6.92195 29.7679 7.95275 30.6863 9.29507C31.6046 10.6374 32.0924 12.2276 32.0846 13.854C32.0842 14.5899 31.9766 15.3219 31.7653 16.0269" stroke="#3FB655" stroke-width="2" stroke-linecap="round" stroke-linejoin="round"/>
<path d="M21.875 21.875H30.625" stroke="#3FB655" stroke-width="2" stroke-linecap="round" stroke-linejoin="round"/>
<path d="M26.25 17.5V26.25" stroke="#3FB655" stroke-width="2" stroke-linecap="round" stroke-linejoin="round"/>
</svg>
