<svg width="32" height="20" viewBox="0 0 32 20" fill="none" xmlns="http://www.w3.org/2000/svg">
<g id="Item &#226;&#134;&#146; Img">
<g id="Group">
<path id="Vector" d="M28.4846 0.220703H3.15403C1.8425 0.220703 0.779297 1.28384 0.779297 2.59529V16.8428C0.779297 18.1543 1.8425 19.2174 3.15403 19.2174H28.4846C29.7961 19.2174 30.8593 18.1543 30.8593 16.8428V2.59529C30.8593 1.28384 29.7961 0.220703 28.4846 0.220703Z" fill="black" fill-opacity="0.07"/>
<path id="Vector_2" fill-rule="evenodd" clip-rule="evenodd" d="M28.4845 1.0127C29.3552 1.0127 30.0676 1.72507 30.0676 2.59575V16.8433C30.0676 17.714 29.3552 18.4263 28.4845 18.4263H3.15396C2.28322 18.4263 1.5708 17.714 1.5708 16.8433V2.59575C1.5708 1.72507 2.28322 1.0127 3.15396 1.0127H28.4845Z" fill="#3D95CE"/>
<path id="Vector_3" d="M20.311 6.83779C20.311 9.26303 18.287 12.4141 16.6438 14.6264H12.892L11.3865 5.42095L14.6721 5.10275L15.4676 11.6527C16.2116 10.4131 17.129 8.46675 17.129 7.13936C17.129 6.41274 17.0071 5.91803 16.8172 5.51039L19.8091 4.89062C20.155 5.47477 20.311 6.07713 20.311 6.83779Z" fill="white"/>
</g>
</g>
</svg>
