<svg width="25" height="25" viewBox="0 0 25 25" fill="none" xmlns="http://www.w3.org/2000/svg">
<path d="M12.5 0C12.2325 0 11.9669 0.00839844 11.7035 0.0249512L1.29653 6.95005C0.466602 8.62222 0 10.5066 0 12.5C0 16.1561 1.56958 19.4455 4.07173 21.7313C4.07173 21.7313 8.14546 24.5333 12.5 24.5333C18.3264 24.5333 24.3873 19.4036 24.3873 12.5C24.3873 4.3145 16.5992 0.687647 16.5992 0.687647C15.3151 0.24209 13.9358 0 12.5 0Z" fill="#008CDF"/>
<path d="M24.8801 10.7438L21.8497 10.3979C21.8497 17.3015 16.2533 22.8979 9.34971 22.8979C7.46431 22.8979 5.67729 22.4786 4.07422 21.7311C5.04473 22.6177 6.15557 23.3533 7.36953 23.9007L8.10557 23.8597L9.03892 24.5136C10.1388 24.8301 11.3008 24.9998 12.5025 24.9998C19.4061 24.9998 25.0025 19.4034 25.0025 12.4998C25.0025 11.9038 24.9608 11.3175 24.8801 10.7438Z" fill="#0069D0"/>
<path d="M17.7841 1.17021C17.3981 0.989746 17.0011 0.828418 16.5947 0.6875L15.4892 1.65977C15.1864 1.91865 15.114 2.36523 15.3367 2.71113C15.5508 3.04365 15.9836 3.15967 16.348 3.00581L16.5717 2.91128C16.8464 2.79526 17.1683 2.83726 17.3911 3.03564C17.7847 3.38633 17.7161 4.0061 17.2744 4.26748L14.6783 5.80366C14.1712 6.10371 13.8491 6.64917 13.8597 7.23828C13.8706 7.85019 14.2135 8.34858 14.9025 8.41206C16.3284 8.54341 16.1232 7.03267 16.9607 7.03267H19.833C20.2702 7.03267 20.6494 7.35957 20.6873 7.79517C20.7304 8.29145 20.3403 8.70762 19.853 8.70762H16.4087C15.069 8.70762 13.9007 9.73999 13.8605 11.0791C13.819 12.4647 14.9298 13.6011 16.3061 13.6011H16.6564C17.3245 13.6011 17.8661 14.1427 17.8661 14.8107V19.1095C17.8661 19.2371 17.8885 19.3629 17.9306 19.4804L18.9422 19.4586L22.092 14.3363L22.4968 11.4006L23.5237 9.91387C23.5237 9.91391 21.5387 2.92524 17.7841 1.17021Z" fill="#98DB7C"/>
<path d="M24.8818 10.7435C24.285 6.49376 21.5421 2.92648 17.793 1.16988C20.2845 3.45494 21.8515 6.75045 21.8515 10.3976C21.8515 13.9771 20.3507 17.2012 17.9395 19.48C18.0873 19.9023 18.5064 20.1955 18.9936 20.1259C19.3042 20.0816 19.568 19.8726 19.7228 19.5996L22.7062 14.339C22.9703 13.8734 23.0383 13.3217 22.8953 12.8058L22.664 11.9715C22.5879 11.6973 22.8122 11.4328 23.0951 11.4628L23.2596 11.4802C23.7024 11.5272 24.1448 11.3874 24.4803 11.0945L24.8818 10.7435Z" fill="#77CC7D"/>
<path d="M12.3836 1.10508L11.7039 0.0249023C7.13179 0.311719 3.22964 3.05356 1.29688 6.95L2.08457 12.3916C2.17295 13.0024 2.53623 13.5391 3.07046 13.8481C3.37778 14.0258 3.51226 14.3992 3.38887 14.7321L3.11992 15.4576C2.87793 16.1104 3.08218 16.8448 3.62642 17.279L4.34463 17.852C4.59028 18.048 4.78677 18.2987 4.91831 18.5842L6.78457 22.634L7.87539 23.4038L8.64565 22.8786L8.36631 21.7112C8.20874 21.0526 8.29316 20.3594 8.60415 19.758L9.81548 17.4153C10.1491 16.7701 9.84287 15.9784 9.16182 15.7256L8.16665 15.3563C7.85054 15.239 7.64082 14.9374 7.64082 14.6003V14.5226C7.64082 14.0772 7.27974 13.7162 6.83437 13.7162H5.10435C4.68037 13.7162 4.26392 13.6048 3.89653 13.3931L3.47451 13.15C3.15396 12.9653 2.93589 12.6437 2.88296 12.2775L2.85601 12.091C2.78813 11.6218 3.00073 11.1562 3.39971 10.9L3.6477 10.7407C3.94814 10.5479 4.33965 10.5754 4.61006 10.8085L4.8311 10.9991C5.10024 11.2312 5.51963 11.0937 5.59912 10.7473L5.83486 9.72007C5.9605 9.1728 6.36167 8.73022 6.89409 8.55166L8.63394 7.96816C9.13081 7.80151 9.33926 7.21269 9.05791 6.7706L8.26699 5.52778C8.04966 5.18628 7.61284 5.05879 7.2459 5.22978L6.59272 5.53423C6.25488 5.69175 5.83394 5.62422 5.60591 5.32935C5.31172 4.94897 5.42993 4.40249 5.84497 4.17466L7.48652 3.27339C8.03105 2.97441 8.71353 3.13647 9.06548 3.64834L9.21802 3.87017C9.44355 4.19844 9.81636 4.39448 10.2146 4.39448H10.9533C11.443 4.39448 11.8844 4.09927 12.0713 3.64673L12.5109 2.58271C12.7109 2.09868 12.6634 1.54775 12.3836 1.10508Z" fill="#98DB7C"/>
<path d="M7.36406 23.9013C7.90156 24.1438 8.45864 24.3487 9.0334 24.5142L8.64229 22.879C8.00693 22.8437 7.38765 22.7615 6.78125 22.6345L7.36406 23.9013Z" fill="#77CC7D"/>
</svg>
