<svg width="140" height="21" viewBox="0 0 140 21" fill="none" xmlns="http://www.w3.org/2000/svg">
<path d="M10.5672 17.2695L14.3213 20.1341C14.6706 20.4016 15.0927 20.5471 15.5268 20.5497C15.9609 20.5523 16.3846 20.4119 16.7369 20.1487C17.0892 19.8854 17.3519 19.513 17.4872 19.0849C17.6225 18.6569 17.6234 18.1953 17.4898 17.7667L16.0399 13.108L19.8573 10.2144C20.2084 9.95026 20.4699 9.57735 20.6039 9.1493C20.738 8.72125 20.7379 8.26011 20.6035 7.83216C20.4691 7.4042 20.2075 7.03148 19.8562 6.76756C19.5048 6.50364 19.0819 6.36212 18.6482 6.36333H13.9487L12.5216 1.74412C12.3845 1.31883 12.122 0.949023 11.7713 0.686999C11.4206 0.424976 10.9994 0.283997 10.5672 0.283997C10.1351 0.283997 9.71389 0.424976 9.36318 0.686999C9.01247 0.949023 8.75001 1.31883 8.61291 1.74412L7.18581 6.36333H2.48882C2.05556 6.36233 1.63312 6.50376 1.28211 6.76734C0.9311 7.03093 0.669555 7.40311 0.534996 7.8305C0.400437 8.25789 0.399781 8.71854 0.533118 9.14634C0.666454 9.57415 0.926931 9.94713 1.27719 10.2118L5.0946 13.1054L3.64469 17.764C3.5028 18.1929 3.50035 18.6583 3.6377 19.0887C3.77505 19.5192 4.04464 19.8911 4.40513 20.1473C4.75589 20.4143 5.18008 20.5571 5.61506 20.5548C6.05004 20.5524 6.47276 20.4049 6.8208 20.1341L10.5672 17.2695Z" fill="#F8D748"/>
<path d="M40.2352 17.2695L43.9893 20.1341C44.3386 20.4016 44.7607 20.5471 45.1948 20.5497C45.6289 20.5523 46.0526 20.4119 46.4048 20.1487C46.7571 19.8854 47.0198 19.513 47.1551 19.0849C47.2904 18.6569 47.2914 18.1953 47.1578 17.7667L45.7078 13.108L49.5253 10.2144C49.8764 9.95026 50.1378 9.57735 50.2719 9.1493C50.406 8.72125 50.4058 8.26011 50.2715 7.83216C50.1371 7.4042 49.8755 7.03148 49.5241 6.76756C49.1728 6.50364 48.7499 6.36212 48.3162 6.36333H43.6166L42.1895 1.74412C42.0524 1.31883 41.79 0.949023 41.4393 0.686999C41.0886 0.424976 40.6673 0.283997 40.2352 0.283997C39.8031 0.283997 39.3819 0.424976 39.0311 0.686999C38.6804 0.949023 38.418 1.31883 38.2809 1.74412L36.8538 6.36333H32.1568C31.7235 6.36233 31.3011 6.50376 30.9501 6.76734C30.5991 7.03093 30.3375 7.40311 30.203 7.8305C30.0684 8.25789 30.0677 8.71854 30.2011 9.14634C30.3344 9.57415 30.5949 9.94713 30.9452 10.2118L34.7626 13.1054L33.3127 17.764C33.1708 18.1929 33.1683 18.6583 33.3057 19.0887C33.443 19.5192 33.7126 19.8911 34.0731 20.1473C34.4239 20.4143 34.848 20.5571 35.283 20.5548C35.718 20.5524 36.1407 20.4049 36.4888 20.1341L40.2352 17.2695Z" fill="#F8D748"/>
<path d="M69.9071 17.2695L73.6611 20.1341C74.0105 20.4016 74.4325 20.5471 74.8666 20.5497C75.3007 20.5523 75.7244 20.4119 76.0767 20.1487C76.429 19.8854 76.6917 19.513 76.827 19.0849C76.9623 18.6569 76.9632 18.1953 76.8296 17.7667L75.3797 13.108L79.1971 10.2144C79.5483 9.95026 79.8097 9.57735 79.9438 9.1493C80.0779 8.72125 80.0777 8.26011 79.9433 7.83216C79.809 7.4042 79.5473 7.03148 79.196 6.76756C78.8447 6.50364 78.4217 6.36212 77.988 6.36333H73.2885L71.8614 1.74412C71.7243 1.31883 71.4619 0.949023 71.1111 0.686999C70.7604 0.424976 70.3392 0.283997 69.9071 0.283997C69.4749 0.283997 69.0537 0.424976 68.703 0.686999C68.3523 0.949023 68.0899 1.31883 67.9527 1.74412L66.5257 6.36333H61.8287C61.3954 6.36233 60.973 6.50376 60.622 6.76734C60.2709 7.03093 60.0094 7.40311 59.8748 7.8305C59.7403 8.25789 59.7396 8.71854 59.873 9.14634C60.0063 9.57415 60.2668 9.94713 60.617 10.2118L64.4344 13.1054L62.9845 17.764C62.8426 18.1929 62.8402 18.6583 62.9775 19.0887C63.1149 19.5192 63.3845 19.8911 63.745 20.1473C64.0957 20.4143 64.5199 20.5571 64.9549 20.5548C65.3899 20.5524 65.8126 20.4049 66.1606 20.1341L69.9071 17.2695Z" fill="#F8D748"/>
<path d="M99.5751 17.2695L103.329 20.1341C103.678 20.4016 104.101 20.5471 104.535 20.5497C104.969 20.5523 105.392 20.4119 105.745 20.1487C106.097 19.8854 106.36 19.513 106.495 19.0849C106.63 18.6569 106.631 18.1953 106.498 17.7667L105.048 13.108L108.865 10.2144C109.216 9.95026 109.478 9.57735 109.612 9.1493C109.746 8.72125 109.746 8.26011 109.611 7.83216C109.477 7.4042 109.215 7.03148 108.864 6.76756C108.513 6.50364 108.09 6.36212 107.656 6.36333H102.956L101.529 1.74412C101.392 1.31883 101.13 0.949023 100.779 0.686999C100.428 0.424976 100.007 0.283997 99.5751 0.283997C99.1429 0.283997 98.7217 0.424976 98.371 0.686999C98.0203 0.949023 97.7578 1.31883 97.6207 1.74412L96.1936 6.36333H91.4966C91.0634 6.36233 90.6409 6.50376 90.2899 6.76734C89.9389 7.03093 89.6774 7.40311 89.5428 7.8305C89.4082 8.25789 89.4076 8.71854 89.5409 9.14634C89.6743 9.57415 89.9347 9.94713 90.285 10.2118L94.1024 13.1054L92.6525 17.764C92.5106 18.1929 92.5082 18.6583 92.6455 19.0887C92.7829 19.5192 93.0524 19.8911 93.4129 20.1473C93.7637 20.4143 94.1879 20.5571 94.6229 20.5548C95.0579 20.5524 95.4806 20.4049 95.8286 20.1341L99.5751 17.2695Z" fill="#F8D748"/>
<path d="M129.247 17.2695L133.001 20.1341C133.35 20.4016 133.772 20.5471 134.206 20.5497C134.641 20.5523 135.064 20.4119 135.417 20.1487C135.769 19.8854 136.032 19.513 136.167 19.0849C136.302 18.6569 136.303 18.1953 136.169 17.7667L134.72 13.108L138.537 10.2144C138.888 9.95026 139.15 9.57735 139.284 9.1493C139.418 8.72125 139.418 8.26011 139.283 7.83216C139.149 7.4042 138.887 7.03148 138.536 6.76756C138.185 6.50364 137.762 6.36212 137.328 6.36333H132.628L131.201 1.74412C131.064 1.31883 130.802 0.949023 130.451 0.686999C130.1 0.424976 129.679 0.283997 129.247 0.283997C128.815 0.283997 128.394 0.424976 128.043 0.686999C127.692 0.949023 127.43 1.31883 127.293 1.74412L125.866 6.36333H121.169C120.735 6.36233 120.313 6.50376 119.962 6.76734C119.611 7.03093 119.349 7.40311 119.215 7.8305C119.08 8.25789 119.079 8.71854 119.213 9.14634C119.346 9.57415 119.607 9.94713 119.957 10.2118L123.774 13.1054L122.324 17.764C122.182 18.1929 122.18 18.6583 122.317 19.0887C122.455 19.5192 122.724 19.8911 123.085 20.1473C123.436 20.4143 123.86 20.5571 124.295 20.5548C124.73 20.5524 125.152 20.4049 125.5 20.1341L129.247 17.2695Z" fill="#F8D748"/>
</svg>
