<svg width="139" height="21" viewBox="0 0 139 21" fill="none" xmlns="http://www.w3.org/2000/svg">
<path d="M10.1336 16.9855L13.8877 19.8502C14.237 20.1176 14.6591 20.2631 15.0932 20.2657C15.5273 20.2683 15.951 20.1279 16.3033 19.8647C16.6556 19.6014 16.9183 19.229 17.0536 18.8009C17.1889 18.3729 17.1898 17.9113 17.0562 17.4827L15.6063 12.824L19.4237 9.93043C19.7749 9.66626 20.0363 9.29335 20.1703 8.8653C20.3044 8.43725 20.3043 7.97611 20.1699 7.54816C20.0355 7.12021 19.7739 6.74748 19.4226 6.48356C19.0712 6.21965 18.6483 6.07812 18.2146 6.07934H13.5151L12.088 1.46013C11.9509 1.03483 11.6884 0.665026 11.3377 0.403003C10.987 0.14098 10.5658 0 10.1336 0C9.7015 0 9.28029 0.14098 8.92958 0.403003C8.57888 0.665026 8.31641 1.03483 8.17931 1.46013L6.75222 6.07934H2.05523C1.62196 6.07833 1.19953 6.21977 0.848516 6.48335C0.497506 6.74693 0.235961 7.11911 0.101402 7.5465C-0.0331568 7.9739 -0.0338126 8.43454 0.0995239 8.86235C0.23286 9.29015 0.493337 9.66314 0.843592 9.9278L4.661 12.8214L3.2111 17.48C3.06921 17.9089 3.06675 18.3743 3.20411 18.8047C3.34146 19.2352 3.61104 19.6071 3.97154 19.8633C4.3223 20.1303 4.74649 20.2731 5.18147 20.2708C5.61645 20.2684 6.03916 20.1209 6.38721 19.8502L10.1336 16.9855Z" fill="#F8D748"/>
<path d="M39.8016 16.9855L43.5557 19.8502C43.905 20.1176 44.3271 20.2631 44.7612 20.2657C45.1953 20.2683 45.619 20.1279 45.9712 19.8647C46.3235 19.6014 46.5862 19.229 46.7215 18.8009C46.8568 18.3729 46.8578 17.9113 46.7242 17.4827L45.2743 12.824L49.0917 9.93043C49.4428 9.66626 49.7042 9.29335 49.8383 8.8653C49.9724 8.43725 49.9722 7.97611 49.8379 7.54816C49.7035 7.12021 49.4419 6.74748 49.0905 6.48356C48.7392 6.21965 48.3163 6.07812 47.8826 6.07934H43.183L41.7559 1.46013C41.6188 1.03483 41.3564 0.665026 41.0057 0.403003C40.655 0.14098 40.2338 0 39.8016 0C39.3695 0 38.9483 0.14098 38.5976 0.403003C38.2468 0.665026 37.9844 1.03483 37.8473 1.46013L36.4202 6.07934H31.7232C31.2899 6.07833 30.8675 6.21977 30.5165 6.48335C30.1655 6.74693 29.9039 7.11911 29.7694 7.5465C29.6348 7.9739 29.6342 8.43454 29.7675 8.86235C29.9008 9.29015 30.1613 9.66314 30.5116 9.9278L34.329 12.8214L32.8791 17.48C32.7372 17.9089 32.7347 18.3743 32.8721 18.8047C33.0094 19.2352 33.279 19.6071 33.6395 19.8633C33.9903 20.1303 34.4145 20.2731 34.8494 20.2708C35.2844 20.2684 35.7071 20.1209 36.0552 19.8502L39.8016 16.9855Z" fill="#F8D748"/>
<path d="M69.4735 16.9855L73.2275 19.8502C73.5769 20.1176 73.999 20.2631 74.433 20.2657C74.8671 20.2683 75.2908 20.1279 75.6431 19.8647C75.9954 19.6014 76.2581 19.229 76.3934 18.8009C76.5287 18.3729 76.5296 17.9113 76.396 17.4827L74.9461 12.824L78.7635 9.93043C79.1147 9.66626 79.3761 9.29335 79.5102 8.8653C79.6443 8.43725 79.6441 7.97611 79.5097 7.54816C79.3754 7.12021 79.1137 6.74748 78.7624 6.48356C78.4111 6.21965 77.9882 6.07812 77.5544 6.07934H72.8549L71.4278 1.46013C71.2907 1.03483 71.0283 0.665026 70.6775 0.403003C70.3268 0.14098 69.9056 0 69.4735 0C69.0413 0 68.6201 0.14098 68.2694 0.403003C67.9187 0.665026 67.6563 1.03483 67.5192 1.46013L66.0921 6.07934H61.3951C60.9618 6.07833 60.5394 6.21977 60.1884 6.48335C59.8374 6.74693 59.5758 7.11911 59.4412 7.5465C59.3067 7.9739 59.306 8.43454 59.4394 8.86235C59.5727 9.29015 59.8332 9.66314 60.1834 9.9278L64.0008 12.8214L62.5509 17.48C62.4091 17.9089 62.4066 18.3743 62.5439 18.8047C62.6813 19.2352 62.9509 19.6071 63.3114 19.8633C63.6621 20.1303 64.0863 20.2731 64.5213 20.2708C64.9563 20.2684 65.379 20.1209 65.727 19.8502L69.4735 16.9855Z" fill="#F8D748"/>
<path d="M99.1415 16.9855L102.896 19.8502C103.245 20.1176 103.667 20.2631 104.101 20.2657C104.535 20.2683 104.959 20.1279 105.311 19.8647C105.663 19.6014 105.926 19.229 106.061 18.8009C106.197 18.3729 106.198 17.9113 106.064 17.4827L104.614 12.824L108.432 9.93043C108.783 9.66626 109.044 9.29335 109.178 8.8653C109.312 8.43725 109.312 7.97611 109.178 7.54816C109.043 7.12021 108.782 6.74748 108.43 6.48356C108.079 6.21965 107.656 6.07812 107.222 6.07934H102.523L101.096 1.46013C100.959 1.03483 100.696 0.665026 100.346 0.403003C99.9948 0.14098 99.5736 0 99.1415 0C98.7093 0 98.2881 0.14098 97.9374 0.403003C97.5867 0.665026 97.3242 1.03483 97.1871 1.46013L95.76 6.07934H91.063C90.6298 6.07833 90.2073 6.21977 89.8563 6.48335C89.5053 6.74693 89.2438 7.11911 89.1092 7.5465C88.9747 7.9739 88.974 8.43454 89.1073 8.86235C89.2407 9.29015 89.5011 9.66314 89.8514 9.9278L93.6688 12.8214L92.2189 17.48C92.077 17.9089 92.0746 18.3743 92.2119 18.8047C92.3493 19.2352 92.6189 19.6071 92.9794 19.8633C93.3301 20.1303 93.7543 20.2731 94.1893 20.2708C94.6243 20.2684 95.047 20.1209 95.395 19.8502L99.1415 16.9855Z" fill="#F8D748"/>
<path d="M128.813 16.9855L132.567 19.8502C132.917 20.1176 133.339 20.2631 133.773 20.2657C134.207 20.2683 134.631 20.1279 134.983 19.8647C135.335 19.6014 135.598 19.229 135.733 18.8009C135.869 18.3729 135.869 17.9113 135.736 17.4827L134.286 12.824L138.103 9.93043C138.455 9.66626 138.716 9.29335 138.85 8.8653C138.984 8.43725 138.984 7.97611 138.85 7.54816C138.715 7.12021 138.454 6.74748 138.102 6.48356C137.751 6.21965 137.328 6.07812 136.894 6.07934H132.195L130.768 1.46013C130.631 1.03483 130.368 0.665026 130.017 0.403003C129.667 0.14098 129.245 0 128.813 0C128.381 0 127.96 0.14098 127.609 0.403003C127.259 0.665026 126.996 1.03483 126.859 1.46013L125.432 6.07934H120.735C120.302 6.07833 119.879 6.21977 119.528 6.48335C119.177 6.74693 118.916 7.11911 118.781 7.5465C118.647 7.9739 118.646 8.43454 118.779 8.86235C118.913 9.29015 119.173 9.66314 119.523 9.9278L123.341 12.8214L121.891 17.48C121.749 17.9089 121.746 18.3743 121.884 18.8047C122.021 19.2352 122.291 19.6071 122.651 19.8633C123.002 20.1303 123.426 20.2731 123.861 20.2708C124.296 20.2684 124.719 20.1209 125.067 19.8502L128.813 16.9855Z" fill="#F8D748"/>
</svg>
