<svg width="70" height="26" viewBox="0 0 70 26" fill="none" xmlns="http://www.w3.org/2000/svg">
<path d="M7.5 16.4792L10.5417 15.7083L11.8125 19.625L7.5 16.4792ZM14.5 11.4167H9.14583L7.5 6.375L5.85417 11.4167H0.5L4.83334 14.5417L3.1875 19.5833L7.52083 16.4583L10.1875 14.5417L14.5 11.4167Z" fill="#219653"/>
<path d="M22.6426 8.46875V17H21.5293V8.46875H22.6426ZM25.3848 8.46875V9.39453H18.793V8.46875H25.3848ZM27.125 11.6562V17H26.041V10.6602H27.0957L27.125 11.6562ZM29.1055 10.625L29.0996 11.6328C29.0098 11.6133 28.9238 11.6016 28.8418 11.5977C28.7637 11.5898 28.6738 11.5859 28.5723 11.5859C28.3223 11.5859 28.1016 11.625 27.9102 11.7031C27.7188 11.7812 27.5566 11.8906 27.4238 12.0312C27.291 12.1719 27.1855 12.3398 27.1074 12.5352C27.0332 12.7266 26.9844 12.9375 26.9609 13.168L26.6562 13.3438C26.6562 12.9609 26.6934 12.6016 26.7676 12.2656C26.8457 11.9297 26.9648 11.6328 27.125 11.375C27.2852 11.1133 27.4883 10.9102 27.7344 10.7656C27.9844 10.6172 28.2812 10.543 28.625 10.543C28.7031 10.543 28.793 10.5527 28.8945 10.5723C28.9961 10.5879 29.0664 10.6055 29.1055 10.625ZM33.9863 15.5352V10.6602H35.0762V17H34.0391L33.9863 15.5352ZM34.1914 14.1992L34.6426 14.1875C34.6426 14.6094 34.5977 15 34.5078 15.3594C34.4219 15.7148 34.2812 16.0234 34.0859 16.2852C33.8906 16.5469 33.6348 16.752 33.3184 16.9004C33.002 17.0449 32.6172 17.1172 32.1641 17.1172C31.8555 17.1172 31.5723 17.0723 31.3145 16.9824C31.0605 16.8926 30.8418 16.7539 30.6582 16.5664C30.4746 16.3789 30.332 16.1348 30.2305 15.834C30.1328 15.5332 30.084 15.1719 30.084 14.75V10.6602H31.168V14.7617C31.168 15.0469 31.1992 15.2832 31.2617 15.4707C31.3281 15.6543 31.416 15.8008 31.5254 15.9102C31.6387 16.0156 31.7637 16.0898 31.9004 16.1328C32.041 16.1758 32.1855 16.1973 32.334 16.1973C32.7949 16.1973 33.1602 16.1094 33.4297 15.9336C33.6992 15.7539 33.8926 15.5137 34.0098 15.2129C34.1309 14.9082 34.1914 14.5703 34.1914 14.1992ZM40.4199 15.3184C40.4199 15.1621 40.3848 15.0176 40.3145 14.8848C40.248 14.748 40.1094 14.625 39.8984 14.5156C39.6914 14.4023 39.3789 14.3047 38.9609 14.2227C38.6094 14.1484 38.291 14.0605 38.0059 13.959C37.7246 13.8574 37.4844 13.7344 37.2852 13.5898C37.0898 13.4453 36.9395 13.2754 36.834 13.0801C36.7285 12.8848 36.6758 12.6562 36.6758 12.3945C36.6758 12.1445 36.7305 11.9082 36.8398 11.6855C36.9531 11.4629 37.1113 11.2656 37.3145 11.0938C37.5215 10.9219 37.7695 10.7871 38.0586 10.6895C38.3477 10.5918 38.6699 10.543 39.0254 10.543C39.5332 10.543 39.9668 10.6328 40.3262 10.8125C40.6855 10.9922 40.9609 11.2324 41.1523 11.5332C41.3438 11.8301 41.4395 12.1602 41.4395 12.5234H40.3555C40.3555 12.3477 40.3027 12.1777 40.1973 12.0137C40.0957 11.8457 39.9453 11.707 39.7461 11.5977C39.5508 11.4883 39.3105 11.4336 39.0254 11.4336C38.7246 11.4336 38.4805 11.4805 38.293 11.5742C38.1094 11.6641 37.9746 11.7793 37.8887 11.9199C37.8066 12.0605 37.7656 12.209 37.7656 12.3652C37.7656 12.4824 37.7852 12.5879 37.8242 12.6816C37.8672 12.7715 37.9414 12.8555 38.0469 12.9336C38.1523 13.0078 38.3008 13.0781 38.4922 13.1445C38.6836 13.2109 38.9277 13.2773 39.2246 13.3438C39.7441 13.4609 40.1719 13.6016 40.5078 13.7656C40.8438 13.9297 41.0938 14.1309 41.2578 14.3691C41.4219 14.6074 41.5039 14.8965 41.5039 15.2363C41.5039 15.5137 41.4453 15.7676 41.3281 15.998C41.2148 16.2285 41.0488 16.4277 40.8301 16.5957C40.6152 16.7598 40.3574 16.8887 40.0566 16.9824C39.7598 17.0723 39.4258 17.1172 39.0547 17.1172C38.4961 17.1172 38.0234 17.0176 37.6367 16.8184C37.25 16.6191 36.957 16.3613 36.7578 16.0449C36.5586 15.7285 36.459 15.3945 36.459 15.043H37.5488C37.5645 15.3398 37.6504 15.5762 37.8066 15.752C37.9629 15.9238 38.1543 16.0469 38.3809 16.1211C38.6074 16.1914 38.832 16.2266 39.0547 16.2266C39.3516 16.2266 39.5996 16.1875 39.7988 16.1094C40.002 16.0312 40.1562 15.9238 40.2617 15.7871C40.3672 15.6504 40.4199 15.4941 40.4199 15.3184ZM45.582 10.6602V11.4922H42.1543V10.6602H45.582ZM43.3145 9.11914H44.3984V15.4297C44.3984 15.6445 44.4316 15.8066 44.498 15.916C44.5645 16.0254 44.6504 16.0977 44.7559 16.1328C44.8613 16.168 44.9746 16.1855 45.0957 16.1855C45.1855 16.1855 45.2793 16.1777 45.377 16.1621C45.4785 16.1426 45.5547 16.127 45.6055 16.1152L45.6113 17C45.5254 17.0273 45.4121 17.0527 45.2715 17.0762C45.1348 17.1035 44.9688 17.1172 44.7734 17.1172C44.5078 17.1172 44.2637 17.0645 44.041 16.959C43.8184 16.8535 43.6406 16.6777 43.5078 16.4316C43.3789 16.1816 43.3145 15.8457 43.3145 15.4238V9.11914ZM47.9375 11.8789V19.4375H46.8477V10.6602H47.8438L47.9375 11.8789ZM52.209 13.7773V13.9004C52.209 14.3613 52.1543 14.7891 52.0449 15.1836C51.9355 15.5742 51.7754 15.9141 51.5645 16.2031C51.3574 16.4922 51.1016 16.7168 50.7969 16.877C50.4922 17.0371 50.1426 17.1172 49.748 17.1172C49.3457 17.1172 48.9902 17.0508 48.6816 16.918C48.373 16.7852 48.1113 16.5918 47.8965 16.3379C47.6816 16.084 47.5098 15.7793 47.3809 15.4238C47.2559 15.0684 47.1699 14.668 47.123 14.2227V13.5664C47.1699 13.0977 47.2578 12.6777 47.3867 12.3066C47.5156 11.9355 47.6855 11.6191 47.8965 11.3574C48.1113 11.0918 48.3711 10.8906 48.6758 10.7539C48.9805 10.6133 49.332 10.543 49.7305 10.543C50.1289 10.543 50.4824 10.6211 50.791 10.7773C51.0996 10.9297 51.3594 11.1484 51.5703 11.4336C51.7812 11.7188 51.9395 12.0605 52.0449 12.459C52.1543 12.8535 52.209 13.293 52.209 13.7773ZM51.1191 13.9004V13.7773C51.1191 13.4609 51.0859 13.1641 51.0195 12.8867C50.9531 12.6055 50.8496 12.3594 50.709 12.1484C50.5723 11.9336 50.3965 11.7656 50.1816 11.6445C49.9668 11.5195 49.7109 11.457 49.4141 11.457C49.1406 11.457 48.9023 11.5039 48.6992 11.5977C48.5 11.6914 48.3301 11.8184 48.1895 11.9785C48.0488 12.1348 47.9336 12.3145 47.8438 12.5176C47.7578 12.7168 47.6934 12.9238 47.6504 13.1387V14.6562C47.7285 14.9297 47.8379 15.1875 47.9785 15.4297C48.1191 15.668 48.3066 15.8613 48.541 16.0098C48.7754 16.1543 49.0703 16.2266 49.4258 16.2266C49.7188 16.2266 49.9707 16.166 50.1816 16.0449C50.3965 15.9199 50.5723 15.75 50.709 15.5352C50.8496 15.3203 50.9531 15.0742 51.0195 14.7969C51.0859 14.5156 51.1191 14.2168 51.1191 13.9004ZM54.7695 10.6602V17H53.6797V10.6602H54.7695ZM53.5977 8.97852C53.5977 8.80273 53.6504 8.6543 53.7559 8.5332C53.8652 8.41211 54.0254 8.35156 54.2363 8.35156C54.4434 8.35156 54.6016 8.41211 54.7109 8.5332C54.8242 8.6543 54.8809 8.80273 54.8809 8.97852C54.8809 9.14648 54.8242 9.29102 54.7109 9.41211C54.6016 9.5293 54.4434 9.58789 54.2363 9.58789C54.0254 9.58789 53.8652 9.5293 53.7559 9.41211C53.6504 9.29102 53.5977 9.14648 53.5977 8.97852ZM57.6875 8V17H56.5977V8H57.6875ZM59.1406 13.9004V13.7656C59.1406 13.3086 59.207 12.8848 59.3398 12.4941C59.4727 12.0996 59.6641 11.7578 59.9141 11.4688C60.1641 11.1758 60.4668 10.9492 60.8223 10.7891C61.1777 10.625 61.5762 10.543 62.0176 10.543C62.4629 10.543 62.8633 10.625 63.2188 10.7891C63.5781 10.9492 63.8828 11.1758 64.1328 11.4688C64.3867 11.7578 64.5801 12.0996 64.7129 12.4941C64.8457 12.8848 64.9121 13.3086 64.9121 13.7656V13.9004C64.9121 14.3574 64.8457 14.7812 64.7129 15.1719C64.5801 15.5625 64.3867 15.9043 64.1328 16.1973C63.8828 16.4863 63.5801 16.7129 63.2246 16.877C62.873 17.0371 62.4746 17.1172 62.0293 17.1172C61.584 17.1172 61.1836 17.0371 60.8281 16.877C60.4727 16.7129 60.168 16.4863 59.9141 16.1973C59.6641 15.9043 59.4727 15.5625 59.3398 15.1719C59.207 14.7812 59.1406 14.3574 59.1406 13.9004ZM60.2246 13.7656V13.9004C60.2246 14.2168 60.2617 14.5156 60.3359 14.7969C60.4102 15.0742 60.5215 15.3203 60.6699 15.5352C60.8223 15.75 61.0117 15.9199 61.2383 16.0449C61.4648 16.166 61.7285 16.2266 62.0293 16.2266C62.3262 16.2266 62.5859 16.166 62.8086 16.0449C63.0352 15.9199 63.2227 15.75 63.3711 15.5352C63.5195 15.3203 63.6309 15.0742 63.7051 14.7969C63.7832 14.5156 63.8223 14.2168 63.8223 13.9004V13.7656C63.8223 13.4531 63.7832 13.1582 63.7051 12.8809C63.6309 12.5996 63.5176 12.3516 63.3652 12.1367C63.2168 11.918 63.0293 11.7461 62.8027 11.6211C62.5801 11.4961 62.3184 11.4336 62.0176 11.4336C61.7207 11.4336 61.459 11.4961 61.2324 11.6211C61.0098 11.7461 60.8223 11.918 60.6699 12.1367C60.5215 12.3516 60.4102 12.5996 60.3359 12.8809C60.2617 13.1582 60.2246 13.4531 60.2246 13.7656ZM68.9258 10.6602V11.4922H65.498V10.6602H68.9258ZM66.6582 9.11914H67.7422V15.4297C67.7422 15.6445 67.7754 15.8066 67.8418 15.916C67.9082 16.0254 67.9941 16.0977 68.0996 16.1328C68.2051 16.168 68.3184 16.1855 68.4395 16.1855C68.5293 16.1855 68.623 16.1777 68.7207 16.1621C68.8223 16.1426 68.8984 16.127 68.9492 16.1152L68.9551 17C68.8691 17.0273 68.7559 17.0527 68.6152 17.0762C68.4785 17.1035 68.3125 17.1172 68.1172 17.1172C67.8516 17.1172 67.6074 17.0645 67.3848 16.959C67.1621 16.8535 66.9844 16.6777 66.8516 16.4316C66.7227 16.1816 66.6582 15.8457 66.6582 15.4238V9.11914Z" fill="black"/>
</svg>
