<svg width="40" height="40" viewBox="0 0 40 40" fill="none" xmlns="http://www.w3.org/2000/svg">
<g clip-path="url(#clip0_39_1293)">
<path d="M20.0004 40C31.0461 40 40.0004 31.0457 40.0004 20C40.0004 8.9543 31.0461 0 20.0004 0C8.95473 0 0.000427246 8.9543 0.000427246 20C0.000427246 31.0457 8.95473 40 20.0004 40Z" fill="#F0F0F0"/>
<path d="M40.0001 19.9999C40.0001 11.4006 34.5726 4.06976 26.9565 1.2439V38.756C34.5726 35.9301 40.0001 28.5992 40.0001 19.9999Z" fill="#D80027"/>
<path d="M6.10352e-05 19.9999C6.10352e-05 28.5992 5.42756 35.9301 13.0436 38.7559V1.2439C5.42756 4.06976 6.10352e-05 11.4006 6.10352e-05 19.9999Z" fill="#6DA544"/>
</g>
<defs>
<clipPath id="clip0_39_1293">
<rect width="40" height="40" fill="white"/>
</clipPath>
</defs>
</svg>
