<svg width="148" height="22" viewBox="0 0 148 22" fill="none" xmlns="http://www.w3.org/2000/svg">
<path d="M10.7817 18.0717L14.7758 21.1195C15.1474 21.4041 15.5965 21.5589 16.0584 21.5616C16.5202 21.5644 16.971 21.415 17.3458 21.1349C17.7206 20.8549 18.0001 20.4586 18.1441 20.0032C18.2881 19.5478 18.289 19.0567 18.1469 18.6006L16.6043 13.6441L20.6658 10.5655C21.0394 10.2844 21.3175 9.88763 21.4602 9.43221C21.6028 8.97679 21.6027 8.48616 21.4597 8.03084C21.3168 7.57552 21.0384 7.17897 20.6646 6.89817C20.2908 6.61737 19.8408 6.4668 19.3794 6.46809H14.3793L12.861 1.5535C12.7151 1.10101 12.4359 0.707552 12.0627 0.428774C11.6896 0.149995 11.2414 0 10.7817 0C10.3219 0 9.87374 0.149995 9.5006 0.428774C9.12747 0.707552 8.84822 1.10101 8.70235 1.5535L7.184 6.46809H2.18665C1.72568 6.46702 1.27623 6.6175 0.902776 6.89794C0.52932 7.17838 0.25105 7.57436 0.107887 8.02908C-0.0352771 8.48381 -0.0359748 8.9739 0.105888 9.42907C0.247751 9.88423 0.524885 10.2811 0.897537 10.5627L4.95906 13.6413L3.41644 18.5978C3.26547 19.0542 3.26286 19.5492 3.409 20.0072C3.55513 20.4652 3.84196 20.8609 4.22551 21.1335C4.5987 21.4175 5.05001 21.5695 5.51281 21.567C5.9756 21.5645 6.42535 21.4076 6.79565 21.1195L10.7817 18.0717Z" fill="#F8D748"/>
<path d="M42.3481 18.0717L46.3422 21.1195C46.7138 21.4041 47.1629 21.5589 47.6248 21.5616C48.0866 21.5644 48.5374 21.415 48.9122 21.1349C49.287 20.8549 49.5665 20.4586 49.7105 20.0032C49.8545 19.5478 49.8554 19.0567 49.7133 18.6006L48.1707 13.6441L52.2322 10.5655C52.6058 10.2844 52.8839 9.88763 53.0266 9.43221C53.1692 8.97679 53.1691 8.48616 53.0261 8.03084C52.8832 7.57552 52.6048 7.17897 52.231 6.89817C51.8572 6.61737 51.4072 6.4668 50.9458 6.46809H45.9457L44.4274 1.5535C44.2815 1.10101 44.0023 0.707552 43.6291 0.428774C43.256 0.149995 42.8078 0 42.3481 0C41.8883 0 41.4401 0.149995 41.067 0.428774C40.6939 0.707552 40.4146 1.10101 40.2688 1.5535L38.7504 6.46809H33.7531C33.2921 6.46702 32.8426 6.6175 32.4692 6.89794C32.0957 7.17838 31.8175 7.57436 31.6743 8.02908C31.5311 8.48381 31.5304 8.9739 31.6723 9.42907C31.8142 9.88423 32.0913 10.2811 32.4639 10.5627L36.5255 13.6413L34.9828 18.5978C34.8319 19.0542 34.8293 19.5492 34.9754 20.0072C35.1215 20.4652 35.4084 20.8609 35.7919 21.1335C36.1651 21.4175 36.6164 21.5695 37.0792 21.567C37.542 21.5645 37.9918 21.4076 38.3621 21.1195L42.3481 18.0717Z" fill="#F8D748"/>
<path d="M73.9164 18.0717L77.9105 21.1195C78.2822 21.4041 78.7313 21.5589 79.1931 21.5616C79.655 21.5644 80.1058 21.415 80.4806 21.1349C80.8554 20.8549 81.1349 20.4586 81.2789 20.0032C81.4228 19.5478 81.4238 19.0567 81.2817 18.6006L79.739 13.6441L83.8006 10.5655C84.1742 10.2844 84.4523 9.88763 84.5949 9.43221C84.7376 8.97679 84.7374 8.48616 84.5945 8.03084C84.4515 7.57552 84.1731 7.17897 83.7993 6.89817C83.4255 6.61737 82.9756 6.4668 82.5141 6.46809H77.5141L75.9957 1.5535C75.8499 1.10101 75.5706 0.707552 75.1975 0.428774C74.8243 0.149995 74.3762 0 73.9164 0C73.4566 0 73.0085 0.149995 72.6354 0.428774C72.2622 0.707552 71.983 1.10101 71.8371 1.5535L70.3188 6.46809H65.3214C64.8604 6.46702 64.411 6.6175 64.0375 6.89794C63.6641 7.17838 63.3858 7.57436 63.2427 8.02908C63.0995 8.48381 63.0988 8.9739 63.2407 9.42907C63.3825 9.88423 63.6597 10.2811 64.0323 10.5627L68.0938 13.6413L66.5512 18.5978C66.4002 19.0542 66.3976 19.5492 66.5438 20.0072C66.6899 20.4652 66.9767 20.8609 67.3603 21.1335C67.7335 21.4175 68.1848 21.5695 68.6476 21.567C69.1104 21.5645 69.5601 21.4076 69.9304 21.1195L73.9164 18.0717Z" fill="#F8D748"/>
<path d="M105.483 18.0717L109.477 21.1195C109.849 21.4041 110.298 21.5589 110.76 21.5616C111.221 21.5644 111.672 21.415 112.047 21.1349C112.422 20.8549 112.701 20.4586 112.845 20.0032C112.989 19.5478 112.99 19.0567 112.848 18.6006L111.305 13.6441L115.367 10.5655C115.741 10.2844 116.019 9.88763 116.161 9.43221C116.304 8.97679 116.304 8.48616 116.161 8.03084C116.018 7.57552 115.74 7.17897 115.366 6.89817C114.992 6.61737 114.542 6.4668 114.081 6.46809H109.08L107.562 1.5535C107.416 1.10101 107.137 0.707552 106.764 0.428774C106.391 0.149995 105.943 0 105.483 0C105.023 0 104.575 0.149995 104.202 0.428774C103.829 0.707552 103.549 1.10101 103.404 1.5535L101.885 6.46809H96.8878C96.4269 6.46702 95.9774 6.6175 95.6039 6.89794C95.2305 7.17838 94.9522 7.57436 94.8091 8.02908C94.6659 8.48381 94.6652 8.9739 94.8071 9.42907C94.9489 9.88423 95.2261 10.2811 95.5987 10.5627L99.6602 13.6413L98.1176 18.5978C97.9666 19.0542 97.964 19.5492 98.1102 20.0072C98.2563 20.4652 98.5431 20.8609 98.9267 21.1335C99.2999 21.4175 99.7512 21.5695 100.214 21.567C100.677 21.5645 101.127 21.4076 101.497 21.1195L105.483 18.0717Z" fill="#F8D748"/>
<path d="M137.049 18.0717L141.043 21.1195C141.415 21.4041 141.864 21.5589 142.326 21.5616C142.788 21.5644 143.239 21.415 143.613 21.1349C143.988 20.8549 144.268 20.4586 144.412 20.0032C144.556 19.5478 144.557 19.0567 144.414 18.6006L142.872 13.6441L146.933 10.5655C147.307 10.2844 147.585 9.88763 147.728 9.43221C147.87 8.97679 147.87 8.48616 147.727 8.03084C147.584 7.57552 147.306 7.17897 146.932 6.89817C146.558 6.61737 146.108 6.4668 145.647 6.46809H140.647L139.129 1.5535C138.983 1.10101 138.703 0.707552 138.33 0.428774C137.957 0.149995 137.509 0 137.049 0C136.589 0 136.141 0.149995 135.768 0.428774C135.395 0.707552 135.116 1.10101 134.97 1.5535L133.452 6.46809H128.454C127.993 6.46702 127.544 6.6175 127.17 6.89794C126.797 7.17838 126.519 7.57436 126.375 8.02908C126.232 8.48381 126.232 8.9739 126.373 9.42907C126.515 9.88423 126.792 10.2811 127.165 10.5627L131.227 13.6413L129.684 18.5978C129.533 19.0542 129.53 19.5492 129.677 20.0072C129.823 20.4652 130.11 20.8609 130.493 21.1335C130.866 21.4175 131.318 21.5695 131.78 21.567C132.243 21.5645 132.693 21.4076 133.063 21.1195L137.049 18.0717Z" fill="#F8D748"/>
</svg>
