<svg width="28" height="29" viewBox="0 0 28 29" fill="none" xmlns="http://www.w3.org/2000/svg">
<g id="Icon" clip-path="url(#clip0_228_18621)">
<path id="Vector" d="M25.1921 14.664C25.2998 14.6281 25.4031 14.5877 25.5019 14.5428C25.6007 14.4979 25.6681 14.4395 25.704 14.3677C25.8118 14.224 25.9195 14.0668 26.0273 13.8961C26.1351 13.7255 26.2429 13.5683 26.3506 13.4246C26.4584 13.2809 26.5662 13.1283 26.674 12.9666C26.7817 12.8049 26.9434 12.6882 27.1589 12.6163L27.2398 12.5355C27.3116 12.284 27.3655 12.0371 27.4014 11.7946C27.4373 11.5521 27.4733 11.3231 27.5092 11.1075C27.3655 11.1434 27.2218 11.1659 27.0781 11.1749C26.9344 11.1838 26.7907 11.2063 26.647 11.2422C26.4674 11.2782 26.2878 11.3096 26.1081 11.3365C25.9285 11.3635 25.7489 11.3769 25.5693 11.3769C25.5333 11.3769 25.5064 11.3904 25.4884 11.4174C25.4705 11.4443 25.4435 11.4578 25.4076 11.4578C25.3358 11.4937 25.2504 11.5206 25.1517 11.5386C25.0529 11.5566 24.9675 11.5296 24.8957 11.4578C24.8238 11.3859 24.7385 11.3141 24.6397 11.2422C24.5409 11.1704 24.4556 11.0985 24.3838 11.0267L24.6801 10.865L24.0335 10.2184C23.9617 10.1825 23.9033 10.1331 23.8584 10.0702C23.8135 10.0073 23.7461 9.95793 23.6563 9.922C23.5844 9.88608 23.5036 9.85015 23.4138 9.81423C23.324 9.7783 23.2611 9.72442 23.2252 9.65257C23.1534 9.58072 23.095 9.4954 23.0501 9.39661C23.0052 9.29781 22.9468 9.21249 22.8749 9.14064C22.839 9.03287 22.7851 8.9251 22.7133 8.81732C22.6414 8.70955 22.5696 8.61974 22.4977 8.54789C22.39 8.47604 22.3136 8.39072 22.2687 8.29193C22.2238 8.19314 22.1834 8.08985 22.1475 7.98208V7.82042C22.1115 7.6408 22.0711 7.47465 22.0262 7.32197C21.9813 7.16929 21.8511 7.0211 21.6355 6.8774C21.5637 6.84148 21.5188 6.7831 21.5008 6.70227C21.4829 6.62144 21.4559 6.56306 21.42 6.52714C21.42 6.49121 21.4065 6.45529 21.3796 6.41936C21.3526 6.38344 21.3392 6.34752 21.3392 6.31159C21.2673 6.16789 21.182 6.01073 21.0832 5.84008C20.9844 5.66944 20.8991 5.51227 20.8272 5.36857L20.3962 4.69499C20.3243 4.58722 20.2614 4.47046 20.2075 4.34473C20.1537 4.21899 20.1447 4.09326 20.1806 3.96752C20.2884 4.12918 20.3782 4.29982 20.45 4.47944C20.5219 4.65907 20.6476 4.81174 20.8272 4.93748C20.9709 4.66805 21.0652 4.42107 21.1101 4.19654C21.1551 3.97201 21.0608 3.75197 20.8272 3.53643C20.6835 3.5005 20.5264 3.47805 20.3557 3.46907C20.1851 3.46009 20.0279 3.43763 19.8842 3.40171H19.7495C19.4621 3.50948 19.1612 3.58582 18.8469 3.63073C18.5326 3.67563 18.2317 3.71605 17.9443 3.75197C17.7467 3.7879 17.5985 3.77892 17.4997 3.72503C17.4009 3.67114 17.3516 3.59031 17.3516 3.48254C17.3516 3.37477 17.3066 3.29394 17.2168 3.24005C17.127 3.18616 17.0282 3.14126 16.9205 3.10533C16.7768 3.06941 16.6376 3.03797 16.5028 3.01103C16.3681 2.98409 16.2648 2.91673 16.193 2.80895C16.0493 2.98858 15.9236 3.09635 15.8158 3.13227C15.708 3.1682 15.5463 3.11431 15.3308 2.97062C15.223 3.00654 15.1467 3.06043 15.1018 3.13227C15.0569 3.20412 15.0614 3.29394 15.1153 3.40171C15.1871 3.43763 15.223 3.47805 15.223 3.52295C15.223 3.56786 15.1871 3.62624 15.1153 3.69809C14.9895 3.73401 14.8907 3.74748 14.8189 3.7385C14.747 3.72952 14.6752 3.6891 14.6033 3.61726C14.4956 3.50948 14.3698 3.43314 14.2261 3.38824C14.0824 3.34333 13.9387 3.32088 13.795 3.32088C13.6873 3.32088 13.6019 3.30292 13.5391 3.26699C13.4762 3.23107 13.4448 3.15024 13.4448 3.0245C13.4448 2.98858 13.4268 2.95714 13.3909 2.9302C13.355 2.90326 13.319 2.88979 13.2831 2.88979C13.1394 2.85386 12.9912 2.81345 12.8385 2.76854C12.6859 2.72363 12.5197 2.71914 12.3401 2.75507C12.1964 2.75507 12.0841 2.73261 12.0033 2.68771C11.9225 2.64281 11.8461 2.56647 11.7743 2.45869C11.7743 2.42277 11.7473 2.40031 11.6934 2.39133C11.6396 2.38235 11.6126 2.37786 11.6126 2.37786C11.5408 2.41379 11.4734 2.42277 11.4105 2.4048C11.3477 2.38684 11.3162 2.3599 11.3162 2.32397C11.3162 2.27009 11.3342 2.22518 11.3701 2.18926C11.406 2.15333 11.4599 2.11741 11.5318 2.08148C11.6934 2.00964 11.7788 1.92431 11.7877 1.82552C11.7967 1.72673 11.7653 1.62345 11.6934 1.51567C11.6575 1.47975 11.6396 1.44382 11.6396 1.4079C11.6396 1.37197 11.6575 1.33605 11.6934 1.30013C11.7653 1.22828 11.7877 1.17439 11.7608 1.13847C11.7339 1.10254 11.6575 1.08458 11.5318 1.08458C11.424 1.08458 11.3162 1.07111 11.2085 1.04416C11.1007 1.01722 10.9929 1.00375 10.8851 1.00375C10.7055 1.00375 10.5394 0.994768 10.3867 0.976807C10.234 0.958845 10.0858 0.967825 9.94213 1.00375C9.79843 1.03967 9.65473 1.06213 9.51103 1.07111C9.36734 1.08009 9.22364 1.08458 9.07994 1.08458C8.75662 1.1205 8.43779 1.14296 8.12345 1.15194C7.80911 1.16092 7.51722 1.25522 7.24779 1.43484H7.1939C6.97836 1.47077 6.8167 1.51118 6.70892 1.55609C6.60115 1.60099 6.49338 1.65937 6.3856 1.73122C6.34968 1.80307 6.30028 1.84348 6.23741 1.85247C6.17455 1.86145 6.10719 1.84797 6.03534 1.81205H5.44259C5.33481 1.81205 5.24051 1.80307 5.15968 1.78511C5.07885 1.76715 5.00251 1.72224 4.93066 1.65039C4.93066 1.61447 4.90372 1.59201 4.84983 1.58303C4.79594 1.57405 4.7241 1.5516 4.63428 1.51567C4.7241 1.6953 4.75104 1.82552 4.71511 1.90635C4.67919 1.98718 4.60734 2.04556 4.49957 2.08148C4.35587 2.11741 4.25708 2.18477 4.20319 2.28356C4.1493 2.38235 4.1044 2.46767 4.06847 2.53952L3.63738 3.18616C3.52961 3.29394 3.42183 3.41518 3.31406 3.5499C3.20629 3.68461 3.08953 3.80586 2.9638 3.91363C2.89195 3.98548 2.82459 4.05733 2.76172 4.12918C2.69885 4.20103 2.64946 4.27288 2.61353 4.34473C2.57761 4.34473 2.54168 4.3582 2.50576 4.38514C2.46983 4.41208 2.43391 4.44352 2.39799 4.47944C2.32614 4.51537 2.24082 4.55129 2.14202 4.58722C2.04323 4.62314 1.95791 4.65907 1.88606 4.69499C1.85014 4.73092 1.79176 4.76684 1.71093 4.80276C1.6301 4.83869 1.57172 4.88359 1.5358 4.93748C1.46395 5.18895 1.32474 5.41348 1.11818 5.61106C0.911611 5.80865 0.754441 6.01521 0.646667 6.23076C0.538894 6.37446 0.435611 6.51816 0.336819 6.66186C0.238027 6.80555 0.152706 6.94925 0.0808569 7.09295C0.00900797 7.20072 -0.0269165 7.29951 -0.0269165 7.38933C-0.0269165 7.47914 0.0269702 7.57793 0.134744 7.6857C0.170668 7.72163 0.193121 7.77102 0.202102 7.83389C0.211083 7.89676 0.215574 7.94616 0.215574 7.98208C0.215574 8.05393 0.229045 8.11231 0.255989 8.15721C0.282932 8.20212 0.296404 8.26049 0.296404 8.33234C0.296404 8.40419 0.305385 8.47604 0.323347 8.54789C0.341309 8.61974 0.332328 8.69159 0.296404 8.76344C0.260479 8.83529 0.220064 8.96551 0.175159 9.15412C0.130253 9.34272 0.0718758 9.52683 2.68556e-05 9.70646V9.86811C0.0359513 9.93996 0.0584041 10.0118 0.0673853 10.0837C0.0763664 10.1555 0.0988192 10.2274 0.134744 10.2992C0.206593 10.407 0.242517 10.5237 0.242517 10.6495C0.242517 10.7752 0.359272 10.874 0.592781 10.9459L0.646667 11.0267C0.646667 11.1345 0.691573 11.2377 0.781384 11.3365C0.871195 11.4353 0.969988 11.5206 1.07776 11.5925C1.31127 11.7542 1.49089 11.9068 1.61663 12.0505C1.74236 12.1942 1.85912 12.3559 1.96689 12.5355C2.00282 12.5714 2.03874 12.6208 2.07467 12.6837C2.11059 12.7466 2.14651 12.778 2.18244 12.778C2.32614 12.778 2.44289 12.8139 2.5327 12.8858C2.62251 12.9576 2.72131 13.0115 2.82908 13.0474C2.90093 13.0834 2.9638 13.1193 3.01768 13.1552C3.07157 13.1911 3.13444 13.2091 3.20629 13.2091L3.85293 13.4246H4.06847L5.65813 13.2091C5.98145 13.1732 6.31824 13.1328 6.66851 13.0878C7.01877 13.0429 7.36455 12.9846 7.70583 12.9127C7.8136 12.8768 7.92587 12.8543 8.04262 12.8454C8.15937 12.8364 8.2896 12.8319 8.4333 12.8319C8.50515 12.8319 8.58598 12.8498 8.67579 12.8858C8.7656 12.9217 8.84643 12.9576 8.91828 12.9935C9.07994 13.0295 9.19669 13.0699 9.26854 13.1148C9.34039 13.1597 9.39428 13.236 9.4302 13.3438C9.4302 13.3797 9.44816 13.4112 9.48409 13.4381C9.52001 13.4651 9.55594 13.4785 9.59186 13.4785C9.73556 13.5324 9.87477 13.5683 10.0095 13.5863C10.1442 13.6043 10.2654 13.5953 10.3732 13.5594C10.481 13.5594 10.5933 13.5638 10.71 13.5728C10.8268 13.5818 10.939 13.6043 11.0468 13.6402C11.1187 13.6402 11.1725 13.6537 11.2085 13.6806C11.2444 13.7075 11.2803 13.739 11.3162 13.7749C11.3881 13.8827 11.4105 14.0309 11.3836 14.2195C11.3567 14.4081 11.2893 14.5563 11.1815 14.664C11.1456 14.7 11.1142 14.7359 11.0872 14.7718C11.0603 14.8077 11.0648 14.8437 11.1007 14.8796C11.1366 14.9514 11.1591 15.0098 11.168 15.0547C11.177 15.0996 11.1815 15.158 11.1815 15.2298C11.1815 15.3017 11.1725 15.3735 11.1546 15.4454C11.1366 15.5172 11.1456 15.5711 11.1815 15.6071C11.2534 15.7507 11.3207 15.89 11.3836 16.0247C11.4465 16.1594 11.5497 16.2627 11.6934 16.3345C11.7294 16.3704 11.7608 16.4064 11.7877 16.4423C11.8147 16.4782 11.8282 16.5141 11.8282 16.5501C11.9359 16.8015 12.0437 17.0485 12.1515 17.291C12.2593 17.5335 12.367 17.7715 12.4748 18.005C12.5287 18.1128 12.5646 18.2071 12.5826 18.2879C12.6005 18.3687 12.5916 18.463 12.5556 18.5708V18.7864C12.5916 18.8582 12.6275 18.9301 12.6634 19.0019C12.6993 19.0738 12.7173 19.1456 12.7173 19.2175C12.7532 19.2893 12.7667 19.3746 12.7577 19.4734C12.7487 19.5722 12.7083 19.6575 12.6365 19.7294C12.5287 19.8372 12.4568 19.936 12.4209 20.0258C12.385 20.1156 12.385 20.2323 12.4209 20.376C12.4209 20.4658 12.4164 20.5332 12.4074 20.5781C12.3985 20.623 12.376 20.6814 12.3401 20.7532C12.3042 20.861 12.2637 20.9553 12.2188 21.0361C12.1739 21.117 12.1694 21.2203 12.2054 21.346C12.2413 21.5256 12.2907 21.7187 12.3536 21.9253C12.4164 22.1318 12.4838 22.3249 12.5556 22.5046C12.6275 22.6482 12.6948 22.7785 12.7577 22.8952C12.8206 23.012 12.852 23.1422 12.852 23.2859C12.852 23.3218 12.8565 23.3488 12.8655 23.3667C12.8745 23.3847 12.8969 23.4116 12.9328 23.4476C12.9688 23.5194 12.9912 23.6002 13.0002 23.6901C13.0092 23.7799 13.0316 23.8697 13.0676 23.9595V24.3098C13.1394 24.5253 13.1978 24.7408 13.2427 24.9564C13.2876 25.1719 13.355 25.3965 13.4448 25.63C13.4448 25.7018 13.4717 25.7557 13.5256 25.7916C13.5795 25.8276 13.6244 25.8635 13.6603 25.8994C13.7322 25.9353 13.7995 25.9892 13.8624 26.0611C13.9253 26.1329 13.9746 26.2048 14.0106 26.2766C14.0465 26.3844 14.1004 26.4922 14.1722 26.5999C14.2441 26.7077 14.2351 26.8155 14.1453 26.9233C14.1453 26.9592 14.1498 26.9816 14.1588 26.9906C14.1677 26.9996 14.1902 27.0041 14.2261 27.0041C14.3698 27.1478 14.4462 27.3184 14.4551 27.516C14.4641 27.7136 14.4866 27.9022 14.5225 28.0818C14.5225 28.1537 14.5405 28.2121 14.5764 28.257C14.6123 28.3019 14.6662 28.3423 14.738 28.3782C14.774 28.4141 14.8234 28.4501 14.8862 28.486C14.9491 28.5219 14.9985 28.5578 15.0344 28.5938H15.1691C15.241 28.5578 15.3039 28.5354 15.3577 28.5264C15.4116 28.5174 15.4745 28.495 15.5463 28.459H15.6811C15.7888 28.3872 15.9236 28.3423 16.0852 28.3243C16.2469 28.3064 16.3996 28.2794 16.5432 28.2435C16.6151 28.2435 16.7004 28.23 16.7992 28.2031C16.898 28.1761 16.9833 28.1627 17.0552 28.1627C17.0911 28.1627 17.1405 28.1492 17.2034 28.1222C17.2662 28.0953 17.3156 28.0818 17.3516 28.0818C17.4593 28.1178 17.5402 28.1222 17.594 28.0953C17.6479 28.0684 17.7108 28.0369 17.7826 28.001C17.8186 27.9651 17.859 27.9336 17.9039 27.9067C17.9488 27.8798 18.0072 27.8663 18.079 27.8663C18.3664 27.7944 18.582 27.6777 18.7257 27.516C18.8694 27.3544 18.9951 27.1837 19.1029 27.0041C19.1029 26.9682 19.1119 26.9322 19.1298 26.8963C19.1478 26.8604 19.1568 26.8245 19.1568 26.7885C19.1208 26.6448 19.1298 26.5416 19.1837 26.4787C19.2376 26.4158 19.3543 26.3485 19.534 26.2766C19.5699 26.2048 19.6058 26.1329 19.6417 26.0611C19.6777 25.9892 19.7136 25.9353 19.7495 25.8994C19.8573 25.8635 19.9336 25.8141 19.9785 25.7512C20.0234 25.6884 20.0638 25.621 20.0998 25.5492C20.0998 25.5132 20.1267 25.4863 20.1806 25.4683C20.2345 25.4504 20.2614 25.4234 20.2614 25.3875C20.2614 25.3516 20.2749 25.3067 20.3018 25.2528C20.3288 25.1989 20.3423 25.154 20.3423 25.1181C20.2525 25.0462 20.221 24.9878 20.248 24.9429C20.2749 24.898 20.3243 24.8576 20.3962 24.8217C20.5039 24.7498 20.6252 24.687 20.7599 24.6331C20.8946 24.5792 21.0158 24.5163 21.1236 24.4445C21.2673 24.3726 21.3571 24.3008 21.3931 24.2289C21.429 24.1571 21.3931 24.0673 21.2853 23.9595C21.2494 23.9236 21.2224 23.8832 21.2045 23.8382C21.1865 23.7933 21.1595 23.7529 21.1236 23.717C21.1236 23.5374 21.1101 23.3712 21.0832 23.2185C21.0563 23.0659 21.0428 22.8997 21.0428 22.7201C21.0428 22.6842 21.0563 22.6572 21.0832 22.6393C21.1101 22.6213 21.1236 22.5944 21.1236 22.5584C21.2314 22.4507 21.3302 22.3429 21.42 22.2351C21.5098 22.1273 21.6086 22.0196 21.7164 21.9118C21.7523 21.8759 21.8017 21.8399 21.8646 21.804C21.9274 21.7681 21.9948 21.7322 22.0666 21.6962C22.1744 21.6603 22.2822 21.6379 22.39 21.6289C22.4977 21.6199 22.6055 21.5975 22.7133 21.5615C22.6774 21.4538 22.6818 21.3595 22.7268 21.2786C22.7717 21.1978 22.866 21.1215 23.0097 21.0496C23.0815 21.0137 23.1444 20.9508 23.1983 20.861C23.2521 20.7712 23.315 20.6904 23.3869 20.6185C23.3509 20.2772 23.2926 19.9494 23.2117 19.6351C23.1309 19.3207 23.0186 19.0199 22.8749 18.7325C22.839 18.6786 22.8345 18.6112 22.8615 18.5304C22.8884 18.4496 22.9198 18.3912 22.9558 18.3553C23.0635 18.2834 23.095 18.225 23.0501 18.1801C23.0052 18.1352 22.9468 18.0769 22.8749 18.005C22.839 17.9691 22.7941 17.9152 22.7402 17.8433C22.6863 17.7715 22.6594 17.6997 22.6594 17.6278C22.6594 17.556 22.6594 17.4841 22.6594 17.4123C22.6594 17.3404 22.6774 17.2686 22.7133 17.1967L23.1713 16.5501C23.2432 16.4423 23.3105 16.3255 23.3734 16.1998C23.4363 16.0741 23.5575 15.9932 23.7371 15.9573L23.818 15.8765C23.9257 15.7687 24.02 15.6609 24.1009 15.5532C24.1817 15.4454 24.276 15.3376 24.3838 15.2298C24.4915 15.1221 24.6083 15.0098 24.734 14.8931C24.8598 14.7763 25.0124 14.7 25.1921 14.664ZM26.8626 20.0258C26.8266 20.0617 26.7907 20.0931 26.7548 20.1201C26.7189 20.147 26.6829 20.1605 26.647 20.1605C26.5392 20.1605 26.4764 20.1784 26.4584 20.2144C26.4404 20.2503 26.4315 20.3042 26.4315 20.376C26.4315 20.4658 26.436 20.5422 26.4449 20.605C26.4539 20.6679 26.3955 20.7173 26.2698 20.7532C26.198 20.7892 26.1306 20.8206 26.0677 20.8475C26.0049 20.8745 25.9555 20.8879 25.9195 20.8879C25.8477 20.9239 25.7758 20.9598 25.704 20.9957C25.6321 21.0316 25.5603 21.0496 25.4884 21.0496C25.3088 21.0855 25.1786 21.117 25.0978 21.1439C25.0169 21.1709 24.9765 21.2562 24.9765 21.3999V21.4807C24.9047 21.6244 24.8777 21.7546 24.8957 21.8714C24.9137 21.9881 24.9406 22.1273 24.9765 22.289C25.0484 22.3968 25.0708 22.5046 25.0439 22.6123C25.0169 22.7201 24.9496 22.8279 24.8418 22.9356C24.8059 22.9716 24.7789 23.021 24.761 23.0838C24.743 23.1467 24.7161 23.1961 24.6801 23.232C24.6442 23.2679 24.6352 23.3173 24.6532 23.3802C24.6712 23.4431 24.6801 23.5104 24.6801 23.5823C24.6801 23.726 24.6891 23.8697 24.7071 24.0134C24.725 24.1571 24.7879 24.3008 24.8957 24.4445C24.9316 24.5163 24.999 24.5702 25.0978 24.6061C25.1966 24.6421 25.2998 24.66 25.4076 24.66C25.5154 24.66 25.5962 24.6465 25.6501 24.6196C25.704 24.5927 25.7489 24.5612 25.7848 24.5253C25.8207 24.4894 25.8657 24.431 25.9195 24.3502C25.9734 24.2693 26.0183 24.211 26.0543 24.175C26.162 24.0313 26.2518 23.8921 26.3237 23.7574C26.3955 23.6227 26.4315 23.4655 26.4315 23.2859C26.4315 23.2141 26.4449 23.1422 26.4719 23.0704C26.4988 22.9985 26.5303 22.9267 26.5662 22.8548C26.6021 22.783 26.6515 22.7066 26.7144 22.6258C26.7772 22.545 26.8266 22.4507 26.8626 22.3429C26.9344 22.1273 27.0018 21.9118 27.0646 21.6962C27.1275 21.4807 27.1589 21.2652 27.1589 21.0496C27.1589 21.0137 27.1634 20.9867 27.1724 20.9688C27.1814 20.9508 27.2038 20.9239 27.2398 20.8879L27.4553 21.0496C27.5631 20.9418 27.5721 20.7218 27.4823 20.3895C27.3924 20.0572 27.2308 19.7653 26.9973 19.5138C26.9613 19.6575 26.9389 19.7698 26.9299 19.8506C26.9209 19.9315 26.8985 19.9898 26.8626 20.0258Z" fill="#008E7C"/>
</g>
<defs>
<clipPath id="clip0_228_18621">
<rect width="27.59" height="28" fill="white" transform="matrix(1 0 0 -1 0 28.7988)"/>
</clipPath>
</defs>
</svg>
