<svg width="65" height="39" viewBox="0 0 65 39" fill="none" xmlns="http://www.w3.org/2000/svg">
<path d="M0 19.5C0 8.73045 8.73045 0 19.5 0H45.5C56.2696 0 65 8.73045 65 19.5C65 30.2696 56.2696 39 45.5 39H19.5C8.73045 39 0 30.2696 0 19.5Z" fill="#3B3A3F"/>
<path d="M32.7026 14.9431C33.4598 14.9431 34.4089 14.4266 34.9741 13.738C35.4859 13.1139 35.8592 12.2423 35.8592 11.3707C35.8592 11.2523 35.8485 11.134 35.8272 11.0371C34.9847 11.0694 33.9716 11.6074 33.3638 12.3283C32.8839 12.8771 32.4467 13.738 32.4467 14.6203C32.4467 14.7494 32.468 14.8785 32.4787 14.9216C32.532 14.9323 32.6173 14.9431 32.7026 14.9431ZM30.0366 27.9631C31.071 27.9631 31.5296 27.2637 32.8199 27.2637C34.1316 27.2637 34.4195 27.9416 35.5712 27.9416C36.7016 27.9416 37.4588 26.8871 38.1733 25.8541C38.9731 24.6704 39.3037 23.5083 39.325 23.4545C39.2503 23.433 37.0855 22.5399 37.0855 20.0327C37.0855 17.8592 38.7918 16.88 38.8878 16.8046C37.7574 15.1691 36.0405 15.126 35.5712 15.126C34.3022 15.126 33.2678 15.9008 32.6173 15.9008C31.9135 15.9008 30.9857 15.1691 29.8873 15.1691C27.7971 15.1691 25.675 16.9122 25.675 20.2049C25.675 22.2494 26.4641 24.4122 27.4346 25.811C28.2664 26.9947 28.9915 27.9631 30.0366 27.9631Z" fill="white"/>
</svg>
