<svg width="66" height="39" viewBox="0 0 66 39" fill="none" xmlns="http://www.w3.org/2000/svg">
<rect x="0.700195" width="65" height="39" rx="19.5" fill="white"/>
<path d="M33.4026 14.943C34.1598 14.943 35.1089 14.4265 35.6741 13.7378C36.1859 13.1137 36.5592 12.2421 36.5592 11.3706C36.5592 11.2522 36.5485 11.1338 36.5272 11.037C35.6847 11.0693 34.6716 11.6073 34.0638 12.3282C33.5839 12.877 33.1467 13.7378 33.1467 14.6202C33.1467 14.7493 33.168 14.8784 33.1787 14.9215C33.232 14.9322 33.3173 14.943 33.4026 14.943ZM30.7366 27.963C31.771 27.963 32.2296 27.2636 33.5199 27.2636C34.8316 27.2636 35.1195 27.9415 36.2712 27.9415C37.4016 27.9415 38.1588 26.887 38.8733 25.854C39.6731 24.6703 40.0037 23.5082 40.025 23.4544C39.9504 23.4329 37.7855 22.5398 37.7855 20.0326C37.7855 17.859 39.4918 16.8798 39.5878 16.8045C38.4574 15.169 36.7405 15.1259 36.2712 15.1259C35.0022 15.1259 33.9678 15.9007 33.3173 15.9007C32.6135 15.9007 31.6857 15.169 30.5873 15.169C28.4971 15.169 26.375 16.9121 26.375 20.2048C26.375 22.2493 27.1641 24.4121 28.1346 25.8109C28.9664 26.9946 29.6915 27.963 30.7366 27.963Z" fill="black"/>
</svg>
