<svg width="35" height="35" viewBox="0 0 35 35" fill="none" xmlns="http://www.w3.org/2000/svg">
<g clip-path="url(#clip0_10279_37307)">
<path d="M35 8.77571L34.0798 8.22723C34.0798 8.27293 34.1026 8.31864 34.148 8.36435C34.1934 8.41006 34.1707 8.47862 34.0798 8.57003C34.0344 8.57003 34.006 8.53575 33.9946 8.46719C33.9833 8.39863 33.9776 8.3415 33.9776 8.29579C33.9776 8.20437 33.9549 8.11867 33.9094 8.03869C33.864 7.9587 33.7958 7.91871 33.705 7.91871C33.6141 7.91871 33.5402 7.91871 33.4834 7.91871C33.4266 7.91871 33.3414 7.89585 33.2278 7.85015C33.1824 7.85015 33.1427 7.82729 33.1086 7.78159C33.0745 7.73588 33.0575 7.69017 33.0575 7.64447V7.47307L32.9552 7.37023C32.8643 7.27881 32.7735 7.21025 32.6826 7.16454C32.5917 7.11884 32.5008 7.0617 32.4099 6.99314H32.2395C32.1487 6.99314 32.0578 7.01028 31.9669 7.04456C31.876 7.07884 31.7851 7.09598 31.6943 7.09598C31.6034 7.09598 31.5125 7.09027 31.4216 7.07884C31.3307 7.06742 31.2626 7.016 31.2171 6.92458H31.149C31.0808 6.97029 31.0467 7.03314 31.0467 7.11312C31.0467 7.19311 31.0808 7.25596 31.149 7.30166L31.2171 7.37023V7.57591C31.2171 7.62161 31.2001 7.64447 31.166 7.64447C31.1319 7.64447 31.0922 7.64447 31.0467 7.64447C31.0013 7.64447 30.9672 7.63304 30.9445 7.61019C30.9218 7.58733 30.8877 7.57591 30.8423 7.57591C30.7968 7.57591 30.7514 7.54163 30.7059 7.47307C30.6605 7.40451 30.5923 7.37023 30.5015 7.37023H30.0243C29.9789 7.37023 29.9164 7.3588 29.8369 7.33595C29.7574 7.31309 29.6949 7.30166 29.6495 7.30166H29.3087L29.2064 7.37023V7.47307C29.2064 7.42736 29.2007 7.38165 29.1894 7.33595C29.178 7.29024 29.1496 7.24453 29.1042 7.19882C29.0587 7.15312 29.0133 7.12455 28.9679 7.11312C28.9224 7.1017 28.877 7.09598 28.8315 7.09598V6.92458C28.877 6.87888 28.8827 6.83317 28.8486 6.78746C28.8145 6.74176 28.7747 6.7189 28.7293 6.7189C28.6384 6.6732 28.5476 6.65034 28.4567 6.65034C28.3658 6.65034 28.2749 6.65034 28.184 6.65034C28.0023 6.51322 27.8376 6.42181 27.6899 6.3761C27.5422 6.33039 27.4002 6.33039 27.2639 6.3761H27.0935C27.0935 6.28469 27.0651 6.21613 27.0083 6.17042C26.9515 6.12471 26.8549 6.10186 26.7186 6.10186C26.7186 6.01045 26.6675 5.96474 26.5652 5.96474C26.463 5.96474 26.3892 5.94189 26.3437 5.89618C26.3892 5.85047 26.446 5.83333 26.5141 5.84476C26.5823 5.85619 26.5936 5.81619 26.5482 5.72478C26.5028 5.72478 26.4403 5.72478 26.3608 5.72478C26.2812 5.72478 26.2188 5.74763 26.1733 5.79334H26.0711C26.0256 5.74763 25.9972 5.70193 25.9859 5.65622C25.9745 5.61051 25.9461 5.56481 25.9007 5.5191L25.7984 5.62194C25.753 5.66765 25.7246 5.71335 25.7132 5.75906C25.7019 5.80477 25.6735 5.85047 25.628 5.89618H25.5258C25.5258 5.89618 25.5315 5.87904 25.5428 5.84476C25.5542 5.81048 25.5826 5.79334 25.628 5.79334L25.7303 5.72478C25.6167 5.72478 25.5372 5.70193 25.4917 5.65622C25.4463 5.61051 25.4008 5.54195 25.3554 5.45054H25.2532C25.1623 5.45054 25.0771 5.44483 24.9976 5.4334C24.918 5.42197 24.8556 5.39341 24.8101 5.3477C24.7647 5.3477 24.7363 5.35341 24.7249 5.36484C24.7136 5.37627 24.7079 5.40483 24.7079 5.45054V5.5191H24.4352V6.10186C24.3444 6.10186 24.2649 6.12471 24.1967 6.17042C24.1285 6.21613 24.049 6.21613 23.9581 6.17042C23.8218 6.21613 23.7025 6.23898 23.6003 6.23898C23.4981 6.23898 23.3788 6.21613 23.2425 6.17042C23.197 6.17042 23.1459 6.17042 23.0891 6.17042C23.0323 6.17042 22.9585 6.14757 22.8676 6.10186C22.8221 6.14757 22.7937 6.2047 22.7824 6.27326C22.771 6.34182 22.7426 6.39896 22.6972 6.44466H22.5949C22.5495 6.44466 22.5211 6.43324 22.5097 6.41038C22.4984 6.38753 22.47 6.3761 22.4245 6.3761C22.3109 6.28469 22.2257 6.17613 22.1689 6.05044C22.1121 5.92475 22.0383 5.81619 21.9474 5.72478C22.0383 5.77049 22.0951 5.79334 22.1178 5.79334C22.1405 5.79334 22.1746 5.77049 22.2201 5.72478L22.0497 5.1763C22.0042 5.222 21.9417 5.24486 21.8622 5.24486C21.7827 5.24486 21.7202 5.222 21.6748 5.1763C21.5839 5.08488 21.493 5.02775 21.4021 5.0049C21.3113 4.98204 21.2204 4.97062 21.1295 4.97062V5.24486C20.8569 5.29056 20.5842 5.27914 20.3116 5.21058C20.0389 5.14202 19.789 5.03918 19.5618 4.90206C19.5164 4.90206 19.471 4.90206 19.4255 4.90206C19.3801 4.90206 19.3346 4.92491 19.2892 4.97062C19.2438 4.97062 19.187 4.98204 19.1188 5.0049C19.0506 5.02775 19.0506 5.08488 19.1188 5.1763C19.0506 5.13059 19.0279 5.06774 19.0506 4.98776C19.0734 4.90777 19.062 4.84492 19.0166 4.79922C18.9711 4.89063 18.9257 4.94205 18.8802 4.95348C18.8348 4.9649 18.7894 4.94776 18.7439 4.90206L18.6417 4.79922C18.5508 4.6621 18.477 4.58782 18.4202 4.5764C18.3634 4.56497 18.3122 4.60496 18.2668 4.69638L18.369 4.79922L17.4489 5.1763C17.4489 5.13059 17.4659 5.08488 17.5 5.03918C17.5341 4.99347 17.5511 4.97062 17.5511 4.97062C17.5966 4.92491 17.6534 4.8792 17.7215 4.8335C17.7897 4.78779 17.8465 4.74208 17.8919 4.69638H17.9942C18.085 4.60496 18.1759 4.53069 18.2668 4.47356C18.3577 4.41642 18.4486 4.34215 18.5394 4.25073C18.5849 4.25073 18.6303 4.24502 18.6758 4.23359C18.7212 4.22217 18.7439 4.1936 18.7439 4.14789C18.7894 4.05648 18.8348 4.00506 18.8802 3.99363C18.9257 3.98221 18.9711 3.97649 19.0166 3.97649C19.1074 3.93079 19.1586 3.88508 19.1699 3.83937C19.1813 3.79367 19.1642 3.73653 19.1188 3.66797L19.187 3.59941L19.1188 3.49657C19.0506 3.45087 18.9938 3.41658 18.9484 3.39373C18.903 3.37088 18.8575 3.31374 18.8121 3.22233H18.7439C18.653 3.17662 18.5622 3.14806 18.4713 3.13663C18.3804 3.1252 18.2895 3.09664 18.1986 3.05093C18.1532 3.05093 18.1021 3.0395 18.0453 3.01665C17.9885 2.9938 17.9374 3.00522 17.8919 3.05093C17.8465 3.14234 17.801 3.17662 17.7556 3.15377C17.7102 3.13092 17.6647 3.11949 17.6193 3.11949L17.8238 2.84525L17.2785 2.77669L17.5511 2.57101C17.5511 2.57101 17.5454 2.55387 17.5341 2.51959C17.5227 2.48531 17.4943 2.46817 17.4489 2.46817C17.358 2.42246 17.2501 2.38818 17.1251 2.36533C17.0002 2.34247 16.8922 2.37675 16.8014 2.46817C16.7559 2.46817 16.6991 2.50816 16.631 2.58815C16.5628 2.66814 16.5287 2.73098 16.5287 2.77669C16.5287 2.91381 16.5174 2.9938 16.4946 3.01665C16.4719 3.0395 16.3924 3.05093 16.2561 3.05093H16.0857L16.2561 3.22233C16.2106 3.17662 16.1652 3.15377 16.1198 3.15377C16.0743 3.15377 16.0289 3.17662 15.9834 3.22233H15.5063C15.4609 3.22233 15.4325 3.22804 15.4211 3.23947C15.4098 3.2509 15.3814 3.27946 15.3359 3.32517C15.2451 3.32517 15.1542 3.33088 15.0633 3.34231C14.9724 3.35374 14.8815 3.40516 14.7907 3.49657C14.7452 3.58799 14.6771 3.64512 14.5862 3.66797C14.4953 3.69083 14.4044 3.72511 14.3135 3.77081C14.2681 3.77081 14.2227 3.78795 14.1772 3.82223C14.1318 3.85651 14.0636 3.87365 13.9727 3.87365V3.97649H13.7683L13.9727 4.14789H13.7683C13.8137 4.33072 13.8535 4.44499 13.8875 4.4907C13.9216 4.5364 13.9159 4.60496 13.8705 4.69638C13.8251 4.69638 13.7853 4.68495 13.7512 4.6621C13.7171 4.63924 13.7001 4.65067 13.7001 4.69638C13.6319 4.74208 13.5808 4.77065 13.5467 4.78208C13.5127 4.7935 13.4956 4.79922 13.4956 4.79922C13.4502 4.79922 13.4218 4.79922 13.4104 4.79922C13.3991 4.79922 13.3707 4.8335 13.3252 4.90206C13.2343 4.94776 13.1378 4.98204 13.0355 5.0049C12.9333 5.02775 12.814 5.01632 12.6777 4.97062C12.6323 5.01632 12.6095 5.10774 12.6095 5.24486C12.6095 5.38198 12.6323 5.47339 12.6777 5.5191C12.7231 5.47339 12.7515 5.45054 12.7629 5.45054C12.7743 5.45054 12.8027 5.47339 12.8481 5.5191H12.9503C12.9503 5.56481 12.9674 5.59909 13.0015 5.62194C13.0355 5.64479 13.0526 5.67907 13.0526 5.72478V5.79334C13.0071 5.79334 12.9731 5.79334 12.9503 5.79334C12.9276 5.79334 12.8935 5.77049 12.8481 5.72478C12.7799 5.63337 12.6947 5.56481 12.5925 5.5191C12.4903 5.47339 12.371 5.45054 12.2347 5.45054C12.2347 5.45054 12.2233 5.45054 12.2006 5.45054H12.1324C12.087 5.40483 12.0415 5.38198 11.9961 5.38198C11.9507 5.38198 11.9279 5.40483 11.9279 5.45054L12.1324 5.62194V5.72478C12.087 5.72478 12.0529 5.71907 12.0302 5.70764C12.0075 5.69621 11.9734 5.66765 11.9279 5.62194H11.7575V5.79334C11.803 5.83905 11.8427 5.87333 11.8768 5.89618C11.9109 5.91903 11.9279 5.95331 11.9279 5.99902C11.9279 6.04473 11.962 6.07329 12.0302 6.08472C12.0983 6.09615 12.1324 6.12471 12.1324 6.17042V6.27326H12.0302C11.9847 6.22755 11.9223 6.18756 11.8427 6.15328C11.7632 6.119 11.678 6.10186 11.5871 6.10186L11.4849 5.99902C11.4849 5.90761 11.4906 5.82762 11.5019 5.75906C11.5133 5.6905 11.5417 5.61051 11.5871 5.5191C11.6326 5.47339 11.6326 5.41626 11.5871 5.3477C11.5417 5.27914 11.4735 5.222 11.3827 5.1763V5.3477C11.3827 5.39341 11.377 5.45054 11.3656 5.5191C11.3543 5.58766 11.3259 5.62194 11.2804 5.62194L11.0078 5.89618C11.0532 5.94189 11.0873 5.98759 11.11 6.0333C11.1327 6.07901 11.1668 6.10186 11.2123 6.10186C11.2577 6.14757 11.2804 6.21041 11.2804 6.2904C11.2804 6.37039 11.2577 6.45609 11.2123 6.5475C11.1668 6.63892 11.1384 6.72462 11.1271 6.8046C11.1157 6.88459 11.11 6.94744 11.11 6.99314C11.11 6.99314 11.1157 7.01028 11.1271 7.04456C11.1384 7.07884 11.1668 7.09598 11.2123 7.09598H11.3827C11.519 7.05028 11.6212 7.05028 11.6894 7.09598C11.7575 7.14169 11.8371 7.21025 11.9279 7.30166C11.9734 7.34737 11.9961 7.39308 11.9961 7.43879C11.9961 7.48449 11.9734 7.5302 11.9279 7.57591C11.8825 7.62161 11.8598 7.66732 11.8598 7.71303C11.8598 7.75873 11.8825 7.80444 11.9279 7.85015C11.9279 7.85015 11.9507 7.86157 11.9961 7.88443C12.0415 7.90728 12.087 7.91871 12.1324 7.91871C12.0415 7.96441 11.962 7.95299 11.8939 7.88443C11.8257 7.81587 11.8143 7.71303 11.8598 7.57591V7.37023C11.8598 7.32452 11.8427 7.29595 11.8087 7.28452C11.7746 7.2731 11.7575 7.24453 11.7575 7.19882C11.7575 7.15312 11.7405 7.12455 11.7064 7.11312C11.6723 7.1017 11.6326 7.09598 11.5871 7.09598C11.5417 7.09598 11.5076 7.11312 11.4849 7.1474C11.4622 7.18168 11.4281 7.19882 11.3827 7.19882C11.3372 7.19882 11.3088 7.21596 11.2975 7.25024C11.2861 7.28452 11.2804 7.32452 11.2804 7.37023C11.2804 7.41593 11.2861 7.46164 11.2975 7.50735C11.3088 7.55305 11.3372 7.57591 11.3827 7.57591V7.74731C11.3372 7.83872 11.2747 7.93013 11.1952 8.02155C11.1157 8.11296 11.0532 8.20437 11.0078 8.29579C10.9624 8.3415 10.9169 8.38149 10.8715 8.41577C10.826 8.45005 10.7579 8.44434 10.667 8.39863C10.6216 8.44434 10.5591 8.45576 10.4796 8.43291C10.4 8.41006 10.3376 8.39863 10.2921 8.39863L10.1899 8.29579V8.22723H10.2921C10.3376 8.22723 10.383 8.23865 10.4284 8.26151C10.4739 8.28436 10.5193 8.29579 10.5648 8.29579C10.5648 8.29579 10.5818 8.29579 10.6159 8.29579C10.65 8.29579 10.667 8.27293 10.667 8.22723C10.7124 8.18152 10.7408 8.1301 10.7522 8.07297C10.7636 8.01583 10.792 7.96441 10.8374 7.91871L10.9396 7.85015C10.9851 7.80444 11.0192 7.77016 11.0419 7.74731C11.0646 7.72445 11.0532 7.66732 11.0078 7.57591V7.47307C11.0532 7.42736 11.0646 7.39879 11.0419 7.38737C11.0192 7.37594 11.0078 7.34737 11.0078 7.30166V6.44466C11.0078 6.35325 11.0078 6.27897 11.0078 6.22184C11.0078 6.16471 10.9851 6.09043 10.9396 5.99902C10.8942 5.95331 10.8715 5.91903 10.8715 5.89618C10.8715 5.87333 10.8942 5.83905 10.9396 5.79334C10.9851 5.74763 11.0078 5.68479 11.0078 5.6048C11.0078 5.52481 11.0078 5.43911 11.0078 5.3477C11.0078 5.30199 11.0078 5.262 11.0078 5.22772C11.0078 5.19344 10.9851 5.1763 10.9396 5.1763H10.5648L10.2921 5.72478C10.2467 5.77049 10.2126 5.81619 10.1899 5.8619C10.1672 5.90761 10.1104 5.95331 10.0195 5.99902C9.97403 6.04473 9.9286 6.09615 9.88316 6.15328C9.83772 6.21041 9.815 6.28469 9.815 6.3761C9.815 6.42181 9.815 6.47894 9.815 6.5475C9.815 6.61606 9.79228 6.6732 9.74684 6.7189C9.7014 6.76461 9.69004 6.81032 9.71276 6.85602C9.73548 6.90173 9.76956 6.92458 9.815 6.92458C9.86044 6.92458 9.89452 6.94172 9.91724 6.976C9.93996 7.01028 9.97403 7.05028 10.0195 7.09598C10.0649 7.14169 10.1047 7.17597 10.1388 7.19882C10.1728 7.22168 10.1899 7.25596 10.1899 7.30166V7.37023C10.1899 7.41593 10.1728 7.45021 10.1388 7.47307C10.1047 7.49592 10.0876 7.5302 10.0876 7.57591C10.0422 7.57591 10.0195 7.55877 10.0195 7.52449C10.0195 7.49021 10.0195 7.47307 10.0195 7.47307C9.88316 7.33595 9.74116 7.22168 9.59348 7.13026C9.4458 7.03885 9.28108 6.99314 9.09932 6.99314C9.05388 6.99314 9.00844 6.99314 8.963 6.99314C8.91756 6.99314 8.89484 6.97029 8.89484 6.92458C8.8494 6.92458 8.80396 6.90173 8.75852 6.85602C8.71308 6.81032 8.64492 6.76461 8.55404 6.7189H8.4518C8.40636 6.7189 8.36092 6.70176 8.31548 6.66748C8.27004 6.6332 8.2246 6.59321 8.17916 6.5475C8.13372 6.5475 8.09964 6.53608 8.07692 6.51322C8.0542 6.49037 8.02012 6.5018 7.97468 6.5475C7.97468 6.59321 7.98036 6.62178 7.99172 6.6332C8.00308 6.64463 8.03148 6.6732 8.07692 6.7189C8.12236 6.76461 8.1678 6.79318 8.21324 6.8046C8.25868 6.81603 8.30412 6.82174 8.34956 6.82174L8.4518 6.92458C8.4518 6.97029 8.46884 7.016 8.50292 7.0617C8.537 7.10741 8.55404 7.15312 8.55404 7.19882C8.55404 7.24453 8.54836 7.28452 8.537 7.31881C8.52564 7.35309 8.49724 7.37023 8.4518 7.37023H8.34956V7.47307C8.30412 7.47307 8.27004 7.46735 8.24732 7.45593C8.2246 7.4445 8.23596 7.41593 8.2814 7.37023C8.2814 7.32452 8.27572 7.28452 8.26436 7.25024C8.253 7.21596 8.2246 7.19882 8.17916 7.19882H7.97468C7.8838 7.29024 7.80996 7.3588 7.75316 7.40451C7.69637 7.45021 7.62253 7.47307 7.53165 7.47307C7.48621 7.47307 7.44077 7.47878 7.39533 7.49021C7.34989 7.50163 7.30445 7.5302 7.25901 7.57591C7.21357 7.62161 7.15109 7.64447 7.07157 7.64447C6.99205 7.64447 6.92957 7.62161 6.88413 7.57591H6.98637C6.98637 7.5302 6.98637 7.48449 6.98637 7.43879C6.98637 7.39308 7.00909 7.34737 7.05453 7.30166C7.00909 7.30166 6.95229 7.31309 6.88413 7.33595C6.81597 7.3588 6.78189 7.43879 6.78189 7.57591C6.73645 7.57591 6.70805 7.55877 6.69669 7.52449C6.68533 7.49021 6.65693 7.47307 6.61149 7.47307C6.56605 7.51877 6.50357 7.54734 6.42405 7.55877C6.34453 7.57019 6.25933 7.59876 6.16845 7.64447C6.12301 7.69017 6.08893 7.73588 6.06621 7.78159C6.04349 7.82729 5.97533 7.85015 5.86173 7.85015C5.81629 7.85015 5.77653 7.873 5.74245 7.91871C5.70837 7.96441 5.69133 8.03297 5.69133 8.12439C5.69133 8.17009 5.68565 8.21009 5.67429 8.24437C5.66293 8.27865 5.63453 8.29579 5.58909 8.29579C5.54365 8.29579 5.48686 8.29008 5.4187 8.27865C5.35054 8.26722 5.31646 8.2158 5.31646 8.12439C5.22558 8.07868 5.1915 8.03297 5.21422 7.98727C5.23694 7.94156 5.27102 7.89585 5.31646 7.85015C5.3619 7.85015 5.40734 7.83301 5.45278 7.79873C5.49822 7.76445 5.54365 7.74731 5.58909 7.74731C5.54365 7.7016 5.5039 7.65589 5.46982 7.61019C5.43574 7.56448 5.4187 7.51877 5.4187 7.47307H5.14606L5.04382 7.57591C5.04382 7.66732 5.03246 7.75873 5.00974 7.85015C4.98702 7.94156 4.97566 8.03297 4.97566 8.12439C5.06654 8.17009 5.11198 8.22723 5.11198 8.29579C5.11198 8.36435 5.08926 8.49004 5.04382 8.67287C5.04382 8.67287 5.03246 8.66716 5.00974 8.65573C4.98702 8.6443 4.97566 8.61574 4.97566 8.57003L4.87342 8.50147C4.82798 8.50147 4.78254 8.50147 4.7371 8.50147C4.69166 8.50147 4.64622 8.52432 4.60078 8.57003L4.49854 8.67287C4.4531 8.67287 4.40766 8.69572 4.36222 8.74143C4.31678 8.78714 4.27134 8.8557 4.2259 8.94711V9.11851L4.32814 9.22135V9.42703H4.12366C4.07822 9.42703 4.04982 9.40989 4.03846 9.37561C4.0271 9.34133 3.9987 9.32419 3.95326 9.32419C3.86238 9.27849 3.79422 9.2442 3.74878 9.22135C3.70334 9.1985 3.68062 9.16422 3.68062 9.11851C3.68062 9.11851 3.66358 9.10708 3.6295 9.08423C3.59542 9.06138 3.57838 9.0728 3.57838 9.11851C3.53294 9.11851 3.50454 9.14136 3.49318 9.18707C3.48182 9.23278 3.47614 9.27849 3.47614 9.32419C3.47614 9.3699 3.49886 9.42703 3.5443 9.49559C3.58974 9.56415 3.63518 9.59843 3.68062 9.59843C3.72606 9.59843 3.74878 9.60415 3.74878 9.61557C3.74878 9.627 3.74878 9.65557 3.74878 9.70127C3.74878 9.74698 3.73174 9.76983 3.69766 9.76983C3.66358 9.76983 3.62382 9.76983 3.57838 9.76983C3.53294 9.76983 3.49318 9.76412 3.4591 9.75269C3.42502 9.74127 3.40798 9.68985 3.40798 9.59843L3.30575 9.49559C3.26031 9.49559 3.23191 9.49559 3.22055 9.49559C3.20919 9.49559 3.20351 9.47274 3.20351 9.42703V8.94711C3.20351 8.9014 3.20351 8.84427 3.20351 8.77571C3.20351 8.70715 3.18079 8.67287 3.13535 8.67287C2.95359 8.58146 2.82295 8.49004 2.74343 8.39863C2.66391 8.30722 2.60143 8.2158 2.55599 8.12439L2.65823 8.22723C2.70367 8.22723 2.73775 8.23865 2.76047 8.26151C2.78319 8.28436 2.81727 8.29579 2.86271 8.29579L3.68062 8.57003C3.81694 8.61574 3.93622 8.62145 4.03846 8.58717C4.1407 8.55289 4.23726 8.49004 4.32814 8.39863C4.41902 8.30722 4.46446 8.2158 4.46446 8.12439C4.46446 8.03297 4.41902 7.96441 4.32814 7.91871L4.12366 7.74731C4.07822 7.74731 4.03278 7.73017 3.98734 7.69589C3.9419 7.66161 3.89646 7.62161 3.85102 7.57591C3.76014 7.48449 3.6863 7.41593 3.6295 7.37023C3.5727 7.32452 3.52158 7.30166 3.47614 7.30166C3.38526 7.25596 3.31143 7.21025 3.25463 7.16454C3.19783 7.11884 3.12399 7.0617 3.03311 6.99314H2.65823C2.65823 6.99314 2.64119 6.99314 2.60711 6.99314C2.57303 6.99314 2.55599 6.97029 2.55599 6.92458L2.76047 6.82174C2.71503 6.82174 2.66959 6.8046 2.62415 6.77032C2.57871 6.73604 2.55599 6.7189 2.55599 6.7189C2.55599 6.7189 2.53895 6.73604 2.50487 6.77032C2.47079 6.8046 2.43103 6.82174 2.38559 6.82174H2.28335C2.19247 6.86745 2.10727 6.91887 2.02775 6.976C1.94823 7.03314 1.88575 7.10741 1.84031 7.19882C1.79487 7.29024 1.77783 7.37594 1.78919 7.45593C1.80055 7.53591 1.85167 7.59876 1.94255 7.64447C2.03343 7.69017 2.07887 7.75873 2.07887 7.85015C2.07887 7.94156 2.05615 8.03297 2.01071 8.12439C1.91983 8.12439 1.87439 8.14724 1.87439 8.19295C1.87439 8.23865 1.89711 8.30722 1.94255 8.39863C1.98799 8.44434 2.01639 8.49576 2.02775 8.55289C2.03911 8.61002 2.06751 8.6843 2.11295 8.77571V9.49559C2.11295 9.5413 2.11863 9.57558 2.12999 9.59843C2.14135 9.62129 2.16975 9.65557 2.21519 9.70127C2.26063 9.74698 2.28335 9.77555 2.28335 9.78697C2.28335 9.7984 2.26063 9.82697 2.21519 9.87267C2.21519 9.87267 2.19815 9.87839 2.16407 9.88981C2.12999 9.90124 2.11295 9.92981 2.11295 9.97551L2.38559 10.2498C2.43103 10.2955 2.45375 10.3469 2.45375 10.404C2.45375 10.4611 2.43103 10.5354 2.38559 10.6268C2.29471 10.5811 2.20383 10.5926 2.11295 10.6611C2.02207 10.7297 1.93119 10.8325 1.84031 10.9696C1.79487 11.0153 1.76647 11.0611 1.75511 11.1068C1.74375 11.1525 1.71535 11.1753 1.66991 11.1753C1.71535 11.1753 1.73807 11.1867 1.73807 11.2096C1.73807 11.2325 1.73807 11.2439 1.73807 11.2439C1.73807 11.2896 1.76079 11.3182 1.80623 11.3296C1.85167 11.341 1.89711 11.3467 1.94255 11.3467C1.94255 11.3467 1.95391 11.3524 1.97663 11.3639C1.99935 11.3753 2.01071 11.4039 2.01071 11.4496C1.91983 11.4496 1.83463 11.461 1.75511 11.4838C1.67559 11.5067 1.61311 11.5867 1.56767 11.7238C1.56767 11.7695 1.55063 11.8152 1.51655 11.8609C1.48247 11.9066 1.46543 11.9523 1.46543 11.998V12.2723L1.36319 12.3751V12.5465C1.40863 12.6379 1.43135 12.7408 1.43135 12.855C1.43135 12.9693 1.51087 13.0264 1.66991 13.0264H1.73807C1.78351 13.0264 1.82895 13.0436 1.87439 13.0779C1.91983 13.1121 1.94255 13.1521 1.94255 13.1978V13.4721C1.98799 13.5635 2.03343 13.6378 2.07887 13.6949C2.12431 13.752 2.16975 13.8035 2.21519 13.8492C2.21519 13.8492 2.22655 13.8663 2.24927 13.9006C2.27199 13.9349 2.26063 13.952 2.21519 13.952C2.21519 13.952 2.19247 13.9634 2.14703 13.9863C2.10159 14.0091 2.05615 14.0206 2.01071 14.0206H1.94255C1.94255 14.0663 1.94255 14.1177 1.94255 14.1748C1.94255 14.232 1.96527 14.3062 2.01071 14.3976C2.19247 14.5348 2.31743 14.6148 2.38559 14.6376C2.45375 14.6605 2.51055 14.6719 2.55599 14.6719C2.66959 14.5805 2.76047 14.569 2.82863 14.6376C2.89679 14.7062 2.93087 14.7862 2.93087 14.8776C2.93087 14.9233 2.94791 14.9633 2.98199 14.9976C3.01607 15.0318 3.03311 15.049 3.03311 15.049C3.12399 15.049 3.17511 15.0833 3.18647 15.1518C3.19783 15.2204 3.20351 15.2775 3.20351 15.3232C3.24895 15.3232 3.28303 15.3404 3.30575 15.3746C3.32846 15.4089 3.36254 15.4261 3.40798 15.4261H3.47614C3.52158 15.3803 3.55566 15.3689 3.57838 15.3918C3.6011 15.4146 3.63518 15.4489 3.68062 15.4946L3.74878 15.5975C3.81694 15.5975 3.87374 15.6146 3.91918 15.6489C3.96462 15.6832 4.01006 15.7003 4.0555 15.7003L4.12366 15.7689C4.12366 15.8374 4.12366 15.8945 4.12366 15.9403C4.12366 15.986 4.10094 16.0317 4.0555 16.0774V16.1459C4.0555 16.2373 4.04982 16.2945 4.03846 16.3173C4.0271 16.3402 3.9987 16.3516 3.95326 16.3516C3.90782 16.3516 3.85102 16.3859 3.78286 16.4545C3.7147 16.523 3.70334 16.5802 3.74878 16.6259H3.95326L3.68062 16.7973L3.74878 16.9001C3.74878 16.9458 3.73742 16.9858 3.7147 17.0201C3.69198 17.0544 3.68062 17.0715 3.68062 17.0715L3.47614 17.2772C3.47614 17.3229 3.49318 17.3515 3.52726 17.3629C3.56134 17.3743 3.57838 17.4029 3.57838 17.4486L4.12366 17.9971C4.1691 18.0428 4.2259 18.0942 4.29406 18.1513C4.36222 18.2085 4.3963 18.2827 4.3963 18.3741C4.44174 18.4656 4.46446 18.5398 4.46446 18.597C4.46446 18.6541 4.41902 18.7055 4.32814 18.7512C4.2827 18.7969 4.21454 18.8198 4.12366 18.8198C4.03278 18.8198 3.9419 18.8198 3.85102 18.8198C3.7147 18.8655 3.58406 18.8541 3.4591 18.7855C3.33414 18.7169 3.22623 18.637 3.13535 18.5455C3.04447 18.4998 2.92519 18.477 2.77751 18.477C2.62983 18.477 2.53327 18.4998 2.48783 18.5455C2.39695 18.637 2.30607 18.7055 2.21519 18.7512C2.12431 18.7969 2.03343 18.7969 1.94255 18.7512H1.84031C1.84031 18.8426 1.83463 18.9112 1.82327 18.9569C1.81191 19.0026 1.76079 19.0255 1.66991 19.0255H1.46543C1.41999 19.0255 1.38023 19.0426 1.34615 19.0769C1.31207 19.1112 1.29503 19.1512 1.29503 19.1969C1.29503 19.1969 1.30639 19.2197 1.32911 19.2654C1.35183 19.3111 1.36319 19.3568 1.36319 19.4025C1.40863 19.494 1.41431 19.5682 1.38023 19.6254C1.34615 19.6825 1.37455 19.7568 1.46543 19.8482V19.951C1.46543 19.9967 1.48247 20.0253 1.51655 20.0367C1.55063 20.0482 1.56767 20.0767 1.56767 20.1224C1.56767 20.1224 1.58471 20.1396 1.61879 20.1738C1.65287 20.2081 1.69263 20.2253 1.73807 20.2253C1.78351 20.2253 1.81191 20.2424 1.82327 20.2767C1.83463 20.311 1.84031 20.3281 1.84031 20.3281L1.94255 20.3967C1.98799 20.3967 2.01639 20.3852 2.02775 20.3624C2.03911 20.3395 2.06751 20.3281 2.11295 20.3281C2.15839 20.3281 2.18679 20.311 2.19815 20.2767C2.20951 20.2424 2.23791 20.2253 2.28335 20.2253C2.32879 20.2253 2.36287 20.2424 2.38559 20.2767C2.40831 20.311 2.44239 20.3281 2.48783 20.3281C2.57871 20.3738 2.65255 20.4081 2.70935 20.431C2.76615 20.4538 2.83999 20.4195 2.93087 20.3281C2.97631 20.2824 3.01039 20.2595 3.03311 20.2595C3.05583 20.2595 3.08991 20.2824 3.13535 20.3281H3.30575V20.9452L3.03311 21.8707C2.98767 21.9621 2.96495 22.0535 2.96495 22.145C2.96495 22.2364 2.98767 22.3392 3.03311 22.4535C3.03311 22.4992 3.05015 22.5449 3.08423 22.5906C3.11831 22.6363 3.13535 22.682 3.13535 22.7277C3.08991 22.8648 3.07855 22.9962 3.10127 23.1219C3.12399 23.2476 3.15807 23.3562 3.20351 23.4476C3.29439 23.5847 3.36822 23.7218 3.42502 23.859C3.48182 23.9961 3.53294 24.1332 3.57838 24.2703C3.57838 24.316 3.59542 24.3503 3.6295 24.3732C3.66358 24.396 3.68062 24.4303 3.68062 24.476C3.7715 24.5674 3.83966 24.6645 3.8851 24.7674C3.93054 24.8702 3.95326 24.9902 3.95326 25.1273C3.95326 25.2187 3.95894 25.3102 3.9703 25.4016C3.98166 25.493 4.03278 25.5844 4.12366 25.6758C4.1691 25.7215 4.21454 25.7729 4.25998 25.8301C4.30542 25.8872 4.35086 25.9615 4.3963 26.0529C4.3963 26.0986 4.41334 26.1443 4.44742 26.19C4.4815 26.2357 4.49854 26.2814 4.49854 26.3271C4.54398 26.4185 4.58942 26.5271 4.63486 26.6528C4.6803 26.7785 4.72574 26.887 4.77118 26.9785C4.77118 27.0699 4.77686 27.1556 4.78822 27.2356C4.79958 27.3155 4.82798 27.3784 4.87342 27.4241C4.87342 27.4698 4.89046 27.5155 4.92454 27.5612C4.95862 27.6069 4.97566 27.6526 4.97566 27.6983C4.97566 27.7897 4.99838 27.8583 5.04382 27.904C5.08926 27.9497 5.15742 27.9383 5.2483 27.8697C5.2483 27.7326 5.29942 27.6469 5.40166 27.6126C5.5039 27.5784 5.60045 27.5155 5.69133 27.4241H5.79357C5.83901 27.4241 5.88445 27.407 5.92989 27.3727C5.97533 27.3384 6.02077 27.2984 6.06621 27.2527C6.11165 27.207 6.14005 27.1613 6.15141 27.1156C6.16277 27.0699 6.19117 27.0242 6.23661 26.9785C6.28205 26.9327 6.34453 26.9099 6.42405 26.9099C6.50357 26.9099 6.56605 26.9327 6.61149 26.9785C6.65693 26.8185 6.69101 26.7271 6.71373 26.7042C6.73645 26.6814 6.79325 26.6471 6.88413 26.6014C7.02045 26.5557 7.13973 26.4871 7.24197 26.3957C7.34421 26.3043 7.44077 26.2129 7.53165 26.1214C7.57709 26.0757 7.61685 26.03 7.65093 25.9843C7.68501 25.9386 7.70205 25.8701 7.70205 25.7786V25.573C7.79292 25.4358 7.87244 25.3159 7.9406 25.213C8.00876 25.1102 8.08828 24.9902 8.17916 24.8531C8.17916 24.8074 8.16212 24.7617 8.12804 24.716C8.09396 24.6703 8.07692 24.6131 8.07692 24.5446C8.07692 24.4989 8.05988 24.4589 8.0258 24.4246C7.99172 24.3903 7.95196 24.3732 7.90652 24.3732C7.81564 24.3732 7.74748 24.3332 7.70205 24.2532C7.65661 24.1732 7.63389 24.0875 7.63389 23.9961C7.63389 23.9047 7.61685 23.8304 7.58277 23.7733C7.54869 23.7161 7.53165 23.6419 7.53165 23.5504C7.48621 23.6419 7.44077 23.7161 7.39533 23.7733C7.34989 23.8304 7.30445 23.9047 7.25901 23.9961C7.21357 24.0875 7.16245 24.1446 7.10565 24.1675C7.04885 24.1903 6.97501 24.2018 6.88413 24.2018H6.71373C6.66829 24.2475 6.63421 24.2532 6.61149 24.2189C6.58877 24.1846 6.55469 24.1446 6.50925 24.0989V23.7218C6.50925 23.7218 6.50925 23.7104 6.50925 23.6876C6.50925 23.6647 6.48653 23.6533 6.44109 23.6533L6.33885 23.7218C6.33885 23.7675 6.33317 23.8018 6.32181 23.8247C6.31045 23.8475 6.28205 23.8818 6.23661 23.9275C6.19117 23.8818 6.16845 23.8361 6.16845 23.7904C6.16845 23.7447 6.16845 23.699 6.16845 23.6533C6.16845 23.6076 6.16277 23.5562 6.15141 23.499C6.14005 23.4419 6.11165 23.3905 6.06621 23.3448C5.97533 23.2533 5.90717 23.1505 5.86173 23.0362C5.81629 22.922 5.79357 22.8191 5.79357 22.7277C5.74813 22.5906 5.73109 22.5049 5.74245 22.4706C5.75381 22.4363 5.82765 22.3963 5.96397 22.3506C6.05485 22.3506 6.12301 22.3563 6.16845 22.3678C6.21389 22.3792 6.23661 22.4306 6.23661 22.522C6.28205 22.6135 6.31613 22.6934 6.33885 22.762C6.36157 22.8306 6.39565 22.9105 6.44109 23.002C6.44109 23.0477 6.45813 23.0877 6.49221 23.1219C6.52629 23.1562 6.56605 23.1734 6.61149 23.1734L6.78189 23.3448C6.87277 23.3905 6.96933 23.4476 7.07157 23.5162C7.17381 23.5847 7.27037 23.5961 7.36125 23.5504C7.49757 23.5047 7.57709 23.4876 7.59981 23.499C7.62253 23.5104 7.65661 23.5847 7.70205 23.7218C7.70205 23.7675 7.72477 23.8075 7.7702 23.8418C7.81564 23.8761 7.86108 23.8704 7.90652 23.8247C7.95196 23.8247 7.98036 23.8075 7.99172 23.7733C8.00308 23.739 8.03148 23.7218 8.07692 23.7218C8.1678 23.7218 8.24732 23.739 8.31548 23.7733C8.38364 23.8075 8.46316 23.8247 8.55404 23.8247C8.59948 23.8704 8.66764 23.9104 8.75852 23.9447C8.8494 23.9789 8.963 23.9732 9.09932 23.9275C9.1902 23.9275 9.26404 23.9218 9.32084 23.9104C9.37764 23.899 9.45148 23.8704 9.54236 23.8247C9.5878 23.8247 9.63324 23.8475 9.67868 23.8932C9.72412 23.9389 9.76956 24.0075 9.815 24.0989V24.2018C9.815 24.2475 9.82068 24.2875 9.83204 24.3217C9.8434 24.356 9.8718 24.3732 9.91724 24.3732C9.96267 24.3732 9.99107 24.3903 10.0024 24.4246C10.0138 24.4589 10.0422 24.4989 10.0876 24.5446C10.1331 24.6131 10.1785 24.6645 10.224 24.6988C10.2694 24.7331 10.3262 24.7502 10.3944 24.7502H10.4625C10.4171 24.8417 10.3716 24.8817 10.3262 24.8702C10.2808 24.8588 10.2353 24.8759 10.1899 24.9216C10.2353 24.9674 10.2808 25.0302 10.3262 25.1102C10.3716 25.1902 10.4171 25.253 10.4625 25.2987C10.508 25.3444 10.5534 25.373 10.5988 25.3844C10.6443 25.3959 10.6897 25.4016 10.7352 25.4016C10.7806 25.3559 10.826 25.3102 10.8715 25.2644C10.9169 25.2187 10.9396 25.173 10.9396 25.1273V25.0245C10.9396 25.1159 10.951 25.1902 10.9737 25.2473C10.9964 25.3044 11.0078 25.3787 11.0078 25.4701V25.8472C11.0532 25.9843 11.0759 26.1214 11.0759 26.2586C11.0759 26.3957 11.1214 26.5328 11.2123 26.6699V26.7728C11.2123 26.9099 11.2293 27.047 11.2634 27.1841C11.2975 27.3213 11.3372 27.4584 11.3827 27.5955C11.4281 27.6869 11.4565 27.7669 11.4679 27.8355C11.4792 27.904 11.4849 27.984 11.4849 28.0754C11.5303 28.2125 11.5815 28.3497 11.6383 28.4868C11.6951 28.6239 11.7689 28.761 11.8598 28.8981C11.8598 28.9438 11.8768 28.9896 11.9109 29.0353C11.945 29.081 11.9847 29.1267 12.0302 29.1724C12.0302 29.1724 12.0472 29.1724 12.0813 29.1724C12.1154 29.1724 12.1324 29.1495 12.1324 29.1038C12.1779 28.9896 12.2347 28.9039 12.3028 28.8467C12.371 28.7896 12.4051 28.7153 12.4051 28.6239V28.5211C12.4051 28.4754 12.4164 28.4468 12.4391 28.4354C12.4619 28.4239 12.4732 28.3954 12.4732 28.3497C12.4732 28.304 12.4789 28.2411 12.4903 28.1611C12.5016 28.0811 12.53 28.0183 12.5755 27.9726C12.5755 27.8812 12.5925 27.8069 12.6266 27.7498C12.6607 27.6926 12.6777 27.6183 12.6777 27.5269V26.9785C12.6777 26.9327 12.6947 26.9042 12.7288 26.8928C12.7629 26.8813 12.7799 26.8756 12.7799 26.8756C12.8708 26.8299 12.939 26.7613 12.9844 26.6699C13.0299 26.5785 13.0526 26.4871 13.0526 26.3957C13.098 26.2586 13.1435 26.1272 13.1889 26.0015C13.2343 25.8758 13.3025 25.7672 13.3934 25.6758C13.3934 25.6758 13.3991 25.6587 13.4104 25.6244C13.4218 25.5901 13.4502 25.573 13.4956 25.573C13.5411 25.5273 13.5751 25.4873 13.5979 25.453C13.6206 25.4187 13.6774 25.4016 13.7683 25.4016H13.9727C13.9727 25.2644 13.9955 25.1787 14.0409 25.1445C14.0863 25.1102 14.1545 25.0702 14.2454 25.0245H14.3135C14.359 24.9788 14.4328 24.9559 14.5351 24.9559C14.6373 24.9559 14.6884 24.8874 14.6884 24.7502C14.6884 24.7045 14.7055 24.6817 14.7395 24.6817C14.7736 24.6817 14.7907 24.7045 14.7907 24.7502C14.7907 24.796 14.8077 24.8417 14.8418 24.8874C14.8759 24.9331 14.8929 24.9788 14.8929 25.0245C14.8929 25.1159 14.9099 25.2016 14.944 25.2816C14.9781 25.3616 15.0179 25.4244 15.0633 25.4701L15.1655 25.573C15.2564 25.7101 15.3075 25.8701 15.3189 26.0529C15.3303 26.2357 15.3359 26.4185 15.3359 26.6014C15.3359 26.6471 15.3416 26.6871 15.353 26.7214C15.3643 26.7556 15.3927 26.7728 15.4382 26.7728C15.4836 26.7728 15.512 26.7671 15.5234 26.7556C15.5347 26.7442 15.5631 26.7156 15.6086 26.6699C15.654 26.6242 15.6824 26.5785 15.6938 26.5328C15.7051 26.4871 15.7335 26.4414 15.779 26.3957C15.8471 26.4871 15.8982 26.5842 15.9323 26.6871C15.9664 26.7899 15.9834 26.887 15.9834 26.9785C15.9834 27.0699 16.0005 27.1556 16.0346 27.2356C16.0686 27.3155 16.0857 27.3784 16.0857 27.4241C16.0857 27.4698 16.097 27.5212 16.1198 27.5784C16.1425 27.6355 16.1538 27.7098 16.1538 27.8012V28.5211C16.1538 28.5668 16.1538 28.6182 16.1538 28.6753C16.1538 28.7325 16.1311 28.8067 16.0857 28.8981C16.0857 28.9438 16.0857 28.9781 16.0857 29.001C16.0857 29.0238 16.1084 29.0581 16.1538 29.1038C16.2447 29.1952 16.3186 29.2924 16.3754 29.3952C16.4322 29.498 16.4833 29.6409 16.5287 29.8237C16.5287 29.9151 16.5458 30.0065 16.5798 30.0979C16.6139 30.1894 16.631 30.2579 16.631 30.3036C16.631 30.3493 16.6423 30.395 16.665 30.4407C16.6878 30.4865 16.6991 30.5322 16.6991 30.5779C16.7446 30.715 16.8298 30.8178 16.9547 30.8864C17.0797 30.9549 17.1876 31.0349 17.2785 31.1263C17.2785 31.0806 17.2728 31.0464 17.2614 31.0235C17.2501 31.0007 17.2217 30.9664 17.1762 30.9207C17.1308 30.8293 17.091 30.7378 17.057 30.6464C17.0229 30.555 17.0286 30.4407 17.074 30.3036V30.2008C17.074 30.1551 17.074 30.1094 17.074 30.0637C17.074 30.018 17.0513 29.9951 17.0058 29.9951C16.9604 29.9494 16.9263 29.9037 16.9036 29.858C16.8809 29.8123 16.8468 29.7666 16.8014 29.7209C16.7559 29.6752 16.7275 29.6352 16.7162 29.6009C16.7048 29.5666 16.6764 29.5495 16.631 29.5495C16.5401 29.5038 16.4833 29.4523 16.4606 29.3952C16.4378 29.3381 16.4265 29.2638 16.4265 29.1724C16.4265 29.1267 16.4265 29.0638 16.4265 28.9838C16.4265 28.9039 16.4038 28.841 16.3583 28.7953C16.2674 28.7496 16.2277 28.7039 16.239 28.6582C16.2504 28.6125 16.2561 28.5439 16.2561 28.4525C16.3015 28.3154 16.3299 28.1725 16.3413 28.024C16.3526 27.8754 16.3583 27.7326 16.3583 27.5955C16.3583 27.5498 16.3697 27.5269 16.3924 27.5269C16.4151 27.5269 16.4265 27.5269 16.4265 27.5269C16.4719 27.5726 16.5174 27.6012 16.5628 27.6126C16.6082 27.6241 16.6537 27.6526 16.6991 27.6983L16.9036 27.8697C16.9036 27.9383 16.9206 27.9783 16.9547 27.9897C16.9888 28.0011 17.0058 28.0297 17.0058 28.0754C17.0058 28.1211 17.0058 28.1611 17.0058 28.1954C17.0058 28.2297 17.0286 28.2468 17.074 28.2468C17.074 28.2925 17.091 28.3382 17.1251 28.3839C17.1592 28.4296 17.1762 28.4525 17.1762 28.4525C17.2671 28.4068 17.3239 28.4125 17.3466 28.4696C17.3694 28.5268 17.4034 28.5782 17.4489 28.6239C17.4489 28.6696 17.4318 28.7153 17.3978 28.761C17.3637 28.8067 17.3466 28.8524 17.3466 28.8981L17.4489 28.7953C17.4943 28.7953 17.5341 28.7782 17.5682 28.7439C17.6022 28.7096 17.6193 28.6696 17.6193 28.6239C17.6647 28.5782 17.6988 28.5268 17.7215 28.4696C17.7442 28.4125 17.801 28.4068 17.8919 28.4525L17.9942 28.3497C17.9942 28.2582 18.0169 28.1897 18.0623 28.144C18.1078 28.0983 18.1532 28.0754 18.1986 28.0754V27.2527C18.1986 27.1613 18.1759 27.0699 18.1305 26.9785C18.085 26.887 18.0396 26.8185 17.9942 26.7728C17.9487 26.6814 17.8862 26.6071 17.8067 26.55C17.7272 26.4928 17.6647 26.4185 17.6193 26.3271C17.5738 26.2814 17.5454 26.2129 17.5341 26.1214C17.5227 26.03 17.4943 25.9386 17.4489 25.8472C17.4034 25.7558 17.4205 25.6644 17.5 25.573C17.5795 25.4816 17.6193 25.3901 17.6193 25.2987H17.7215C17.7215 25.2987 17.7386 25.293 17.7726 25.2816C17.8067 25.2702 17.8238 25.2416 17.8238 25.1959L17.9942 25.0245H18.0964C18.0964 25.0245 18.1021 25.0416 18.1134 25.0759C18.1248 25.1102 18.1532 25.1273 18.1986 25.1273L18.2668 25.0245C18.3122 25.1159 18.3179 25.2016 18.2838 25.2816C18.2498 25.3616 18.2782 25.4244 18.369 25.4701C18.369 25.3787 18.3861 25.3102 18.4202 25.2644C18.4542 25.2187 18.494 25.173 18.5394 25.1273C18.6303 25.0816 18.7098 25.0188 18.778 24.9388C18.8462 24.8588 18.9257 24.796 19.0166 24.7502H19.1188C19.1642 24.796 19.2097 24.8017 19.2551 24.7674C19.3006 24.7331 19.346 24.6931 19.3914 24.6474C19.4369 24.6017 19.4823 24.5446 19.5278 24.476C19.5732 24.4074 19.6414 24.3732 19.7322 24.3732H19.8345C19.9253 24.3275 19.9935 24.276 20.0389 24.2189C20.0844 24.1618 20.1071 24.0646 20.1071 23.9275V23.7218C20.1071 23.6304 20.1298 23.5447 20.1753 23.4647C20.2207 23.3848 20.2889 23.3219 20.3797 23.2762C20.4252 23.2762 20.4706 23.2533 20.5161 23.2076C20.5615 23.1619 20.5842 23.1162 20.5842 23.0705L20.6524 23.002C20.6524 22.9563 20.6694 22.922 20.7035 22.8991C20.7376 22.8763 20.7546 22.842 20.7546 22.7963C20.7546 22.7049 20.7603 22.6363 20.7717 22.5906C20.783 22.5449 20.8114 22.4992 20.8569 22.4535L20.482 22.3506L20.7546 22.145L20.482 21.8022L20.7546 21.8707C20.7546 21.825 20.7376 21.7964 20.7035 21.785C20.6694 21.7736 20.6524 21.745 20.6524 21.6993L20.5842 21.5965C20.5388 21.5051 20.5047 21.4308 20.482 21.3737C20.4593 21.3165 20.4252 21.2422 20.3797 21.1508C20.3797 21.1051 20.3684 21.0708 20.3457 21.048C20.3229 21.0251 20.3116 20.9909 20.3116 20.9452C20.2661 20.8994 20.2434 20.8537 20.2434 20.808C20.2434 20.7623 20.2661 20.7166 20.3116 20.6709L20.3797 20.6024C20.4252 20.5109 20.4933 20.4252 20.5842 20.3452C20.6751 20.2653 20.766 20.2253 20.8569 20.2253L20.925 20.1224C20.925 20.0767 20.9137 20.0482 20.8909 20.0367C20.8682 20.0253 20.8569 20.0196 20.8569 20.0196C20.8114 20.0196 20.7773 20.0196 20.7546 20.0196C20.7319 20.0196 20.6978 19.9967 20.6524 19.951C20.6069 19.9053 20.5785 19.8825 20.5672 19.8825C20.5558 19.8825 20.5274 19.9053 20.482 19.951C20.482 19.951 20.4763 19.9625 20.4649 19.9853C20.4536 20.0082 20.4252 20.0196 20.3797 20.0196C20.3343 20.0196 20.3059 20.0367 20.2945 20.071C20.2832 20.1053 20.2548 20.1224 20.2093 20.1224C20.2093 20.0767 20.1923 20.0482 20.1582 20.0367C20.1241 20.0253 20.1071 19.9967 20.1071 19.951C20.1071 19.8596 20.1014 19.8025 20.0901 19.7796C20.0787 19.7568 20.0276 19.7453 19.9367 19.7453C19.8913 19.7453 19.8458 19.7396 19.8004 19.7282C19.755 19.7168 19.7322 19.6654 19.7322 19.5739C19.7322 19.4825 19.755 19.4311 19.8004 19.4197C19.8458 19.4083 19.8913 19.4025 19.9367 19.4025C19.9821 19.4025 20.0105 19.3968 20.0219 19.3854C20.0333 19.374 20.0617 19.3454 20.1071 19.2997C20.1525 19.254 20.1866 19.2083 20.2093 19.1626C20.2321 19.1169 20.2661 19.094 20.3116 19.094L20.3797 19.0255C20.3797 18.9798 20.3968 18.9455 20.4309 18.9226C20.4649 18.8998 20.482 18.8655 20.482 18.8198C20.5274 18.7741 20.5672 18.7512 20.6013 18.7512C20.6353 18.7512 20.6524 18.7741 20.6524 18.8198C20.6978 18.8655 20.7092 18.9112 20.6865 18.9569C20.6637 19.0026 20.6524 19.0255 20.6524 19.0255C20.6069 19.0712 20.5785 19.134 20.5672 19.214C20.5558 19.294 20.5274 19.3797 20.482 19.4711C20.5274 19.4711 20.5558 19.4597 20.5672 19.4368C20.5785 19.414 20.6069 19.4025 20.6524 19.4025C20.6978 19.3568 20.7489 19.3111 20.8057 19.2654C20.8625 19.2197 20.9364 19.1626 21.0273 19.094C21.0727 19.0483 21.1295 19.0426 21.1977 19.0769C21.2658 19.1112 21.2999 19.1512 21.2999 19.1969C21.3453 19.2426 21.3567 19.2883 21.334 19.334C21.3113 19.3797 21.2658 19.4254 21.1977 19.4711C21.1522 19.5168 21.1295 19.5625 21.1295 19.6082C21.1295 19.6539 21.1522 19.6996 21.1977 19.7453C21.2658 19.7453 21.3169 19.7339 21.351 19.7111C21.3851 19.6882 21.4021 19.6996 21.4021 19.7453C21.4476 19.7911 21.476 19.8368 21.4873 19.8825C21.4987 19.9282 21.5271 19.9739 21.5725 20.0196C21.5271 20.0196 21.5044 20.0424 21.5044 20.0881C21.5044 20.1339 21.5044 20.1796 21.5044 20.2253V20.4995C21.4589 20.5452 21.4476 20.6081 21.4703 20.6881C21.493 20.768 21.5044 20.8309 21.5044 20.8766C21.5953 20.8309 21.6691 20.768 21.7259 20.6881C21.7827 20.6081 21.8565 20.5452 21.9474 20.4995H22.0497C22.0951 20.4995 22.1178 20.4938 22.1178 20.4824C22.1178 20.4709 22.1178 20.4195 22.1178 20.3281C22.1178 20.2824 22.1178 20.231 22.1178 20.1738C22.1178 20.1167 22.0951 20.0653 22.0497 20.0196C22.0497 19.9739 22.044 19.9453 22.0326 19.9339C22.0213 19.9225 21.9929 19.8939 21.9474 19.8482C21.902 19.7568 21.8452 19.6768 21.777 19.6082C21.7089 19.5397 21.6748 19.4368 21.6748 19.2997C21.6748 19.254 21.6691 19.2254 21.6577 19.214C21.6464 19.2026 21.618 19.1969 21.5725 19.1969C21.5271 19.1512 21.5044 19.1112 21.5044 19.0769C21.5044 19.0426 21.5271 19.0255 21.5725 19.0255C21.618 18.9798 21.6521 18.9341 21.6748 18.8883C21.6975 18.8426 21.7316 18.7969 21.777 18.7512C21.8225 18.7055 21.8509 18.6598 21.8622 18.6141C21.8736 18.5684 21.902 18.5455 21.9474 18.5455C21.9474 18.5455 21.9645 18.5455 21.9985 18.5455C22.0326 18.5455 22.0497 18.5227 22.0497 18.477C22.0497 18.3399 22.0837 18.237 22.1519 18.1685C22.2201 18.0999 22.3109 18.0085 22.4245 17.8942C22.47 17.8485 22.5154 17.8257 22.5609 17.8257C22.6063 17.8257 22.6517 17.8485 22.6972 17.8942C22.7426 17.9399 22.7824 17.9628 22.8165 17.9628C22.8505 17.9628 22.8676 17.9399 22.8676 17.8942C22.8676 17.8485 22.9187 17.8028 23.0209 17.7571C23.1232 17.7114 23.197 17.6428 23.2425 17.5514C23.3788 17.3686 23.5094 17.1629 23.6344 16.9344C23.7593 16.7058 23.8673 16.4773 23.9581 16.2488C24.049 16.0659 24.1229 15.8945 24.1797 15.7346C24.2365 15.5746 24.2876 15.3803 24.333 15.1518C24.333 15.0604 24.3387 14.9633 24.35 14.8604C24.3614 14.7576 24.3898 14.6605 24.4352 14.569C24.4807 14.4776 24.492 14.4034 24.4693 14.3462C24.4466 14.2891 24.4352 14.2148 24.4352 14.1234C24.4352 14.0777 24.4125 14.0149 24.3671 13.9349C24.3217 13.8549 24.2762 13.792 24.2308 13.7463V13.6778C24.1853 13.5635 24.1399 13.5064 24.0945 13.5064C24.049 13.5064 24.0036 13.5292 23.9581 13.5749L23.7877 13.7463C23.7877 13.7463 23.7707 13.752 23.7366 13.7635C23.7025 13.7749 23.6855 13.8035 23.6855 13.8492V13.4721C23.6401 13.5178 23.6173 13.5635 23.6173 13.6092C23.6173 13.6549 23.6173 13.6778 23.6173 13.6778V13.3692H23.3106V13.3007C23.3106 13.255 23.3277 13.2207 23.3617 13.1978C23.3958 13.175 23.4129 13.1407 23.4129 13.095C23.4129 13.0036 23.4356 12.935 23.481 12.8893C23.5265 12.8436 23.5946 12.8208 23.6855 12.8208C23.6855 12.6836 23.6969 12.5865 23.7196 12.5294C23.7423 12.4722 23.7991 12.4208 23.89 12.3751C23.9809 12.2837 24.0717 12.1752 24.1626 12.0495C24.2535 11.9238 24.3444 11.8152 24.4352 11.7238C24.4807 11.6781 24.5318 11.621 24.5886 11.5524C24.6454 11.4838 24.7192 11.4496 24.8101 11.4496H25.628C25.6735 11.4039 25.736 11.381 25.8155 11.381C25.895 11.381 25.9575 11.4039 26.0029 11.4496H26.0711C26.1165 11.4039 26.162 11.3753 26.2074 11.3639C26.2528 11.3524 26.2983 11.3467 26.3437 11.3467H26.446C26.4914 11.3467 26.5312 11.3639 26.5652 11.3981C26.5993 11.4324 26.6164 11.4496 26.6164 11.4496L26.5482 11.5524V11.621H26.7186C26.764 11.621 26.8095 11.6095 26.8549 11.5867C26.9004 11.5638 26.9458 11.5524 26.9912 11.5524C27.0821 11.5981 27.1616 11.5924 27.2298 11.5353C27.298 11.4781 27.3775 11.4496 27.4684 11.4496C27.4229 11.4496 27.3945 11.4324 27.3832 11.3981C27.3718 11.3639 27.3661 11.3467 27.3661 11.3467C27.3207 11.3467 27.2923 11.3296 27.2809 11.2953C27.2696 11.261 27.2639 11.221 27.2639 11.1753C27.3093 11.0839 27.3604 10.9925 27.4172 10.9011C27.474 10.8097 27.5479 10.7411 27.6388 10.6954C27.6842 10.6954 27.7126 10.6783 27.724 10.644C27.7353 10.6097 27.741 10.5697 27.741 10.524C27.741 10.4783 27.758 10.4326 27.7921 10.3869C27.8262 10.3412 27.866 10.3183 27.9114 10.3183H28.1159C28.1613 10.3183 28.2011 10.3126 28.2352 10.3012C28.2692 10.2897 28.2863 10.3297 28.2863 10.4212L28.3885 10.3183L28.2863 10.6954L28.3885 10.7982L28.4567 10.6954C28.5021 10.6497 28.5532 10.5926 28.61 10.524C28.6668 10.4554 28.7407 10.4212 28.8315 10.4212V10.1469C28.8315 10.0555 28.8827 9.99265 28.9849 9.95837C29.0871 9.92409 29.161 9.95266 29.2064 10.0441C29.1155 10.0441 29.0644 10.0669 29.0531 10.1126C29.0417 10.1583 29.036 10.204 29.036 10.2498V10.524C28.9906 10.5697 28.9565 10.6268 28.9338 10.6954C28.9111 10.764 28.877 10.7982 28.8315 10.7982C28.7861 10.7982 28.7577 10.8154 28.7464 10.8497C28.735 10.8839 28.7066 10.9011 28.6612 10.9011C28.6612 10.9011 28.6441 10.9182 28.61 10.9525C28.576 10.9868 28.5589 11.0268 28.5589 11.0725C28.5135 11.1639 28.451 11.2382 28.3715 11.2953C28.292 11.3524 28.2295 11.4381 28.184 11.5524C28.0932 11.6895 27.9966 11.8038 27.8944 11.8952C27.7921 11.9866 27.6728 12.0552 27.5365 12.1009C27.5365 12.1466 27.5252 12.1923 27.5024 12.238C27.4797 12.2837 27.4684 12.3294 27.4684 12.3751V12.5465C27.5138 12.5922 27.5365 12.6379 27.5365 12.6836C27.5365 12.7294 27.5365 12.7751 27.5365 12.8208C27.4911 13.0036 27.4684 13.1921 27.4684 13.3864C27.4684 13.5806 27.4684 13.7692 27.4684 13.952C27.4684 14.0891 27.457 14.2377 27.4343 14.3976C27.4116 14.5576 27.4456 14.7176 27.5365 14.8776C27.6274 14.7633 27.7012 14.6605 27.758 14.569C27.8148 14.4776 27.866 14.3862 27.9114 14.2948C27.9114 14.2034 27.9341 14.1348 27.9796 14.0891C28.025 14.0434 28.0704 14.0206 28.1159 14.0206C28.1613 13.9749 28.184 13.9463 28.184 13.9349C28.184 13.9234 28.184 13.8949 28.184 13.8492C28.1386 13.6663 28.1386 13.5349 28.184 13.4549C28.2295 13.375 28.3204 13.2893 28.4567 13.1978L28.5589 13.095C28.6044 13.0493 28.6384 13.0093 28.6612 12.975C28.6839 12.9407 28.7407 12.9236 28.8315 12.9236H28.9338V12.8208C28.8883 12.7294 28.8656 12.6722 28.8656 12.6494C28.8656 12.6265 28.8883 12.5579 28.9338 12.4437C28.9338 12.4437 28.9395 12.4323 28.9508 12.4094C28.9622 12.3865 28.9906 12.3751 29.036 12.3751H28.8315C28.7861 12.3751 28.7464 12.3523 28.7123 12.3066C28.6782 12.2609 28.6839 12.2151 28.7293 12.1694C28.7293 12.1237 28.7464 12.078 28.7804 12.0323C28.8145 11.9866 28.8315 11.9409 28.8315 11.8952C28.8315 11.8495 28.8486 11.8209 28.8827 11.8095C28.9167 11.7981 28.9338 11.7695 28.9338 11.7238C28.9338 11.6781 28.9508 11.6381 28.9849 11.6038C29.019 11.5695 29.036 11.5524 29.036 11.5524C29.0815 11.4381 29.1269 11.381 29.1723 11.381C29.2178 11.381 29.2632 11.4039 29.3087 11.4496L29.4791 11.1753C29.5245 11.2667 29.5699 11.3182 29.6154 11.3296C29.6608 11.341 29.7063 11.3467 29.7517 11.3467C29.8426 11.2553 29.9335 11.2096 30.0243 11.2096C30.1152 11.2096 30.2061 11.2553 30.297 11.3467C30.3424 11.301 30.4106 11.2382 30.5015 11.1582C30.5923 11.0782 30.6832 11.0153 30.7741 10.9696C30.865 10.8782 30.9559 10.8097 31.0467 10.764C31.1376 10.7183 31.2285 10.6725 31.3194 10.6268C31.4103 10.5811 31.5125 10.5411 31.6261 10.5069C31.7397 10.4726 31.8192 10.3869 31.8647 10.2498C31.9101 10.2498 31.9555 10.2612 32.001 10.284C32.0464 10.3069 32.0919 10.3183 32.1373 10.3183C32.1827 10.3183 32.2282 10.3126 32.2736 10.3012C32.3191 10.2897 32.3418 10.2383 32.3418 10.1469C32.2509 10.1469 32.1771 10.1069 32.1203 10.0269C32.0635 9.94695 32.0123 9.86125 31.9669 9.76983C31.9215 9.67842 31.8817 9.60415 31.8476 9.54701C31.8135 9.48988 31.8192 9.41561 31.8647 9.32419C31.8192 9.32419 31.7908 9.31848 31.7795 9.30705C31.7681 9.29563 31.7397 9.26706 31.6943 9.22135V9.11851H31.9669C32.0123 9.0271 32.0748 8.9871 32.1543 8.99853C32.2339 9.00996 32.2963 8.99282 32.3418 8.94711C32.7053 9.03852 32.9155 9.0728 32.9723 9.04995C33.0291 9.0271 33.0575 8.99282 33.0575 8.94711C33.012 8.9014 32.9893 8.86141 32.9893 8.82713C32.9893 8.79285 33.012 8.77571 33.0575 8.77571C33.1029 8.77571 33.1313 8.75857 33.1427 8.72429C33.154 8.69001 33.1824 8.67287 33.2278 8.67287C33.1824 8.76428 33.1597 8.83856 33.1597 8.89569C33.1597 8.95282 33.1824 9.00424 33.2278 9.04995C33.296 9.09566 33.3528 9.10708 33.3982 9.08423C33.4437 9.06138 33.4891 9.04995 33.5346 9.04995C33.58 9.04995 33.6368 9.06709 33.705 9.10137C33.7731 9.13565 33.8072 9.17564 33.8072 9.22135C33.8072 9.26706 33.8186 9.29563 33.8413 9.30705C33.864 9.31848 33.8754 9.32419 33.8754 9.32419C33.9208 9.3699 33.9662 9.39847 34.0117 9.40989C34.0571 9.42132 34.1026 9.44989 34.148 9.49559C34.1934 9.5413 34.2446 9.58129 34.3014 9.61557C34.3582 9.64985 34.4093 9.64414 34.4547 9.59843L34.3525 9.49559H34.4547V9.04995L34.7274 9.11851L34.6251 9.04995L34.7955 9.11851L35 8.77571ZM26.2756 34.1773C26.2756 34.1773 26.2585 34.1544 26.2244 34.1087C26.1904 34.063 26.1733 34.0173 26.1733 33.9716C26.1733 33.9259 26.1676 33.8802 26.1563 33.8345C26.1449 33.7888 26.1165 33.7431 26.0711 33.6974C26.0711 33.6974 26.0711 33.6859 26.0711 33.6631C26.0711 33.6402 26.0484 33.6288 26.0029 33.6288L26.1733 33.526C26.1733 33.4802 26.1563 33.4345 26.1222 33.3888C26.0881 33.3431 26.0711 33.3203 26.0711 33.3203C26.0256 33.2746 25.9859 33.2517 25.9518 33.2517C25.9177 33.2517 25.9007 33.2517 25.9007 33.2517C25.8552 33.206 25.8155 33.1717 25.7814 33.1489C25.7473 33.126 25.7303 33.0917 25.7303 33.046C25.6848 33.0003 25.6337 32.9432 25.5769 32.8746C25.5201 32.8061 25.469 32.7489 25.4236 32.7032L24.8783 32.429C24.8328 32.3833 24.776 32.349 24.7079 32.3262C24.6397 32.3033 24.5716 32.269 24.5034 32.2233C24.458 32.2233 24.4125 32.2176 24.3671 32.2062C24.3217 32.1947 24.2762 32.1433 24.2308 32.0519C24.1853 32.0062 24.1399 31.9776 24.0945 31.9662C24.049 31.9548 24.0036 31.9491 23.9581 31.9491C23.9127 32.0405 23.8559 32.1205 23.7877 32.189C23.7196 32.2576 23.6628 32.3376 23.6173 32.429C23.5719 32.4747 23.5265 32.4918 23.481 32.4804C23.4356 32.469 23.4129 32.4176 23.4129 32.3262C23.4129 32.2347 23.3958 32.1548 23.3617 32.0862C23.3277 32.0176 23.3106 31.9376 23.3106 31.8462C23.3106 31.8005 23.3106 31.7605 23.3106 31.7262C23.3106 31.692 23.2879 31.6748 23.2425 31.6748C23.197 31.6291 23.1345 31.6006 23.055 31.5891C22.9755 31.5777 22.913 31.572 22.8676 31.572C22.8221 31.572 22.7767 31.6063 22.7313 31.6748C22.6858 31.7434 22.6404 31.8005 22.5949 31.8462C22.6404 31.8919 22.6801 31.9262 22.7142 31.9491C22.7483 31.9719 22.7653 32.0062 22.7653 32.0519C22.7653 32.0976 22.7881 32.1319 22.8335 32.1548C22.8789 32.1776 22.9244 32.1662 22.9698 32.1205H23.1402L23.2425 32.2233H23.1402C23.0948 32.2233 23.0437 32.229 22.9869 32.2405C22.9301 32.2519 22.8562 32.2804 22.7653 32.3262C22.8108 32.3719 22.8392 32.4119 22.8505 32.4461C22.8619 32.4804 22.8676 32.4976 22.8676 32.4976C22.8676 32.4976 22.8846 32.5204 22.9187 32.5661C22.9528 32.6118 22.9698 32.6575 22.9698 32.7032L23.038 32.6004C23.0834 32.6461 23.1289 32.6747 23.1743 32.6861C23.2197 32.6975 23.2652 32.7261 23.3106 32.7718L23.4129 32.8746C23.5037 32.9203 23.5946 32.9489 23.6855 32.9603C23.7764 32.9718 23.8673 33.0003 23.9581 33.046C24.0036 33.046 24.032 33.0689 24.0433 33.1146C24.0547 33.1603 24.0604 33.206 24.0604 33.2517C24.0604 33.2974 24.0774 33.3431 24.1115 33.3888C24.1456 33.4345 24.1626 33.4802 24.1626 33.526C24.1626 33.5717 24.1569 33.6002 24.1456 33.6117C24.1342 33.6231 24.1058 33.6516 24.0604 33.6974C24.0149 33.6974 23.9865 33.7145 23.9752 33.7488C23.9638 33.7831 23.9354 33.8002 23.89 33.8002C23.8445 33.8459 23.8332 33.8859 23.8559 33.9202C23.8786 33.9545 23.9127 33.9487 23.9581 33.903H24.2308C24.2762 33.903 24.3103 33.903 24.333 33.903C24.3557 33.903 24.3898 33.9259 24.4352 33.9716C24.4807 34.0173 24.5091 34.063 24.5204 34.1087C24.5318 34.1544 24.5602 34.1773 24.6056 34.1773C24.6511 34.1773 24.7136 34.1887 24.7931 34.2116C24.8726 34.2344 24.9351 34.223 24.9805 34.1773C25.026 34.1316 25.0544 34.0859 25.0657 34.0402C25.0771 33.9944 25.1055 33.9487 25.1509 33.903C25.1964 33.8573 25.2304 33.8288 25.2532 33.8173C25.2759 33.8059 25.3327 33.8002 25.4236 33.8002C25.5144 33.8459 25.6053 33.9145 25.6962 34.0059C25.7871 34.0973 25.8552 34.2116 25.9007 34.3487C25.9461 34.3944 25.9745 34.4401 25.9859 34.4858C25.9972 34.5315 26.0256 34.5544 26.0711 34.5544C26.1165 34.5544 26.1676 34.5658 26.2244 34.5886C26.2812 34.6115 26.3551 34.6229 26.446 34.6229H26.6164C26.6164 34.6229 26.6164 34.6115 26.6164 34.5886C26.6164 34.5658 26.5936 34.5544 26.5482 34.5544C26.5028 34.5087 26.4687 34.4458 26.446 34.3658C26.4232 34.2858 26.3664 34.223 26.2756 34.1773ZM19.7322 32.0519C19.7322 32.0062 19.7493 31.9548 19.7834 31.8976C19.8174 31.8405 19.8345 31.7662 19.8345 31.6748C19.8345 31.5834 19.8515 31.5149 19.8856 31.4691C19.9197 31.4234 19.9594 31.4006 20.0049 31.4006C20.0503 31.4006 20.0787 31.3834 20.0901 31.3492C20.1014 31.3149 20.1071 31.2977 20.1071 31.2977C20.1071 31.252 20.0901 31.2235 20.056 31.212C20.0219 31.2006 20.0049 31.1721 20.0049 31.1263C20.0049 31.0806 19.9935 31.0521 19.9708 31.0406C19.9481 31.0292 19.9367 31.0235 19.9367 31.0235C19.9367 30.9321 19.9083 30.8578 19.8515 30.8007C19.7947 30.7436 19.789 30.6693 19.8345 30.5779C19.8345 30.5779 19.8402 30.555 19.8515 30.5093C19.8629 30.4636 19.8913 30.4179 19.9367 30.3722C19.9367 30.3265 19.9481 30.3036 19.9708 30.3036C19.9935 30.3036 20.0049 30.3036 20.0049 30.3036C20.0049 30.2579 20.0219 30.2294 20.056 30.2179C20.0901 30.2065 20.1071 30.2008 20.1071 30.2008L20.2093 30.0979C20.2093 30.0522 20.2037 30.0237 20.1923 30.0122C20.1809 30.0008 20.1525 29.9951 20.1071 29.9951H20.0049C19.9594 29.9951 19.9197 29.9951 19.8856 29.9951C19.8515 29.9951 19.8345 29.9722 19.8345 29.9265C19.8345 29.8808 19.8174 29.8466 19.7834 29.8237C19.7493 29.8008 19.7095 29.7666 19.6641 29.7209C19.6641 29.7209 19.647 29.7437 19.613 29.7894C19.5789 29.8351 19.5618 29.8808 19.5618 29.9265C19.5164 30.018 19.471 30.1037 19.4255 30.1836C19.3801 30.2636 19.3346 30.3265 19.2892 30.3722C19.1983 30.3265 19.1472 30.3093 19.1358 30.3208C19.1245 30.3322 19.1188 30.3836 19.1188 30.475C19.1188 30.5207 19.1018 30.5493 19.0677 30.5607C19.0336 30.5722 19.0166 30.6007 19.0166 30.6464C19.0166 30.7378 18.9938 30.8064 18.9484 30.8521C18.903 30.8978 18.8348 30.9207 18.7439 30.9207C18.6985 30.9207 18.653 30.9321 18.6076 30.9549C18.5622 30.9778 18.5394 31.0349 18.5394 31.1263V31.2292C18.5394 31.3206 18.5338 31.3663 18.5224 31.3663C18.511 31.3663 18.4599 31.3435 18.369 31.2977H18.2668C18.2214 31.252 18.1759 31.2349 18.1305 31.2463C18.085 31.2578 18.0396 31.3092 17.9942 31.4006V31.6748C17.9942 31.7205 17.9998 31.7491 18.0112 31.7605C18.0226 31.772 18.051 31.8005 18.0964 31.8462C18.0964 31.8919 18.1021 31.9376 18.1134 31.9833C18.1248 32.0291 18.1532 32.0519 18.1986 32.0519C18.2441 32.0976 18.2838 32.1605 18.3179 32.2405C18.352 32.3204 18.369 32.4061 18.369 32.4976V32.6004C18.369 32.6461 18.3861 32.6861 18.4202 32.7204C18.4542 32.7547 18.494 32.7489 18.5394 32.7032H18.6417C18.6871 32.7489 18.7155 32.7718 18.7269 32.7718C18.7382 32.7718 18.7666 32.7718 18.8121 32.7718C18.8575 32.7261 18.92 32.7204 18.9995 32.7547C19.079 32.7889 19.1415 32.8289 19.187 32.8746C19.2324 32.9203 19.2665 32.9432 19.2892 32.9432C19.3119 32.9432 19.346 32.9203 19.3914 32.8746C19.4823 32.8289 19.5334 32.7775 19.5448 32.7204C19.5562 32.6632 19.5618 32.589 19.5618 32.4976C19.6073 32.3604 19.6357 32.2633 19.647 32.2062C19.6584 32.149 19.6868 32.0976 19.7322 32.0519ZM6.88413 6.10186V5.89618C6.92957 5.89618 6.96933 5.91903 7.00341 5.96474C7.03749 6.01045 7.05453 6.05615 7.05453 6.10186C7.05453 6.19327 7.07157 6.24469 7.10565 6.25612C7.13973 6.26755 7.15677 6.27326 7.15677 6.27326C7.24765 6.31897 7.33853 6.34754 7.42941 6.35896C7.52029 6.37039 7.58845 6.3761 7.63389 6.3761H7.80428C7.80428 6.33039 7.78724 6.29611 7.75316 6.27326C7.71909 6.25041 7.70205 6.21613 7.70205 6.17042C7.65661 6.12471 7.61117 6.07901 7.56573 6.0333C7.52029 5.98759 7.47485 5.90761 7.42941 5.79334C7.38397 5.70193 7.36693 5.62765 7.37829 5.57052C7.38965 5.51339 7.44077 5.43911 7.53165 5.3477V5.24486C7.53165 5.19915 7.54869 5.15916 7.58277 5.12488C7.61685 5.0906 7.63389 5.07346 7.63389 5.07346C7.67933 5.02775 7.70205 4.99347 7.70205 4.97062C7.70205 4.94776 7.67933 4.89063 7.63389 4.79922C7.63389 4.75351 7.63389 4.69066 7.63389 4.61068C7.63389 4.53069 7.65661 4.46784 7.70205 4.42214C7.74748 4.37643 7.80996 4.33072 7.88948 4.28501C7.969 4.23931 8.03148 4.1936 8.07692 4.14789C8.1678 4.14789 8.24164 4.14218 8.29844 4.13075C8.35524 4.11933 8.40636 4.09076 8.4518 4.04505C8.54268 3.90793 8.6506 3.81081 8.77556 3.75367C8.90052 3.69654 9.00844 3.64512 9.09932 3.59941C9.1902 3.55371 9.29812 3.508 9.42308 3.46229C9.54804 3.41658 9.65596 3.37088 9.74684 3.32517C9.79228 3.27946 9.84908 3.23376 9.91724 3.18805C9.98539 3.14234 10.0422 3.09664 10.0876 3.05093C10.0876 3.05093 10.099 3.02808 10.1217 2.98237C10.1444 2.93666 10.1331 2.89096 10.0876 2.84525C10.0876 2.79954 10.0763 2.77669 10.0536 2.77669C10.0308 2.77669 10.0195 2.77669 10.0195 2.77669C9.97403 2.77669 9.92292 2.77669 9.86612 2.77669C9.80932 2.77669 9.73548 2.79954 9.6446 2.84525C9.55372 2.89096 9.4742 2.93666 9.40604 2.98237C9.33788 3.02808 9.23564 3.05093 9.09932 3.05093C9.05388 3.18805 8.96868 3.25661 8.84372 3.25661C8.71876 3.25661 8.58812 3.27946 8.4518 3.32517C8.36092 3.37088 8.27004 3.42801 8.17916 3.49657C8.08828 3.56513 7.9974 3.62227 7.90652 3.66797L7.70205 3.87365C7.65661 3.87365 7.63389 3.87937 7.63389 3.89079C7.63389 3.90222 7.63389 3.95364 7.63389 4.04505V4.14789C7.58845 4.14789 7.56005 4.17646 7.54869 4.23359C7.53733 4.29073 7.53165 4.31929 7.53165 4.31929C7.53165 4.365 7.51461 4.41071 7.48053 4.45642C7.44645 4.50212 7.40669 4.52498 7.36125 4.52498C7.36125 4.52498 7.34421 4.54212 7.31013 4.5764C7.27605 4.61068 7.25901 4.65067 7.25901 4.69638C7.25901 4.78779 7.25333 4.85635 7.24197 4.90206C7.23061 4.94776 7.16813 4.97062 7.05453 4.97062C7.05453 5.06203 7.03749 5.11916 7.00341 5.14202C6.96933 5.16487 6.92957 5.1763 6.88413 5.1763L6.98637 5.3477L6.78189 5.5191C6.69101 5.5191 6.65125 5.55338 6.66261 5.62194C6.67397 5.6905 6.65693 5.74763 6.61149 5.79334H6.78189C6.78189 5.90761 6.77621 5.98759 6.76485 6.0333C6.75349 6.07901 6.79325 6.10186 6.88413 6.10186ZM17.4489 33.1489V32.7032C17.4489 32.6575 17.4659 32.6232 17.5 32.6004C17.5341 32.5775 17.5511 32.5433 17.5511 32.4976C17.5511 32.4061 17.5284 32.3319 17.483 32.2747C17.4375 32.2176 17.3921 32.1662 17.3466 32.1205H17.2785C17.2785 32.1205 17.2785 32.1376 17.2785 32.1719C17.2785 32.2062 17.3012 32.2233 17.3466 32.2233L17.4489 32.3262C17.4034 32.3262 17.3637 32.3204 17.3296 32.309C17.2955 32.2976 17.2785 32.269 17.2785 32.2233C17.233 32.1776 17.199 32.1319 17.1762 32.0862C17.1535 32.0405 17.1194 31.9948 17.074 31.9491H17.0058C16.9604 31.9491 16.932 31.9319 16.9206 31.8976C16.9093 31.8634 16.9036 31.8234 16.9036 31.7777V31.572C16.8582 31.5263 16.8241 31.4806 16.8014 31.4349C16.7786 31.3892 16.7446 31.3435 16.6991 31.2977C16.6537 31.252 16.5969 31.2063 16.5287 31.1606C16.4606 31.1149 16.4038 31.0692 16.3583 31.0235C16.3129 31.0235 16.2788 31.0064 16.2561 30.9721C16.2334 30.9378 16.1993 30.8978 16.1538 30.8521C16.1084 30.8064 16.08 30.7607 16.0686 30.715C16.0573 30.6693 16.0289 30.6236 15.9834 30.5779C15.938 30.5322 15.9096 30.4865 15.8982 30.4407C15.8869 30.395 15.8471 30.3493 15.779 30.3036C15.779 30.2579 15.7619 30.2236 15.7278 30.2008C15.6938 30.1779 15.654 30.1437 15.6086 30.0979C15.5631 30.0522 15.5006 30.0237 15.4211 30.0122C15.3416 30.0008 15.2791 29.9951 15.2337 29.9951V30.0979C15.2791 30.1437 15.3132 30.2065 15.3359 30.2865C15.3587 30.3665 15.3927 30.4293 15.4382 30.475C15.4836 30.5207 15.5234 30.5722 15.5574 30.6293C15.5915 30.6864 15.6086 30.7607 15.6086 30.8521C15.6086 30.8521 15.6142 30.8635 15.6256 30.8864C15.637 30.9092 15.6654 30.9207 15.7108 30.9207C15.8017 30.9664 15.8528 31.0349 15.8642 31.1263C15.8755 31.2178 15.8812 31.3092 15.8812 31.4006C15.8812 31.4463 15.8982 31.4749 15.9323 31.4863C15.9664 31.4977 15.9834 31.5263 15.9834 31.572C16.0289 31.6177 16.0686 31.6691 16.1027 31.7262C16.1368 31.7834 16.1538 31.8577 16.1538 31.9491C16.1993 32.0862 16.2618 32.2233 16.3413 32.3604C16.4208 32.4976 16.4833 32.6118 16.5287 32.7032C16.5742 32.8404 16.6366 32.9546 16.7162 33.046C16.7957 33.1374 16.8922 33.2289 17.0058 33.3203H17.2785C17.3694 33.2746 17.4205 33.2346 17.4318 33.2003C17.4432 33.166 17.4489 33.1489 17.4489 33.1489ZM24.4352 19.6768C24.3898 19.7682 24.3557 19.8539 24.333 19.9339C24.3103 20.0139 24.2535 20.0767 24.1626 20.1224C24.1172 20.1681 24.0717 20.1853 24.0263 20.1738C23.9809 20.1624 23.9581 20.111 23.9581 20.0196C23.9581 20.0653 23.9468 20.111 23.9241 20.1567C23.9013 20.2024 23.89 20.2253 23.89 20.2253C23.89 20.271 23.8843 20.2995 23.8729 20.311C23.8616 20.3224 23.8332 20.351 23.7877 20.3967C23.7877 20.4424 23.7707 20.4767 23.7366 20.4995C23.7025 20.5224 23.6855 20.5566 23.6855 20.6024C23.6855 20.6481 23.6741 20.6709 23.6514 20.6709C23.6287 20.6709 23.6173 20.6709 23.6173 20.6709C23.5719 20.6252 23.5378 20.6138 23.5151 20.6366C23.4924 20.6595 23.4583 20.6709 23.4129 20.6709H23.1402C23.0948 20.6709 23.0664 20.6766 23.055 20.6881C23.0437 20.6995 23.038 20.728 23.038 20.7738L22.7653 21.048C22.7199 21.0937 22.6972 21.1223 22.6972 21.1337C22.6972 21.1451 22.7199 21.1737 22.7653 21.2194C22.8108 21.2194 22.8562 21.2194 22.9017 21.2194C22.9471 21.2194 22.9925 21.1965 23.038 21.1508C23.0834 21.1051 23.1516 21.0594 23.2425 21.0137C23.3333 20.968 23.4242 20.9452 23.5151 20.9452C23.606 20.9452 23.6571 20.9566 23.6685 20.9794C23.6798 21.0023 23.6855 21.0594 23.6855 21.1508V21.2194H23.89C23.9354 21.1737 23.9695 21.128 23.9922 21.0823C24.0149 21.0366 24.0036 20.968 23.9581 20.8766L24.1626 21.048C24.2081 21.0023 24.2535 20.9737 24.2989 20.9623C24.3444 20.9509 24.3898 20.9223 24.4352 20.8766C24.4807 20.8309 24.5261 20.768 24.5716 20.6881C24.617 20.6081 24.6624 20.5452 24.7079 20.4995C24.7533 20.4538 24.7817 20.3852 24.7931 20.2938C24.8044 20.2024 24.8101 20.0881 24.8101 19.951C24.8101 19.9053 24.8101 19.8596 24.8101 19.8139C24.8101 19.7682 24.8328 19.7225 24.8783 19.6768C24.9237 19.6311 24.9521 19.5854 24.9635 19.5397C24.9748 19.494 24.9805 19.4483 24.9805 19.4025C24.9805 19.3568 24.9635 19.2597 24.9294 19.1112C24.8953 18.9626 24.8783 18.8426 24.8783 18.7512C24.7874 18.7512 24.7079 18.7912 24.6397 18.8712C24.5716 18.9512 24.5602 19.0597 24.6056 19.1969C24.6056 19.2883 24.5886 19.3683 24.5545 19.4368C24.5204 19.5054 24.4807 19.5854 24.4352 19.6768ZM20.2093 32.6004C20.2548 32.6004 20.2832 32.6175 20.2945 32.6518C20.3059 32.6861 20.3116 32.7261 20.3116 32.7718V33.2517C20.357 33.206 20.3968 33.1603 20.4309 33.1146C20.4649 33.0689 20.482 33.0232 20.482 32.9775V32.4976L20.5842 32.429C20.5842 32.429 20.5956 32.4461 20.6183 32.4804C20.641 32.5147 20.6524 32.5547 20.6524 32.6004V32.7032C20.6524 32.7489 20.6694 32.7946 20.7035 32.8404C20.7376 32.8861 20.7546 32.9318 20.7546 32.9775H20.8569C20.9477 32.9318 20.9932 32.8975 20.9932 32.8746C20.9932 32.8518 20.9705 32.7946 20.925 32.7032V32.6004C20.925 32.5547 20.925 32.509 20.925 32.4633C20.925 32.4176 20.9023 32.3719 20.8569 32.3262C20.8114 32.2804 20.7887 32.2462 20.7887 32.2233C20.7887 32.2005 20.8114 32.1662 20.8569 32.1205C20.9023 32.0748 20.9421 32.0462 20.9761 32.0348C21.0102 32.0233 21.0273 31.9948 21.0273 31.9491V31.8462H20.925C20.8796 31.8462 20.8228 31.8691 20.7546 31.9148C20.6865 31.9605 20.6524 32.0062 20.6524 32.0519C20.6069 32.0976 20.5785 32.1205 20.5672 32.1205C20.5558 32.1205 20.5274 32.0976 20.482 32.0519C20.4365 31.9605 20.4195 31.8691 20.4309 31.7777C20.4422 31.6863 20.4933 31.6177 20.5842 31.572C20.6751 31.5263 20.766 31.5034 20.8569 31.5034C20.9477 31.5034 21.0386 31.5263 21.1295 31.572H21.2999C21.3453 31.5263 21.3794 31.4806 21.4021 31.4349C21.4249 31.3892 21.4589 31.3435 21.5044 31.2977C21.5044 31.2977 21.4873 31.3035 21.4533 31.3149C21.4192 31.3263 21.4021 31.3549 21.4021 31.4006C21.3113 31.492 21.2204 31.5434 21.1295 31.5548C21.0386 31.5663 20.9477 31.5491 20.8569 31.5034C20.8114 31.5034 20.766 31.492 20.7205 31.4691C20.6751 31.4463 20.6297 31.4577 20.5842 31.5034C20.5388 31.5491 20.4933 31.5777 20.4479 31.5891C20.4025 31.6006 20.3797 31.6291 20.3797 31.6748L20.1071 32.6004C20.1071 32.5547 20.1128 32.5433 20.1241 32.5661C20.1355 32.589 20.1639 32.6004 20.2093 32.6004ZM24.4352 4.04505C24.4352 4.04505 24.4466 4.03363 24.4693 4.01077C24.492 3.98792 24.5034 3.99935 24.5034 4.04505C24.5716 4.09076 24.6227 4.10219 24.6568 4.07933C24.6908 4.05648 24.7079 4.04505 24.7079 4.04505H24.8783C24.9692 4.04505 25.0203 4.03934 25.0316 4.02791C25.043 4.01649 25.026 3.96507 24.9805 3.87365V3.77081C24.9805 3.77081 24.9862 3.75367 24.9976 3.71939C25.0089 3.68511 25.0373 3.66797 25.0828 3.66797L25.1509 3.77081C25.1509 3.86223 25.1736 3.93079 25.2191 3.97649C25.2645 4.0222 25.3327 4.04505 25.4236 4.04505C25.4236 4.04505 25.4406 4.04505 25.4747 4.04505C25.5088 4.04505 25.5258 4.0222 25.5258 3.97649C25.5258 3.93079 25.5428 3.88508 25.5769 3.83937C25.611 3.79367 25.628 3.77081 25.628 3.77081V3.66797C25.628 3.62227 25.5769 3.57085 25.4747 3.51371C25.3724 3.45658 25.2986 3.45087 25.2532 3.49657C25.2077 3.54228 25.1452 3.57085 25.0657 3.58227C24.9862 3.5937 24.9237 3.59941 24.8783 3.59941H24.8101C24.7647 3.64512 24.7306 3.65655 24.7079 3.63369C24.6852 3.61084 24.6511 3.59941 24.6056 3.59941C24.5829 3.57656 24.5545 3.55942 24.5204 3.54799C24.4864 3.53657 24.458 3.53085 24.4352 3.53085C24.3898 3.53085 24.35 3.53657 24.316 3.54799C24.2819 3.55942 24.2535 3.57656 24.2308 3.59941C24.1853 3.64512 24.1626 3.69654 24.1626 3.75367C24.1626 3.81081 24.1626 3.88508 24.1626 3.97649C24.1626 4.0222 24.1626 4.06219 24.1626 4.09647C24.1626 4.13075 24.1853 4.14789 24.2308 4.14789C24.2308 4.14789 24.2535 4.14218 24.2989 4.13075C24.3444 4.11933 24.3898 4.09076 24.4352 4.04505ZM24.7079 18.0999C24.7079 18.0999 24.7079 18.1113 24.7079 18.1342C24.7079 18.157 24.7079 18.1456 24.7079 18.0999C24.6624 18.1456 24.634 18.1856 24.6227 18.2199C24.6113 18.2542 24.6056 18.2713 24.6056 18.2713V18.3741C24.6056 18.4198 24.6113 18.4656 24.6227 18.5113C24.634 18.557 24.6624 18.6027 24.7079 18.6484L24.8783 18.5455L24.7079 18.3741C24.7988 18.3741 24.8896 18.3684 24.9805 18.357C25.0714 18.3456 25.1623 18.4084 25.2532 18.5455C25.2532 18.4998 25.2588 18.4713 25.2702 18.4598C25.2816 18.4484 25.31 18.4198 25.3554 18.3741C25.3554 18.2827 25.3895 18.2313 25.4576 18.2199C25.5258 18.2085 25.5826 18.2027 25.628 18.2027C25.6735 18.2027 25.7019 18.197 25.7132 18.1856C25.7246 18.1742 25.753 18.1456 25.7984 18.0999C25.7984 18.0542 25.8041 18.0199 25.8155 17.9971C25.8268 17.9742 25.8552 17.9399 25.9007 17.8942L26.0711 17.7228H25.7984C25.7076 17.7685 25.6337 17.7742 25.5769 17.74C25.5201 17.7057 25.469 17.6657 25.4236 17.62C25.3781 17.5743 25.3384 17.5286 25.3043 17.4829C25.2702 17.4372 25.2532 17.3914 25.2532 17.3457H25.1509L25.0828 17.4486C25.1282 17.4943 25.1396 17.5571 25.1168 17.6371C25.0941 17.7171 25.0828 17.78 25.0828 17.8257C24.9919 17.8714 24.9294 17.9399 24.8953 18.0313C24.8612 18.1228 24.7988 18.1456 24.7079 18.0999ZM15.6086 0.822723H15.5063C15.37 0.86843 15.2962 0.908423 15.2848 0.942703C15.2735 0.976983 15.2905 1.06268 15.3359 1.1998C15.3814 1.24551 15.4268 1.30264 15.4723 1.3712C15.5177 1.43976 15.5631 1.47404 15.6086 1.47404C15.654 1.51975 15.7222 1.53118 15.813 1.50833C15.9039 1.48547 15.9948 1.50833 16.0857 1.57689H16.2561C16.3015 1.57689 16.3242 1.55403 16.3242 1.50833C16.3242 1.46262 16.3015 1.41691 16.2561 1.3712V1.26836C16.2561 1.22266 16.2731 1.19409 16.3072 1.18266C16.3413 1.17124 16.3583 1.14267 16.3583 1.09696C16.3583 1.05126 16.3526 1.00555 16.3413 0.959843C16.3299 0.914136 16.3015 0.86843 16.2561 0.822723C16.2106 0.822723 16.1709 0.817009 16.1368 0.805583C16.1027 0.794156 16.0857 0.834149 16.0857 0.925563C16.0857 0.925563 16.0686 0.91985 16.0346 0.908423C16.0005 0.896996 15.9834 0.86843 15.9834 0.822723C15.9607 0.799869 15.9323 0.782729 15.8982 0.771303C15.8642 0.759876 15.8244 0.754163 15.779 0.754163C15.7562 0.754163 15.7278 0.759876 15.6938 0.771303C15.6597 0.782729 15.6313 0.799869 15.6086 0.822723ZM16.2561 2.12537C16.2561 2.12537 16.2561 2.13679 16.2561 2.15965C16.2561 2.1825 16.2561 2.17107 16.2561 2.12537C16.4378 2.12537 16.6196 2.10251 16.8014 2.05681C16.9831 2.0111 17.1422 1.96539 17.2785 1.91969C17.3239 1.91969 17.3523 1.90826 17.3637 1.88541C17.375 1.86255 17.4034 1.85113 17.4489 1.85113V1.74829C17.4489 1.74829 17.4432 1.73115 17.4318 1.69687C17.4205 1.66259 17.3921 1.64545 17.3466 1.64545C17.3012 1.64545 17.2558 1.64545 17.2103 1.64545C17.1649 1.64545 17.1194 1.62259 17.074 1.57689C17.0286 1.50833 16.9831 1.47404 16.9377 1.47404C16.8922 1.47404 16.8468 1.50833 16.8014 1.57689V1.47404L16.5287 1.3712C16.5287 1.41691 16.523 1.47404 16.5117 1.54261C16.5003 1.61117 16.4719 1.64545 16.4265 1.64545V1.74829C16.4265 1.79399 16.4151 1.8397 16.3924 1.88541C16.3697 1.93111 16.3583 1.97682 16.3583 2.02253C16.3129 2.02253 16.2845 2.03967 16.2731 2.07395C16.2618 2.10823 16.2561 2.12537 16.2561 2.12537ZM21.5725 28.7267C21.5271 28.7724 21.5044 28.801 21.5044 28.8124C21.5044 28.8239 21.5044 28.8524 21.5044 28.8981C21.5044 28.9438 21.4873 28.9781 21.4533 29.001C21.4192 29.0238 21.4021 29.0581 21.4021 29.1038C21.3567 29.1038 21.3283 29.1152 21.3169 29.1381C21.3056 29.161 21.2658 29.1724 21.1977 29.1724C21.1977 29.1724 21.1863 29.1724 21.1636 29.1724C21.1409 29.1724 21.1295 29.1495 21.1295 29.1038C21.0841 29.0581 21.05 29.0467 21.0273 29.0695C21.0045 29.0924 20.9705 29.1038 20.925 29.1038C20.8796 29.1038 20.8512 29.121 20.8398 29.1552C20.8285 29.1895 20.8001 29.2295 20.7546 29.2752C20.7092 29.3209 20.6808 29.3666 20.6694 29.4123C20.6581 29.458 20.6524 29.5038 20.6524 29.5495C20.6978 29.5038 20.7433 29.4752 20.7887 29.4638C20.8341 29.4523 20.8796 29.4238 20.925 29.3781C20.9705 29.3324 20.9989 29.3209 21.0102 29.3438C21.0216 29.3666 21.0273 29.4009 21.0273 29.4466V29.5495C21.0273 29.6866 21.067 29.7837 21.1465 29.8408C21.2261 29.898 21.3113 29.9494 21.4021 29.9951V29.7209C21.4021 29.6752 21.4078 29.6352 21.4192 29.6009C21.4305 29.5666 21.4589 29.5495 21.5044 29.5495C21.5498 29.5495 21.5896 29.5323 21.6237 29.498C21.6577 29.4638 21.6748 29.4238 21.6748 29.3781C21.6748 29.3324 21.6805 29.2467 21.6918 29.121C21.7032 28.9953 21.6634 28.8639 21.5725 28.7267ZM20.482 26.7728H20.3797C20.3797 26.8642 20.3968 26.9385 20.4309 26.9956C20.4649 27.0527 20.482 27.1041 20.482 27.1499C20.482 27.1956 20.499 27.2241 20.5331 27.2356C20.5672 27.247 20.5842 27.2755 20.5842 27.3213C20.5842 27.4127 20.5899 27.4698 20.6013 27.4927C20.6126 27.5155 20.6637 27.5269 20.7546 27.5269H20.8569C20.9023 27.5269 20.9421 27.5384 20.9761 27.5612C21.0102 27.5841 21.0273 27.5955 21.0273 27.5955L20.925 27.4241H20.8569C20.8114 27.2413 20.7887 27.1213 20.7887 27.0642C20.7887 27.007 20.8341 26.9099 20.925 26.7728C20.925 26.7271 20.9421 26.6871 20.9761 26.6528C21.0102 26.6185 21.0273 26.6014 21.0273 26.6014C21.0273 26.5557 21.0216 26.4928 21.0102 26.4128C20.9989 26.3328 20.9705 26.27 20.925 26.2243H20.7546C20.6637 26.1786 20.6126 26.1729 20.6013 26.2071C20.5899 26.2414 20.5842 26.3043 20.5842 26.3957C20.5388 26.4414 20.5104 26.4928 20.499 26.55C20.4877 26.6071 20.482 26.6814 20.482 26.7728ZM18.5394 33.526C18.5394 33.526 18.5281 33.526 18.5054 33.526C18.4826 33.526 18.494 33.526 18.5394 33.526C18.4486 33.5717 18.3804 33.5774 18.335 33.5431C18.2895 33.5088 18.2441 33.4688 18.1986 33.4231C18.1532 33.4231 18.1191 33.406 18.0964 33.3717C18.0737 33.3374 18.0396 33.2974 17.9942 33.2517C17.9487 33.2517 17.9033 33.2346 17.8578 33.2003C17.8124 33.166 17.767 33.1489 17.7215 33.1489C17.6761 33.1489 17.6477 33.166 17.6363 33.2003C17.625 33.2346 17.5966 33.2746 17.5511 33.3203V33.4231C17.5511 33.4231 17.5625 33.4288 17.5852 33.4403C17.6079 33.4517 17.6193 33.4802 17.6193 33.526H17.7215C17.767 33.5717 17.8294 33.6117 17.909 33.6459C17.9885 33.6802 18.051 33.6974 18.0964 33.6974C18.1418 33.6516 18.1873 33.6402 18.2327 33.6631C18.2782 33.6859 18.3236 33.6974 18.369 33.6974H18.4713C18.6076 33.6974 18.7382 33.6745 18.8632 33.6288C18.9882 33.5831 19.0961 33.5145 19.187 33.4231H19.1188C18.9598 33.5145 18.8348 33.5659 18.7439 33.5774C18.653 33.5888 18.5849 33.5717 18.5394 33.526ZM25.1509 16.0774C25.1509 16.0317 25.1566 15.986 25.168 15.9403C25.1793 15.8945 25.2077 15.8717 25.2532 15.8717C25.2077 15.5975 25.168 15.3404 25.1339 15.1004C25.0998 14.8604 25.0146 14.6262 24.8783 14.3976V15.049C24.8783 15.1404 24.8896 15.2318 24.9124 15.3232C24.9351 15.4146 24.9237 15.506 24.8783 15.5975V17.0715C24.8783 17.0715 24.884 17.0601 24.8953 17.0372C24.9067 17.0144 24.9351 17.0029 24.9805 17.0029L25.0828 16.9001L25.1509 17.0029C25.1509 17.0029 25.1566 17.0144 25.168 17.0372C25.1793 17.0601 25.2077 17.0715 25.2532 17.0715H25.3554C25.3554 17.0258 25.3497 16.9858 25.3384 16.9515C25.327 16.9172 25.2986 16.9001 25.2532 16.9001C25.1623 16.8087 25.1112 16.7173 25.0998 16.6259C25.0884 16.5344 25.0828 16.443 25.0828 16.3516C25.1282 16.3059 25.1509 16.2602 25.1509 16.2145C25.1509 16.1688 25.1509 16.1231 25.1509 16.0774ZM14.6884 0.925563C14.7339 0.97127 14.7623 0.999837 14.7736 1.01126C14.785 1.02269 14.7907 1.05126 14.7907 1.09696C14.8361 1.14267 14.8929 1.14838 14.9611 1.1141C15.0292 1.07982 15.0633 1.03983 15.0633 0.994123C15.1542 0.90271 15.211 0.85129 15.2337 0.839863C15.2564 0.828436 15.2905 0.822723 15.3359 0.822723C15.3814 0.822723 15.4268 0.805583 15.4723 0.771303C15.5177 0.737022 15.5631 0.719882 15.6086 0.719882C15.6086 0.719882 15.6256 0.719882 15.6597 0.719882C15.6938 0.719882 15.7108 0.697029 15.7108 0.651322C15.5745 0.697029 15.4779 0.697029 15.4211 0.651322C15.3643 0.605615 15.3359 0.502775 15.3359 0.342801L14.9611 0.274241C15.0065 0.319948 15.0292 0.365655 15.0292 0.411361C15.0292 0.457068 15.0065 0.502775 14.9611 0.548482L14.8929 0.651322C14.8929 0.697029 14.8929 0.725596 14.8929 0.737022C14.8929 0.748449 14.9156 0.777016 14.9611 0.822723L15.0633 0.925563H14.8929C14.8929 0.879856 14.8702 0.857003 14.8247 0.857003C14.7793 0.857003 14.7339 0.879856 14.6884 0.925563ZM12.4051 29.1724C12.4051 29.2638 12.4107 29.3552 12.4221 29.4466C12.4335 29.538 12.4846 29.6066 12.5755 29.6523L12.6777 29.7209C12.814 29.538 12.8651 29.3552 12.8311 29.1724C12.797 28.9896 12.6777 28.8067 12.4732 28.6239C12.4278 28.761 12.4051 28.8639 12.4051 28.9324C12.4051 29.001 12.4051 29.081 12.4051 29.1724ZM22.4927 21.6993L22.5949 21.5279V22.0764C22.5949 22.0764 22.6006 22.0878 22.612 22.1107C22.6233 22.1335 22.6517 22.145 22.6972 22.145C22.6972 22.145 22.6972 22.1335 22.6972 22.1107C22.6972 22.0878 22.7199 22.0764 22.7653 22.0764C22.8108 22.0307 22.8449 21.9621 22.8676 21.8707C22.8903 21.7793 22.9244 21.6879 22.9698 21.5965V21.4251C22.9244 21.3794 22.8903 21.3337 22.8676 21.288C22.8449 21.2422 22.8108 21.2194 22.7653 21.2194C22.629 21.3337 22.5381 21.4194 22.4927 21.4765C22.4473 21.5336 22.4473 21.6079 22.4927 21.6993ZM26.7186 4.14789L26.8208 4.04505L26.7186 3.97649C26.6277 3.97649 26.5539 3.95935 26.4971 3.92507C26.4403 3.89079 26.3664 3.87365 26.2756 3.87365C26.2301 3.87365 26.1847 3.86794 26.1392 3.85651C26.0938 3.84509 26.0484 3.78224 26.0029 3.66797L25.7984 3.97649C25.9348 4.0222 26.0711 4.06219 26.2074 4.09647C26.3437 4.13075 26.48 4.14789 26.6164 4.14789H26.7186ZM20.8569 28.0754C20.8114 28.1211 20.783 28.1725 20.7717 28.2297C20.7603 28.2868 20.7546 28.3611 20.7546 28.4525H20.925V28.7953C20.925 28.7953 20.9307 28.8124 20.9421 28.8467C20.9534 28.881 20.9818 28.8981 21.0273 28.8981C21.0273 28.8981 21.0443 28.8924 21.0784 28.881C21.1125 28.8696 21.1295 28.841 21.1295 28.7953C21.1749 28.7496 21.1977 28.7039 21.1977 28.6582C21.1977 28.6125 21.1977 28.5439 21.1977 28.4525V28.3497C21.1977 28.304 21.1863 28.264 21.1636 28.2297C21.1409 28.1954 21.1295 28.1783 21.1295 28.1783C21.0841 28.1783 21.0386 28.1725 20.9932 28.1611C20.9477 28.1497 20.9023 28.1211 20.8569 28.0754ZM26.8208 33.1489C26.7754 33.1946 26.7129 33.2231 26.6334 33.2346C26.5539 33.246 26.4914 33.2517 26.446 33.2517H26.2756C26.321 33.3431 26.3835 33.4117 26.463 33.4574C26.5425 33.5031 26.6277 33.526 26.7186 33.526C26.8095 33.4802 26.8947 33.4003 26.9742 33.286C27.0537 33.1717 27.0935 33.0689 27.0935 32.9775L26.9912 33.046C26.9458 33.046 26.9174 33.0517 26.906 33.0632C26.8947 33.0746 26.8663 33.1032 26.8208 33.1489ZM25.3554 4.90206C25.2645 4.74208 25.1566 4.65067 25.0316 4.62782C24.9067 4.60496 24.7988 4.69638 24.7079 4.90206C24.7988 4.94776 24.8896 4.98204 24.9805 5.0049C25.0714 5.02775 25.1623 5.01632 25.2532 4.97062C25.2986 4.97062 25.327 4.95919 25.3384 4.93634C25.3497 4.91348 25.3554 4.90206 25.3554 4.90206ZM7.90652 0.274241V0.171401C7.90652 0.171401 7.90084 0.15426 7.88948 0.11998C7.87812 0.0857002 7.84972 0.0685602 7.80428 0.0685602C7.75884 0.0685602 7.69637 0.0571335 7.61685 0.03428C7.53733 0.0114266 7.47485 -7.07805e-08 7.42941 -7.07805e-08H7.36125C7.40669 0.0914136 7.39533 0.148547 7.32717 0.171401C7.25901 0.194254 7.20221 0.228534 7.15677 0.274241C7.24765 0.365655 7.37261 0.411361 7.53165 0.411361C7.69069 0.411361 7.81564 0.365655 7.90652 0.274241ZM1.46543 18.9226C1.51087 18.8769 1.55631 18.8484 1.60175 18.8369C1.64719 18.8255 1.69263 18.8198 1.73807 18.8198H1.84031C1.79487 18.7741 1.76647 18.7284 1.75511 18.6827C1.74375 18.637 1.71535 18.5913 1.66991 18.5455H1.36319C1.36319 18.637 1.35183 18.7169 1.32911 18.7855C1.30639 18.8541 1.29503 18.9341 1.29503 19.0255C1.34047 19.0255 1.38023 19.0198 1.41431 19.0083C1.44839 18.9969 1.46543 18.9683 1.46543 18.9226ZM6.06621 0.719882C6.11165 0.719882 6.15709 0.691316 6.20253 0.634182C6.24797 0.577049 6.29341 0.548482 6.33885 0.548482C6.33885 0.548482 6.35589 0.542768 6.38997 0.531342C6.42405 0.519915 6.44109 0.491348 6.44109 0.445641H6.61149V0.342801H6.50925C6.46381 0.342801 6.40701 0.359941 6.33885 0.394221C6.27069 0.428501 6.21389 0.445641 6.16845 0.445641C6.12301 0.445641 6.06053 0.462782 5.98101 0.497062C5.90149 0.531342 5.83901 0.548482 5.79357 0.548482V0.651322C5.83901 0.697029 5.88445 0.719882 5.92989 0.719882C5.97533 0.719882 6.02077 0.719882 6.06621 0.719882ZM20.5842 25.0245L20.8569 24.2018C20.8569 24.1561 20.8512 24.1161 20.8398 24.0818C20.8285 24.0475 20.8001 24.0532 20.7546 24.0989C20.7092 24.1446 20.6694 24.2075 20.6353 24.2875C20.6013 24.3675 20.6069 24.4303 20.6524 24.476C20.6978 24.5217 20.7092 24.5674 20.6865 24.6131C20.6637 24.6588 20.6524 24.7045 20.6524 24.7502C20.5615 24.796 20.5161 24.8417 20.5161 24.8874C20.5161 24.9331 20.5388 24.9788 20.5842 25.0245ZM32.7848 6.3761H32.8871C32.9325 6.3761 32.9779 6.35896 33.0234 6.32468C33.0688 6.2904 33.1143 6.27326 33.1597 6.27326H33.4323C33.4323 6.27326 33.4266 6.25612 33.4153 6.22184C33.4039 6.18756 33.3755 6.17042 33.3301 6.17042C33.2392 6.07901 33.1199 6.05044 32.9723 6.08472C32.8246 6.119 32.7053 6.18185 32.6144 6.27326V6.3761H32.7848ZM18.369 25.95C18.4145 25.9043 18.4542 25.8529 18.4883 25.7958C18.5224 25.7387 18.5394 25.6644 18.5394 25.573H18.2668C18.2214 25.573 18.1702 25.6244 18.1134 25.7272C18.0566 25.8301 18.051 25.9043 18.0964 25.95C18.0964 25.9958 18.1134 26.0243 18.1475 26.0357C18.1816 26.0472 18.1986 26.0529 18.1986 26.0529C18.2441 26.0529 18.2838 26.0472 18.3179 26.0357C18.352 26.0243 18.369 25.9958 18.369 25.95ZM21.5044 34.0744C21.4589 34.0744 21.4249 34.0916 21.4021 34.1259C21.3794 34.1601 21.3453 34.2001 21.2999 34.2458C21.2545 34.2458 21.2147 34.2687 21.1806 34.3144C21.1465 34.3601 21.1295 34.4401 21.1295 34.5544C21.1295 34.6001 21.1409 34.6229 21.1636 34.6229C21.1863 34.6229 21.1977 34.6229 21.1977 34.6229C21.2658 34.6229 21.3056 34.6058 21.3169 34.5715C21.3283 34.5372 21.3567 34.4972 21.4021 34.4515C21.4476 34.4058 21.476 34.3601 21.4873 34.3144C21.4987 34.2687 21.5271 34.2458 21.5725 34.2458C21.618 34.2458 21.6634 34.2287 21.7089 34.1944C21.7543 34.1601 21.7997 34.1201 21.8452 34.0744V33.9716C21.7997 33.9716 21.7429 33.9887 21.6748 34.023C21.6066 34.0573 21.5498 34.0744 21.5044 34.0744ZM7.90652 0.548482C7.86108 0.548482 7.81564 0.565622 7.7702 0.599902C7.72477 0.634182 7.67933 0.651322 7.63389 0.651322L7.53165 0.719882L7.63389 0.822723C7.67933 0.822723 7.73613 0.817009 7.80428 0.805583C7.87244 0.794156 7.92924 0.765589 7.97468 0.719882C7.97468 0.719882 7.99172 0.719882 8.0258 0.719882C8.05988 0.719882 8.07692 0.697029 8.07692 0.651322C8.07692 0.651322 8.09396 0.645609 8.12804 0.634182C8.16212 0.622755 8.17916 0.594189 8.17916 0.548482V0.445641C8.13372 0.491348 8.08828 0.508488 8.04284 0.497062C7.9974 0.485635 7.95196 0.502775 7.90652 0.548482ZM8.89484 0.342801C8.75852 0.159974 8.64492 0.0971269 8.55404 0.15426C8.46316 0.211394 8.37228 0.308521 8.2814 0.445641C8.37228 0.491348 8.47452 0.514202 8.58812 0.514202C8.70172 0.514202 8.80396 0.457068 8.89484 0.342801ZM0.272639 13.4721C0.272639 13.5178 0.255599 13.5635 0.221519 13.6092C0.187439 13.6549 0.170399 13.7006 0.170399 13.7463C0.0795196 13.7006 0.0283999 13.6778 0.0170399 13.6778C0.00567997 13.6778 0 13.7006 0 13.7463C0.0908796 13.7463 0.181759 13.752 0.272639 13.7635C0.363518 13.7749 0.454398 13.8035 0.545278 13.8492C0.545278 13.8492 0.562317 13.8435 0.596397 13.832C0.630477 13.8206 0.647517 13.792 0.647517 13.7463V13.5749C0.602077 13.5292 0.539598 13.5007 0.460078 13.4892C0.380558 13.4778 0.318079 13.4721 0.272639 13.4721ZM23.1402 21.2194C23.0493 21.2194 22.9982 21.2594 22.9869 21.3394C22.9755 21.4194 22.9698 21.5051 22.9698 21.5965C22.9698 21.5965 22.9698 21.6136 22.9698 21.6479C22.9698 21.6822 22.9925 21.6993 23.038 21.6993L23.1402 21.5965C23.1402 21.5508 23.1573 21.5222 23.1913 21.5108C23.2254 21.4993 23.2425 21.4708 23.2425 21.4251C23.3333 21.4708 23.3845 21.4651 23.3958 21.4079C23.4072 21.3508 23.4129 21.288 23.4129 21.2194V21.048H23.2425C23.2425 21.0937 23.2368 21.1337 23.2254 21.168C23.2141 21.2023 23.1857 21.2194 23.1402 21.2194ZM22.2201 31.4006V31.2292C22.1746 31.2292 22.1462 31.212 22.1349 31.1778C22.1235 31.1435 22.1178 31.1263 22.1178 31.1263C22.1178 31.1263 22.1178 31.1092 22.1178 31.0749C22.1178 31.0406 22.0951 31.0235 22.0497 31.0235C22.0497 31.0235 22.0326 31.0292 21.9985 31.0406C21.9645 31.0521 21.9474 31.0806 21.9474 31.1263C21.902 31.2178 21.8963 31.3263 21.9304 31.452C21.9645 31.5777 22.0042 31.6863 22.0497 31.7777C22.0497 31.6863 22.0667 31.6234 22.1008 31.5891C22.1349 31.5548 22.1746 31.492 22.2201 31.4006C22.1746 31.4463 22.1633 31.4577 22.186 31.4349C22.2087 31.412 22.2201 31.4006 22.2201 31.4006ZM21.5044 28.0754C21.4589 28.0754 21.3965 28.0583 21.3169 28.024C21.2374 27.9897 21.1749 27.9726 21.1295 27.9726V28.0754C21.1749 28.0754 21.2147 28.0811 21.2488 28.0926C21.2829 28.104 21.2658 28.1325 21.1977 28.1783C21.1522 28.2697 21.1579 28.3439 21.2147 28.4011C21.2715 28.4582 21.2999 28.5325 21.2999 28.6239C21.3453 28.5782 21.3794 28.5325 21.4021 28.4868C21.4249 28.4411 21.4589 28.3954 21.5044 28.3497C21.5498 28.2582 21.5725 28.1897 21.5725 28.144C21.5725 28.0983 21.5498 28.0754 21.5044 28.0754ZM19.8345 33.9716H19.5618V34.0744L19.6641 34.1773C19.755 34.1773 19.8231 34.1601 19.8686 34.1259C19.914 34.0916 19.9594 34.0744 20.0049 34.0744V33.9716H19.8345ZM5.96397 6.99314C5.91853 7.0617 5.89581 7.11884 5.89581 7.16454C5.89581 7.21025 5.91853 7.25596 5.96397 7.30166C6.00941 7.34737 6.05485 7.37023 6.10029 7.37023C6.14573 7.37023 6.16845 7.34737 6.16845 7.30166C6.21389 7.30166 6.24229 7.27881 6.25365 7.2331C6.26501 7.1874 6.29341 7.14169 6.33885 7.09598C6.29341 7.05028 6.23093 7.01028 6.15141 6.976C6.07189 6.94172 6.00941 6.94744 5.96397 6.99314ZM21.1977 33.9716H21.0273C20.9364 34.0173 20.8625 34.0402 20.8057 34.0402C20.7489 34.0402 20.6751 34.0173 20.5842 33.9716C20.5388 33.9716 20.4933 33.9773 20.4479 33.9887C20.4025 34.0002 20.357 34.0287 20.3116 34.0744C20.4933 34.2116 20.6524 34.2401 20.7887 34.1601C20.925 34.0802 21.0613 34.0173 21.1977 33.9716ZM22.6972 32.7032C22.6972 32.6575 22.6801 32.6118 22.6461 32.5661C22.612 32.5204 22.5949 32.4976 22.5949 32.4976C22.5495 32.4061 22.487 32.3719 22.4075 32.3947C22.328 32.4176 22.2655 32.429 22.2201 32.429L22.1178 32.4976L22.2201 32.6004C22.2655 32.6004 22.328 32.6061 22.4075 32.6175C22.487 32.629 22.5495 32.6575 22.5949 32.7032H22.6972ZM19.8345 29.1038C19.9253 28.9896 20.0162 28.8867 20.1071 28.7953C20.198 28.7039 20.2661 28.6125 20.3116 28.5211V28.3497L19.8345 29.1038ZM3.03311 20.6024C2.98767 20.6481 2.93655 20.6881 2.87975 20.7223C2.82295 20.7566 2.74911 20.7738 2.65823 20.7738L2.55599 20.8766L2.65823 20.9452H2.86271C2.86271 20.8537 2.87975 20.7852 2.91383 20.7395C2.94791 20.6938 2.98767 20.6481 3.03311 20.6024ZM18.7439 4.42214C18.7894 4.46784 18.8462 4.4907 18.9143 4.4907C18.9825 4.4907 19.0506 4.46784 19.1188 4.42214L19.187 4.31929L19.1188 4.25073C19.0052 4.29644 18.9257 4.32501 18.8802 4.33643C18.8348 4.34786 18.7894 4.37643 18.7439 4.42214ZM27.6388 33.2517C27.6388 33.3431 27.6558 33.4174 27.6899 33.4745C27.724 33.5317 27.7751 33.5831 27.8432 33.6288H27.9114V33.526C27.866 33.4802 27.8205 33.4231 27.7751 33.3546C27.7296 33.286 27.6842 33.2517 27.6388 33.2517ZM9.4742 0.274241C9.38332 0.182827 9.29244 0.13712 9.20156 0.13712C9.11068 0.13712 9.04252 0.182827 8.99708 0.274241C9.04252 0.319948 9.11068 0.342801 9.20156 0.342801C9.29244 0.342801 9.38332 0.319948 9.4742 0.274241ZM20.2093 34.3487C20.2093 34.3944 20.2548 34.4515 20.3457 34.5201C20.4365 34.5886 20.482 34.6229 20.482 34.6229V34.5544C20.482 34.5087 20.4479 34.4629 20.3797 34.4172C20.3116 34.3715 20.2548 34.3487 20.2093 34.3487ZM7.90652 0.0685602C7.95196 0.0685602 7.9974 0.0571335 8.04284 0.03428C8.08828 0.0114266 8.13372 -7.07805e-08 8.17916 -7.07805e-08H7.53165C7.57709 0.0457068 7.62821 0.0685602 7.68501 0.0685602C7.74181 0.0685602 7.81564 0.0685602 7.90652 0.0685602ZM20.482 27.5955C20.482 27.6412 20.499 27.6869 20.5331 27.7326C20.5672 27.7783 20.5842 27.8355 20.5842 27.904H20.6524V27.8012L20.482 27.5955ZM14.7907 0.0685602L14.6884 -7.07805e-08C14.643 -7.07805e-08 14.6146 0.0114266 14.6032 0.03428C14.5919 0.0571335 14.5635 0.0685602 14.518 0.0685602L14.6884 0.274241L14.7907 0.0685602ZM21.6748 32.4976C21.6748 32.5433 21.6918 32.5775 21.7259 32.6004C21.76 32.6232 21.7997 32.6575 21.8452 32.7032C21.8452 32.7032 21.8622 32.6975 21.8963 32.6861C21.9304 32.6747 21.9474 32.6461 21.9474 32.6004L21.777 32.429L21.6748 32.4976ZM27.0935 32.6004L27.2639 32.9775C27.2639 32.9318 27.2809 32.8975 27.315 32.8746C27.3491 32.8518 27.3661 32.8175 27.3661 32.7718C27.3207 32.7718 27.2752 32.7547 27.2298 32.7204C27.1844 32.6861 27.1389 32.6461 27.0935 32.6004ZM6.98637 0.719882C6.98637 0.719882 6.99773 0.708456 7.02045 0.685602C7.04317 0.662749 7.03181 0.674176 6.98637 0.719882C7.03181 0.674176 7.04317 0.634182 7.02045 0.599902C6.99773 0.565622 6.98637 0.548482 6.98637 0.548482C6.94093 0.548482 6.90685 0.554195 6.88413 0.565622C6.86141 0.577049 6.82733 0.605615 6.78189 0.651322V0.719882H6.98637ZM28.3885 33.8002C28.3885 33.8916 28.4112 33.9602 28.4567 34.0059C28.5021 34.0516 28.5703 34.0744 28.6612 34.0744L28.3885 33.8002ZM28.8315 34.0744C28.8315 34.1659 28.8543 34.2401 28.8997 34.2973C28.9451 34.3544 28.9906 34.4058 29.036 34.4515C28.9906 34.4058 28.9565 34.343 28.9338 34.263C28.9111 34.183 28.877 34.1201 28.8315 34.0744ZM24.7079 4.42214C24.6624 4.42214 24.634 4.42785 24.6227 4.43928C24.6113 4.4507 24.6056 4.47927 24.6056 4.52498V4.59354H24.8101V4.42214H24.7079ZM28.8315 34.5544L28.6612 34.2458C28.6612 34.3373 28.6668 34.4115 28.6782 34.4687C28.6896 34.5258 28.7407 34.5544 28.8315 34.5544ZM22.4927 35H22.7653V34.8972L22.4927 35ZM12.4051 5.24486V5.1763L12.3028 5.24486V5.3477C12.3028 5.30199 12.3085 5.27342 12.3199 5.262C12.3312 5.25057 12.3596 5.24486 12.4051 5.24486ZM21.2999 28.6239C21.2999 28.6696 21.2829 28.6982 21.2488 28.7096C21.2147 28.721 21.1977 28.7496 21.1977 28.7953L21.2999 28.8981V28.6239C21.2999 28.6696 21.2999 28.681 21.2999 28.6582C21.2999 28.6353 21.2999 28.6239 21.2999 28.6239ZM19.2892 33.9716V34.1773L19.4596 34.0744L19.2892 33.9716Z" fill="white"/>
</g>
<defs>
<clipPath id="clip0_10279_37307">
<rect width="35" height="35" fill="white"/>
</clipPath>
</defs>
</svg>
