<svg width="28" height="29" viewBox="0 0 28 29" fill="none" xmlns="http://www.w3.org/2000/svg">
<g id="Icon" clip-path="url(#clip0_228_18597)">
<path id="Vector" d="M27.6708 7.22183L26.9434 6.79073C26.9434 6.82666 26.9613 6.86258 26.9972 6.89851C27.0332 6.93443 27.0152 6.98832 26.9434 7.06017C26.9074 7.06017 26.885 7.03322 26.876 6.97934C26.867 6.92545 26.8625 6.88054 26.8625 6.84462C26.8625 6.77277 26.8446 6.70541 26.8086 6.64254C26.7727 6.57968 26.7188 6.54824 26.647 6.54824C26.5751 6.54824 26.5168 6.54824 26.4719 6.54824C26.4269 6.54824 26.3596 6.53028 26.2698 6.49436C26.2339 6.49436 26.2024 6.47639 26.1755 6.44047C26.1485 6.40454 26.1351 6.36862 26.1351 6.3327V6.19798L26.0542 6.11715C25.9824 6.0453 25.9105 5.99141 25.8387 5.95549C25.7668 5.91956 25.695 5.87466 25.6231 5.82077H25.4884C25.4166 5.82077 25.3447 5.83424 25.2729 5.86119C25.201 5.88813 25.1292 5.9016 25.0573 5.9016C24.9855 5.9016 24.9136 5.89711 24.8418 5.88813C24.7699 5.87915 24.716 5.83873 24.6801 5.76688H24.6262C24.5723 5.80281 24.5454 5.85221 24.5454 5.91507C24.5454 5.97794 24.5723 6.02734 24.6262 6.06326L24.6801 6.11715V6.27881C24.6801 6.31473 24.6666 6.3327 24.6397 6.3327C24.6128 6.3327 24.5813 6.3327 24.5454 6.3327C24.5095 6.3327 24.4825 6.32371 24.4646 6.30575C24.4466 6.28779 24.4197 6.27881 24.3837 6.27881C24.3478 6.27881 24.3119 6.25187 24.276 6.19798C24.24 6.14409 24.1862 6.11715 24.1143 6.11715H23.7371C23.7012 6.11715 23.6518 6.10817 23.5889 6.0902C23.526 6.07224 23.4766 6.06326 23.4407 6.06326H23.1713L23.0905 6.11715V6.19798C23.0905 6.16205 23.086 6.12613 23.077 6.0902C23.068 6.05428 23.0456 6.01836 23.0096 5.98243C22.9737 5.94651 22.9378 5.92406 22.9019 5.91507C22.8659 5.90609 22.83 5.9016 22.7941 5.9016V5.76688C22.83 5.73096 22.8345 5.69504 22.8076 5.65911C22.7806 5.62319 22.7492 5.60522 22.7133 5.60522C22.6414 5.5693 22.5696 5.55134 22.4977 5.55134C22.4259 5.55134 22.354 5.55134 22.2822 5.55134C22.1385 5.44356 22.0082 5.37172 21.8915 5.33579C21.7747 5.29987 21.6625 5.29987 21.5547 5.33579H21.42C21.42 5.26394 21.3975 5.21005 21.3526 5.17413C21.3077 5.13821 21.2314 5.12024 21.1236 5.12024C21.1236 5.0484 21.0832 5.01247 21.0023 5.01247C20.9215 5.01247 20.8631 4.99451 20.8272 4.95858C20.8631 4.92266 20.908 4.90919 20.9619 4.91817C21.0158 4.92715 21.0248 4.89572 20.9889 4.82387C20.953 4.82387 20.9036 4.82387 20.8407 4.82387C20.7778 4.82387 20.7284 4.84183 20.6925 4.87775H20.6117C20.5757 4.84183 20.5533 4.8059 20.5443 4.76998C20.5353 4.73406 20.5129 4.69813 20.477 4.66221L20.3961 4.74304C20.3602 4.77896 20.3377 4.81489 20.3288 4.85081C20.3198 4.88673 20.2973 4.92266 20.2614 4.95858H20.1806C20.1806 4.95858 20.1851 4.94511 20.194 4.91817C20.203 4.89123 20.2255 4.87775 20.2614 4.87775L20.3422 4.82387C20.2524 4.82387 20.1896 4.8059 20.1536 4.76998C20.1177 4.73406 20.0818 4.68017 20.0459 4.60832H19.965C19.8932 4.60832 19.8258 4.60383 19.763 4.59485C19.7001 4.58587 19.6507 4.56342 19.6148 4.52749C19.5788 4.52749 19.5564 4.53198 19.5474 4.54096C19.5384 4.54994 19.5339 4.5724 19.5339 4.60832V4.66221H19.3184V5.12024C19.2465 5.12024 19.1837 5.13821 19.1298 5.17413C19.0759 5.21005 19.013 5.21005 18.9412 5.17413C18.8334 5.21005 18.7391 5.22802 18.6583 5.22802C18.5774 5.22802 18.4831 5.21005 18.3754 5.17413C18.3394 5.17413 18.299 5.17413 18.2541 5.17413C18.2092 5.17413 18.1508 5.15617 18.079 5.12024C18.0431 5.15617 18.0206 5.20107 18.0116 5.25496C18.0027 5.30885 17.9802 5.35375 17.9443 5.38968H17.8634C17.8275 5.38968 17.8051 5.3807 17.7961 5.36273C17.7871 5.34477 17.7647 5.33579 17.7287 5.33579C17.6389 5.26394 17.5716 5.17862 17.5267 5.07983C17.4818 4.98104 17.4234 4.89572 17.3515 4.82387C17.4234 4.85979 17.4683 4.87775 17.4862 4.87775C17.5042 4.87775 17.5311 4.85979 17.5671 4.82387L17.4324 4.39277C17.3964 4.4287 17.347 4.44666 17.2842 4.44666C17.2213 4.44666 17.1719 4.4287 17.136 4.39277C17.0641 4.32092 16.9923 4.27602 16.9204 4.25806C16.8486 4.2401 16.7767 4.23111 16.7049 4.23111V4.44666C16.4893 4.48258 16.2738 4.4736 16.0582 4.41972C15.8427 4.36583 15.6451 4.285 15.4655 4.17723C15.4296 4.17723 15.3936 4.17723 15.3577 4.17723C15.3218 4.17723 15.2859 4.19519 15.2499 4.23111C15.214 4.23111 15.1691 4.2401 15.1152 4.25806C15.0613 4.27602 15.0613 4.32092 15.1152 4.39277C15.0613 4.35685 15.0434 4.30745 15.0613 4.24459C15.0793 4.18172 15.0703 4.13232 15.0344 4.0964C14.9985 4.16825 14.9625 4.20866 14.9266 4.21764C14.8907 4.22662 14.8548 4.21315 14.8188 4.17723L14.738 4.0964C14.6662 3.98862 14.6078 3.93025 14.5629 3.92126C14.518 3.91228 14.4776 3.94372 14.4416 4.01557L14.5225 4.0964L13.795 4.39277C13.795 4.35685 13.8085 4.32092 13.8354 4.285C13.8624 4.24907 13.8758 4.23111 13.8758 4.23111C13.9118 4.19519 13.9567 4.15926 14.0105 4.12334C14.0644 4.08742 14.1093 4.05149 14.1453 4.01557H14.2261C14.2979 3.94372 14.3698 3.88534 14.4416 3.84044C14.5135 3.79553 14.5853 3.73715 14.6572 3.6653C14.6931 3.6653 14.729 3.66081 14.765 3.65183C14.8009 3.64285 14.8188 3.6204 14.8188 3.58447C14.8548 3.51262 14.8907 3.47221 14.9266 3.46323C14.9625 3.45425 14.9985 3.44976 15.0344 3.44976C15.1062 3.41383 15.1467 3.37791 15.1556 3.34198C15.1646 3.30606 15.1511 3.26115 15.1152 3.20727L15.1691 3.15338L15.1152 3.07255C15.0613 3.03662 15.0164 3.00968 14.9805 2.99172C14.9446 2.97376 14.9087 2.92885 14.8727 2.857H14.8188C14.747 2.82108 14.6751 2.79862 14.6033 2.78964C14.5315 2.78066 14.4596 2.75821 14.3878 2.72228C14.3518 2.72228 14.3114 2.7133 14.2665 2.69534C14.2216 2.67738 14.1812 2.68636 14.1453 2.72228C14.1093 2.79413 14.0734 2.82108 14.0375 2.80312C14.0016 2.78515 13.9656 2.77617 13.9297 2.77617L14.0914 2.56063L13.6603 2.50674L13.8758 2.34508C13.8758 2.34508 13.8713 2.33161 13.8624 2.30466C13.8534 2.27772 13.8309 2.26425 13.795 2.26425C13.7232 2.22832 13.6378 2.20138 13.539 2.18342C13.4402 2.16545 13.3549 2.1924 13.2831 2.26425C13.2472 2.26425 13.2022 2.29568 13.1484 2.35855C13.0945 2.42142 13.0675 2.47081 13.0675 2.50674C13.0675 2.61451 13.0585 2.67738 13.0406 2.69534C13.0226 2.7133 12.9598 2.72228 12.852 2.72228H12.7173L12.852 2.857C12.8161 2.82108 12.7801 2.80312 12.7442 2.80312C12.7083 2.80312 12.6724 2.82108 12.6364 2.857H12.2592C12.2233 2.857 12.2009 2.86149 12.1919 2.87047C12.1829 2.87946 12.1604 2.90191 12.1245 2.93783C12.0527 2.93783 11.9808 2.94232 11.909 2.9513C11.8371 2.96029 11.7653 3.0007 11.6934 3.07255C11.6575 3.1444 11.6036 3.1893 11.5318 3.20727C11.4599 3.22523 11.3881 3.25217 11.3162 3.2881C11.2803 3.2881 11.2444 3.30157 11.2084 3.32851C11.1725 3.35545 11.1186 3.36893 11.0468 3.36893V3.44976H10.8851L11.0468 3.58447H10.8851C10.921 3.72817 10.9525 3.81798 10.9794 3.85391C11.0064 3.88983 11.0019 3.94372 10.9659 4.01557C10.93 4.01557 10.8986 4.00659 10.8716 3.98862C10.8447 3.97066 10.8312 3.97964 10.8312 4.01557C10.7773 4.05149 10.7369 4.07394 10.71 4.08292C10.683 4.09191 10.6696 4.0964 10.6696 4.0964C10.6336 4.0964 10.6112 4.0964 10.6022 4.0964C10.5932 4.0964 10.5708 4.12334 10.5349 4.17723C10.463 4.21315 10.3867 4.2401 10.3058 4.25806C10.225 4.27602 10.1307 4.26704 10.0229 4.23111C9.98701 4.26704 9.96904 4.33889 9.96904 4.44666C9.96904 4.55443 9.98701 4.62628 10.0229 4.66221C10.0589 4.62628 10.0813 4.60832 10.0903 4.60832C10.0993 4.60832 10.1217 4.62628 10.1576 4.66221H10.2385C10.2385 4.69813 10.2519 4.72507 10.2789 4.74304C10.3058 4.761 10.3193 4.78794 10.3193 4.82387V4.87775C10.2834 4.87775 10.2564 4.87775 10.2385 4.87775C10.2205 4.87775 10.1936 4.85979 10.1576 4.82387C10.1038 4.75202 10.0364 4.69813 9.95557 4.66221C9.87474 4.62628 9.78044 4.60832 9.67267 4.60832C9.67267 4.60832 9.66368 4.60832 9.64572 4.60832H9.59184C9.55591 4.5724 9.51999 4.55443 9.48406 4.55443C9.44814 4.55443 9.43018 4.5724 9.43018 4.60832L9.59184 4.74304V4.82387C9.55591 4.82387 9.52897 4.81938 9.51101 4.8104C9.49304 4.80141 9.4661 4.77896 9.43018 4.74304H9.29546V4.87775C9.33138 4.91368 9.36282 4.94062 9.38976 4.95858C9.4167 4.97655 9.43018 5.00349 9.43018 5.03941C9.43018 5.07534 9.45712 5.09779 9.51101 5.10677C9.56489 5.11575 9.59184 5.13821 9.59184 5.17413V5.25496H9.51101C9.47508 5.21904 9.42568 5.1876 9.36282 5.16066C9.29995 5.13372 9.23259 5.12024 9.16074 5.12024L9.07991 5.03941C9.07991 4.96757 9.0844 4.9047 9.09338 4.85081C9.10236 4.79692 9.12482 4.73406 9.16074 4.66221C9.19667 4.62628 9.19667 4.58138 9.16074 4.52749C9.12482 4.4736 9.07093 4.4287 8.99908 4.39277V4.52749C8.99908 4.56342 8.99459 4.60832 8.98561 4.66221C8.97663 4.71609 8.95418 4.74304 8.91825 4.74304L8.70271 4.95858C8.73863 4.99451 8.76557 5.03043 8.78354 5.06636C8.8015 5.10228 8.82844 5.12024 8.86437 5.12024C8.90029 5.15617 8.91825 5.20556 8.91825 5.26843C8.91825 5.3313 8.90029 5.39866 8.86437 5.47051C8.82844 5.54236 8.80599 5.60971 8.79701 5.67258C8.78803 5.73545 8.78354 5.78485 8.78354 5.82077C8.78354 5.82077 8.78803 5.83424 8.79701 5.86119C8.80599 5.88813 8.82844 5.9016 8.86437 5.9016H8.99908C9.10686 5.86568 9.18769 5.86568 9.24157 5.9016C9.29546 5.93753 9.35833 5.99141 9.43018 6.06326C9.4661 6.09919 9.48406 6.13511 9.48406 6.17104C9.48406 6.20696 9.4661 6.24288 9.43018 6.27881C9.39425 6.31473 9.37629 6.35066 9.37629 6.38658C9.37629 6.42251 9.39425 6.45843 9.43018 6.49436C9.43018 6.49436 9.44814 6.50334 9.48406 6.5213C9.51999 6.53926 9.55591 6.54824 9.59184 6.54824C9.51999 6.58417 9.45712 6.57519 9.40323 6.5213C9.34935 6.46741 9.34036 6.38658 9.37629 6.27881V6.11715C9.37629 6.08122 9.36282 6.05877 9.33587 6.04979C9.30893 6.04081 9.29546 6.01836 9.29546 5.98243C9.29546 5.94651 9.28199 5.92406 9.25504 5.91507C9.2281 5.90609 9.19667 5.9016 9.16074 5.9016C9.12482 5.9016 9.09787 5.91507 9.07991 5.94202C9.06195 5.96896 9.03501 5.98243 8.99908 5.98243C8.96316 5.98243 8.9407 5.9959 8.93172 6.02285C8.92274 6.04979 8.91825 6.08122 8.91825 6.11715C8.91825 6.15307 8.92274 6.189 8.93172 6.22492C8.9407 6.26085 8.96316 6.27881 8.99908 6.27881V6.41352C8.96316 6.48537 8.91376 6.55722 8.85089 6.62907C8.78803 6.70092 8.73863 6.77277 8.70271 6.84462C8.66678 6.88054 8.63086 6.91198 8.59493 6.93892C8.55901 6.96586 8.50512 6.96137 8.43327 6.92545C8.39735 6.96137 8.34795 6.97035 8.28508 6.95239C8.22222 6.93443 8.17282 6.92545 8.13689 6.92545L8.05606 6.84462V6.79073H8.13689C8.17282 6.79073 8.20874 6.79971 8.24467 6.81768C8.28059 6.83564 8.31652 6.84462 8.35244 6.84462C8.35244 6.84462 8.36591 6.84462 8.39286 6.84462C8.4198 6.84462 8.43327 6.82666 8.43327 6.79073C8.4692 6.75481 8.49165 6.71439 8.50063 6.66949C8.50961 6.62458 8.53206 6.58417 8.56799 6.54824L8.64882 6.49436C8.68474 6.45843 8.71169 6.43149 8.72965 6.41352C8.74761 6.39556 8.73863 6.35066 8.70271 6.27881V6.19798C8.73863 6.16205 8.74761 6.1396 8.72965 6.13062C8.71169 6.12164 8.70271 6.09919 8.70271 6.06326V5.38968C8.70271 5.31783 8.70271 5.25945 8.70271 5.21455C8.70271 5.16964 8.68474 5.11126 8.64882 5.03941C8.61289 5.00349 8.59493 4.97655 8.59493 4.95858C8.59493 4.94062 8.61289 4.91368 8.64882 4.87775C8.68474 4.84183 8.70271 4.79243 8.70271 4.72956C8.70271 4.6667 8.70271 4.59934 8.70271 4.52749C8.70271 4.49157 8.70271 4.46013 8.70271 4.43319C8.70271 4.40624 8.68474 4.39277 8.64882 4.39277H8.35244L8.13689 4.82387C8.10097 4.85979 8.07403 4.89572 8.05606 4.93164C8.0381 4.96757 7.9932 5.00349 7.92135 5.03941C7.88542 5.07534 7.8495 5.11575 7.81357 5.16066C7.77765 5.20556 7.75969 5.26394 7.75969 5.33579C7.75969 5.37172 7.75969 5.41662 7.75969 5.47051C7.75969 5.52439 7.74173 5.5693 7.7058 5.60522C7.66988 5.64115 7.6609 5.67707 7.67886 5.713C7.69682 5.74892 7.72376 5.76688 7.75969 5.76688C7.79561 5.76688 7.82256 5.78036 7.84052 5.8073C7.85848 5.83424 7.88542 5.86568 7.92135 5.9016C7.95727 5.93753 7.98871 5.96447 8.01565 5.98243C8.04259 6.00039 8.05606 6.02734 8.05606 6.06326V6.11715C8.05606 6.15307 8.04259 6.18002 8.01565 6.19798C7.98871 6.21594 7.97523 6.24288 7.97523 6.27881C7.93931 6.27881 7.92135 6.26534 7.92135 6.23839C7.92135 6.21145 7.92135 6.19798 7.92135 6.19798C7.81357 6.0902 7.70131 6.00039 7.58456 5.92854C7.4678 5.8567 7.33757 5.82077 7.19388 5.82077C7.15795 5.82077 7.12203 5.82077 7.0861 5.82077C7.05018 5.82077 7.03222 5.80281 7.03222 5.76688C6.99629 5.76688 6.96037 5.74892 6.92444 5.713C6.88852 5.67707 6.83463 5.64115 6.76278 5.60522H6.68195C6.64603 5.60522 6.6101 5.59175 6.57418 5.56481C6.53826 5.53787 6.50233 5.50643 6.46641 5.47051C6.43048 5.47051 6.40354 5.46153 6.38558 5.44356C6.36761 5.4256 6.34067 5.43458 6.30475 5.47051C6.30475 5.50643 6.30924 5.52888 6.31822 5.53787C6.3272 5.54685 6.34965 5.5693 6.38558 5.60522C6.4215 5.64115 6.45743 5.6636 6.49335 5.67258C6.52927 5.68156 6.5652 5.68605 6.60112 5.68605L6.68195 5.76688C6.68195 5.80281 6.69543 5.83873 6.72237 5.87466C6.74931 5.91058 6.76278 5.94651 6.76278 5.98243C6.76278 6.01836 6.75829 6.04979 6.74931 6.07673C6.74033 6.10368 6.71788 6.11715 6.68195 6.11715H6.60112V6.19798C6.5652 6.19798 6.53826 6.19349 6.52029 6.18451C6.50233 6.17553 6.51131 6.15307 6.54724 6.11715C6.54724 6.08122 6.54275 6.04979 6.53376 6.02285C6.52478 5.9959 6.50233 5.98243 6.46641 5.98243H6.30475C6.2329 6.05428 6.17452 6.10817 6.12961 6.14409C6.08471 6.18002 6.02633 6.19798 5.95448 6.19798C5.91856 6.19798 5.88263 6.20247 5.84671 6.21145C5.81078 6.22043 5.77486 6.24288 5.73894 6.27881C5.70301 6.31473 5.65361 6.3327 5.59075 6.3327C5.52788 6.3327 5.47848 6.31473 5.44256 6.27881H5.52339C5.52339 6.24288 5.52339 6.20696 5.52339 6.17104C5.52339 6.13511 5.54135 6.09919 5.57728 6.06326C5.54135 6.06326 5.49645 6.07224 5.44256 6.0902C5.38867 6.10817 5.36173 6.17104 5.36173 6.27881C5.3258 6.27881 5.30335 6.26534 5.29437 6.23839C5.28539 6.21145 5.26294 6.19798 5.22701 6.19798C5.19109 6.2339 5.14169 6.25636 5.07882 6.26534C5.01596 6.27432 4.9486 6.29677 4.87675 6.3327C4.84082 6.36862 4.81388 6.40454 4.79592 6.44047C4.77796 6.47639 4.72407 6.49436 4.63426 6.49436C4.59833 6.49436 4.5669 6.51232 4.53996 6.54824C4.51301 6.58417 4.49954 6.63805 4.49954 6.7099C4.49954 6.74583 4.49505 6.77726 4.48607 6.8042C4.47709 6.83115 4.45464 6.84462 4.41871 6.84462C4.38279 6.84462 4.33788 6.84013 4.28399 6.83115C4.23011 6.82217 4.20316 6.78175 4.20316 6.7099C4.13132 6.67398 4.10437 6.63805 4.12233 6.60213C4.1403 6.5662 4.16724 6.53028 4.20316 6.49436C4.23909 6.49436 4.27501 6.48088 4.31094 6.45394C4.34686 6.427 4.38279 6.41352 4.41871 6.41352C4.38279 6.3776 4.35135 6.34168 4.32441 6.30575C4.29747 6.26983 4.28399 6.2339 4.28399 6.19798H4.06845L3.98762 6.27881C3.98762 6.35066 3.97864 6.42251 3.96067 6.49436C3.94271 6.5662 3.93373 6.63805 3.93373 6.7099C4.00558 6.74583 4.0415 6.79073 4.0415 6.84462C4.0415 6.89851 4.02354 6.9973 3.98762 7.141C3.98762 7.141 3.97864 7.13651 3.96067 7.12752C3.94271 7.11854 3.93373 7.09609 3.93373 7.06017L3.8529 7.00628C3.81698 7.00628 3.78105 7.00628 3.74513 7.00628C3.7092 7.00628 3.67328 7.02424 3.63735 7.06017L3.55652 7.141C3.5206 7.141 3.48467 7.15896 3.44875 7.19488C3.41283 7.23081 3.3769 7.28469 3.34098 7.35654V7.49126L3.42181 7.57209V7.73375H3.26015C3.22422 7.73375 3.20177 7.72028 3.19279 7.69333C3.18381 7.66639 3.16135 7.65292 3.12543 7.65292C3.05358 7.61699 2.99969 7.59005 2.96377 7.57209C2.92785 7.55413 2.90988 7.52718 2.90988 7.49126C2.90988 7.49126 2.89641 7.48228 2.86947 7.46432C2.84252 7.44635 2.82905 7.45534 2.82905 7.49126C2.79313 7.49126 2.77068 7.50922 2.76169 7.54515C2.75271 7.58107 2.74822 7.61699 2.74822 7.65292C2.74822 7.68884 2.76618 7.73375 2.80211 7.78764C2.83803 7.84152 2.87396 7.86847 2.90988 7.86847C2.94581 7.86847 2.96377 7.87296 2.96377 7.88194C2.96377 7.89092 2.96377 7.91337 2.96377 7.9493C2.96377 7.98522 2.9503 8.00318 2.92335 8.00318C2.89641 8.00318 2.86498 8.00318 2.82905 8.00318C2.79313 8.00318 2.76169 7.99869 2.73475 7.98971C2.70781 7.98073 2.69434 7.94032 2.69434 7.86847L2.61351 7.78764C2.57758 7.78764 2.55513 7.78764 2.54615 7.78764C2.53717 7.78764 2.53268 7.76967 2.53268 7.73375V7.35654C2.53268 7.32062 2.53268 7.27571 2.53268 7.22183C2.53268 7.16794 2.51471 7.141 2.47879 7.141C2.33509 7.06915 2.23181 6.9973 2.16894 6.92545C2.10607 6.8536 2.05668 6.78175 2.02075 6.7099L2.10158 6.79073C2.13751 6.79073 2.16445 6.79971 2.18241 6.81768C2.20037 6.83564 2.22732 6.84462 2.26324 6.84462L2.90988 7.06017C3.01766 7.09609 3.11196 7.10058 3.19279 7.07364C3.27362 7.04669 3.34996 6.9973 3.42181 6.92545C3.49366 6.8536 3.52958 6.78175 3.52958 6.7099C3.52958 6.63805 3.49366 6.58417 3.42181 6.54824L3.26015 6.41352C3.22422 6.41352 3.1883 6.40005 3.15237 6.37311C3.11645 6.34617 3.08052 6.31473 3.0446 6.27881C2.97275 6.20696 2.91437 6.15307 2.86947 6.11715C2.82456 6.08122 2.78415 6.06326 2.74822 6.06326C2.67637 6.02734 2.618 5.99141 2.57309 5.95549C2.52819 5.91956 2.46981 5.87466 2.39796 5.82077H2.10158C2.10158 5.82077 2.08811 5.82077 2.06117 5.82077C2.03422 5.82077 2.02075 5.80281 2.02075 5.76688L2.18241 5.68605C2.14649 5.68605 2.11056 5.67258 2.07464 5.64564C2.03871 5.6187 2.02075 5.60522 2.02075 5.60522C2.02075 5.60522 2.00728 5.6187 1.98034 5.64564C1.95339 5.67258 1.92196 5.68605 1.88604 5.68605H1.80521C1.73336 5.72198 1.666 5.76239 1.60313 5.8073C1.54026 5.85221 1.49087 5.91058 1.45494 5.98243C1.41902 6.05428 1.40555 6.12164 1.41453 6.18451C1.42351 6.24738 1.46392 6.29677 1.53577 6.3327C1.60762 6.36862 1.64354 6.42251 1.64354 6.49436C1.64354 6.5662 1.62558 6.63805 1.58966 6.7099C1.51781 6.7099 1.48188 6.72787 1.48188 6.76379C1.48188 6.79971 1.49985 6.8536 1.53577 6.92545C1.5717 6.96137 1.59415 7.00179 1.60313 7.04669C1.61211 7.0916 1.63456 7.14998 1.67049 7.22183V7.78764C1.67049 7.82356 1.67498 7.8505 1.68396 7.86847C1.69294 7.88643 1.71539 7.91337 1.75132 7.9493C1.78724 7.98522 1.80521 8.00767 1.80521 8.01665C1.80521 8.02564 1.78724 8.04809 1.75132 8.08401C1.75132 8.08401 1.73785 8.0885 1.7109 8.09748C1.68396 8.10647 1.67049 8.12892 1.67049 8.16484L1.88604 8.38039C1.92196 8.41632 1.93992 8.45673 1.93992 8.50164C1.93992 8.54654 1.92196 8.60492 1.88604 8.67677C1.81419 8.64084 1.74234 8.64982 1.67049 8.70371C1.59864 8.7576 1.52679 8.83843 1.45494 8.9462C1.41902 8.98213 1.39656 9.01805 1.38758 9.05397C1.3786 9.0899 1.35615 9.10786 1.32022 9.10786C1.35615 9.10786 1.37411 9.11684 1.37411 9.1348C1.37411 9.15277 1.37411 9.16175 1.37411 9.16175C1.37411 9.19767 1.39207 9.22013 1.428 9.22911C1.46392 9.23809 1.49985 9.24258 1.53577 9.24258C1.53577 9.24258 1.54475 9.24707 1.56271 9.25605C1.58068 9.26503 1.58966 9.28748 1.58966 9.32341C1.51781 9.32341 1.45045 9.33239 1.38758 9.35035C1.32472 9.36831 1.27532 9.43118 1.23939 9.53896C1.23939 9.57488 1.22592 9.6108 1.19898 9.64673C1.17204 9.68265 1.15856 9.71858 1.15856 9.7545V9.97005L1.07773 10.0509V10.1856C1.11366 10.2574 1.13162 10.3383 1.13162 10.4281C1.13162 10.5179 1.19449 10.5628 1.32022 10.5628H1.37411C1.41004 10.5628 1.44596 10.5763 1.48188 10.6032C1.51781 10.6302 1.53577 10.6616 1.53577 10.6975V10.9131C1.5717 10.9849 1.60762 11.0433 1.64354 11.0882C1.67947 11.1331 1.71539 11.1735 1.75132 11.2094C1.75132 11.2094 1.7603 11.2229 1.77826 11.2499C1.79622 11.2768 1.78724 11.2903 1.75132 11.2903C1.75132 11.2903 1.73336 11.2993 1.69743 11.3172C1.66151 11.3352 1.62558 11.3442 1.58966 11.3442H1.53577C1.53577 11.3801 1.53577 11.4205 1.53577 11.4654C1.53577 11.5103 1.55373 11.5687 1.58966 11.6405C1.73336 11.7483 1.83215 11.8112 1.88604 11.8291C1.93992 11.8471 1.98483 11.8561 2.02075 11.8561C2.11056 11.7842 2.18241 11.7753 2.2363 11.8291C2.29019 11.883 2.31713 11.9459 2.31713 12.0177C2.31713 12.0537 2.3306 12.0851 2.35754 12.112C2.38449 12.139 2.39796 12.1525 2.39796 12.1525C2.46981 12.1525 2.51022 12.1794 2.5192 12.2333C2.52819 12.2872 2.53268 12.3321 2.53268 12.368C2.5686 12.368 2.59554 12.3815 2.61351 12.4084C2.63147 12.4354 2.65841 12.4488 2.69434 12.4488H2.74822C2.78415 12.4129 2.81109 12.4039 2.82905 12.4219C2.84701 12.4399 2.87396 12.4668 2.90988 12.5027L2.96377 12.5836C3.01766 12.5836 3.06256 12.597 3.09849 12.624C3.13441 12.6509 3.17034 12.6644 3.20626 12.6644L3.26015 12.7183C3.26015 12.7722 3.26015 12.8171 3.26015 12.853C3.26015 12.8889 3.24218 12.9248 3.20626 12.9608V13.0146C3.20626 13.0865 3.20177 13.1314 3.19279 13.1494C3.18381 13.1673 3.16135 13.1763 3.12543 13.1763C3.08951 13.1763 3.0446 13.2033 2.99071 13.2571C2.93683 13.311 2.92785 13.3559 2.96377 13.3919H3.12543L2.90988 13.5266L2.96377 13.6074C2.96377 13.6433 2.95479 13.6748 2.93683 13.7017C2.91886 13.7286 2.90988 13.7421 2.90988 13.7421L2.74822 13.9038C2.74822 13.9397 2.76169 13.9622 2.78864 13.9711C2.81558 13.9801 2.82905 14.0026 2.82905 14.0385L3.26015 14.4696C3.29607 14.5055 3.34098 14.5459 3.39486 14.5908C3.44875 14.6357 3.47569 14.6941 3.47569 14.766C3.51162 14.8378 3.52958 14.8962 3.52958 14.9411C3.52958 14.986 3.49366 15.0264 3.42181 15.0623C3.38588 15.0983 3.332 15.1162 3.26015 15.1162C3.1883 15.1162 3.11645 15.1162 3.0446 15.1162C2.93683 15.1522 2.83354 15.1432 2.73475 15.0893C2.63596 15.0354 2.55064 14.9725 2.47879 14.9007C2.40694 14.8648 2.31264 14.8468 2.19588 14.8468C2.07913 14.8468 2.00279 14.8648 1.96687 14.9007C1.89502 14.9725 1.82317 15.0264 1.75132 15.0623C1.67947 15.0983 1.60762 15.0983 1.53577 15.0623H1.45494C1.45494 15.1342 1.45045 15.1881 1.44147 15.224C1.43249 15.2599 1.39207 15.2779 1.32022 15.2779H1.15856C1.12264 15.2779 1.09121 15.2914 1.06426 15.3183C1.03732 15.3452 1.02385 15.3767 1.02385 15.4126C1.02385 15.4126 1.03283 15.4306 1.05079 15.4665C1.06875 15.5024 1.07773 15.5383 1.07773 15.5743C1.11366 15.6461 1.11815 15.7045 1.09121 15.7494C1.06426 15.7943 1.08672 15.8527 1.15856 15.9245V16.0054C1.15856 16.0413 1.17204 16.0637 1.19898 16.0727C1.22592 16.0817 1.23939 16.1042 1.23939 16.1401C1.23939 16.1401 1.25287 16.1536 1.27981 16.1805C1.30675 16.2074 1.33819 16.2209 1.37411 16.2209C1.41004 16.2209 1.43249 16.2344 1.44147 16.2613C1.45045 16.2883 1.45494 16.3017 1.45494 16.3017L1.53577 16.3556C1.5717 16.3556 1.59415 16.3466 1.60313 16.3287C1.61211 16.3107 1.63456 16.3017 1.67049 16.3017C1.70641 16.3017 1.72887 16.2883 1.73785 16.2613C1.74683 16.2344 1.76928 16.2209 1.80521 16.2209C1.84113 16.2209 1.86807 16.2344 1.88604 16.2613C1.904 16.2883 1.93094 16.3017 1.96687 16.3017C2.03871 16.3377 2.09709 16.3646 2.142 16.3826C2.1869 16.4005 2.24528 16.3736 2.31713 16.3017C2.35305 16.2658 2.38 16.2479 2.39796 16.2479C2.41592 16.2479 2.44286 16.2658 2.47879 16.3017H2.61351V16.7867L2.39796 17.5142C2.36203 17.586 2.34407 17.6579 2.34407 17.7297C2.34407 17.8016 2.36203 17.8824 2.39796 17.9722C2.39796 18.0082 2.41143 18.0441 2.43837 18.08C2.46532 18.1159 2.47879 18.1518 2.47879 18.1878C2.44286 18.2955 2.43388 18.3988 2.45185 18.4976C2.46981 18.5964 2.49675 18.6817 2.53268 18.7536C2.60452 18.8614 2.6629 18.9691 2.70781 19.0769C2.75271 19.1847 2.79313 19.2925 2.82905 19.4002C2.82905 19.4361 2.84252 19.4631 2.86947 19.4811C2.89641 19.499 2.90988 19.526 2.90988 19.5619C2.98173 19.6337 3.03562 19.7101 3.07154 19.7909C3.10747 19.8717 3.12543 19.966 3.12543 20.0738C3.12543 20.1457 3.12992 20.2175 3.1389 20.2894C3.14788 20.3612 3.1883 20.4331 3.26015 20.5049C3.29607 20.5408 3.332 20.5812 3.36792 20.6261C3.40384 20.6711 3.43977 20.7294 3.47569 20.8013C3.47569 20.8372 3.48917 20.8731 3.51611 20.9091C3.54305 20.945 3.55652 20.9809 3.55652 21.0168C3.59245 21.0887 3.62837 21.174 3.6643 21.2728C3.70022 21.3716 3.73615 21.4569 3.77207 21.5287C3.77207 21.6006 3.77656 21.668 3.78554 21.7308C3.79452 21.7937 3.81698 21.8431 3.8529 21.879C3.8529 21.9149 3.86637 21.9509 3.89332 21.9868C3.92026 22.0227 3.93373 22.0586 3.93373 22.0946C3.93373 22.1664 3.95169 22.2203 3.98762 22.2562C4.02354 22.2921 4.07743 22.2832 4.14928 22.2293C4.14928 22.1215 4.18969 22.0541 4.27052 22.0272C4.35135 22.0003 4.42769 21.9509 4.49954 21.879H4.58037C4.6163 21.879 4.65222 21.8655 4.68814 21.8386C4.72407 21.8117 4.75999 21.7802 4.79592 21.7443C4.83184 21.7084 4.8543 21.6724 4.86328 21.6365C4.87226 21.6006 4.89471 21.5647 4.93063 21.5287C4.96656 21.4928 5.01596 21.4749 5.07882 21.4749C5.14169 21.4749 5.19109 21.4928 5.22701 21.5287C5.26294 21.403 5.28988 21.3312 5.30784 21.3132C5.3258 21.2952 5.37071 21.2683 5.44256 21.2324C5.55033 21.1964 5.64463 21.1426 5.72546 21.0707C5.80629 20.9989 5.88263 20.927 5.95448 20.8552C5.99041 20.8192 6.02184 20.7833 6.04878 20.7474C6.07573 20.7115 6.0892 20.6576 6.0892 20.5857V20.4241C6.16105 20.3163 6.22392 20.222 6.2778 20.1412C6.33169 20.0603 6.39456 19.966 6.46641 19.8583C6.46641 19.8223 6.45293 19.7864 6.42599 19.7505C6.39905 19.7146 6.38558 19.6697 6.38558 19.6158C6.38558 19.5798 6.3721 19.5484 6.34516 19.5215C6.31822 19.4945 6.28678 19.4811 6.25086 19.4811C6.17901 19.4811 6.12512 19.4496 6.0892 19.3868C6.05327 19.3239 6.03531 19.2565 6.03531 19.1847C6.03531 19.1128 6.02184 19.0545 5.9949 19.0095C5.96795 18.9646 5.95448 18.9063 5.95448 18.8344C5.91856 18.9063 5.88263 18.9646 5.84671 19.0095C5.81078 19.0545 5.77486 19.1128 5.73894 19.1847C5.70301 19.2565 5.6626 19.3014 5.61769 19.3194C5.57278 19.3374 5.51441 19.3463 5.44256 19.3463H5.30784C5.27192 19.3823 5.24497 19.3868 5.22701 19.3598C5.20905 19.3329 5.18211 19.3014 5.14618 19.2655V18.9691C5.14618 18.9691 5.14618 18.9601 5.14618 18.9422C5.14618 18.9242 5.12822 18.9152 5.0923 18.9152L5.01147 18.9691C5.01147 19.0051 5.00697 19.032 4.99799 19.05C4.98901 19.0679 4.96656 19.0949 4.93063 19.1308C4.89471 19.0949 4.87675 19.0589 4.87675 19.023C4.87675 18.9871 4.87675 18.9512 4.87675 18.9152C4.87675 18.8793 4.87226 18.8389 4.86328 18.794C4.8543 18.7491 4.83184 18.7087 4.79592 18.6728C4.72407 18.6009 4.67018 18.5201 4.63426 18.4303C4.59833 18.3405 4.58037 18.2596 4.58037 18.1878C4.54445 18.08 4.53097 18.0126 4.53996 17.9857C4.54894 17.9588 4.60731 17.9273 4.71509 17.8914C4.78694 17.8914 4.84082 17.8959 4.87675 17.9049C4.91267 17.9138 4.93063 17.9543 4.93063 18.0261C4.96656 18.098 4.9935 18.1608 5.01147 18.2147C5.02943 18.2686 5.05637 18.3315 5.0923 18.4033C5.0923 18.4392 5.10577 18.4707 5.13271 18.4976C5.15965 18.5246 5.19109 18.538 5.22701 18.538L5.36173 18.6728C5.43358 18.7087 5.50992 18.7536 5.59075 18.8075C5.67158 18.8614 5.74792 18.8703 5.81977 18.8344C5.92754 18.7985 5.99041 18.785 6.00837 18.794C6.02633 18.803 6.05327 18.8614 6.0892 18.9691C6.0892 19.0051 6.10716 19.0365 6.14309 19.0634C6.17901 19.0904 6.21493 19.0859 6.25086 19.05C6.28678 19.05 6.30924 19.0365 6.31822 19.0095C6.3272 18.9826 6.34965 18.9691 6.38558 18.9691C6.45743 18.9691 6.52029 18.9826 6.57418 19.0095C6.62807 19.0365 6.69093 19.05 6.76278 19.05C6.79871 19.0859 6.85259 19.1173 6.92444 19.1443C6.99629 19.1712 7.0861 19.1667 7.19388 19.1308C7.26573 19.1308 7.3241 19.1263 7.36901 19.1173C7.41391 19.1083 7.47229 19.0859 7.54414 19.05C7.58007 19.05 7.61599 19.0679 7.65191 19.1038C7.68784 19.1398 7.72376 19.1937 7.75969 19.2655V19.3463C7.75969 19.3823 7.76418 19.4137 7.77316 19.4406C7.78214 19.4676 7.80459 19.4811 7.84052 19.4811C7.87644 19.4811 7.89889 19.4945 7.90788 19.5215C7.91686 19.5484 7.93931 19.5798 7.97523 19.6158C8.01116 19.6697 8.04708 19.7101 8.08301 19.737C8.11893 19.764 8.16384 19.7774 8.21772 19.7774H8.27161C8.23569 19.8493 8.19976 19.8807 8.16384 19.8717C8.12791 19.8628 8.09199 19.8762 8.05606 19.9121C8.09199 19.9481 8.12791 19.9975 8.16384 20.0603C8.19976 20.1232 8.23569 20.1726 8.27161 20.2085C8.30754 20.2444 8.34346 20.2669 8.37938 20.2759C8.41531 20.2849 8.45123 20.2894 8.48716 20.2894C8.52308 20.2534 8.55901 20.2175 8.59493 20.1816C8.63086 20.1457 8.64882 20.1097 8.64882 20.0738V19.993C8.64882 20.0648 8.6578 20.1232 8.67576 20.1681C8.69372 20.213 8.70271 20.2714 8.70271 20.3432V20.6396C8.73863 20.7474 8.75659 20.8552 8.75659 20.9629C8.75659 21.0707 8.79252 21.1785 8.86437 21.2863V21.3671C8.86437 21.4749 8.87784 21.5826 8.90478 21.6904C8.93172 21.7982 8.96316 21.906 8.99908 22.0137C9.03501 22.0856 9.05746 22.1484 9.06644 22.2023C9.07542 22.2562 9.07991 22.3191 9.07991 22.3909C9.11584 22.4987 9.15625 22.6065 9.20116 22.7143C9.24606 22.822 9.30444 22.9298 9.37629 23.0376C9.37629 23.0735 9.38976 23.1094 9.4167 23.1454C9.44365 23.1813 9.47508 23.2172 9.51101 23.2531C9.51101 23.2531 9.52448 23.2531 9.55142 23.2531C9.57836 23.2531 9.59184 23.2352 9.59184 23.1992C9.62776 23.1094 9.67267 23.0421 9.72655 22.9972C9.78044 22.9523 9.80738 22.8939 9.80738 22.822V22.7412C9.80738 22.7053 9.81636 22.6828 9.83433 22.6738C9.85229 22.6649 9.86127 22.6424 9.86127 22.6065C9.86127 22.5706 9.86576 22.5212 9.87474 22.4583C9.88372 22.3954 9.90618 22.346 9.9421 22.3101C9.9421 22.2383 9.95557 22.1799 9.98251 22.135C10.0095 22.0901 10.0229 22.0317 10.0229 21.9598V21.5287C10.0229 21.4928 10.0364 21.4704 10.0633 21.4614C10.0903 21.4524 10.1038 21.4479 10.1038 21.4479C10.1756 21.412 10.2295 21.3581 10.2654 21.2863C10.3013 21.2144 10.3193 21.1426 10.3193 21.0707C10.3552 20.9629 10.3912 20.8597 10.4271 20.7609C10.463 20.6621 10.5169 20.5768 10.5887 20.5049C10.5887 20.5049 10.5932 20.4914 10.6022 20.4645C10.6112 20.4375 10.6336 20.4241 10.6696 20.4241C10.7055 20.3881 10.7324 20.3567 10.7504 20.3298C10.7684 20.3028 10.8133 20.2894 10.8851 20.2894H11.0468C11.0468 20.1816 11.0647 20.1142 11.1007 20.0873C11.1366 20.0603 11.1905 20.0289 11.2623 19.993H11.3162C11.3521 19.9571 11.4105 19.9391 11.4913 19.9391C11.5722 19.9391 11.6126 19.8852 11.6126 19.7774C11.6126 19.7415 11.6261 19.7235 11.653 19.7235C11.6799 19.7235 11.6934 19.7415 11.6934 19.7774C11.6934 19.8134 11.7069 19.8493 11.7338 19.8852C11.7608 19.9211 11.7742 19.9571 11.7742 19.993C11.7742 20.0648 11.7877 20.1322 11.8147 20.1951C11.8416 20.2579 11.873 20.3073 11.909 20.3432L11.9898 20.4241C12.0616 20.5318 12.1021 20.6576 12.111 20.8013C12.12 20.945 12.1245 21.0887 12.1245 21.2324C12.1245 21.2683 12.129 21.2997 12.138 21.3267C12.147 21.3536 12.1694 21.3671 12.2053 21.3671C12.2413 21.3671 12.2637 21.3626 12.2727 21.3536C12.2817 21.3446 12.3041 21.3222 12.3401 21.2863C12.376 21.2503 12.3984 21.2144 12.4074 21.1785C12.4164 21.1426 12.4389 21.1066 12.4748 21.0707C12.5287 21.1426 12.5691 21.2189 12.596 21.2997C12.623 21.3806 12.6364 21.4569 12.6364 21.5287C12.6364 21.6006 12.6499 21.668 12.6769 21.7308C12.7038 21.7937 12.7173 21.8431 12.7173 21.879C12.7173 21.9149 12.7262 21.9554 12.7442 22.0003C12.7622 22.0452 12.7712 22.1035 12.7712 22.1754V22.7412C12.7712 22.7771 12.7712 22.8175 12.7712 22.8624C12.7712 22.9074 12.7532 22.9657 12.7173 23.0376C12.7173 23.0735 12.7173 23.1004 12.7173 23.1184C12.7173 23.1364 12.7352 23.1633 12.7712 23.1992C12.843 23.2711 12.9014 23.3474 12.9463 23.4283C12.9912 23.5091 13.0316 23.6214 13.0675 23.765C13.0675 23.8369 13.081 23.9087 13.1079 23.9806C13.1349 24.0524 13.1484 24.1063 13.1484 24.1423C13.1484 24.1782 13.1573 24.2141 13.1753 24.25C13.1933 24.286 13.2022 24.3219 13.2022 24.3578C13.2382 24.4656 13.3055 24.5464 13.4043 24.6003C13.5031 24.6542 13.5884 24.717 13.6603 24.7889C13.6603 24.753 13.6558 24.726 13.6468 24.7081C13.6378 24.6901 13.6154 24.6632 13.5795 24.6272C13.5435 24.5554 13.5121 24.4835 13.4852 24.4117C13.4582 24.3398 13.4627 24.25 13.4986 24.1423V24.0614C13.4986 24.0255 13.4986 23.9896 13.4986 23.9537C13.4986 23.9177 13.4807 23.8998 13.4447 23.8998C13.4088 23.8638 13.3819 23.8279 13.3639 23.792C13.3459 23.7561 13.319 23.7201 13.2831 23.6842C13.2472 23.6483 13.2247 23.6169 13.2157 23.5899C13.2067 23.563 13.1843 23.5495 13.1484 23.5495C13.0765 23.5136 13.0316 23.4732 13.0136 23.4283C12.9957 23.3834 12.9867 23.325 12.9867 23.2531C12.9867 23.2172 12.9867 23.1678 12.9867 23.1049C12.9867 23.0421 12.9687 22.9927 12.9328 22.9567C12.861 22.9208 12.8295 22.8849 12.8385 22.849C12.8475 22.8131 12.852 22.7592 12.852 22.6873C12.8879 22.5795 12.9104 22.4673 12.9193 22.3505C12.9283 22.2338 12.9328 22.1215 12.9328 22.0137C12.9328 21.9778 12.9418 21.9598 12.9598 21.9598C12.9777 21.9598 12.9867 21.9598 12.9867 21.9598C13.0226 21.9958 13.0585 22.0182 13.0945 22.0272C13.1304 22.0362 13.1663 22.0586 13.2022 22.0946L13.3639 22.2293C13.3639 22.2832 13.3774 22.3146 13.4043 22.3236C13.4313 22.3326 13.4447 22.355 13.4447 22.3909C13.4447 22.4269 13.4447 22.4583 13.4447 22.4852C13.4447 22.5122 13.4627 22.5257 13.4986 22.5257C13.4986 22.5616 13.5121 22.5975 13.539 22.6334C13.566 22.6694 13.5795 22.6873 13.5795 22.6873C13.6513 22.6514 13.6962 22.6559 13.7142 22.7008C13.7321 22.7457 13.7591 22.7861 13.795 22.822C13.795 22.858 13.7815 22.8939 13.7546 22.9298C13.7276 22.9657 13.7142 23.0017 13.7142 23.0376L13.795 22.9567C13.8309 22.9567 13.8624 22.9433 13.8893 22.9163C13.9162 22.8894 13.9297 22.858 13.9297 22.822C13.9656 22.7861 13.9926 22.7457 14.0105 22.7008C14.0285 22.6559 14.0734 22.6514 14.1453 22.6873L14.2261 22.6065C14.2261 22.5346 14.2441 22.4807 14.28 22.4448C14.3159 22.4089 14.3518 22.3909 14.3878 22.3909V21.7443C14.3878 21.6724 14.3698 21.6006 14.3339 21.5287C14.2979 21.4569 14.262 21.403 14.2261 21.3671C14.1902 21.2952 14.1408 21.2369 14.0779 21.192C14.015 21.1471 13.9656 21.0887 13.9297 21.0168C13.8938 20.9809 13.8713 20.927 13.8624 20.8552C13.8534 20.7833 13.8309 20.7115 13.795 20.6396C13.7591 20.5678 13.7725 20.4959 13.8354 20.4241C13.8983 20.3522 13.9297 20.2804 13.9297 20.2085H14.0105C14.0105 20.2085 14.024 20.204 14.051 20.1951C14.0779 20.1861 14.0914 20.1636 14.0914 20.1277L14.2261 19.993H14.3069C14.3069 19.993 14.3114 20.0065 14.3204 20.0334C14.3294 20.0603 14.3518 20.0738 14.3878 20.0738L14.4416 19.993C14.4776 20.0648 14.4821 20.1322 14.4551 20.1951C14.4282 20.2579 14.4506 20.3073 14.5225 20.3432C14.5225 20.2714 14.5359 20.2175 14.5629 20.1816C14.5898 20.1457 14.6213 20.1097 14.6572 20.0738C14.729 20.0379 14.7919 19.9885 14.8458 19.9256C14.8997 19.8628 14.9625 19.8134 15.0344 19.7774H15.1152C15.1511 19.8134 15.1871 19.8178 15.223 19.7909C15.2589 19.764 15.2948 19.7325 15.3308 19.6966C15.3667 19.6607 15.4026 19.6158 15.4385 19.5619C15.4745 19.508 15.5284 19.4811 15.6002 19.4811H15.681C15.7529 19.4451 15.8068 19.4047 15.8427 19.3598C15.8786 19.3149 15.8966 19.2386 15.8966 19.1308V18.9691C15.8966 18.8973 15.9145 18.8299 15.9505 18.7671C15.9864 18.7042 16.0403 18.6548 16.1121 18.6189C16.1481 18.6189 16.184 18.6009 16.2199 18.565C16.2558 18.5291 16.2738 18.4931 16.2738 18.4572L16.3277 18.4033C16.3277 18.3674 16.3411 18.3405 16.3681 18.3225C16.395 18.3045 16.4085 18.2776 16.4085 18.2417C16.4085 18.1698 16.413 18.1159 16.422 18.08C16.431 18.0441 16.4534 18.0082 16.4893 17.9722L16.193 17.8914L16.4085 17.7297L16.193 17.4603L16.4085 17.5142C16.4085 17.4783 16.395 17.4558 16.3681 17.4468C16.3411 17.4378 16.3277 17.4154 16.3277 17.3795L16.2738 17.2986C16.2379 17.2268 16.2109 17.1684 16.193 17.1235C16.175 17.0786 16.1481 17.0202 16.1121 16.9484C16.1121 16.9125 16.1031 16.8855 16.0852 16.8675C16.0672 16.8496 16.0582 16.8226 16.0582 16.7867C16.0223 16.7508 16.0044 16.7149 16.0044 16.6789C16.0044 16.643 16.0223 16.6071 16.0582 16.5712L16.1121 16.5173C16.1481 16.4454 16.2019 16.3781 16.2738 16.3152C16.3456 16.2523 16.4175 16.2209 16.4893 16.2209L16.5432 16.1401C16.5432 16.1042 16.5342 16.0817 16.5163 16.0727C16.4983 16.0637 16.4893 16.0592 16.4893 16.0592C16.4534 16.0592 16.4265 16.0592 16.4085 16.0592C16.3905 16.0592 16.3636 16.0413 16.3277 16.0054C16.2918 15.9694 16.2693 15.9515 16.2603 15.9515C16.2513 15.9515 16.2289 15.9694 16.193 16.0054C16.193 16.0054 16.1885 16.0143 16.1795 16.0323C16.1705 16.0503 16.1481 16.0592 16.1121 16.0592C16.0762 16.0592 16.0538 16.0727 16.0448 16.0997C16.0358 16.1266 16.0133 16.1401 15.9774 16.1401C15.9774 16.1042 15.9639 16.0817 15.937 16.0727C15.9101 16.0637 15.8966 16.0413 15.8966 16.0054C15.8966 15.9335 15.8921 15.8886 15.8831 15.8706C15.8741 15.8527 15.8337 15.8437 15.7619 15.8437C15.7259 15.8437 15.69 15.8392 15.6541 15.8302C15.6182 15.8212 15.6002 15.7808 15.6002 15.709C15.6002 15.6371 15.6182 15.5967 15.6541 15.5877C15.69 15.5788 15.7259 15.5743 15.7619 15.5743C15.7978 15.5743 15.8202 15.5698 15.8292 15.5608C15.8382 15.5518 15.8607 15.5294 15.8966 15.4934C15.9325 15.4575 15.9594 15.4216 15.9774 15.3857C15.9954 15.3497 16.0223 15.3318 16.0582 15.3318L16.1121 15.2779C16.1121 15.242 16.1256 15.215 16.1525 15.1971C16.1795 15.1791 16.193 15.1522 16.193 15.1162C16.2289 15.0803 16.2603 15.0623 16.2873 15.0623C16.3142 15.0623 16.3277 15.0803 16.3277 15.1162C16.3636 15.1522 16.3726 15.1881 16.3546 15.224C16.3367 15.2599 16.3277 15.2779 16.3277 15.2779C16.2918 15.3138 16.2693 15.3632 16.2603 15.4261C16.2513 15.4889 16.2289 15.5563 16.193 15.6282C16.2289 15.6282 16.2513 15.6192 16.2603 15.6012C16.2693 15.5832 16.2918 15.5743 16.3277 15.5743C16.3636 15.5383 16.404 15.5024 16.4489 15.4665C16.4938 15.4306 16.5522 15.3857 16.6241 15.3318C16.66 15.2959 16.7049 15.2914 16.7588 15.3183C16.8127 15.3452 16.8396 15.3767 16.8396 15.4126C16.8755 15.4485 16.8845 15.4845 16.8665 15.5204C16.8486 15.5563 16.8127 15.5922 16.7588 15.6282C16.7228 15.6641 16.7049 15.7 16.7049 15.7359C16.7049 15.7719 16.7228 15.8078 16.7588 15.8437C16.8127 15.8437 16.8531 15.8347 16.88 15.8168C16.907 15.7988 16.9204 15.8078 16.9204 15.8437C16.9564 15.8796 16.9788 15.9156 16.9878 15.9515C16.9968 15.9874 17.0192 16.0233 17.0551 16.0592C17.0192 16.0592 17.0013 16.0772 17.0013 16.1131C17.0013 16.1491 17.0013 16.185 17.0013 16.2209V16.4365C16.9653 16.4724 16.9564 16.5218 16.9743 16.5846C16.9923 16.6475 17.0013 16.6969 17.0013 16.7328C17.0731 16.6969 17.1315 16.6475 17.1764 16.5846C17.2213 16.5218 17.2797 16.4724 17.3515 16.4365H17.4324C17.4683 16.4365 17.4862 16.432 17.4862 16.423C17.4862 16.414 17.4862 16.3736 17.4862 16.3017C17.4862 16.2658 17.4862 16.2254 17.4862 16.1805C17.4862 16.1356 17.4683 16.0952 17.4324 16.0592C17.4324 16.0233 17.4279 16.0009 17.4189 15.9919C17.4099 15.9829 17.3874 15.9605 17.3515 15.9245C17.3156 15.8527 17.2707 15.7898 17.2168 15.7359C17.1629 15.682 17.136 15.6012 17.136 15.4934C17.136 15.4575 17.1315 15.4351 17.1225 15.4261C17.1135 15.4171 17.0911 15.4126 17.0551 15.4126C17.0192 15.3767 17.0013 15.3452 17.0013 15.3183C17.0013 15.2914 17.0192 15.2779 17.0551 15.2779C17.0911 15.242 17.118 15.206 17.136 15.1701C17.1539 15.1342 17.1809 15.0983 17.2168 15.0623C17.2527 15.0264 17.2752 14.9905 17.2842 14.9546C17.2931 14.9186 17.3156 14.9007 17.3515 14.9007C17.3515 14.9007 17.365 14.9007 17.3919 14.9007C17.4189 14.9007 17.4324 14.8827 17.4324 14.8468C17.4324 14.739 17.4593 14.6582 17.5132 14.6043C17.5671 14.5504 17.6389 14.4786 17.7287 14.3888C17.7647 14.3528 17.8006 14.3349 17.8365 14.3349C17.8724 14.3349 17.9084 14.3528 17.9443 14.3888C17.9802 14.4247 18.0116 14.4426 18.0386 14.4426C18.0655 14.4426 18.079 14.4247 18.079 14.3888C18.079 14.3528 18.1194 14.3169 18.2002 14.281C18.2811 14.2451 18.3394 14.1912 18.3754 14.1193C18.4831 13.9756 18.5864 13.814 18.6852 13.6343C18.784 13.4547 18.8693 13.2751 18.9412 13.0955C19.013 12.9518 19.0714 12.8171 19.1163 12.6913C19.1612 12.5656 19.2016 12.4129 19.2376 12.2333C19.2376 12.1614 19.2421 12.0851 19.251 12.0043C19.26 11.9234 19.2825 11.8471 19.3184 11.7753C19.3543 11.7034 19.3633 11.645 19.3453 11.6001C19.3274 11.5552 19.3184 11.4968 19.3184 11.425C19.3184 11.3891 19.3004 11.3397 19.2645 11.2768C19.2286 11.2139 19.1927 11.1645 19.1567 11.1286V11.0747C19.1208 10.9849 19.0849 10.94 19.049 10.94C19.013 10.94 18.9771 10.958 18.9412 10.9939L18.8065 11.1286C18.8065 11.1286 18.793 11.1331 18.7661 11.1421C18.7391 11.1511 18.7256 11.1735 18.7256 11.2094V10.9131C18.6897 10.949 18.6717 10.9849 18.6717 11.0208C18.6717 11.0568 18.6717 11.0747 18.6717 11.0747V10.8322H18.4293V10.7783C18.4293 10.7424 18.4427 10.7155 18.4697 10.6975C18.4966 10.6796 18.5101 10.6526 18.5101 10.6167C18.5101 10.5448 18.528 10.491 18.564 10.455C18.5999 10.4191 18.6538 10.4011 18.7256 10.4011C18.7256 10.2934 18.7346 10.217 18.7526 10.1721C18.7705 10.1272 18.8154 10.0868 18.8873 10.0509C18.9591 9.97903 19.031 9.89371 19.1028 9.79492C19.1747 9.69613 19.2465 9.6108 19.3184 9.53896C19.3543 9.50303 19.3947 9.45812 19.4396 9.40424C19.4845 9.35035 19.5429 9.32341 19.6148 9.32341H20.2614C20.2973 9.28748 20.3467 9.26952 20.4096 9.26952C20.4725 9.26952 20.5219 9.28748 20.5578 9.32341H20.6117C20.6476 9.28748 20.6835 9.26503 20.7194 9.25605C20.7554 9.24707 20.7913 9.24258 20.8272 9.24258H20.908C20.944 9.24258 20.9754 9.25605 21.0023 9.28299C21.0293 9.30994 21.0428 9.32341 21.0428 9.32341L20.9889 9.40424V9.45812H21.1236C21.1595 9.45812 21.1954 9.44914 21.2314 9.43118C21.2673 9.41322 21.3032 9.40424 21.3391 9.40424C21.411 9.44016 21.4739 9.43567 21.5277 9.39077C21.5816 9.34586 21.6445 9.32341 21.7163 9.32341C21.6804 9.32341 21.658 9.30994 21.649 9.28299C21.64 9.25605 21.6355 9.24258 21.6355 9.24258C21.5996 9.24258 21.5771 9.22911 21.5682 9.20216C21.5592 9.17522 21.5547 9.14379 21.5547 9.10786C21.5906 9.03601 21.631 8.96416 21.6759 8.89231C21.7208 8.82047 21.7792 8.76658 21.8511 8.73065C21.887 8.73065 21.9094 8.71718 21.9184 8.69024C21.9274 8.6633 21.9319 8.63186 21.9319 8.59594C21.9319 8.56001 21.9454 8.52409 21.9723 8.48816C21.9993 8.45224 22.0307 8.43428 22.0666 8.43428H22.2283C22.2642 8.43428 22.2956 8.42979 22.3226 8.4208C22.3495 8.41183 22.363 8.44326 22.363 8.51511L22.4438 8.43428L22.363 8.73065L22.4438 8.81148L22.4977 8.73065C22.5336 8.69473 22.574 8.64982 22.6189 8.59594C22.6639 8.54205 22.7222 8.51511 22.7941 8.51511V8.29956C22.7941 8.22771 22.8345 8.17832 22.9153 8.15137C22.9962 8.12443 23.0545 8.14688 23.0905 8.21873C23.0186 8.21873 22.9782 8.23669 22.9692 8.27262C22.9602 8.30854 22.9557 8.34447 22.9557 8.38039V8.59594C22.9198 8.63186 22.8929 8.67677 22.8749 8.73065C22.857 8.78454 22.83 8.81148 22.7941 8.81148C22.7582 8.81148 22.7357 8.82496 22.7267 8.8519C22.7177 8.87884 22.6953 8.89231 22.6594 8.89231C22.6594 8.89231 22.6459 8.90579 22.6189 8.93273C22.592 8.95967 22.5785 8.99111 22.5785 9.02703C22.5426 9.09888 22.4932 9.15726 22.4303 9.20216C22.3675 9.24707 22.3181 9.31443 22.2822 9.40424C22.2103 9.51201 22.134 9.60182 22.0531 9.67367C21.9723 9.74552 21.878 9.79941 21.7702 9.83533C21.7702 9.87126 21.7613 9.90718 21.7433 9.94311C21.7253 9.97903 21.7163 10.015 21.7163 10.0509V10.1856C21.7523 10.2215 21.7702 10.2574 21.7702 10.2934C21.7702 10.3293 21.7702 10.3652 21.7702 10.4011C21.7343 10.5448 21.7163 10.693 21.7163 10.8457C21.7163 10.9984 21.7163 11.1466 21.7163 11.2903C21.7163 11.398 21.7074 11.5148 21.6894 11.6405C21.6714 11.7663 21.6984 11.892 21.7702 12.0177C21.8421 11.9279 21.9005 11.8471 21.9454 11.7753C21.9903 11.7034 22.0307 11.6316 22.0666 11.5597C22.0666 11.4879 22.0846 11.434 22.1205 11.398C22.1564 11.3621 22.1923 11.3442 22.2283 11.3442C22.2642 11.3082 22.2822 11.2858 22.2822 11.2768C22.2822 11.2678 22.2822 11.2454 22.2822 11.2094C22.2462 11.0657 22.2462 10.9625 22.2822 10.8996C22.3181 10.8367 22.3899 10.7694 22.4977 10.6975L22.5785 10.6167C22.6145 10.5808 22.6414 10.5493 22.6594 10.5224C22.6773 10.4954 22.7222 10.482 22.7941 10.482H22.8749V10.4011C22.839 10.3293 22.821 10.2844 22.821 10.2664C22.821 10.2485 22.839 10.1946 22.8749 10.1048C22.8749 10.1048 22.8794 10.0958 22.8884 10.0778C22.8974 10.0599 22.9198 10.0509 22.9557 10.0509H22.7941C22.7582 10.0509 22.7267 10.0329 22.6998 9.99699C22.6728 9.96107 22.6773 9.92514 22.7133 9.88922C22.7133 9.85329 22.7267 9.81737 22.7537 9.78144C22.7806 9.74552 22.7941 9.7096 22.7941 9.67367C22.7941 9.63775 22.8076 9.6153 22.8345 9.60631C22.8614 9.59733 22.8749 9.57488 22.8749 9.53896C22.8749 9.50303 22.8884 9.4716 22.9153 9.44465C22.9423 9.41771 22.9557 9.40424 22.9557 9.40424C22.9917 9.31443 23.0276 9.26952 23.0635 9.26952C23.0994 9.26952 23.1354 9.28748 23.1713 9.32341L23.306 9.10786C23.3419 9.17971 23.3779 9.22013 23.4138 9.22911C23.4497 9.23809 23.4856 9.24258 23.5216 9.24258C23.5934 9.17073 23.6653 9.1348 23.7371 9.1348C23.8089 9.1348 23.8808 9.17073 23.9526 9.24258C23.9886 9.20665 24.0425 9.15726 24.1143 9.09439C24.1862 9.03152 24.258 8.98213 24.3299 8.9462C24.4017 8.87435 24.4736 8.82047 24.5454 8.78454C24.6172 8.74862 24.6891 8.71269 24.7609 8.67677C24.8328 8.64084 24.9136 8.60941 25.0034 8.58247C25.0932 8.55552 25.1561 8.48816 25.192 8.38039C25.228 8.38039 25.2639 8.38937 25.2998 8.40733C25.3357 8.4253 25.3717 8.43428 25.4076 8.43428C25.4435 8.43428 25.4794 8.42979 25.5154 8.4208C25.5513 8.41183 25.5692 8.37141 25.5692 8.29956C25.4974 8.29956 25.439 8.26813 25.3941 8.20526C25.3492 8.14239 25.3088 8.07503 25.2729 8.00318C25.2369 7.93134 25.2055 7.87296 25.1786 7.82805C25.1516 7.78315 25.1561 7.72477 25.192 7.65292C25.1561 7.65292 25.1337 7.64843 25.1247 7.63945C25.1157 7.63047 25.0932 7.60802 25.0573 7.57209V7.49126H25.2729C25.3088 7.41941 25.3582 7.38798 25.4211 7.39696C25.4839 7.40594 25.5333 7.39247 25.5692 7.35654C25.8566 7.42839 26.0228 7.45534 26.0677 7.43737C26.1126 7.41941 26.1351 7.39247 26.1351 7.35654C26.0991 7.32062 26.0812 7.28918 26.0812 7.26224C26.0812 7.2353 26.0991 7.22183 26.1351 7.22183C26.171 7.22183 26.1934 7.20835 26.2024 7.18141C26.2114 7.15447 26.2339 7.141 26.2698 7.141C26.2339 7.21284 26.2159 7.27122 26.2159 7.31613C26.2159 7.36103 26.2339 7.40145 26.2698 7.43737C26.3237 7.4733 26.3686 7.48228 26.4045 7.46432C26.4404 7.44635 26.4763 7.43737 26.5123 7.43737C26.5482 7.43737 26.5931 7.45084 26.647 7.47779C26.7009 7.50473 26.7278 7.53617 26.7278 7.57209C26.7278 7.60802 26.7368 7.63047 26.7548 7.63945C26.7727 7.64843 26.7817 7.65292 26.7817 7.65292C26.8176 7.68884 26.8535 7.7113 26.8895 7.72028C26.9254 7.72926 26.9613 7.75171 26.9972 7.78764C27.0332 7.82356 27.0736 7.855 27.1185 7.88194C27.1634 7.90888 27.2038 7.90439 27.2397 7.86847L27.1589 7.78764H27.2397V7.43737L27.4553 7.49126L27.3745 7.43737L27.5092 7.49126L27.6708 7.22183ZM20.7733 27.1869C20.7733 27.1869 20.7599 27.1689 20.7329 27.133C20.706 27.097 20.6925 27.0611 20.6925 27.0252C20.6925 26.9893 20.688 26.9533 20.679 26.9174C20.67 26.8815 20.6476 26.8456 20.6117 26.8096C20.6117 26.8096 20.6117 26.8007 20.6117 26.7827C20.6117 26.7647 20.5937 26.7558 20.5578 26.7558L20.6925 26.6749C20.6925 26.639 20.679 26.6031 20.6521 26.5672C20.6251 26.5312 20.6117 26.5133 20.6117 26.5133C20.5757 26.4773 20.5443 26.4594 20.5174 26.4594C20.4904 26.4594 20.477 26.4594 20.477 26.4594C20.441 26.4235 20.4096 26.3965 20.3827 26.3786C20.3557 26.3606 20.3422 26.3336 20.3422 26.2977C20.3063 26.2618 20.2659 26.2169 20.221 26.163C20.1761 26.1091 20.1357 26.0642 20.0997 26.0283L19.6687 25.8127C19.6327 25.7768 19.5878 25.7499 19.5339 25.7319C19.48 25.714 19.4262 25.687 19.3723 25.6511C19.3364 25.6511 19.3004 25.6466 19.2645 25.6376C19.2286 25.6286 19.1927 25.5882 19.1567 25.5164C19.1208 25.4804 19.0849 25.458 19.049 25.449C19.013 25.44 18.9771 25.4355 18.9412 25.4355C18.9053 25.5074 18.8604 25.5703 18.8065 25.6241C18.7526 25.678 18.7077 25.7409 18.6717 25.8127C18.6358 25.8487 18.5999 25.8621 18.564 25.8532C18.528 25.8442 18.5101 25.8038 18.5101 25.7319C18.5101 25.6601 18.4966 25.5972 18.4697 25.5433C18.4427 25.4894 18.4293 25.4266 18.4293 25.3547C18.4293 25.3188 18.4293 25.2873 18.4293 25.2604C18.4293 25.2335 18.4113 25.22 18.3754 25.22C18.3394 25.1841 18.2901 25.1616 18.2272 25.1526C18.1643 25.1437 18.1149 25.1392 18.079 25.1392C18.0431 25.1392 18.0071 25.1661 17.9712 25.22C17.9353 25.2739 17.8994 25.3188 17.8634 25.3547C17.8994 25.3906 17.9308 25.4176 17.9577 25.4355C17.9847 25.4535 17.9982 25.4804 17.9982 25.5164C17.9982 25.5523 18.0161 25.5792 18.0521 25.5972C18.088 25.6152 18.1239 25.6062 18.1598 25.5703H18.2945L18.3754 25.6511H18.2945C18.2586 25.6511 18.2182 25.6556 18.1733 25.6646C18.1284 25.6735 18.07 25.696 17.9982 25.7319C18.0341 25.7678 18.0565 25.7993 18.0655 25.8262C18.0745 25.8532 18.079 25.8666 18.079 25.8666C18.079 25.8666 18.0925 25.8846 18.1194 25.9205C18.1464 25.9564 18.1598 25.9924 18.1598 26.0283L18.2137 25.9475C18.2496 25.9834 18.2856 26.0058 18.3215 26.0148C18.3574 26.0238 18.3933 26.0463 18.4293 26.0822L18.5101 26.163C18.5819 26.1989 18.6538 26.2214 18.7256 26.2304C18.7975 26.2393 18.8693 26.2618 18.9412 26.2977C18.9771 26.2977 18.9996 26.3157 19.0085 26.3516C19.0175 26.3875 19.022 26.4235 19.022 26.4594C19.022 26.4953 19.0355 26.5312 19.0624 26.5672C19.0894 26.6031 19.1028 26.639 19.1028 26.6749C19.1028 26.7109 19.0984 26.7333 19.0894 26.7423C19.0804 26.7513 19.0579 26.7737 19.022 26.8096C18.9861 26.8096 18.9636 26.8231 18.9547 26.8501C18.9457 26.877 18.9232 26.8905 18.8873 26.8905C18.8514 26.9264 18.8424 26.9578 18.8604 26.9848C18.8783 27.0117 18.9053 27.0072 18.9412 26.9713H19.1567C19.1927 26.9713 19.2196 26.9713 19.2376 26.9713C19.2555 26.9713 19.2825 26.9893 19.3184 27.0252C19.3543 27.0611 19.3768 27.097 19.3857 27.133C19.3947 27.1689 19.4172 27.1869 19.4531 27.1869C19.489 27.1869 19.5384 27.1958 19.6013 27.2138C19.6642 27.2318 19.7136 27.2228 19.7495 27.1869C19.7854 27.1509 19.8079 27.115 19.8168 27.0791C19.8258 27.0432 19.8483 27.0072 19.8842 26.9713C19.9201 26.9354 19.9471 26.9129 19.965 26.904C19.983 26.895 20.0279 26.8905 20.0997 26.8905C20.1716 26.9264 20.2434 26.9803 20.3153 27.0521C20.3871 27.124 20.441 27.2138 20.477 27.3216C20.5129 27.3575 20.5353 27.3934 20.5443 27.4293C20.5533 27.4653 20.5757 27.4832 20.6117 27.4832C20.6476 27.4832 20.688 27.4922 20.7329 27.5102C20.7778 27.5281 20.8362 27.5371 20.908 27.5371H21.0428C21.0428 27.5371 21.0428 27.5281 21.0428 27.5102C21.0428 27.4922 21.0248 27.4832 20.9889 27.4832C20.953 27.4473 20.926 27.3979 20.908 27.335C20.8901 27.2722 20.8452 27.2228 20.7733 27.1869ZM15.6002 25.5164C15.6002 25.4804 15.6137 25.44 15.6406 25.3951C15.6676 25.3502 15.681 25.2918 15.681 25.22C15.681 25.1481 15.6945 25.0943 15.7214 25.0583C15.7484 25.0224 15.7798 25.0044 15.8158 25.0044C15.8517 25.0044 15.8741 24.991 15.8831 24.964C15.8921 24.9371 15.8966 24.9236 15.8966 24.9236C15.8966 24.8877 15.8831 24.8652 15.8562 24.8563C15.8292 24.8473 15.8158 24.8248 15.8158 24.7889C15.8158 24.753 15.8068 24.7305 15.7888 24.7215C15.7708 24.7126 15.7619 24.7081 15.7619 24.7081C15.7619 24.6362 15.7394 24.5778 15.6945 24.5329C15.6496 24.488 15.6451 24.4297 15.681 24.3578C15.681 24.3578 15.6855 24.3398 15.6945 24.3039C15.7035 24.268 15.7259 24.2321 15.7619 24.1961C15.7619 24.1602 15.7708 24.1423 15.7888 24.1423C15.8068 24.1423 15.8158 24.1423 15.8158 24.1423C15.8158 24.1063 15.8292 24.0839 15.8562 24.0749C15.8831 24.0659 15.8966 24.0614 15.8966 24.0614L15.9774 23.9806C15.9774 23.9447 15.9729 23.9222 15.9639 23.9132C15.955 23.9043 15.9325 23.8998 15.8966 23.8998H15.8158C15.7798 23.8998 15.7484 23.8998 15.7214 23.8998C15.6945 23.8998 15.681 23.8818 15.681 23.8459C15.681 23.81 15.6676 23.783 15.6406 23.765C15.6137 23.7471 15.5822 23.7201 15.5463 23.6842C15.5463 23.6842 15.5328 23.7022 15.5059 23.7381C15.479 23.774 15.4655 23.81 15.4655 23.8459C15.4296 23.9177 15.3936 23.9851 15.3577 24.048C15.3218 24.1108 15.2859 24.1602 15.2499 24.1961C15.1781 24.1602 15.1377 24.1467 15.1287 24.1557C15.1197 24.1647 15.1152 24.2051 15.1152 24.277C15.1152 24.3129 15.1018 24.3353 15.0748 24.3443C15.0479 24.3533 15.0344 24.3758 15.0344 24.4117C15.0344 24.4835 15.0164 24.5374 14.9805 24.5733C14.9446 24.6093 14.8907 24.6272 14.8188 24.6272C14.7829 24.6272 14.747 24.6362 14.7111 24.6542C14.6751 24.6721 14.6572 24.717 14.6572 24.7889V24.8697C14.6572 24.9416 14.6527 24.9775 14.6437 24.9775C14.6347 24.9775 14.5943 24.9595 14.5225 24.9236H14.4416C14.4057 24.8877 14.3698 24.8742 14.3339 24.8832C14.2979 24.8922 14.262 24.9326 14.2261 25.0044V25.22C14.2261 25.2559 14.2306 25.2784 14.2396 25.2873C14.2485 25.2963 14.271 25.3188 14.3069 25.3547C14.3069 25.3906 14.3114 25.4266 14.3204 25.4625C14.3294 25.4984 14.3518 25.5164 14.3878 25.5164C14.4237 25.5523 14.4551 25.6017 14.4821 25.6646C14.509 25.7274 14.5225 25.7948 14.5225 25.8666V25.9475C14.5225 25.9834 14.5359 26.0148 14.5629 26.0418C14.5898 26.0687 14.6213 26.0642 14.6572 26.0283H14.738C14.7739 26.0642 14.7964 26.0822 14.8054 26.0822C14.8144 26.0822 14.8368 26.0822 14.8727 26.0822C14.9087 26.0463 14.9581 26.0418 15.0209 26.0687C15.0838 26.0956 15.1332 26.1271 15.1691 26.163C15.205 26.1989 15.232 26.2169 15.2499 26.2169C15.2679 26.2169 15.2948 26.1989 15.3308 26.163C15.4026 26.1271 15.443 26.0867 15.452 26.0418C15.461 25.9969 15.4655 25.9385 15.4655 25.8666C15.5014 25.7589 15.5239 25.6825 15.5328 25.6376C15.5418 25.5927 15.5643 25.5523 15.6002 25.5164ZM5.44256 5.12024V4.95858C5.47848 4.95858 5.50992 4.97655 5.53686 5.01247C5.5638 5.0484 5.57728 5.08432 5.57728 5.12024C5.57728 5.19209 5.59075 5.23251 5.61769 5.24149C5.64463 5.25047 5.65811 5.25496 5.65811 5.25496C5.72995 5.29089 5.8018 5.31334 5.87365 5.32232C5.9455 5.3313 5.99939 5.33579 6.03531 5.33579H6.17003C6.17003 5.29987 6.15656 5.27292 6.12961 5.25496C6.10267 5.237 6.0892 5.21005 6.0892 5.17413C6.05327 5.13821 6.01735 5.10228 5.98143 5.06636C5.9455 5.03043 5.90958 4.96757 5.87365 4.87775C5.83773 4.8059 5.82426 4.74753 5.83324 4.70262C5.84222 4.65772 5.88263 4.59934 5.95448 4.52749V4.44666C5.95448 4.41074 5.96795 4.3793 5.9949 4.35236C6.02184 4.32541 6.03531 4.31194 6.03531 4.31194C6.07124 4.27602 6.0892 4.24907 6.0892 4.23111C6.0892 4.21315 6.07124 4.16825 6.03531 4.0964C6.03531 4.06047 6.03531 4.01108 6.03531 3.94821C6.03531 3.88534 6.05327 3.83594 6.0892 3.80002C6.12512 3.7641 6.17452 3.72817 6.23739 3.69225C6.30026 3.65632 6.34965 3.6204 6.38558 3.58447C6.45743 3.58447 6.5158 3.57998 6.56071 3.571C6.60561 3.56202 6.64603 3.53957 6.68195 3.50364C6.7538 3.39587 6.83912 3.31953 6.93791 3.27462C7.03671 3.22972 7.12203 3.1893 7.19388 3.15338C7.26573 3.11745 7.35105 3.08153 7.44984 3.0456C7.54863 3.00968 7.63395 2.97376 7.7058 2.93783C7.74173 2.90191 7.78663 2.86598 7.84052 2.83006C7.8944 2.79413 7.93931 2.75821 7.97523 2.72228C7.97523 2.72228 7.98422 2.70432 8.00218 2.6684C8.02014 2.63247 8.01116 2.59655 7.97523 2.56063C7.97523 2.5247 7.96625 2.50674 7.94829 2.50674C7.93033 2.50674 7.92135 2.50674 7.92135 2.50674C7.88542 2.50674 7.84501 2.50674 7.8001 2.50674C7.7552 2.50674 7.69682 2.5247 7.62497 2.56063C7.55312 2.59655 7.49025 2.63247 7.43637 2.6684C7.38248 2.70432 7.30165 2.72228 7.19388 2.72228C7.15795 2.83006 7.09059 2.88395 6.9918 2.88395C6.89301 2.88395 6.78973 2.90191 6.68195 2.93783C6.6101 2.97376 6.53826 3.01866 6.46641 3.07255C6.39456 3.12644 6.32271 3.17134 6.25086 3.20727L6.0892 3.36893C6.05327 3.36893 6.03531 3.37342 6.03531 3.3824C6.03531 3.39138 6.03531 3.43179 6.03531 3.50364V3.58447C5.99939 3.58447 5.97694 3.60693 5.96795 3.65183C5.95897 3.69674 5.95448 3.71919 5.95448 3.71919C5.95448 3.75511 5.94101 3.79104 5.91407 3.82696C5.88712 3.86289 5.85569 3.88085 5.81977 3.88085C5.81977 3.88085 5.80629 3.89432 5.77935 3.92126C5.75241 3.94821 5.73894 3.97964 5.73894 4.01557C5.73894 4.08742 5.73445 4.1413 5.72546 4.17723C5.71648 4.21315 5.66709 4.23111 5.57728 4.23111C5.57728 4.30296 5.5638 4.34787 5.53686 4.36583C5.50992 4.38379 5.47848 4.39277 5.44256 4.39277L5.52339 4.52749L5.36173 4.66221C5.28988 4.66221 5.25845 4.68915 5.26743 4.74304C5.27641 4.79692 5.26294 4.84183 5.22701 4.87775H5.36173C5.36173 4.96757 5.35724 5.03043 5.34826 5.06636C5.33928 5.10228 5.37071 5.12024 5.44256 5.12024ZM13.795 26.3786V26.0283C13.795 25.9924 13.8085 25.9654 13.8354 25.9475C13.8624 25.9295 13.8758 25.9026 13.8758 25.8666C13.8758 25.7948 13.8579 25.7364 13.8219 25.6915C13.786 25.6466 13.7501 25.6062 13.7142 25.5703H13.6603C13.6603 25.5703 13.6603 25.5837 13.6603 25.6107C13.6603 25.6376 13.6782 25.6511 13.7142 25.6511L13.795 25.7319C13.7591 25.7319 13.7276 25.7274 13.7007 25.7184C13.6738 25.7095 13.6603 25.687 13.6603 25.6511C13.6244 25.6152 13.5974 25.5792 13.5795 25.5433C13.5615 25.5074 13.5345 25.4715 13.4986 25.4355H13.4447C13.4088 25.4355 13.3864 25.4221 13.3774 25.3951C13.3684 25.3682 13.3639 25.3367 13.3639 25.3008V25.1392C13.328 25.1032 13.301 25.0673 13.2831 25.0314C13.2651 24.9955 13.2382 24.9595 13.2022 24.9236C13.1663 24.8877 13.1214 24.8518 13.0675 24.8158C13.0136 24.7799 12.9687 24.744 12.9328 24.7081C12.8969 24.7081 12.8699 24.6946 12.852 24.6677C12.834 24.6407 12.8071 24.6093 12.7712 24.5733C12.7352 24.5374 12.7128 24.5015 12.7038 24.4656C12.6948 24.4297 12.6724 24.3937 12.6364 24.3578C12.6005 24.3219 12.5781 24.286 12.5691 24.25C12.5601 24.2141 12.5287 24.1782 12.4748 24.1423C12.4748 24.1063 12.4613 24.0794 12.4344 24.0614C12.4074 24.0435 12.376 24.0165 12.3401 23.9806C12.3041 23.9447 12.2547 23.9222 12.1919 23.9132C12.129 23.9043 12.0796 23.8998 12.0437 23.8998V23.9806C12.0796 24.0165 12.1065 24.0659 12.1245 24.1288C12.1425 24.1917 12.1694 24.241 12.2053 24.277C12.2413 24.3129 12.2727 24.3533 12.2996 24.3982C12.3266 24.4431 12.3401 24.5015 12.3401 24.5733C12.3401 24.5733 12.3445 24.5823 12.3535 24.6003C12.3625 24.6183 12.385 24.6272 12.4209 24.6272C12.4927 24.6632 12.5332 24.717 12.5421 24.7889C12.5511 24.8607 12.5556 24.9326 12.5556 25.0044C12.5556 25.0404 12.5691 25.0628 12.596 25.0718C12.623 25.0808 12.6364 25.1032 12.6364 25.1392C12.6724 25.1751 12.7038 25.2155 12.7307 25.2604C12.7577 25.3053 12.7712 25.3637 12.7712 25.4355C12.8071 25.5433 12.8565 25.6511 12.9193 25.7589C12.9822 25.8666 13.0316 25.9564 13.0675 26.0283C13.1035 26.1361 13.1529 26.2259 13.2157 26.2977C13.2786 26.3696 13.3549 26.4414 13.4447 26.5133H13.6603C13.7321 26.4773 13.7725 26.4459 13.7815 26.419C13.7905 26.392 13.795 26.3786 13.795 26.3786ZM19.3184 15.7898C19.2825 15.8617 19.2555 15.929 19.2376 15.9919C19.2196 16.0548 19.1747 16.1042 19.1028 16.1401C19.0669 16.176 19.031 16.1895 18.9951 16.1805C18.9591 16.1715 18.9412 16.1311 18.9412 16.0592C18.9412 16.0952 18.9322 16.1311 18.9142 16.167C18.8963 16.2029 18.8873 16.2209 18.8873 16.2209C18.8873 16.2568 18.8828 16.2793 18.8738 16.2883C18.8648 16.2972 18.8424 16.3197 18.8065 16.3556C18.8065 16.3915 18.793 16.4185 18.7661 16.4365C18.7391 16.4544 18.7256 16.4814 18.7256 16.5173C18.7256 16.5532 18.7167 16.5712 18.6987 16.5712C18.6807 16.5712 18.6717 16.5712 18.6717 16.5712C18.6358 16.5352 18.6089 16.5263 18.5909 16.5442C18.573 16.5622 18.546 16.5712 18.5101 16.5712H18.2945C18.2586 16.5712 18.2362 16.5757 18.2272 16.5846C18.2182 16.5936 18.2137 16.6161 18.2137 16.652L17.9982 16.8675C17.9622 16.9035 17.9443 16.9259 17.9443 16.9349C17.9443 16.9439 17.9622 16.9663 17.9982 17.0023C18.0341 17.0023 18.07 17.0023 18.1059 17.0023C18.1419 17.0023 18.1778 16.9843 18.2137 16.9484C18.2496 16.9125 18.3035 16.8765 18.3754 16.8406C18.4472 16.8047 18.5191 16.7867 18.5909 16.7867C18.6628 16.7867 18.7032 16.7957 18.7122 16.8137C18.7211 16.8316 18.7256 16.8765 18.7256 16.9484V17.0023H18.8873C18.9232 16.9663 18.9502 16.9304 18.9681 16.8945C18.9861 16.8586 18.9771 16.8047 18.9412 16.7328L19.1028 16.8675C19.1388 16.8316 19.1747 16.8092 19.2106 16.8002C19.2465 16.7912 19.2825 16.7688 19.3184 16.7328C19.3543 16.6969 19.3902 16.6475 19.4262 16.5846C19.4621 16.5218 19.498 16.4724 19.5339 16.4365C19.5699 16.4005 19.5923 16.3466 19.6013 16.2748C19.6103 16.2029 19.6148 16.1131 19.6148 16.0054C19.6148 15.9694 19.6148 15.9335 19.6148 15.8976C19.6148 15.8617 19.6327 15.8257 19.6687 15.7898C19.7046 15.7539 19.727 15.718 19.736 15.682C19.745 15.6461 19.7495 15.6102 19.7495 15.5743C19.7495 15.5383 19.736 15.462 19.7091 15.3452C19.6821 15.2285 19.6687 15.1342 19.6687 15.0623C19.5968 15.0623 19.5339 15.0938 19.48 15.1566C19.4262 15.2195 19.4172 15.3048 19.4531 15.4126C19.4531 15.4845 19.4396 15.5473 19.4127 15.6012C19.3857 15.6551 19.3543 15.718 19.3184 15.7898ZM15.9774 25.9475C16.0133 25.9475 16.0358 25.9609 16.0448 25.9879C16.0538 26.0148 16.0582 26.0463 16.0582 26.0822V26.4594C16.0942 26.4235 16.1256 26.3875 16.1525 26.3516C16.1795 26.3157 16.193 26.2798 16.193 26.2438V25.8666L16.2738 25.8127C16.2738 25.8127 16.2828 25.8262 16.3007 25.8532C16.3187 25.8801 16.3277 25.9115 16.3277 25.9475V26.0283C16.3277 26.0642 16.3411 26.1001 16.3681 26.1361C16.395 26.172 16.4085 26.2079 16.4085 26.2438H16.4893C16.5612 26.2079 16.5971 26.181 16.5971 26.163C16.5971 26.145 16.5791 26.1001 16.5432 26.0283V25.9475C16.5432 25.9115 16.5432 25.8756 16.5432 25.8397C16.5432 25.8038 16.5253 25.7678 16.4893 25.7319C16.4534 25.696 16.4354 25.669 16.4354 25.6511C16.4354 25.6331 16.4534 25.6062 16.4893 25.5703C16.5253 25.5343 16.5567 25.5119 16.5836 25.5029C16.6106 25.4939 16.6241 25.4715 16.6241 25.4355V25.3547H16.5432C16.5073 25.3547 16.4624 25.3727 16.4085 25.4086C16.3546 25.4445 16.3277 25.4804 16.3277 25.5164C16.2918 25.5523 16.2693 25.5703 16.2603 25.5703C16.2513 25.5703 16.2289 25.5523 16.193 25.5164C16.157 25.4445 16.1436 25.3727 16.1525 25.3008C16.1615 25.229 16.2019 25.1751 16.2738 25.1392C16.3456 25.1032 16.4175 25.0853 16.4893 25.0853C16.5612 25.0853 16.633 25.1032 16.7049 25.1392H16.8396C16.8755 25.1032 16.9025 25.0673 16.9204 25.0314C16.9384 24.9955 16.9653 24.9595 17.0013 24.9236C17.0013 24.9236 16.9878 24.9281 16.9608 24.9371C16.9339 24.9461 16.9204 24.9685 16.9204 25.0044C16.8486 25.0763 16.7767 25.1167 16.7049 25.1257C16.633 25.1347 16.5612 25.1212 16.4893 25.0853C16.4534 25.0853 16.4175 25.0763 16.3816 25.0583C16.3456 25.0404 16.3097 25.0493 16.2738 25.0853C16.2379 25.1212 16.2019 25.1437 16.166 25.1526C16.1301 25.1616 16.1121 25.1841 16.1121 25.22L15.8966 25.9475C15.8966 25.9115 15.9011 25.9026 15.9101 25.9205C15.919 25.9385 15.9415 25.9475 15.9774 25.9475ZM19.3184 3.50364C19.3184 3.50364 19.3274 3.49466 19.3453 3.4767C19.3633 3.45874 19.3723 3.46772 19.3723 3.50364C19.4262 3.53957 19.4666 3.54855 19.4935 3.53059C19.5205 3.51262 19.5339 3.50364 19.5339 3.50364H19.6687C19.7405 3.50364 19.7809 3.49915 19.7899 3.49017C19.7989 3.48119 19.7854 3.44077 19.7495 3.36893V3.2881C19.7495 3.2881 19.754 3.27462 19.763 3.24768C19.7719 3.22074 19.7944 3.20727 19.8303 3.20727L19.8842 3.2881C19.8842 3.35995 19.9022 3.41383 19.9381 3.44976C19.974 3.48568 20.0279 3.50364 20.0997 3.50364C20.0997 3.50364 20.1132 3.50364 20.1402 3.50364C20.1671 3.50364 20.1806 3.48568 20.1806 3.44976C20.1806 3.41383 20.194 3.37791 20.221 3.34198C20.2479 3.30606 20.2614 3.2881 20.2614 3.2881V3.20727C20.2614 3.17134 20.221 3.13093 20.1402 3.08602C20.0593 3.04111 20.001 3.03662 19.965 3.07255C19.9291 3.10847 19.8797 3.13093 19.8168 3.13991C19.754 3.14889 19.7046 3.15338 19.6687 3.15338H19.6148C19.5788 3.1893 19.5519 3.19828 19.5339 3.18032C19.516 3.16236 19.489 3.15338 19.4531 3.15338C19.4351 3.13542 19.4127 3.12194 19.3857 3.11296C19.3588 3.10398 19.3364 3.09949 19.3184 3.09949C19.2825 3.09949 19.251 3.10398 19.2241 3.11296C19.1971 3.12194 19.1747 3.13542 19.1567 3.15338C19.1208 3.1893 19.1028 3.22972 19.1028 3.27462C19.1028 3.31953 19.1028 3.37791 19.1028 3.44976C19.1028 3.48568 19.1028 3.51711 19.1028 3.54406C19.1028 3.571 19.1208 3.58447 19.1567 3.58447C19.1567 3.58447 19.1747 3.57998 19.2106 3.571C19.2465 3.56202 19.2825 3.53957 19.3184 3.50364ZM19.5339 14.5504C19.5339 14.5504 19.5339 14.5594 19.5339 14.5774C19.5339 14.5953 19.5339 14.5863 19.5339 14.5504C19.498 14.5863 19.4756 14.6178 19.4666 14.6447C19.4576 14.6717 19.4531 14.6851 19.4531 14.6851V14.766C19.4531 14.8019 19.4576 14.8378 19.4666 14.8737C19.4756 14.9097 19.498 14.9456 19.5339 14.9815L19.6687 14.9007L19.5339 14.766C19.6058 14.766 19.6776 14.7615 19.7495 14.7525C19.8213 14.7435 19.8932 14.7929 19.965 14.9007C19.965 14.8648 19.9695 14.8423 19.9785 14.8333C19.9875 14.8243 20.0099 14.8019 20.0459 14.766C20.0459 14.6941 20.0728 14.6537 20.1267 14.6447C20.1806 14.6357 20.2255 14.6313 20.2614 14.6313C20.2973 14.6313 20.3198 14.6268 20.3288 14.6178C20.3377 14.6088 20.3602 14.5863 20.3961 14.5504C20.3961 14.5145 20.4006 14.4876 20.4096 14.4696C20.4186 14.4516 20.441 14.4247 20.477 14.3888L20.6117 14.254H20.3961C20.3243 14.29 20.2659 14.2945 20.221 14.2675C20.1761 14.2406 20.1357 14.2091 20.0997 14.1732C20.0638 14.1373 20.0324 14.1014 20.0054 14.0654C19.9785 14.0295 19.965 13.9936 19.965 13.9577H19.8842L19.8303 14.0385C19.8662 14.0744 19.8752 14.1238 19.8573 14.1867C19.8393 14.2496 19.8303 14.2989 19.8303 14.3349C19.7585 14.3708 19.7091 14.4247 19.6821 14.4965C19.6552 14.5684 19.6058 14.5863 19.5339 14.5504ZM12.3401 0.970966H12.2592C12.1515 1.00689 12.0931 1.03832 12.0841 1.06527C12.0751 1.09221 12.0886 1.15957 12.1245 1.26734C12.1604 1.30327 12.1964 1.34817 12.2323 1.40206C12.2682 1.45595 12.3041 1.48289 12.3401 1.48289C12.376 1.51881 12.4299 1.5278 12.5017 1.50983C12.5736 1.49187 12.6454 1.50983 12.7173 1.56372H12.852C12.8879 1.56372 12.9059 1.54576 12.9059 1.50983C12.9059 1.47391 12.8879 1.43798 12.852 1.40206V1.32123C12.852 1.28531 12.8655 1.26285 12.8924 1.25387C12.9193 1.24489 12.9328 1.22244 12.9328 1.18651C12.9328 1.15059 12.9283 1.11466 12.9193 1.07874C12.9104 1.04282 12.8879 1.00689 12.852 0.970966C12.8161 0.970966 12.7846 0.966476 12.7577 0.957495C12.7307 0.948513 12.7173 0.979948 12.7173 1.0518C12.7173 1.0518 12.7038 1.04731 12.6769 1.03832C12.6499 1.02934 12.6364 1.00689 12.6364 0.970966C12.6185 0.953005 12.596 0.939533 12.5691 0.930552C12.5421 0.92157 12.5107 0.91708 12.4748 0.91708C12.4568 0.91708 12.4344 0.92157 12.4074 0.930552C12.3805 0.939533 12.358 0.953005 12.3401 0.970966ZM12.852 1.99481C12.852 1.99481 12.852 2.0038 12.852 2.02176C12.852 2.03972 12.852 2.03074 12.852 1.99481C12.9957 1.99481 13.1394 1.97685 13.2831 1.94093C13.4268 1.905 13.5525 1.86908 13.6603 1.83315C13.6962 1.83315 13.7187 1.82417 13.7276 1.80621C13.7366 1.78825 13.7591 1.77927 13.795 1.77927V1.69844C13.795 1.69844 13.7905 1.68497 13.7815 1.65802C13.7725 1.63108 13.7501 1.61761 13.7142 1.61761C13.6782 1.61761 13.6423 1.61761 13.6064 1.61761C13.5705 1.61761 13.5345 1.59965 13.4986 1.56372C13.4627 1.50983 13.4268 1.48289 13.3909 1.48289C13.3549 1.48289 13.319 1.50983 13.2831 1.56372V1.48289L13.0675 1.40206C13.0675 1.43798 13.063 1.48289 13.0541 1.53678C13.0451 1.59066 13.0226 1.61761 12.9867 1.61761V1.69844C12.9867 1.73436 12.9777 1.77029 12.9598 1.80621C12.9418 1.84213 12.9328 1.87806 12.9328 1.91398C12.8969 1.91398 12.8744 1.92746 12.8655 1.9544C12.8565 1.98134 12.852 1.99481 12.852 1.99481ZM17.0551 22.9029C17.0192 22.9388 17.0013 22.9612 17.0013 22.9702C17.0013 22.9792 17.0013 23.0017 17.0013 23.0376C17.0013 23.0735 16.9878 23.1004 16.9608 23.1184C16.9339 23.1364 16.9204 23.1633 16.9204 23.1992C16.8845 23.1992 16.8621 23.2082 16.8531 23.2262C16.8441 23.2441 16.8127 23.2531 16.7588 23.2531C16.7588 23.2531 16.7498 23.2531 16.7318 23.2531C16.7139 23.2531 16.7049 23.2352 16.7049 23.1992C16.669 23.1633 16.642 23.1543 16.6241 23.1723C16.6061 23.1903 16.5791 23.1992 16.5432 23.1992C16.5073 23.1992 16.4848 23.2127 16.4759 23.2397C16.4669 23.2666 16.4444 23.298 16.4085 23.334C16.3726 23.3699 16.3501 23.4058 16.3411 23.4417C16.3322 23.4777 16.3277 23.5136 16.3277 23.5495C16.3636 23.5136 16.3995 23.4911 16.4354 23.4821C16.4714 23.4732 16.5073 23.4507 16.5432 23.4148C16.5791 23.3789 16.6016 23.3699 16.6106 23.3878C16.6196 23.4058 16.6241 23.4327 16.6241 23.4687V23.5495C16.6241 23.6573 16.6555 23.7336 16.7184 23.7785C16.7812 23.8234 16.8486 23.8638 16.9204 23.8998V23.6842C16.9204 23.6483 16.9249 23.6169 16.9339 23.5899C16.9429 23.563 16.9653 23.5495 17.0013 23.5495C17.0372 23.5495 17.0686 23.536 17.0956 23.5091C17.1225 23.4821 17.136 23.4507 17.136 23.4148C17.136 23.3789 17.1405 23.3115 17.1494 23.2127C17.1584 23.1139 17.127 23.0106 17.0551 22.9029ZM16.193 21.3671H16.1121C16.1121 21.4389 16.1256 21.4973 16.1525 21.5422C16.1795 21.5871 16.193 21.6275 16.193 21.6635C16.193 21.6994 16.2064 21.7218 16.2334 21.7308C16.2603 21.7398 16.2738 21.7623 16.2738 21.7982C16.2738 21.87 16.2783 21.9149 16.2873 21.9329C16.2962 21.9509 16.3367 21.9598 16.4085 21.9598H16.4893C16.5253 21.9598 16.5567 21.9688 16.5836 21.9868C16.6106 22.0047 16.6241 22.0137 16.6241 22.0137L16.5432 21.879H16.4893C16.4534 21.7353 16.4354 21.641 16.4354 21.5961C16.4354 21.5512 16.4714 21.4749 16.5432 21.3671C16.5432 21.3312 16.5567 21.2997 16.5836 21.2728C16.6106 21.2458 16.6241 21.2324 16.6241 21.2324C16.6241 21.1964 16.6196 21.1471 16.6106 21.0842C16.6016 21.0213 16.5791 20.9719 16.5432 20.936H16.4085C16.3367 20.9001 16.2962 20.8956 16.2873 20.9225C16.2783 20.9495 16.2738 20.9989 16.2738 21.0707C16.2379 21.1066 16.2154 21.1471 16.2064 21.192C16.1974 21.2369 16.193 21.2952 16.193 21.3671ZM14.6572 26.6749C14.6572 26.6749 14.6482 26.6749 14.6302 26.6749C14.6123 26.6749 14.6213 26.6749 14.6572 26.6749C14.5853 26.7109 14.5315 26.7153 14.4955 26.6884C14.4596 26.6615 14.4237 26.63 14.3878 26.5941C14.3518 26.5941 14.3249 26.5806 14.3069 26.5537C14.289 26.5267 14.262 26.4953 14.2261 26.4594C14.1902 26.4594 14.1542 26.4459 14.1183 26.419C14.0824 26.392 14.0465 26.3786 14.0105 26.3786C13.9746 26.3786 13.9522 26.392 13.9432 26.419C13.9342 26.4459 13.9118 26.4773 13.8758 26.5133V26.5941C13.8758 26.5941 13.8848 26.5986 13.9028 26.6076C13.9207 26.6166 13.9297 26.639 13.9297 26.6749H14.0105C14.0465 26.7109 14.0959 26.7423 14.1587 26.7692C14.2216 26.7962 14.271 26.8096 14.3069 26.8096C14.3428 26.7737 14.3788 26.7647 14.4147 26.7827C14.4506 26.8007 14.4865 26.8096 14.5225 26.8096H14.6033C14.7111 26.8096 14.8144 26.7917 14.9131 26.7558C15.0119 26.7198 15.0973 26.666 15.1691 26.5941H15.1152C14.9895 26.666 14.8907 26.7064 14.8188 26.7153C14.747 26.7243 14.6931 26.7109 14.6572 26.6749ZM19.8842 12.9608C19.8842 12.9248 19.8887 12.8889 19.8977 12.853C19.9067 12.8171 19.9291 12.7991 19.965 12.7991C19.9291 12.5836 19.8977 12.3815 19.8707 12.1929C19.8438 12.0043 19.7764 11.8202 19.6687 11.6405V12.1525C19.6687 12.2243 19.6776 12.2962 19.6956 12.368C19.7136 12.4399 19.7046 12.5117 19.6687 12.5836V13.7421C19.6687 13.7421 19.6731 13.7331 19.6821 13.7152C19.6911 13.6972 19.7136 13.6882 19.7495 13.6882L19.8303 13.6074L19.8842 13.6882C19.8842 13.6882 19.8887 13.6972 19.8977 13.7152C19.9067 13.7331 19.9291 13.7421 19.965 13.7421H20.0459C20.0459 13.7062 20.0414 13.6748 20.0324 13.6478C20.0234 13.6209 20.001 13.6074 19.965 13.6074C19.8932 13.5356 19.8528 13.4637 19.8438 13.3919C19.8348 13.32 19.8303 13.2482 19.8303 13.1763C19.8662 13.1404 19.8842 13.1045 19.8842 13.0685C19.8842 13.0326 19.8842 12.9967 19.8842 12.9608ZM11.6126 1.0518C11.6485 1.08772 11.671 1.11017 11.6799 1.11916C11.6889 1.12814 11.6934 1.15059 11.6934 1.18651C11.7293 1.22244 11.7742 1.22693 11.8281 1.19999C11.882 1.17304 11.909 1.14161 11.909 1.10568C11.9808 1.03383 12.0257 0.99342 12.0437 0.984438C12.0616 0.975458 12.0886 0.970966 12.1245 0.970966C12.1604 0.970966 12.1964 0.957495 12.2323 0.930552C12.2682 0.903608 12.3041 0.890137 12.3401 0.890137C12.3401 0.890137 12.3535 0.890137 12.3805 0.890137C12.4074 0.890137 12.4209 0.872175 12.4209 0.83625C12.3131 0.872175 12.2368 0.872175 12.1919 0.83625C12.147 0.800325 12.1245 0.719496 12.1245 0.59376L11.8281 0.539873C11.8641 0.575798 11.882 0.611721 11.882 0.647646C11.882 0.683571 11.8641 0.719496 11.8281 0.755421L11.7742 0.83625C11.7742 0.872175 11.7742 0.894627 11.7742 0.903608C11.7742 0.91259 11.7922 0.935041 11.8281 0.970966L11.909 1.0518H11.7742C11.7742 1.01587 11.7563 0.99791 11.7204 0.99791C11.6844 0.99791 11.6485 1.01587 11.6126 1.0518ZM9.80738 23.2531C9.80738 23.325 9.81187 23.3968 9.82085 23.4687C9.82984 23.5405 9.87025 23.5944 9.9421 23.6303L10.0229 23.6842C10.1307 23.5405 10.1711 23.3968 10.1442 23.2531C10.1172 23.1094 10.0229 22.9657 9.86127 22.822C9.82535 22.9298 9.80738 23.0106 9.80738 23.0645C9.80738 23.1184 9.80738 23.1813 9.80738 23.2531ZM17.7826 17.3795L17.8634 17.2448V17.6758C17.8634 17.6758 17.8679 17.6848 17.8769 17.7028C17.8859 17.7208 17.9084 17.7297 17.9443 17.7297C17.9443 17.7297 17.9443 17.7208 17.9443 17.7028C17.9443 17.6848 17.9622 17.6758 17.9982 17.6758C18.0341 17.6399 18.061 17.586 18.079 17.5142C18.097 17.4423 18.1239 17.3705 18.1598 17.2986V17.1639C18.1239 17.128 18.097 17.0921 18.079 17.0562C18.061 17.0202 18.0341 17.0023 17.9982 17.0023C17.8904 17.0921 17.8185 17.1594 17.7826 17.2043C17.7467 17.2492 17.7467 17.3076 17.7826 17.3795ZM21.1236 3.58447L21.2044 3.50364L21.1236 3.44976C21.0517 3.44976 20.9934 3.43628 20.9485 3.40934C20.9036 3.3824 20.8452 3.36893 20.7733 3.36893C20.7374 3.36893 20.7015 3.36444 20.6656 3.35545C20.6296 3.34647 20.5937 3.29708 20.5578 3.20727L20.3961 3.44976C20.5039 3.48568 20.6117 3.51711 20.7194 3.54406C20.8272 3.571 20.935 3.58447 21.0428 3.58447H21.1236ZM16.4893 22.3909C16.4534 22.4269 16.431 22.4673 16.422 22.5122C16.413 22.5571 16.4085 22.6155 16.4085 22.6873H16.5432V22.9567C16.5432 22.9567 16.5477 22.9702 16.5567 22.9972C16.5657 23.0241 16.5881 23.0376 16.6241 23.0376C16.6241 23.0376 16.6375 23.0331 16.6645 23.0241C16.6914 23.0151 16.7049 22.9927 16.7049 22.9567C16.7408 22.9208 16.7588 22.8849 16.7588 22.849C16.7588 22.8131 16.7588 22.7592 16.7588 22.6873V22.6065C16.7588 22.5706 16.7498 22.5391 16.7318 22.5122C16.7139 22.4852 16.7049 22.4718 16.7049 22.4718C16.669 22.4718 16.633 22.4673 16.5971 22.4583C16.5612 22.4493 16.5253 22.4269 16.4893 22.3909ZM21.2044 26.3786C21.1685 26.4145 21.1191 26.4369 21.0562 26.4459C20.9934 26.4549 20.944 26.4594 20.908 26.4594H20.7733C20.8093 26.5312 20.8587 26.5851 20.9215 26.621C20.9844 26.657 21.0517 26.6749 21.1236 26.6749C21.1954 26.639 21.2628 26.5761 21.3257 26.4863C21.3885 26.3965 21.42 26.3157 21.42 26.2438L21.3391 26.2977C21.3032 26.2977 21.2808 26.3022 21.2718 26.3112C21.2628 26.3202 21.2403 26.3426 21.2044 26.3786ZM20.0459 4.17723C19.974 4.05149 19.8887 3.97964 19.7899 3.96168C19.6911 3.94372 19.6058 4.01557 19.5339 4.17723C19.6058 4.21315 19.6776 4.2401 19.7495 4.25806C19.8213 4.27602 19.8932 4.26704 19.965 4.23111C20.001 4.23111 20.0234 4.22213 20.0324 4.20417C20.0414 4.18621 20.0459 4.17723 20.0459 4.17723ZM6.25086 0.539873V0.459044C6.25086 0.459044 6.24637 0.445572 6.23739 0.418629C6.22841 0.391684 6.20595 0.378212 6.17003 0.378212C6.1341 0.378212 6.08471 0.369232 6.02184 0.351269C5.95897 0.333307 5.90958 0.324326 5.87365 0.324326H5.81977C5.85569 0.396175 5.84671 0.44108 5.79282 0.459044C5.73894 0.477005 5.69403 0.503948 5.65811 0.539873C5.72995 0.611721 5.82875 0.647646 5.95448 0.647646C6.08022 0.647646 6.17901 0.611721 6.25086 0.539873ZM1.15856 15.1971C1.19449 15.1611 1.23041 15.1387 1.26634 15.1297C1.30226 15.1207 1.33819 15.1162 1.37411 15.1162H1.45494C1.41902 15.0803 1.39656 15.0444 1.38758 15.0085C1.3786 14.9725 1.35615 14.9366 1.32022 14.9007H1.07773C1.07773 14.9725 1.06875 15.0354 1.05079 15.0893C1.03283 15.1432 1.02385 15.206 1.02385 15.2779C1.05977 15.2779 1.09121 15.2734 1.11815 15.2644C1.14509 15.2554 1.15856 15.233 1.15856 15.1971ZM4.79592 0.890137C4.83184 0.890137 4.86777 0.867683 4.90369 0.822779C4.93962 0.777872 4.97554 0.755421 5.01147 0.755421C5.01147 0.755421 5.02494 0.750929 5.05188 0.741947C5.07882 0.732967 5.0923 0.710514 5.0923 0.674589H5.22701V0.59376H5.14618C5.11026 0.59376 5.06535 0.607231 5.01147 0.634174C4.95758 0.661118 4.91267 0.674589 4.87675 0.674589C4.84082 0.674589 4.79143 0.688061 4.72856 0.715004C4.66569 0.741947 4.6163 0.755421 4.58037 0.755421V0.83625C4.6163 0.872175 4.65222 0.890137 4.68814 0.890137C4.72407 0.890137 4.75999 0.890137 4.79592 0.890137ZM16.2738 19.993L16.4893 19.3463C16.4893 19.3104 16.4848 19.279 16.4759 19.252C16.4669 19.2251 16.4444 19.2296 16.4085 19.2655C16.3726 19.3014 16.3411 19.3508 16.3142 19.4137C16.2873 19.4766 16.2918 19.526 16.3277 19.5619C16.3636 19.5978 16.3726 19.6337 16.3546 19.6697C16.3367 19.7056 16.3277 19.7415 16.3277 19.7774C16.2558 19.8134 16.2199 19.8493 16.2199 19.8852C16.2199 19.9211 16.2379 19.9571 16.2738 19.993ZM25.9195 5.33579H26.0003C26.0363 5.33579 26.0722 5.32232 26.1081 5.29538C26.144 5.26843 26.18 5.25496 26.2159 5.25496H26.4314C26.4314 5.25496 26.4269 5.24149 26.418 5.21455C26.409 5.1876 26.3865 5.17413 26.3506 5.17413C26.2788 5.10228 26.1845 5.07983 26.0677 5.10677C25.9509 5.13372 25.8566 5.18311 25.7848 5.25496V5.33579H25.9195ZM14.5225 20.7204C14.5584 20.6845 14.5898 20.6441 14.6168 20.5992C14.6437 20.5543 14.6572 20.4959 14.6572 20.4241H14.4416C14.4057 20.4241 14.3653 20.4645 14.3204 20.5453C14.2755 20.6261 14.271 20.6845 14.3069 20.7204C14.3069 20.7564 14.3204 20.7788 14.3473 20.7878C14.3743 20.7968 14.3878 20.8013 14.3878 20.8013C14.4237 20.8013 14.4551 20.7968 14.4821 20.7878C14.509 20.7788 14.5225 20.7564 14.5225 20.7204ZM17.0013 27.106C16.9653 27.106 16.9384 27.1195 16.9204 27.1464C16.9025 27.1734 16.8755 27.2048 16.8396 27.2407C16.8037 27.2407 16.7722 27.2587 16.7453 27.2946C16.7184 27.3306 16.7049 27.3934 16.7049 27.4832C16.7049 27.5192 16.7139 27.5371 16.7318 27.5371C16.7498 27.5371 16.7588 27.5371 16.7588 27.5371C16.8127 27.5371 16.8441 27.5236 16.8531 27.4967C16.8621 27.4698 16.8845 27.4383 16.9204 27.4024C16.9564 27.3665 16.9788 27.3306 16.9878 27.2946C16.9968 27.2587 17.0192 27.2407 17.0551 27.2407C17.0911 27.2407 17.127 27.2273 17.1629 27.2003C17.1988 27.1734 17.2348 27.1419 17.2707 27.106V27.0252C17.2348 27.0252 17.1899 27.0387 17.136 27.0656C17.0821 27.0926 17.0372 27.106 17.0013 27.106ZM6.25086 0.755421C6.21493 0.755421 6.17901 0.768892 6.14309 0.795835C6.10716 0.822779 6.07124 0.83625 6.03531 0.83625L5.95448 0.890137L6.03531 0.970966C6.07124 0.970966 6.11614 0.966476 6.17003 0.957495C6.22392 0.948513 6.26882 0.926062 6.30475 0.890137C6.30475 0.890137 6.31822 0.890137 6.34516 0.890137C6.3721 0.890137 6.38558 0.872175 6.38558 0.83625C6.38558 0.83625 6.39905 0.831758 6.42599 0.822779C6.45293 0.813797 6.46641 0.791344 6.46641 0.755421V0.674589C6.43048 0.710514 6.39456 0.723986 6.35863 0.715004C6.32271 0.706024 6.28678 0.719496 6.25086 0.755421ZM7.03222 0.59376C6.92444 0.450062 6.83463 0.400665 6.76278 0.445572C6.69093 0.490477 6.61909 0.566816 6.54724 0.674589C6.61909 0.710514 6.69992 0.728476 6.78973 0.728476C6.87954 0.728476 6.96037 0.683571 7.03222 0.59376ZM0.215547 10.9131C0.215547 10.949 0.202075 10.9849 0.175132 11.0208C0.148188 11.0568 0.134717 11.0927 0.134717 11.1286C0.0628678 11.0927 0.0224528 11.0747 0.0134717 11.0747C0.00449056 11.0747 0 11.0927 0 11.1286C0.071849 11.1286 0.143698 11.1331 0.215547 11.1421C0.287396 11.1511 0.359245 11.1735 0.431094 11.2094C0.431094 11.2094 0.444565 11.205 0.471509 11.196C0.498452 11.187 0.511924 11.1645 0.511924 11.1286V10.9939C0.475999 10.958 0.426603 10.9355 0.363735 10.9265C0.300868 10.9176 0.251471 10.9131 0.215547 10.9131ZM18.2945 17.0023C18.2227 17.0023 18.1823 17.0337 18.1733 17.0966C18.1643 17.1594 18.1598 17.2268 18.1598 17.2986C18.1598 17.2986 18.1598 17.3121 18.1598 17.3391C18.1598 17.366 18.1778 17.3795 18.2137 17.3795L18.2945 17.2986C18.2945 17.2627 18.308 17.2403 18.335 17.2313C18.3619 17.2223 18.3754 17.1999 18.3754 17.1639C18.4472 17.1999 18.4876 17.1954 18.4966 17.1505C18.5056 17.1055 18.5101 17.0562 18.5101 17.0023V16.8675H18.3754C18.3754 16.9035 18.3709 16.9349 18.3619 16.9619C18.3529 16.9888 18.3305 17.0023 18.2945 17.0023ZM17.5671 25.0044V24.8697C17.5311 24.8697 17.5087 24.8563 17.4997 24.8293C17.4907 24.8024 17.4862 24.7889 17.4862 24.7889C17.4862 24.7889 17.4862 24.7754 17.4862 24.7485C17.4862 24.7215 17.4683 24.7081 17.4324 24.7081C17.4324 24.7081 17.4189 24.7126 17.3919 24.7215C17.365 24.7305 17.3515 24.753 17.3515 24.7889C17.3156 24.8607 17.3111 24.9461 17.3381 25.0449C17.365 25.1437 17.3964 25.229 17.4324 25.3008C17.4324 25.229 17.4458 25.1796 17.4728 25.1526C17.4997 25.1257 17.5311 25.0763 17.5671 25.0044C17.5311 25.0404 17.5222 25.0493 17.5401 25.0314C17.5581 25.0134 17.5671 25.0044 17.5671 25.0044ZM17.0013 22.3909C16.9653 22.3909 16.9159 22.3775 16.8531 22.3505C16.7902 22.3236 16.7408 22.3101 16.7049 22.3101V22.3909C16.7408 22.3909 16.7722 22.3954 16.7992 22.4044C16.8261 22.4134 16.8127 22.4358 16.7588 22.4718C16.7228 22.5436 16.7273 22.602 16.7722 22.6469C16.8171 22.6918 16.8396 22.7502 16.8396 22.822C16.8755 22.7861 16.9025 22.7502 16.9204 22.7143C16.9384 22.6783 16.9653 22.6424 17.0013 22.6065C17.0372 22.5346 17.0551 22.4807 17.0551 22.4448C17.0551 22.4089 17.0372 22.3909 17.0013 22.3909ZM15.681 27.0252H15.4655V27.106L15.5463 27.1869C15.6182 27.1869 15.6721 27.1734 15.708 27.1464C15.7439 27.1195 15.7798 27.106 15.8158 27.106V27.0252H15.681ZM4.71509 5.82077C4.67916 5.87466 4.6612 5.91956 4.6612 5.95549C4.6612 5.99141 4.67916 6.02734 4.71509 6.06326C4.75101 6.09919 4.78694 6.11715 4.82286 6.11715C4.85879 6.11715 4.87675 6.09919 4.87675 6.06326C4.91267 6.06326 4.93513 6.0453 4.94411 6.00937C4.95309 5.97345 4.97554 5.93753 5.01147 5.9016C4.97554 5.86568 4.92614 5.83424 4.86328 5.8073C4.80041 5.78036 4.75101 5.78485 4.71509 5.82077ZM16.7588 27.0252H16.6241C16.5522 27.0611 16.4938 27.0791 16.4489 27.0791C16.404 27.0791 16.3456 27.0611 16.2738 27.0252C16.2379 27.0252 16.2019 27.0297 16.166 27.0387C16.1301 27.0476 16.0942 27.0701 16.0582 27.106C16.2019 27.2138 16.3277 27.2363 16.4354 27.1734C16.5432 27.1105 16.651 27.0611 16.7588 27.0252ZM17.9443 26.0283C17.9443 25.9924 17.9308 25.9564 17.9039 25.9205C17.8769 25.8846 17.8634 25.8666 17.8634 25.8666C17.8275 25.7948 17.7781 25.7678 17.7153 25.7858C17.6524 25.8038 17.603 25.8127 17.5671 25.8127L17.4862 25.8666L17.5671 25.9475C17.603 25.9475 17.6524 25.952 17.7153 25.9609C17.7781 25.9699 17.8275 25.9924 17.8634 26.0283H17.9443ZM15.681 23.1992C15.7529 23.1094 15.8247 23.0286 15.8966 22.9567C15.9684 22.8849 16.0223 22.8131 16.0582 22.7412V22.6065L15.681 23.1992ZM2.39796 16.5173C2.36203 16.5532 2.32162 16.5846 2.27671 16.6116C2.23181 16.6385 2.17343 16.652 2.10158 16.652L2.02075 16.7328L2.10158 16.7867H2.26324C2.26324 16.7149 2.27671 16.661 2.30366 16.6251C2.3306 16.5891 2.36203 16.5532 2.39796 16.5173ZM14.8188 3.80002C14.8548 3.83594 14.8997 3.85391 14.9536 3.85391C15.0075 3.85391 15.0613 3.83594 15.1152 3.80002L15.1691 3.71919L15.1152 3.6653C15.0254 3.70123 14.9625 3.72368 14.9266 3.73266C14.8907 3.74164 14.8548 3.7641 14.8188 3.80002ZM21.8511 26.4594C21.8511 26.5312 21.8645 26.5896 21.8915 26.6345C21.9184 26.6794 21.9588 26.7198 22.0127 26.7558H22.0666V26.6749C22.0307 26.639 21.9948 26.5941 21.9588 26.5402C21.9229 26.4863 21.887 26.4594 21.8511 26.4594ZM7.49025 0.539873C7.41841 0.468023 7.34656 0.4321 7.27471 0.4321C7.20286 0.4321 7.14897 0.468023 7.11305 0.539873C7.14897 0.575798 7.20286 0.59376 7.27471 0.59376C7.34656 0.59376 7.41841 0.575798 7.49025 0.539873ZM15.9774 27.3216C15.9774 27.3575 16.0133 27.4024 16.0852 27.4563C16.157 27.5102 16.193 27.5371 16.193 27.5371V27.4832C16.193 27.4473 16.166 27.4114 16.1121 27.3755C16.0582 27.3395 16.0133 27.3216 15.9774 27.3216ZM6.25086 0.378212C6.28678 0.378212 6.32271 0.369232 6.35863 0.351269C6.39456 0.333307 6.43048 0.324326 6.46641 0.324326H5.95448C5.99041 0.36025 6.03082 0.378212 6.07573 0.378212C6.12063 0.378212 6.17901 0.378212 6.25086 0.378212ZM16.193 22.0137C16.193 22.0497 16.2064 22.0856 16.2334 22.1215C16.2603 22.1574 16.2738 22.2023 16.2738 22.2562H16.3277V22.1754L16.193 22.0137ZM11.6934 0.378212L11.6126 0.324326C11.5767 0.324326 11.5542 0.333307 11.5452 0.351269C11.5362 0.369232 11.5138 0.378212 11.4779 0.378212L11.6126 0.539873L11.6934 0.378212ZM17.136 25.8666C17.136 25.9026 17.1494 25.9295 17.1764 25.9475C17.2033 25.9654 17.2348 25.9924 17.2707 26.0283C17.2707 26.0283 17.2842 26.0238 17.3111 26.0148C17.3381 26.0058 17.3515 25.9834 17.3515 25.9475L17.2168 25.8127L17.136 25.8666ZM21.42 25.9475L21.5547 26.2438C21.5547 26.2079 21.5682 26.181 21.5951 26.163C21.622 26.145 21.6355 26.1181 21.6355 26.0822C21.5996 26.0822 21.5637 26.0687 21.5277 26.0418C21.4918 26.0148 21.4559 25.9834 21.42 25.9475ZM5.52339 0.890137C5.52339 0.890137 5.53237 0.881155 5.55033 0.863194C5.56829 0.84523 5.55931 0.854212 5.52339 0.890137C5.55931 0.854212 5.56829 0.822779 5.55033 0.795835C5.53237 0.768892 5.52339 0.755421 5.52339 0.755421C5.48746 0.755421 5.46052 0.759911 5.44256 0.768892C5.4246 0.777872 5.39765 0.800325 5.36173 0.83625V0.890137H5.52339ZM22.4438 26.8905C22.4438 26.9623 22.4618 27.0162 22.4977 27.0521C22.5336 27.0881 22.5875 27.106 22.6594 27.106L22.4438 26.8905ZM22.7941 27.106C22.7941 27.1779 22.812 27.2363 22.848 27.2812C22.8839 27.3261 22.9198 27.3665 22.9557 27.4024C22.9198 27.3665 22.8929 27.3171 22.8749 27.2542C22.857 27.1913 22.83 27.1419 22.7941 27.106ZM19.5339 3.80002C19.498 3.80002 19.4756 3.80451 19.4666 3.81349C19.4576 3.82247 19.4531 3.84492 19.4531 3.88085V3.93474H19.6148V3.80002H19.5339ZM22.7941 27.4832L22.6594 27.2407C22.6594 27.3126 22.6639 27.371 22.6728 27.4159C22.6818 27.4608 22.7222 27.4832 22.7941 27.4832ZM17.7826 27.8335H17.9982V27.7527L17.7826 27.8335ZM9.80738 4.44666V4.39277L9.72655 4.44666V4.52749C9.72655 4.49157 9.73104 4.46911 9.74002 4.46013C9.74901 4.45115 9.77146 4.44666 9.80738 4.44666ZM16.8396 22.822C16.8396 22.858 16.8261 22.8804 16.7992 22.8894C16.7722 22.8984 16.7588 22.9208 16.7588 22.9567L16.8396 23.0376V22.822C16.8396 22.858 16.8396 22.8669 16.8396 22.849C16.8396 22.831 16.8396 22.822 16.8396 22.822ZM15.2499 27.0252V27.1869L15.3847 27.106L15.2499 27.0252Z" fill="#008E7C"/>
</g>
<defs>
<clipPath id="clip0_228_18597">
<rect width="27.59" height="28" fill="white" transform="matrix(1 0 0 -1 0 28.0386)"/>
</clipPath>
</defs>
</svg>
