<svg width="60" height="60" viewBox="0 0 60 60" fill="none" xmlns="http://www.w3.org/2000/svg">
<rect x="8.5" y="16.5" width="31" height="31" rx="15.5" fill="white"/>
<rect x="8.5" y="16.5" width="31" height="31" rx="15.5" stroke="#E9E9F2"/>
<path fill-rule="evenodd" clip-rule="evenodd" d="M28.9076 27.0925C28.1278 26.3127 27.2772 26.4823 26.9613 26.5813L26.9573 26.5826C26.9555 26.5832 26.9538 26.5839 26.9522 26.5849C26.951 26.5856 26.9498 26.5865 26.9488 26.5875C26.9478 26.5885 26.9465 26.5897 26.9451 26.5911L26.9221 26.6141C26.5961 26.9401 26.4331 27.1031 26.357 27.2846C26.2534 27.5318 26.2534 27.8103 26.357 28.0575C26.4331 28.239 26.5961 28.402 26.9221 28.728L27.2721 29.0781C27.5981 29.4041 27.7611 29.5671 27.9426 29.6431C28.1898 29.7467 28.4683 29.7467 28.7156 29.6431C28.897 29.5671 29.06 29.4041 29.386 29.0781L29.409 29.055C29.4104 29.0536 29.4116 29.0524 29.4126 29.0513C29.4136 29.0503 29.4145 29.0492 29.4152 29.0479C29.4162 29.0463 29.417 29.0446 29.4175 29.0428L29.4188 29.0388C29.5179 28.7229 29.6874 27.8723 28.9076 27.0925ZM26.3764 32.0877C26.7724 31.6917 26.9704 31.4937 27.0446 31.2654C27.1099 31.0645 27.1099 30.8482 27.0446 30.6474C26.9704 30.419 26.7724 30.221 26.3764 29.825L26.1751 29.6238C25.7791 29.2277 25.5811 29.0297 25.3528 28.9555C25.1519 28.8903 24.9356 28.8903 24.7348 28.9555C24.5064 29.0297 24.3084 29.2277 23.9124 29.6238L18.9056 34.6306C18.8604 34.6757 18.8381 34.6982 18.8225 34.7151C18.8218 34.7159 18.8213 34.7169 18.8211 34.7179C18.8175 34.7406 18.8136 34.772 18.806 34.8354L18.5372 37.0754C18.5119 37.2863 18.498 37.4066 18.4953 37.4935C18.4951 37.4998 18.5003 37.5051 18.5067 37.5049C18.5936 37.5021 18.7139 37.4882 18.9247 37.4629L21.1647 37.1941C21.2281 37.1865 21.2595 37.1827 21.2822 37.179C21.2833 37.1789 21.2843 37.1784 21.2851 37.1776C21.302 37.162 21.3244 37.1397 21.3696 37.0946L26.3764 32.0877ZM26.6137 25.4731C27.1096 25.3175 28.5026 25.0449 29.7289 26.2712C30.9552 27.4975 30.6827 28.8905 30.5271 29.3865C30.513 29.4315 30.4981 29.4779 30.4625 29.5518C30.4343 29.6105 30.3857 29.6907 30.3468 29.7429C30.2961 29.8108 30.25 29.8568 30.2137 29.8931C30.2115 29.8953 30.2094 29.8973 30.2074 29.8994L22.1909 37.9159C22.1852 37.9216 22.1794 37.9274 22.1734 37.9334C22.1079 37.9992 22.0255 38.082 21.9263 38.1478C21.8403 38.2049 21.7469 38.2502 21.6489 38.2826C21.5359 38.32 21.4198 38.3336 21.3277 38.3445C21.3193 38.3455 21.3111 38.3464 21.3031 38.3474L19.0419 38.6187C18.86 38.6406 18.6876 38.6613 18.543 38.6658C18.3884 38.6707 18.1984 38.6609 18.0071 38.5747C17.7487 38.4583 17.5419 38.2514 17.4254 37.9931C17.3392 37.8018 17.3295 37.6117 17.3343 37.4571C17.3389 37.3125 17.3596 37.1402 17.3814 36.9583L17.6527 34.6971C17.6537 34.6891 17.6547 34.6809 17.6557 34.6724C17.6665 34.5803 17.6802 34.4643 17.7175 34.3513C17.7499 34.2532 17.7953 34.1599 17.8524 34.0738C17.9181 33.9746 18.001 33.8922 18.0667 33.8267C18.0727 33.8208 18.0786 33.8149 18.0843 33.8092L26.1007 25.7928C26.1028 25.7907 26.1049 25.7886 26.107 25.7865C26.1433 25.7501 26.1893 25.704 26.2573 25.6533C26.3094 25.6144 26.3897 25.5658 26.4483 25.5376C26.5223 25.502 26.5687 25.4872 26.6137 25.4731Z" fill="#040509"/>
<rect x="8.5" y="8.5" width="31" height="31" rx="15.5" fill="white"/>
<rect x="8.5" y="8.5" width="31" height="31" rx="15.5" stroke="#E9E9F2"/>
<path fill-rule="evenodd" clip-rule="evenodd" d="M26.4676 19.8012C25.5115 19.8012 24.7364 20.5763 24.7364 21.5325C24.7364 22.4886 25.5115 23.2637 26.4676 23.2637C27.4238 23.2637 28.1989 22.4886 28.1989 21.5325C28.1989 20.5763 27.4238 19.8012 26.4676 19.8012ZM25.7312 21.5325C25.7312 21.1257 26.0609 20.796 26.4676 20.796C26.8744 20.796 27.2041 21.1257 27.2041 21.5325C27.2041 21.9392 26.8744 22.2689 26.4676 22.2689C26.0609 22.2689 25.7312 21.9392 25.7312 21.5325Z" fill="#040509"/>
<path fill-rule="evenodd" clip-rule="evenodd" d="M23.9793 17.3335H24.0205C25.0244 17.3335 25.8057 17.3335 26.4341 17.3806C27.072 17.4285 27.5923 17.527 28.0654 17.7453C29.0324 18.1914 29.8087 18.9677 30.2548 19.9347C30.4731 20.4078 30.5716 20.9281 30.6194 21.5659C30.6666 22.1944 30.6666 22.9757 30.6666 23.9795V24.0208C30.6666 25.0246 30.6666 25.806 30.6194 26.4344C30.5716 27.0722 30.4731 27.5925 30.2548 28.0657C29.8582 28.9252 29.2008 29.6341 28.3804 30.0943C28.3744 30.1011 28.3681 30.1077 28.3617 30.1141C28.2774 30.1984 28.1706 30.2461 28.0606 30.2573C27.5888 30.474 27.0698 30.572 26.4341 30.6197C25.8057 30.6668 25.0244 30.6668 24.0205 30.6668H23.9793C22.9755 30.6668 22.1941 30.6668 21.5657 30.6197C20.9279 30.5718 20.4076 30.4734 19.9344 30.2551C18.9674 29.8089 18.1912 29.0326 17.745 28.0657C17.5267 27.5925 17.4283 27.0722 17.3804 26.4344C17.3332 25.806 17.3332 25.0246 17.3333 24.0208V23.9796C17.3332 22.9757 17.3332 22.1944 17.3804 21.5659C17.4283 20.9281 17.5267 20.4078 17.745 19.9347C18.1912 18.9677 18.9674 18.1914 19.9344 17.7453C20.4076 17.527 20.9279 17.4285 21.5657 17.3806C22.1941 17.3335 22.9755 17.3335 23.9793 17.3335ZM29.3342 27.6858C29.054 28.275 28.6152 28.7708 28.0711 29.1202L26.2371 27.2862L26.4367 27.0866C26.7052 26.8181 26.8857 26.6381 27.0358 26.5107C27.1815 26.387 27.2655 26.3422 27.3296 26.3214C27.4961 26.2673 27.6755 26.2673 27.842 26.3214C27.9061 26.3422 27.9901 26.387 28.1358 26.5106C28.2858 26.638 28.4663 26.8179 28.7347 27.0864L29.3342 27.6858ZM29.6274 26.36C29.6224 26.4276 29.6167 26.4927 29.6105 26.5553L29.4239 26.3687C29.1734 26.1182 28.9643 25.9091 28.7796 25.7522C28.5869 25.5886 28.3881 25.4529 28.1494 25.3753C27.7831 25.2563 27.3885 25.2563 27.0222 25.3753C26.7835 25.4529 26.5847 25.5887 26.392 25.7523C26.2072 25.9092 25.9981 26.1183 25.7475 26.3689L25.5285 26.5879L23.9816 25.086C23.7308 24.8425 23.5214 24.6392 23.3367 24.4868C23.1438 24.3278 22.9455 24.1963 22.7085 24.1219C22.3445 24.0078 21.9539 24.0107 21.5916 24.1302C21.3557 24.208 21.1594 24.3425 20.9689 24.5043C20.7864 24.6594 20.58 24.8658 20.3329 25.1129L18.45 26.9958C18.416 26.8116 18.3906 26.6027 18.3724 26.36C18.3284 25.7731 18.328 25.0289 18.328 24.0002C18.328 22.9714 18.3284 22.2272 18.3724 21.6404C18.4161 21.0586 18.5006 20.6716 18.6483 20.3514C18.9953 19.5993 19.5991 18.9956 20.3512 18.6486C20.6714 18.5008 21.0584 18.4163 21.6401 18.3726C22.227 18.3286 22.9711 18.3283 23.9999 18.3283C25.0287 18.3283 25.7728 18.3286 26.3597 18.3726C26.9415 18.4163 27.3285 18.5008 27.6487 18.6486C28.4008 18.9956 29.0045 19.5993 29.3515 20.3514C29.4992 20.6716 29.5838 21.0586 29.6274 21.6404C29.6715 22.2272 29.6718 22.9714 29.6718 24.0002C29.6718 25.0289 29.6715 25.7731 29.6274 26.36ZM20.3512 29.3518C19.724 29.0624 19.1999 28.5944 18.8419 28.0108L21.0222 25.8305C21.2871 25.5656 21.4651 25.3882 21.6131 25.2624C21.7567 25.1404 21.8397 25.0959 21.9032 25.0749C22.0679 25.0206 22.2454 25.0193 22.4109 25.0712C22.4748 25.0912 22.5584 25.1345 22.7037 25.2543C22.8536 25.3779 23.0342 25.5527 23.303 25.8137L25.1846 27.6405L27.078 29.5339C26.8741 29.5763 26.6394 29.6067 26.3597 29.6277C25.7728 29.6717 25.0287 29.672 23.9999 29.672C22.9711 29.672 22.227 29.6717 21.6401 29.6277C21.0584 29.584 20.6714 29.4995 20.3512 29.3518Z" fill="#040509"/>
<rect x="10.5" y="8.5" width="31" height="31" rx="15.5" fill="white"/>
<rect x="10.5" y="8.5" width="31" height="31" rx="15.5" stroke="#E9E9F2"/>
<path fill-rule="evenodd" clip-rule="evenodd" d="M26.1279 17.3335C24.1392 17.3335 22.5271 18.9456 22.5271 20.9343V23.4149C22.5271 25.4035 24.1392 27.0157 26.1279 27.0157C28.1165 27.0157 29.7286 25.4035 29.7286 23.4149V20.9343C29.7286 18.9456 28.1165 17.3335 26.1279 17.3335ZM23.5271 20.9343C23.5271 19.4979 24.6915 18.3335 26.1279 18.3335C27.5642 18.3335 28.7286 19.4979 28.7286 20.9343V23.4149C28.7286 24.8513 27.5642 26.0157 26.1279 26.0157C24.6915 26.0157 23.5271 24.8513 23.5271 23.4149V20.9343Z" fill="#040509"/>
<path d="M21.6666 23.4149C21.6666 23.1387 21.4428 22.9149 21.1666 22.9149C20.8905 22.9149 20.6666 23.1387 20.6666 23.4149C20.6666 25.1303 21.4544 26.5016 22.5207 27.4346C23.4323 28.2323 24.566 28.7266 25.6279 28.8472V30.2366C25.6279 30.5127 25.8517 30.7366 26.1279 30.7366C26.404 30.7366 26.6279 30.5127 26.6279 30.2366V28.8472C27.6897 28.7266 28.8234 28.2323 29.7351 27.4346C30.8014 26.5016 31.5891 25.1303 31.5891 23.4149C31.5891 23.1387 31.3652 22.9149 31.0891 22.9149C30.813 22.9149 30.5891 23.1387 30.5891 23.4149C30.5891 24.8002 29.9594 25.9096 29.0766 26.682C28.1842 27.4628 27.0584 27.8761 26.1279 27.8761C25.1973 27.8761 24.0715 27.4628 23.1792 26.682C22.2964 25.9096 21.6666 24.8002 21.6666 23.4149Z" fill="#040509"/>
<rect width="60" height="60" rx="30" fill="#FFD300"/>
<path fill-rule="evenodd" clip-rule="evenodd" d="M29.9966 19.1078C27.5593 19.1078 25.1276 19.9388 23.1472 21.6005C21.9553 22.6007 21.0341 23.8176 20.3943 25.1502C20.3056 25.1417 20.2191 25.1225 20.128 25.1225C18.536 25.1225 17.2542 26.4043 17.2542 27.9962V31.5479C17.2542 33.1398 18.536 34.4216 20.128 34.4216C20.2192 34.4216 20.3056 34.4018 20.3943 34.3939C20.5089 34.6313 20.6274 34.867 20.761 35.0985C21.2831 36.0305 22.6782 35.2326 22.1395 34.31C19.9338 30.4896 20.788 25.6485 24.1673 22.813C27.5465 19.9774 32.455 19.9774 35.8342 22.813C39.2135 25.6485 40.0677 30.4895 37.862 34.31L37.8382 34.3495L37.8224 34.3891C37.8224 34.3891 36.7511 36.7589 34.6476 36.7589L31.9848 36.7351C31.7351 36.3704 31.3354 36.1165 30.8583 36.1165H29.1418C28.3722 36.1165 27.7531 36.7377 27.7531 37.5073C27.7531 37.982 28.0543 38.3425 28.7436 38.3425L34.6475 38.343C37.8042 38.343 39.1694 35.244 39.2316 35.1006V35.0921C39.364 34.8626 39.4805 34.6269 39.5943 34.3916C39.687 34.4001 39.7774 34.4193 39.8729 34.4193C41.4649 34.4193 42.7467 33.1375 42.7467 31.5456V27.9939C42.7467 26.402 41.4649 25.1202 39.8729 25.1202C39.7809 25.1202 39.6941 25.1354 39.6046 25.1479C38.9663 23.8152 38.0478 22.5984 36.8558 21.5982C34.8755 19.9365 32.4336 19.1055 29.9961 19.1055L29.9966 19.1078ZM26.533 24.1568C25.9144 24.1164 25.3493 24.2472 24.8555 24.7672C23.5387 26.1534 22.7253 28.0403 22.7253 30.0497C22.7253 31.7071 23.2792 33.5643 24.2123 33.6321C25.5417 33.7288 27.6395 32.8558 30.0008 32.8558C32.503 32.8558 34.7111 33.8353 36.0206 33.6034C36.8142 33.4631 37.2783 31.5661 37.2783 30.0497C37.2783 28.0403 36.4628 26.1534 35.146 24.7672C33.8292 23.3808 32.0101 24.7672 30.0008 24.7672C28.7449 24.7672 27.5641 24.2245 26.533 24.1568ZM26.2381 27.5733C26.9722 27.5736 27.5672 28.1685 27.5675 28.9026C27.5672 29.6367 26.9722 30.2317 26.2381 30.232C25.5041 30.2317 24.9091 29.6367 24.9088 28.9026C24.9091 28.1685 25.5041 27.5736 26.2381 27.5733ZM33.7635 27.5733C34.4976 27.5736 35.0926 28.1685 35.0929 28.9026C35.0926 29.6367 34.4976 30.2317 33.7635 30.232C33.0294 30.2317 32.4344 29.6367 32.4342 28.9026C32.4344 28.1685 33.0294 27.5736 33.7635 27.5733Z" fill="#121212"/>
<path d="M31.9839 41.3784L34.3989 40.7456C35.1419 41.1145 35.9631 41.3097 36.7983 41.3101H36.8013C39.7791 41.3098 42.2024 38.8869 42.2036 35.9087C42.2041 34.4668 41.6418 33.1084 40.6226 32.0884C39.6033 31.0682 38.2451 30.5051 36.8013 30.5044H36.8003C33.8222 30.5046 31.3992 32.9266 31.3979 35.9048C31.3977 36.7832 31.6119 37.6425 32.0171 38.4146L31.3745 40.7632L31.146 41.5981L31.9839 41.3784Z" fill="#25D366" stroke="#FFD300"/>
<path fill-rule="evenodd" clip-rule="evenodd" d="M35.5327 33.7808C35.4376 33.5695 35.3376 33.5653 35.2471 33.5616C35.1732 33.5584 35.0885 33.5586 35.004 33.5586C34.9194 33.5586 34.7819 33.5904 34.6656 33.7174C34.5493 33.8443 34.2214 34.1513 34.2214 34.7756C34.2214 35.4 34.6762 36.0032 34.7396 36.088C34.803 36.1726 35.6174 37.4947 36.9072 38.0033C37.9791 38.426 38.1972 38.3419 38.4299 38.3208C38.6626 38.2996 39.1807 38.0139 39.2864 37.7176C39.3922 37.4213 39.3922 37.1674 39.3604 37.1143C39.3287 37.0614 39.2441 37.0297 39.1172 36.9662C38.9903 36.9028 38.3664 36.5957 38.2501 36.5534C38.1338 36.5111 38.0492 36.49 37.9646 36.617C37.88 36.7439 37.637 37.0297 37.5629 37.1143C37.4889 37.1991 37.4149 37.2097 37.2879 37.1462C37.161 37.0826 36.7523 36.9487 36.2675 36.5164C35.8903 36.1801 35.6356 35.7648 35.5616 35.6377C35.4875 35.5108 35.5537 35.4421 35.6173 35.3788C35.6743 35.3219 35.7442 35.2307 35.8077 35.1566C35.871 35.0825 35.8921 35.0296 35.9344 34.945C35.9767 34.8603 35.9556 34.7862 35.9239 34.7227C35.8921 34.6592 35.6455 34.0317 35.5327 33.7808Z" fill="white"/>
</svg>
