<svg width="43" height="42" viewBox="0 0 43 42" fill="none" xmlns="http://www.w3.org/2000/svg">
<path d="M21.5 14C30.1985 14 37.25 11.6495 37.25 8.75C37.25 5.85051 30.1985 3.5 21.5 3.5C12.8015 3.5 5.75 5.85051 5.75 8.75C5.75 11.6495 12.8015 14 21.5 14Z" stroke="#FFD300" stroke-width="1.5" stroke-linecap="round" stroke-linejoin="round"/>
<path d="M5.75001 21C5.74748 21.9785 6.56541 22.9378 8.11151 23.7696C9.6576 24.6014 11.8703 25.2726 14.5 25.7075" stroke="#FFD300" stroke-width="1.5" stroke-linecap="round" stroke-linejoin="round"/>
<path d="M37.25 16.275V8.75" stroke="#FFD300" stroke-width="1.5" stroke-linecap="round" stroke-linejoin="round"/>
<path d="M5.75 8.75V33.25C5.74889 34.3852 6.85167 35.4899 8.893 36.3986C10.9343 37.3073 13.8042 37.9709 17.0725 38.29" stroke="#FFD300" stroke-width="1.5" stroke-linecap="round" stroke-linejoin="round"/>
<path d="M21.5 21V28H28.5" stroke="#FFD300" stroke-width="1.5" stroke-linecap="round" stroke-linejoin="round"/>
<path d="M23.25 35C24.3519 36.4692 25.8881 37.5544 27.641 38.102C29.394 38.6496 31.2748 38.6317 33.017 38.051C34.7592 37.4702 36.2746 36.356 37.3484 34.8662C38.4222 33.3764 39 31.5865 39 29.75C39 27.6614 38.1703 25.6584 36.6935 24.1815C35.2166 22.7047 33.2136 21.875 31.125 21.875C28.7975 21.875 26.68 22.82 25.1575 24.3425L21.5 28" stroke="#FFD300" stroke-width="1.5" stroke-linecap="round" stroke-linejoin="round"/>
</svg>
