<svg width="60" height="60" viewBox="0 0 60 60" fill="none" xmlns="http://www.w3.org/2000/svg">
<rect width="60" height="60" rx="30" fill="#FFD300"/>
<path fill-rule="evenodd" clip-rule="evenodd" d="M36.6291 23.3708C36.9952 23.7369 36.9952 24.3305 36.6291 24.6967L31.3258 30L36.6291 35.3033C36.9952 35.6694 36.9952 36.263 36.6291 36.6291C36.263 36.9952 35.6694 36.9952 35.3033 36.6291L30 31.3258L24.6967 36.6291C24.3306 36.9952 23.737 36.9952 23.3709 36.6291C23.0048 36.263 23.0048 35.6694 23.3709 35.3033L28.6742 30L23.3709 24.6967C23.0048 24.3305 23.0048 23.7369 23.3709 23.3708C23.737 23.0047 24.3306 23.0047 24.6967 23.3708L30 28.6741L35.3033 23.3708C35.6694 23.0047 36.263 23.0047 36.6291 23.3708Z" fill="#121212"/>
</svg>
