<svg width="42" height="43" viewBox="0 0 42 43" fill="none" xmlns="http://www.w3.org/2000/svg">
<path d="M37.695 26.75H29.75C28.8217 26.75 27.9315 27.1187 27.2751 27.7751C26.6187 28.4315 26.25 29.3217 26.25 30.25V38.195" stroke="#FFD300" stroke-width="1.5" stroke-linecap="round" stroke-linejoin="round"/>
<path d="M12.25 6.34497V9.24997C12.25 10.6424 12.8031 11.9777 13.7877 12.9623C14.7723 13.9468 16.1076 14.5 17.5 14.5C18.4283 14.5 19.3185 14.8687 19.9749 15.5251C20.6313 16.1815 21 17.0717 21 18C21 19.925 22.575 21.5 24.5 21.5C25.4283 21.5 26.3185 21.1312 26.9749 20.4748C27.6313 19.8185 28 18.9282 28 18C28 16.075 29.575 14.5 31.5 14.5H37.0475" stroke="#FFD300" stroke-width="1.5" stroke-linecap="round" stroke-linejoin="round"/>
<path d="M19.2504 38.9125V32C19.2504 31.0717 18.8816 30.1815 18.2253 29.5251C17.5689 28.8688 16.6786 28.5 15.7504 28.5C14.8221 28.5 13.9319 28.1313 13.2755 27.4749C12.6191 26.8185 12.2504 25.9283 12.2504 25V23.25C12.2504 22.3217 11.8816 21.4315 11.2253 20.7751C10.5689 20.1187 9.67865 19.75 8.75039 19.75H3.58789" stroke="#FFD300" stroke-width="1.5" stroke-linecap="round" stroke-linejoin="round"/>
<path d="M21 39C30.665 39 38.5 31.165 38.5 21.5C38.5 11.835 30.665 4 21 4C11.335 4 3.5 11.835 3.5 21.5C3.5 31.165 11.335 39 21 39Z" stroke="#FFD300" stroke-width="1.5" stroke-linecap="round" stroke-linejoin="round"/>
</svg>
