<svg width="66" height="39" viewBox="0 0 66 39" fill="none" xmlns="http://www.w3.org/2000/svg">
<rect x="0.299805" width="65" height="39" rx="19.5" fill="white"/>
<path d="M36.2685 21.9466C38.1157 20.9142 39.5282 20.1275 39.649 20.0661C40.0353 19.8571 40.4337 19.3041 39.649 18.8739C39.3954 18.7387 38.0312 17.9767 36.2685 16.9934L33.8418 19.4761L36.2685 21.9466Z" fill="#FFD400"/>
<path d="M33.8418 19.476L26.0908 27.4281C26.2719 27.4527 26.4772 27.4035 26.7186 27.2683C27.2257 26.9856 32.6103 23.9867 36.2685 21.9465L33.8418 19.476Z" fill="#FF3333"/>
<path d="M33.8412 19.4764L36.2679 16.9937C36.2679 16.9937 27.2613 11.9913 26.718 11.6964C26.5128 11.5735 26.2834 11.5366 26.0781 11.5735L33.8412 19.4764Z" fill="#48FF48"/>
<path d="M33.8416 19.4761L26.0785 11.5732C25.7646 11.6469 25.499 11.9296 25.499 12.5073C25.499 13.4291 25.499 25.7198 25.499 26.4941C25.499 27.0226 25.7043 27.4036 26.0906 27.4405L33.8416 19.4761Z" fill="#3BCCFF"/>
</svg>
