<svg width="40" height="40" viewBox="0 0 40 40" fill="none" xmlns="http://www.w3.org/2000/svg">
<g clip-path="url(#clip0_1400_10963)">
<path d="M20 40C31.0457 40 40 31.0457 40 20C40 8.9543 31.0457 0 20 0C8.9543 0 0 8.9543 0 20C0 31.0457 8.9543 40 20 40Z" fill="#00A1F5"/>
<path d="M28.5922 11.4063C26.6035 9.41747 23.9868 8.17975 21.1878 7.90403C18.3889 7.62831 15.5809 8.33166 13.2424 9.89422C10.9039 11.4568 9.17954 13.7819 8.36319 16.4733C7.54684 19.1647 7.68899 22.0559 8.76542 24.6543C9.84185 27.2527 11.786 29.3974 14.2665 30.723C16.747 32.0486 19.6104 32.4731 22.3688 31.9242C25.1272 31.3752 27.6099 29.8868 29.3939 27.7125C31.1779 25.5382 32.1527 22.8125 32.1523 20C32.1564 18.4034 31.8438 16.8218 31.2327 15.3467C30.6216 13.8716 29.7241 12.5323 28.5922 11.4063ZM28.4539 15.1047H25.7281C25.4889 13.951 25.1251 12.8267 24.643 11.7516C24.5695 11.5907 24.4938 11.4352 24.4156 11.2829C26.1014 12.1416 27.504 13.468 28.4555 15.1032L28.4539 15.1047ZM29.7734 20C29.7738 20.8496 29.6632 21.6955 29.4445 22.5164H26.1008C26.2706 20.8431 26.2706 19.1569 26.1008 17.4836H29.4445C29.6632 18.3045 29.7738 19.1505 29.7734 20ZM10.2234 20C10.2231 19.1505 10.3337 18.3045 10.5523 17.4836H13.8961C13.7263 19.1569 13.7263 20.8431 13.8961 22.5164H10.5523C10.3337 21.6955 10.2231 20.8496 10.2234 20ZM16.1492 20C16.1486 19.1593 16.195 18.3192 16.2883 17.4836H23.7102C23.8956 19.1561 23.8956 20.844 23.7102 22.5164H16.2883C16.195 21.6809 16.1486 20.8408 16.1492 20ZM19.9984 10.225C20.8281 10.225 21.7555 11.1664 22.4805 12.7438C22.8225 13.5033 23.0927 14.2932 23.2875 15.1032H16.7094C16.9041 14.2932 17.1743 13.5033 17.5164 12.7438C18.2414 11.1664 19.1688 10.225 19.9984 10.225ZM15.5813 11.2821C15.5031 11.4336 15.425 11.5891 15.3539 11.7508C14.8718 12.8259 14.5079 13.9502 14.2688 15.1039H11.5414C12.4927 13.4682 13.8953 12.1413 15.5813 11.2821ZM11.5414 24.8969H14.2688C14.5081 26.0508 14.8719 27.1754 15.3539 28.2508C15.4273 28.4112 15.5031 28.5675 15.5813 28.7196C13.8952 27.8602 12.4926 26.533 11.5414 24.8969ZM19.9984 29.775C19.1688 29.775 18.2414 28.8336 17.5164 27.2563C17.1743 26.4967 16.9041 25.7068 16.7094 24.8969H23.2875C23.0927 25.7068 22.8225 26.4967 22.4805 27.2563C21.7555 28.8336 20.8281 29.775 19.9984 29.775ZM24.4156 28.718C24.4938 28.5664 24.5719 28.411 24.643 28.2493C25.125 27.1741 25.4888 26.0498 25.7281 24.8961H28.4555C27.5042 26.5319 26.1016 27.8588 24.4156 28.718Z" fill="white"/>
</g>
<defs>
<clipPath id="clip0_1400_10963">
<rect width="40" height="40" fill="white"/>
</clipPath>
</defs>
</svg>
