<svg width="203" height="20" viewBox="0 0 203 20" fill="none" xmlns="http://www.w3.org/2000/svg">
<rect width="14.8206" height="14.8206" transform="translate(0.820557 2.70239)" fill="#219653"/>
<path d="M8.2309 12.8368L10.4849 12.2333L11.4266 15.2999L8.2309 12.8368ZM13.4181 8.87303H9.45051L8.2309 4.92554L7.01129 8.87303H3.0437L6.25483 11.3198L5.03521 15.2673L8.24634 12.8205L10.2224 11.3198L13.4181 8.87303Z" fill="white"/>
<rect width="14.8206" height="14.8206" transform="translate(17.1232 2.70239)" fill="#219653"/>
<path d="M24.5335 12.8368L26.7875 12.2333L27.7292 15.2999L24.5335 12.8368ZM29.7207 8.87303H25.7531L24.5335 4.92554L23.3139 8.87303H19.3463L22.5574 11.3198L21.3378 15.2673L24.549 12.8205L26.525 11.3198L29.7207 8.87303Z" fill="white"/>
<rect width="14.8206" height="14.8206" transform="translate(33.4258 2.70239)" fill="#219653"/>
<path d="M40.8361 12.8368L43.0901 12.2333L44.0318 15.2999L40.8361 12.8368ZM46.0233 8.87303H42.0557L40.8361 4.92554L39.6165 8.87303H35.6489L38.8601 11.3198L37.6404 15.2673L40.8516 12.8205L42.8276 11.3198L46.0233 8.87303Z" fill="white"/>
<rect width="14.8206" height="14.8206" transform="translate(49.7284 2.70239)" fill="#219653"/>
<path d="M57.1387 12.8368L59.3927 12.2333L60.3344 15.2999L57.1387 12.8368ZM62.3259 8.87303H58.3583L57.1387 4.92554L55.9191 8.87303H51.9515L55.1627 11.3198L53.9431 15.2673L57.1542 12.8205L59.1302 11.3198L62.3259 8.87303Z" fill="white"/>
<path d="M87.9416 4.73123C88.0998 5.11402 88.4036 5.41829 88.7862 5.57714L90.1276 6.13278C90.5104 6.29135 90.8145 6.5955 90.9731 6.97833C91.1316 7.36115 91.1316 7.79128 90.9731 8.17411L90.4179 9.51458C90.2592 9.89757 90.259 10.3281 90.4184 10.7109L90.9726 12.051C91.0512 12.2406 91.0917 12.4439 91.0917 12.6491C91.0918 12.8544 91.0514 13.0576 90.9728 13.2473C90.8943 13.4369 90.7791 13.6092 90.634 13.7543C90.4888 13.8994 90.3165 14.0145 90.1268 14.093L88.7864 14.6482C88.4036 14.8065 88.0994 15.1103 87.9405 15.4929L87.3849 16.8343C87.2263 17.2171 86.9222 17.5213 86.5394 17.6799C86.1566 17.8384 85.7265 17.8384 85.3437 17.6799L84.0032 17.1246C83.6204 16.9664 83.1905 16.9668 82.8079 17.1255L81.4665 17.6804C81.0839 17.8386 80.6542 17.8384 80.2717 17.68C79.8892 17.5215 79.5852 17.2178 79.4265 16.8353L78.8707 15.4935C78.7125 15.1107 78.4087 14.8064 78.0261 14.6476L76.6847 14.092C76.3021 13.9335 75.998 13.6295 75.8394 13.2469C75.6808 12.8643 75.6806 12.4344 75.8388 12.0516L76.394 10.7111C76.5522 10.3283 76.5519 9.89831 76.3931 9.51571L75.8387 8.17332C75.7601 7.98371 75.7196 7.78047 75.7196 7.57522C75.7196 7.36996 75.76 7.16671 75.8385 6.97708C75.9171 6.78744 76.0322 6.61515 76.1774 6.47003C76.3225 6.32492 76.4949 6.20983 76.6845 6.13134L78.0249 5.5761C78.4074 5.41796 78.7114 5.11453 78.8704 4.73242L79.426 3.39099C79.5846 3.00816 79.8887 2.70401 80.2715 2.54544C80.6544 2.38687 81.0845 2.38687 81.4673 2.54544L82.8077 3.10068C83.1905 3.25886 83.6205 3.25854 84.0031 3.09978L85.345 2.5463C85.7278 2.38782 86.1578 2.38785 86.5405 2.54639C86.9233 2.70493 87.2274 3.009 87.386 3.39172L87.9417 4.73355L87.9416 4.73123Z" fill="#B5B5B5"/>
<path d="M81.0999 10.1127L82.6372 11.65L86.096 8.19116M87.9416 4.73123C88.0998 5.11402 88.4036 5.41829 88.7862 5.57714L90.1276 6.13278C90.5104 6.29135 90.8145 6.5955 90.9731 6.97833C91.1316 7.36115 91.1316 7.79128 90.9731 8.17411L90.4179 9.51458C90.2592 9.89757 90.259 10.3281 90.4184 10.7109L90.9726 12.051C91.0512 12.2406 91.0917 12.4439 91.0917 12.6491C91.0918 12.8544 91.0514 13.0576 90.9728 13.2473C90.8943 13.4369 90.7791 13.6092 90.634 13.7543C90.4888 13.8994 90.3165 14.0145 90.1268 14.093L88.7864 14.6482C88.4036 14.8065 88.0994 15.1103 87.9405 15.4929L87.3849 16.8343C87.2263 17.2171 86.9222 17.5213 86.5394 17.6799C86.1566 17.8384 85.7265 17.8384 85.3437 17.6799L84.0032 17.1246C83.6204 16.9664 83.1905 16.9668 82.8079 17.1255L81.4665 17.6804C81.0839 17.8386 80.6542 17.8384 80.2717 17.68C79.8892 17.5215 79.5852 17.2178 79.4265 16.8353L78.8707 15.4935C78.7125 15.1107 78.4087 14.8064 78.0261 14.6476L76.6847 14.092C76.3021 13.9335 75.998 13.6295 75.8394 13.2469C75.6808 12.8643 75.6806 12.4344 75.8388 12.0516L76.394 10.7111C76.5522 10.3283 76.5519 9.89831 76.3931 9.51571L75.8387 8.17332C75.7601 7.98371 75.7196 7.78047 75.7196 7.57522C75.7196 7.36996 75.76 7.16671 75.8385 6.97708C75.9171 6.78744 76.0322 6.61515 76.1774 6.47003C76.3225 6.32492 76.4949 6.20983 76.6845 6.13134L78.0249 5.5761C78.4074 5.41796 78.7114 5.11453 78.8704 4.73242L79.426 3.39099C79.5846 3.00816 79.8887 2.70401 80.2715 2.54544C80.6544 2.38687 81.0845 2.38687 81.4673 2.54544L82.8077 3.10068C83.1905 3.25886 83.6205 3.25854 84.0031 3.09978L85.345 2.5463C85.7278 2.38782 86.1578 2.38785 86.5405 2.54639C86.9233 2.70493 87.2274 3.009 87.386 3.39172L87.9417 4.73355L87.9416 4.73123Z" stroke="white" stroke-width="1.02483" stroke-linecap="round" stroke-linejoin="round"/>
<path d="M105.624 5.14315L102.037 14.6125H100.731L97.1302 5.14315H98.3641L100.775 11.6856L101.377 13.5652L101.98 11.7L104.39 5.14315H105.624ZM109.706 14.756C109.027 14.756 108.42 14.6078 107.884 14.3112C107.358 14.0147 106.947 13.5891 106.65 13.0343C106.354 12.47 106.206 11.8004 106.206 11.0257C106.206 10.2509 106.354 9.58612 106.65 9.03134C106.947 8.46701 107.353 8.03658 107.87 7.74006C108.386 7.44354 108.975 7.29529 109.635 7.29529C110.304 7.29529 110.873 7.43876 111.342 7.72571C111.82 8.01267 112.184 8.40483 112.432 8.90221C112.681 9.39003 112.806 9.94002 112.806 10.5522C112.806 10.7148 112.801 10.863 112.791 10.997C112.782 11.1309 112.767 11.2504 112.748 11.3556H106.952V10.337H112.246L111.658 10.4518C111.658 9.76307 111.466 9.23221 111.084 8.85917C110.711 8.48614 110.218 8.29962 109.606 8.29962C109.137 8.29962 108.731 8.40961 108.386 8.62961C108.052 8.84004 107.789 9.15091 107.597 9.5622C107.416 9.96394 107.325 10.4518 107.325 11.0257C107.325 11.59 107.42 12.0778 107.612 12.4891C107.803 12.9004 108.071 13.2161 108.415 13.436C108.769 13.6465 109.19 13.7517 109.678 13.7517C110.204 13.7517 110.629 13.6513 110.955 13.4504C111.289 13.2495 111.557 12.9769 111.758 12.6326L112.662 13.1634C112.48 13.4887 112.246 13.7708 111.959 14.01C111.682 14.2491 111.352 14.4356 110.969 14.5695C110.596 14.6939 110.175 14.756 109.706 14.756ZM114.988 14.6125V7.43876H115.921L116.079 8.61526C116.28 8.17527 116.572 7.84528 116.954 7.62528C117.346 7.40528 117.82 7.29529 118.375 7.29529C118.499 7.29529 118.633 7.30485 118.776 7.32398C118.929 7.34311 119.058 7.38137 119.164 7.43876L118.963 8.48614C118.858 8.44787 118.743 8.41918 118.618 8.40005C118.494 8.38092 118.317 8.37135 118.088 8.37135C117.791 8.37135 117.49 8.45744 117.184 8.62961C116.887 8.80178 116.638 9.06482 116.438 9.41873C116.237 9.76307 116.136 10.2031 116.136 10.7387V14.6125H114.988ZM121.419 6.0614C121.161 6.0614 120.95 5.98487 120.788 5.83183C120.635 5.66923 120.558 5.4588 120.558 5.20054C120.558 4.94228 120.635 4.73664 120.788 4.58359C120.95 4.42099 121.161 4.33969 121.419 4.33969C121.677 4.33969 121.883 4.42099 122.036 4.58359C122.199 4.73664 122.28 4.94228 122.28 5.20054C122.28 5.4588 122.199 5.66923 122.036 5.83183C121.883 5.98487 121.677 6.0614 121.419 6.0614ZM121.993 7.43876V14.6125H120.845V7.43876H121.993ZM127.569 4.06708C127.818 4.06708 128.052 4.09578 128.272 4.15317C128.492 4.21056 128.664 4.29186 128.788 4.39708L128.487 5.32967C128.372 5.25315 128.248 5.20054 128.114 5.17185C127.98 5.13359 127.832 5.11446 127.669 5.11446C127.258 5.11446 126.938 5.21489 126.708 5.41575C126.478 5.60706 126.364 5.91792 126.364 6.34835V7.43876V7.8118V14.6125H125.216V6.23357C125.216 5.91792 125.264 5.62619 125.359 5.35836C125.455 5.09054 125.598 4.86098 125.79 4.66968C125.991 4.47838 126.239 4.33012 126.536 4.22491C126.832 4.11969 127.177 4.06708 127.569 4.06708ZM128.76 7.43876V8.42874H123.781V7.43876H128.76ZM130.869 6.0614C130.611 6.0614 130.4 5.98487 130.237 5.83183C130.084 5.66923 130.008 5.4588 130.008 5.20054C130.008 4.94228 130.084 4.73664 130.237 4.58359C130.4 4.42099 130.611 4.33969 130.869 4.33969C131.127 4.33969 131.333 4.42099 131.486 4.58359C131.648 4.73664 131.73 4.94228 131.73 5.20054C131.73 5.4588 131.648 5.66923 131.486 5.83183C131.333 5.98487 131.127 6.0614 130.869 6.0614ZM131.443 7.43876V14.6125H130.295V7.43876H131.443ZM137.113 14.756C136.433 14.756 135.826 14.6078 135.29 14.3112C134.764 14.0147 134.353 13.5891 134.057 13.0343C133.76 12.47 133.612 11.8004 133.612 11.0257C133.612 10.2509 133.76 9.58612 134.057 9.03134C134.353 8.46701 134.76 8.03658 135.276 7.74006C135.793 7.44354 136.381 7.29529 137.041 7.29529C137.71 7.29529 138.279 7.43876 138.748 7.72571C139.226 8.01267 139.59 8.40483 139.839 8.90221C140.087 9.39003 140.212 9.94002 140.212 10.5522C140.212 10.7148 140.207 10.863 140.197 10.997C140.188 11.1309 140.173 11.2504 140.154 11.3556H134.358V10.337H139.652L139.064 10.4518C139.064 9.76307 138.873 9.23221 138.49 8.85917C138.117 8.48614 137.624 8.29962 137.012 8.29962C136.543 8.29962 136.137 8.40961 135.793 8.62961C135.458 8.84004 135.195 9.15091 135.003 9.5622C134.822 9.96394 134.731 10.4518 134.731 11.0257C134.731 11.59 134.827 12.0778 135.018 12.4891C135.209 12.9004 135.477 13.2161 135.821 13.436C136.175 13.6465 136.596 13.7517 137.084 13.7517C137.61 13.7517 138.036 13.6513 138.361 13.4504C138.696 13.2495 138.963 12.9769 139.164 12.6326L140.068 13.1634C139.886 13.4887 139.652 13.7708 139.365 14.01C139.088 14.2491 138.758 14.4356 138.375 14.5695C138.002 14.6939 137.581 14.756 137.113 14.756ZM145.192 14.756C144.599 14.756 144.054 14.6078 143.557 14.3112C143.059 14.0147 142.662 13.5891 142.366 13.0343C142.069 12.47 141.921 11.8004 141.921 11.0257C141.921 10.2318 142.079 9.55742 142.395 9.00265C142.71 8.44787 143.126 8.02701 143.643 7.74006C144.159 7.44354 144.714 7.29529 145.307 7.29529C145.9 7.29529 146.412 7.44833 146.842 7.75441C147.282 8.06049 147.574 8.46701 147.718 8.97395L147.574 9.07439V4.13882H148.722V14.6125H147.718L147.617 12.8765L147.775 12.7904C147.708 13.2113 147.545 13.57 147.287 13.8665C147.038 14.1534 146.728 14.3734 146.355 14.5265C145.991 14.6795 145.604 14.756 145.192 14.756ZM145.307 13.7517C145.766 13.7517 146.163 13.6369 146.498 13.4074C146.842 13.1778 147.105 12.8526 147.287 12.4317C147.478 12.0013 147.574 11.4991 147.574 10.9252C147.574 10.38 147.478 9.91133 147.287 9.51916C147.105 9.12699 146.847 8.82569 146.512 8.61526C146.187 8.40483 145.805 8.29962 145.365 8.29962C144.638 8.29962 144.073 8.54831 143.672 9.04569C143.27 9.54307 143.069 10.2031 143.069 11.0257C143.069 11.8482 143.265 12.5082 143.657 13.0056C144.049 13.503 144.599 13.7517 145.307 13.7517Z" fill="#B5B5B5"/>
</svg>
