<svg width="52" height="51" viewBox="0 0 52 51" fill="none" xmlns="http://www.w3.org/2000/svg">
<rect x="0.5" width="51" height="51" rx="25.5" fill="#FFD300" fill-opacity="0.2"/>
<g clip-path="url(#clip0_1772_4898)">
<path d="M25.0001 34.1772L28.0001 37.4881C28.2956 37.8142 28.6464 38.0729 29.0324 38.2493C29.4185 38.4258 29.8323 38.5167 30.2501 38.5167C30.668 38.5167 31.0818 38.4258 31.4678 38.2493C31.8539 38.0729 32.2047 37.8142 32.5001 37.4881C32.7956 37.162 33.03 36.7749 33.1899 36.3488C33.3498 35.9227 33.4321 35.4661 33.4321 35.0049C33.4321 34.5437 33.3498 34.0871 33.1899 33.661C33.03 33.235 32.7956 32.8478 32.5001 32.5217" stroke="#FFD300" stroke-width="1.5" stroke-linecap="round" stroke-linejoin="round"/>
<path d="M29.5016 29.2108L33.2516 33.3495C33.8483 34.0081 34.6577 34.378 35.5016 34.378C36.3455 34.378 37.1549 34.0081 37.7516 33.3495C38.3484 32.6909 38.6836 31.7977 38.6836 30.8663C38.6836 29.9349 38.3484 29.0417 37.7516 28.3831L31.9316 21.9599C31.0878 21.0299 29.9441 20.5075 28.7516 20.5075C27.5591 20.5075 26.4153 21.0299 25.5716 21.9599L24.2516 23.4167C23.6548 24.0753 22.8455 24.4453 22.0016 24.4453C21.1577 24.4453 20.3483 24.0753 19.7516 23.4167C19.1548 22.7582 18.8196 21.8649 18.8196 20.9336C18.8196 20.0022 19.1548 19.109 19.7516 18.4504L23.9666 13.7986C25.3349 12.2923 27.1194 11.3328 29.0376 11.072C30.9557 10.8111 32.8978 11.2638 34.5566 12.3583L35.2616 12.8218C35.9003 13.2473 36.6597 13.3948 37.3916 13.2357L40.0016 12.6563" stroke="#FFD300" stroke-width="1.5" stroke-linecap="round" stroke-linejoin="round"/>
<path d="M40 11.001L41.5 29.211H38.5" stroke="#FFD300" stroke-width="1.5" stroke-linecap="round" stroke-linejoin="round"/>
<path d="M13 11.001L11.5 29.211L21.25 39.9714C21.8468 40.63 22.6561 41 23.5 41C24.344 41 25.1533 40.63 25.75 39.9714C26.3468 39.3129 26.682 38.4196 26.682 37.4883C26.682 36.5569 26.3468 35.6637 25.75 35.0051" stroke="#FFD300" stroke-width="1.5" stroke-linecap="round" stroke-linejoin="round"/>
<path d="M13.0012 12.6565H25.0013" stroke="#FFD300" stroke-width="1.5" stroke-linecap="round" stroke-linejoin="round"/>
</g>
<defs>
<clipPath id="clip0_1772_4898">
<rect width="32" height="32" fill="white" transform="translate(10.5 10)"/>
</clipPath>
</defs>
</svg>
