<svg width="40" height="40" viewBox="0 0 40 40" fill="none" xmlns="http://www.w3.org/2000/svg">
<g clip-path="url(#clip0_10391_51079)">
<mask id="mask0_10391_51079" style="mask-type:luminance" maskUnits="userSpaceOnUse" x="0" y="0" width="40" height="40">
<path d="M40 0H0V40H40V0Z" fill="white"/>
</mask>
<g mask="url(#mask0_10391_51079)">
<path fill-rule="evenodd" clip-rule="evenodd" d="M24.6885 11.4571C23.9548 11.4571 23.0891 11.6282 22.0914 11.9704C21.0936 12.3127 20.3746 12.484 19.9344 12.4841C19.5921 12.4841 18.9 12.3325 17.8582 12.0291C16.8165 11.7258 15.9288 11.5741 15.1951 11.5741C13.4735 11.5741 12.0478 12.2981 10.918 13.7461C9.78815 15.1934 9.22325 17.0665 9.22325 19.3655C9.22769 20.638 9.41547 21.9032 9.78081 23.1221C10.1829 24.454 10.7393 25.7343 11.4389 26.9368C12.1823 28.2378 12.9306 29.2135 13.6838 29.864C14.437 30.5145 15.1951 30.8397 15.9581 30.8397C16.4667 30.8397 17.1295 30.671 17.9463 30.3334C18.7631 29.9959 19.4796 29.8272 20.0959 29.8272C20.7121 29.8272 21.4677 29.9886 22.3628 30.3116C23.2578 30.6347 23.9597 30.7961 24.4684 30.7959C25.114 30.7959 25.7596 30.5513 26.4052 30.0621C27.0507 29.5729 27.6963 28.8343 28.342 27.8463C28.7506 27.2291 29.1206 26.5872 29.4498 25.9243C29.7458 25.3287 29.9936 24.7105 30.1908 24.0754C29.3006 23.8115 28.5083 23.1806 27.8138 22.1827C27.1236 21.1993 26.7593 20.0242 26.772 18.8229C26.7749 18.008 26.9577 17.2037 27.3076 16.4677C27.6646 15.6997 28.386 14.8561 29.4718 13.9368C28.7773 13.0759 28.0437 12.4473 27.2709 12.051C26.4703 11.6484 25.5845 11.4447 24.6885 11.4571ZM24.4391 5.7935C22.6881 6.19405 21.4335 6.93746 20.6754 8.02373C19.9173 9.10946 19.5285 10.3956 19.509 11.8823C20.272 11.8433 20.8834 11.721 21.3432 11.5154C21.8485 11.2778 22.306 10.9496 22.693 10.5471C23.2955 9.9612 23.7702 9.25675 24.087 8.47824C24.3804 7.73483 24.5272 7.05017 24.5272 6.42426C24.5272 6.32652 24.5222 6.22879 24.5125 6.13051C24.4991 6.01605 24.4745 5.90316 24.4391 5.7935ZM20 0.670288C30.6919 0.670288 39.3594 9.33748 39.3594 20.0298C39.3594 30.7217 30.6919 39.3889 20 39.3889C9.30812 39.3889 0.640625 30.7217 0.640625 20.0298C0.640625 9.33751 9.3081 0.670288 20 0.670288Z" fill="white"/>
</g>
</g>
<defs>
<clipPath id="clip0_10391_51079">
<rect width="40" height="40" fill="white"/>
</clipPath>
</defs>
</svg>
