<svg width="52" height="51" viewBox="0 0 52 51" fill="none" xmlns="http://www.w3.org/2000/svg">
<rect x="0.5" width="51" height="51" rx="25.5" fill="#FFD300" fill-opacity="0.2"/>
<g clip-path="url(#clip0_1772_4874)">
<path d="M11.5 11V37.6667C11.5 38.5507 11.8512 39.3986 12.4763 40.0237C13.1014 40.6488 13.9493 41 14.8333 41H41.5" stroke="#FFD300" stroke-width="1.5" stroke-linecap="round" stroke-linejoin="round"/>
<path d="M18.168 24.6784C18.168 24.4578 18.2555 24.2462 18.4113 24.09L21.7446 20.7567C21.822 20.6791 21.914 20.6175 22.0152 20.5755C22.1165 20.5335 22.225 20.5119 22.3346 20.5119C22.4442 20.5119 22.5528 20.5335 22.654 20.5755C22.7553 20.6175 22.8472 20.6791 22.9246 20.7567L28.4113 26.2434C28.4887 26.321 28.5807 26.3825 28.6819 26.4246C28.7832 26.4666 28.8917 26.4882 29.0013 26.4882C29.1109 26.4882 29.2194 26.4666 29.3207 26.4246C29.4219 26.3825 29.5139 26.321 29.5913 26.2434L36.7446 19.09C36.8611 18.9733 37.0096 18.8937 37.1712 18.8614C37.3329 18.8291 37.5006 18.8454 37.653 18.9084C37.8054 18.9714 37.9356 19.0782 38.0273 19.2152C38.119 19.3523 38.1679 19.5135 38.168 19.6784V32.6667C38.168 33.1087 37.9924 33.5327 37.6798 33.8452C37.3673 34.1578 36.9433 34.3334 36.5013 34.3334H19.8346C19.3926 34.3334 18.9687 34.1578 18.6561 33.8452C18.3436 33.5327 18.168 33.1087 18.168 32.6667V24.6784Z" stroke="#FFD300" stroke-width="1.5" stroke-linecap="round" stroke-linejoin="round"/>
</g>
<defs>
<clipPath id="clip0_1772_4874">
<rect width="32" height="32" fill="white" transform="translate(10.5 10)"/>
</clipPath>
</defs>
</svg>
