<svg width="340" height="156" viewBox="0 0 340 156" fill="none" xmlns="http://www.w3.org/2000/svg">
<path d="M18.9785 1.25191V2.50191H18.9529L18.9275 2.50086L18.9785 1.25191ZM8.96017 9.4443L10.1882 9.67755L8.96017 9.4443ZM7.21783 48.762L8.46768 48.7424L8.46783 48.7522V48.762H7.21783ZM7.21783 155.25L0.000976562 142.75H14.4347L7.21783 155.25ZM340 1.25191V2.50191H335.987V1.25191V0.00190616H340V1.25191ZM327.962 1.25191V2.50191H319.936V1.25191V0.00190616H327.962V1.25191ZM311.911 1.25191V2.50191H303.885V1.25191V0.00190616H311.911V1.25191ZM295.86 1.25191V2.50191H287.834V1.25191V0.00190616H295.86V1.25191ZM279.808 1.25191V2.50191H271.783V1.25191V0.00190616H279.808V1.25191ZM263.757 1.25191V2.50191H255.732V1.25191V0.00190616H263.757V1.25191ZM247.706 1.25191V2.50191H239.681V1.25191V0.00190616H247.706V1.25191ZM231.655 1.25191V2.50191H223.63V1.25191V0.00190616H231.655V1.25191ZM215.604 1.25191V2.50191H207.579V1.25191V0.00190616H215.604V1.25191ZM199.553 1.25191V2.50191H191.528V1.25191V0.00190616H199.553V1.25191ZM183.502 1.25191V2.50191H175.476V1.25191V0.00190616H183.502V1.25191ZM167.451 1.25191V2.50191H159.425V1.25191V0.00190616H167.451V1.25191ZM151.4 1.25191V2.50191H143.374V1.25191V0.00190616H151.4V1.25191ZM135.349 1.25191V2.50191H127.323V1.25191V0.00190616H135.349V1.25191ZM119.298 1.25191V2.50191H111.272V1.25191V0.00190616H119.298V1.25191ZM103.247 1.25191V2.50191H95.221V1.25191V0.00190616H103.247V1.25191ZM87.1955 1.25191V2.50191H79.17V1.25191V0.00190616H87.1955V1.25191ZM71.1444 1.25191V2.50191H63.1189V1.25191V0.00190616H71.1444V1.25191ZM55.0933 1.25191V2.50191H47.0678V1.25191V0.00190616H55.0933V1.25191ZM39.0422 1.25191V2.50191H31.0167V1.25191V0.00190616H39.0422V1.25191ZM22.9911 1.25191V2.50191H18.9785V1.25191V0.00190616H22.9911V1.25191ZM18.9785 1.25191C18.9275 2.50086 18.9277 2.50088 18.928 2.50089C18.928 2.50089 18.9283 2.5009 18.9285 2.50091C18.9288 2.50092 18.929 2.50093 18.9293 2.50094C18.9299 2.50096 18.9303 2.50098 18.9306 2.50099C18.9313 2.50102 18.9317 2.50103 18.9316 2.50103C18.9315 2.50102 18.93 2.50097 18.9271 2.50089C18.9212 2.50074 18.9096 2.50047 18.8927 2.50027C18.8589 2.49987 18.8037 2.49974 18.7295 2.50125C18.5809 2.50429 18.3572 2.51391 18.0769 2.54096C17.514 2.59531 16.7365 2.71868 15.8857 2.99244L15.5028 1.80253L15.1199 0.612625C16.179 0.271794 17.1393 0.119851 17.8367 0.0525306C18.1866 0.018754 18.4738 0.00595319 18.6785 0.00177491C18.7809 -0.000316262 18.8629 -0.000253558 18.9222 0.000444889C18.9518 0.000794172 18.9758 0.00130296 18.9938 0.00178266C19.0027 0.0020225 19.0103 0.0022552 19.0162 0.00245726C19.0192 0.00255823 19.0218 0.00265157 19.024 0.0027343C19.0251 0.00277567 19.0261 0.00281441 19.027 0.00285017C19.0275 0.00286806 19.0279 0.0028851 19.0284 0.00290143C19.0285 0.00290966 19.0288 0.00292122 19.0289 0.00292528C19.0292 0.00293672 19.0295 0.00294793 18.9785 1.25191ZM10.1239 6.12038L11.2179 6.72518C10.7761 7.52427 10.4129 8.49465 10.1882 9.67755L8.96017 9.4443L7.73212 9.21105C8.00293 7.78527 8.45166 6.56165 9.03 5.51558L10.1239 6.12038ZM8.96017 9.4443L10.1882 9.67755C9.92972 11.0384 9.70636 12.6539 9.51447 14.4501L8.27155 14.3173L7.02863 14.1845C7.22479 12.3483 7.45676 10.6609 7.73212 9.21105L8.96017 9.4443ZM7.56738 24.1418L8.81604 24.1998C8.6629 27.4921 8.56808 30.8639 8.51102 34.0148L7.26123 33.9921L6.01144 33.9695C6.06879 30.8021 6.16422 27.4057 6.31876 24.0837L7.56738 24.1418ZM7.18301 43.8481L8.43301 43.846C8.43558 45.3488 8.44424 46.574 8.4523 47.423C8.4563 47.8475 8.46017 48.1779 8.46301 48.402C8.46445 48.514 8.46561 48.5994 8.46643 48.6566C8.46683 48.6852 8.46716 48.7068 8.46738 48.7212C8.46747 48.7284 8.46756 48.7337 8.46762 48.7373C8.46765 48.7391 8.46765 48.7404 8.46768 48.7412C8.46768 48.7417 8.46768 48.742 8.46768 48.7422C8.46768 48.7423 8.46768 48.7423 8.46768 48.7424C8.46768 48.7424 8.46768 48.7424 8.46768 48.7424C8.46768 48.7424 8.46768 48.7424 7.21783 48.762C5.96799 48.7815 5.96799 48.7815 5.96799 48.7814C5.96799 48.7814 5.96799 48.7814 5.96799 48.7814C5.96799 48.7813 5.96799 48.7812 5.96799 48.781C5.96799 48.7808 5.96799 48.7804 5.96799 48.7799C5.96796 48.7789 5.96793 48.7774 5.9679 48.7755C5.96783 48.7717 5.96777 48.766 5.96765 48.7585C5.96744 48.7436 5.9671 48.7214 5.96667 48.6922C5.96585 48.6337 5.96466 48.547 5.96323 48.4338C5.96033 48.2072 5.95645 47.8741 5.95239 47.4467C5.94431 46.592 5.93558 45.3603 5.93304 43.8502L7.18301 43.8481ZM7.21783 48.762H8.46783V52.5651H7.21783H5.96783V48.762H7.21783ZM7.21783 60.1714H8.46783V67.7777H7.21783H5.96783V60.1714H7.21783ZM7.21783 75.384H8.46783V82.9902H7.21783H5.96783V75.384H7.21783ZM7.21783 90.5965H8.46783V98.2028H7.21783H5.96783V90.5965H7.21783ZM7.21783 105.809H8.46783V113.415H7.21783H5.96783V105.809H7.21783ZM7.21783 121.022H8.46783V128.628H7.21783H5.96783V121.022H7.21783ZM7.21783 136.234H8.46783V143.841H7.21783H5.96783V136.234H7.21783Z" fill="url(#paint0_linear_9230_18882)"/>
<defs>
<linearGradient id="paint0_linear_9230_18882" x1="340" y1="78.25" x2="7.18231" y2="78.25" gradientUnits="userSpaceOnUse">
<stop stop-color="#666666" stop-opacity="0"/>
<stop offset="1" stop-color="#FFD300"/>
</linearGradient>
</defs>
</svg>
