<svg width="31" height="29" viewBox="0 0 31 29" fill="none" xmlns="http://www.w3.org/2000/svg">
<g id="Icon" clip-path="url(#clip0_228_18629)">
<path id="Vector" d="M14.6641 26.1262C14.6641 25.9644 14.6641 25.924 14.6641 26.0049C14.6641 26.0857 14.6641 26.1262 14.6641 26.1262ZM22.2119 27.7705C22.2119 27.6088 22.2119 27.5683 22.2119 27.6492C22.2119 27.7301 22.2119 27.7705 22.2119 27.7705ZM23.5057 27.447C23.6675 27.447 23.7753 27.4336 23.8292 27.4066C23.8831 27.3796 23.9999 27.2763 24.1797 27.0966H23.8292C23.6675 27.0966 23.5731 27.1101 23.5462 27.137C23.5192 27.164 23.5057 27.2673 23.5057 27.447C23.5057 27.2673 23.4923 27.164 23.4653 27.137C23.4384 27.1101 23.344 27.0966 23.1823 27.0966C23.1823 27.0966 23.1958 27.155 23.2227 27.2718C23.2497 27.3886 23.344 27.447 23.5057 27.447C23.344 27.447 23.3036 27.447 23.3844 27.447C23.4653 27.447 23.5057 27.447 23.5057 27.447ZM22.8588 23.5114C22.6971 23.5114 22.6432 23.3991 22.6971 23.1745C22.751 22.9499 22.6971 22.8375 22.5353 22.8375C22.5353 22.6758 22.4814 22.5141 22.3736 22.3523C22.2658 22.1906 22.2119 22.0289 22.2119 21.8671L21.8614 21.2202C21.538 21.2202 21.1606 21.2741 20.7293 21.3819C20.298 21.4897 19.9116 21.5436 19.5702 21.5436C19.2467 21.7054 19.0041 21.8132 18.8423 21.8671C18.6806 21.921 18.5997 22.0289 18.5997 22.1906C18.5997 22.3523 18.5323 22.5006 18.3976 22.6354C18.2628 22.7701 18.1145 22.8375 17.9528 22.8375C17.7731 22.8375 17.6697 22.7836 17.6428 22.6758C17.6158 22.568 17.6024 22.5141 17.6024 22.5141H14.9876V24.4819C14.9876 24.4819 14.9472 24.4819 14.8663 24.4819C14.7854 24.4819 14.8259 24.4819 14.9876 24.4819V26.1262C14.9876 26.2879 15.0415 26.3957 15.1493 26.4497C15.2572 26.5036 15.3111 26.6114 15.3111 26.7731H15.985C16.1467 26.7731 16.2545 26.7327 16.3085 26.6518C16.3624 26.571 16.4702 26.6114 16.6319 26.7731H16.9554L17.2789 26.4497H18.2763C18.438 26.4497 18.5323 26.3957 18.5593 26.2879C18.5863 26.1801 18.5997 26.1262 18.5997 26.1262H19.2467C19.4084 26.1262 19.5162 26.0588 19.5702 25.924C19.6241 25.7892 19.7409 25.641 19.9206 25.4792H20.2441C20.4058 25.4792 20.5136 25.4208 20.5675 25.304C20.6214 25.1872 20.7293 25.1288 20.891 25.1288H21.2145C21.2145 25.1288 21.2684 25.1153 21.3762 25.0884C21.484 25.0614 21.538 24.9671 21.538 24.8053C21.538 24.8053 21.5919 24.7919 21.6997 24.7649C21.8075 24.7379 21.8614 24.6436 21.8614 24.4819V24.1584C22.0411 23.9966 22.2119 23.8888 22.3736 23.8349C22.5353 23.781 22.6971 23.6732 22.8588 23.5114ZM8.00597 12.1629C8.00597 12.0371 8.01496 11.9158 8.03293 11.799C8.0509 11.6822 8.05988 11.5609 8.05988 11.4351C8.05988 11.2913 8.08235 11.1655 8.12727 11.0577C8.1722 10.9499 8.21264 10.8151 8.24858 10.6534V10.3029C8.24858 10.2311 8.25756 10.1682 8.27553 10.1142C8.2935 10.0603 8.30249 10.0154 8.30249 9.97946C8.30249 9.87164 8.298 9.75483 8.28901 9.62903C8.28003 9.50324 8.26655 9.37744 8.24858 9.25165C8.24858 9.16179 8.2935 9.12585 8.38336 9.14382C8.47321 9.16179 8.54509 9.17976 8.59901 9.19773C8.68886 9.26962 8.78321 9.33701 8.88205 9.3999C8.98089 9.4628 9.0932 9.47628 9.219 9.44034C9.32682 9.42237 9.43914 9.36396 9.55595 9.26512C9.67276 9.16628 9.77609 9.08092 9.86594 9.00904C9.99174 8.91919 10.1175 8.83383 10.2433 8.75296C10.3691 8.67209 10.5129 8.6047 10.6746 8.55079C10.6926 8.65861 10.7285 8.78441 10.7825 8.92817C10.8364 9.07194 10.8993 9.20672 10.9711 9.33251C10.8993 9.33251 10.8723 9.35048 10.8903 9.38643C10.9082 9.42237 10.9352 9.44034 10.9711 9.44034C11.0251 9.44034 11.07 9.44932 11.1059 9.46729C11.1419 9.48527 11.1149 9.53918 11.0251 9.62903C10.7914 9.7728 10.5488 9.88511 10.2972 9.96598C10.0457 10.0469 9.78508 10.1322 9.51552 10.2221L10.3512 11.1386C10.3332 11.1745 10.2793 11.197 10.1894 11.206C10.0996 11.215 10.0367 11.2374 10.0007 11.2734C9.96478 11.2913 9.95131 11.3363 9.96029 11.4081C9.96928 11.48 9.96478 11.5339 9.94681 11.5699C9.87493 11.6238 9.78058 11.6418 9.66377 11.6238C9.54696 11.6058 9.45262 11.6418 9.38073 11.7316C9.29088 11.8394 9.219 11.9518 9.16509 12.0686C9.11117 12.1854 9.02132 12.2617 8.89552 12.2977C8.80567 12.3157 8.6664 12.3067 8.4777 12.2707C8.28901 12.2348 8.13177 12.1988 8.00597 12.1629ZM21.2145 16.6107C21.2145 16.6107 21.2145 16.6511 21.2145 16.732C21.2145 16.8128 21.2145 16.7724 21.2145 16.6107L21.538 16.9341H23.1823C23.1823 16.9341 23.2362 16.9207 23.344 16.8937C23.4518 16.8668 23.5057 16.7724 23.5057 16.6107C23.5057 16.4489 23.5192 16.3546 23.5462 16.3276C23.5731 16.3007 23.6675 16.2872 23.8292 16.2872C24.0089 16.2872 24.1123 16.2198 24.1392 16.085C24.1662 15.9502 24.1797 15.802 24.1797 15.6402C24.3414 15.6402 24.4357 15.5863 24.4627 15.4785C24.4896 15.3707 24.5031 15.3168 24.5031 15.3168V15.6402C24.5031 15.6402 24.557 15.6537 24.6649 15.6807C24.7727 15.7076 24.8266 15.802 24.8266 15.9637V16.6107C24.6649 16.7724 24.5705 16.8128 24.5436 16.732C24.5166 16.6511 24.5031 16.6107 24.5031 16.6107V17.2846C24.5031 17.4463 24.5436 17.5002 24.6244 17.4463C24.7053 17.3924 24.6649 17.4463 24.5031 17.608H24.1797C24.3414 17.608 24.3818 17.7293 24.301 17.972C24.2201 18.2146 24.1797 18.4167 24.1797 18.5785C24.1797 18.7402 24.1662 18.8345 24.1392 18.8615C24.1123 18.8885 24.0089 18.9019 23.8292 18.9019H21.8614L21.2145 18.255V16.6107ZM0.566079 1.86567C0.566079 1.86567 0.606514 1.86567 0.687382 1.86567C0.76825 1.86567 0.727816 1.86567 0.566079 1.86567C0.727816 1.70393 0.781729 1.5961 0.727816 1.54219C0.673904 1.48828 0.727816 1.38046 0.889553 1.21872C0.727816 1.21872 0.687382 1.20524 0.76825 1.17828C0.849119 1.15133 0.889553 1.05698 0.889553 0.895245H2.2104C2.37214 1.05698 2.47996 1.15133 2.53388 1.17828C2.58779 1.20524 2.69561 1.21872 2.85735 1.21872V1.54219H1.5365L1.21303 1.86567C1.21303 1.86567 1.15911 1.87914 1.05129 1.9061C0.943465 1.93306 0.889553 2.0274 0.889553 2.18914L0.566079 2.51261C0.566079 2.51261 0.579558 2.4587 0.606514 2.35088C0.63347 2.24305 0.727816 2.18914 0.889553 2.18914C0.889553 2.18914 0.943465 2.17566 1.05129 2.1487C1.15911 2.12175 1.21303 2.0274 1.21303 1.86567C1.05129 1.86567 0.903031 1.9061 0.76825 1.98697C0.63347 2.06784 0.566079 2.0274 0.566079 1.86567ZM0.889553 3.18652V2.83609L1.21303 2.51261H3.18082C3.18082 2.35088 3.29314 2.29696 3.51778 2.35088C3.74241 2.40479 3.85473 2.35088 3.85473 2.18914H3.18082C3.18082 2.18914 3.1943 2.13523 3.22126 2.0274C3.24821 1.91958 3.34256 1.86567 3.5043 1.86567H4.82515L5.14862 1.54219C5.14862 1.54219 5.20253 1.52871 5.31036 1.50176C5.41818 1.4748 5.4721 1.38046 5.4721 1.21872C5.6518 1.21872 5.76861 1.16481 5.82253 1.05698C5.87644 0.949158 5.98426 0.895245 6.146 0.895245H7.79032C7.79032 0.895245 7.8038 0.949158 7.83076 1.05698C7.85771 1.16481 7.95206 1.21872 8.1138 1.21872H8.76074C8.76074 1.05698 8.76074 1.01655 8.76074 1.09742C8.76074 1.17828 8.76074 1.21872 8.76074 1.21872L9.08422 1.54219H9.40769C9.40769 1.54219 9.4661 1.55567 9.58291 1.58263C9.69972 1.60958 9.75812 1.70393 9.75812 1.86567H12.0494C12.2111 1.86567 12.319 1.81175 12.3729 1.70393C12.4268 1.5961 12.5346 1.54219 12.6963 1.54219H13.3433C13.3433 1.54219 13.3972 1.50176 13.505 1.42089C13.6128 1.34002 13.6668 1.38046 13.6668 1.54219H14.3407V1.86567L14.6641 2.18914V2.51261H14.9876L15.3111 2.83609C15.3111 2.83609 15.2572 2.79565 15.1493 2.71478C15.0415 2.63391 14.9876 2.67435 14.9876 2.83609V3.18652H14.6641V3.83346C14.6641 3.83346 14.6776 3.88737 14.7046 3.9952C14.7315 4.10302 14.8259 4.15694 14.9876 4.15694V4.48041C14.9876 4.64215 15.0011 4.69606 15.028 4.64215C15.055 4.58823 15.1493 4.64215 15.3111 4.80388V5.47779C15.1493 5.47779 15.055 5.51822 15.028 5.59909C15.0011 5.67996 14.9876 5.63952 14.9876 5.47779V5.15431H13.6668C13.6668 5.15431 13.6128 5.19475 13.505 5.27562C13.3972 5.35648 13.3433 5.31605 13.3433 5.15431H12.3729C12.2111 5.15431 12.0314 5.20823 11.8337 5.31605C11.6361 5.42387 11.3755 5.47779 11.052 5.47779H10.4051C10.4051 5.47779 10.3512 5.43735 10.2433 5.35648C10.1355 5.27562 10.0816 5.31605 10.0816 5.47779C9.91986 5.47779 9.76711 5.51822 9.62334 5.59909C9.47957 5.67996 9.40769 5.63952 9.40769 5.47779H9.08422V5.80126H8.76074V6.44821H8.43727V5.80126C8.43727 5.80126 8.4777 5.78778 8.55857 5.76083C8.63944 5.73387 8.59901 5.63952 8.43727 5.47779H7.79032C7.79032 5.47779 7.73192 5.46431 7.61511 5.43735C7.4983 5.4104 7.43989 5.31605 7.43989 5.15431C7.27816 5.15431 7.17033 5.20823 7.11642 5.31605C7.06251 5.42387 6.95468 5.47779 6.79295 5.47779C6.79295 5.47779 6.77947 5.51822 6.75251 5.59909C6.72556 5.67996 6.63121 5.63952 6.46947 5.47779H5.82253C5.64282 5.47779 5.53949 5.42387 5.51253 5.31605C5.48557 5.20823 5.4721 5.15431 5.4721 5.15431C5.31036 5.15431 5.20253 5.09591 5.14862 4.9791C5.09471 4.86229 4.98689 4.80388 4.82515 4.80388H4.50167V5.15431H3.85473C3.85473 5.15431 3.84125 5.09591 3.81429 4.9791C3.78734 4.86229 3.68401 4.80388 3.5043 4.80388C3.5043 4.80388 3.5043 4.76345 3.5043 4.68258C3.5043 4.60171 3.5043 4.64215 3.5043 4.80388C3.5043 4.80388 3.45039 4.79041 3.34256 4.76345C3.23474 4.73649 3.18082 4.64215 3.18082 4.48041L2.85735 4.80388H1.88693C1.72519 4.64215 1.69824 4.60171 1.80606 4.68258C1.91389 4.76345 2.04867 4.80388 2.2104 4.80388C2.04867 4.98359 1.99475 4.97461 2.04867 4.77693C2.10258 4.57925 2.04867 4.48041 1.88693 4.48041C1.88693 4.48041 1.92736 4.46693 2.00823 4.43998C2.0891 4.41302 2.04867 4.31867 1.88693 4.15694H1.5365C1.5365 4.15694 1.52302 4.1165 1.49607 4.03563C1.46911 3.95477 1.37476 3.9952 1.21303 4.15694H0.889553C1.05129 4.15694 1.09172 4.10302 1.01086 3.9952C0.929987 3.88737 0.889553 3.83346 0.889553 3.83346V4.15694C0.889553 3.9952 0.943465 3.95477 1.05129 4.03563C1.15911 4.1165 1.21303 4.15694 1.21303 4.15694C1.21303 4.15694 1.15911 4.14346 1.05129 4.1165C0.943465 4.08955 0.889553 3.9952 0.889553 3.83346H1.21303C1.21303 3.83346 1.17259 3.83346 1.09172 3.83346C1.01086 3.83346 1.05129 3.83346 1.21303 3.83346V3.50999L1.5365 3.18652C1.37476 3.02478 1.2265 2.98434 1.09172 3.06521C0.956943 3.14608 0.889553 3.18652 0.889553 3.18652ZM10.6746 8.55079C10.8723 8.42499 11.079 8.30818 11.2946 8.20036C11.5103 8.09253 11.7259 7.96674 11.9416 7.82297C11.9955 7.78703 12.0539 7.7421 12.1168 7.68819C12.1797 7.63428 12.2381 7.57138 12.292 7.4995C12.3639 7.39167 12.3863 7.27936 12.3594 7.16254C12.3324 7.04573 12.3279 6.96037 12.3459 6.90646C12.3459 6.72676 12.3639 6.61444 12.3998 6.56951C12.4358 6.52458 12.4447 6.45719 12.4268 6.36734C12.4268 6.27748 12.3863 6.16517 12.3055 6.03039C12.2246 5.89561 12.2381 5.78329 12.3459 5.69344C12.4178 5.65749 12.4852 5.63503 12.5481 5.62605C12.611 5.61706 12.6694 5.57663 12.7233 5.50474C12.7772 5.48677 12.8491 5.42837 12.9389 5.32953C13.0288 5.23069 13.0558 5.17228 13.0198 5.15431C12.9839 5.11837 12.9839 5.10939 13.0198 5.12736C13.0558 5.14533 13.0737 5.15431 13.0737 5.15431C13.1097 5.15431 13.1411 5.13185 13.1681 5.08692C13.195 5.042 13.2265 5.00156 13.2624 4.96562C13.2984 4.92968 13.3837 4.92069 13.5185 4.93866C13.6533 4.95663 13.7476 4.96562 13.8015 4.96562C13.8375 4.96562 13.8689 4.97461 13.8959 4.99258C13.9228 5.01055 13.9543 5.01953 13.9902 5.01953C14.0441 5.01953 14.0891 5.01055 14.125 4.99258C14.161 4.97461 14.1969 4.96562 14.2328 4.96562C14.3586 4.92968 14.4081 4.97011 14.3811 5.08692C14.3541 5.20373 14.3856 5.26214 14.4754 5.26214C14.5294 5.26214 14.5698 5.23518 14.5967 5.18127C14.6237 5.12736 14.6641 5.1004 14.718 5.1004C14.772 5.1004 14.8079 5.14533 14.8259 5.23518C14.8438 5.32504 14.8708 5.39692 14.9067 5.45083C14.9247 5.48677 14.9427 5.50474 14.9607 5.50474C14.9786 5.50474 14.9966 5.50474 15.0146 5.50474C15.0505 5.54068 15.064 5.58112 15.055 5.62605C15.046 5.67097 15.0505 5.69344 15.0685 5.69344C15.1404 5.74735 15.2167 5.81025 15.2976 5.88213C15.3785 5.95401 15.383 6.03488 15.3111 6.12473C15.4009 6.08879 15.4683 6.09778 15.5133 6.15169C15.5582 6.2056 15.5986 6.23256 15.6346 6.23256C15.6885 6.2685 15.7334 6.27299 15.7693 6.24604C15.8053 6.21908 15.9221 6.21459 16.1198 6.23256C16.1198 6.30444 16.0883 6.34038 16.0254 6.34038C15.9625 6.34038 15.9311 6.36734 15.9311 6.42125C15.8951 6.5111 15.9086 6.58299 15.9715 6.6369C16.0344 6.69081 16.0838 6.7627 16.1198 6.85255C16.1198 6.9424 16.0883 6.96936 16.0254 6.93342C15.9625 6.89748 15.9311 6.92443 15.9311 7.01429C15.9311 7.05023 15.9176 7.07269 15.8906 7.08168C15.8637 7.09066 15.8322 7.11312 15.7963 7.14907C15.7963 7.18501 15.8008 7.22544 15.8098 7.27037C15.8188 7.3153 15.8412 7.35573 15.8772 7.39167C15.8412 7.39167 15.8098 7.38718 15.7828 7.37819C15.7559 7.36921 15.7244 7.35573 15.6885 7.33776C15.6885 7.35573 15.6795 7.38269 15.6615 7.41863C15.6435 7.45457 15.6525 7.48153 15.6885 7.4995C15.7244 7.53544 15.7514 7.56689 15.7693 7.59384C15.7873 7.6208 15.7783 7.65225 15.7424 7.68819C15.7064 7.7421 15.6795 7.78254 15.6615 7.80949C15.6435 7.83645 15.6525 7.87688 15.6885 7.9308C15.7244 7.96674 15.7559 8.00717 15.7828 8.0521C15.8098 8.09702 15.8592 8.13746 15.9311 8.1734C15.967 8.20934 16.0569 8.2947 16.2006 8.42948C16.3444 8.56426 16.3534 8.65861 16.2276 8.71252C16.2815 8.71252 16.3085 8.73499 16.3085 8.77991C16.3085 8.82484 16.3444 8.8473 16.4163 8.8473C16.4702 8.8473 16.5196 8.86078 16.5645 8.88774C16.6095 8.91469 16.6589 8.93716 16.7128 8.95513C16.7667 8.99107 16.8431 9.05397 16.9419 9.14382C17.0408 9.23368 17.1441 9.29657 17.2519 9.33251C17.3238 9.33251 17.4002 9.39541 17.4811 9.52121C17.5619 9.647 17.6293 9.74584 17.6832 9.81772C17.7731 9.87164 17.8045 9.94352 17.7776 10.0334C17.7506 10.1232 17.7192 10.2131 17.6832 10.3029C17.6832 10.3209 17.6877 10.3838 17.6967 10.4916C17.7057 10.5995 17.7371 10.6534 17.791 10.6534C17.827 10.6534 17.8629 10.6579 17.8989 10.6668C17.9348 10.6758 17.9618 10.6893 17.9797 10.7073C18.0157 10.7432 18.0337 10.7881 18.0337 10.8421C18.0337 10.896 18.0337 10.9319 18.0337 10.9499C18.0337 10.9858 18.0516 11.0352 18.0876 11.0981C18.1235 11.161 18.1864 11.2374 18.2763 11.3273C18.3481 11.3452 18.3841 11.3902 18.3841 11.462C18.3841 11.5339 18.411 11.5878 18.465 11.6238C18.429 11.6238 18.3392 11.6103 18.1954 11.5834C18.0516 11.5564 17.9797 11.5339 17.9797 11.516C18.0157 11.5699 17.9932 11.5834 17.9123 11.5564C17.8315 11.5294 17.7731 11.516 17.7371 11.516C17.6832 11.516 17.6158 11.5205 17.535 11.5294C17.4541 11.5384 17.4047 11.5699 17.3867 11.6238C17.3148 11.7496 17.2564 11.9113 17.2115 12.109C17.1666 12.3067 17.0453 12.4055 16.8476 12.4055L15.7424 12.2977C15.5627 12.2617 15.4414 12.1988 15.3785 12.109C15.3156 12.0191 15.1943 11.9203 15.0146 11.8125C14.5653 11.471 14.107 11.1161 13.6398 10.7477C13.1726 10.3793 12.6874 10.0873 12.1842 9.87164C12.0045 9.78178 11.8248 9.73236 11.6451 9.72338C11.4653 9.71439 11.3036 9.68294 11.1598 9.62903C11.2497 9.50324 11.2587 9.44483 11.1868 9.45382C11.1149 9.4628 11.061 9.44034 11.0251 9.38643V9.25165C11.061 9.23368 11.0655 9.20672 11.0385 9.17078C11.0116 9.13484 10.9891 9.10788 10.9711 9.08991C10.8813 9.01803 10.8139 8.93266 10.769 8.83383C10.724 8.73499 10.6926 8.64064 10.6746 8.55079ZM24.1797 14.3194L23.8292 14.6429C23.8292 14.6429 23.8876 14.6294 24.0044 14.6024C24.1212 14.5755 24.1797 14.4811 24.1797 14.3194ZM14.0172 3.18652C14.0172 3.18652 14.0576 3.18652 14.1385 3.18652C14.2194 3.18652 14.1789 3.18652 14.0172 3.18652L14.3407 2.83609C14.3407 2.83609 14.3541 2.89449 14.3811 3.0113C14.4081 3.12811 14.5024 3.18652 14.6641 3.18652C14.6641 3.18652 14.718 3.19999 14.8259 3.22695C14.9337 3.25391 14.9876 3.34825 14.9876 3.50999L15.3111 3.83346H15.6346L15.985 3.50999H16.3085L16.6319 3.18652C16.7937 3.18652 16.9015 3.19999 16.9554 3.22695C17.0093 3.25391 17.1171 3.34825 17.2789 3.50999C17.1171 3.50999 17.0767 3.5639 17.1576 3.67173C17.2384 3.77955 17.2789 3.83346 17.2789 3.83346C17.1171 3.83346 17.0767 3.88737 17.1576 3.9952C17.2384 4.10302 17.2789 4.15694 17.2789 4.15694L17.6024 4.48041C17.6024 4.64215 17.6158 4.7949 17.6428 4.93866C17.6697 5.08243 17.7731 5.15431 17.9528 5.15431H18.5997L19.2467 5.80126C19.4084 5.80126 19.5746 5.84169 19.7454 5.92256C19.9161 6.00343 20.0823 5.963 20.2441 5.80126C20.4058 5.80126 20.581 5.74735 20.7697 5.63952C20.9584 5.5317 21.2145 5.47779 21.538 5.47779V5.15431H21.8614C22.0411 5.15431 22.0861 5.14083 21.9962 5.11388C21.9064 5.08692 21.8614 4.98359 21.8614 4.80388L22.2119 4.48041H24.1797L24.5031 4.80388H25.1501C25.3118 4.80388 25.4062 4.81736 25.4331 4.84432C25.4601 4.87127 25.4735 4.97461 25.4735 5.15431C25.4735 5.15431 25.5275 5.16779 25.6353 5.19475C25.7431 5.2217 25.797 5.31605 25.797 5.47779C25.797 5.47779 25.8105 5.5317 25.8375 5.63952C25.8644 5.74735 25.9677 5.80126 26.1474 5.80126H26.7944V6.77168C26.7944 6.95139 26.7809 7.10863 26.754 7.24341C26.727 7.37819 26.6327 7.44559 26.4709 7.44559C26.4709 7.44559 26.417 7.45906 26.3092 7.48602C26.2014 7.51298 26.1474 7.60732 26.1474 7.76906C26.1474 7.76906 26.1609 7.87688 26.1879 8.09253C26.2148 8.30818 26.3092 8.41601 26.4709 8.41601C26.6327 8.41601 26.6731 8.46992 26.5922 8.57774C26.5114 8.68557 26.4709 8.73948 26.4709 8.73948C26.4709 8.90122 26.5248 9.05397 26.6327 9.19773C26.7405 9.3415 26.7944 9.41338 26.7944 9.41338C26.7944 9.57512 26.8079 9.68294 26.8348 9.73686C26.8618 9.79077 26.9561 9.89859 27.1179 10.0603H27.7648C27.9445 10.0603 28.0344 10.1277 28.0344 10.2625C28.0344 10.3973 27.9445 10.5455 27.7648 10.7073L27.1179 11.3812L27.4413 11.7047C27.6031 11.8664 27.7558 12.0686 27.8996 12.3112C28.0434 12.5538 28.1152 12.6751 28.1152 12.6751H28.7622L29.0857 13.349C29.0857 13.5107 29.0991 13.6051 29.1261 13.632C29.1531 13.659 29.2474 13.6725 29.4091 13.6725V13.9959C29.4091 14.1577 29.3013 14.2116 29.0857 14.1577C28.87 14.1037 28.7622 14.1577 28.7622 14.3194H28.4387V15.3168C28.4387 15.4785 28.3848 15.5189 28.277 15.4381C28.1692 15.3572 28.1152 15.3168 28.1152 15.3168H27.7648C27.7648 15.3168 27.7244 15.3168 27.6435 15.3168C27.5626 15.3168 27.6031 15.3168 27.7648 15.3168H25.797C25.797 15.3168 25.7835 15.2718 25.7566 15.182C25.7296 15.0921 25.6353 15.1371 25.4735 15.3168C25.4735 15.3168 25.4196 15.3033 25.3118 15.2763C25.204 15.2494 25.1501 15.1461 25.1501 14.9663C24.9883 14.8046 24.894 14.6564 24.867 14.5216C24.8401 14.3868 24.8266 14.3194 24.8266 14.3194C24.8266 14.1577 24.7592 14.0633 24.6244 14.0364C24.4896 14.0094 24.3414 13.9959 24.1797 13.9959H23.8292C23.8292 13.9959 23.7753 14.0094 23.6675 14.0364C23.5597 14.0633 23.5057 14.1577 23.5057 14.3194H23.1823L22.8588 14.6429C22.6971 14.6429 22.5892 14.589 22.5353 14.4811C22.4814 14.3733 22.3736 14.3194 22.2119 14.3194C22.0501 14.3194 21.9378 14.3059 21.8749 14.279C21.812 14.252 21.6997 14.1577 21.538 13.9959C21.538 13.9959 21.484 13.9824 21.3762 13.9555C21.2684 13.9285 21.2145 13.8342 21.2145 13.6725C21.2145 13.6725 21.1606 13.659 21.0527 13.632C20.9449 13.6051 20.891 13.5107 20.891 13.349L20.5675 12.9985H19.9206C19.7409 12.9985 19.6375 12.9312 19.6106 12.7964C19.5836 12.6616 19.5702 12.5133 19.5702 12.3516V12.0281C19.5702 12.0281 19.5162 12.0146 19.4084 11.9877C19.3006 11.9607 19.2467 11.8664 19.2467 11.7047C19.2467 11.7047 19.2062 11.7047 19.1254 11.7047C19.0445 11.7047 19.0849 11.7047 19.2467 11.7047C19.2467 11.7047 19.2332 11.6507 19.2062 11.5429C19.1793 11.4351 19.0849 11.3812 18.9232 11.3812L18.5997 11.0577C18.5997 10.878 18.5458 10.8735 18.438 11.0442C18.3302 11.215 18.2763 11.2194 18.2763 11.0577H17.6024C17.4406 11.0577 17.3867 11.1116 17.4406 11.2194C17.4945 11.3273 17.4406 11.3812 17.2789 11.3812V11.0577L16.9554 10.7073V10.3838C16.7937 10.3838 16.7128 10.3164 16.7128 10.1816C16.7128 10.0469 16.7937 9.89859 16.9554 9.73686C16.9554 9.57512 16.9419 9.48077 16.915 9.45382C16.888 9.42686 16.7937 9.41338 16.6319 9.41338C16.6319 9.25165 16.6185 9.1573 16.5915 9.13034C16.5645 9.10339 16.4702 9.08991 16.3085 9.08991C16.1467 9.08991 16.0524 9.0315 16.0254 8.91469C15.9985 8.79788 15.985 8.73948 15.985 8.73948H15.3111C15.4728 8.73948 15.4593 8.63165 15.2706 8.41601C15.082 8.20036 14.9876 8.09253 14.9876 8.09253L14.6641 7.76906V6.12473C14.6641 6.12473 14.6237 6.07082 14.5428 5.963C14.462 5.85517 14.5024 5.80126 14.6641 5.80126C14.6641 5.80126 14.718 5.78778 14.8259 5.76083C14.9337 5.73387 14.9876 5.63952 14.9876 5.47779H14.3407C14.3407 5.47779 14.3272 5.43735 14.3002 5.35648C14.2733 5.27562 14.1789 5.31605 14.0172 5.47779C14.0172 5.31605 13.9588 5.20823 13.842 5.15431C13.7252 5.1004 13.6668 4.98359 13.6668 4.80388V4.48041L13.3433 4.15694V3.50999H13.0198V3.18652C12.8581 3.18652 12.8042 3.12811 12.8581 3.0113C12.912 2.89449 12.8581 2.83609 12.6963 2.83609C13.3433 3.17753 13.7252 3.36173 13.842 3.38869C13.9588 3.41564 14.0172 3.34825 14.0172 3.18652C14.0172 3.34825 14.0172 3.38869 14.0172 3.30782C14.0172 3.22695 14.0172 3.18652 14.0172 3.18652ZM8.24858 8.65861C8.26655 8.62267 8.30698 8.56876 8.36988 8.49687C8.43278 8.42499 8.49118 8.38006 8.54509 8.36209C8.45524 8.27224 8.45075 8.20934 8.53162 8.1734C8.61248 8.13746 8.69785 8.11949 8.7877 8.11949C8.73379 8.02963 8.73379 7.97123 8.7877 7.94427C8.84161 7.91732 8.87755 7.87688 8.89552 7.82297C8.89552 7.78703 8.88205 7.73761 8.85509 7.67471C8.82813 7.61181 8.7877 7.58037 8.73379 7.58037C8.6619 7.58037 8.65741 7.54892 8.72031 7.48602C8.78321 7.42312 8.76074 7.40964 8.65292 7.44559C8.50915 7.48153 8.42379 7.46355 8.39684 7.39167C8.36988 7.31979 8.3564 7.25689 8.3564 7.20298C8.3564 7.14907 8.36089 7.07269 8.36988 6.97385C8.37887 6.87501 8.3564 6.78965 8.30249 6.71777C8.24858 6.68183 8.2351 6.61893 8.26206 6.52908C8.28901 6.43922 8.30249 6.35835 8.30249 6.28647C8.30249 6.2685 8.33394 6.27748 8.39684 6.31343C8.45973 6.34937 8.49118 6.36734 8.49118 6.36734L8.59901 6.23256C8.63495 6.21459 8.64843 6.17865 8.63944 6.12473C8.63046 6.07082 8.63495 6.02589 8.65292 5.98995H8.89552C8.87755 5.93604 8.85509 5.88662 8.82813 5.84169C8.80118 5.79677 8.7877 5.74735 8.7877 5.69344C8.7877 5.65749 8.79219 5.61706 8.80118 5.57213C8.81016 5.52721 8.82364 5.48677 8.84161 5.45083H9.0303C9.08422 5.48677 9.12465 5.52271 9.15161 5.55865C9.17856 5.5946 9.219 5.60358 9.27291 5.58561C9.32682 5.58561 9.38523 5.57213 9.44812 5.54518C9.51102 5.51822 9.56943 5.48677 9.62334 5.45083C9.69522 5.41489 9.76261 5.38793 9.82551 5.36996C9.88841 5.35199 9.96478 5.34301 10.0546 5.34301C10.1086 5.34301 10.158 5.36547 10.2029 5.4104C10.2478 5.45532 10.2972 5.48677 10.3512 5.50474C10.423 5.54068 10.5084 5.55865 10.6072 5.55865C10.7061 5.55865 10.7825 5.54068 10.8364 5.50474C10.9981 5.50474 11.1419 5.46431 11.2677 5.38344C11.3935 5.30257 11.5372 5.24417 11.699 5.20823C11.8427 5.15431 11.991 5.14533 12.1437 5.18127C12.2965 5.21721 12.4447 5.20823 12.5885 5.15431C12.6784 5.11837 12.7637 5.07344 12.8446 5.01953C12.9255 4.96562 12.9839 5.02852 13.0198 5.20823C13.0198 5.24417 12.9884 5.29808 12.9255 5.36996C12.8626 5.44184 12.8131 5.48677 12.7772 5.50474C12.7233 5.57663 12.6649 5.61706 12.602 5.62605C12.5391 5.63503 12.4807 5.65749 12.4268 5.69344C12.301 5.78329 12.2695 5.89561 12.3324 6.03039C12.3953 6.16517 12.4447 6.27748 12.4807 6.36734C12.4807 6.42125 12.4717 6.47966 12.4537 6.54255C12.4358 6.60545 12.4268 6.66386 12.4268 6.71777V7.33776C12.4268 7.53544 12.1168 7.79601 11.4968 8.11949C10.8768 8.44296 10.3601 8.73948 9.94681 9.00904C9.82102 9.11687 9.67276 9.22469 9.50204 9.33251C9.33132 9.44034 9.17407 9.44034 9.0303 9.33251C8.97639 9.29657 8.92697 9.26512 8.88205 9.23817C8.83712 9.21121 8.7877 9.17976 8.73379 9.14382C8.64393 9.08991 8.56756 9.06745 8.50466 9.07643C8.44176 9.08542 8.41031 9.08991 8.41031 9.08991C8.3564 9.10788 8.32945 9.04049 8.32945 8.88774C8.32945 8.73499 8.30249 8.65861 8.24858 8.65861ZM26.7944 20.5463C26.9561 20.3845 26.9966 20.2902 26.9157 20.2632C26.8348 20.2363 26.7944 20.2228 26.7944 20.2228C26.9561 20.2228 26.9966 20.2363 26.9157 20.2632C26.8348 20.2902 26.7944 20.3845 26.7944 20.5463ZM24.5031 14.9663C24.5031 14.9663 24.5436 14.9663 24.6244 14.9663C24.7053 14.9663 24.6649 14.9663 24.5031 14.9663C24.6649 14.9663 24.7457 15.0247 24.7457 15.1416C24.7457 15.2584 24.6649 15.3168 24.5031 15.3168V14.9663ZM21.8614 21.5436C22.3646 21.3819 22.7914 21.2292 23.1418 21.0854C23.4923 20.9416 23.8382 20.8697 24.1797 20.8697C24.3414 20.708 24.3818 20.6945 24.301 20.8293C24.2201 20.9641 24.1797 20.8697 24.1797 20.5463C24.1797 20.3845 24.1931 20.2228 24.2201 20.0611C24.247 19.8993 24.3414 19.7376 24.5031 19.5758C24.5031 19.4141 24.5436 19.2614 24.6244 19.1176C24.7053 18.9738 24.6649 18.9019 24.5031 18.9019L24.1797 18.5785C24.1797 18.4167 24.2201 18.2146 24.301 17.972C24.3818 17.7293 24.3414 17.608 24.1797 17.608H24.5031V16.9341C24.5031 17.1139 24.5031 17.1588 24.5031 17.0689C24.5031 16.9791 24.5031 16.9341 24.5031 16.9341C24.5031 17.1139 24.557 17.2307 24.6649 17.2846C24.7727 17.3385 24.8266 17.4463 24.8266 17.608C24.9883 17.7698 25.1501 17.8641 25.3118 17.8911C25.4735 17.918 25.6353 17.9315 25.797 17.9315H26.1474C26.3092 17.9315 26.4035 17.9854 26.4305 18.0933C26.4574 18.2011 26.4709 18.255 26.4709 18.255C26.4709 18.255 26.4844 18.3089 26.5114 18.4167C26.5383 18.5246 26.6327 18.5785 26.7944 18.5785L27.1179 18.9019C27.2796 18.9019 27.32 19.0143 27.2392 19.2389C27.1583 19.4635 27.1179 19.5758 27.1179 19.5758C27.1179 19.7376 27.0505 19.8993 26.9157 20.0611C26.7809 20.2228 26.6327 20.3845 26.4709 20.5463C26.4709 20.5463 26.4574 20.6002 26.4305 20.708C26.4035 20.8158 26.3092 20.8697 26.1474 20.8697C26.1474 20.8697 26.134 20.8293 26.107 20.7484C26.0801 20.6676 25.9767 20.708 25.797 20.8697C25.6353 20.8697 25.5814 20.9416 25.6353 21.0854C25.6892 21.2292 25.6353 21.3819 25.4735 21.5436V22.5141C25.3118 22.5141 25.1635 22.5275 25.0288 22.5545C24.894 22.5815 24.8266 22.6758 24.8266 22.8375V23.161H24.5031C24.3414 23.161 24.247 23.179 24.2201 23.2149C24.1931 23.2509 24.1797 23.3497 24.1797 23.5114V23.8349C24.1797 23.8349 24.1662 23.8888 24.1392 23.9966C24.1123 24.1045 24.0089 24.1584 23.8292 24.1584H23.5057C23.344 24.1584 23.1823 24.2123 23.0205 24.3201C22.8588 24.4279 22.6971 24.4819 22.5353 24.4819C22.3736 24.4819 22.3197 24.374 22.3736 24.1584C22.4275 23.9427 22.3736 23.8349 22.2119 23.8349C22.2119 23.8349 22.1984 23.7675 22.1714 23.6327C22.1445 23.498 22.0411 23.3407 21.8614 23.161C22.0411 22.6758 22.0861 22.3254 21.9962 22.1097C21.9064 21.8941 21.8614 21.7054 21.8614 21.5436ZM0.242606 11.5699C0.188694 11.4441 0.206664 11.3228 0.296518 11.206C0.386372 11.0892 0.413328 10.9679 0.377387 10.8421C0.341445 10.7163 0.301011 10.5995 0.256084 10.4916C0.211157 10.3838 0.287533 10.258 0.485211 10.1142C0.485211 10.2041 0.530138 10.2445 0.619992 10.2355C0.709846 10.2266 0.790714 10.2041 0.862597 10.1682C0.952451 10.1322 1.0468 10.1232 1.14564 10.1412C1.24448 10.1592 1.34781 10.1682 1.45563 10.1682C1.58143 10.1682 1.69374 10.1816 1.79258 10.2086C1.89142 10.2355 2.00374 10.267 2.12954 10.3029C2.18345 10.3029 2.21939 10.3254 2.23736 10.3703C2.25533 10.4153 2.28229 10.4467 2.31823 10.4647H2.56083C2.5788 10.4647 2.59677 10.4781 2.61475 10.5051C2.63272 10.5321 2.65069 10.5635 2.66866 10.5995H2.85735C2.98315 10.5995 3.08648 10.6309 3.16735 10.6938C3.24821 10.7567 3.34256 10.7881 3.45039 10.7881C3.54024 10.8061 3.63908 10.7837 3.7469 10.7208C3.85473 10.6579 3.94458 10.5995 4.01646 10.5455C4.03444 10.5096 4.06139 10.4781 4.09733 10.4512C4.13327 10.4242 4.18719 10.3928 4.25907 10.3568C4.27704 10.3928 4.304 10.4197 4.33994 10.4377C4.37588 10.4557 4.40284 10.4467 4.42081 10.4108C4.40284 10.4108 4.38936 10.4018 4.38037 10.3838C4.37139 10.3658 4.36689 10.3748 4.36689 10.4108L4.55559 10.2221C4.6095 10.258 4.6679 10.258 4.7308 10.2221C4.7937 10.1861 4.8521 10.1682 4.90602 10.1682C4.88805 10.2041 4.8521 10.2266 4.79819 10.2355C4.74428 10.2445 4.69935 10.285 4.66341 10.3568C4.66341 10.3568 4.74428 10.3254 4.90602 10.2625C5.06775 10.1996 5.09471 10.1682 4.98689 10.1682C5.07674 10.1322 5.15311 10.1457 5.21601 10.2086C5.27891 10.2715 5.35529 10.3029 5.44514 10.3029C5.48108 10.3029 5.52601 10.285 5.57992 10.249C5.63383 10.2131 5.66977 10.2041 5.68774 10.2221C5.72369 10.2221 5.75963 10.2445 5.79557 10.2895C5.75963 10.2445 5.70572 10.2221 5.63383 10.2221C5.63383 10.258 5.62934 10.3074 5.62035 10.3703C5.61137 10.4332 5.63383 10.4647 5.68774 10.4647C5.75963 10.5006 5.79557 10.5231 5.79557 10.5321C5.79557 10.541 5.82253 10.5635 5.87644 10.5995C5.87644 10.5635 5.90789 10.5276 5.97078 10.4916C6.03368 10.4557 6.0202 10.4108 5.93035 10.3568C6.0202 10.3928 6.09658 10.4377 6.15948 10.4916C6.22237 10.5455 6.30774 10.5635 6.41556 10.5455C6.4515 10.5455 6.50991 10.5276 6.59078 10.4916C6.67164 10.4557 6.69411 10.4737 6.65817 10.5455C6.73005 10.5096 6.80642 10.4871 6.88729 10.4781C6.96816 10.4692 7.03555 10.4647 7.08946 10.4647C7.14338 10.4467 7.20178 10.4287 7.26468 10.4108C7.32758 10.3928 7.39497 10.3568 7.46685 10.3029L8.05988 11.9742C7.97003 12.082 7.92061 12.2213 7.91163 12.392C7.90264 12.5628 7.87119 12.711 7.81728 12.8368C7.78134 12.8907 7.76337 12.9491 7.76337 13.012C7.76337 13.0749 7.76337 13.1333 7.76337 13.1872C7.76337 13.2591 7.73641 13.322 7.6825 13.3759C7.62859 13.4298 7.61062 13.4927 7.62859 13.5646C7.61062 13.5287 7.57467 13.4972 7.52076 13.4703C7.46685 13.4433 7.42192 13.4119 7.38598 13.3759C7.33207 13.34 7.28714 13.2951 7.2512 13.2412C7.21526 13.1872 7.17932 13.1333 7.14338 13.0794C7.08946 13.0255 7.01758 12.9626 6.92773 12.8907C6.83787 12.8188 6.81092 12.738 6.84686 12.6481C6.8828 12.5583 6.86034 12.4729 6.77947 12.392C6.6986 12.3112 6.64019 12.2348 6.60425 12.1629C6.55034 12.0731 6.49643 11.9697 6.44252 11.8529C6.3886 11.7361 6.34368 11.6238 6.30774 11.516C6.25382 11.5699 6.21339 11.6373 6.18643 11.7181C6.15948 11.799 6.15498 11.8664 6.17296 11.9203C6.26281 12.0102 6.31672 12.1135 6.33469 12.2303C6.35266 12.3471 6.40657 12.4684 6.49643 12.5942C6.55034 12.6841 6.60875 12.7739 6.67164 12.8638C6.73454 12.9536 6.81092 13.0435 6.90077 13.1333L7.08946 13.322C7.1254 13.358 7.15685 13.4029 7.18381 13.4568C7.21077 13.5107 7.17932 13.5017 7.08946 13.4298C7.14338 13.5017 7.16135 13.5646 7.14338 13.6185C7.1254 13.6725 7.15236 13.7174 7.22424 13.7533C7.27816 13.8072 7.32308 13.8656 7.35902 13.9285C7.39497 13.9914 7.43091 14.0498 7.46685 14.1037C7.46685 14.1397 7.47583 14.1711 7.49381 14.1981C7.51178 14.2251 7.53873 14.2565 7.57467 14.2924C7.61062 14.3104 7.61511 14.3374 7.58815 14.3733C7.5612 14.4093 7.53873 14.4452 7.52076 14.4811C7.52076 14.4991 7.53873 14.5306 7.57467 14.5755C7.61062 14.6204 7.62859 14.6429 7.62859 14.6429L7.81728 15.0203C7.90713 15.2359 8.00597 15.4381 8.1138 15.6268C8.22162 15.8155 8.32046 16.0176 8.41031 16.2333C8.44626 16.3231 8.49118 16.3995 8.54509 16.4624C8.59901 16.5253 8.6619 16.5837 8.73379 16.6376C8.7877 16.7095 8.8461 16.7634 8.909 16.7994C8.9719 16.8353 9.0303 16.8892 9.08422 16.9611C9.04828 16.9611 9.00784 16.9566 8.96291 16.9476C8.91799 16.9386 8.87755 16.9162 8.84161 16.8802C8.82364 17.006 8.82364 17.1363 8.84161 17.2711C8.85958 17.4059 8.87755 17.5002 8.89552 17.5541C8.96741 17.608 8.95842 17.6799 8.86857 17.7698C8.77871 17.8596 8.68886 17.9046 8.59901 17.9046C8.58104 17.9046 8.55408 17.9001 8.51814 17.8911C8.4822 17.8821 8.44626 17.9135 8.41031 17.9854C8.39234 18.0034 8.37887 18.0393 8.36988 18.0933C8.36089 18.1472 8.33843 18.1921 8.30249 18.228C8.26655 18.2819 8.24408 18.3224 8.2351 18.3493C8.22611 18.3763 8.18568 18.3898 8.1138 18.3898C8.09583 18.3898 8.0509 18.3988 7.97902 18.4167C7.90713 18.4347 7.85322 18.4706 7.81728 18.5246C7.78134 18.6144 7.75438 18.6953 7.73641 18.7672C7.71844 18.839 7.64656 18.875 7.52076 18.875C7.35902 18.875 7.23772 18.8345 7.15685 18.7537C7.07599 18.6728 6.99062 18.6324 6.90077 18.6324C6.63121 18.6324 6.41556 18.6414 6.25382 18.6593C6.09209 18.6773 5.90339 18.6683 5.68774 18.6324C5.68774 18.6144 5.69673 18.5875 5.7147 18.5515C5.73267 18.5156 5.72369 18.4886 5.68774 18.4706C5.66977 18.3988 5.64282 18.3943 5.60688 18.4572C5.57093 18.5201 5.54398 18.5605 5.52601 18.5785C5.45412 18.6503 5.32833 18.6773 5.14862 18.6593C4.96891 18.6414 4.8521 18.6324 4.79819 18.6324H0.619992L0.485211 13.0255C0.485211 12.8997 0.485211 12.7649 0.485211 12.6212C0.485211 12.4774 0.46724 12.3426 0.431299 12.2168C0.395357 12.1629 0.363909 12.0641 0.336952 11.9203C0.309996 11.7765 0.278547 11.6597 0.242606 11.5699ZM14.3407 23.5114C14.3407 23.5114 14.3002 23.5114 14.2194 23.5114C14.1385 23.5114 14.1789 23.5114 14.3407 23.5114C14.1789 23.5114 14.0846 23.453 14.0576 23.3362C14.0307 23.2194 14.0172 23.161 14.0172 23.161C14.0172 23.3407 14.0307 23.444 14.0576 23.471C14.0846 23.498 14.1789 23.5114 14.3407 23.5114ZM14.6641 23.8349V23.5114L14.3407 23.161C14.3407 22.9993 14.2733 22.8914 14.1385 22.8375C14.0037 22.7836 13.8465 22.6758 13.6668 22.5141L13.3433 22.1906C13.3433 22.1906 13.3298 22.1367 13.3029 22.0289C13.2759 21.921 13.1815 21.8671 13.0198 21.8671V20.8697L12.6963 20.5463C12.6963 20.5463 12.6424 20.5328 12.5346 20.5058C12.4268 20.4789 12.3729 20.3845 12.3729 20.2228C12.2111 20.2228 12.1168 20.1554 12.0898 20.0206C12.0629 19.8858 12.0494 19.7376 12.0494 19.5758V17.9315C12.0494 17.9315 12.009 17.8911 11.9281 17.8102C11.8472 17.7293 11.8877 17.7698 12.0494 17.9315V17.2846C12.0494 17.1049 11.991 16.9881 11.8742 16.9341C11.7574 16.8802 11.699 16.7724 11.699 16.6107C11.699 16.6107 11.6451 16.5972 11.5372 16.5702C11.4294 16.5433 11.3755 16.4489 11.3755 16.2872V15.9637C11.3755 15.9637 11.362 15.9098 11.3351 15.802C11.3081 15.6942 11.2138 15.6402 11.052 15.6402C11.2138 15.6402 11.2407 15.5279 11.1329 15.3033C11.0251 15.0787 10.8903 14.9663 10.7285 14.9663L10.0816 14.3194C9.91986 14.1577 9.76711 13.9824 9.62334 13.7938C9.47957 13.6051 9.40769 13.34 9.40769 12.9985C9.40769 12.9985 9.39421 12.9446 9.36726 12.8368C9.3403 12.729 9.24595 12.6751 9.08422 12.6751H8.76074V11.3812C8.92248 11.3812 9.08422 11.4216 9.24595 11.5025C9.40769 11.5834 9.57841 11.5429 9.75812 11.3812C9.91986 11.3812 10.0277 11.2689 10.0816 11.0442C10.1355 10.8196 10.2433 10.7073 10.4051 10.7073H10.7285C10.7285 10.5455 10.742 10.4512 10.769 10.4242C10.7959 10.3973 10.8903 10.3838 11.052 10.3838L10.0816 9.41338C10.4051 9.41338 10.6746 9.34599 10.8903 9.21121C11.1059 9.07643 11.3755 8.91919 11.699 8.73948C11.8787 8.73948 12.0494 8.75296 12.2111 8.77991C12.3729 8.80687 12.5346 8.9102 12.6963 9.08991C13.1815 9.25165 13.6578 9.53469 14.125 9.93903C14.5923 10.3434 14.9876 10.7163 15.3111 11.0577C15.4728 11.0577 15.5806 11.1116 15.6346 11.2194C15.6885 11.3273 15.8053 11.3812 15.985 11.3812C16.1467 11.5429 16.2545 11.6373 16.3085 11.6642C16.3624 11.6912 16.4702 11.7047 16.6319 11.7047H18.2763C18.438 11.7047 18.5323 11.7586 18.5593 11.8664C18.5863 11.9742 18.5997 12.0281 18.5997 12.0281C18.5997 12.1899 18.6671 12.2303 18.8019 12.1494C18.9367 12.0686 19.0849 12.0281 19.2467 12.0281C19.2467 12.0281 19.3006 12.0416 19.4084 12.0686C19.5162 12.0955 19.5702 12.1899 19.5702 12.3516L19.9206 12.6751V12.9985C19.9206 12.9985 19.9745 13.0165 20.0823 13.0525C20.1901 13.0884 20.2441 13.1872 20.2441 13.349L20.5675 13.6725C20.5675 13.8342 20.6214 13.942 20.7293 13.9959C20.8371 14.0498 20.891 14.1577 20.891 14.3194C20.891 14.4811 20.9045 14.5755 20.9314 14.6024C20.9584 14.6294 21.0527 14.6429 21.2145 14.6429V15.3168L21.538 15.6402C21.538 15.6402 21.5514 15.6942 21.5784 15.802C21.6053 15.9098 21.6997 15.9637 21.8614 15.9637C21.8614 15.9637 21.8794 16.0176 21.9153 16.1255C21.9513 16.2333 22.0501 16.2872 22.2119 16.2872H22.5353V16.9341C22.6971 17.1139 22.8453 17.325 22.9801 17.5676C23.1149 17.8102 23.1823 17.9315 23.1823 17.9315C23.6675 17.9315 24.0359 17.945 24.2875 17.972C24.5391 17.9989 24.8266 18.0933 25.1501 18.255C25.1501 18.4167 25.204 18.5246 25.3118 18.5785C25.4196 18.6324 25.4735 18.7402 25.4735 18.9019V19.2524C25.4735 19.5758 25.4196 19.8858 25.3118 20.1824C25.204 20.4789 25.1501 20.708 25.1501 20.8697C24.5031 21.2112 23.7798 21.4763 22.9801 21.6649C22.1804 21.8536 21.3762 22.0289 20.5675 22.1906C20.4058 22.1906 20.298 22.2041 20.2441 22.231C20.1901 22.258 20.0823 22.3523 19.9206 22.5141C19.7409 22.5141 19.5836 22.6399 19.4489 22.8914C19.3141 23.143 19.2467 23.3497 19.2467 23.5114L18.9232 23.8349L18.5997 23.5114H16.3085C16.1467 23.5114 16.0524 23.471 16.0254 23.3901C15.9985 23.3093 15.985 23.3497 15.985 23.5114C15.8053 23.5114 15.7019 23.5654 15.675 23.6732C15.648 23.781 15.6346 23.8349 15.6346 23.8349C15.3111 23.6732 15.1089 23.5923 15.028 23.5923C14.9472 23.5923 14.8259 23.6732 14.6641 23.8349C14.8259 23.6732 14.9067 23.6327 14.9067 23.7136C14.9067 23.7945 14.8259 23.8349 14.6641 23.8349ZM14.0172 23.161C14.0172 23.3407 14.0172 23.3856 14.0172 23.2958C14.0172 23.2059 14.0172 23.161 14.0172 23.161ZM7.38598 10.4647C7.42192 10.4467 7.46685 10.3928 7.52076 10.3029C7.57467 10.2131 7.57467 10.1502 7.52076 10.1142C7.61062 9.98845 7.66453 9.85367 7.6825 9.7099C7.70047 9.56613 7.72743 9.41338 7.76337 9.25165C7.76337 9.23368 7.76786 9.18875 7.77684 9.11687C7.78583 9.04498 7.81728 8.99107 7.87119 8.95513C7.90713 8.93716 7.91612 8.9102 7.89815 8.87426C7.88018 8.83832 7.87119 8.80238 7.87119 8.76644C7.90713 8.74846 7.94757 8.74397 7.99249 8.75296C8.03742 8.76194 8.05988 8.76644 8.05988 8.76644C8.1138 8.76644 8.14974 8.74397 8.16771 8.69905C8.18568 8.65412 8.19466 8.62267 8.19466 8.6047C8.28452 8.6047 8.31597 8.726 8.28901 8.96861C8.26206 9.21121 8.24858 9.38643 8.24858 9.49425C8.24858 9.47628 8.22162 9.44483 8.16771 9.3999C8.1138 9.35498 8.05988 9.33251 8.00597 9.33251C7.93409 9.29657 7.89365 9.31005 7.88467 9.37295C7.87568 9.43585 7.85322 9.47628 7.81728 9.49425C7.81728 9.56613 7.81279 9.65599 7.8038 9.76381C7.79482 9.87164 7.81728 9.92555 7.87119 9.92555C8.03293 9.88961 8.05539 9.92106 7.93858 10.0199C7.82177 10.1187 7.78134 10.2131 7.81728 10.3029C7.85322 10.3568 7.9251 10.3479 8.03293 10.276C8.14075 10.2041 8.21264 10.1682 8.24858 10.1682V10.5455C8.24858 10.6354 8.2351 10.7208 8.20814 10.8016C8.18119 10.8825 8.14974 10.9589 8.1138 11.0308C8.09583 11.1386 8.08684 11.2958 8.08684 11.5025C8.08684 11.7091 8.04191 11.8664 7.95206 11.9742L7.38598 10.4647ZM7.79032 8.65861C7.95206 8.49687 8.00597 8.34862 7.95206 8.21383C7.89815 8.07905 7.95206 8.01166 8.1138 8.01166V7.68819L8.43727 7.36472H8.76074C8.76074 7.52645 8.72031 7.6208 8.63944 7.64775C8.55857 7.67471 8.59901 7.68819 8.76074 7.68819C8.76074 7.68819 8.70683 7.70167 8.59901 7.72862C8.49118 7.75558 8.43727 7.84993 8.43727 8.01166L8.1138 8.33514C8.1138 8.49687 8.10032 8.59122 8.07336 8.61818C8.04641 8.64513 7.95206 8.65861 7.79032 8.65861C7.95206 8.83832 8.03293 8.88325 8.03293 8.79339C8.03293 8.70354 7.95206 8.65861 7.79032 8.65861ZM17.9528 11.7047C17.9528 11.7047 17.9528 11.7496 17.9528 11.8394C17.9528 11.9293 17.9528 11.8844 17.9528 11.7047C18.1145 11.8844 18.1954 11.9293 18.1954 11.8394C18.1954 11.7496 18.1145 11.7047 17.9528 11.7047ZM16.9554 12.3786C17.1351 12.3786 17.2519 12.2528 17.3058 12.0012C17.3597 11.7496 17.4676 11.5429 17.6293 11.3812H18.2763V11.7047C18.2763 11.7047 18.2223 11.7226 18.1145 11.7586C18.0067 11.7945 17.9528 11.8933 17.9528 12.0551C17.9528 12.0551 18.0067 12.0686 18.1145 12.0955C18.2223 12.1225 18.2763 12.2168 18.2763 12.3786C18.2763 12.5403 18.3302 12.6481 18.438 12.702C18.5458 12.7559 18.5997 12.8638 18.5997 13.0255H17.9528V12.702C17.791 12.5403 17.5844 12.4459 17.3328 12.419C17.0812 12.392 16.9554 12.3786 16.9554 12.3786ZM17.6293 12.5942C17.9528 12.5942 18.1145 12.3786 18.1145 11.9473C18.1145 11.516 17.9528 11.3003 17.6293 11.3003C17.3058 11.462 17.1441 11.7181 17.1441 12.0686C17.1441 12.419 17.3058 12.5942 17.6293 12.5942ZM20.5675 15.8829C20.5675 15.8829 20.5271 15.8424 20.4462 15.7616C20.3654 15.6807 20.4058 15.7211 20.5675 15.8829C20.5675 15.7211 20.5675 15.5998 20.5675 15.5189C20.5675 15.4381 20.5675 15.5594 20.5675 15.8829C20.5675 15.7211 20.581 15.5279 20.608 15.3033C20.6349 15.0787 20.7293 15.0562 20.891 15.2359C20.891 15.2359 20.9494 15.2494 21.0662 15.2763C21.183 15.3033 21.2414 15.3976 21.2414 15.5594V16.5298C21.2414 16.5298 21.228 16.5837 21.201 16.6915C21.174 16.7994 21.0707 16.8533 20.891 16.8533H20.5675V15.8829ZM5.49905 7.04124L5.82253 6.69081C5.98426 6.69081 6.03817 6.6369 5.98426 6.52908C5.93035 6.42125 5.98426 6.36734 6.146 6.36734H6.79295C6.97265 6.36734 7.08946 6.31343 7.14338 6.2056C7.19729 6.09778 7.30511 6.04387 7.46685 6.04387L7.14338 6.36734V6.69081H6.79295C6.79295 6.69081 6.73903 6.70429 6.63121 6.73125C6.52338 6.7582 6.46947 6.86153 6.46947 7.04124C6.30774 7.20298 6.146 7.28385 5.98426 7.28385C5.82253 7.28385 5.66079 7.20298 5.49905 7.04124Z" fill="#008E7C"/>
</g>
<defs>
<clipPath id="clip0_228_18629">
<rect width="30.11" height="28" fill="white" transform="matrix(1 0 0 -1 0 28.2388)"/>
</clipPath>
</defs>
</svg>
