<svg width="35" height="35" viewBox="0 0 35 35" fill="none" xmlns="http://www.w3.org/2000/svg">
<path d="M17.3535 29.2933C17.3535 29.1316 17.3535 29.0911 17.3535 29.172C17.3535 29.2529 17.3535 29.2933 17.3535 29.2933ZM24.9012 30.9376C24.9012 30.7759 24.9012 30.7355 24.9012 30.8163C24.9012 30.8972 24.9012 30.9376 24.9012 30.9376ZM26.1951 30.6141C26.3568 30.6141 26.4646 30.6007 26.5186 30.5737C26.5725 30.5468 26.6893 30.4434 26.869 30.2637H26.5186C26.3568 30.2637 26.2625 30.2772 26.2355 30.3042C26.2086 30.3311 26.1951 30.4344 26.1951 30.6141C26.1951 30.4344 26.1816 30.3311 26.1546 30.3042C26.1277 30.2772 26.0333 30.2637 25.8716 30.2637C25.8716 30.2637 25.8851 30.3221 25.912 30.4389C25.939 30.5557 26.0333 30.6141 26.1951 30.6141C26.0333 30.6141 25.9929 30.6141 26.0738 30.6141C26.1546 30.6141 26.1951 30.6141 26.1951 30.6141ZM25.5481 26.6786C25.3864 26.6786 25.3325 26.5662 25.3864 26.3416C25.4403 26.117 25.3864 26.0046 25.2247 26.0046C25.2247 25.8429 25.1707 25.6812 25.0629 25.5194C24.9551 25.3577 24.9012 25.196 24.9012 25.0342L24.5508 24.3873C24.2273 24.3873 23.8499 24.4412 23.4186 24.549C22.9873 24.6568 22.6009 24.7108 22.2595 24.7108C21.936 24.8725 21.6934 24.9803 21.5317 25.0342C21.3699 25.0881 21.2891 25.196 21.2891 25.3577C21.2891 25.5194 21.2217 25.6677 21.0869 25.8025C20.9521 25.9373 20.8039 26.0046 20.6421 26.0046C20.4624 26.0046 20.3591 25.9507 20.3321 25.8429C20.3052 25.7351 20.2917 25.6812 20.2917 25.6812H17.6769V27.649C17.6769 27.649 17.6365 27.649 17.5556 27.649C17.4748 27.649 17.5152 27.649 17.6769 27.649V29.2933C17.6769 29.455 17.7309 29.5629 17.8387 29.6168C17.9465 29.6707 18.0004 29.7785 18.0004 29.9402H18.6743C18.8361 29.9402 18.9439 29.8998 18.9978 29.8189C19.0517 29.7381 19.1595 29.7785 19.3213 29.9402H19.6447L19.9682 29.6168H20.9656C21.1273 29.6168 21.2217 29.5629 21.2486 29.455C21.2756 29.3472 21.2891 29.2933 21.2891 29.2933H21.936C22.0977 29.2933 22.2056 29.2259 22.2595 29.0911C22.3134 28.9563 22.4302 28.8081 22.6099 28.6464H22.9334C23.0951 28.6464 23.2029 28.5879 23.2569 28.4711C23.3108 28.3543 23.4186 28.2959 23.5803 28.2959H23.9038C23.9038 28.2959 23.9577 28.2824 24.0655 28.2555C24.1734 28.2285 24.2273 28.1342 24.2273 27.9724C24.2273 27.9724 24.2812 27.959 24.389 27.932C24.4968 27.9051 24.5508 27.8107 24.5508 27.649V27.3255C24.7305 27.1638 24.9012 27.0559 25.0629 27.002C25.2247 26.9481 25.3864 26.8403 25.5481 26.6786ZM10.6953 15.33C10.6953 15.2042 10.7043 15.0829 10.7223 14.9661C10.7402 14.8493 10.7492 14.728 10.7492 14.6022C10.7492 14.4584 10.7717 14.3326 10.8166 14.2248C10.8615 14.117 10.902 13.9822 10.9379 13.8205V13.47C10.9379 13.3982 10.9469 13.3353 10.9649 13.2814C10.9828 13.2274 10.9918 13.1825 10.9918 13.1466C10.9918 13.0388 10.9873 12.9219 10.9783 12.7961C10.9694 12.6704 10.9559 12.5446 10.9379 12.4188C10.9379 12.3289 10.9828 12.293 11.0727 12.3109C11.1625 12.3289 11.2344 12.3469 11.2883 12.3648C11.3782 12.4367 11.4725 12.5041 11.5714 12.567C11.6702 12.6299 11.7825 12.6434 11.9083 12.6075C12.0162 12.5895 12.1285 12.5311 12.2453 12.4322C12.3621 12.3334 12.4654 12.248 12.5553 12.1762C12.6811 12.0863 12.8069 12.0009 12.9327 11.9201C13.0585 11.8392 13.2022 11.7718 13.364 11.7179C13.3819 11.8257 13.4179 11.9515 13.4718 12.0953C13.5257 12.2391 13.5886 12.3738 13.6605 12.4996C13.5886 12.4996 13.5616 12.5176 13.5796 12.5535C13.5976 12.5895 13.6245 12.6075 13.6605 12.6075C13.7144 12.6075 13.7593 12.6164 13.7953 12.6344C13.8312 12.6524 13.8042 12.7063 13.7144 12.7961C13.4808 12.9399 13.2382 13.0522 12.9866 13.1331C12.735 13.214 12.4744 13.2993 12.2048 13.3892L13.0405 14.3057C13.0225 14.3416 12.9686 14.3641 12.8787 14.3731C12.7889 14.3821 12.726 14.4045 12.6901 14.4405C12.6541 14.4584 12.6406 14.5034 12.6496 14.5753C12.6586 14.6471 12.6541 14.701 12.6361 14.737C12.5643 14.7909 12.4699 14.8089 12.3531 14.7909C12.2363 14.7729 12.1419 14.8089 12.0701 14.8987C11.9802 15.0065 11.9083 15.1189 11.8544 15.2357C11.8005 15.3525 11.7107 15.4289 11.5849 15.4648C11.495 15.4828 11.3557 15.4738 11.167 15.4378C10.9783 15.4019 10.8211 15.366 10.6953 15.33ZM23.9038 19.7778C23.9038 19.7778 23.9038 19.8182 23.9038 19.8991C23.9038 19.98 23.9038 19.9395 23.9038 19.7778L24.2273 20.1013H25.8716C25.8716 20.1013 25.9255 20.0878 26.0333 20.0608C26.1412 20.0339 26.1951 19.9395 26.1951 19.7778C26.1951 19.616 26.2086 19.5217 26.2355 19.4947C26.2625 19.4678 26.3568 19.4543 26.5186 19.4543C26.6983 19.4543 26.8016 19.3869 26.8285 19.2521C26.8555 19.1174 26.869 18.9691 26.869 18.8074C27.0307 18.8074 27.1251 18.7535 27.152 18.6456C27.179 18.5378 27.1925 18.4839 27.1925 18.4839V18.8074C27.1925 18.8074 27.2464 18.8208 27.3542 18.8478C27.462 18.8748 27.5159 18.9691 27.5159 19.1308V19.7778C27.3542 19.9395 27.2598 19.98 27.2329 19.8991C27.2059 19.8182 27.1925 19.7778 27.1925 19.7778V20.4517C27.1925 20.6134 27.2329 20.6673 27.3138 20.6134C27.3946 20.5595 27.3542 20.6134 27.1925 20.7752H26.869C27.0307 20.7752 27.0712 20.8965 26.9903 21.1391C26.9094 21.3817 26.869 21.5838 26.869 21.7456C26.869 21.9073 26.8555 22.0017 26.8285 22.0286C26.8016 22.0556 26.6983 22.0691 26.5186 22.0691H24.5508L23.9038 21.4221V19.7778ZM3.25541 5.03278C3.25541 5.03278 3.29584 5.03278 3.37671 5.03278C3.45758 5.03278 3.41715 5.03278 3.25541 5.03278C3.41715 4.87104 3.47106 4.76322 3.41715 4.70931C3.36324 4.65539 3.41715 4.54757 3.57888 4.38583C3.41715 4.38583 3.37671 4.37235 3.45758 4.3454C3.53845 4.31844 3.57888 4.2241 3.57888 4.06236H4.89973C5.06147 4.2241 5.1693 4.31844 5.22321 4.3454C5.27712 4.37235 5.38494 4.38583 5.54668 4.38583V4.70931H4.22583L3.90236 5.03278C3.90236 5.03278 3.84845 5.04626 3.74062 5.07321C3.6328 5.10017 3.57888 5.19452 3.57888 5.35625L3.25541 5.67973C3.25541 5.67973 3.26889 5.62581 3.29584 5.51799C3.3228 5.41017 3.41715 5.35625 3.57888 5.35625C3.57888 5.35625 3.6328 5.34278 3.74062 5.31582C3.84845 5.28886 3.90236 5.19452 3.90236 5.03278C3.74062 5.03278 3.59236 5.07321 3.45758 5.15408C3.3228 5.23495 3.25541 5.19452 3.25541 5.03278ZM3.57888 6.35363V6.0032L3.90236 5.67973H5.87016C5.87016 5.51799 5.98247 5.46408 6.20711 5.51799C6.43174 5.5719 6.54406 5.51799 6.54406 5.35625H5.87016C5.87016 5.35625 5.88363 5.30234 5.91059 5.19452C5.93755 5.08669 6.03189 5.03278 6.19363 5.03278H7.51448L7.83795 4.70931C7.83795 4.70931 7.89187 4.69583 7.99969 4.66887C8.10751 4.64192 8.16143 4.54757 8.16143 4.38583C8.34113 4.38583 8.45794 4.33192 8.51186 4.2241C8.56577 4.11627 8.67359 4.06236 8.83533 4.06236H10.4797C10.4797 4.06236 10.4931 4.11627 10.5201 4.2241C10.547 4.33192 10.6414 4.38583 10.8031 4.38583H11.4501C11.4501 4.2241 11.4501 4.18366 11.4501 4.26453C11.4501 4.3454 11.4501 4.38583 11.4501 4.38583L11.7735 4.70931H12.097C12.097 4.70931 12.1554 4.72278 12.2722 4.74974C12.389 4.7767 12.4475 4.87104 12.4475 5.03278H14.7387C14.9005 5.03278 15.0083 4.97887 15.0622 4.87104C15.1161 4.76322 15.2239 4.70931 15.3857 4.70931H16.0326C16.0326 4.70931 16.0865 4.66887 16.1944 4.588C16.3022 4.50713 16.3561 4.54757 16.3561 4.70931H17.03V5.03278L17.3535 5.35625V5.67973H17.6769L18.0004 6.0032C18.0004 6.0032 17.9465 5.96277 17.8387 5.8819C17.7309 5.80103 17.6769 5.84146 17.6769 6.0032V6.35363H17.3535V7.00058C17.3535 7.00058 17.3669 7.05449 17.3939 7.16231C17.4209 7.27014 17.5152 7.32405 17.6769 7.32405V7.64752C17.6769 7.80926 17.6904 7.86317 17.7174 7.80926C17.7443 7.75535 17.8387 7.80926 18.0004 7.971V8.6449C17.8387 8.6449 17.7443 8.68534 17.7174 8.7662C17.6904 8.84707 17.6769 8.80664 17.6769 8.6449V8.32143H16.3561C16.3561 8.32143 16.3022 8.36186 16.1944 8.44273C16.0865 8.5236 16.0326 8.48316 16.0326 8.32143H15.0622C14.9005 8.32143 14.7208 8.37534 14.5231 8.48316C14.3254 8.59099 14.0648 8.6449 13.7413 8.6449H13.0944C13.0944 8.6449 13.0405 8.60447 12.9327 8.5236C12.8248 8.44273 12.7709 8.48316 12.7709 8.6449C12.6092 8.6449 12.4564 8.68534 12.3127 8.7662C12.1689 8.84707 12.097 8.80664 12.097 8.6449H11.7735V8.96837H11.4501V9.61532H11.1266V8.96837C11.1266 8.96837 11.167 8.9549 11.2479 8.92794C11.3288 8.90098 11.2883 8.80664 11.1266 8.6449H10.4797C10.4797 8.6449 10.4212 8.63142 10.3044 8.60447C10.1876 8.57751 10.1292 8.48316 10.1292 8.32143C9.96749 8.32143 9.85966 8.37534 9.80575 8.48316C9.75184 8.59099 9.64401 8.6449 9.48228 8.6449C9.48228 8.6449 9.4688 8.68534 9.44184 8.7662C9.41489 8.84707 9.32054 8.80664 9.1588 8.6449H8.51186C8.33215 8.6449 8.22882 8.59099 8.20186 8.48316C8.1749 8.37534 8.16143 8.32143 8.16143 8.32143C7.99969 8.32143 7.89187 8.26302 7.83795 8.14621C7.78404 8.0294 7.67622 7.971 7.51448 7.971H7.19101V8.32143H6.54406C6.54406 8.32143 6.53058 8.26302 6.50362 8.14621C6.47667 8.0294 6.37334 7.971 6.19363 7.971C6.19363 7.971 6.19363 7.93056 6.19363 7.8497C6.19363 7.76883 6.19363 7.80926 6.19363 7.971C6.19363 7.971 6.13972 7.95752 6.03189 7.93056C5.92407 7.90361 5.87016 7.80926 5.87016 7.64752L5.54668 7.971H4.57626C4.41452 7.80926 4.38757 7.76883 4.49539 7.8497C4.60322 7.93056 4.738 7.971 4.89973 7.971C4.738 8.15071 4.68409 8.14172 4.738 7.94404C4.79191 7.74636 4.738 7.64752 4.57626 7.64752C4.57626 7.64752 4.6167 7.63405 4.69756 7.60709C4.77843 7.58013 4.738 7.48579 4.57626 7.32405H4.22583C4.22583 7.32405 4.21235 7.28362 4.1854 7.20275C4.15844 7.12188 4.06409 7.16231 3.90236 7.32405H3.57888C3.74062 7.32405 3.78106 7.27014 3.70019 7.16231C3.61932 7.05449 3.57888 7.00058 3.57888 7.00058V7.32405C3.57888 7.16231 3.6328 7.12188 3.74062 7.20275C3.84845 7.28362 3.90236 7.32405 3.90236 7.32405C3.90236 7.32405 3.84845 7.31057 3.74062 7.28362C3.6328 7.25666 3.57888 7.16231 3.57888 7.00058H3.90236C3.90236 7.00058 3.86192 7.00058 3.78106 7.00058C3.70019 7.00058 3.74062 7.00058 3.90236 7.00058V6.6771L4.22583 6.35363C4.06409 6.19189 3.91584 6.15146 3.78106 6.23233C3.64627 6.3132 3.57888 6.35363 3.57888 6.35363ZM13.364 11.7179C13.5616 11.5921 13.7683 11.4753 13.984 11.3675C14.1996 11.2596 14.4152 11.1339 14.6309 10.9901C14.6848 10.9541 14.7432 10.9092 14.8061 10.8553C14.869 10.8014 14.9274 10.7385 14.9813 10.6666C15.0532 10.5588 15.0757 10.4465 15.0487 10.3297C15.0218 10.2128 15.0173 10.1275 15.0352 10.0736C15.0352 9.89387 15.0532 9.78155 15.0892 9.73662C15.1251 9.6917 15.1341 9.62431 15.1161 9.53445C15.1161 9.4446 15.0757 9.33228 14.9948 9.1975C14.9139 9.06272 14.9274 8.9504 15.0352 8.86055C15.1071 8.82461 15.1745 8.80215 15.2374 8.79316C15.3003 8.78417 15.3587 8.74374 15.4126 8.67186C15.4665 8.65389 15.5384 8.59548 15.6283 8.49664C15.7181 8.3978 15.7451 8.3394 15.7091 8.32143C15.6732 8.28549 15.6732 8.2765 15.7091 8.29447C15.7451 8.31244 15.7631 8.32143 15.7631 8.32143C15.799 8.32143 15.8304 8.29896 15.8574 8.25404C15.8844 8.20911 15.9158 8.16868 15.9517 8.13273C15.9877 8.09679 16.0731 8.08781 16.2078 8.10578C16.3426 8.12375 16.437 8.13273 16.4909 8.13273C16.5268 8.13273 16.5583 8.14172 16.5852 8.15969C16.6122 8.17766 16.6436 8.18665 16.6796 8.18665C16.7335 8.18665 16.7784 8.17766 16.8143 8.15969C16.8503 8.14172 16.8862 8.13273 16.9222 8.13273C17.048 8.09679 17.0974 8.13723 17.0704 8.25404C17.0435 8.37085 17.0749 8.42925 17.1648 8.42925C17.2187 8.42925 17.2591 8.4023 17.2861 8.34838C17.313 8.29447 17.3535 8.26752 17.4074 8.26752C17.4613 8.26752 17.4972 8.31244 17.5152 8.4023C17.5332 8.49215 17.5601 8.56403 17.5961 8.61795C17.614 8.65389 17.632 8.67186 17.65 8.67186C17.668 8.67186 17.6859 8.67186 17.7039 8.67186C17.7398 8.7078 17.7533 8.74823 17.7443 8.79316C17.7353 8.83809 17.7398 8.86055 17.7578 8.86055C17.8297 8.91446 17.9061 8.97736 17.9869 9.04924C18.0678 9.12113 18.0723 9.20199 18.0004 9.29185C18.0903 9.25591 18.1577 9.26489 18.2026 9.3188C18.2475 9.37272 18.2879 9.39967 18.3239 9.39967C18.3778 9.43561 18.4227 9.44011 18.4587 9.41315C18.4946 9.38619 18.6114 9.3817 18.8091 9.39967C18.8091 9.47156 18.7776 9.5075 18.7148 9.5075C18.6519 9.5075 18.6204 9.53445 18.6204 9.58837C18.5845 9.67822 18.5979 9.7501 18.6608 9.80401C18.7237 9.85793 18.7732 9.92981 18.8091 10.0197C18.8091 10.1095 18.7776 10.1365 18.7148 10.1005C18.6519 10.0646 18.6204 10.0915 18.6204 10.1814C18.6204 10.2173 18.6069 10.2398 18.58 10.2488C18.553 10.2578 18.5216 10.2802 18.4856 10.3162C18.4856 10.3521 18.4901 10.3926 18.4991 10.4375C18.5081 10.4824 18.5306 10.5228 18.5665 10.5588C18.5306 10.5588 18.4991 10.5543 18.4721 10.5453C18.4452 10.5363 18.4137 10.5228 18.3778 10.5049C18.3778 10.5228 18.3688 10.5498 18.3508 10.5857C18.3329 10.6217 18.3419 10.6486 18.3778 10.6666C18.4137 10.7026 18.4407 10.734 18.4587 10.761C18.4766 10.7879 18.4677 10.8194 18.4317 10.8553C18.3958 10.9092 18.3688 10.9497 18.3508 10.9766C18.3329 11.0036 18.3419 11.044 18.3778 11.0979C18.4137 11.1339 18.4452 11.1743 18.4721 11.2192C18.4991 11.2641 18.5485 11.3046 18.6204 11.3405C18.6563 11.3765 18.7462 11.4618 18.89 11.5966C19.0337 11.7314 19.0427 11.8257 18.9169 11.8796C18.9708 11.8796 18.9978 11.9021 18.9978 11.947C18.9978 11.992 19.0337 12.0144 19.1056 12.0144C19.1595 12.0144 19.2089 12.0279 19.2539 12.0549C19.2988 12.0818 19.3482 12.1043 19.4021 12.1222C19.456 12.1582 19.5324 12.2211 19.6313 12.3109C19.7301 12.4008 19.8334 12.4637 19.9413 12.4996C20.0131 12.4996 20.0895 12.5625 20.1704 12.6883C20.2513 12.8141 20.3186 12.913 20.3726 12.9848C20.4624 13.0388 20.4939 13.1106 20.4669 13.2005C20.4399 13.2903 20.4085 13.3802 20.3726 13.47C20.3726 13.488 20.377 13.5509 20.386 13.6587C20.395 13.7666 20.4265 13.8205 20.4804 13.8205C20.5163 13.8205 20.5523 13.825 20.5882 13.834C20.6241 13.8429 20.6511 13.8564 20.6691 13.8744C20.705 13.9103 20.723 13.9553 20.723 14.0092C20.723 14.0631 20.723 14.099 20.723 14.117C20.723 14.1529 20.741 14.2024 20.7769 14.2653C20.8128 14.3282 20.8757 14.4045 20.9656 14.4944C21.0375 14.5124 21.0734 14.5573 21.0734 14.6292C21.0734 14.701 21.1004 14.755 21.1543 14.7909C21.1183 14.7909 21.0285 14.7774 20.8847 14.7505C20.741 14.7235 20.6691 14.701 20.6691 14.6831C20.705 14.737 20.6825 14.7505 20.6017 14.7235C20.5208 14.6966 20.4624 14.6831 20.4265 14.6831C20.3726 14.6831 20.3052 14.6876 20.2243 14.6966C20.1434 14.7055 20.094 14.737 20.076 14.7909C20.0042 14.9167 19.9457 15.0784 19.9008 15.2761C19.8559 15.4738 19.7346 15.5726 19.5369 15.5726L18.4317 15.4648C18.252 15.4289 18.1307 15.366 18.0678 15.2761C18.0049 15.1863 17.8836 15.0874 17.7039 14.9796C17.2546 14.6381 16.7964 14.2832 16.3291 13.9148C15.8619 13.5464 15.3767 13.2544 14.8735 13.0388C14.6938 12.9489 14.5141 12.8995 14.3344 12.8905C14.1547 12.8815 13.9929 12.8501 13.8492 12.7961C13.939 12.6704 13.948 12.6119 13.8761 12.6209C13.8042 12.6299 13.7503 12.6075 13.7144 12.5535V12.4188C13.7503 12.4008 13.7548 12.3738 13.7279 12.3379C13.7009 12.3019 13.6784 12.275 13.6605 12.257C13.5706 12.1851 13.5032 12.0998 13.4583 12.0009C13.4134 11.9021 13.3819 11.8078 13.364 11.7179ZM26.869 17.4865L26.5186 17.81C26.5186 17.81 26.577 17.7965 26.6938 17.7696C26.8106 17.7426 26.869 17.6482 26.869 17.4865ZM16.7065 6.35363C16.7065 6.35363 16.747 6.35363 16.8278 6.35363C16.9087 6.35363 16.8683 6.35363 16.7065 6.35363L17.03 6.0032C17.03 6.0032 17.0435 6.06161 17.0704 6.17842C17.0974 6.29523 17.1917 6.35363 17.3535 6.35363C17.3535 6.35363 17.4074 6.36711 17.5152 6.39406C17.623 6.42102 17.6769 6.51537 17.6769 6.6771L18.0004 7.00058H18.3239L18.6743 6.6771H18.9978L19.3213 6.35363C19.483 6.35363 19.5908 6.36711 19.6447 6.39406C19.6987 6.42102 19.8065 6.51537 19.9682 6.6771C19.8065 6.6771 19.766 6.73102 19.8469 6.83884C19.9278 6.94666 19.9682 7.00058 19.9682 7.00058C19.8065 7.00058 19.766 7.05449 19.8469 7.16231C19.9278 7.27014 19.9682 7.32405 19.9682 7.32405L20.2917 7.64752C20.2917 7.80926 20.3052 7.96201 20.3321 8.10578C20.3591 8.24954 20.4624 8.32143 20.6421 8.32143H21.2891L21.936 8.96837C22.0977 8.96837 22.264 9.00881 22.4347 9.08968C22.6054 9.17055 22.7716 9.13011 22.9334 8.96837C23.0951 8.96837 23.2703 8.91446 23.459 8.80664C23.6477 8.69881 23.9038 8.6449 24.2273 8.6449V8.32143H24.5508C24.7305 8.32143 24.7754 8.30795 24.6855 8.28099C24.5957 8.25404 24.5508 8.15071 24.5508 7.971L24.9012 7.64752H26.869L27.1925 7.971H27.8394C28.0011 7.971 28.0955 7.98448 28.1224 8.01143C28.1494 8.03839 28.1629 8.14172 28.1629 8.32143C28.1629 8.32143 28.2168 8.33491 28.3246 8.36186C28.4324 8.38882 28.4863 8.48316 28.4863 8.6449C28.4863 8.6449 28.4998 8.69881 28.5268 8.80664C28.5537 8.91446 28.6571 8.96837 28.8368 8.96837H29.4837V9.9388C29.4837 10.1185 29.4702 10.2757 29.4433 10.4105C29.4163 10.5453 29.322 10.6127 29.1603 10.6127C29.1603 10.6127 29.1063 10.6262 28.9985 10.6531C28.8907 10.6801 28.8368 10.7744 28.8368 10.9362C28.8368 10.9362 28.8503 11.044 28.8772 11.2596C28.9042 11.4753 28.9985 11.5831 29.1603 11.5831C29.322 11.5831 29.3624 11.637 29.2816 11.7449C29.2007 11.8527 29.1603 11.9066 29.1603 11.9066C29.1603 12.0683 29.2142 12.2211 29.322 12.3648C29.4298 12.5086 29.4837 12.5805 29.4837 12.5805C29.4837 12.7422 29.4972 12.8501 29.5242 12.904C29.5511 12.9579 29.6455 13.0657 29.8072 13.2274H30.4541C30.6339 13.2274 30.7237 13.2948 30.7237 13.4296C30.7237 13.5644 30.6339 13.7127 30.4541 13.8744L29.8072 14.5483L30.1307 14.8718C30.2924 15.0335 30.4452 15.2357 30.5889 15.4783C30.7327 15.7209 30.8046 15.8422 30.8046 15.8422H31.4515L31.775 16.5161C31.775 16.6778 31.7885 16.7722 31.8154 16.7991C31.8424 16.8261 31.9367 16.8396 32.0985 16.8396V17.163C32.0985 17.3248 31.9906 17.3787 31.775 17.3248C31.5593 17.2709 31.4515 17.3248 31.4515 17.4865H31.1281V18.4839C31.1281 18.6456 31.0741 18.6861 30.9663 18.6052C30.8585 18.5243 30.8046 18.4839 30.8046 18.4839H30.4541C30.4541 18.4839 30.4137 18.4839 30.3328 18.4839C30.252 18.4839 30.2924 18.4839 30.4541 18.4839H28.4863C28.4863 18.4839 28.4729 18.439 28.4459 18.3491C28.419 18.2593 28.3246 18.3042 28.1629 18.4839C28.1629 18.4839 28.109 18.4704 28.0011 18.4435C27.8933 18.4165 27.8394 18.3132 27.8394 18.1335C27.6777 17.9717 27.5833 17.8235 27.5564 17.6887C27.5294 17.5539 27.5159 17.4865 27.5159 17.4865C27.5159 17.3248 27.4485 17.2304 27.3138 17.2035C27.179 17.1765 27.0307 17.163 26.869 17.163H26.5186C26.5186 17.163 26.4646 17.1765 26.3568 17.2035C26.249 17.2304 26.1951 17.3248 26.1951 17.4865H25.8716L25.5481 17.81C25.3864 17.81 25.2786 17.7561 25.2247 17.6482C25.1707 17.5404 25.0629 17.4865 24.9012 17.4865C24.7394 17.4865 24.6271 17.473 24.5642 17.4461C24.5013 17.4191 24.389 17.3248 24.2273 17.163C24.2273 17.163 24.1734 17.1496 24.0655 17.1226C23.9577 17.0956 23.9038 17.0013 23.9038 16.8396C23.9038 16.8396 23.8499 16.8261 23.7421 16.7991C23.6342 16.7722 23.5803 16.6778 23.5803 16.5161L23.2569 16.1657H22.6099C22.4302 16.1657 22.3269 16.0983 22.2999 15.9635C22.273 15.8287 22.2595 15.6805 22.2595 15.5187V15.1952C22.2595 15.1952 22.2056 15.1818 22.0977 15.1548C21.9899 15.1279 21.936 15.0335 21.936 14.8718C21.936 14.8718 21.8956 14.8718 21.8147 14.8718C21.7338 14.8718 21.7743 14.8718 21.936 14.8718C21.936 14.8718 21.9225 14.8179 21.8956 14.71C21.8686 14.6022 21.7743 14.5483 21.6125 14.5483L21.2891 14.2248C21.2891 14.0451 21.2352 14.0406 21.1273 14.2113C21.0195 14.3821 20.9656 14.3866 20.9656 14.2248H20.2917C20.1299 14.2248 20.076 14.2787 20.1299 14.3866C20.1839 14.4944 20.1299 14.5483 19.9682 14.5483V14.2248L19.6447 13.8744V13.5509C19.483 13.5509 19.4021 13.4835 19.4021 13.3487C19.4021 13.214 19.483 13.0657 19.6447 12.904C19.6447 12.7422 19.6313 12.6479 19.6043 12.6209C19.5773 12.594 19.483 12.5805 19.3213 12.5805C19.3213 12.4188 19.3078 12.3244 19.2808 12.2975C19.2539 12.2705 19.1595 12.257 18.9978 12.257C18.8361 12.257 18.7417 12.1986 18.7148 12.0818C18.6878 11.965 18.6743 11.9066 18.6743 11.9066H18.0004C18.1622 11.9066 18.1487 11.7988 17.96 11.5831C17.7713 11.3675 17.6769 11.2596 17.6769 11.2596L17.3535 10.9362V9.29185C17.3535 9.29185 17.313 9.23794 17.2322 9.13011C17.1513 9.02229 17.1917 8.96837 17.3535 8.96837C17.3535 8.96837 17.4074 8.9549 17.5152 8.92794C17.623 8.90098 17.6769 8.80664 17.6769 8.6449H17.03C17.03 8.6449 17.0165 8.60447 16.9896 8.5236C16.9626 8.44273 16.8683 8.48316 16.7065 8.6449C16.7065 8.48316 16.6481 8.37534 16.5313 8.32143C16.4145 8.26752 16.3561 8.15071 16.3561 7.971V7.64752L16.0326 7.32405V6.6771H15.7091V6.35363C15.5474 6.35363 15.4935 6.29523 15.5474 6.17842C15.6013 6.06161 15.5474 6.0032 15.3857 6.0032C16.0326 6.34464 16.4145 6.52884 16.5313 6.5558C16.6481 6.58276 16.7065 6.51537 16.7065 6.35363C16.7065 6.51537 16.7065 6.5558 16.7065 6.47493C16.7065 6.39406 16.7065 6.35363 16.7065 6.35363ZM10.9379 11.8257C10.9559 11.7898 10.9963 11.7359 11.0592 11.664C11.1221 11.5921 11.1805 11.5472 11.2344 11.5292C11.1446 11.4394 11.1401 11.3765 11.2209 11.3405C11.3018 11.3046 11.3872 11.2866 11.477 11.2866C11.4231 11.1967 11.4231 11.1383 11.477 11.1114C11.5309 11.0844 11.5669 11.044 11.5849 10.9901C11.5849 10.9541 11.5714 10.9047 11.5444 10.8418C11.5175 10.7789 11.477 10.7475 11.4231 10.7475C11.3512 10.7475 11.3467 10.716 11.4096 10.6531C11.4725 10.5902 11.4501 10.5768 11.3423 10.6127C11.1985 10.6486 11.1131 10.6307 11.0862 10.5588C11.0592 10.4869 11.0457 10.424 11.0457 10.3701C11.0457 10.3162 11.0502 10.2398 11.0592 10.141C11.0682 10.0421 11.0457 9.95677 10.9918 9.88488C10.9379 9.84894 10.9244 9.78604 10.9514 9.69619C10.9783 9.60634 10.9918 9.52547 10.9918 9.45359C10.9918 9.43561 11.0233 9.4446 11.0862 9.48054C11.1491 9.51648 11.1805 9.53445 11.1805 9.53445L11.2883 9.39967C11.3243 9.3817 11.3378 9.34576 11.3288 9.29185C11.3198 9.23794 11.3243 9.19301 11.3423 9.15707H11.5849C11.5669 9.10316 11.5444 9.05374 11.5175 9.00881C11.4905 8.96388 11.477 8.91446 11.477 8.86055C11.477 8.82461 11.4815 8.78417 11.4905 8.73925C11.4995 8.69432 11.513 8.65389 11.5309 8.61795H11.7196C11.7735 8.65389 11.814 8.68983 11.8409 8.72577C11.8679 8.76171 11.9083 8.7707 11.9622 8.75273C12.0162 8.75273 12.0746 8.73925 12.1375 8.71229C12.2004 8.68534 12.2588 8.65389 12.3127 8.61795C12.3846 8.582 12.4519 8.55505 12.5148 8.53708C12.5777 8.51911 12.6541 8.51012 12.744 8.51012C12.7979 8.51012 12.8473 8.53258 12.8922 8.57751C12.9372 8.62244 12.9866 8.65389 13.0405 8.67186C13.1124 8.7078 13.1977 8.72577 13.2966 8.72577C13.3954 8.72577 13.4718 8.7078 13.5257 8.67186C13.6874 8.67186 13.8312 8.63142 13.957 8.55055C14.0828 8.46969 14.2266 8.41128 14.3883 8.37534C14.5321 8.32143 14.6803 8.31244 14.8331 8.34838C14.9858 8.38433 15.1341 8.37534 15.2778 8.32143C15.3677 8.28549 15.4531 8.24056 15.5339 8.18665C15.6148 8.13273 15.6732 8.19563 15.7091 8.37534C15.7091 8.41128 15.6777 8.46519 15.6148 8.53708C15.5519 8.60896 15.5025 8.65389 15.4665 8.67186C15.4126 8.74374 15.3542 8.78417 15.2913 8.79316C15.2284 8.80215 15.17 8.82461 15.1161 8.86055C14.9903 8.9504 14.9589 9.06272 15.0218 9.1975C15.0847 9.33228 15.1341 9.4446 15.17 9.53445C15.17 9.58837 15.161 9.64677 15.1431 9.70967C15.1251 9.77257 15.1161 9.83097 15.1161 9.88488V10.5049C15.1161 10.7026 14.8061 10.9631 14.1861 11.2866C13.5661 11.6101 13.0495 11.9066 12.6361 12.1762C12.5103 12.284 12.3621 12.3918 12.1914 12.4996C12.0206 12.6075 11.8634 12.6075 11.7196 12.4996C11.6657 12.4637 11.6163 12.4322 11.5714 12.4053C11.5265 12.3783 11.477 12.3469 11.4231 12.3109C11.3333 12.257 11.2569 12.2346 11.194 12.2435C11.1311 12.2525 11.0996 12.257 11.0996 12.257C11.0457 12.275 11.0188 12.2076 11.0188 12.0549C11.0188 11.9021 10.9918 11.8257 10.9379 11.8257ZM29.4837 23.7134C29.6455 23.5516 29.6859 23.4573 29.605 23.4303C29.5242 23.4034 29.4837 23.3899 29.4837 23.3899C29.6455 23.3899 29.6859 23.4034 29.605 23.4303C29.5242 23.4573 29.4837 23.5516 29.4837 23.7134ZM27.1925 18.1335C27.1925 18.1335 27.2329 18.1335 27.3138 18.1335C27.3946 18.1335 27.3542 18.1335 27.1925 18.1335C27.3542 18.1335 27.4351 18.1919 27.4351 18.3087C27.4351 18.4255 27.3542 18.4839 27.1925 18.4839V18.1335ZM24.5508 24.7108C25.0539 24.549 25.4807 24.3963 25.8312 24.2525C26.1816 24.1087 26.5275 24.0369 26.869 24.0369C27.0307 23.8751 27.0712 23.8616 26.9903 23.9964C26.9094 24.1312 26.869 24.0369 26.869 23.7134C26.869 23.5516 26.8825 23.3899 26.9094 23.2282C26.9364 23.0664 27.0307 22.9047 27.1925 22.743C27.1925 22.5812 27.2329 22.4285 27.3138 22.2847C27.3946 22.1409 27.3542 22.0691 27.1925 22.0691L26.869 21.7456C26.869 21.5838 26.9094 21.3817 26.9903 21.1391C27.0712 20.8965 27.0307 20.7752 26.869 20.7752H27.1925V20.1013C27.1925 20.281 27.1925 20.3259 27.1925 20.236C27.1925 20.1462 27.1925 20.1013 27.1925 20.1013C27.1925 20.281 27.2464 20.3978 27.3542 20.4517C27.462 20.5056 27.5159 20.6134 27.5159 20.7752C27.6777 20.9369 27.8394 21.0312 28.0011 21.0582C28.1629 21.0852 28.3246 21.0986 28.4863 21.0986H28.8368C28.9985 21.0986 29.0929 21.1525 29.1198 21.2604C29.1468 21.3682 29.1603 21.4221 29.1603 21.4221C29.1603 21.4221 29.1737 21.476 29.2007 21.5838C29.2276 21.6917 29.322 21.7456 29.4837 21.7456L29.8072 22.0691C29.9689 22.0691 30.0094 22.1814 29.9285 22.406C29.8476 22.6306 29.8072 22.743 29.8072 22.743C29.8072 22.9047 29.7398 23.0664 29.605 23.2282C29.4702 23.3899 29.322 23.5516 29.1603 23.7134C29.1603 23.7134 29.1468 23.7673 29.1198 23.8751C29.0929 23.9829 28.9985 24.0369 28.8368 24.0369C28.8368 24.0369 28.8233 23.9964 28.7963 23.9155C28.7694 23.8347 28.6661 23.8751 28.4863 24.0369C28.3246 24.0369 28.2707 24.1087 28.3246 24.2525C28.3785 24.3963 28.3246 24.549 28.1629 24.7108V25.6812C28.0011 25.6812 27.8529 25.6947 27.7181 25.7216C27.5833 25.7486 27.5159 25.8429 27.5159 26.0046V26.3281H27.1925C27.0307 26.3281 26.9364 26.3461 26.9094 26.382C26.8825 26.418 26.869 26.5168 26.869 26.6786V27.002C26.869 27.002 26.8555 27.0559 26.8285 27.1638C26.8016 27.2716 26.6983 27.3255 26.5186 27.3255H26.1951C26.0333 27.3255 25.8716 27.3794 25.7099 27.4872C25.5481 27.5951 25.3864 27.649 25.2247 27.649C25.0629 27.649 25.009 27.5411 25.0629 27.3255C25.1168 27.1099 25.0629 27.002 24.9012 27.002C24.9012 27.002 24.8877 26.9346 24.8608 26.7999C24.8338 26.6651 24.7305 26.5078 24.5508 26.3281C24.7305 25.8429 24.7754 25.4925 24.6855 25.2768C24.5957 25.0612 24.5508 24.8725 24.5508 24.7108ZM2.93194 14.737C2.87802 14.6112 2.896 14.4899 2.98585 14.3731C3.0757 14.2563 3.10266 14.135 3.06672 14.0092C3.03078 13.8834 2.99034 13.7666 2.94542 13.6587C2.90049 13.5509 2.97686 13.4251 3.17454 13.2814C3.17454 13.3712 3.21947 13.4116 3.30932 13.4027C3.39918 13.3937 3.48004 13.3712 3.55193 13.3353C3.64178 13.2993 3.73613 13.2903 3.83497 13.3083C3.93381 13.3263 4.03714 13.3353 4.14496 13.3353C4.27076 13.3353 4.38308 13.3487 4.48191 13.3757C4.58075 13.4027 4.69307 13.4341 4.81887 13.47C4.87278 13.47 4.90872 13.4925 4.92669 13.5374C4.94466 13.5824 4.97162 13.6138 5.00756 13.6318H5.25016C5.26814 13.6318 5.28611 13.6453 5.30408 13.6722C5.32205 13.6992 5.34002 13.7306 5.35799 13.7666H5.54668C5.67248 13.7666 5.77581 13.798 5.85668 13.8609C5.93755 13.9238 6.03189 13.9553 6.13972 13.9553C6.22957 13.9732 6.32841 13.9508 6.43623 13.8879C6.54406 13.825 6.63391 13.7666 6.7058 13.7127C6.72377 13.6767 6.75072 13.6453 6.78666 13.6183C6.82261 13.5914 6.87652 13.5599 6.9484 13.524C6.96637 13.5599 6.99333 13.5869 7.02927 13.6048C7.06521 13.6228 7.09217 13.6138 7.11014 13.5779C7.09217 13.5779 7.07869 13.5689 7.0697 13.5509C7.06072 13.5329 7.05623 13.5419 7.05623 13.5779L7.24492 13.3892C7.29883 13.4251 7.35724 13.4251 7.42013 13.3892C7.48303 13.3532 7.54144 13.3353 7.59535 13.3353C7.57738 13.3712 7.54144 13.3937 7.48752 13.4027C7.43361 13.4116 7.38868 13.4521 7.35274 13.524C7.35274 13.524 7.43361 13.4925 7.59535 13.4296C7.75708 13.3667 7.78404 13.3353 7.67622 13.3353C7.76607 13.2993 7.84245 13.3128 7.90534 13.3757C7.96824 13.4386 8.04462 13.47 8.13447 13.47C8.17041 13.47 8.21534 13.4521 8.26925 13.4161C8.32316 13.3802 8.3591 13.3712 8.37708 13.3892C8.41302 13.3892 8.44896 13.4116 8.4849 13.4566C8.44896 13.4116 8.39505 13.3892 8.32316 13.3892C8.32316 13.4251 8.31867 13.4745 8.30969 13.5374C8.3007 13.6003 8.32316 13.6318 8.37708 13.6318C8.44896 13.6677 8.4849 13.6902 8.4849 13.6992C8.4849 13.7082 8.51186 13.7306 8.56577 13.7666C8.56577 13.7306 8.59722 13.6947 8.66011 13.6587C8.72301 13.6228 8.70953 13.5779 8.61968 13.524C8.70953 13.5599 8.78591 13.6048 8.84881 13.6587C8.91171 13.7127 8.99707 13.7306 9.10489 13.7127C9.14083 13.7127 9.19924 13.6947 9.28011 13.6587C9.36097 13.6228 9.38344 13.6408 9.3475 13.7127C9.41938 13.6767 9.49576 13.6542 9.57662 13.6453C9.65749 13.6363 9.72488 13.6318 9.77879 13.6318C9.83271 13.6138 9.89111 13.5958 9.95401 13.5779C10.0169 13.5599 10.0843 13.524 10.1562 13.47L10.7492 15.1413C10.6594 15.2492 10.6099 15.3884 10.601 15.5591C10.592 15.7299 10.5605 15.8781 10.5066 16.0039C10.4707 16.0578 10.4527 16.1162 10.4527 16.1791C10.4527 16.242 10.4527 16.3004 10.4527 16.3544C10.4527 16.4262 10.4257 16.4891 10.3718 16.543C10.3179 16.597 10.2999 16.6599 10.3179 16.7317C10.2999 16.6958 10.264 16.6644 10.2101 16.6374C10.1562 16.6104 10.1113 16.579 10.0753 16.543C10.0214 16.5071 9.97647 16.4622 9.94053 16.4083C9.90459 16.3544 9.86865 16.3004 9.83271 16.2465C9.77879 16.1926 9.70691 16.1297 9.61706 16.0578C9.5272 15.986 9.50025 15.9051 9.53619 15.8152C9.57213 15.7254 9.54967 15.64 9.4688 15.5591C9.38793 15.4783 9.32953 15.4019 9.29358 15.33C9.23967 15.2402 9.18576 15.1368 9.13185 15.02C9.07793 14.9032 9.03301 14.7909 8.99707 14.6831C8.94315 14.737 8.90272 14.8044 8.87576 14.8852C8.84881 14.9661 8.84432 15.0335 8.86229 15.0874C8.95214 15.1773 9.00605 15.2806 9.02402 15.3974C9.04199 15.5142 9.09591 15.6355 9.18576 15.7613C9.23967 15.8512 9.29808 15.941 9.36097 16.0309C9.42387 16.1207 9.50025 16.2106 9.5901 16.3004L9.77879 16.4891C9.81474 16.5251 9.84618 16.57 9.87314 16.6239C9.9001 16.6778 9.86865 16.6688 9.77879 16.597C9.83271 16.6688 9.85068 16.7317 9.83271 16.7857C9.81474 16.8396 9.84169 16.8845 9.91358 16.9204C9.96749 16.9743 10.0124 17.0328 10.0484 17.0956C10.0843 17.1585 10.1202 17.217 10.1562 17.2709C10.1562 17.3068 10.1652 17.3383 10.1831 17.3652C10.2011 17.3922 10.2281 17.4236 10.264 17.4596C10.2999 17.4775 10.3044 17.5045 10.2775 17.5404C10.2505 17.5764 10.2281 17.6123 10.2101 17.6482C10.2101 17.6662 10.2281 17.6977 10.264 17.7426C10.2999 17.7875 10.3179 17.81 10.3179 17.81L10.5066 18.1874C10.5965 18.403 10.6953 18.6052 10.8031 18.7939C10.911 18.9826 11.0098 19.1847 11.0996 19.4004C11.1356 19.4903 11.1805 19.5666 11.2344 19.6295C11.2883 19.6924 11.3512 19.7508 11.4231 19.8047C11.477 19.8766 11.5354 19.9305 11.5983 19.9665C11.6612 20.0024 11.7196 20.0563 11.7735 20.1282C11.7376 20.1282 11.6972 20.1237 11.6522 20.1147C11.6073 20.1057 11.5669 20.0833 11.5309 20.0473C11.513 20.1731 11.513 20.3034 11.5309 20.4382C11.5489 20.573 11.5669 20.6673 11.5849 20.7212C11.6567 20.7752 11.6478 20.847 11.5579 20.9369C11.468 21.0268 11.3782 21.0717 11.2883 21.0717C11.2704 21.0717 11.2434 21.0672 11.2075 21.0582C11.1715 21.0492 11.1356 21.0807 11.0996 21.1525C11.0817 21.1705 11.0682 21.2065 11.0592 21.2604C11.0502 21.3143 11.0278 21.3592 10.9918 21.3952C10.9559 21.4491 10.9334 21.4895 10.9244 21.5165C10.9154 21.5434 10.875 21.5569 10.8031 21.5569C10.7852 21.5569 10.7402 21.5659 10.6683 21.5838C10.5965 21.6018 10.5426 21.6378 10.5066 21.6917C10.4707 21.7815 10.4437 21.8624 10.4257 21.9343C10.4078 22.0062 10.3359 22.0421 10.2101 22.0421C10.0484 22.0421 9.92705 22.0017 9.84618 21.9208C9.76532 21.8399 9.67996 21.7995 9.5901 21.7995C9.32054 21.7995 9.10489 21.8085 8.94315 21.8264C8.78142 21.8444 8.59272 21.8354 8.37708 21.7995C8.37708 21.7815 8.38606 21.7546 8.40403 21.7186C8.422 21.6827 8.41302 21.6557 8.37708 21.6378C8.3591 21.5659 8.33215 21.5614 8.29621 21.6243C8.26027 21.6872 8.23331 21.7276 8.21534 21.7456C8.14346 21.8175 8.01766 21.8444 7.83795 21.8264C7.65825 21.8085 7.54144 21.7995 7.48752 21.7995H3.30932L3.17454 16.1926C3.17454 16.0668 3.17454 15.932 3.17454 15.7883C3.17454 15.6445 3.15657 15.5097 3.12063 15.3839C3.08469 15.33 3.05324 15.2312 3.02628 15.0874C2.99933 14.9437 2.96788 14.8268 2.93194 14.737ZM17.03 26.6786C17.03 26.6786 16.9896 26.6786 16.9087 26.6786C16.8278 26.6786 16.8683 26.6786 17.03 26.6786C16.8683 26.6786 16.7739 26.6201 16.747 26.5033C16.72 26.3865 16.7065 26.3281 16.7065 26.3281C16.7065 26.5078 16.72 26.6112 16.747 26.6381C16.7739 26.6651 16.8683 26.6786 17.03 26.6786ZM17.3535 27.002V26.6786L17.03 26.3281C17.03 26.1664 16.9626 26.0586 16.8278 26.0046C16.693 25.9507 16.5358 25.8429 16.3561 25.6812L16.0326 25.3577C16.0326 25.3577 16.0191 25.3038 15.9922 25.196C15.9652 25.0881 15.8709 25.0342 15.7091 25.0342V24.0369L15.3857 23.7134C15.3857 23.7134 15.3318 23.6999 15.2239 23.6729C15.1161 23.646 15.0622 23.5516 15.0622 23.3899C14.9005 23.3899 14.8061 23.3225 14.7792 23.1877C14.7522 23.053 14.7387 22.9047 14.7387 22.743V21.0986C14.7387 21.0986 14.6983 21.0582 14.6174 20.9773C14.5366 20.8965 14.577 20.9369 14.7387 21.0986V20.4517C14.7387 20.272 14.6803 20.1552 14.5635 20.1013C14.4467 20.0473 14.3883 19.9395 14.3883 19.7778C14.3883 19.7778 14.3344 19.7643 14.2266 19.7373C14.1187 19.7104 14.0648 19.616 14.0648 19.4543V19.1308C14.0648 19.1308 14.0513 19.0769 14.0244 18.9691C13.9974 18.8613 13.9031 18.8074 13.7413 18.8074C13.9031 18.8074 13.93 18.695 13.8222 18.4704C13.7144 18.2458 13.5796 18.1335 13.4179 18.1335L12.7709 17.4865C12.6092 17.3248 12.4564 17.1496 12.3127 16.9609C12.1689 16.7722 12.097 16.5071 12.097 16.1657C12.097 16.1657 12.0835 16.1117 12.0566 16.0039C12.0296 15.8961 11.9353 15.8422 11.7735 15.8422H11.4501V14.5483C11.6118 14.5483 11.7735 14.5887 11.9353 14.6696C12.097 14.7505 12.2677 14.71 12.4475 14.5483C12.6092 14.5483 12.717 14.436 12.7709 14.2113C12.8248 13.9867 12.9327 13.8744 13.0944 13.8744H13.4179C13.4179 13.7127 13.4314 13.6183 13.4583 13.5914C13.4853 13.5644 13.5796 13.5509 13.7413 13.5509L12.7709 12.5805C13.0944 12.5805 13.364 12.5131 13.5796 12.3783C13.7953 12.2435 14.0648 12.0863 14.3883 11.9066C14.568 11.9066 14.7387 11.9201 14.9005 11.947C15.0622 11.974 15.2239 12.0773 15.3857 12.257C15.8709 12.4188 16.3471 12.7018 16.8143 13.1061C17.2816 13.5105 17.6769 13.8834 18.0004 14.2248C18.1622 14.2248 18.27 14.2787 18.3239 14.3866C18.3778 14.4944 18.4946 14.5483 18.6743 14.5483C18.8361 14.71 18.9439 14.8044 18.9978 14.8313C19.0517 14.8583 19.1595 14.8718 19.3213 14.8718H20.9656C21.1273 14.8718 21.2217 14.9257 21.2486 15.0335C21.2756 15.1413 21.2891 15.1952 21.2891 15.1952C21.2891 15.357 21.3565 15.3974 21.4912 15.3165C21.626 15.2357 21.7743 15.1952 21.936 15.1952C21.936 15.1952 21.9899 15.2087 22.0977 15.2357C22.2056 15.2626 22.2595 15.357 22.2595 15.5187L22.6099 15.8422V16.1657C22.6099 16.1657 22.6638 16.1836 22.7716 16.2196C22.8795 16.2555 22.9334 16.3544 22.9334 16.5161L23.2569 16.8396C23.2569 17.0013 23.3108 17.1091 23.4186 17.163C23.5264 17.217 23.5803 17.3248 23.5803 17.4865C23.5803 17.6482 23.5938 17.7426 23.6208 17.7696C23.6477 17.7965 23.7421 17.81 23.9038 17.81V18.4839L24.2273 18.8074C24.2273 18.8074 24.2408 18.8613 24.2677 18.9691C24.2947 19.0769 24.389 19.1308 24.5508 19.1308C24.5508 19.1308 24.5687 19.1847 24.6047 19.2926C24.6406 19.4004 24.7394 19.4543 24.9012 19.4543H25.2247V20.1013C25.3864 20.281 25.5347 20.4921 25.6694 20.7347C25.8042 20.9773 25.8716 21.0986 25.8716 21.0986C26.3568 21.0986 26.7252 21.1121 26.9768 21.1391C27.2284 21.166 27.5159 21.2604 27.8394 21.4221C27.8394 21.5838 27.8933 21.6917 28.0011 21.7456C28.109 21.7995 28.1629 21.9073 28.1629 22.0691V22.4195C28.1629 22.743 28.109 23.053 28.0011 23.3495C27.8933 23.646 27.8394 23.8751 27.8394 24.0369C27.1925 24.3783 26.4691 24.6434 25.6694 24.8321C24.8697 25.0208 24.0655 25.196 23.2569 25.3577C23.0951 25.3577 22.9873 25.3712 22.9334 25.3981C22.8795 25.4251 22.7716 25.5194 22.6099 25.6812C22.4302 25.6812 22.273 25.807 22.1382 26.0586C22.0034 26.3102 21.936 26.5168 21.936 26.6786L21.6125 27.002L21.2891 26.6786H18.9978C18.8361 26.6786 18.7417 26.6381 18.7148 26.5573C18.6878 26.4764 18.6743 26.5168 18.6743 26.6786C18.4946 26.6786 18.3913 26.7325 18.3643 26.8403C18.3374 26.9481 18.3239 27.002 18.3239 27.002C18.0004 26.8403 17.7982 26.7594 17.7174 26.7594C17.6365 26.7594 17.5152 26.8403 17.3535 27.002C17.5152 26.8403 17.5961 26.7999 17.5961 26.8807C17.5961 26.9616 17.5152 27.002 17.3535 27.002ZM16.7065 26.3281C16.7065 26.5078 16.7065 26.5528 16.7065 26.4629C16.7065 26.3731 16.7065 26.3281 16.7065 26.3281ZM10.0753 13.6318C10.1113 13.6138 10.1562 13.5599 10.2101 13.47C10.264 13.3802 10.264 13.3173 10.2101 13.2814C10.2999 13.1556 10.3539 13.0208 10.3718 12.877C10.3898 12.7332 10.4168 12.5805 10.4527 12.4188C10.4527 12.4008 10.4572 12.3559 10.4662 12.284C10.4752 12.2121 10.5066 12.1582 10.5605 12.1222C10.5965 12.1043 10.6054 12.0773 10.5875 12.0414C10.5695 12.0054 10.5605 11.9695 10.5605 11.9335C10.5965 11.9156 10.6369 11.9111 10.6818 11.9201C10.7268 11.9291 10.7492 11.9335 10.7492 11.9335C10.8031 11.9335 10.8391 11.9111 10.857 11.8662C10.875 11.8212 10.884 11.7898 10.884 11.7718C10.9738 11.7718 11.0053 11.8931 10.9783 12.1357C10.9514 12.3783 10.9379 12.5535 10.9379 12.6614C10.9379 12.6434 10.911 12.6119 10.857 12.567C10.8031 12.5221 10.7492 12.4996 10.6953 12.4996C10.6234 12.4637 10.583 12.4772 10.574 12.5401C10.565 12.603 10.5426 12.6434 10.5066 12.6614C10.5066 12.7332 10.5021 12.8231 10.4931 12.9309C10.4841 13.0388 10.5066 13.0927 10.5605 13.0927C10.7223 13.0567 10.7447 13.0882 10.6279 13.187C10.5111 13.2858 10.4707 13.3802 10.5066 13.47C10.5426 13.524 10.6144 13.515 10.7223 13.4431C10.8301 13.3712 10.902 13.3353 10.9379 13.3353V13.7127C10.9379 13.8025 10.9244 13.8879 10.8975 13.9687C10.8705 14.0496 10.8391 14.126 10.8031 14.1979C10.7852 14.3057 10.7762 14.4629 10.7762 14.6696C10.7762 14.8763 10.7312 15.0335 10.6414 15.1413L10.0753 13.6318ZM10.4797 11.8257C10.6414 11.664 10.6953 11.5157 10.6414 11.3809C10.5875 11.2462 10.6414 11.1788 10.8031 11.1788V10.8553L11.1266 10.5318H11.4501C11.4501 10.6936 11.4096 10.7879 11.3288 10.8149C11.2479 10.8418 11.2883 10.8553 11.4501 10.8553C11.4501 10.8553 11.3962 10.8688 11.2883 10.8957C11.1805 10.9227 11.1266 11.017 11.1266 11.1788L10.8031 11.5023C10.8031 11.664 10.7896 11.7583 10.7627 11.7853C10.7357 11.8122 10.6414 11.8257 10.4797 11.8257C10.6414 12.0054 10.7223 12.0504 10.7223 11.9605C10.7223 11.8707 10.6414 11.8257 10.4797 11.8257ZM20.6421 14.8718C20.6421 14.8718 20.6421 14.9167 20.6421 15.0065C20.6421 15.0964 20.6421 15.0515 20.6421 14.8718C20.8039 15.0515 20.8847 15.0964 20.8847 15.0065C20.8847 14.9167 20.8039 14.8718 20.6421 14.8718ZM19.6447 15.5457C19.8244 15.5457 19.9413 15.4199 19.9952 15.1683C20.0491 14.9167 20.1569 14.71 20.3186 14.5483H20.9656V14.8718C20.9656 14.8718 20.9117 14.8897 20.8039 14.9257C20.696 14.9616 20.6421 15.0605 20.6421 15.2222C20.6421 15.2222 20.696 15.2357 20.8039 15.2626C20.9117 15.2896 20.9656 15.3839 20.9656 15.5457C20.9656 15.7074 21.0195 15.8152 21.1273 15.8691C21.2352 15.9231 21.2891 16.0309 21.2891 16.1926H20.6421V15.8691C20.4804 15.7074 20.2737 15.6131 20.0221 15.5861C19.7705 15.5591 19.6447 15.5457 19.6447 15.5457ZM20.3186 15.7613C20.6421 15.7613 20.8039 15.5457 20.8039 15.1144C20.8039 14.6831 20.6421 14.4674 20.3186 14.4674C19.9952 14.6292 19.8334 14.8852 19.8334 15.2357C19.8334 15.5861 19.9952 15.7613 20.3186 15.7613ZM23.2569 19.05C23.2569 19.05 23.2164 19.0095 23.1356 18.9287C23.0547 18.8478 23.0951 18.8882 23.2569 19.05C23.2569 18.8882 23.2569 18.7669 23.2569 18.6861C23.2569 18.6052 23.2569 18.7265 23.2569 19.05C23.2569 18.8882 23.2703 18.695 23.2973 18.4704C23.3243 18.2458 23.4186 18.2233 23.5803 18.403C23.5803 18.403 23.6387 18.4165 23.7555 18.4435C23.8724 18.4704 23.9308 18.5648 23.9308 18.7265V19.6969C23.9308 19.6969 23.9173 19.7508 23.8903 19.8587C23.8634 19.9665 23.76 20.0204 23.5803 20.0204H23.2569V19.05ZM8.18838 10.2084L8.51186 9.85793C8.67359 9.85793 8.72751 9.80401 8.67359 9.69619C8.61968 9.58837 8.67359 9.53445 8.83533 9.53445H9.48228C9.66198 9.53445 9.77879 9.48054 9.83271 9.37272C9.88662 9.26489 9.99444 9.21098 10.1562 9.21098L9.83271 9.53445V9.85793H9.48228C9.48228 9.85793 9.42836 9.87141 9.32054 9.89836C9.21272 9.92532 9.1588 10.0286 9.1588 10.2084C8.99707 10.3701 8.83533 10.451 8.67359 10.451C8.51186 10.451 8.35012 10.3701 8.18838 10.2084Z" fill="white"/>
</svg>
