<svg width="20" height="20" viewBox="0 0 20 20" fill="none" xmlns="http://www.w3.org/2000/svg">
<g clip-path="url(#clip0_10486_116049)">
<path d="M19.9658 11.165C17.988 14.0437 14.2251 15.295 10.8298 13.9725C6.86831 12.4295 4.90773 7.96715 6.45078 4.00562C7.14796 2.21566 8.44124 0.834336 10.015 0C6.02199 0.00875 2.25538 2.42578 0.718588 6.37137C-1.2854 11.5163 1.26085 17.3116 6.40578 19.3156C11.5507 21.3196 17.346 18.7733 19.35 13.6284C19.6658 12.8176 19.8684 11.9907 19.9658 11.165Z" fill="#959CB3"/>
<path d="M4.89732 2.45219C3.61279 5.75004 4.75662 9.39461 7.46127 11.4135C5.92369 9.35578 5.44982 6.57547 6.4508 4.00562C7.14799 2.21566 8.44131 0.834336 10.015 0C8.48271 0.00335938 6.98392 0.361719 5.63154 1.02469C5.3379 1.47374 5.09184 1.95215 4.89732 2.45219ZM16.9675 13.733C14.4766 17.7418 9.40955 19.5372 4.85236 17.7621C3.88263 17.3845 3.00537 16.8719 2.23334 16.2546C3.29486 17.5811 4.70885 18.6546 6.4058 19.3156C11.5507 21.3196 17.346 18.7733 19.35 13.6284C19.6658 12.8176 19.8684 11.9907 19.9658 11.165C19.1951 12.2868 18.1531 13.1614 16.9675 13.733Z" fill="#7C8293"/>
<path d="M4.23672 9.38152C4.8709 9.38152 5.385 8.86742 5.385 8.23324C5.385 7.59906 4.8709 7.08496 4.23672 7.08496C3.60254 7.08496 3.08844 7.59906 3.08844 8.23324C3.08844 8.86742 3.60254 9.38152 4.23672 9.38152Z" fill="#AEB7CE"/>
<path d="M12.3062 16.9957C12.7508 16.9957 13.1112 16.6353 13.1112 16.1907C13.1112 15.7461 12.7508 15.3857 12.3062 15.3857C11.8617 15.3857 11.5013 15.7461 11.5013 16.1907C11.5013 16.6353 11.8617 16.9957 12.3062 16.9957Z" fill="#AEB7CE"/>
<path d="M11.8231 18.8395C12.1374 18.8395 12.3922 18.5847 12.3922 18.2704C12.3922 17.956 12.1374 17.7012 11.8231 17.7012C11.5087 17.7012 11.2539 17.956 11.2539 18.2704C11.2539 18.5847 11.5087 18.8395 11.8231 18.8395Z" fill="#AEB7CE"/>
<path d="M8.85155 19.0747C9.79283 19.0747 10.5559 18.3116 10.5559 17.3704C10.5559 16.4291 9.79283 15.666 8.85155 15.666C7.91027 15.666 7.14722 16.4291 7.14722 17.3704C7.14722 18.3116 7.91027 19.0747 8.85155 19.0747Z" fill="#AEB7CE"/>
<path d="M3.8863 14.156C4.32687 14.156 4.68403 13.7989 4.68403 13.3583C4.68403 12.9177 4.32687 12.5605 3.8863 12.5605C3.44572 12.5605 3.08856 12.9177 3.08856 13.3583C3.08856 13.7989 3.44572 14.156 3.8863 14.156Z" fill="#AEB7CE"/>
<path d="M1.78305 8.35687C2.04502 8.35687 2.25739 8.14451 2.25739 7.88254C2.25739 7.62057 2.04502 7.4082 1.78305 7.4082C1.52108 7.4082 1.30872 7.62057 1.30872 7.88254C1.30872 8.14451 1.52108 8.35687 1.78305 8.35687Z" fill="#AEB7CE"/>
</g>
<defs>
<clipPath id="clip0_10486_116049">
<rect width="20" height="20" fill="white"/>
</clipPath>
</defs>
</svg>
