<svg width="28" height="29" viewBox="0 0 28 29" fill="none" xmlns="http://www.w3.org/2000/svg">
<g id="Icon" clip-path="url(#clip0_228_18581)">
<path id="Vector" d="M27.4553 15.7483L27.59 15.6136C27.5541 15.5417 27.5181 15.4833 27.4822 15.4384C27.4463 15.3935 27.4104 15.3531 27.3744 15.3172L27.2397 15.398V15.1825H26.9972C26.9254 15.2184 26.8535 15.2543 26.7817 15.2902C26.7098 15.3262 26.638 15.389 26.5661 15.4788C26.5302 15.425 26.5302 15.3711 26.5661 15.3172C26.6021 15.2633 26.6739 15.2184 26.7817 15.1825C26.8535 15.1465 26.9254 15.1196 26.9972 15.1016C27.0691 15.0837 27.123 15.0567 27.1589 15.0208V14.9669C27.123 14.9669 27.087 14.9534 27.0511 14.9265C27.0152 14.8996 26.9793 14.8861 26.9434 14.8861C26.8715 14.8861 26.7907 14.8906 26.7009 14.8996C26.6111 14.9085 26.5482 14.8591 26.5123 14.7514H26.4314C26.3596 14.7154 26.2922 14.6616 26.2294 14.5897C26.1665 14.5179 26.1351 14.446 26.1351 14.3742C26.1351 14.3382 26.1306 14.3023 26.1216 14.2664C26.1126 14.2305 26.0722 14.1945 26.0003 14.1586L25.9195 14.0778C25.9554 14.1137 25.9914 14.1317 26.0273 14.1317C26.0632 14.1317 26.0991 14.1137 26.1351 14.0778C26.171 14.0419 26.1979 14.0059 26.2159 13.97C26.2338 13.9341 26.2069 13.8982 26.1351 13.8622C26.0991 13.8622 26.0767 13.8533 26.0677 13.8353C26.0587 13.8173 26.0363 13.8083 26.0003 13.8083C25.9285 13.7185 25.8477 13.6377 25.7578 13.5659C25.668 13.494 25.6231 13.4042 25.6231 13.2964C25.6231 13.2605 25.6097 13.2111 25.5827 13.1482C25.5558 13.0854 25.5243 13.036 25.4884 13C25.4884 12.9641 25.4749 12.9282 25.448 12.8923C25.4211 12.8564 25.4076 12.8204 25.4076 12.7845V12.569C25.3717 12.6767 25.3223 12.798 25.2594 12.9327C25.1965 13.0674 25.1471 13.1887 25.1112 13.2964C25.0394 13.2605 24.9944 13.2425 24.9765 13.2425C24.9585 13.2425 24.9316 13.2785 24.8957 13.3503C24.8957 13.3862 24.8597 13.4222 24.7879 13.4581C24.716 13.494 24.6621 13.512 24.6262 13.512C24.5723 13.476 24.5229 13.4311 24.478 13.3773C24.4331 13.3234 24.3568 13.2964 24.249 13.2964V13.2156C24.249 13.1797 24.2355 13.1482 24.2086 13.1213C24.1817 13.0944 24.1682 13.0809 24.1682 13.0809C24.0963 13.009 24.0604 12.9372 24.0604 12.8653C24.0604 12.7935 24.0784 12.7396 24.1143 12.7037C24.1502 12.6677 24.1727 12.6318 24.1817 12.5959C24.1906 12.56 24.2131 12.524 24.249 12.4881H24.1143C24.0065 12.524 23.9077 12.5285 23.8179 12.5016C23.7281 12.4747 23.6293 12.4432 23.5215 12.4073C23.4856 12.3714 23.4407 12.3354 23.3868 12.2995C23.3329 12.2636 23.306 12.2277 23.306 12.1917L23.2252 12.1379C23.1533 12.1379 23.0994 12.1064 23.0635 12.0436C23.0276 11.9807 23.0096 11.9313 23.0096 11.8954C22.9378 11.8954 22.8659 11.8864 22.7941 11.8684C22.7222 11.8505 22.6504 11.8415 22.5785 11.8415C22.5426 11.8415 22.5022 11.828 22.4573 11.8011C22.4124 11.7741 22.354 11.7607 22.2822 11.7607C22.2103 11.7247 22.1564 11.7292 22.1205 11.7741C22.0846 11.819 22.0666 11.8594 22.0666 11.8954C22.0307 11.9313 22.0262 11.9717 22.0531 12.0166C22.0801 12.0615 22.1115 12.1019 22.1474 12.1379C22.1834 12.1738 22.2058 12.1962 22.2148 12.2052C22.2238 12.2142 22.2283 12.2367 22.2283 12.2726C22.1923 12.3085 22.1744 12.3579 22.1744 12.4208C22.1744 12.4836 22.1923 12.551 22.2283 12.6228C22.2642 12.6588 22.2822 12.6947 22.2822 12.7306C22.2822 12.7665 22.2822 12.8025 22.2822 12.8384V13C22.2103 13.0719 22.1744 13.1213 22.1744 13.1482C22.1744 13.1752 22.2103 13.2246 22.2822 13.2964V13.3503C22.2822 13.3862 22.2956 13.4222 22.3226 13.4581C22.3495 13.494 22.363 13.5299 22.363 13.5659C22.3989 13.6377 22.4214 13.714 22.4303 13.7949C22.4393 13.8757 22.4618 13.952 22.4977 14.0239C22.5336 14.1317 22.5471 14.2484 22.5381 14.3742C22.5291 14.4999 22.4708 14.5987 22.363 14.6705C22.2911 14.7424 22.2148 14.8187 22.134 14.8996C22.0531 14.9804 21.9319 15.0208 21.7702 15.0208C21.7702 15.0567 21.7837 15.0926 21.8106 15.1286C21.8376 15.1645 21.8511 15.2004 21.8511 15.2363C21.8511 15.2723 21.8645 15.3082 21.8915 15.3441C21.9184 15.38 21.9319 15.425 21.9319 15.4788C21.9319 15.5148 21.9454 15.5776 21.9723 15.6674C21.9992 15.7573 22.0127 15.856 22.0127 15.9638V16.1255C22.0127 16.1614 21.9992 16.1839 21.9723 16.1928C21.9454 16.2018 21.9588 16.2243 22.0127 16.2602V16.341C21.9229 16.2692 21.869 16.2377 21.8511 16.2467C21.8331 16.2557 21.7882 16.332 21.7163 16.4757C21.6804 16.4398 21.6445 16.4174 21.6086 16.4084C21.5726 16.3994 21.5367 16.377 21.5008 16.341C21.4289 16.2692 21.3795 16.1973 21.3526 16.1255C21.3257 16.0536 21.2763 15.9818 21.2044 15.9099C21.1685 15.7662 21.1326 15.663 21.0966 15.6001C21.0607 15.5372 21.0428 15.4699 21.0428 15.398V14.8053C21.0428 14.7693 21.0293 14.7469 21.0023 14.7379C20.9754 14.7289 20.944 14.7065 20.908 14.6705H20.3422C20.2524 14.6346 20.1806 14.5987 20.1267 14.5628C20.0728 14.5268 19.992 14.5089 19.8842 14.5089C19.8842 14.5089 19.8752 14.5089 19.8572 14.5089C19.8393 14.5089 19.8303 14.4909 19.8303 14.455C19.7944 14.455 19.7674 14.4415 19.7495 14.4146C19.7315 14.3876 19.7046 14.3742 19.6686 14.3742C19.5968 14.3742 19.5339 14.3562 19.48 14.3203C19.4262 14.2843 19.3992 14.2305 19.3992 14.1586C19.3453 14.0868 19.3094 14.0329 19.2914 13.997C19.2735 13.961 19.2106 13.9431 19.1028 13.9431C19.0669 13.9431 19.031 13.9296 18.9951 13.9027C18.9591 13.8757 18.9412 13.8622 18.9412 13.8622C18.9053 13.8263 18.8693 13.8083 18.8334 13.8083C18.7975 13.8083 18.7436 13.8263 18.6717 13.8622C18.6358 13.8622 18.5954 13.8757 18.5505 13.9027C18.5056 13.9296 18.4652 13.9431 18.4293 13.9431V13.6467C18.4293 13.6108 18.4203 13.5614 18.4023 13.4985C18.3843 13.4356 18.3754 13.3862 18.3754 13.3503C18.3754 13.3144 18.3574 13.283 18.3215 13.256C18.2856 13.2291 18.2317 13.2156 18.1598 13.2156C18.052 13.2156 17.9892 13.1976 17.9712 13.1617C17.9533 13.1258 17.9443 13.0719 17.9443 13C17.9443 12.8564 17.9577 12.7082 17.9847 12.5555C18.0116 12.4028 18.0431 12.2367 18.079 12.057C18.079 11.9852 18.1104 11.9268 18.1733 11.8819C18.2362 11.837 18.3035 11.7966 18.3754 11.7607C18.4472 11.7247 18.4921 11.6843 18.5101 11.6394C18.528 11.5945 18.555 11.5361 18.5909 11.4643H18.7256C18.7975 11.4643 18.8514 11.4508 18.8873 11.4239C18.9232 11.3969 18.9412 11.3655 18.9412 11.3296C18.9412 11.2577 18.9142 11.2263 18.8603 11.2353C18.8065 11.2442 18.7616 11.2308 18.7256 11.1948C18.6897 11.1948 18.6583 11.1904 18.6313 11.1814C18.6044 11.1724 18.5909 11.1499 18.5909 11.114C18.5909 11.0422 18.564 10.9973 18.5101 10.9793C18.4562 10.9613 18.4113 10.9524 18.3754 10.9524C18.3394 10.9524 18.3125 10.9524 18.2945 10.9524C18.2766 10.9524 18.2496 10.9344 18.2137 10.8985H18.4293C18.5191 10.9344 18.5999 10.9568 18.6717 10.9658C18.7436 10.9748 18.8154 10.9973 18.8873 11.0332C18.9951 11.0691 19.0669 11.0736 19.1028 11.0467C19.1388 11.0197 19.1567 10.9703 19.1567 10.8985V10.8176C19.1926 10.8176 19.2286 10.8311 19.2645 10.8581C19.3004 10.885 19.3453 10.8985 19.3992 10.8985C19.4351 10.8985 19.4711 10.9074 19.507 10.9254C19.5429 10.9434 19.5788 10.9344 19.6148 10.8985C19.6507 10.8266 19.6866 10.7638 19.7225 10.7099C19.7585 10.656 19.8123 10.5931 19.8842 10.5213L19.965 10.4674C19.9291 10.4674 19.9066 10.4629 19.8977 10.4539C19.8887 10.4449 19.8662 10.4225 19.8303 10.3865H19.6686C19.5968 10.3865 19.516 10.3686 19.4262 10.3327C19.3363 10.2967 19.2735 10.2428 19.2376 10.171V10.0902H19.3184C19.3543 10.1261 19.3902 10.1485 19.4262 10.1575C19.4621 10.1665 19.498 10.189 19.5339 10.2249C19.6058 10.3147 19.6821 10.3686 19.7629 10.3865C19.8438 10.4045 19.9381 10.3506 20.0459 10.2249L20.0997 10.171C20.1357 10.1351 20.1536 10.0991 20.1536 10.0632C20.1536 10.0273 20.1357 10.0093 20.0997 10.0093C20.0997 10.0093 20.0997 10.0004 20.0997 9.98239C20.0997 9.96443 20.0818 9.95545 20.0459 9.95545H20.2614C20.2973 10.0273 20.3467 10.0542 20.4096 10.0363C20.4725 10.0183 20.5398 10.0093 20.6117 10.0093C20.6476 9.93749 20.6251 9.88809 20.5443 9.86115C20.4635 9.8342 20.441 9.76685 20.4769 9.65907L20.7733 10.0093C20.8092 9.97341 20.8407 9.95096 20.8676 9.94198C20.8946 9.933 20.908 9.91054 20.908 9.87462C20.944 9.83869 20.9844 9.79379 21.0293 9.7399C21.0742 9.68602 21.1326 9.65907 21.2044 9.65907C21.2403 9.65907 21.2628 9.6456 21.2718 9.61866C21.2808 9.59171 21.2852 9.56028 21.2852 9.52435C21.2493 9.43454 21.2134 9.3582 21.1775 9.29534C21.1415 9.23247 21.0966 9.18307 21.0428 9.14715V9.06632H21.1236C21.1595 9.06632 21.1954 9.06632 21.2314 9.06632C21.2673 9.06632 21.3032 9.04836 21.3391 9.01243C21.3391 9.01243 21.3391 8.99447 21.3391 8.95855C21.3391 8.92262 21.3212 8.8867 21.2852 8.85077C21.3212 8.81485 21.3346 8.78341 21.3257 8.75647C21.3167 8.72953 21.2763 8.71605 21.2044 8.71605C21.1685 8.71605 21.1326 8.70258 21.0966 8.67564C21.0607 8.6487 21.0248 8.61726 20.9889 8.58134C20.9889 8.58134 20.9844 8.56787 20.9754 8.54092C20.9664 8.51398 20.944 8.50051 20.908 8.50051C20.8362 8.50051 20.7599 8.48704 20.679 8.46009C20.5982 8.43315 20.5039 8.41968 20.3961 8.41968C20.3602 8.41968 20.3288 8.42417 20.3018 8.43315C20.2749 8.44213 20.2614 8.46458 20.2614 8.50051C20.2614 8.53643 20.2524 8.57236 20.2345 8.60828C20.2165 8.64421 20.2524 8.68013 20.3422 8.71605C20.3782 8.75198 20.3961 8.79688 20.3961 8.85077C20.3961 8.90466 20.3782 8.9316 20.3422 8.9316C20.2524 8.96753 20.203 9.00345 20.194 9.03938C20.1851 9.0753 20.1806 9.11122 20.1806 9.14715C20.1806 9.18307 20.1671 9.219 20.1402 9.25492C20.1132 9.29085 20.0997 9.32677 20.0997 9.3627H20.0459V9.28187C20.0459 9.24594 20.0414 9.22349 20.0324 9.21451C20.0234 9.20553 20.0009 9.18307 19.965 9.14715H19.8842V9.28187C19.8842 9.28187 19.8977 9.28636 19.9246 9.29534C19.9515 9.30432 19.965 9.32677 19.965 9.3627C19.965 9.39862 19.974 9.43454 19.992 9.47047C20.0099 9.50639 20.0009 9.54232 19.965 9.57824C19.965 9.61417 19.9426 9.64111 19.8977 9.65907C19.8528 9.67703 19.8303 9.70398 19.8303 9.7399C19.7944 9.70398 19.7585 9.65458 19.7225 9.59171C19.6866 9.52885 19.6507 9.47945 19.6148 9.44353C19.5788 9.4076 19.5609 9.3582 19.5609 9.29534C19.5609 9.23247 19.5968 9.18307 19.6686 9.14715V9.06632C19.6686 8.99447 19.6417 8.94058 19.5878 8.90466C19.5339 8.86873 19.489 8.83281 19.4531 8.79688C19.4172 8.79688 19.3947 8.78341 19.3857 8.75647C19.3768 8.72953 19.3543 8.71605 19.3184 8.71605L19.2376 8.79688C19.2016 8.86873 19.1702 8.92711 19.1432 8.97202C19.1163 9.01692 19.1028 9.0753 19.1028 9.14715C19.0669 9.11122 19.0534 9.06183 19.0624 8.99896C19.0714 8.93609 19.0579 8.8867 19.022 8.85077C18.9861 8.77892 18.9816 8.73402 19.0085 8.71605C19.0355 8.69809 19.0669 8.67115 19.1028 8.63523C19.031 8.49153 18.9681 8.38824 18.9142 8.32538C18.8603 8.26251 18.7795 8.267 18.6717 8.33885C18.6717 8.30292 18.6672 8.25802 18.6583 8.20413C18.6493 8.15024 18.6987 8.10534 18.8065 8.06941C18.8424 8.06941 18.8603 8.05145 18.8603 8.01553C18.8603 7.9796 18.8424 7.94368 18.8065 7.90775C18.7346 7.87183 18.6852 7.82692 18.6583 7.77304C18.6313 7.71915 18.5819 7.69221 18.5101 7.69221V7.61138C18.5101 7.5036 18.4876 7.41379 18.4427 7.34194C18.3978 7.27009 18.3215 7.21621 18.2137 7.18028C18.1778 7.18028 18.1598 7.16681 18.1598 7.13987C18.1598 7.11292 18.1778 7.08149 18.2137 7.04557C18.2496 7.00964 18.2856 6.96025 18.3215 6.89738C18.3574 6.83451 18.3933 6.78511 18.4293 6.74919C18.3933 6.71326 18.3754 6.69081 18.3754 6.68183C18.3754 6.67285 18.3754 6.6504 18.3754 6.61447C18.4113 6.61447 18.4472 6.61447 18.4831 6.61447C18.5191 6.61447 18.555 6.63243 18.5909 6.66836C18.6268 6.66836 18.6717 6.66836 18.7256 6.66836C18.7795 6.66836 18.8065 6.6504 18.8065 6.61447L19.022 6.18338C19.0579 6.14746 19.0624 6.11153 19.0355 6.07561C19.0085 6.03968 18.9591 6.02172 18.8873 6.02172H18.5909C18.4831 5.94987 18.3843 5.91844 18.2945 5.92742C18.2047 5.9364 18.1059 5.94089 17.9982 5.94089C17.9263 5.94089 17.8859 5.96334 17.8769 6.00825C17.8679 6.05315 17.8634 6.11153 17.8634 6.18338V6.23726H17.7287V6.53364C17.7287 6.60549 17.7377 6.66387 17.7557 6.70877C17.7736 6.75368 17.7826 6.82104 17.7826 6.91085C17.7826 6.9827 17.7916 7.05006 17.8096 7.11292C17.8275 7.17579 17.8185 7.22519 17.7826 7.26111C17.7467 7.33296 17.7197 7.39134 17.7018 7.43624C17.6838 7.48115 17.6928 7.52157 17.7287 7.55749L17.6479 7.47666H17.5671C17.5311 7.51258 17.5132 7.56198 17.5132 7.62485C17.5132 7.68772 17.5311 7.73711 17.5671 7.77304C17.603 7.80896 17.621 7.83142 17.621 7.84039C17.621 7.84938 17.603 7.87183 17.5671 7.90775C17.4952 7.9796 17.4862 8.06043 17.5401 8.15024C17.594 8.24006 17.6748 8.28496 17.7826 8.28496C17.8185 8.28496 17.8545 8.28496 17.8904 8.28496C17.9263 8.28496 17.9622 8.30292 17.9982 8.33885C18.0341 8.33885 18.0655 8.35681 18.0925 8.39273C18.1194 8.42866 18.1149 8.46458 18.079 8.50051C18.079 8.53643 18.0655 8.57236 18.0386 8.60828C18.0116 8.64421 17.9982 8.68013 17.9982 8.71605V8.79688L18.1598 8.58134C18.2317 8.68911 18.2227 8.7879 18.1329 8.87771C18.0431 8.96753 17.9263 9.03039 17.7826 9.06632V9.14715C17.7826 9.18307 17.7871 9.219 17.7961 9.25492C17.8051 9.29085 17.8275 9.32677 17.8634 9.3627C17.8634 9.39862 17.8589 9.43005 17.85 9.457C17.841 9.48394 17.8006 9.47945 17.7287 9.44353C17.6389 9.4076 17.5805 9.37168 17.5536 9.33575C17.5266 9.29983 17.5311 9.2639 17.5671 9.22798C17.5671 9.19205 17.5805 9.15613 17.6075 9.1202C17.6344 9.08428 17.6479 9.06632 17.6479 9.06632C17.576 9.06632 17.5042 9.06183 17.4323 9.05285C17.3605 9.04387 17.3066 9.00345 17.2707 8.9316H17.4862C17.5222 8.89568 17.5581 8.87322 17.594 8.86424C17.6299 8.85526 17.6479 8.85077 17.6479 8.85077C17.6838 8.85077 17.7153 8.85077 17.7422 8.85077C17.7691 8.85077 17.7826 8.83281 17.7826 8.79688V8.58134H17.4862V8.50051H17.7287C17.7287 8.46458 17.7108 8.43315 17.6748 8.40621C17.6389 8.37926 17.603 8.38375 17.5671 8.41968C17.4952 8.4556 17.4368 8.46009 17.3919 8.43315C17.347 8.40621 17.3066 8.37477 17.2707 8.33885C17.1988 8.30292 17.1539 8.28945 17.136 8.29843C17.118 8.30741 17.0911 8.34783 17.0551 8.41968V8.50051C17.0551 8.53643 17.0462 8.55889 17.0282 8.56787C17.0102 8.57685 17.0013 8.58134 17.0013 8.58134C16.9653 8.58134 16.9384 8.59032 16.9204 8.60828C16.9025 8.62624 16.8755 8.63523 16.8396 8.63523C16.8755 8.63523 16.9114 8.6487 16.9474 8.67564C16.9833 8.70258 17.0013 8.71605 17.0013 8.71605C17.0731 8.71605 17.127 8.72953 17.1629 8.75647C17.1988 8.78341 17.2168 8.81485 17.2168 8.85077L17.136 8.9316H17.0013V9.22798C16.8396 9.19205 16.7049 9.18307 16.5971 9.20103C16.4893 9.219 16.3816 9.22798 16.2738 9.22798C16.2019 9.22798 16.1301 9.219 16.0582 9.20103C15.9864 9.18307 15.9325 9.13817 15.8966 9.06632L15.8157 9.01243C15.7439 9.01243 15.6855 8.99896 15.6406 8.97202C15.5957 8.94507 15.5373 8.9316 15.4655 8.9316C15.3936 8.9316 15.3532 8.91364 15.3442 8.87771C15.3353 8.84179 15.3308 8.7879 15.3308 8.71605C15.3308 8.68013 15.3128 8.6487 15.2769 8.62175C15.241 8.59481 15.205 8.58134 15.1691 8.58134C15.0613 8.61726 14.967 8.65319 14.8862 8.68911C14.8054 8.72504 14.7111 8.76096 14.6033 8.79688C14.5674 8.79688 14.5539 8.81036 14.5629 8.8373C14.5719 8.86424 14.5584 8.89568 14.5225 8.9316H14.6572C14.729 8.89568 14.8009 8.86424 14.8727 8.8373C14.9446 8.81036 15.0254 8.79688 15.1152 8.79688H15.1691C15.1332 8.86873 15.0838 8.91364 15.0209 8.9316C14.958 8.94956 14.8907 8.97651 14.8188 9.01243C14.747 9.01243 14.7021 9.03039 14.6841 9.06632C14.6662 9.10224 14.6572 9.15613 14.6572 9.22798C14.6931 9.29983 14.72 9.3582 14.738 9.40311C14.756 9.44802 14.7829 9.48843 14.8188 9.52435L14.6572 9.65907C14.6213 9.65907 14.5943 9.65458 14.5764 9.6456C14.5584 9.63662 14.5674 9.5962 14.6033 9.52435C14.6033 9.48843 14.5988 9.44802 14.5898 9.40311C14.5808 9.3582 14.5584 9.31779 14.5225 9.28187C14.4506 9.24594 14.3833 9.21002 14.3204 9.17409C14.2575 9.13817 14.1991 9.10224 14.1453 9.06632H14.0914C13.9836 9.06632 13.8848 9.07979 13.795 9.10673C13.7052 9.13368 13.6064 9.14715 13.4986 9.14715H12.9867C12.9148 9.14715 12.8789 9.13368 12.8789 9.10673C12.8789 9.07979 12.8969 9.04836 12.9328 9.01243C12.9687 8.97651 13.0047 8.94956 13.0406 8.9316C13.0765 8.91364 13.1304 8.8867 13.2022 8.85077C13.2022 8.77892 13.1484 8.70258 13.0406 8.62175C12.9328 8.54092 12.843 8.52745 12.7711 8.58134H12.5017C12.4119 8.52745 12.3311 8.48704 12.2592 8.46009C12.1874 8.43315 12.1155 8.41968 12.0437 8.41968C11.9359 8.38375 11.8326 8.35681 11.7338 8.33885C11.635 8.32088 11.5497 8.27598 11.4779 8.20413C11.406 8.13228 11.3117 8.10983 11.195 8.13677C11.0782 8.16372 11.0019 8.21311 10.9659 8.28496C10.93 8.35681 10.8896 8.39722 10.8447 8.40621C10.7998 8.41519 10.7414 8.41968 10.6696 8.41968V8.06941H10.5887C10.5887 8.10534 10.5798 8.12779 10.5618 8.13677C10.5438 8.14575 10.5348 8.16821 10.5348 8.20413C10.4989 8.24006 10.472 8.27598 10.454 8.3119C10.4361 8.34783 10.4091 8.38375 10.3732 8.41968L10.3193 8.50051C10.2834 8.50051 10.2564 8.49602 10.2385 8.48704C10.2205 8.47805 10.1936 8.4556 10.1576 8.41968C10.1576 8.38375 10.1576 8.34783 10.1576 8.3119C10.1576 8.27598 10.1397 8.24006 10.1038 8.20413C10.0678 8.13228 10.0229 8.06492 9.96904 8.00206C9.91515 7.93919 9.83432 7.88979 9.72655 7.85387L9.80738 8.06941C9.77145 8.14126 9.73553 8.19515 9.6996 8.23107C9.66368 8.267 9.62775 8.30292 9.59183 8.33885C9.51998 8.30292 9.4616 8.28496 9.4167 8.28496C9.37179 8.28496 9.33138 8.30292 9.29545 8.33885C9.25953 8.37477 9.23258 8.40621 9.21462 8.43315C9.19666 8.46009 9.15175 8.4556 9.0799 8.41968H8.99907C8.92723 8.4556 8.86885 8.49153 8.82394 8.52745C8.77904 8.56338 8.73862 8.5993 8.7027 8.63523C8.7027 8.67115 8.68474 8.70258 8.64881 8.72953C8.61289 8.75647 8.559 8.75198 8.48715 8.71605C8.48715 8.71605 8.49164 8.70258 8.50062 8.67564C8.5096 8.6487 8.53206 8.63523 8.56798 8.63523C8.67575 8.56338 8.77455 8.48255 8.86436 8.39273C8.95417 8.30292 9.07092 8.24006 9.21462 8.20413C9.25055 8.20413 9.28647 8.19066 9.3224 8.16372C9.35832 8.13677 9.39424 8.10534 9.43017 8.06941V7.98858L8.78353 8.20413C8.7476 8.20413 8.71617 8.2176 8.68923 8.24454C8.66228 8.27149 8.64881 8.28496 8.64881 8.28496C8.61289 8.28496 8.57696 8.29394 8.54104 8.3119C8.50511 8.32987 8.46919 8.32088 8.43326 8.28496C8.39734 8.24904 8.34345 8.24006 8.2716 8.25802C8.19975 8.27598 8.12791 8.30292 8.05606 8.33885C7.98421 8.37477 7.94379 8.4107 7.93481 8.44662C7.92583 8.48255 7.9393 8.52745 7.97523 8.58134C7.97523 8.61726 7.9887 8.63972 8.01564 8.6487C8.04259 8.65768 8.05606 8.68013 8.05606 8.71605C7.98421 8.68013 7.91236 8.65768 7.84051 8.6487C7.76866 8.63972 7.69681 8.63523 7.62496 8.63523C7.51719 8.63523 7.42289 8.60379 7.34206 8.54092C7.26123 8.47805 7.18489 8.4107 7.11304 8.33885H6.89749C6.78972 8.33885 6.66847 8.33436 6.53376 8.32538C6.39904 8.31639 6.2778 8.27598 6.17002 8.20413C6.1341 8.16821 6.09368 8.15024 6.04878 8.15024C6.00387 8.15024 5.94549 8.16821 5.87364 8.20413C5.87364 8.27598 5.8467 8.31639 5.79282 8.32538C5.73893 8.33436 5.67606 8.33885 5.60421 8.33885C5.55032 8.33885 5.50542 8.32987 5.46949 8.3119C5.43357 8.29394 5.39765 8.28496 5.36172 8.28496L5.227 8.41968C5.19108 8.4556 5.11923 8.48255 5.01146 8.50051C4.90368 8.51847 4.83184 8.49153 4.79591 8.41968C4.75999 8.34783 4.7061 8.29394 4.63425 8.25802C4.5624 8.22209 4.47259 8.20413 4.36482 8.20413C4.32889 8.20413 4.2795 8.19066 4.21663 8.16372C4.15376 8.13677 4.10436 8.1233 4.06844 8.1233C4.03252 8.1233 4.01006 8.10983 4.00108 8.08289C3.9921 8.05594 3.96965 8.02451 3.93372 7.98858C3.8978 7.95266 3.86187 7.93021 3.82595 7.92122C3.79003 7.91224 3.77206 7.88979 3.77206 7.85387C3.77206 7.85387 3.75859 7.84039 3.73165 7.81345C3.7047 7.78651 3.67327 7.77304 3.63735 7.77304H3.12542C2.98172 7.77304 2.8515 7.80447 2.73474 7.86734C2.61799 7.93021 2.50573 7.99756 2.39795 8.06941C2.36203 8.10534 2.31263 8.13677 2.24976 8.16372C2.1869 8.19066 2.1375 8.20413 2.10157 8.20413C2.02973 8.20413 1.97135 8.2176 1.92644 8.24454C1.88154 8.27149 1.82316 8.28496 1.75131 8.28496C1.57169 8.35681 1.39207 8.43315 1.21244 8.51398C1.03282 8.59481 0.871161 8.68911 0.727463 8.79688C0.691539 8.83281 0.655614 8.85077 0.61969 8.85077C0.583765 8.85077 0.547841 8.85077 0.511917 8.85077C0.475992 8.85077 0.440068 8.86424 0.404143 8.89119C0.368219 8.91813 0.332294 8.9316 0.29637 8.9316C0.368219 9.00345 0.426596 9.05285 0.471501 9.07979C0.516407 9.10673 0.574784 9.10224 0.646633 9.06632H0.808293C0.844218 9.10224 0.889124 9.13817 0.94301 9.17409C0.996897 9.21002 1.0418 9.24594 1.07773 9.28187C1.11365 9.28187 1.14059 9.29534 1.15856 9.32228C1.17652 9.34922 1.20346 9.3627 1.23939 9.3627C1.31124 9.39862 1.37859 9.44353 1.44146 9.49741C1.50433 9.5513 1.53576 9.63213 1.53576 9.7399C1.53576 9.77583 1.54924 9.80726 1.57618 9.8342C1.60312 9.86115 1.63456 9.87462 1.67048 9.87462H1.8052C1.8052 9.87462 1.8052 9.88809 1.8052 9.91503C1.8052 9.94198 1.78724 9.95545 1.75131 9.95545C1.67946 9.95545 1.62108 9.95994 1.57618 9.96892C1.53127 9.9779 1.49086 10.0183 1.45493 10.0902H1.3741C1.30226 10.0902 1.23041 10.0767 1.15856 10.0498C1.08671 10.0228 1.01486 10.0093 0.94301 10.0093V9.87462C0.907086 9.87462 0.866671 9.85666 0.821765 9.82073C0.77686 9.78481 0.718482 9.80277 0.646633 9.87462L0.431086 10.0902C0.395162 10.0902 0.332294 10.1036 0.242483 10.1306C0.152672 10.1575 0.0718416 10.189 -7.32392e-06 10.2249C-0.0359318 10.2788 -0.053894 10.3102 -0.053894 10.3192C-0.053894 10.3282 -0.0359318 10.3506 -7.32392e-06 10.3865C0.0359172 10.4225 0.0853133 10.4449 0.148181 10.4539C0.211049 10.4629 0.260445 10.4853 0.29637 10.5213C0.260445 10.5572 0.242483 10.5931 0.242483 10.629C0.242483 10.665 0.260445 10.6829 0.29637 10.6829L0.350256 10.7368C0.404143 10.7368 0.449049 10.7503 0.484973 10.7772C0.520898 10.8042 0.556822 10.8176 0.592747 10.8176H1.02384C1.05976 10.8176 1.09569 10.8131 1.13161 10.8042C1.16754 10.7952 1.20346 10.7727 1.23939 10.7368C1.27531 10.7009 1.31124 10.6694 1.34716 10.6425C1.38309 10.6156 1.41901 10.6021 1.45493 10.6021H1.58965V10.6829C1.5178 10.7188 1.49086 10.7638 1.50882 10.8176C1.52678 10.8715 1.55373 10.9164 1.58965 10.9524C1.62558 11.0601 1.61659 11.1365 1.56271 11.1814C1.50882 11.2263 1.42799 11.2308 1.32022 11.1948C1.26633 11.1948 1.2349 11.1948 1.22592 11.1948C1.21693 11.1948 1.19448 11.2128 1.15856 11.2487C1.15856 11.2847 1.14509 11.3206 1.11814 11.3565C1.0912 11.3924 1.07773 11.4284 1.07773 11.4643L0.727463 11.3296C0.763388 11.4373 0.77686 11.5271 0.767878 11.599C0.758897 11.6708 0.70052 11.7247 0.592747 11.7607V11.8415C0.556822 11.8774 0.529879 11.9268 0.511917 11.9897C0.493954 12.0525 0.467011 12.1019 0.431086 12.1379C0.502935 12.1738 0.552332 12.2097 0.579275 12.2456C0.606218 12.2816 0.583765 12.3354 0.511917 12.4073L0.808293 12.7037C0.808293 12.7037 0.821765 12.7082 0.848709 12.7171C0.875652 12.7261 0.907086 12.7486 0.94301 12.7845C0.978935 12.7845 1.01486 12.7935 1.05078 12.8114C1.08671 12.8294 1.12263 12.8384 1.15856 12.8384C1.19448 12.8923 1.23041 12.9192 1.26633 12.9192C1.30226 12.9192 1.32022 12.8923 1.32022 12.8384C1.32022 12.8384 1.32022 12.8294 1.32022 12.8114C1.32022 12.7935 1.33818 12.7845 1.3741 12.7845C1.48188 12.8564 1.5178 12.9417 1.48188 13.0405C1.44595 13.1393 1.46392 13.2425 1.53576 13.3503C1.57169 13.3144 1.60761 13.2919 1.64354 13.283C1.67946 13.274 1.73335 13.2515 1.8052 13.2156C1.84112 13.2156 1.87705 13.2021 1.91297 13.1752C1.9489 13.1482 1.98482 13.1348 2.02074 13.1348H2.1824C2.25425 13.0988 2.32161 13.0854 2.38448 13.0944C2.44735 13.1033 2.49674 13.1437 2.53267 13.2156C2.53267 13.2156 2.53716 13.2291 2.54614 13.256C2.55512 13.283 2.57757 13.2964 2.6135 13.2964H2.74822C2.71229 13.3683 2.68086 13.4222 2.65391 13.4581C2.62697 13.494 2.6135 13.5299 2.6135 13.5659C2.6135 13.6916 2.58206 13.7904 2.5192 13.8622C2.45633 13.9341 2.38897 14.0059 2.31712 14.0778H2.26323C2.1375 14.1137 2.05218 14.1631 2.00727 14.226C1.96237 14.2888 1.92195 14.3382 1.88603 14.3742C1.8501 14.4101 1.82765 14.4325 1.81867 14.4415C1.80969 14.4505 1.78724 14.455 1.75131 14.455H1.53576C1.49984 14.4909 1.46392 14.5403 1.42799 14.6032C1.39207 14.666 1.35614 14.7154 1.32022 14.7514H1.3741C1.41003 14.7514 1.44595 14.7379 1.48188 14.711C1.5178 14.684 1.53576 14.6705 1.53576 14.6705L1.67048 14.5089C1.70641 14.5448 1.73335 14.5628 1.75131 14.5628C1.76927 14.5628 1.81418 14.5448 1.88603 14.5089C1.92195 14.5089 1.94441 14.4999 1.95339 14.4819C1.96237 14.464 1.98482 14.455 2.02074 14.455C2.14648 14.455 2.25425 14.4325 2.34406 14.3876C2.43388 14.3427 2.49674 14.2664 2.53267 14.1586C2.53267 14.1586 2.53716 14.1451 2.54614 14.1182C2.55512 14.0913 2.57757 14.0778 2.6135 14.0778C2.68535 14.0419 2.74372 14.0059 2.78863 13.97C2.83354 13.9341 2.89191 13.8982 2.96376 13.8622L3.20625 13.6467C3.24218 13.6467 3.26463 13.6332 3.27361 13.6063C3.28259 13.5793 3.30504 13.5659 3.34097 13.5659C3.37689 13.494 3.44425 13.4446 3.54304 13.4177C3.64184 13.3907 3.69123 13.3234 3.69123 13.2156C3.76308 13.1797 3.79901 13.1437 3.79901 13.1078C3.79901 13.0719 3.76308 13.036 3.69123 13C3.69123 13 3.68225 12.9956 3.66429 12.9866C3.64633 12.9776 3.63735 12.9551 3.63735 12.9192C3.67327 12.8833 3.72267 12.8474 3.78553 12.8114C3.8484 12.7755 3.8978 12.7396 3.93372 12.7037C3.96965 12.7037 3.9921 12.6902 4.00108 12.6633C4.01006 12.6363 4.03252 12.6049 4.06844 12.569C4.06844 12.569 4.07293 12.551 4.08191 12.5151C4.09089 12.4791 4.11335 12.4432 4.14927 12.4073C4.22112 12.3354 4.29297 12.2636 4.36482 12.1917C4.43667 12.1199 4.50851 12.0211 4.58036 11.8954L4.87674 12.057H4.79591C4.68814 12.0211 4.6118 12.0166 4.56689 12.0436C4.52199 12.0705 4.49953 12.1199 4.49953 12.1917C4.49953 12.2277 4.48606 12.2636 4.45912 12.2995C4.43218 12.3354 4.4187 12.3714 4.4187 12.4073C4.38278 12.4432 4.3738 12.4791 4.39176 12.5151C4.40972 12.551 4.47259 12.5869 4.58036 12.6228L4.36482 12.7845C4.43667 12.8204 4.49504 12.8339 4.53995 12.8249C4.58485 12.8159 4.64323 12.7755 4.71508 12.7037C4.78693 12.6318 4.86776 12.569 4.95757 12.5151C5.04738 12.4612 5.16414 12.4522 5.30783 12.4881V12.2726C5.23599 12.2007 5.20904 12.1424 5.227 12.0974C5.24497 12.0525 5.28987 12.0121 5.36172 11.9762L5.6581 12.1379H5.81976C5.71199 12.1738 5.64912 12.2007 5.63116 12.2187C5.61319 12.2367 5.62217 12.2816 5.6581 12.3534H5.73893C5.77485 12.3175 5.81078 12.2905 5.8467 12.2726C5.88263 12.2546 5.91855 12.2816 5.95447 12.3534H6.03531C6.07123 12.3534 6.10715 12.3354 6.14308 12.2995C6.179 12.2636 6.21493 12.2277 6.25085 12.1917C6.28678 12.1558 6.34515 12.1379 6.42598 12.1379C6.50681 12.1379 6.56519 12.1558 6.60112 12.1917V12.2726L6.68195 12.3534C6.53825 12.533 6.47987 12.6408 6.50681 12.6767C6.53376 12.7127 6.56519 12.7665 6.60112 12.8384C6.67296 12.9282 6.72236 12.9731 6.7493 12.9731C6.77625 12.9731 6.82564 12.9282 6.89749 12.8384C6.89749 12.8384 6.91096 12.8294 6.93791 12.8114C6.96485 12.7935 6.97832 12.8025 6.97832 12.8384L7.03221 12.9192C7.03221 12.9192 7.03221 12.9327 7.03221 12.9596C7.03221 12.9866 7.01425 13 6.97832 13C6.9424 13.036 6.92444 13.0584 6.92444 13.0674C6.92444 13.0764 6.96036 13.0988 7.03221 13.1348C7.17591 13.1707 7.30613 13.2246 7.42289 13.2964C7.53964 13.3683 7.63394 13.4581 7.70579 13.5659H7.75968V13.4311L8.05606 13.5659C8.05606 13.494 8.04259 13.4356 8.01564 13.3907C7.9887 13.3458 7.97523 13.2874 7.97523 13.2156C8.04708 13.2874 8.09198 13.3593 8.10994 13.4311C8.12791 13.503 8.13689 13.5748 8.13689 13.6467L8.05606 13.7275C8.05606 13.7275 8.04259 13.723 8.01564 13.714C7.9887 13.7051 7.97523 13.6826 7.97523 13.6467V13.5659C7.90338 13.6018 7.85847 13.6422 7.84051 13.6871C7.82255 13.732 7.84949 13.7904 7.92134 13.8622C7.99319 13.9341 8.03809 14.0059 8.05606 14.0778C8.07402 14.1496 8.12791 14.2035 8.21772 14.2394C8.21772 14.2394 8.21772 14.2484 8.21772 14.2664C8.21772 14.2843 8.23568 14.2933 8.2716 14.2933C8.34345 14.2215 8.35243 14.1496 8.29855 14.0778C8.24466 14.0059 8.23568 13.9341 8.2716 13.8622H8.35243V14.0778C8.46021 14.0419 8.5096 13.9925 8.50062 13.9296C8.49164 13.8667 8.48715 13.7994 8.48715 13.7275C8.559 13.7994 8.59492 13.8802 8.59492 13.97C8.59492 14.0598 8.559 14.1227 8.48715 14.1586C8.4153 14.1945 8.37938 14.2439 8.37938 14.3068C8.37938 14.3697 8.39734 14.4191 8.43326 14.455L8.64881 14.2933C8.72066 14.4011 8.76557 14.464 8.78353 14.4819C8.80149 14.4999 8.8464 14.5089 8.91824 14.5089C8.88232 14.473 8.85089 14.4505 8.82394 14.4415C8.797 14.4325 8.78353 14.4101 8.78353 14.3742V14.2933H8.86436C8.93621 14.3652 8.97662 14.428 8.9856 14.4819C8.99458 14.5358 8.92723 14.6256 8.78353 14.7514C8.78353 14.7154 8.77006 14.675 8.74311 14.6301C8.71617 14.5852 8.7027 14.5448 8.7027 14.5089L8.64881 14.5897V14.6705C8.68474 14.7424 8.7027 14.8008 8.7027 14.8457C8.7027 14.8906 8.68474 14.949 8.64881 15.0208C8.64881 15.0208 8.65779 15.0388 8.67575 15.0747C8.69372 15.1106 8.7027 15.1465 8.7027 15.1825C8.7027 15.1465 8.71617 15.1106 8.74311 15.0747C8.77006 15.0388 8.78353 15.0208 8.78353 15.0208L8.91824 15.1016C8.91824 15.0657 8.92274 15.0298 8.93172 14.9939C8.9407 14.9579 8.96315 14.922 8.99907 14.8861L9.16074 14.9669L9.21462 14.8861C9.25055 14.8861 9.27749 14.8996 9.29545 14.9265C9.31341 14.9534 9.34036 14.9669 9.37628 14.9669C9.41221 15.0028 9.43915 15.0388 9.45711 15.0747C9.47507 15.1106 9.51998 15.1465 9.59183 15.1825C9.62775 15.1825 9.65021 15.2094 9.65919 15.2633C9.66817 15.3172 9.69062 15.3621 9.72655 15.398C9.76247 15.4339 9.78492 15.4833 9.7939 15.5462C9.80289 15.6091 9.82534 15.6585 9.86126 15.6944L10.1038 15.9099C10.0678 15.9459 10.0364 15.9818 10.0095 16.0177C9.98251 16.0536 9.987 16.0896 10.0229 16.1255V16.1794C10.0229 16.2512 10.0409 16.2961 10.0768 16.3141C10.1127 16.332 10.1666 16.341 10.2385 16.341C10.3103 16.341 10.3642 16.359 10.4001 16.3949C10.4361 16.4308 10.454 16.4847 10.454 16.5566C10.3822 16.5566 10.3148 16.5431 10.2519 16.5162C10.1891 16.4892 10.1397 16.4578 10.1038 16.4219C10.0678 16.3859 10.0319 16.368 9.99598 16.368C9.96005 16.368 9.91515 16.3859 9.86126 16.4219C9.95107 16.4578 10.0184 16.5027 10.0633 16.5566C10.1082 16.6105 10.1666 16.6554 10.2385 16.6913C10.2744 16.7272 10.3103 16.7631 10.3462 16.7991C10.3822 16.835 10.4181 16.8529 10.454 16.8529C10.5618 16.8889 10.6381 16.9383 10.683 17.0011C10.7279 17.064 10.7773 17.1314 10.8312 17.2032C10.8671 17.311 10.9031 17.4367 10.939 17.5804C10.9749 17.7241 11.0108 17.8678 11.0468 18.0115L10.9659 18.0923C10.9659 18.2001 10.957 18.3169 10.939 18.4426C10.921 18.5683 10.93 18.6851 10.9659 18.7929V19.0354C10.9659 19.1072 10.9614 19.1791 10.9525 19.2509C10.9435 19.3228 10.921 19.3946 10.8851 19.4665C10.8851 19.5742 10.8761 19.6685 10.8582 19.7494C10.8402 19.8302 10.8492 19.9245 10.8851 20.0323C10.8851 20.14 10.9031 20.2478 10.939 20.3556C10.9749 20.4634 11.0108 20.5532 11.0468 20.625C11.0827 20.6969 11.1186 20.7552 11.1545 20.8002C11.1905 20.8451 11.2264 20.9034 11.2623 20.9753C11.2982 21.0112 11.3342 21.0606 11.3701 21.1235C11.406 21.1863 11.4419 21.2357 11.4779 21.2717C11.5497 21.3076 11.5991 21.3615 11.6261 21.4333C11.653 21.5052 11.6485 21.577 11.6126 21.6489V21.7028C11.6485 21.8105 11.7159 21.9003 11.8147 21.9722C11.9134 22.044 12.0167 22.0979 12.1245 22.1338C12.1604 22.1338 12.2053 22.1518 12.2592 22.1877C12.3131 22.2237 12.3401 22.2596 12.3401 22.2955C12.376 22.3314 12.3984 22.3674 12.4074 22.4033C12.4164 22.4392 12.4388 22.4751 12.4748 22.5111C12.5287 22.547 12.5601 22.5964 12.5691 22.6592C12.5781 22.7221 12.6005 22.7715 12.6364 22.8074C12.6724 22.8793 12.7083 22.9601 12.7442 23.0499C12.7801 23.1397 12.8161 23.2295 12.852 23.3194C12.8879 23.3553 12.9238 23.4002 12.9597 23.4541C12.9957 23.508 13.0316 23.5529 13.0675 23.5888C13.1394 23.6606 13.1933 23.737 13.2292 23.8178C13.2651 23.8986 13.2831 23.9929 13.2831 24.1007H13.0675C13.1394 24.1366 13.2112 24.186 13.2831 24.2489C13.3549 24.3118 13.4268 24.3612 13.4986 24.3971C13.5705 24.4689 13.6333 24.5318 13.6872 24.5857C13.7411 24.6396 13.7501 24.7204 13.7142 24.8282V24.909C13.786 25.0168 13.8758 25.1246 13.9836 25.2323C14.0914 25.3401 14.1991 25.4479 14.3069 25.5557L14.3877 25.4748C14.4237 25.403 14.4282 25.3491 14.4012 25.3132C14.3743 25.2772 14.3428 25.2413 14.3069 25.2054C14.3069 25.2054 14.289 25.1919 14.253 25.165C14.2171 25.138 14.1812 25.1246 14.1453 25.1246L14.0914 25.0437C14.0914 25.0078 14.0779 24.9674 14.051 24.9225C14.024 24.8776 14.0105 24.8192 14.0105 24.7474C13.9746 24.6396 13.9252 24.5228 13.8624 24.3971C13.7995 24.2714 13.7321 24.1456 13.6603 24.0199C13.6244 23.948 13.5705 23.8762 13.4986 23.8043C13.4268 23.7325 13.4088 23.6427 13.4447 23.5349C13.4447 23.5349 13.4402 23.5214 13.4313 23.4945C13.4223 23.4675 13.3998 23.4541 13.3639 23.4541C13.2561 23.4181 13.1798 23.3643 13.1349 23.2924C13.09 23.2206 13.0675 23.1487 13.0675 23.0769C13.0675 23.005 13.0541 22.9466 13.0271 22.9017C13.0002 22.8568 12.9867 22.7985 12.9867 22.7266C13.0226 22.7266 13.0585 22.7401 13.0945 22.767C13.1304 22.794 13.1663 22.8074 13.2022 22.8074C13.2382 22.8074 13.2786 22.8209 13.3235 22.8478C13.3684 22.8748 13.4088 22.9062 13.4447 22.9421C13.4807 23.0499 13.5031 23.1712 13.5121 23.3059C13.5211 23.4406 13.5435 23.5618 13.5794 23.6696C13.6154 23.6337 13.6513 23.6292 13.6872 23.6561C13.7231 23.6831 13.7591 23.7145 13.795 23.7504C13.8309 23.8223 13.8893 23.8807 13.9701 23.9256C14.051 23.9705 14.0914 24.0289 14.0914 24.1007L14.1453 24.1815C14.1812 24.2175 14.2171 24.2534 14.253 24.2893C14.289 24.3252 14.3069 24.3612 14.3069 24.3971C14.271 24.4689 14.28 24.5363 14.3339 24.5992C14.3877 24.662 14.4506 24.7114 14.5225 24.7474C14.5225 24.7474 14.5359 24.7518 14.5629 24.7608C14.5898 24.7698 14.6033 24.7923 14.6033 24.8282C14.7829 25.0437 14.9446 25.2503 15.0883 25.4479C15.232 25.6455 15.3577 25.879 15.4655 26.1484V26.4987C15.5733 26.4987 15.6541 26.5301 15.708 26.593C15.7619 26.6558 15.8247 26.7232 15.8966 26.795C15.9325 26.8669 15.9864 26.9253 16.0582 26.9702C16.1301 27.0151 16.2019 27.0555 16.2738 27.0914C16.3097 27.1274 16.3456 27.1498 16.3816 27.1588C16.4175 27.1678 16.4714 27.1902 16.5432 27.2261C16.5791 27.2621 16.6196 27.2845 16.6645 27.2935C16.7094 27.3025 16.7677 27.307 16.8396 27.307C16.9474 27.307 17.0417 27.3339 17.1225 27.3878C17.2033 27.4417 17.2797 27.4866 17.3515 27.5225C17.4234 27.5944 17.4862 27.6348 17.5401 27.6438C17.594 27.6527 17.6748 27.6393 17.7826 27.6033C17.8185 27.6033 17.8545 27.5944 17.8904 27.5764C17.9263 27.5584 17.9622 27.5674 17.9982 27.6033C18.07 27.6393 18.1419 27.6752 18.2137 27.7111C18.2856 27.747 18.3394 27.783 18.3754 27.8189C18.4113 27.8189 18.4337 27.8324 18.4427 27.8593C18.4517 27.8863 18.4742 27.9177 18.5101 27.9536C18.546 27.8458 18.5909 27.7605 18.6448 27.6977C18.6987 27.6348 18.7975 27.6213 18.9412 27.6572C18.9412 27.6572 18.9546 27.6438 18.9816 27.6168C19.0085 27.5899 19.022 27.5584 19.022 27.5225C19.022 27.5225 19.0175 27.509 19.0085 27.4821C18.9996 27.4552 18.9771 27.4417 18.9412 27.4417C18.8693 27.4058 18.8424 27.3564 18.8603 27.2935C18.8783 27.2306 18.9053 27.1812 18.9412 27.1453H19.3184C19.3543 27.1453 19.3768 27.1453 19.3857 27.1453C19.3947 27.1453 19.4172 27.1274 19.4531 27.0914C19.489 27.0555 19.5294 27.0241 19.5743 26.9971C19.6192 26.9702 19.6776 26.9747 19.7495 27.0106V26.4178C19.7495 26.3819 19.7629 26.346 19.7899 26.3101C19.8168 26.2741 19.8483 26.2382 19.8842 26.2023L20.0459 26.0676C20.0459 26.0676 20.0414 26.0541 20.0324 26.0272C20.0234 26.0002 20.0009 25.9867 19.965 25.9867H19.7495C19.6776 25.9867 19.6192 25.9912 19.5743 26.0002C19.5294 26.0092 19.4621 26.0317 19.3723 26.0676C19.3363 26.1035 19.2914 26.1394 19.2376 26.1754C19.1837 26.2113 19.1388 26.2472 19.1028 26.2831C19.1388 26.355 19.1522 26.4268 19.1432 26.4987C19.1343 26.5705 19.0939 26.6424 19.022 26.7142C18.9861 26.7501 18.9502 26.7861 18.9142 26.822C18.8783 26.8579 18.8424 26.8759 18.8065 26.8759C18.7705 26.8759 18.7391 26.8669 18.7122 26.8489C18.6852 26.831 18.6717 26.84 18.6717 26.8759C18.6358 26.9118 18.5864 26.9208 18.5236 26.9028C18.4607 26.8849 18.4113 26.8938 18.3754 26.9298C18.2676 26.9657 18.1733 26.9837 18.0925 26.9837C18.0116 26.9837 17.9353 26.9477 17.8634 26.8759L17.7287 26.7142C17.6748 26.6783 17.6479 26.6424 17.6479 26.6064C17.6479 26.5705 17.6479 26.5346 17.6479 26.4987C17.612 26.4268 17.5626 26.3415 17.4997 26.2427C17.4368 26.1439 17.3874 26.0586 17.3515 25.9867C17.3156 25.8071 17.2976 25.6275 17.2976 25.4479C17.2976 25.2683 17.3156 25.0886 17.3515 24.909V24.3163C17.3515 24.2444 17.3695 24.1726 17.4054 24.1007C17.4413 24.0289 17.4952 23.957 17.5671 23.8852C17.603 23.8492 17.6389 23.7998 17.6748 23.737C17.7108 23.6741 17.7467 23.6247 17.7826 23.5888C17.8545 23.5529 17.9128 23.5169 17.9577 23.481C18.0026 23.4451 18.0431 23.4092 18.079 23.3732C18.1149 23.3373 18.1553 23.3059 18.2002 23.2789C18.2451 23.252 18.3035 23.2385 18.3754 23.2385C18.4831 23.2385 18.5774 23.261 18.6583 23.3059C18.7391 23.3508 18.8154 23.4271 18.8873 23.5349C18.9232 23.6068 18.9816 23.6427 19.0624 23.6427C19.1432 23.6427 19.2016 23.6068 19.2376 23.5349L19.3184 23.5888C19.3184 23.5888 19.3274 23.5888 19.3453 23.5888C19.3633 23.5888 19.3723 23.5708 19.3723 23.5349V23.4541C19.3363 23.3463 19.3363 23.27 19.3723 23.2251C19.4082 23.1801 19.4621 23.1577 19.5339 23.1577H19.7495C19.7495 23.1577 19.754 23.1712 19.7629 23.1981C19.7719 23.2251 19.7944 23.2385 19.8303 23.2385C19.8662 23.2385 19.9022 23.234 19.9381 23.2251C19.974 23.2161 20.0099 23.1936 20.0459 23.1577C20.1177 23.1218 20.1761 23.1173 20.221 23.1442C20.2659 23.1712 20.3063 23.2026 20.3422 23.2385L20.3961 23.3194C20.3961 23.3553 20.4141 23.3732 20.45 23.3732C20.4859 23.3732 20.5219 23.3553 20.5578 23.3194L20.6117 23.2385C20.6835 23.2026 20.7284 23.1846 20.7464 23.1846C20.7643 23.1846 20.7913 23.2026 20.8272 23.2385C20.8631 23.2744 20.8901 23.3059 20.908 23.3328C20.926 23.3598 20.9529 23.3732 20.9889 23.3732C20.9889 23.4092 20.9979 23.4451 21.0158 23.481C21.0338 23.5169 21.0428 23.5529 21.0428 23.5888C21.0428 23.6606 21.0472 23.7325 21.0562 23.8043C21.0652 23.8762 21.0877 23.9301 21.1236 23.966C21.1595 24.0738 21.2089 24.1681 21.2718 24.2489C21.3346 24.3297 21.384 24.424 21.42 24.5318C21.42 24.5677 21.4334 24.5902 21.4604 24.5992C21.4873 24.6081 21.5188 24.6126 21.5547 24.6126H21.6355V23.8852C21.6355 23.8492 21.622 23.7998 21.5951 23.737C21.5682 23.6741 21.5547 23.6247 21.5547 23.5888C21.5547 23.5529 21.5457 23.5169 21.5277 23.481C21.5098 23.4451 21.5008 23.4092 21.5008 23.3732C21.4289 23.1936 21.3885 23.0185 21.3795 22.8478C21.3706 22.6772 21.4559 22.52 21.6355 22.3763C21.7074 22.2865 21.7882 22.2192 21.878 22.1743C21.9678 22.1294 22.0307 22.071 22.0666 21.9991C22.0666 21.9632 22.0801 21.9408 22.107 21.9318C22.134 21.9228 22.1474 21.9003 22.1474 21.8644C22.1474 21.8285 22.1609 21.7836 22.1878 21.7297C22.2148 21.6758 22.2462 21.6489 22.2822 21.6489C22.354 21.6129 22.4124 21.5725 22.4573 21.5276C22.5022 21.4827 22.5426 21.4423 22.5785 21.4064C22.6145 21.4962 22.6638 21.5142 22.7267 21.4603C22.7896 21.4064 22.839 21.3435 22.8749 21.2717C22.839 21.2717 22.7986 21.2582 22.7537 21.2312C22.7088 21.2043 22.7222 21.1729 22.7941 21.1369C22.7941 21.1369 22.7896 21.119 22.7806 21.0831C22.7716 21.0471 22.7492 21.0112 22.7132 20.9753C22.7132 20.9753 22.6998 20.9663 22.6728 20.9483C22.6459 20.9304 22.6145 20.9214 22.5785 20.9214C22.6504 20.8495 22.6638 20.7777 22.6189 20.7058C22.574 20.634 22.5157 20.5801 22.4438 20.5442C22.5157 20.5083 22.5561 20.4813 22.5651 20.4634C22.574 20.4454 22.5785 20.4005 22.5785 20.3286V20.1131C22.5785 20.1131 22.583 20.0996 22.592 20.0727C22.601 20.0457 22.6234 20.0323 22.6594 20.0323C22.6594 20.176 22.6638 20.2792 22.6728 20.3421C22.6818 20.405 22.7222 20.4723 22.7941 20.5442L22.8749 20.1939C22.9108 20.1939 22.9333 20.1894 22.9423 20.1805C22.9512 20.1715 22.9737 20.149 23.0096 20.1131C23.0455 20.0772 23.0815 20.0412 23.1174 20.0053C23.1533 19.9694 23.1713 19.9335 23.1713 19.8975C23.2072 19.7898 23.2521 19.7134 23.306 19.6685C23.3599 19.6236 23.4587 19.6012 23.6024 19.6012C23.6383 19.6012 23.6697 19.5877 23.6967 19.5608C23.7236 19.5338 23.7371 19.5203 23.7371 19.5203V19.4665L23.3868 19.5203C23.4228 19.4485 23.4587 19.4081 23.4946 19.3991C23.5305 19.3901 23.5844 19.3856 23.6563 19.3856C23.6922 19.3856 23.7326 19.3722 23.7775 19.3452C23.8224 19.3183 23.8628 19.3048 23.8988 19.3048L24.0335 19.3856V18.7929C24.0335 18.7569 24.0469 18.721 24.0739 18.6851C24.1008 18.6492 24.1323 18.6132 24.1682 18.5773C24.24 18.5414 24.3119 18.5145 24.3837 18.4965C24.4556 18.4785 24.5095 18.4336 24.5454 18.3618H24.6262C24.6981 18.4336 24.7564 18.4516 24.8014 18.4157C24.8463 18.3797 24.9046 18.3438 24.9765 18.3079C25.0124 18.272 25.0528 18.236 25.0977 18.2001C25.1426 18.1642 25.201 18.1462 25.2729 18.1462C25.3447 18.1103 25.4031 18.0744 25.448 18.0385C25.4929 18.0025 25.5333 17.9666 25.5692 17.9307L25.6231 17.8499L25.5692 18.0115L25.7848 18.0923L25.704 18.1462C25.5962 18.1462 25.5064 18.1777 25.4345 18.2405C25.3627 18.3034 25.3088 18.3708 25.2729 18.4426C25.2369 18.4785 25.219 18.5279 25.219 18.5908C25.219 18.6537 25.2549 18.7031 25.3267 18.739C25.3627 18.7749 25.4031 18.7794 25.448 18.7525C25.4929 18.7255 25.5333 18.6941 25.5692 18.6582C25.6411 18.5863 25.704 18.5189 25.7578 18.4561C25.8117 18.3932 25.8926 18.3618 26.0003 18.3618L26.0542 18.3079C26.0901 18.272 26.1261 18.236 26.162 18.2001C26.1979 18.1642 26.2338 18.1462 26.2698 18.1462C26.3596 18.1462 26.4224 18.1193 26.4584 18.0654C26.4943 18.0115 26.5302 17.9666 26.5661 17.9307C26.6021 17.9307 26.6245 17.9172 26.6335 17.8903C26.6425 17.8633 26.647 17.8499 26.647 17.8499C26.647 17.8139 26.6335 17.778 26.6066 17.7421C26.5796 17.7062 26.5661 17.6523 26.5661 17.5804C26.5302 17.6523 26.4853 17.7062 26.4314 17.7421C26.3775 17.778 26.3506 17.8139 26.3506 17.8499C26.3506 17.8858 26.3371 17.9127 26.3102 17.9307C26.2832 17.9486 26.2518 17.9756 26.2159 18.0115C26.144 18.0115 26.0632 18.0115 25.9734 18.0115C25.8836 18.0115 25.8207 17.9576 25.7848 17.8499L25.5692 17.6343C25.4794 17.5625 25.4345 17.4906 25.4345 17.4188C25.4345 17.3469 25.4525 17.2751 25.4884 17.2032L25.3267 17.284C25.3267 17.2481 25.3402 17.2257 25.3672 17.2167C25.3941 17.2077 25.4076 17.1763 25.4076 17.1224V16.9068C25.4076 16.8709 25.3806 16.8395 25.3267 16.8125C25.2729 16.7856 25.228 16.7721 25.192 16.7721C25.1202 16.808 25.0349 16.844 24.9361 16.8799C24.8373 16.9158 24.752 16.9517 24.6801 16.9877C24.6083 17.0236 24.5409 17.0865 24.478 17.1763C24.4152 17.2661 24.3658 17.3289 24.3298 17.3649C24.1502 17.5445 24.038 17.6613 23.9931 17.7151C23.9481 17.769 23.8898 17.8139 23.8179 17.8499L24.0335 17.4188L24.1682 17.284C24.24 17.2122 24.2939 17.1448 24.3298 17.082C24.3658 17.0191 24.4376 16.9877 24.5454 16.9877L24.6262 16.9068C24.6621 16.835 24.7026 16.7811 24.7475 16.7452C24.7924 16.7093 24.8687 16.6733 24.9765 16.6374C25.1561 16.6374 25.3492 16.6284 25.5558 16.6105C25.7623 16.5925 25.9554 16.6015 26.1351 16.6374C26.2787 16.6374 26.3955 16.6149 26.4853 16.57C26.5751 16.5251 26.656 16.4488 26.7278 16.341C26.7637 16.2692 26.7997 16.2243 26.8356 16.2063C26.8715 16.1883 26.9254 16.1794 26.9972 16.1794C27.0332 16.1794 27.0691 16.1794 27.105 16.1794C27.1409 16.1794 27.1858 16.1614 27.2397 16.1255L27.4553 15.9099V15.7483ZM19.1567 1.30663L19.022 1.44135H19.2376C19.2376 1.44135 19.2331 1.45482 19.2241 1.48176C19.2151 1.50871 19.1926 1.52218 19.1567 1.52218C19.1208 1.59403 19.1073 1.63893 19.1163 1.65689C19.1253 1.67486 19.1657 1.7018 19.2376 1.73772C19.2376 1.73772 19.251 1.74221 19.278 1.7512C19.3049 1.76018 19.3184 1.78263 19.3184 1.81855C19.3902 1.8904 19.4756 1.9398 19.5743 1.96674C19.6731 1.99369 19.7764 1.97123 19.8842 1.89939C19.9201 1.89939 19.9471 1.88591 19.965 1.85897C19.983 1.83203 20.0099 1.81855 20.0459 1.81855V1.95327C20.0459 1.95327 20.0459 1.96674 20.0459 1.99369C20.0459 2.02063 20.0638 2.0341 20.0997 2.0341C20.1716 2.0341 20.2479 2.04757 20.3288 2.07452C20.4096 2.10146 20.5039 2.11493 20.6117 2.11493C20.6476 2.11493 20.6745 2.11044 20.6925 2.10146C20.7105 2.09248 20.7374 2.07003 20.7733 2.0341C20.8092 1.99818 20.8452 1.97572 20.8811 1.96674C20.917 1.95776 20.9529 1.95327 20.9889 1.95327C21.1326 1.98919 21.2942 1.98022 21.4739 1.92633C21.6535 1.87244 21.7792 1.79161 21.8511 1.68384C21.887 1.75569 21.9005 1.81855 21.8915 1.87244C21.8825 1.92633 21.8241 1.95327 21.7163 1.95327C21.6086 1.98919 21.5008 2.01614 21.393 2.0341C21.2852 2.05206 21.1954 2.07901 21.1236 2.11493C21.0877 2.11493 21.0652 2.12391 21.0562 2.14187C21.0472 2.15984 21.0248 2.16882 20.9889 2.16882C20.9889 2.20474 20.9979 2.23169 21.0158 2.24965C21.0338 2.26761 21.0428 2.29455 21.0428 2.33048C21.0787 2.3664 21.1281 2.40233 21.1909 2.43825C21.2538 2.47418 21.3032 2.5101 21.3391 2.54602C21.2673 2.54602 21.1909 2.53704 21.1101 2.51908C21.0293 2.50112 20.9889 2.45621 20.9889 2.38437C20.8811 2.27659 20.7688 2.20474 20.6521 2.16882C20.5353 2.13289 20.4051 2.11493 20.2614 2.11493C20.1896 2.11493 20.1357 2.1284 20.0997 2.15535C20.0638 2.18229 20.0459 2.21372 20.0459 2.24965C20.0459 2.3215 20.0638 2.38885 20.0997 2.45172C20.1357 2.51459 20.1896 2.54602 20.2614 2.54602C20.2973 2.54602 20.3422 2.5595 20.3961 2.58644C20.45 2.61338 20.4769 2.64482 20.4769 2.68074C20.5488 2.78852 20.6251 2.87833 20.706 2.95018C20.7868 3.02202 20.8811 3.07591 20.9889 3.11184L21.0428 3.19267H20.8272C20.7554 3.19267 20.697 3.17919 20.6521 3.15225C20.6072 3.12531 20.5488 3.09387 20.4769 3.05795C20.3692 3.02202 20.2524 3.01753 20.1267 3.04448C20.0009 3.07142 19.9022 3.12082 19.8303 3.19267C19.7944 3.22859 19.7719 3.26451 19.7629 3.30044C19.754 3.33636 19.7495 3.37229 19.7495 3.40821C19.7495 3.40821 19.7764 3.42168 19.8303 3.44863C19.8842 3.47557 19.9291 3.48904 19.965 3.48904C20.0009 3.48904 20.0414 3.47557 20.0863 3.44863C20.1312 3.42168 20.1896 3.40821 20.2614 3.40821C20.2973 3.40821 20.3288 3.39474 20.3557 3.3678C20.3826 3.34085 20.3961 3.32738 20.3961 3.32738C20.3961 3.38127 20.3871 3.42168 20.3692 3.44863C20.3512 3.47557 20.3422 3.48904 20.3422 3.48904C20.3063 3.52497 20.2883 3.56089 20.2883 3.59682C20.2883 3.63274 20.3063 3.66866 20.3422 3.70459C20.3782 3.74051 20.4141 3.76297 20.45 3.77195C20.4859 3.78093 20.5219 3.80338 20.5578 3.83931V4.00097C20.5578 4.00097 20.5398 4.00995 20.5039 4.02791C20.468 4.04587 20.432 4.03689 20.3961 4.00097C20.3602 4.07281 20.3243 4.09976 20.2883 4.0818C20.2524 4.06384 20.2165 4.03689 20.1806 4.00097C20.1446 3.92912 20.0908 3.87523 20.0189 3.83931C19.9471 3.80338 19.8572 3.78542 19.7495 3.78542C19.7136 3.78542 19.6821 3.78991 19.6552 3.79889C19.6282 3.80787 19.6148 3.84829 19.6148 3.92014C19.6148 3.95606 19.6372 3.97851 19.6821 3.9875C19.727 3.99648 19.7495 4.01893 19.7495 4.05485C19.7854 4.09078 19.8079 4.11323 19.8168 4.12221C19.8258 4.13119 19.8483 4.13568 19.8842 4.13568C19.8483 4.13568 19.8168 4.14915 19.7899 4.1761C19.7629 4.20304 19.7495 4.21651 19.7495 4.21651C19.6776 4.25244 19.6058 4.27489 19.5339 4.28387C19.4621 4.29285 19.3902 4.31531 19.3184 4.35123C19.2825 4.35123 19.26 4.36919 19.251 4.40512C19.242 4.44104 19.2376 4.47697 19.2376 4.51289C19.2376 4.54881 19.251 4.56678 19.278 4.56678C19.3049 4.56678 19.3363 4.56678 19.3723 4.56678H19.8303C19.9022 4.56678 19.9605 4.57127 20.0054 4.58025C20.0503 4.58923 20.1087 4.61168 20.1806 4.64761C20.2524 4.68353 20.3153 4.70149 20.3692 4.70149C20.4231 4.70149 20.4859 4.68353 20.5578 4.64761L20.6117 4.56678H21.2852C21.2852 4.56678 21.2942 4.57127 21.3122 4.58025C21.3302 4.58923 21.3391 4.61168 21.3391 4.64761C21.411 4.71946 21.4828 4.75538 21.5547 4.75538C21.6265 4.75538 21.6984 4.71946 21.7702 4.64761C21.8062 4.61168 21.8421 4.58923 21.878 4.58025C21.9139 4.57127 21.9588 4.56678 22.0127 4.56678C22.0486 4.56678 22.0801 4.5533 22.107 4.52636C22.134 4.49942 22.1474 4.46799 22.1474 4.43206C22.1474 4.39614 22.1429 4.36021 22.134 4.32429C22.125 4.28836 22.1025 4.25244 22.0666 4.21651C22.0307 4.21651 21.9948 4.22998 21.9588 4.25693C21.9229 4.28387 21.887 4.29734 21.8511 4.29734H21.7702C21.7343 4.20753 21.6849 4.15814 21.622 4.14915C21.5592 4.14017 21.4918 4.13568 21.42 4.13568H21.2044C21.1685 4.13568 21.1415 4.12221 21.1236 4.09527C21.1056 4.06833 21.0787 4.05485 21.0428 4.05485C21.0428 4.01893 21.0607 4.00097 21.0966 4.00097C21.1326 4.00097 21.1685 4.00097 21.2044 4.00097H21.7702C21.878 4.00097 21.9409 3.983 21.9588 3.94708C21.9768 3.91116 21.9678 3.85727 21.9319 3.78542C21.9319 3.74949 21.9364 3.71357 21.9454 3.67765C21.9543 3.64172 21.9948 3.62376 22.0666 3.62376H22.363C22.3989 3.62376 22.4303 3.62376 22.4573 3.62376C22.4842 3.62376 22.4977 3.6058 22.4977 3.56987C22.5336 3.49802 22.5695 3.43516 22.6055 3.38127C22.6414 3.32738 22.6594 3.26451 22.6594 3.19267C22.6953 3.15674 22.7177 3.11633 22.7267 3.07142C22.7357 3.02652 22.7582 2.96814 22.7941 2.89629C22.7222 2.82444 22.6234 2.80648 22.4977 2.8424C22.372 2.87833 22.2552 2.87833 22.1474 2.8424C22.1474 2.8424 22.1609 2.83791 22.1878 2.82893C22.2148 2.81995 22.2283 2.7975 22.2283 2.76157C22.336 2.72565 22.4303 2.69421 22.5112 2.66727C22.592 2.64033 22.6863 2.64482 22.7941 2.68074C22.9018 2.68074 22.9647 2.67625 22.9827 2.66727C23.0006 2.65829 23.0096 2.61787 23.0096 2.54602H23.306C23.4497 2.58195 23.5395 2.59093 23.5754 2.57297C23.6114 2.55501 23.6652 2.47418 23.7371 2.33048C23.773 2.29455 23.8 2.25863 23.8179 2.22271C23.8359 2.18678 23.8808 2.16882 23.9526 2.16882C24.0245 2.16882 24.0874 2.15535 24.1412 2.1284C24.1951 2.10146 24.258 2.07003 24.3298 2.0341C24.4735 1.96225 24.6217 1.88142 24.7744 1.79161C24.9271 1.7018 25.0932 1.63893 25.2729 1.60301H25.3267C25.3267 1.60301 25.3402 1.58504 25.3672 1.54912C25.3941 1.5132 25.4076 1.47727 25.4076 1.44135C25.3717 1.44135 25.3492 1.43237 25.3402 1.4144C25.3312 1.39644 25.3088 1.38746 25.2729 1.38746H24.6262C24.6981 1.31561 24.7789 1.27071 24.8687 1.25274C24.9585 1.23478 25.0394 1.2258 25.1112 1.2258C25.2908 1.26172 25.448 1.24376 25.5827 1.17191C25.7174 1.10007 25.8566 1.02822 26.0003 0.956367C26.0363 0.956367 26.0587 0.942896 26.0677 0.915953C26.0767 0.889009 26.0991 0.875538 26.1351 0.875538V0.794706L26.0542 0.713877H25.9195C25.8477 0.713877 25.7803 0.709387 25.7174 0.700405C25.6546 0.691423 25.6052 0.651009 25.5692 0.579161L25.4884 0.498329C25.4166 0.498329 25.3447 0.489349 25.2729 0.471386C25.201 0.453424 25.1292 0.444443 25.0573 0.444443C24.9855 0.480368 24.9136 0.502821 24.8418 0.511801C24.7699 0.520782 24.6981 0.543236 24.6262 0.579161C24.6262 0.543236 24.6352 0.520782 24.6532 0.511801C24.6711 0.502821 24.6801 0.480368 24.6801 0.444443C24.6801 0.444443 24.6711 0.439953 24.6532 0.430971C24.6352 0.421991 24.6262 0.399538 24.6262 0.363613H24.5454C24.4735 0.363613 24.4286 0.377085 24.4107 0.404028C24.3927 0.430971 24.3658 0.444443 24.3298 0.444443C24.3298 0.480368 24.3029 0.498329 24.249 0.498329C24.1951 0.498329 24.1682 0.498329 24.1682 0.498329C24.0963 0.498329 24.0245 0.489349 23.9526 0.471386C23.8808 0.453424 23.8089 0.444443 23.7371 0.444443C23.6652 0.480368 23.5934 0.498329 23.5215 0.498329C23.4497 0.498329 23.3778 0.498329 23.306 0.498329H22.7941C22.7582 0.498329 22.7222 0.498329 22.6863 0.498329C22.6504 0.498329 22.6145 0.480368 22.5785 0.444443C22.5426 0.408518 22.5112 0.390556 22.4842 0.390556C22.4573 0.390556 22.4438 0.408518 22.4438 0.444443C22.4079 0.516293 22.3585 0.543236 22.2956 0.525272C22.2328 0.507311 22.1834 0.480368 22.1474 0.444443C22.0397 0.408518 21.9454 0.390556 21.8645 0.390556C21.7837 0.390556 21.7074 0.408518 21.6355 0.444443C21.6714 0.516293 21.6759 0.556707 21.649 0.565689C21.622 0.574669 21.5726 0.579161 21.5008 0.579161C21.4289 0.579161 21.384 0.583651 21.3661 0.592632C21.3481 0.601612 21.3391 0.642027 21.3391 0.713877V0.794706H20.9889C20.9529 0.902481 20.908 0.965347 20.8542 0.983311C20.8003 1.00127 20.7194 0.992292 20.6117 0.956367H20.5578C20.5219 0.920443 20.468 0.897989 20.3961 0.889009C20.3243 0.880028 20.2524 0.875538 20.1806 0.875538V1.01025L19.965 1.09108C19.965 1.12701 19.9605 1.15844 19.9515 1.18538C19.9426 1.21233 19.9201 1.2258 19.8842 1.2258C19.8483 1.26172 19.8123 1.27071 19.7764 1.25274C19.7405 1.23478 19.7046 1.2258 19.6686 1.2258C19.6327 1.18988 19.5878 1.16293 19.5339 1.14497C19.48 1.12701 19.4262 1.13599 19.3723 1.17191L19.1567 1.38746C19.0489 1.35154 18.9412 1.33806 18.8334 1.34705C18.7256 1.35603 18.6717 1.4144 18.6717 1.52218C18.8514 1.37848 18.9591 1.29765 18.9951 1.27969C19.031 1.26172 19.0849 1.27071 19.1567 1.30663ZM24.8957 9.95545C24.9675 9.99137 25.0394 10.0273 25.1112 10.0632C25.1831 10.0991 25.2369 10.153 25.2729 10.2249C25.3088 10.2788 25.3312 10.3237 25.3402 10.3596C25.3492 10.3955 25.3717 10.4314 25.4076 10.4674C25.4076 10.4674 25.4211 10.4764 25.448 10.4943C25.4749 10.5123 25.4884 10.5033 25.4884 10.4674C25.5243 10.4314 25.5603 10.4045 25.5962 10.3865C25.6321 10.3686 25.668 10.3416 25.704 10.3057C25.704 10.2698 25.7219 10.2339 25.7578 10.1979C25.7938 10.162 25.8477 10.1261 25.9195 10.0902C25.9554 10.0542 25.9958 10.0183 26.0408 9.98239C26.0857 9.94647 26.0901 9.91054 26.0542 9.87462C26.0542 9.83869 26.0452 9.7893 26.0273 9.72643C26.0093 9.66356 25.9464 9.61417 25.8387 9.57824C25.8027 9.57824 25.7848 9.56477 25.7848 9.53783C25.7848 9.51088 25.7848 9.47945 25.7848 9.44353C25.7848 9.37168 25.7489 9.30432 25.677 9.24145C25.6052 9.17858 25.5154 9.14715 25.4076 9.14715C25.3357 9.14715 25.2639 9.13368 25.192 9.10673C25.1202 9.07979 25.0483 9.04836 24.9765 9.01243C24.9406 9.01243 24.9181 9.00794 24.9091 8.99896C24.9001 8.98998 24.8777 8.96753 24.8418 8.9316C24.8058 8.89568 24.7564 8.87322 24.6936 8.86424C24.6307 8.85526 24.5813 8.83281 24.5454 8.79688C24.5095 8.76096 24.487 8.72504 24.478 8.68911C24.4691 8.65319 24.4646 8.61726 24.4646 8.58134H24.6801C24.716 8.58134 24.743 8.56787 24.7609 8.54092C24.7789 8.51398 24.8058 8.50051 24.8418 8.50051L24.7609 8.41968H24.6262C24.6262 8.41968 24.6128 8.41519 24.5858 8.40621C24.5589 8.39722 24.5454 8.37477 24.5454 8.33885C24.5454 8.33885 24.5454 8.32987 24.5454 8.3119C24.5454 8.29394 24.5723 8.28496 24.6262 8.28496C24.6981 8.24904 24.734 8.21311 24.734 8.17719C24.734 8.14126 24.716 8.10534 24.6801 8.06941C24.6442 8.03349 24.6083 8.00655 24.5723 7.98858C24.5364 7.97062 24.5005 7.99756 24.4646 8.06941H24.3837C24.3837 8.03349 24.3882 7.99756 24.3972 7.96164C24.4062 7.92572 24.4286 7.90775 24.4646 7.90775C24.5005 7.83591 24.505 7.791 24.478 7.77304C24.4511 7.75508 24.4017 7.72813 24.3298 7.69221H24.1143C24.0784 7.69221 24.0424 7.68772 24.0065 7.67874C23.9706 7.66975 23.9526 7.6473 23.9526 7.61138V7.55749C23.8808 7.52157 23.8179 7.54402 23.764 7.62485C23.7101 7.70568 23.6293 7.70119 23.5215 7.61138C23.5575 7.57545 23.5934 7.553 23.6293 7.54402C23.6652 7.53504 23.7012 7.51258 23.7371 7.47666C23.773 7.44073 23.7955 7.4093 23.8045 7.38236C23.8134 7.35542 23.8179 7.34194 23.8179 7.34194L23.6563 7.26111C23.6203 7.26111 23.5844 7.27459 23.5485 7.30153C23.5126 7.32847 23.4587 7.34194 23.3868 7.34194V7.39583C23.3509 7.35991 23.315 7.32398 23.2791 7.28806C23.2431 7.25213 23.2252 7.21621 23.2252 7.18028C23.2252 7.14436 23.2117 7.11292 23.1848 7.08598C23.1578 7.05904 23.1264 7.04557 23.0905 7.04557C23.0545 7.04557 23.0231 7.03209 22.9962 7.00515C22.9692 6.97821 22.9557 6.94677 22.9557 6.91085C22.9557 6.87493 22.9378 6.839 22.9018 6.80308C22.8659 6.76715 22.83 6.74919 22.7941 6.74919C22.7582 6.74919 22.7088 6.73572 22.6459 6.70877C22.583 6.68183 22.5157 6.66836 22.4438 6.66836H22.363C22.2911 6.70428 22.2372 6.7447 22.2013 6.7896C22.1654 6.83451 22.1474 6.89289 22.1474 6.96474H22.0666L21.7702 6.83002L21.42 7.04557V6.91085C21.4559 6.78511 21.4604 6.66836 21.4334 6.56059C21.4065 6.45281 21.3571 6.34504 21.2852 6.23726C21.2493 6.20134 21.1954 6.1744 21.1236 6.15644C21.0517 6.13847 20.9799 6.14746 20.908 6.18338C20.8362 6.2193 20.7778 6.25074 20.7329 6.27768C20.688 6.30462 20.6296 6.3181 20.5578 6.3181C20.3782 6.38994 20.2749 6.46628 20.2479 6.54711C20.221 6.62794 20.2524 6.74919 20.3422 6.91085V7.04557C20.2524 7.11741 20.212 7.16232 20.221 7.18028C20.23 7.19825 20.2883 7.22519 20.3961 7.26111C20.432 7.29704 20.4635 7.31949 20.4904 7.32847C20.5174 7.33745 20.5129 7.35991 20.4769 7.39583C20.3692 7.39583 20.2794 7.36889 20.2075 7.315C20.1357 7.26111 20.0818 7.19825 20.0459 7.1264C20.0459 7.05455 20.0324 6.99168 20.0054 6.93779C19.9785 6.88391 19.965 6.82104 19.965 6.74919V6.61447C20.0009 6.54262 20.0503 6.47976 20.1132 6.42587C20.1761 6.37198 20.2255 6.30911 20.2614 6.23726L20.3422 6.18338C20.3422 6.18338 20.3243 6.16991 20.2883 6.14296C20.2524 6.11602 20.2165 6.10255 20.1806 6.10255C20.1087 6.10255 20.0414 6.11602 19.9785 6.14296C19.9156 6.16991 19.8662 6.18338 19.8303 6.18338C19.489 6.25523 19.2735 6.42138 19.1837 6.68183C19.0939 6.94228 19.0849 7.16232 19.1567 7.34194C19.1567 7.37787 19.1747 7.4093 19.2106 7.43624C19.2465 7.46319 19.2825 7.47666 19.3184 7.47666C19.3902 7.47666 19.4486 7.48115 19.4935 7.49013C19.5384 7.49911 19.5788 7.52157 19.6148 7.55749C19.6507 7.55749 19.6731 7.56647 19.6821 7.58443C19.6911 7.6024 19.7136 7.61138 19.7495 7.61138C19.7136 7.61138 19.6821 7.62485 19.6552 7.65179C19.6282 7.67874 19.6148 7.69221 19.6148 7.69221C19.5788 7.69221 19.5429 7.68772 19.507 7.67874C19.4711 7.66975 19.4262 7.6473 19.3723 7.61138C19.3363 7.61138 19.3184 7.61587 19.3184 7.62485C19.3184 7.63383 19.3184 7.65628 19.3184 7.69221V7.77304C19.3902 7.84489 19.4666 7.89877 19.5474 7.9347C19.6282 7.97062 19.7225 7.98858 19.8303 7.98858C19.8662 7.98858 19.8977 7.99307 19.9246 8.00206C19.9515 8.01104 19.965 8.03349 19.965 8.06941C20.0009 8.14126 20.0414 8.18168 20.0863 8.19066C20.1312 8.19964 20.1896 8.20413 20.2614 8.20413C20.4051 8.20413 20.5353 8.20862 20.6521 8.2176C20.7688 8.22658 20.8811 8.267 20.9889 8.33885H21.1236C21.1954 8.30292 21.2673 8.27149 21.3391 8.24454C21.411 8.2176 21.4828 8.20413 21.5547 8.20413C21.5906 8.20413 21.6265 8.20862 21.6625 8.2176C21.6984 8.22658 21.7343 8.24904 21.7702 8.28496C21.7702 8.28496 21.7837 8.28496 21.8106 8.28496C21.8376 8.28496 21.8511 8.30292 21.8511 8.33885L21.7702 7.90775L21.8511 7.85387C21.887 7.88979 21.9364 7.91224 21.9992 7.92122C22.0621 7.93021 22.1115 7.95266 22.1474 7.98858C22.2193 8.06043 22.2956 8.13228 22.3765 8.20413C22.4573 8.27598 22.5516 8.34783 22.6594 8.41968C22.6953 8.4556 22.7132 8.49153 22.7132 8.52745C22.7132 8.56338 22.6953 8.58134 22.6594 8.58134C22.6234 8.58134 22.5875 8.59032 22.5516 8.60828C22.5157 8.62624 22.4977 8.63523 22.4977 8.63523L22.5785 8.71605C22.6145 8.71605 22.6459 8.70258 22.6728 8.67564C22.6998 8.6487 22.7132 8.63523 22.7132 8.63523C22.839 8.5993 22.9108 8.58583 22.9288 8.59481C22.9468 8.60379 22.9737 8.64421 23.0096 8.71605C23.0096 8.75198 23.0276 8.78341 23.0635 8.81036C23.0994 8.8373 23.1354 8.83281 23.1713 8.79688C23.2072 8.79688 23.2297 8.79688 23.2386 8.79688C23.2476 8.79688 23.2701 8.81485 23.306 8.85077C23.4138 8.95855 23.4856 9.05734 23.5215 9.14715C23.5575 9.23696 23.5575 9.3627 23.5215 9.52435C23.5215 9.56028 23.535 9.59171 23.562 9.61866C23.5889 9.6456 23.6203 9.65907 23.6563 9.65907C23.7101 9.65907 23.7416 9.6456 23.7506 9.61866C23.7595 9.59171 23.782 9.57824 23.8179 9.57824C23.8898 9.54232 23.9796 9.5513 24.0874 9.60518C24.1951 9.65907 24.249 9.72194 24.249 9.79379C24.249 9.79379 24.2445 9.80726 24.2355 9.8342C24.2266 9.86115 24.2041 9.87462 24.1682 9.87462C24.1323 9.91054 24.0874 9.933 24.0335 9.94198C23.9796 9.95096 23.9347 9.97341 23.8988 10.0093C23.8628 9.93749 23.8224 9.87462 23.7775 9.82073C23.7326 9.76685 23.6742 9.7399 23.6024 9.7399C23.5305 9.70398 23.4497 9.68602 23.3599 9.68602C23.2701 9.68602 23.2072 9.72194 23.1713 9.79379C23.0994 9.86564 23.0725 9.9285 23.0905 9.98239C23.1084 10.0363 23.1354 10.0991 23.1713 10.171V10.3057C23.1354 10.3416 23.068 10.3731 22.9692 10.4C22.8704 10.427 22.7851 10.4225 22.7132 10.3865C22.6414 10.3865 22.5695 10.3731 22.4977 10.3461C22.4258 10.3192 22.354 10.3596 22.2822 10.4674H22.2283C22.1564 10.5033 22.1115 10.5392 22.0935 10.5751C22.0756 10.6111 22.0666 10.665 22.0666 10.7368C22.0666 10.8087 22.0935 10.8536 22.1474 10.8715C22.2013 10.8895 22.2462 10.8985 22.2822 10.8985H22.7132C22.7492 10.8985 22.7851 10.894 22.821 10.885C22.8569 10.876 22.8749 10.8536 22.8749 10.8176L22.9557 10.7368C23.0276 10.7368 23.0949 10.7548 23.1578 10.7907C23.2207 10.8266 23.2701 10.8625 23.306 10.8985C23.306 10.9344 23.3195 10.9658 23.3464 10.9928C23.3734 11.0197 23.4048 11.0332 23.4407 11.0332C23.5126 11.0332 23.5575 11.0601 23.5754 11.114C23.5934 11.1679 23.6024 11.2128 23.6024 11.2487C23.6024 11.3206 23.6203 11.3745 23.6563 11.4104C23.6922 11.4463 23.7461 11.4643 23.8179 11.4643C23.8538 11.4643 23.8853 11.4688 23.9122 11.4777C23.9392 11.4867 23.9526 11.5092 23.9526 11.5451C24.0604 11.581 24.1817 11.6214 24.3164 11.6664C24.4511 11.7113 24.5723 11.7696 24.6801 11.8415C24.716 11.8415 24.7564 11.855 24.8014 11.8819C24.8463 11.9088 24.9046 11.9403 24.9765 11.9762C24.9765 11.9044 24.9451 11.8325 24.8822 11.7607C24.8193 11.6888 24.752 11.617 24.6801 11.5451C24.6083 11.4733 24.5364 11.4149 24.4646 11.37C24.3927 11.3251 24.3209 11.2667 24.249 11.1948C24.3568 11.1948 24.4511 11.2128 24.5319 11.2487C24.6128 11.2847 24.6891 11.3385 24.7609 11.4104C24.8328 11.4463 24.9046 11.4777 24.9765 11.5047C25.0483 11.5316 25.1202 11.5451 25.192 11.5451C25.2639 11.5451 25.3178 11.5182 25.3537 11.4643C25.3896 11.4104 25.4076 11.3655 25.4076 11.3296C25.4076 11.2936 25.3941 11.2622 25.3672 11.2353C25.3402 11.2083 25.3088 11.1948 25.2729 11.1948C25.201 11.141 25.1561 11.0961 25.1381 11.0601C25.1202 11.0242 25.1112 10.9703 25.1112 10.8985C25.1112 10.8266 25.0932 10.7727 25.0573 10.7368C25.0214 10.7009 24.9675 10.6829 24.8957 10.6829C24.8238 10.647 24.7564 10.6066 24.6936 10.5617C24.6307 10.5168 24.5813 10.4584 24.5454 10.3865V10.3057C24.5813 10.2698 24.6038 10.2384 24.6128 10.2114C24.6217 10.1845 24.6262 10.171 24.6262 10.171C24.6262 10.1351 24.6352 10.0991 24.6532 10.0632C24.6711 10.0273 24.6801 10.0093 24.6801 10.0093C24.752 9.93749 24.7969 9.90156 24.8148 9.90156C24.8328 9.90156 24.8597 9.91953 24.8957 9.95545ZM16.4085 8.28496H16.5432C16.5073 8.24904 16.4848 8.21311 16.4759 8.17719C16.4669 8.14126 16.4444 8.10534 16.4085 8.06941C16.3366 7.99756 16.2513 7.93919 16.1525 7.89428C16.0537 7.84938 15.9684 7.80896 15.8966 7.77304C15.7888 7.73711 15.7125 7.68323 15.6676 7.61138C15.6227 7.53953 15.6002 7.44972 15.6002 7.34194C15.6002 7.30602 15.6002 7.27908 15.6002 7.26111C15.6002 7.24315 15.5822 7.21621 15.5463 7.18028C15.5463 7.14436 15.5328 7.12191 15.5059 7.11292C15.479 7.10394 15.4655 7.08149 15.4655 7.04557C15.4296 6.93779 15.4161 6.83002 15.4251 6.72225C15.434 6.61447 15.4745 6.52466 15.5463 6.45281C15.6182 6.38096 15.6406 6.32708 15.6137 6.29115C15.5867 6.25523 15.5373 6.2193 15.4655 6.18338C15.3936 6.14746 15.3218 6.14296 15.2499 6.16991C15.1781 6.19685 15.1062 6.24625 15.0344 6.3181L15.3308 6.61447H15.2499C15.214 6.54262 15.1601 6.49772 15.0883 6.47976C15.0164 6.46179 14.9446 6.45281 14.8727 6.45281C14.8009 6.45281 14.747 6.46179 14.7111 6.47976C14.6751 6.49772 14.6572 6.54262 14.6572 6.61447C14.6931 6.68632 14.72 6.77164 14.738 6.87043C14.756 6.96923 14.7829 7.05455 14.8188 7.1264C14.8188 7.16232 14.8144 7.18477 14.8054 7.19375C14.7964 7.20274 14.7739 7.22519 14.738 7.26111C14.7021 7.26111 14.6707 7.25662 14.6437 7.24764C14.6168 7.23866 14.6033 7.21621 14.6033 7.18028C14.6033 7.14436 14.5898 7.09945 14.5629 7.04557C14.5359 6.99168 14.5225 6.94677 14.5225 6.91085C14.5225 6.87493 14.4641 6.80757 14.3473 6.70877C14.2306 6.60998 14.1183 6.57855 14.0105 6.61447C14.0465 6.6504 14.0779 6.67285 14.1048 6.68183C14.1318 6.69081 14.1453 6.71326 14.1453 6.74919V6.83002H13.795C13.795 6.72225 13.7636 6.64591 13.7007 6.601C13.6378 6.5561 13.5525 6.53364 13.4447 6.53364C13.4088 6.53364 13.3729 6.54711 13.337 6.57406C13.301 6.601 13.2831 6.63243 13.2831 6.66836C13.2831 6.74021 13.2606 6.7896 13.2157 6.81655C13.1708 6.84349 13.0945 6.82104 12.9867 6.74919H13.0675C13.1394 6.71326 13.1798 6.67285 13.1888 6.62794C13.1977 6.58304 13.1843 6.52466 13.1484 6.45281C13.1124 6.38096 13.072 6.35402 13.0271 6.37198C12.9822 6.38994 12.9238 6.39893 12.852 6.39893C12.7801 6.39893 12.6813 6.42587 12.5556 6.47976C12.4299 6.53364 12.3311 6.59651 12.2592 6.66836C12.2233 6.70428 12.1784 6.74021 12.1245 6.77613C12.0706 6.81206 12.0437 6.83002 12.0437 6.83002C12.0437 6.90187 12.0302 6.95127 12.0033 6.97821C11.9763 7.00515 11.9449 7.05455 11.909 7.1264C11.873 7.16232 11.8685 7.19825 11.8955 7.23417C11.9224 7.27009 11.9539 7.30602 11.9898 7.34194C12.0257 7.34194 12.0527 7.35542 12.0706 7.38236C12.0886 7.4093 12.1335 7.44073 12.2053 7.47666L12.7173 7.39583V7.47666C12.7173 7.47666 12.7038 7.48115 12.6768 7.49013C12.6499 7.49911 12.6364 7.52157 12.6364 7.55749C12.5646 7.59341 12.4927 7.61587 12.4209 7.62485C12.349 7.63383 12.2772 7.65628 12.2053 7.69221C12.1335 7.72813 12.0931 7.76406 12.0841 7.79998C12.0751 7.83591 12.0886 7.85387 12.1245 7.85387C12.2323 7.88979 12.3311 7.92122 12.4209 7.94817C12.5107 7.97511 12.6095 7.98858 12.7173 7.98858C12.7891 7.98858 12.861 7.9796 12.9328 7.96164C13.0047 7.94368 13.0945 7.95266 13.2022 7.98858C13.2741 7.98858 13.3459 8.00206 13.4178 8.029C13.4896 8.05594 13.5435 8.08738 13.5794 8.1233V8.20413C13.5435 8.20413 13.5076 8.2176 13.4717 8.24454C13.4357 8.27149 13.3998 8.28496 13.3639 8.28496H12.9867C12.8789 8.28496 12.7711 8.29394 12.6634 8.3119C12.5556 8.32987 12.4478 8.33885 12.3401 8.33885C12.2682 8.33885 12.2278 8.36579 12.2188 8.41968C12.2098 8.47356 12.2233 8.52745 12.2592 8.58134C12.367 8.65319 12.4793 8.70707 12.596 8.743C12.7128 8.77892 12.825 8.79688 12.9328 8.79688C12.9687 8.79688 13.0002 8.80137 13.0271 8.81036C13.0541 8.81934 13.0675 8.85975 13.0675 8.9316C13.0675 8.96753 13.072 9.01243 13.081 9.06632C13.09 9.1202 13.1304 9.14715 13.2022 9.14715C13.3639 9.18307 13.5166 9.19654 13.6603 9.18756C13.804 9.17858 13.9477 9.13817 14.0914 9.06632C14.1273 9.03039 14.1632 9.01243 14.1991 9.01243C14.2351 9.01243 14.271 9.01243 14.3069 9.01243C14.4147 9.01243 14.4955 9.00345 14.5494 8.98549C14.6033 8.96753 14.6662 8.90466 14.738 8.79688C14.7739 8.76096 14.7964 8.743 14.8054 8.743C14.8144 8.743 14.8368 8.76096 14.8727 8.79688C14.9087 8.83281 14.9446 8.85077 14.9805 8.85077C15.0164 8.85077 15.0344 8.85077 15.0344 8.85077C15.0344 8.85077 15.0479 8.85526 15.0748 8.86424C15.1017 8.87322 15.1332 8.89568 15.1691 8.9316C15.2769 9.00345 15.3981 9.03488 15.5328 9.0259C15.6676 9.01692 15.7888 9.01243 15.8966 9.01243C15.9684 9.01243 16.0088 8.98549 16.0178 8.9316C16.0268 8.87771 16.0133 8.83281 15.9774 8.79688C15.9415 8.76096 15.9145 8.73851 15.8966 8.72953C15.8786 8.72054 15.8517 8.71605 15.8157 8.71605L15.7619 8.79688C15.7259 8.79688 15.699 8.79688 15.681 8.79688C15.6631 8.79688 15.6361 8.81485 15.6002 8.85077L15.5463 8.79688L15.9774 8.33885C16.0493 8.30292 16.1121 8.267 16.166 8.23107C16.2199 8.19515 16.3007 8.21311 16.4085 8.28496ZM17.7826 2.76157C17.8185 2.83342 17.8634 2.87384 17.9173 2.88282C17.9712 2.8918 18.052 2.89629 18.1598 2.89629C18.2317 2.89629 18.29 2.88731 18.3349 2.86934C18.3799 2.85138 18.4382 2.8424 18.5101 2.8424C18.546 2.8424 18.5729 2.85138 18.5909 2.86934C18.6089 2.88731 18.6358 2.89629 18.6717 2.89629L18.5909 2.97712C18.555 3.01304 18.5011 3.0355 18.4293 3.04448C18.3574 3.05346 18.2856 3.07591 18.2137 3.11184L18.2945 3.19267C18.3305 3.22859 18.3799 3.26451 18.4427 3.30044C18.5056 3.33636 18.555 3.37229 18.5909 3.40821C18.6268 3.48006 18.6762 3.52497 18.7391 3.54293C18.802 3.56089 18.8514 3.58784 18.8873 3.62376C18.9232 3.65968 18.9681 3.67765 19.022 3.67765C19.0759 3.67765 19.1208 3.65968 19.1567 3.62376C19.1926 3.58784 19.242 3.56987 19.3049 3.56987C19.3678 3.56987 19.4172 3.58784 19.4531 3.62376C19.5249 3.65968 19.5699 3.66866 19.5878 3.6507C19.6058 3.63274 19.6327 3.6058 19.6686 3.56987C19.6686 3.53395 19.6731 3.50701 19.6821 3.48904C19.6911 3.47108 19.7136 3.44414 19.7495 3.40821L19.8303 3.32738C19.8662 3.32738 19.8887 3.3184 19.8977 3.30044C19.9066 3.28248 19.9291 3.2735 19.965 3.2735C20.0009 3.23757 20.0234 3.20165 20.0324 3.16572C20.0414 3.1298 20.0638 3.11184 20.0997 3.11184C20.1357 3.07591 20.1851 3.05795 20.2479 3.05795C20.3108 3.05795 20.3602 3.05795 20.3961 3.05795C20.432 3.05795 20.459 3.04448 20.4769 3.01753C20.4949 2.99059 20.5219 2.97712 20.5578 2.97712C20.5219 2.97712 20.4949 2.96365 20.4769 2.9367C20.459 2.90976 20.432 2.89629 20.3961 2.89629H20.1806C20.1087 2.89629 20.0683 2.88282 20.0593 2.85587C20.0503 2.82893 20.0459 2.7975 20.0459 2.76157C20.0459 2.72565 20.0414 2.7032 20.0324 2.69421C20.0234 2.68523 20.0009 2.66278 19.965 2.62686C19.9291 2.59093 19.9066 2.56399 19.8977 2.54602C19.8887 2.52806 19.8842 2.50112 19.8842 2.46519L19.8303 2.38437C19.7944 2.38437 19.7719 2.39784 19.7629 2.42478C19.754 2.45172 19.7495 2.46519 19.7495 2.46519V2.54602L19.6148 2.38437C19.5788 2.31252 19.5384 2.26761 19.4935 2.24965C19.4486 2.23169 19.3902 2.20474 19.3184 2.16882C19.2465 2.13289 19.1747 2.08799 19.1028 2.0341C19.031 1.98022 18.9591 1.93531 18.8873 1.89939C18.8514 1.86346 18.8154 1.84101 18.7795 1.83203C18.7436 1.82305 18.7077 1.81855 18.6717 1.81855C18.6358 1.85448 18.5819 1.87693 18.5101 1.88591C18.4382 1.89489 18.3664 1.89939 18.2945 1.89939C18.2945 1.89939 18.2811 1.90837 18.2541 1.92633C18.2272 1.94429 18.1957 1.95327 18.1598 1.95327L18.3754 2.0341C18.3394 2.07003 18.3035 2.09248 18.2676 2.10146C18.2317 2.11044 18.1957 2.11493 18.1598 2.11493C18.1239 2.11493 18.088 2.11493 18.052 2.11493C18.0161 2.11493 17.9982 2.13289 17.9982 2.16882C17.9982 2.20474 18.0116 2.24067 18.0386 2.27659C18.0655 2.31252 18.079 2.34844 18.079 2.38437C18.1149 2.42029 18.1508 2.44274 18.1868 2.45172C18.2227 2.4607 18.2586 2.46519 18.2945 2.46519C18.2586 2.50112 18.2272 2.52357 18.2002 2.53255C18.1733 2.54153 18.1059 2.54602 17.9982 2.54602H17.8634C17.8634 2.58195 17.8679 2.6044 17.8769 2.61338C17.8859 2.62236 17.9083 2.64482 17.9443 2.68074C17.8006 2.64482 17.7287 2.64033 17.7287 2.66727C17.7287 2.69421 17.7467 2.72565 17.7826 2.76157ZM10.9659 7.47666C10.9659 7.51258 10.9794 7.54402 11.0064 7.57096C11.0333 7.59791 11.0468 7.61138 11.0468 7.61138L11.4779 7.39583C11.5856 7.35991 11.6485 7.33296 11.6665 7.315C11.6844 7.29704 11.6934 7.25213 11.6934 7.18028C11.6934 7.10843 11.7114 7.05455 11.7473 7.01862C11.7832 6.9827 11.8371 6.94677 11.909 6.91085C11.9449 6.91085 11.9673 6.89289 11.9763 6.85696C11.9853 6.82104 11.9898 6.78511 11.9898 6.74919C11.9898 6.71326 12.0077 6.67734 12.0437 6.64142C12.0796 6.60549 12.1335 6.56957 12.2053 6.53364C12.3131 6.49772 12.4209 6.44832 12.5287 6.38545C12.6364 6.32259 12.7442 6.27319 12.852 6.23726C12.8879 6.20134 12.9059 6.17889 12.9059 6.16991C12.9059 6.16093 12.8879 6.13847 12.852 6.10255L12.6364 5.887C12.5646 5.81515 12.4748 5.76576 12.367 5.73881C12.2592 5.71187 12.1514 5.73432 12.0437 5.80617C12.0077 5.80617 11.9853 5.7927 11.9763 5.76576C11.9673 5.73881 11.9449 5.72534 11.909 5.72534C11.873 5.72534 11.8281 5.72534 11.7742 5.72534C11.7204 5.72534 11.6934 5.70738 11.6934 5.67146C11.5856 5.59961 11.4868 5.55919 11.397 5.55021C11.3072 5.54123 11.2084 5.5547 11.1007 5.59063C11.1007 5.66247 11.0827 5.72085 11.0468 5.76576C11.0108 5.81066 10.957 5.85108 10.8851 5.887V5.94089C10.8851 5.99478 10.8761 6.03968 10.8582 6.07561C10.8402 6.11153 10.8312 6.14746 10.8312 6.18338C10.7773 6.2193 10.7459 6.25523 10.7369 6.29115C10.7279 6.32708 10.7055 6.363 10.6696 6.39893V6.53364C10.6336 6.56957 10.6112 6.60549 10.6022 6.64142C10.5932 6.67734 10.5708 6.71326 10.5348 6.74919C10.463 6.85696 10.4405 6.91983 10.4675 6.93779C10.4944 6.95576 10.5618 6.96474 10.6696 6.96474C10.7414 7.07251 10.7998 7.16681 10.8447 7.24764C10.8896 7.32847 10.93 7.40481 10.9659 7.47666ZM18.6717 5.45591C18.6717 5.49183 18.6852 5.52327 18.7122 5.55021C18.7391 5.57715 18.7705 5.59063 18.8065 5.59063C18.8424 5.59063 18.8648 5.59512 18.8738 5.6041C18.8828 5.61308 18.9053 5.63553 18.9412 5.67146C19.013 5.7433 19.0939 5.77923 19.1837 5.77923C19.2735 5.77923 19.3363 5.7433 19.3723 5.67146L19.4531 5.59063C19.489 5.66247 19.5429 5.70738 19.6148 5.72534C19.6866 5.7433 19.7585 5.77025 19.8303 5.80617H20.2614C20.3692 5.80617 20.4725 5.80168 20.5712 5.7927C20.67 5.78372 20.7554 5.7433 20.8272 5.67146H20.908C20.9799 5.67146 21.0517 5.68044 21.1236 5.6984C21.1954 5.71636 21.2493 5.72534 21.2852 5.72534C21.3212 5.72534 21.3436 5.71187 21.3526 5.68493C21.3616 5.65798 21.384 5.62655 21.42 5.59063C21.4559 5.59063 21.4783 5.57715 21.4873 5.55021C21.4963 5.52327 21.5188 5.50979 21.5547 5.50979C21.5547 5.50979 21.5682 5.50979 21.5951 5.50979C21.622 5.50979 21.6355 5.49183 21.6355 5.45591C21.6714 5.41998 21.6939 5.37957 21.7029 5.33466C21.7118 5.28976 21.7343 5.23138 21.7702 5.15953C21.6625 5.12361 21.5547 5.09666 21.4469 5.0787C21.3391 5.06074 21.2044 5.0338 21.0428 4.99787C20.935 4.99787 20.8317 5.00236 20.7329 5.01134C20.6341 5.02032 20.5488 5.04278 20.4769 5.0787C20.4051 5.11463 20.3332 5.13708 20.2614 5.14606C20.1896 5.15504 20.1177 5.15953 20.0459 5.15953H19.6686C19.5968 5.12361 19.5384 5.08768 19.4935 5.05176C19.4486 5.01583 19.3902 4.97991 19.3184 4.94398C19.3184 4.90806 19.3274 4.88112 19.3453 4.86315C19.3633 4.84519 19.3723 4.81825 19.3723 4.78232C19.4621 4.7464 19.5025 4.71048 19.4935 4.67455C19.4845 4.63863 19.4262 4.6027 19.3184 4.56678C19.2465 4.53085 19.1747 4.50391 19.1028 4.48595C19.031 4.46799 18.9591 4.47697 18.8873 4.51289C18.7795 4.51289 18.6717 4.49493 18.564 4.459C18.4562 4.42308 18.3664 4.38716 18.2945 4.35123C18.2227 4.31531 18.1374 4.29734 18.0386 4.29734C17.9398 4.29734 17.8545 4.29734 17.7826 4.29734C17.7108 4.29734 17.6703 4.31531 17.6614 4.35123C17.6524 4.38716 17.6748 4.44104 17.7287 4.51289C17.7646 4.54881 17.814 4.58474 17.8769 4.62066C17.9398 4.65659 18.0071 4.69251 18.079 4.72844C18.1508 4.76436 18.2227 4.78232 18.2945 4.78232C18.3664 4.78232 18.4382 4.76436 18.5101 4.72844C18.5819 4.80029 18.6538 4.87663 18.7256 4.95746C18.7975 5.03829 18.7975 5.15055 18.7256 5.29425C18.6538 5.29425 18.6268 5.31221 18.6448 5.34813C18.6628 5.38406 18.6717 5.41998 18.6717 5.45591ZM13.2022 4.64761C13.1663 4.61168 13.1304 4.59372 13.0945 4.59372C13.0585 4.59372 13.0047 4.61168 12.9328 4.64761C12.9328 4.68353 12.9148 4.70598 12.8789 4.71497C12.843 4.72395 12.8071 4.7464 12.7711 4.78232L12.7173 4.86315C12.7173 4.89908 12.7262 4.92153 12.7442 4.93051C12.7622 4.93949 12.7711 4.94398 12.7711 4.94398H12.9328C12.861 4.97991 12.7801 4.99787 12.6903 4.99787C12.6005 4.99787 12.5556 5.05176 12.5556 5.15953L12.9328 5.0787C12.861 5.11463 12.7801 5.14157 12.6903 5.15953C12.6005 5.17749 12.5287 5.2224 12.4748 5.29425C12.5646 5.33017 12.6409 5.3661 12.7038 5.40202C12.7667 5.43795 12.8161 5.45591 12.852 5.45591C12.8879 5.45591 12.9238 5.45142 12.9597 5.44244C12.9957 5.43345 13.0316 5.411 13.0675 5.37508L13.2831 5.15953V5.37508L13.8758 5.29425V5.37508C13.8758 5.411 13.8579 5.43345 13.8219 5.44244C13.786 5.45142 13.7501 5.47387 13.7142 5.50979C13.6423 5.50979 13.5839 5.52327 13.539 5.55021C13.4941 5.57715 13.4357 5.59063 13.3639 5.59063C13.328 5.59063 13.2921 5.6041 13.2561 5.63104C13.2202 5.65798 13.2022 5.67146 13.2022 5.67146C13.2022 5.67146 13.2157 5.68493 13.2427 5.71187C13.2696 5.73881 13.2831 5.77025 13.2831 5.80617C13.319 5.80617 13.3549 5.81964 13.3908 5.84659C13.4268 5.87353 13.4627 5.887 13.4986 5.887L14.1453 5.67146C14.2351 5.59961 14.3024 5.54572 14.3473 5.50979C14.3922 5.47387 14.4506 5.47387 14.5225 5.50979H15.0344C15.0703 5.47387 15.1062 5.45591 15.1422 5.45591C15.1781 5.45591 15.214 5.45591 15.2499 5.45591C15.3218 5.41998 15.3622 5.34364 15.3712 5.22689C15.3802 5.11013 15.3667 5.01583 15.3308 4.94398C15.2948 4.87214 15.2589 4.83621 15.223 4.83621C15.1871 4.83621 15.1511 4.87214 15.1152 4.94398C15.0613 4.97991 15.0074 4.99787 14.9536 4.99787C14.8997 4.99787 14.8548 4.97991 14.8188 4.94398C14.747 4.87214 14.6841 4.80029 14.6302 4.72844C14.5764 4.65659 14.5135 4.58474 14.4416 4.51289L14.2261 4.72844C14.2261 4.69251 14.2306 4.68353 14.2396 4.70149C14.2485 4.71946 14.271 4.72844 14.3069 4.72844C14.3788 4.72844 14.4102 4.74191 14.4012 4.76885C14.3922 4.7958 14.3877 4.82723 14.3877 4.86315L14.3069 4.94398L14.5225 5.15953C14.3788 5.19546 14.253 5.19995 14.1453 5.173C14.0375 5.14606 13.9477 5.08768 13.8758 4.99787C13.8399 4.92602 13.7725 4.86315 13.6737 4.80927C13.575 4.75538 13.4717 4.72844 13.3639 4.72844C13.328 4.72844 13.2921 4.72395 13.2561 4.71497C13.2202 4.70598 13.2022 4.68353 13.2022 4.64761ZM16.9204 7.47666H17.0013C17.0372 7.40481 17.0866 7.35092 17.1494 7.315C17.2123 7.27908 17.2797 7.26111 17.3515 7.26111C17.3515 7.26111 17.365 7.25662 17.3919 7.24764C17.4189 7.23866 17.4323 7.21621 17.4323 7.18028C17.4683 7.07251 17.4907 6.96474 17.4997 6.85696C17.5087 6.74919 17.5311 6.64142 17.5671 6.53364L17.4862 6.45281L17.4323 6.53364V6.66836H17.3515C17.3515 6.59651 17.3336 6.5561 17.2976 6.54711C17.2617 6.53813 17.2078 6.53364 17.136 6.53364C17.1 6.53364 17.0776 6.52017 17.0686 6.49323C17.0596 6.46628 17.0372 6.45281 17.0013 6.45281C17.0013 6.45281 17.0013 6.44383 17.0013 6.42587C17.0013 6.40791 17.0192 6.39893 17.0551 6.39893C17.0911 6.363 17.127 6.33606 17.1629 6.3181C17.1988 6.30013 17.2348 6.27319 17.2707 6.23726C17.3066 6.20134 17.3246 6.16542 17.3246 6.12949C17.3246 6.09357 17.3066 6.05764 17.2707 6.02172C17.2348 5.98579 17.1988 5.96334 17.1629 5.95436C17.127 5.94538 17.0911 5.92293 17.0551 5.887C17.0192 5.887 16.9743 5.89149 16.9204 5.90047C16.8665 5.90945 16.8396 5.94987 16.8396 6.02172V6.18338H16.7049C16.633 6.14746 16.5612 6.12949 16.4893 6.12949C16.4175 6.12949 16.3636 6.14746 16.3277 6.18338C16.2917 6.2193 16.2738 6.25074 16.2738 6.27768C16.2738 6.30462 16.2738 6.3181 16.2738 6.3181C16.2738 6.3181 16.2873 6.33157 16.3142 6.35851C16.3411 6.38545 16.3726 6.39893 16.4085 6.39893C16.5163 6.39893 16.5746 6.41689 16.5836 6.45281C16.5926 6.48874 16.5791 6.54262 16.5432 6.61447C16.5073 6.68632 16.4714 6.72225 16.4354 6.72225C16.3995 6.72225 16.3456 6.70428 16.2738 6.66836C16.2379 6.63243 16.2019 6.60998 16.166 6.601C16.1301 6.59202 16.1121 6.56957 16.1121 6.53364C16.0403 6.56957 16.0043 6.60998 16.0043 6.65489C16.0043 6.69979 16.0223 6.75817 16.0582 6.83002C16.0942 6.86594 16.1301 6.89738 16.166 6.92432C16.2019 6.95127 16.2379 6.96474 16.2738 6.96474C16.3097 7.00066 16.3456 7.03658 16.3816 7.07251C16.4175 7.10843 16.4534 7.1264 16.4893 7.1264C16.633 7.19825 16.7318 7.25662 16.7857 7.30153C16.8396 7.34643 16.8845 7.40481 16.9204 7.47666ZM16.7588 4.51289C16.7228 4.47697 16.6869 4.45002 16.651 4.43206C16.6151 4.4141 16.5612 4.38716 16.4893 4.35123L16.4085 4.43206L16.7049 4.78232C16.669 4.7464 16.6285 4.71497 16.5836 4.68802C16.5387 4.66108 16.4803 4.64761 16.4085 4.64761C16.3726 4.64761 16.3501 4.64312 16.3411 4.63414C16.3322 4.62515 16.3097 4.6027 16.2738 4.56678V4.72844C16.2738 4.76436 16.2828 4.78681 16.3007 4.7958C16.3187 4.80478 16.3277 4.82723 16.3277 4.86315C16.3277 4.89908 16.3322 4.92153 16.3411 4.93051C16.3501 4.93949 16.3726 4.94398 16.4085 4.94398H16.3277C16.2917 4.94398 16.2693 4.93051 16.2603 4.90357C16.2513 4.87663 16.2289 4.86315 16.193 4.86315C16.1211 4.79131 16.0627 4.73293 16.0178 4.68802C15.9729 4.64312 15.9325 4.58474 15.8966 4.51289C15.8966 4.47697 15.8696 4.45451 15.8157 4.44553C15.7619 4.43655 15.717 4.43206 15.681 4.43206L15.6002 4.51289C15.6002 4.62066 15.69 4.75987 15.8696 4.93051C16.0493 5.10115 16.2289 5.15055 16.4085 5.0787C16.4444 5.0787 16.4848 5.07421 16.5297 5.06523C16.5746 5.05625 16.633 5.0338 16.7049 4.99787C16.669 5.0338 16.6465 5.07421 16.6375 5.11912C16.6285 5.16402 16.624 5.20444 16.624 5.24036V5.37508C16.66 5.411 16.7677 5.42447 16.9474 5.41549C17.127 5.40651 17.2168 5.3661 17.2168 5.29425C17.2527 5.25832 17.2797 5.20893 17.2976 5.14606C17.3156 5.08319 17.3066 5.01583 17.2707 4.94398V4.86315C17.3066 4.75538 17.2976 4.66557 17.2437 4.59372C17.1899 4.52187 17.109 4.46799 17.0013 4.43206C17.0013 4.53983 16.9833 4.58923 16.9474 4.58025C16.9114 4.57127 16.8486 4.54881 16.7588 4.51289ZM21.5008 11.114C21.5008 11.0781 21.4828 11.0511 21.4469 11.0332C21.411 11.0152 21.3751 10.9883 21.3391 10.9524C21.3032 10.9164 21.2673 10.894 21.2314 10.885C21.1954 10.876 21.1595 10.8536 21.1236 10.8176C21.1236 10.7817 21.1101 10.7458 21.0832 10.7099C21.0562 10.6739 21.0248 10.638 20.9889 10.6021C20.917 10.5662 20.8542 10.5347 20.8003 10.5078C20.7464 10.4808 20.6835 10.4674 20.6117 10.4674C20.5757 10.4314 20.5308 10.3955 20.4769 10.3596C20.4231 10.3237 20.3782 10.2788 20.3422 10.2249L20.2614 10.171C20.2255 10.171 20.1896 10.18 20.1536 10.1979C20.1177 10.2159 20.0997 10.2249 20.0997 10.2249C20.0638 10.3147 20.0324 10.4045 20.0054 10.4943C19.9785 10.5841 19.965 10.665 19.965 10.7368C19.965 10.8087 19.9605 10.867 19.9515 10.9119C19.9426 10.9568 19.9022 10.9973 19.8303 11.0332C19.7944 11.0332 19.7809 11.0467 19.7899 11.0736C19.7989 11.1005 19.7854 11.141 19.7495 11.1948H19.8842C19.956 11.141 20.0009 11.1185 20.0189 11.1275C20.0369 11.1365 20.0459 11.1769 20.0459 11.2487C20.0459 11.2847 20.0593 11.3161 20.0863 11.343C20.1132 11.37 20.1446 11.3655 20.1806 11.3296C20.2524 11.2936 20.3108 11.2577 20.3557 11.2218C20.4006 11.1859 20.441 11.1499 20.4769 11.114C20.5488 11.0422 20.5982 11.0017 20.6251 10.9928C20.6521 10.9838 20.7194 10.9973 20.8272 11.0332C20.8631 11.0691 20.9125 11.0916 20.9754 11.1005C21.0383 11.1095 21.0877 11.141 21.1236 11.1948L21.5008 11.114ZM15.6002 3.11184C15.6361 3.11184 15.672 3.11633 15.708 3.12531C15.7439 3.13429 15.7798 3.15674 15.8157 3.19267C15.8517 3.19267 15.8741 3.20614 15.8831 3.23308C15.8921 3.26003 15.8966 3.29146 15.8966 3.32738C15.8607 3.32738 15.8247 3.33187 15.7888 3.34085C15.7529 3.34984 15.717 3.37229 15.681 3.40821C15.6451 3.40821 15.6227 3.4127 15.6137 3.42168C15.6047 3.43067 15.5822 3.45312 15.5463 3.48904L15.681 3.62376H15.8966C15.9684 3.62376 16.0537 3.62825 16.1525 3.63723C16.2513 3.64621 16.3366 3.66866 16.4085 3.70459C16.4444 3.74051 16.4848 3.77644 16.5297 3.81236C16.5746 3.84829 16.633 3.88421 16.7049 3.92014C16.7408 3.95606 16.7767 3.97402 16.8126 3.97402C16.8486 3.97402 16.8845 3.95606 16.9204 3.92014C16.9563 3.88421 16.9833 3.84829 17.0013 3.81236C17.0192 3.77644 16.9923 3.74051 16.9204 3.70459L16.8396 3.62376C16.8396 3.55191 16.8261 3.50701 16.7992 3.48904C16.7722 3.47108 16.7408 3.44414 16.7049 3.40821C16.633 3.40821 16.5746 3.39025 16.5297 3.35433C16.4848 3.3184 16.4444 3.26451 16.4085 3.19267H16.2738L16.193 3.2735C16.157 3.23757 16.1211 3.20165 16.0852 3.16572C16.0493 3.1298 16.0133 3.11184 15.9774 3.11184C15.9056 3.07591 15.8337 3.05795 15.7619 3.05795C15.69 3.05795 15.6182 3.05795 15.5463 3.05795C15.5104 3.05795 15.4655 3.07142 15.4116 3.09836C15.3577 3.12531 15.3308 3.15674 15.3308 3.19267C15.3308 3.15674 15.3577 3.14327 15.4116 3.15225C15.4655 3.16123 15.5283 3.14776 15.6002 3.11184ZM11.6126 4.78232L11.7742 4.99787L11.9898 4.78232C12.0616 4.81825 12.1021 4.82723 12.111 4.80927C12.12 4.79131 12.1245 4.76436 12.1245 4.72844C12.1245 4.69251 12.129 4.65659 12.138 4.62066C12.147 4.58474 12.1694 4.54881 12.2053 4.51289C12.2053 4.47697 12.2188 4.45002 12.2457 4.43206C12.2727 4.4141 12.3041 4.38716 12.3401 4.35123H12.4209V4.56678C12.385 4.6027 12.376 4.63863 12.3939 4.67455C12.4119 4.71048 12.4209 4.72844 12.4209 4.72844C12.4568 4.72844 12.4793 4.71497 12.4882 4.68802C12.4972 4.66108 12.5197 4.64761 12.5556 4.64761L12.6364 4.56678C12.6724 4.56678 12.7038 4.5533 12.7307 4.52636C12.7577 4.49942 12.7711 4.46799 12.7711 4.43206V4.21651L12.9328 4.05485C12.8969 4.01893 12.861 4.00097 12.825 4.00097C12.7891 4.00097 12.7532 4.00097 12.7173 4.00097C12.6813 3.96504 12.6454 3.95606 12.6095 3.97402C12.5736 3.99199 12.5556 4.01893 12.5556 4.05485V4.13568H12.4209C12.349 4.09976 12.2772 4.08629 12.2053 4.09527C12.1335 4.10425 12.0616 4.14466 11.9898 4.21651L11.909 4.29734C11.873 4.29734 11.8416 4.31082 11.8147 4.33776C11.7877 4.3647 11.7742 4.39614 11.7742 4.43206C11.7742 4.50391 11.7383 4.5578 11.6665 4.59372C11.5946 4.62964 11.5048 4.64761 11.397 4.64761H11.3162C11.3162 4.68353 11.3072 4.73293 11.2893 4.7958C11.2713 4.85866 11.2623 4.90806 11.2623 4.94398C11.3701 4.97991 11.4464 4.97093 11.4913 4.91704C11.5362 4.86315 11.5767 4.81825 11.6126 4.78232ZM21.42 6.3181C21.42 6.35402 21.4334 6.38994 21.4604 6.42587C21.4873 6.46179 21.5188 6.49772 21.5547 6.53364C21.5906 6.60549 21.6355 6.65489 21.6894 6.68183C21.7433 6.70877 21.8241 6.70428 21.9319 6.66836C22.0037 6.66836 22.0621 6.65938 22.107 6.64142C22.1519 6.62345 22.2103 6.61447 22.2822 6.61447H22.4438C22.4797 6.61447 22.5022 6.60998 22.5112 6.601C22.5202 6.59202 22.5426 6.56957 22.5785 6.53364V6.39893C22.4348 6.363 22.3136 6.3181 22.2148 6.26421C22.116 6.21032 21.9948 6.18338 21.8511 6.18338H21.42V6.3181ZM17.6479 3.78542C17.7197 3.78542 17.7781 3.77195 17.823 3.745C17.8679 3.71806 17.9263 3.70459 17.9982 3.70459V3.56987C17.9982 3.49802 17.9937 3.45312 17.9847 3.43516C17.9757 3.41719 17.9353 3.40821 17.8634 3.40821C17.8275 3.40821 17.7916 3.40821 17.7557 3.40821C17.7197 3.40821 17.6838 3.38127 17.6479 3.32738C17.5401 3.29146 17.4593 3.25553 17.4054 3.21961C17.3515 3.18369 17.2886 3.14776 17.2168 3.11184C17.2168 3.21961 17.2348 3.32738 17.2707 3.43516C17.3066 3.54293 17.3605 3.63274 17.4323 3.70459C17.4323 3.74051 17.4593 3.77195 17.5132 3.79889C17.5671 3.82583 17.612 3.82134 17.6479 3.78542ZM18.3754 5.50979V5.45591C18.3394 5.34813 18.2856 5.2718 18.2137 5.22689C18.1419 5.18198 18.052 5.15953 17.9443 5.15953C17.8724 5.15953 17.8006 5.18647 17.7287 5.24036C17.6569 5.29425 17.603 5.33915 17.5671 5.37508V5.50979C17.6748 5.54572 17.7826 5.58164 17.8904 5.61757C17.9982 5.65349 18.088 5.68942 18.1598 5.72534C18.2676 5.68942 18.3305 5.66247 18.3484 5.64451C18.3664 5.62655 18.3754 5.58164 18.3754 5.50979ZM14.3069 3.70459C14.1991 3.70459 14.0914 3.70908 13.9836 3.71806C13.8758 3.72704 13.768 3.74949 13.6603 3.78542C13.5884 3.82134 13.5525 3.87972 13.5525 3.96055C13.5525 4.04138 13.5884 4.09976 13.6603 4.13568C13.7321 4.17161 13.804 4.18957 13.8758 4.18957C13.9477 4.18957 14.0195 4.17161 14.0914 4.13568C14.1273 4.09976 14.1542 4.06384 14.1722 4.02791C14.1902 3.99199 14.1812 3.95606 14.1453 3.92014L14.3877 3.78542L14.3069 3.70459ZM22.4977 9.52435C22.5336 9.52435 22.5695 9.51088 22.6055 9.48394C22.6414 9.457 22.6773 9.44353 22.7132 9.44353L22.7941 9.3627C22.7941 9.32677 22.7896 9.27737 22.7806 9.21451C22.7716 9.15164 22.7492 9.10224 22.7132 9.06632C22.6773 9.03039 22.6324 9.01243 22.5785 9.01243C22.5246 9.01243 22.4797 9.01243 22.4438 9.01243C22.372 9.01243 22.3046 9.03938 22.2417 9.09326C22.1789 9.14715 22.1474 9.21002 22.1474 9.28187C22.1834 9.35371 22.2328 9.42107 22.2956 9.48394C22.3585 9.54681 22.4258 9.56028 22.4977 9.52435ZM13.8758 3.56987C13.9477 3.53395 14.015 3.52497 14.0779 3.54293C14.1408 3.56089 14.1902 3.58784 14.2261 3.62376C14.262 3.65968 14.2979 3.66866 14.3339 3.6507C14.3698 3.63274 14.4057 3.6058 14.4416 3.56987V3.40821C14.4057 3.37229 14.3698 3.35433 14.3339 3.35433C14.2979 3.35433 14.262 3.37229 14.2261 3.40821C14.1902 3.40821 14.1677 3.42168 14.1587 3.44863C14.1497 3.47557 14.1273 3.48904 14.0914 3.48904H13.9297C13.8219 3.45312 13.7411 3.43965 13.6872 3.44863C13.6333 3.45761 13.5705 3.49802 13.4986 3.56987V3.62376C13.5345 3.58784 13.5884 3.56987 13.6603 3.56987C13.7321 3.56987 13.804 3.56987 13.8758 3.56987ZM18.3754 3.83931C18.3035 3.80338 18.2047 3.79889 18.079 3.82583C17.9533 3.85278 17.8365 3.88421 17.7287 3.92014C17.6748 3.92014 17.6479 3.93361 17.6479 3.96055C17.6479 3.9875 17.6479 4.00097 17.6479 4.00097L17.7287 4.05485C17.8365 4.09078 17.9533 4.0818 18.079 4.02791C18.2047 3.97402 18.3035 3.91116 18.3754 3.83931ZM8.7027 15.1825C8.66677 15.1825 8.63534 15.1959 8.6084 15.2229C8.58145 15.2498 8.56798 15.2813 8.56798 15.3172C8.60391 15.389 8.62636 15.4519 8.63534 15.5058C8.64432 15.5597 8.66677 15.6225 8.7027 15.6944C8.77455 15.6225 8.81945 15.5507 8.83741 15.4788C8.85538 15.407 8.86436 15.3531 8.86436 15.3172C8.86436 15.2813 8.85538 15.2498 8.83741 15.2229C8.81945 15.1959 8.77455 15.1825 8.7027 15.1825ZM20.6925 11.7607C20.7284 11.7607 20.7643 11.7696 20.8003 11.7876C20.8362 11.8056 20.8721 11.7966 20.908 11.7607C20.9799 11.7247 21.0338 11.6753 21.0697 11.6125C21.1056 11.5496 21.1236 11.5002 21.1236 11.4643C21.0158 11.4284 20.9395 11.4373 20.8946 11.4912C20.8497 11.5451 20.8092 11.59 20.7733 11.6259C20.7374 11.6259 20.7149 11.6394 20.706 11.6664C20.697 11.6933 20.6925 11.7247 20.6925 11.7607ZM15.4655 4.21651C15.5014 4.25244 15.5328 4.25693 15.5598 4.22998C15.5867 4.20304 15.6002 4.17161 15.6002 4.13568C15.6002 4.06384 15.5598 3.99648 15.479 3.93361C15.3981 3.87074 15.3218 3.82134 15.2499 3.78542C15.2499 3.89319 15.2679 3.983 15.3038 4.05485C15.3397 4.1267 15.3936 4.18059 15.4655 4.21651ZM3.4218 13.8083L3.77206 13.7275L3.69123 13.6467C3.79901 13.6108 3.85738 13.5793 3.86636 13.5524C3.87535 13.5254 3.84391 13.4581 3.77206 13.3503L3.4218 13.8083ZM19.2376 4.05485C19.2376 4.01893 19.2241 3.99199 19.1971 3.97402C19.1702 3.95606 19.1388 3.91116 19.1028 3.83931C19.0669 3.87523 19.022 3.91116 18.9681 3.94708C18.9142 3.983 18.8873 4.01893 18.8873 4.05485C18.8873 4.09078 18.9008 4.1267 18.9277 4.16263C18.9546 4.19855 18.9861 4.21651 19.022 4.21651C19.0939 4.21651 19.1477 4.19855 19.1837 4.16263C19.2196 4.1267 19.2376 4.09078 19.2376 4.05485ZM0.350256 12.7037C0.314332 12.7037 0.282898 12.7082 0.255955 12.7171C0.229011 12.7261 0.21554 12.7486 0.21554 12.7845V12.9192C0.251464 12.9551 0.287389 12.9776 0.323313 12.9866C0.359237 12.9956 0.395162 13 0.431086 13C0.467011 13 0.493954 12.9866 0.511917 12.9596C0.529879 12.9327 0.556822 12.8923 0.592747 12.8384C0.556822 12.8384 0.529879 12.8294 0.511917 12.8114C0.493954 12.7935 0.467011 12.7845 0.431086 12.7845C0.431086 12.7486 0.426596 12.7261 0.417615 12.7171C0.408634 12.7082 0.386181 12.7037 0.350256 12.7037ZM12.4209 4.78232C12.349 4.85417 12.2772 4.91704 12.2053 4.97093C12.1335 5.02481 12.0616 5.08768 11.9898 5.15953C12.1335 5.15953 12.2413 5.12361 12.3131 5.05176C12.385 4.97991 12.4209 4.8901 12.4209 4.78232ZM21.5547 11.9762L21.6355 12.057C21.6714 12.0211 21.6939 11.9852 21.7029 11.9493C21.7118 11.9133 21.7343 11.8774 21.7702 11.8415L21.7163 11.7607C21.6804 11.7607 21.6445 11.7786 21.6086 11.8145C21.5726 11.8505 21.5547 11.9044 21.5547 11.9762ZM15.8157 5.37508C15.8157 5.33915 15.8023 5.3167 15.7753 5.30772C15.7484 5.29874 15.717 5.27629 15.681 5.24036L15.5463 5.37508L15.681 5.45591C15.717 5.45591 15.7484 5.44244 15.7753 5.41549C15.8023 5.38855 15.8157 5.37508 15.8157 5.37508ZM17.0013 2.62686V2.46519C16.9653 2.42927 16.9249 2.40682 16.88 2.39784C16.8351 2.38885 16.7767 2.38437 16.7049 2.38437C16.7408 2.42029 16.7767 2.45621 16.8126 2.49214C16.8486 2.52806 16.8845 2.54602 16.9204 2.54602C16.9204 2.58195 16.9339 2.6044 16.9608 2.61338C16.9878 2.62236 17.0013 2.62686 17.0013 2.62686ZM13.3639 3.83931C13.3639 3.83931 13.3594 3.83033 13.3504 3.81236C13.3414 3.7944 13.319 3.78542 13.2831 3.78542H13.0675V3.83931C13.1034 3.87523 13.1394 3.90217 13.1753 3.92014C13.2112 3.9381 13.2471 3.96504 13.2831 4.00097C13.2831 3.96504 13.2965 3.92912 13.3235 3.89319C13.3504 3.85727 13.3639 3.83931 13.3639 3.83931ZM0.808293 15.1016L1.15856 14.9669C1.08671 14.931 1.01037 14.9265 0.929539 14.9534C0.848709 14.9804 0.808293 15.0298 0.808293 15.1016Z" fill="#008E7C"/>
</g>
<defs>
<clipPath id="clip0_228_18581">
<rect width="27.59" height="28" fill="white" transform="matrix(1 0 0 -1 0 28.1587)"/>
</clipPath>
</defs>
</svg>
