<svg width="35" height="35" viewBox="0 0 35 35" fill="none" xmlns="http://www.w3.org/2000/svg">
<path d="M34.8294 19.5166L35 19.3457C34.9545 19.2546 34.909 19.1805 34.8635 19.1235C34.8181 19.0666 34.7726 19.0153 34.7271 18.9697L34.5565 19.0723V18.7988H34.2495C34.1585 18.8444 34.0676 18.89 33.9766 18.9355C33.8856 18.9811 33.7947 19.0609 33.7037 19.1748C33.6582 19.1064 33.6582 19.0381 33.7037 18.9697C33.7492 18.9014 33.8402 18.8444 33.9766 18.7988C34.0676 18.7533 34.1585 18.7191 34.2495 18.6963C34.3405 18.6735 34.4087 18.6393 34.4542 18.5938V18.5254C34.4087 18.5254 34.3632 18.5083 34.3177 18.4741C34.2723 18.4399 34.2268 18.4229 34.1813 18.4229C34.0903 18.4229 33.988 18.4285 33.8743 18.4399C33.7606 18.4513 33.681 18.3887 33.6355 18.252H33.5331C33.4422 18.2064 33.3569 18.138 33.2773 18.0469C33.1977 17.9557 33.1579 17.8646 33.1579 17.7734C33.1579 17.7279 33.1522 17.6823 33.1408 17.6367C33.1295 17.5911 33.0783 17.5456 32.9873 17.5L32.885 17.3975C32.9305 17.443 32.976 17.4658 33.0214 17.4658C33.0669 17.4658 33.1124 17.443 33.1579 17.3975C33.2034 17.3519 33.2375 17.3063 33.2602 17.2607C33.283 17.2152 33.2489 17.1696 33.1579 17.124C33.1124 17.124 33.084 17.1126 33.0726 17.0898C33.0612 17.0671 33.0328 17.0557 32.9873 17.0557C32.8964 16.9417 32.794 16.8392 32.6803 16.748C32.5666 16.6569 32.5097 16.543 32.5097 16.4062C32.5097 16.3607 32.4927 16.298 32.4586 16.2183C32.4245 16.1385 32.3847 16.0758 32.3392 16.0303C32.3392 15.9847 32.3221 15.9391 32.288 15.8936C32.2539 15.848 32.2368 15.8024 32.2368 15.7568V15.4834C32.1914 15.6201 32.1288 15.7739 32.0492 15.9448C31.9696 16.1157 31.9071 16.2695 31.8616 16.4062C31.7706 16.3607 31.7138 16.3379 31.691 16.3379C31.6683 16.3379 31.6342 16.3835 31.5887 16.4746C31.5887 16.5202 31.5432 16.5658 31.4522 16.6113C31.3613 16.6569 31.293 16.6797 31.2476 16.6797C31.1793 16.6341 31.1168 16.5771 31.0599 16.5088C31.0031 16.4404 30.9064 16.4062 30.77 16.4062V16.3037C30.77 16.2581 30.7529 16.2183 30.7188 16.1841C30.6847 16.1499 30.6676 16.1328 30.6676 16.1328C30.5767 16.0417 30.5312 15.9505 30.5312 15.8594C30.5312 15.7682 30.5539 15.6999 30.5994 15.6543C30.6449 15.6087 30.6733 15.5632 30.6847 15.5176C30.6961 15.472 30.7245 15.4264 30.77 15.3809H30.5994C30.463 15.4264 30.3379 15.4321 30.2242 15.3979C30.1105 15.3638 29.9854 15.3239 29.8489 15.2783C29.8034 15.2327 29.7466 15.1872 29.6784 15.1416C29.6101 15.096 29.576 15.0505 29.576 15.0049L29.4737 14.9365C29.3827 14.9365 29.3145 14.8966 29.269 14.8169C29.2235 14.7371 29.2008 14.6745 29.2008 14.6289C29.1098 14.6289 29.0188 14.6175 28.9279 14.5947C28.8369 14.5719 28.7459 14.5605 28.655 14.5605C28.6095 14.5605 28.5583 14.5435 28.5015 14.5093C28.4446 14.4751 28.3707 14.458 28.2797 14.458C28.1888 14.4124 28.1205 14.4181 28.075 14.4751C28.0296 14.5321 28.0068 14.5833 28.0068 14.6289C27.9613 14.6745 27.9557 14.7257 27.9898 14.7827C28.0239 14.8397 28.0637 14.891 28.1092 14.9365C28.1546 14.9821 28.1831 15.0106 28.1944 15.022C28.2058 15.0334 28.2115 15.0618 28.2115 15.1074C28.166 15.153 28.1433 15.2157 28.1433 15.2954C28.1433 15.3752 28.166 15.4606 28.2115 15.5518C28.257 15.5973 28.2797 15.6429 28.2797 15.6885C28.2797 15.734 28.2797 15.7796 28.2797 15.8252V16.0303C28.1888 16.1214 28.1433 16.1841 28.1433 16.2183C28.1433 16.2524 28.1888 16.3151 28.2797 16.4062V16.4746C28.2797 16.5202 28.2968 16.5658 28.3309 16.6113C28.365 16.6569 28.3821 16.7025 28.3821 16.748C28.4276 16.8392 28.456 16.936 28.4673 17.0386C28.4787 17.1411 28.5071 17.238 28.5526 17.3291C28.5981 17.4658 28.6152 17.6139 28.6038 17.7734C28.5924 17.9329 28.5185 18.0583 28.3821 18.1494C28.2911 18.2406 28.1944 18.3374 28.0921 18.4399C27.9898 18.5425 27.8363 18.5938 27.6316 18.5938C27.6316 18.6393 27.6486 18.6849 27.6827 18.7305C27.7169 18.776 27.7339 18.8216 27.7339 18.8672C27.7339 18.9128 27.751 18.9583 27.7851 19.0039C27.8192 19.0495 27.8363 19.1064 27.8363 19.1748C27.8363 19.2204 27.8533 19.3001 27.8874 19.4141C27.9215 19.528 27.9386 19.6533 27.9386 19.79V19.9951C27.9386 20.0407 27.9215 20.0692 27.8874 20.0806C27.8533 20.092 27.8704 20.1204 27.9386 20.166V20.2686C27.8249 20.1774 27.7567 20.1375 27.7339 20.1489C27.7112 20.1603 27.6543 20.2572 27.5634 20.4395C27.5179 20.3939 27.4724 20.3654 27.4269 20.354C27.3814 20.3426 27.3359 20.3141 27.2904 20.2686C27.1995 20.1774 27.1369 20.0863 27.1028 19.9951C27.0687 19.904 27.0062 19.8128 26.9152 19.7217C26.8697 19.5394 26.8242 19.4084 26.7788 19.3286C26.7333 19.2489 26.7105 19.1634 26.7105 19.0723V18.3203C26.7105 18.2747 26.6935 18.2463 26.6594 18.2349C26.6252 18.2235 26.5854 18.195 26.54 18.1494H25.8236C25.7099 18.1038 25.6189 18.0583 25.5507 18.0127C25.4825 17.9671 25.3801 17.9443 25.2437 17.9443C25.2437 17.9443 25.2323 17.9443 25.2096 17.9443C25.1868 17.9443 25.1754 17.9215 25.1754 17.876C25.13 17.876 25.0958 17.8589 25.0731 17.8247C25.0504 17.7905 25.0162 17.7734 24.9708 17.7734C24.8798 17.7734 24.8002 17.7507 24.732 17.7051C24.6637 17.6595 24.6296 17.5911 24.6296 17.5C24.5614 17.4089 24.5159 17.3405 24.4932 17.2949C24.4704 17.2493 24.3908 17.2266 24.2544 17.2266C24.2089 17.2266 24.1634 17.2095 24.1179 17.1753C24.0724 17.1411 24.0497 17.124 24.0497 17.124C24.0042 17.0785 23.9587 17.0557 23.9133 17.0557C23.8678 17.0557 23.7995 17.0785 23.7086 17.124C23.6631 17.124 23.6119 17.1411 23.5551 17.1753C23.4982 17.2095 23.447 17.2266 23.4016 17.2266V16.8506C23.4016 16.805 23.3902 16.7424 23.3674 16.6626C23.3447 16.5828 23.3333 16.5202 23.3333 16.4746C23.3333 16.429 23.3106 16.3892 23.2651 16.355C23.2196 16.3208 23.1514 16.3037 23.0604 16.3037C22.924 16.3037 22.8444 16.2809 22.8216 16.2354C22.7989 16.1898 22.7875 16.1214 22.7875 16.0303C22.7875 15.848 22.8046 15.66 22.8387 15.4663C22.8728 15.2726 22.9126 15.0618 22.9581 14.834C22.9581 14.7428 22.9979 14.6688 23.0775 14.6118C23.1571 14.5549 23.2424 14.5036 23.3333 14.458C23.4243 14.4124 23.4812 14.3612 23.5039 14.3042C23.5266 14.2472 23.5608 14.1732 23.6062 14.082H23.7768C23.8678 14.082 23.936 14.0649 23.9815 14.0308C24.027 13.9966 24.0497 13.9567 24.0497 13.9111C24.0497 13.82 24.0156 13.7801 23.9474 13.7915C23.8791 13.8029 23.8223 13.7858 23.7768 13.7402C23.7313 13.7402 23.6915 13.7345 23.6574 13.7231C23.6233 13.7118 23.6062 13.6833 23.6062 13.6377C23.6062 13.5465 23.5721 13.4896 23.5039 13.4668C23.4357 13.444 23.3788 13.4326 23.3333 13.4326C23.2878 13.4326 23.2537 13.4326 23.231 13.4326C23.2083 13.4326 23.1741 13.4098 23.1287 13.3643H23.4016C23.5153 13.4098 23.6176 13.4383 23.7086 13.4497C23.7995 13.4611 23.8905 13.4896 23.9815 13.5352C24.1179 13.5807 24.2089 13.5864 24.2544 13.5522C24.2999 13.5181 24.3226 13.4554 24.3226 13.3643V13.2617C24.3681 13.2617 24.4136 13.2788 24.4591 13.313C24.5045 13.3472 24.5614 13.3643 24.6296 13.3643C24.6751 13.3643 24.7206 13.3757 24.7661 13.3984C24.8116 13.4212 24.8571 13.4098 24.9025 13.3643C24.948 13.2731 24.9935 13.1934 25.039 13.125C25.0845 13.0566 25.1527 12.9769 25.2437 12.8857L25.346 12.8174C25.3005 12.8174 25.2721 12.8117 25.2607 12.8003C25.2494 12.7889 25.2209 12.7604 25.1754 12.7148H24.9708C24.8798 12.7148 24.7775 12.6921 24.6637 12.6465C24.55 12.6009 24.4704 12.5326 24.425 12.4414V12.3389H24.5273C24.5728 12.3844 24.6183 12.4129 24.6637 12.4243C24.7092 12.4357 24.7547 12.4642 24.8002 12.5098C24.8912 12.6237 24.9878 12.6921 25.0902 12.7148C25.1925 12.7376 25.3119 12.6693 25.4483 12.5098L25.5166 12.4414C25.5621 12.3958 25.5848 12.3503 25.5848 12.3047C25.5848 12.2591 25.5621 12.2363 25.5166 12.2363C25.5166 12.2363 25.5166 12.2249 25.5166 12.2021C25.5166 12.1794 25.4938 12.168 25.4483 12.168H25.7212C25.7667 12.2591 25.8293 12.2933 25.9089 12.2705C25.9885 12.2477 26.0737 12.2363 26.1647 12.2363C26.2102 12.1452 26.1818 12.0825 26.0794 12.0483C25.9771 12.0142 25.9487 11.9287 25.9942 11.792L26.3694 12.2363C26.4149 12.1908 26.4547 12.1623 26.4888 12.1509C26.5229 12.1395 26.54 12.111 26.54 12.0654C26.5854 12.0199 26.6366 11.9629 26.6935 11.8945C26.7503 11.8262 26.8242 11.792 26.9152 11.792C26.9607 11.792 26.9891 11.7749 27.0005 11.7407C27.0119 11.7065 27.0175 11.6667 27.0175 11.6211C26.9721 11.5072 26.9266 11.4103 26.8811 11.3306C26.8356 11.2508 26.7788 11.1882 26.7105 11.1426V11.04H26.8129C26.8583 11.04 26.9038 11.04 26.9493 11.04C26.9948 11.04 27.0403 11.0173 27.0858 10.9717C27.0858 10.9717 27.0858 10.9489 27.0858 10.9033C27.0858 10.8577 27.063 10.8122 27.0175 10.7666C27.063 10.721 27.0801 10.6812 27.0687 10.647C27.0573 10.6128 27.0062 10.5957 26.9152 10.5957C26.8697 10.5957 26.8242 10.5786 26.7788 10.5444C26.7333 10.5103 26.6878 10.4704 26.6423 10.4248C26.6423 10.4248 26.6366 10.4077 26.6252 10.3735C26.6139 10.3394 26.5854 10.3223 26.54 10.3223C26.449 10.3223 26.3523 10.3052 26.25 10.271C26.1477 10.2368 26.0283 10.2197 25.8918 10.2197C25.8463 10.2197 25.8065 10.2254 25.7724 10.2368C25.7383 10.2482 25.7212 10.2767 25.7212 10.3223C25.7212 10.3678 25.7099 10.4134 25.6871 10.459C25.6644 10.5046 25.7099 10.5501 25.8236 10.5957C25.8691 10.6413 25.8918 10.6982 25.8918 10.7666C25.8918 10.835 25.8691 10.8691 25.8236 10.8691C25.7099 10.9147 25.6473 10.9603 25.636 11.0059C25.6246 11.0514 25.6189 11.097 25.6189 11.1426C25.6189 11.1882 25.6019 11.2337 25.5677 11.2793C25.5336 11.3249 25.5166 11.3704 25.5166 11.416H25.4483V11.3135C25.4483 11.2679 25.4427 11.2394 25.4313 11.228C25.4199 11.2166 25.3915 11.1882 25.346 11.1426H25.2437V11.3135C25.2437 11.3135 25.2607 11.3192 25.2948 11.3306C25.3289 11.342 25.346 11.3704 25.346 11.416C25.346 11.4616 25.3574 11.5072 25.3801 11.5527C25.4029 11.5983 25.3915 11.6439 25.346 11.6895C25.346 11.735 25.3176 11.7692 25.2607 11.792C25.2039 11.8148 25.1754 11.849 25.1754 11.8945C25.13 11.849 25.0845 11.7863 25.039 11.7065C24.9935 11.6268 24.948 11.5641 24.9025 11.5186C24.8571 11.473 24.8343 11.4103 24.8343 11.3306C24.8343 11.2508 24.8798 11.1882 24.9708 11.1426V11.04C24.9708 10.9489 24.9366 10.8805 24.8684 10.835C24.8002 10.7894 24.7433 10.7438 24.6979 10.6982C24.6524 10.6982 24.6239 10.6812 24.6126 10.647C24.6012 10.6128 24.5728 10.5957 24.5273 10.5957L24.425 10.6982C24.3795 10.7894 24.3397 10.8634 24.3056 10.9204C24.2714 10.9774 24.2544 11.0514 24.2544 11.1426C24.2089 11.097 24.1918 11.0343 24.2032 10.9546C24.2146 10.8748 24.1975 10.8122 24.152 10.7666C24.1066 10.6755 24.1009 10.6185 24.135 10.5957C24.1691 10.5729 24.2089 10.5387 24.2544 10.4932C24.1634 10.3109 24.0838 10.1799 24.0156 10.1001C23.9474 10.0203 23.845 10.026 23.7086 10.1172C23.7086 10.0716 23.7029 10.0146 23.6915 9.94629C23.6801 9.87793 23.7427 9.82096 23.8791 9.77539C23.9246 9.77539 23.9474 9.7526 23.9474 9.70703C23.9474 9.66146 23.9246 9.61589 23.8791 9.57031C23.7882 9.52474 23.7256 9.46777 23.6915 9.39941C23.6574 9.33105 23.5949 9.29688 23.5039 9.29688V9.19434C23.5039 9.05762 23.4755 8.94368 23.4186 8.85254C23.3618 8.76139 23.2651 8.69303 23.1287 8.64746C23.0832 8.64746 23.0604 8.63037 23.0604 8.59619C23.0604 8.56201 23.0832 8.52214 23.1287 8.47656C23.1741 8.43099 23.2196 8.36833 23.2651 8.28857C23.3106 8.20882 23.3561 8.14616 23.4016 8.10059C23.3561 8.05501 23.3333 8.02653 23.3333 8.01514C23.3333 8.00374 23.3333 7.97526 23.3333 7.92969C23.3788 7.92969 23.4243 7.92969 23.4698 7.92969C23.5153 7.92969 23.5608 7.95247 23.6062 7.99805C23.6517 7.99805 23.7086 7.99805 23.7768 7.99805C23.845 7.99805 23.8791 7.97526 23.8791 7.92969L24.152 7.38281C24.1975 7.33724 24.2032 7.29167 24.1691 7.24609C24.135 7.20052 24.0724 7.17773 23.9815 7.17773H23.6062C23.4698 7.08659 23.3447 7.04671 23.231 7.05811C23.1173 7.0695 22.9922 7.0752 22.8558 7.0752C22.7648 7.0752 22.7136 7.10368 22.7022 7.16064C22.6909 7.21761 22.6852 7.29167 22.6852 7.38281V7.45117H22.5146V7.82715C22.5146 7.91829 22.526 7.99235 22.5487 8.04932C22.5715 8.10628 22.5828 8.19173 22.5828 8.30566C22.5828 8.39681 22.5942 8.48226 22.617 8.56201C22.6397 8.64176 22.6283 8.70443 22.5828 8.75C22.5374 8.84115 22.5032 8.9152 22.4805 8.97217C22.4578 9.02913 22.4691 9.0804 22.5146 9.12598L22.4123 9.02344H22.3099C22.2645 9.06901 22.2417 9.13167 22.2417 9.21143C22.2417 9.29118 22.2645 9.35384 22.3099 9.39941C22.3554 9.44499 22.3782 9.47347 22.3782 9.48486C22.3782 9.49626 22.3554 9.52474 22.3099 9.57031C22.219 9.66146 22.2076 9.764 22.2758 9.87793C22.3441 9.99186 22.4464 10.0488 22.5828 10.0488C22.6283 10.0488 22.6738 10.0488 22.7193 10.0488C22.7648 10.0488 22.8103 10.0716 22.8558 10.1172C22.9012 10.1172 22.941 10.14 22.9751 10.1855C23.0093 10.2311 23.0036 10.2767 22.9581 10.3223C22.9581 10.3678 22.941 10.4134 22.9069 10.459C22.8728 10.5046 22.8558 10.5501 22.8558 10.5957V10.6982L23.0604 10.4248C23.1514 10.5615 23.14 10.6868 23.0263 10.8008C22.9126 10.9147 22.7648 10.9945 22.5828 11.04V11.1426C22.5828 11.1882 22.5885 11.2337 22.5999 11.2793C22.6113 11.3249 22.6397 11.3704 22.6852 11.416C22.6852 11.4616 22.6795 11.5015 22.6681 11.5356C22.6568 11.5698 22.6056 11.5641 22.5146 11.5186C22.4009 11.473 22.327 11.4274 22.2929 11.3818C22.2588 11.3363 22.2645 11.2907 22.3099 11.2451C22.3099 11.1995 22.327 11.154 22.3611 11.1084C22.3952 11.0628 22.4123 11.04 22.4123 11.04C22.3213 11.04 22.2303 11.0343 22.1394 11.0229C22.0484 11.0116 21.9802 10.9603 21.9347 10.8691H22.2076C22.2531 10.8236 22.2986 10.7951 22.3441 10.7837C22.3895 10.7723 22.4123 10.7666 22.4123 10.7666C22.4578 10.7666 22.4976 10.7666 22.5317 10.7666C22.5658 10.7666 22.5828 10.7438 22.5828 10.6982V10.4248H22.2076V10.3223H22.5146C22.5146 10.2767 22.4919 10.2368 22.4464 10.2026C22.4009 10.1685 22.3554 10.1742 22.3099 10.2197C22.219 10.2653 22.1451 10.271 22.0882 10.2368C22.0314 10.2026 21.9802 10.1628 21.9347 10.1172C21.8437 10.0716 21.7869 10.0545 21.7641 10.0659C21.7414 10.0773 21.7073 10.1286 21.6618 10.2197V10.3223C21.6618 10.3678 21.6504 10.3963 21.6277 10.4077C21.6049 10.4191 21.5936 10.4248 21.5936 10.4248C21.5481 10.4248 21.514 10.4362 21.4912 10.459C21.4685 10.4818 21.4344 10.4932 21.3889 10.4932C21.4344 10.4932 21.4799 10.5103 21.5253 10.5444C21.5708 10.5786 21.5936 10.5957 21.5936 10.5957C21.6845 10.5957 21.7528 10.6128 21.7982 10.647C21.8437 10.6812 21.8665 10.721 21.8665 10.7666L21.7641 10.8691H21.5936V11.2451C21.3889 11.1995 21.2183 11.1882 21.0819 11.2109C20.9454 11.2337 20.809 11.2451 20.6725 11.2451C20.5815 11.2451 20.4906 11.2337 20.3996 11.2109C20.3086 11.1882 20.2404 11.1312 20.1949 11.04L20.0926 10.9717C20.0016 10.9717 19.9277 10.9546 19.8709 10.9204C19.814 10.8862 19.7401 10.8691 19.6491 10.8691C19.5582 10.8691 19.507 10.8464 19.4956 10.8008C19.4842 10.7552 19.4786 10.6868 19.4786 10.5957C19.4786 10.5501 19.4558 10.5103 19.4103 10.4761C19.3648 10.4419 19.3194 10.4248 19.2739 10.4248C19.1374 10.4704 19.018 10.516 18.9157 10.5615C18.8134 10.6071 18.694 10.6527 18.5575 10.6982C18.512 10.6982 18.495 10.7153 18.5063 10.7495C18.5177 10.7837 18.5006 10.8236 18.4552 10.8691H18.6257C18.7167 10.8236 18.8077 10.7837 18.8986 10.7495C18.9896 10.7153 19.0919 10.6982 19.2057 10.6982H19.2739C19.2284 10.7894 19.1659 10.8464 19.0863 10.8691C19.0067 10.8919 18.9214 10.9261 18.8304 10.9717C18.7394 10.9717 18.6826 10.9945 18.6598 11.04C18.6371 11.0856 18.6257 11.154 18.6257 11.2451C18.6712 11.3363 18.7053 11.4103 18.7281 11.4673C18.7508 11.5243 18.7849 11.5755 18.8304 11.6211L18.6257 11.792C18.5802 11.792 18.5461 11.7863 18.5234 11.7749C18.5006 11.7635 18.512 11.7122 18.5575 11.6211C18.5575 11.5755 18.5518 11.5243 18.5404 11.4673C18.5291 11.4103 18.5006 11.359 18.4552 11.3135C18.3642 11.2679 18.2789 11.2223 18.1993 11.1768C18.1197 11.1312 18.0458 11.0856 17.9776 11.04H17.9094C17.7729 11.04 17.6478 11.0571 17.5341 11.0913C17.4204 11.1255 17.2953 11.1426 17.1589 11.1426H16.5107C16.4198 11.1426 16.3743 11.1255 16.3743 11.0913C16.3743 11.0571 16.397 11.0173 16.4425 10.9717C16.488 10.9261 16.5335 10.8919 16.5789 10.8691C16.6244 10.8464 16.6927 10.8122 16.7836 10.7666C16.7836 10.6755 16.7154 10.5786 16.5789 10.4761C16.4425 10.3735 16.3288 10.3564 16.2378 10.4248H15.8967C15.783 10.3564 15.6806 10.3052 15.5897 10.271C15.4987 10.2368 15.4077 10.2197 15.3168 10.2197C15.1803 10.1742 15.0495 10.14 14.9245 10.1172C14.7994 10.0944 14.6914 10.0374 14.6004 9.94629C14.5094 9.85514 14.39 9.82666 14.2422 9.86084C14.0944 9.89502 13.9977 9.95768 13.9522 10.0488C13.9068 10.14 13.8556 10.1912 13.7987 10.2026C13.7419 10.214 13.668 10.2197 13.577 10.2197V9.77539H13.4747C13.4747 9.82096 13.4633 9.84945 13.4405 9.86084C13.4178 9.87223 13.4064 9.90072 13.4064 9.94629C13.3609 9.99186 13.3268 10.0374 13.3041 10.083C13.2814 10.1286 13.2472 10.1742 13.2018 10.2197L13.1335 10.3223C13.088 10.3223 13.0539 10.3166 13.0312 10.3052C13.0084 10.2938 12.9743 10.2653 12.9288 10.2197C12.9288 10.1742 12.9288 10.1286 12.9288 10.083C12.9288 10.0374 12.9061 9.99186 12.8606 9.94629C12.8151 9.85514 12.7583 9.76969 12.6901 9.68994C12.6218 9.61019 12.5195 9.54753 12.383 9.50195L12.4854 9.77539C12.4399 9.86654 12.3944 9.9349 12.3489 9.98047C12.3034 10.026 12.258 10.0716 12.2125 10.1172C12.1215 10.0716 12.0476 10.0488 11.9907 10.0488C11.9339 10.0488 11.8827 10.0716 11.8372 10.1172C11.7917 10.1628 11.7576 10.2026 11.7349 10.2368C11.7122 10.271 11.6553 10.2653 11.5643 10.2197H11.462C11.371 10.2653 11.2971 10.3109 11.2403 10.3564C11.1834 10.402 11.1322 10.4476 11.0867 10.4932C11.0867 10.5387 11.064 10.5786 11.0185 10.6128C10.973 10.647 10.9048 10.6413 10.8138 10.5957C10.8138 10.5957 10.8195 10.5786 10.8309 10.5444C10.8423 10.5103 10.8707 10.4932 10.9162 10.4932C11.0526 10.402 11.1777 10.2995 11.2914 10.1855C11.4051 10.0716 11.553 9.99186 11.7349 9.94629C11.7804 9.94629 11.8259 9.9292 11.8713 9.89502C11.9168 9.86084 11.9623 9.82096 12.0078 9.77539V9.67285L11.1891 9.94629C11.1436 9.94629 11.1038 9.96338 11.0697 9.99756C11.0356 10.0317 11.0185 10.0488 11.0185 10.0488C10.973 10.0488 10.9276 10.0602 10.8821 10.083C10.8366 10.1058 10.7911 10.0944 10.7456 10.0488C10.7001 10.0033 10.6319 9.99186 10.5409 10.0146C10.45 10.0374 10.359 10.0716 10.268 10.1172C10.1771 10.1628 10.1259 10.2083 10.1145 10.2539C10.1032 10.2995 10.1202 10.3564 10.1657 10.4248C10.1657 10.4704 10.1827 10.4989 10.2169 10.5103C10.251 10.5216 10.268 10.5501 10.268 10.5957C10.1771 10.5501 10.0861 10.5216 9.99513 10.5103C9.90416 10.4989 9.81319 10.4932 9.72222 10.4932C9.58577 10.4932 9.46637 10.4533 9.36404 10.3735C9.2617 10.2938 9.16504 10.2083 9.07407 10.1172H8.80117C8.66472 10.1172 8.51121 10.1115 8.34064 10.1001C8.17008 10.0887 8.01657 10.0374 7.88012 9.94629C7.83463 9.90072 7.78346 9.87793 7.72661 9.87793C7.66975 9.87793 7.59584 9.90072 7.50487 9.94629C7.50487 10.0374 7.47076 10.0887 7.40253 10.1001C7.33431 10.1115 7.25471 10.1172 7.16374 10.1172C7.09552 10.1172 7.03866 10.1058 6.99318 10.083C6.94769 10.0602 6.90221 10.0488 6.85673 10.0488L6.68616 10.2197C6.64068 10.2653 6.54971 10.2995 6.41326 10.3223C6.2768 10.3451 6.18584 10.3109 6.14035 10.2197C6.09487 10.1286 6.02664 10.0602 5.93567 10.0146C5.8447 9.96908 5.73099 9.94629 5.59454 9.94629C5.54906 9.94629 5.48652 9.9292 5.40692 9.89502C5.32732 9.86084 5.26478 9.84375 5.2193 9.84375C5.17381 9.84375 5.14539 9.82666 5.13402 9.79248C5.12264 9.7583 5.09422 9.71842 5.04873 9.67285C5.00325 9.62728 4.95776 9.5988 4.91228 9.5874C4.8668 9.57601 4.84405 9.54753 4.84405 9.50195C4.84405 9.50195 4.827 9.48486 4.79289 9.45068C4.75877 9.4165 4.71897 9.39941 4.67349 9.39941H4.02534C3.8434 9.39941 3.67853 9.43929 3.5307 9.51904C3.38288 9.5988 3.24074 9.68424 3.10429 9.77539C3.0588 9.82096 2.99626 9.86084 2.91667 9.89502C2.83707 9.9292 2.77453 9.94629 2.72904 9.94629C2.63808 9.94629 2.56417 9.96338 2.50731 9.99756C2.45045 10.0317 2.37654 10.0488 2.28558 10.0488C2.05815 10.14 1.83073 10.2368 1.60331 10.3394C1.37589 10.4419 1.17122 10.5615 0.989279 10.6982C0.943795 10.7438 0.898311 10.7666 0.852827 10.7666C0.807342 10.7666 0.761858 10.7666 0.716374 10.7666C0.67089 10.7666 0.625406 10.7837 0.579922 10.8179C0.534438 10.8521 0.488954 10.8691 0.44347 10.8691C0.534438 10.9603 0.60835 11.0229 0.665205 11.0571C0.72206 11.0913 0.795971 11.0856 0.88694 11.04H1.09162C1.1371 11.0856 1.19396 11.1312 1.26218 11.1768C1.33041 11.2223 1.38726 11.2679 1.43275 11.3135C1.47823 11.3135 1.51235 11.3306 1.53509 11.3647C1.55783 11.3989 1.59194 11.416 1.63743 11.416C1.7284 11.4616 1.81368 11.5186 1.89327 11.5869C1.97287 11.6553 2.01267 11.7578 2.01267 11.8945C2.01267 11.9401 2.02973 11.98 2.06384 12.0142C2.09795 12.0483 2.13775 12.0654 2.18324 12.0654H2.3538C2.3538 12.0654 2.3538 12.0825 2.3538 12.1167C2.3538 12.1509 2.33106 12.168 2.28558 12.168C2.19461 12.168 2.1207 12.1737 2.06384 12.1851C2.00699 12.1965 1.95582 12.2477 1.91033 12.3389H1.80799C1.71702 12.3389 1.62606 12.3218 1.53509 12.2876C1.44412 12.2534 1.35315 12.2363 1.26218 12.2363V12.0654C1.2167 12.0654 1.16553 12.0426 1.10867 11.9971C1.05182 11.9515 0.977908 11.9743 0.88694 12.0654L0.614035 12.3389C0.568551 12.3389 0.488954 12.356 0.375244 12.3901C0.261533 12.4243 0.159194 12.4642 0.0682261 12.5098C0.022742 12.5781 0 12.618 0 12.6294C0 12.6408 0.022742 12.6693 0.0682261 12.7148C0.11371 12.7604 0.176251 12.7889 0.255848 12.8003C0.335445 12.8117 0.397986 12.8402 0.44347 12.8857C0.397986 12.9313 0.375244 12.9769 0.375244 13.0225C0.375244 13.068 0.397986 13.0908 0.44347 13.0908L0.511696 13.1592C0.579922 13.1592 0.636777 13.1763 0.682261 13.2104C0.727745 13.2446 0.773229 13.2617 0.818713 13.2617H1.36452C1.41001 13.2617 1.45549 13.256 1.50097 13.2446C1.54646 13.2332 1.59194 13.2048 1.63743 13.1592C1.68291 13.1136 1.7284 13.0737 1.77388 13.0396C1.81936 13.0054 1.86485 12.9883 1.91033 12.9883H2.0809V13.0908C1.98993 13.1364 1.95582 13.1934 1.97856 13.2617C2.0013 13.3301 2.03541 13.387 2.0809 13.4326C2.12638 13.5693 2.11501 13.6662 2.04678 13.7231C1.97856 13.7801 1.87622 13.7858 1.73977 13.7402C1.67154 13.7402 1.63174 13.7402 1.62037 13.7402C1.609 13.7402 1.58057 13.763 1.53509 13.8086C1.53509 13.8542 1.51803 13.8997 1.48392 13.9453C1.44981 13.9909 1.43275 14.0365 1.43275 14.082L0.989279 13.9111C1.03476 14.0479 1.05182 14.1618 1.04045 14.2529C1.02908 14.3441 0.955166 14.4124 0.818713 14.458V14.5605C0.773229 14.6061 0.739116 14.6688 0.716374 14.7485C0.693632 14.8283 0.659519 14.891 0.614035 14.9365C0.705003 14.9821 0.767544 15.0277 0.801657 15.0732C0.83577 15.1188 0.807342 15.1872 0.716374 15.2783L1.09162 15.6543C1.09162 15.6543 1.10867 15.66 1.14279 15.6714C1.1769 15.6828 1.2167 15.7113 1.26218 15.7568C1.30767 15.7568 1.35315 15.7682 1.39864 15.791C1.44412 15.8138 1.4896 15.8252 1.53509 15.8252C1.58057 15.8936 1.62606 15.9277 1.67154 15.9277C1.71702 15.9277 1.73977 15.8936 1.73977 15.8252C1.73977 15.8252 1.73977 15.8138 1.73977 15.791C1.73977 15.7682 1.76251 15.7568 1.80799 15.7568C1.94444 15.848 1.98993 15.9562 1.94444 16.0815C1.89896 16.2069 1.9217 16.3379 2.01267 16.4746C2.05815 16.429 2.10364 16.4006 2.14912 16.3892C2.19461 16.3778 2.26283 16.3493 2.3538 16.3037C2.39929 16.3037 2.44477 16.2866 2.49025 16.2524C2.53574 16.2183 2.58122 16.2012 2.62671 16.2012H2.83138C2.92235 16.1556 3.00763 16.1385 3.08723 16.1499C3.16683 16.1613 3.22937 16.2126 3.27485 16.3037C3.27485 16.3037 3.28054 16.3208 3.29191 16.355C3.30328 16.3892 3.33171 16.4062 3.37719 16.4062H3.54776C3.50227 16.4974 3.46248 16.5658 3.42836 16.6113C3.39425 16.6569 3.37719 16.7025 3.37719 16.748C3.37719 16.9076 3.33739 17.0329 3.2578 17.124C3.1782 17.2152 3.09292 17.3063 3.00195 17.3975H2.93372C2.77453 17.443 2.6665 17.5057 2.60965 17.5854C2.55279 17.6652 2.50162 17.7279 2.45614 17.7734C2.41066 17.819 2.38223 17.8475 2.37086 17.8589C2.35949 17.8703 2.33106 17.876 2.28558 17.876H2.01267C1.96719 17.9215 1.9217 17.9842 1.87622 18.064C1.83073 18.1437 1.78525 18.2064 1.73977 18.252H1.80799C1.85348 18.252 1.89896 18.2349 1.94444 18.2007C1.98993 18.1665 2.01267 18.1494 2.01267 18.1494L2.18324 17.9443C2.22872 17.9899 2.26283 18.0127 2.28558 18.0127C2.30832 18.0127 2.36517 17.9899 2.45614 17.9443C2.50162 17.9443 2.53005 17.9329 2.54142 17.9102C2.55279 17.8874 2.58122 17.876 2.62671 17.876C2.7859 17.876 2.92235 17.8475 3.03606 17.7905C3.14977 17.7336 3.22937 17.6367 3.27485 17.5C3.27485 17.5 3.28054 17.4829 3.29191 17.4487C3.30328 17.4146 3.33171 17.3975 3.37719 17.3975C3.46816 17.3519 3.54207 17.3063 3.59893 17.2607C3.65578 17.2152 3.72969 17.1696 3.82066 17.124L4.12768 16.8506C4.17316 16.8506 4.20159 16.8335 4.21296 16.7993C4.22433 16.7651 4.25276 16.748 4.29825 16.748C4.34373 16.6569 4.42901 16.5942 4.55409 16.5601C4.67917 16.5259 4.74172 16.4404 4.74172 16.3037C4.83268 16.2581 4.87817 16.2126 4.87817 16.167C4.87817 16.1214 4.83268 16.0758 4.74172 16.0303C4.74172 16.0303 4.73034 16.0246 4.7076 16.0132C4.68486 16.0018 4.67349 15.9733 4.67349 15.9277C4.71897 15.8822 4.78151 15.8366 4.86111 15.791C4.94071 15.7454 5.00325 15.6999 5.04873 15.6543C5.09422 15.6543 5.12264 15.6372 5.13402 15.603C5.14539 15.5688 5.17381 15.529 5.2193 15.4834C5.2193 15.4834 5.22498 15.4606 5.23635 15.415C5.24773 15.3695 5.27615 15.3239 5.32164 15.2783C5.41261 15.1872 5.50357 15.096 5.59454 15.0049C5.68551 14.9137 5.77648 14.7884 5.86745 14.6289L6.24269 14.834H6.14035C6.0039 14.7884 5.90725 14.7827 5.85039 14.8169C5.79353 14.8511 5.76511 14.9137 5.76511 15.0049C5.76511 15.0505 5.74805 15.096 5.71394 15.1416C5.67982 15.1872 5.66277 15.2327 5.66277 15.2783C5.61728 15.3239 5.60591 15.3695 5.62866 15.415C5.6514 15.4606 5.73099 15.5062 5.86745 15.5518L5.59454 15.7568C5.68551 15.8024 5.75942 15.8195 5.81628 15.8081C5.87313 15.7967 5.94704 15.7454 6.03801 15.6543C6.12898 15.5632 6.23132 15.4834 6.34503 15.415C6.45874 15.3467 6.60656 15.3353 6.7885 15.3809V15.1074C6.69753 15.0163 6.66342 14.9422 6.68616 14.8853C6.7089 14.8283 6.76576 14.777 6.85673 14.7314L7.23197 14.9365H7.43665C7.30019 14.9821 7.2206 15.0163 7.19786 15.0391C7.17511 15.0618 7.18648 15.1188 7.23197 15.21H7.33431C7.37979 15.1644 7.42528 15.1302 7.47076 15.1074C7.51624 15.0846 7.56173 15.1188 7.60721 15.21H7.70955C7.75504 15.21 7.80052 15.1872 7.846 15.1416C7.89149 15.096 7.93697 15.0505 7.98246 15.0049C8.02794 14.9593 8.10185 14.9365 8.20419 14.9365C8.30653 14.9365 8.38044 14.9593 8.42593 15.0049V15.1074L8.52827 15.21C8.34633 15.4378 8.27242 15.5745 8.30653 15.6201C8.34064 15.6657 8.38044 15.734 8.42593 15.8252C8.51689 15.9391 8.57943 15.9961 8.61355 15.9961C8.64766 15.9961 8.7102 15.9391 8.80117 15.8252C8.80117 15.8252 8.81823 15.8138 8.85234 15.791C8.88645 15.7682 8.90351 15.7796 8.90351 15.8252L8.97173 15.9277C8.97173 15.9277 8.97173 15.9448 8.97173 15.979C8.97173 16.0132 8.94899 16.0303 8.90351 16.0303C8.85802 16.0758 8.83528 16.1043 8.83528 16.1157C8.83528 16.1271 8.88077 16.1556 8.97173 16.2012C9.15367 16.2467 9.31855 16.3151 9.46637 16.4062C9.6142 16.4974 9.73359 16.6113 9.82456 16.748H9.89279V16.5771L10.268 16.748C10.268 16.6569 10.251 16.5828 10.2169 16.5259C10.1827 16.4689 10.1657 16.3949 10.1657 16.3037C10.2567 16.3949 10.3135 16.486 10.3363 16.5771C10.359 16.6683 10.3704 16.7594 10.3704 16.8506L10.268 16.9531C10.268 16.9531 10.251 16.9474 10.2169 16.936C10.1827 16.9246 10.1657 16.8962 10.1657 16.8506V16.748C10.0747 16.7936 10.0179 16.8449 9.99513 16.9019C9.97238 16.9588 10.0065 17.0329 10.0975 17.124C10.1884 17.2152 10.2453 17.3063 10.268 17.3975C10.2908 17.4886 10.359 17.557 10.4727 17.6025C10.4727 17.6025 10.4727 17.6139 10.4727 17.6367C10.4727 17.6595 10.4955 17.6709 10.5409 17.6709C10.6319 17.5798 10.6433 17.4886 10.575 17.3975C10.5068 17.3063 10.4955 17.2152 10.5409 17.124H10.6433V17.3975C10.7797 17.3519 10.8423 17.2892 10.8309 17.2095C10.8195 17.1297 10.8138 17.0443 10.8138 16.9531C10.9048 17.0443 10.9503 17.1468 10.9503 17.2607C10.9503 17.3747 10.9048 17.4544 10.8138 17.5C10.7229 17.5456 10.6774 17.6082 10.6774 17.688C10.6774 17.7677 10.7001 17.8304 10.7456 17.876L11.0185 17.6709C11.1095 17.8076 11.1663 17.8874 11.1891 17.9102C11.2118 17.9329 11.2687 17.9443 11.3596 17.9443C11.3142 17.8988 11.2744 17.8703 11.2403 17.8589C11.2061 17.8475 11.1891 17.819 11.1891 17.7734V17.6709H11.2914C11.3824 17.762 11.4336 17.8418 11.4449 17.9102C11.4563 17.9785 11.371 18.0924 11.1891 18.252C11.1891 18.2064 11.172 18.1551 11.1379 18.0981C11.1038 18.0412 11.0867 17.9899 11.0867 17.9443L11.0185 18.0469V18.1494C11.064 18.2406 11.0867 18.3146 11.0867 18.3716C11.0867 18.4285 11.064 18.5026 11.0185 18.5938C11.0185 18.5938 11.0299 18.6165 11.0526 18.6621C11.0754 18.7077 11.0867 18.7533 11.0867 18.7988C11.0867 18.7533 11.1038 18.7077 11.1379 18.6621C11.172 18.6165 11.1891 18.5938 11.1891 18.5938L11.3596 18.6963C11.3596 18.6507 11.3653 18.6051 11.3767 18.5596C11.3881 18.514 11.4165 18.4684 11.462 18.4229L11.6667 18.5254L11.7349 18.4229C11.7804 18.4229 11.8145 18.4399 11.8372 18.4741C11.86 18.5083 11.8941 18.5254 11.9396 18.5254C11.9851 18.571 12.0192 18.6165 12.0419 18.6621C12.0647 18.7077 12.1215 18.7533 12.2125 18.7988C12.258 18.7988 12.2864 18.833 12.2978 18.9014C12.3091 18.9697 12.3376 19.0267 12.383 19.0723C12.4285 19.1178 12.457 19.1805 12.4683 19.2603C12.4797 19.34 12.5081 19.4027 12.5536 19.4482L12.8606 19.7217C12.8151 19.7673 12.7753 19.8128 12.7412 19.8584C12.7071 19.904 12.7128 19.9495 12.7583 19.9951V20.0635C12.7583 20.1546 12.781 20.2116 12.8265 20.2344C12.872 20.2572 12.9402 20.2686 13.0312 20.2686C13.1222 20.2686 13.1904 20.2913 13.2359 20.3369C13.2814 20.3825 13.3041 20.4508 13.3041 20.542C13.2131 20.542 13.1278 20.5249 13.0482 20.4907C12.9686 20.4565 12.9061 20.4167 12.8606 20.3711C12.8151 20.3255 12.7697 20.3027 12.7242 20.3027C12.6787 20.3027 12.6218 20.3255 12.5536 20.3711C12.6673 20.4167 12.7526 20.4736 12.8095 20.542C12.8663 20.6104 12.9402 20.6673 13.0312 20.7129C13.0767 20.7585 13.1222 20.804 13.1676 20.8496C13.2131 20.8952 13.2586 20.918 13.3041 20.918C13.4405 20.9635 13.5372 21.0262 13.5941 21.106C13.6509 21.1857 13.7135 21.2712 13.7817 21.3623C13.8272 21.499 13.8726 21.6585 13.9181 21.8408C13.9636 22.0231 14.0091 22.2054 14.0546 22.3877L13.9522 22.4902C13.9522 22.627 13.9409 22.7751 13.9181 22.9346C13.8954 23.0941 13.9068 23.2422 13.9522 23.3789V23.6865C13.9522 23.7777 13.9466 23.8688 13.9352 23.96C13.9238 24.0511 13.8954 24.1423 13.8499 24.2334C13.8499 24.3701 13.8385 24.4897 13.8158 24.5923C13.793 24.6948 13.8044 24.8145 13.8499 24.9512C13.8499 25.0879 13.8726 25.2246 13.9181 25.3613C13.9636 25.498 14.0091 25.612 14.0546 25.7031C14.1001 25.7943 14.1455 25.8683 14.191 25.9253C14.2365 25.9823 14.282 26.0563 14.3275 26.1475C14.373 26.193 14.4185 26.2557 14.4639 26.3354C14.5094 26.4152 14.5549 26.4779 14.6004 26.5234C14.6914 26.569 14.7539 26.6374 14.788 26.7285C14.8221 26.8197 14.8164 26.9108 14.771 27.002V27.0703C14.8164 27.207 14.9017 27.321 15.0268 27.4121C15.1519 27.5033 15.2827 27.5716 15.4191 27.6172C15.4646 27.6172 15.5214 27.64 15.5897 27.6855C15.6579 27.7311 15.692 27.7767 15.692 27.8223C15.7375 27.8678 15.7659 27.9134 15.7773 27.959C15.7887 28.0046 15.8171 28.0501 15.8626 28.0957C15.9308 28.1413 15.9706 28.2039 15.982 28.2837C15.9933 28.3634 16.0218 28.4261 16.0673 28.4717C16.1127 28.5628 16.1582 28.6654 16.2037 28.7793C16.2492 28.8932 16.2947 29.0072 16.3402 29.1211C16.3856 29.1667 16.4311 29.2236 16.4766 29.292C16.5221 29.3604 16.5676 29.4173 16.6131 29.4629C16.704 29.554 16.7723 29.6509 16.8177 29.7534C16.8632 29.856 16.886 29.9756 16.886 30.1123H16.6131C16.704 30.1579 16.795 30.2205 16.886 30.3003C16.9769 30.38 17.0679 30.4427 17.1589 30.4883C17.2498 30.5794 17.3294 30.6592 17.3977 30.7275C17.4659 30.7959 17.4773 30.8984 17.4318 31.0352V31.1377C17.5227 31.2744 17.6365 31.4111 17.7729 31.5479C17.9094 31.6846 18.0458 31.8213 18.1823 31.958L18.2846 31.8555C18.3301 31.7643 18.3358 31.696 18.3017 31.6504C18.2675 31.6048 18.2277 31.5592 18.1823 31.5137C18.1823 31.5137 18.1595 31.4966 18.114 31.4624C18.0686 31.4282 18.0231 31.4111 17.9776 31.4111L17.9094 31.3086C17.9094 31.263 17.8923 31.2118 17.8582 31.1548C17.8241 31.0978 17.807 31.0238 17.807 30.9326C17.7615 30.7959 17.699 30.6478 17.6194 30.4883C17.5398 30.3288 17.4545 30.1693 17.3635 30.0098C17.3181 29.9186 17.2498 29.8275 17.1589 29.7363C17.0679 29.6452 17.0452 29.5312 17.0906 29.3945C17.0906 29.3945 17.085 29.3774 17.0736 29.3433C17.0622 29.3091 17.0338 29.292 16.9883 29.292C16.8519 29.2464 16.7552 29.1781 16.6983 29.0869C16.6415 28.9958 16.6131 28.9046 16.6131 28.8135C16.6131 28.7223 16.596 28.6483 16.5619 28.5913C16.5278 28.5343 16.5107 28.4603 16.5107 28.3691C16.5562 28.3691 16.6017 28.3862 16.6472 28.4204C16.6927 28.4546 16.7381 28.4717 16.7836 28.4717C16.8291 28.4717 16.8803 28.4888 16.9371 28.5229C16.994 28.5571 17.0452 28.597 17.0906 28.6426C17.1361 28.7793 17.1646 28.9331 17.1759 29.104C17.1873 29.2749 17.2157 29.4287 17.2612 29.5654C17.3067 29.5199 17.3522 29.5142 17.3977 29.5483C17.4431 29.5825 17.4886 29.6224 17.5341 29.668C17.5796 29.7591 17.6535 29.8332 17.7558 29.8901C17.8582 29.9471 17.9094 30.0212 17.9094 30.1123L17.9776 30.2148C18.0231 30.2604 18.0686 30.306 18.114 30.3516C18.1595 30.3971 18.1823 30.4427 18.1823 30.4883C18.1368 30.5794 18.1481 30.6649 18.2164 30.7446C18.2846 30.8244 18.3642 30.887 18.4552 30.9326C18.4552 30.9326 18.4722 30.9383 18.5063 30.9497C18.5404 30.9611 18.5575 30.9896 18.5575 31.0352C18.7849 31.3086 18.9896 31.5706 19.1715 31.8213C19.3535 32.0719 19.5127 32.3682 19.6491 32.71V33.1543C19.7856 33.1543 19.8879 33.1942 19.9561 33.2739C20.0244 33.3537 20.104 33.4391 20.1949 33.5303C20.2404 33.6214 20.3086 33.6955 20.3996 33.7524C20.4906 33.8094 20.5815 33.8607 20.6725 33.9062C20.718 33.9518 20.7635 33.9803 20.809 33.9917C20.8545 34.0031 20.9227 34.0316 21.0136 34.0771C21.0591 34.1227 21.1103 34.1512 21.1672 34.1626C21.224 34.174 21.2979 34.1797 21.3889 34.1797C21.5253 34.1797 21.6447 34.2139 21.7471 34.2822C21.8494 34.3506 21.9461 34.4076 22.037 34.4531C22.128 34.5443 22.2076 34.5955 22.2758 34.6069C22.3441 34.6183 22.4464 34.6012 22.5828 34.5557C22.6283 34.5557 22.6738 34.5443 22.7193 34.5215C22.7648 34.4987 22.8103 34.5101 22.8558 34.5557C22.9467 34.6012 23.0377 34.6468 23.1287 34.6924C23.2196 34.738 23.2878 34.7835 23.3333 34.8291C23.3788 34.8291 23.4072 34.8462 23.4186 34.8804C23.43 34.9146 23.4584 34.9544 23.5039 35C23.5494 34.8633 23.6062 34.755 23.6745 34.6753C23.7427 34.5955 23.8678 34.5785 24.0497 34.624C24.0497 34.624 24.0668 34.6069 24.1009 34.5728C24.135 34.5386 24.152 34.4987 24.152 34.4531C24.152 34.4531 24.1464 34.436 24.135 34.4019C24.1236 34.3677 24.0952 34.3506 24.0497 34.3506C23.9587 34.305 23.9246 34.2424 23.9474 34.1626C23.9701 34.0828 24.0042 34.0202 24.0497 33.9746H24.5273C24.5728 33.9746 24.6012 33.9746 24.6126 33.9746C24.6239 33.9746 24.6524 33.9518 24.6979 33.9062C24.7433 33.8607 24.7945 33.8208 24.8514 33.7866C24.9082 33.7524 24.9821 33.7581 25.0731 33.8037V33.0518C25.0731 33.0062 25.0902 32.9606 25.1243 32.915C25.1584 32.8695 25.1982 32.8239 25.2437 32.7783L25.4483 32.6074C25.4483 32.6074 25.4427 32.5903 25.4313 32.5562C25.4199 32.522 25.3915 32.5049 25.346 32.5049H25.0731C24.9821 32.5049 24.9082 32.5106 24.8514 32.522C24.7945 32.5334 24.7092 32.5618 24.5955 32.6074C24.55 32.653 24.4932 32.6986 24.425 32.7441C24.3567 32.7897 24.2999 32.8353 24.2544 32.8809C24.2999 32.972 24.3169 33.0632 24.3056 33.1543C24.2942 33.2454 24.243 33.3366 24.152 33.4277C24.1066 33.4733 24.0611 33.5189 24.0156 33.5645C23.9701 33.61 23.9246 33.6328 23.8791 33.6328C23.8337 33.6328 23.7939 33.6214 23.7597 33.5986C23.7256 33.5758 23.7086 33.5872 23.7086 33.6328C23.6631 33.6784 23.6006 33.6898 23.521 33.667C23.4414 33.6442 23.3788 33.6556 23.3333 33.7012C23.1969 33.7467 23.0775 33.7695 22.9751 33.7695C22.8728 33.7695 22.7762 33.724 22.6852 33.6328L22.5146 33.4277C22.4464 33.3822 22.4123 33.3366 22.4123 33.291C22.4123 33.2454 22.4123 33.1999 22.4123 33.1543C22.3668 33.0632 22.3043 32.9549 22.2247 32.8296C22.1451 32.7043 22.0825 32.596 22.037 32.5049C21.9916 32.277 21.9688 32.0492 21.9688 31.8213C21.9688 31.5934 21.9916 31.3656 22.037 31.1377V30.3857C22.037 30.2946 22.0598 30.2035 22.1053 30.1123C22.1507 30.0212 22.219 29.93 22.3099 29.8389C22.3554 29.7933 22.4009 29.7306 22.4464 29.6509C22.4919 29.5711 22.5374 29.5085 22.5828 29.4629C22.6738 29.4173 22.7477 29.3717 22.8046 29.3262C22.8614 29.2806 22.9126 29.235 22.9581 29.1895C23.0036 29.1439 23.0547 29.104 23.1116 29.0698C23.1685 29.0356 23.2424 29.0186 23.3333 29.0186C23.4698 29.0186 23.5892 29.047 23.6915 29.104C23.7939 29.161 23.8905 29.2578 23.9815 29.3945C24.027 29.4857 24.1009 29.5312 24.2032 29.5312C24.3056 29.5312 24.3795 29.4857 24.425 29.3945L24.5273 29.4629C24.5273 29.4629 24.5387 29.4629 24.5614 29.4629C24.5841 29.4629 24.5955 29.4401 24.5955 29.3945V29.292C24.55 29.1553 24.55 29.0584 24.5955 29.0015C24.641 28.9445 24.7092 28.916 24.8002 28.916H25.0731C25.0731 28.916 25.0788 28.9331 25.0902 28.9673C25.1015 29.0015 25.13 29.0186 25.1754 29.0186C25.2209 29.0186 25.2664 29.0129 25.3119 29.0015C25.3574 28.9901 25.4029 28.9616 25.4483 28.916C25.5393 28.8704 25.6132 28.8647 25.6701 28.8989C25.7269 28.9331 25.7781 28.973 25.8236 29.0186L25.8918 29.1211C25.8918 29.1667 25.9146 29.1895 25.96 29.1895C26.0055 29.1895 26.051 29.1667 26.0965 29.1211L26.1647 29.0186C26.2557 28.973 26.3125 28.9502 26.3353 28.9502C26.358 28.9502 26.3921 28.973 26.4376 29.0186C26.4831 29.0641 26.5172 29.104 26.54 29.1382C26.5627 29.1724 26.5968 29.1895 26.6423 29.1895C26.6423 29.235 26.6537 29.2806 26.6764 29.3262C26.6992 29.3717 26.7105 29.4173 26.7105 29.4629C26.7105 29.554 26.7162 29.6452 26.7276 29.7363C26.739 29.8275 26.7674 29.8958 26.8129 29.9414C26.8583 30.0781 26.9209 30.1978 27.0005 30.3003C27.0801 30.4028 27.1426 30.5225 27.1881 30.6592C27.1881 30.7048 27.2052 30.7332 27.2393 30.7446C27.2734 30.756 27.3132 30.7617 27.3587 30.7617H27.461V29.8389C27.461 29.7933 27.444 29.7306 27.4098 29.6509C27.3757 29.5711 27.3587 29.5085 27.3587 29.4629C27.3587 29.4173 27.3473 29.3717 27.3246 29.3262C27.3018 29.2806 27.2904 29.235 27.2904 29.1895C27.1995 28.9616 27.1483 28.7394 27.1369 28.5229C27.1256 28.3065 27.2336 28.1071 27.461 27.9248C27.552 27.8109 27.6543 27.7254 27.768 27.6685C27.8817 27.6115 27.9613 27.5374 28.0068 27.4463C28.0068 27.4007 28.0239 27.3722 28.058 27.3608C28.0921 27.3494 28.1092 27.321 28.1092 27.2754C28.1092 27.2298 28.1262 27.1729 28.1603 27.1045C28.1944 27.0361 28.2342 27.002 28.2797 27.002C28.3707 26.9564 28.4446 26.9051 28.5015 26.8481C28.5583 26.7912 28.6095 26.7399 28.655 26.6943C28.7005 26.8083 28.763 26.8311 28.8426 26.7627C28.9222 26.6943 28.9847 26.6146 29.0302 26.5234C28.9847 26.5234 28.9336 26.5063 28.8767 26.4722C28.8199 26.438 28.8369 26.3981 28.9279 26.3525C28.9279 26.3525 28.9222 26.3298 28.9108 26.2842C28.8994 26.2386 28.871 26.193 28.8255 26.1475C28.8255 26.1475 28.8085 26.1361 28.7744 26.1133C28.7403 26.0905 28.7005 26.0791 28.655 26.0791C28.7459 25.988 28.763 25.8968 28.7061 25.8057C28.6493 25.7145 28.5754 25.6462 28.4844 25.6006C28.5754 25.555 28.6265 25.5208 28.6379 25.498C28.6493 25.4753 28.655 25.4183 28.655 25.3271V25.0537C28.655 25.0537 28.6607 25.0366 28.672 25.0024C28.6834 24.9683 28.7118 24.9512 28.7573 24.9512C28.7573 25.1335 28.763 25.2645 28.7744 25.3442C28.7857 25.424 28.8369 25.5094 28.9279 25.6006L29.0302 25.1562C29.0757 25.1562 29.1041 25.1506 29.1155 25.1392C29.1269 25.1278 29.1553 25.0993 29.2008 25.0537C29.2463 25.0081 29.2917 24.9626 29.3372 24.917C29.3827 24.8714 29.4055 24.8258 29.4055 24.7803C29.4509 24.6436 29.5078 24.5467 29.576 24.4897C29.6442 24.4328 29.7693 24.4043 29.9513 24.4043C29.9968 24.4043 30.0365 24.3872 30.0707 24.353C30.1048 24.3188 30.1218 24.3018 30.1218 24.3018V24.2334L29.6784 24.3018C29.7238 24.2106 29.7693 24.1593 29.8148 24.1479C29.8603 24.1366 29.9285 24.1309 30.0195 24.1309C30.065 24.1309 30.1161 24.1138 30.173 24.0796C30.2299 24.0454 30.281 24.0283 30.3265 24.0283L30.4971 24.1309V23.3789C30.4971 23.3333 30.5141 23.2878 30.5482 23.2422C30.5824 23.1966 30.6222 23.151 30.6676 23.1055C30.7586 23.0599 30.8496 23.0257 30.9405 23.0029C31.0315 22.9801 31.0997 22.9232 31.1452 22.832H31.2476C31.3385 22.9232 31.4124 22.946 31.4693 22.9004C31.5262 22.8548 31.6001 22.8092 31.691 22.7637C31.7365 22.7181 31.7877 22.6725 31.8445 22.627C31.9014 22.5814 31.9753 22.5586 32.0663 22.5586C32.1572 22.513 32.2312 22.4674 32.288 22.4219C32.3449 22.3763 32.396 22.3307 32.4415 22.2852L32.5097 22.1826L32.4415 22.3877L32.7144 22.4902L32.6121 22.5586C32.4756 22.5586 32.3619 22.5985 32.271 22.6782C32.18 22.758 32.1118 22.8434 32.0663 22.9346C32.0208 22.9801 31.9981 23.0428 31.9981 23.1226C31.9981 23.2023 32.0435 23.265 32.1345 23.3105C32.18 23.3561 32.2312 23.3618 32.288 23.3276C32.3449 23.2935 32.396 23.2536 32.4415 23.208C32.5325 23.1169 32.6121 23.0314 32.6803 22.9517C32.7485 22.8719 32.8509 22.832 32.9873 22.832L33.0556 22.7637C33.101 22.7181 33.1465 22.6725 33.192 22.627C33.2375 22.5814 33.283 22.5586 33.3285 22.5586C33.4422 22.5586 33.5218 22.5244 33.5673 22.4561C33.6127 22.3877 33.6582 22.3307 33.7037 22.2852C33.7492 22.2852 33.7776 22.2681 33.789 22.2339C33.8004 22.1997 33.806 22.1826 33.806 22.1826C33.806 22.137 33.789 22.0915 33.7549 22.0459C33.7208 22.0003 33.7037 21.932 33.7037 21.8408C33.6582 21.932 33.6014 22.0003 33.5331 22.0459C33.4649 22.0915 33.4308 22.137 33.4308 22.1826C33.4308 22.2282 33.4137 22.2624 33.3796 22.2852C33.3455 22.3079 33.3057 22.3421 33.2602 22.3877C33.1693 22.3877 33.0669 22.3877 32.9532 22.3877C32.8395 22.3877 32.7599 22.3193 32.7144 22.1826L32.4415 21.9092C32.3278 21.818 32.271 21.7269 32.271 21.6357C32.271 21.5446 32.2937 21.4535 32.3392 21.3623L32.1345 21.4648C32.1345 21.4193 32.1516 21.3908 32.1857 21.3794C32.2198 21.368 32.2368 21.3281 32.2368 21.2598V20.9863C32.2368 20.9408 32.2027 20.9009 32.1345 20.8667C32.0663 20.8325 32.0094 20.8154 31.9639 20.8154C31.873 20.861 31.7649 20.9066 31.6399 20.9521C31.5148 20.9977 31.4068 21.0433 31.3158 21.0889C31.2248 21.1344 31.1395 21.2142 31.0599 21.3281C30.9803 21.4421 30.9178 21.5218 30.8723 21.5674C30.6449 21.7952 30.5028 21.9434 30.4459 22.0117C30.3891 22.0801 30.3151 22.137 30.2242 22.1826L30.4971 21.6357L30.6676 21.4648C30.7586 21.3737 30.8268 21.2882 30.8723 21.2085C30.9178 21.1287 31.0088 21.0889 31.1452 21.0889L31.2476 20.9863C31.293 20.8952 31.3442 20.8268 31.4011 20.7812C31.4579 20.7357 31.5546 20.6901 31.691 20.6445C31.9185 20.6445 32.1629 20.6331 32.4245 20.6104C32.686 20.5876 32.9305 20.599 33.1579 20.6445C33.3398 20.6445 33.4877 20.616 33.6014 20.5591C33.7151 20.5021 33.8174 20.4053 33.9084 20.2686C33.9539 20.1774 33.9994 20.1204 34.0448 20.0977C34.0903 20.0749 34.1585 20.0635 34.2495 20.0635C34.295 20.0635 34.3405 20.0635 34.386 20.0635C34.4314 20.0635 34.4883 20.0407 34.5565 19.9951L34.8294 19.7217V19.5166ZM24.3226 1.19629L24.152 1.36719H24.425C24.425 1.36719 24.4193 1.38428 24.4079 1.41846C24.3965 1.45264 24.3681 1.46973 24.3226 1.46973C24.2771 1.56087 24.2601 1.61784 24.2714 1.64062C24.2828 1.66341 24.334 1.69759 24.425 1.74316C24.425 1.74316 24.442 1.74886 24.4761 1.76025C24.5102 1.77165 24.5273 1.80013 24.5273 1.8457C24.6183 1.93685 24.7263 1.99951 24.8514 2.03369C24.9764 2.06787 25.1072 2.03939 25.2437 1.94824C25.2891 1.94824 25.3233 1.93115 25.346 1.89697C25.3687 1.86279 25.4029 1.8457 25.4483 1.8457V2.0166C25.4483 2.0166 25.4483 2.03369 25.4483 2.06787C25.4483 2.10205 25.4711 2.11914 25.5166 2.11914C25.6075 2.11914 25.7042 2.13623 25.8065 2.17041C25.9089 2.20459 26.0283 2.22168 26.1647 2.22168C26.2102 2.22168 26.2443 2.21598 26.2671 2.20459C26.2898 2.1932 26.3239 2.16471 26.3694 2.11914C26.4149 2.07357 26.4604 2.04508 26.5058 2.03369C26.5513 2.0223 26.5968 2.0166 26.6423 2.0166C26.8242 2.06217 27.0289 2.05078 27.2563 1.98242C27.4838 1.91406 27.643 1.81152 27.7339 1.6748C27.7794 1.76595 27.7965 1.8457 27.7851 1.91406C27.7737 1.98242 27.6998 2.0166 27.5634 2.0166C27.4269 2.06217 27.2904 2.09635 27.154 2.11914C27.0175 2.14193 26.9038 2.17611 26.8129 2.22168C26.7674 2.22168 26.739 2.23307 26.7276 2.25586C26.7162 2.27865 26.6878 2.29004 26.6423 2.29004C26.6423 2.33561 26.6537 2.36979 26.6764 2.39258C26.6992 2.41536 26.7105 2.44954 26.7105 2.49512C26.756 2.54069 26.8186 2.58626 26.8981 2.63184C26.9777 2.67741 27.0403 2.72298 27.0858 2.76855C26.9948 2.76855 26.8981 2.75716 26.7958 2.73438C26.6935 2.71159 26.6423 2.65462 26.6423 2.56348C26.5058 2.42676 26.3637 2.33561 26.2159 2.29004C26.0681 2.24447 25.9032 2.22168 25.7212 2.22168C25.6303 2.22168 25.5621 2.23877 25.5166 2.27295C25.4711 2.30713 25.4483 2.34701 25.4483 2.39258C25.4483 2.48372 25.4711 2.56917 25.5166 2.64893C25.5621 2.72868 25.6303 2.76855 25.7212 2.76855C25.7667 2.76855 25.8236 2.78564 25.8918 2.81982C25.96 2.854 25.9942 2.89388 25.9942 2.93945C26.0851 3.07617 26.1818 3.1901 26.2841 3.28125C26.3865 3.3724 26.5058 3.44076 26.6423 3.48633L26.7105 3.58887H26.4376C26.3467 3.58887 26.2727 3.57178 26.2159 3.5376C26.159 3.50342 26.0851 3.46354 25.9942 3.41797C25.8577 3.3724 25.7099 3.3667 25.5507 3.40088C25.3915 3.43506 25.2664 3.49772 25.1754 3.58887C25.13 3.63444 25.1015 3.68001 25.0902 3.72559C25.0788 3.77116 25.0731 3.81673 25.0731 3.8623C25.0731 3.8623 25.1072 3.87939 25.1754 3.91357C25.2437 3.94775 25.3005 3.96484 25.346 3.96484C25.3915 3.96484 25.4427 3.94775 25.4995 3.91357C25.5564 3.87939 25.6303 3.8623 25.7212 3.8623C25.7667 3.8623 25.8065 3.84521 25.8406 3.81104C25.8748 3.77686 25.8918 3.75977 25.8918 3.75977C25.8918 3.82812 25.8804 3.87939 25.8577 3.91357C25.835 3.94775 25.8236 3.96484 25.8236 3.96484C25.7781 4.01042 25.7554 4.05599 25.7554 4.10156C25.7554 4.14714 25.7781 4.19271 25.8236 4.23828C25.8691 4.28385 25.9146 4.31234 25.96 4.32373C26.0055 4.33512 26.051 4.36361 26.0965 4.40918V4.61426C26.0965 4.61426 26.0737 4.62565 26.0283 4.64844C25.9828 4.67122 25.9373 4.65983 25.8918 4.61426C25.8463 4.7054 25.8008 4.73958 25.7554 4.7168C25.7099 4.69401 25.6644 4.65983 25.6189 4.61426C25.5734 4.52311 25.5052 4.45475 25.4142 4.40918C25.3233 4.36361 25.2096 4.34082 25.0731 4.34082C25.0276 4.34082 24.9878 4.34652 24.9537 4.35791C24.9196 4.3693 24.9025 4.42057 24.9025 4.51172C24.9025 4.55729 24.931 4.58577 24.9878 4.59717C25.0447 4.60856 25.0731 4.63704 25.0731 4.68262C25.1186 4.72819 25.147 4.75667 25.1584 4.76807C25.1698 4.77946 25.1982 4.78516 25.2437 4.78516C25.1982 4.78516 25.1584 4.80225 25.1243 4.83643C25.0902 4.87061 25.0731 4.8877 25.0731 4.8877C24.9821 4.93327 24.8912 4.96175 24.8002 4.97314C24.7092 4.98454 24.6183 5.01302 24.5273 5.05859C24.4818 5.05859 24.4534 5.08138 24.442 5.12695C24.4306 5.17253 24.425 5.2181 24.425 5.26367C24.425 5.30924 24.442 5.33203 24.4761 5.33203C24.5102 5.33203 24.55 5.33203 24.5955 5.33203H25.1754C25.2664 5.33203 25.3403 5.33773 25.3972 5.34912C25.454 5.36051 25.5279 5.389 25.6189 5.43457C25.7099 5.48014 25.7895 5.50293 25.8577 5.50293C25.9259 5.50293 26.0055 5.48014 26.0965 5.43457L26.1647 5.33203H27.0175C27.0175 5.33203 27.0289 5.33773 27.0517 5.34912C27.0744 5.36051 27.0858 5.389 27.0858 5.43457C27.1767 5.52572 27.2677 5.57129 27.3587 5.57129C27.4496 5.57129 27.5406 5.52572 27.6316 5.43457C27.6771 5.389 27.7225 5.36051 27.768 5.34912C27.8135 5.33773 27.8704 5.33203 27.9386 5.33203C27.9841 5.33203 28.0239 5.31494 28.058 5.28076C28.0921 5.24658 28.1092 5.20671 28.1092 5.16113C28.1092 5.11556 28.1035 5.06999 28.0921 5.02441C28.0807 4.97884 28.0523 4.93327 28.0068 4.8877C27.9613 4.8877 27.9159 4.90479 27.8704 4.93896C27.8249 4.97314 27.7794 4.99023 27.7339 4.99023H27.6316C27.5861 4.8763 27.5236 4.81364 27.444 4.80225C27.3644 4.79085 27.2791 4.78516 27.1881 4.78516H26.9152C26.8697 4.78516 26.8356 4.76807 26.8129 4.73389C26.7901 4.69971 26.756 4.68262 26.7105 4.68262C26.7105 4.63704 26.7333 4.61426 26.7788 4.61426C26.8242 4.61426 26.8697 4.61426 26.9152 4.61426H27.6316C27.768 4.61426 27.8476 4.59147 27.8704 4.5459C27.8931 4.50033 27.8817 4.43197 27.8363 4.34082C27.8363 4.29525 27.8419 4.24967 27.8533 4.2041C27.8647 4.15853 27.9159 4.13574 28.0068 4.13574H28.3821C28.4276 4.13574 28.4673 4.13574 28.5015 4.13574C28.5356 4.13574 28.5526 4.11296 28.5526 4.06738C28.5981 3.97624 28.6436 3.89648 28.6891 3.82812C28.7346 3.75977 28.7573 3.68001 28.7573 3.58887C28.8028 3.54329 28.8312 3.49202 28.8426 3.43506C28.854 3.37809 28.8824 3.30404 28.9279 3.21289C28.8369 3.12174 28.7118 3.09896 28.5526 3.14453C28.3934 3.1901 28.2456 3.1901 28.1092 3.14453C28.1092 3.14453 28.1262 3.13883 28.1603 3.12744C28.1944 3.11605 28.2115 3.08757 28.2115 3.04199C28.348 2.99642 28.4673 2.95654 28.5697 2.92236C28.672 2.88818 28.7914 2.89388 28.9279 2.93945C29.0643 2.93945 29.1439 2.93376 29.1667 2.92236C29.1894 2.91097 29.2008 2.8597 29.2008 2.76855H29.576C29.758 2.81413 29.8717 2.82552 29.9172 2.80273C29.9626 2.77995 30.0309 2.67741 30.1218 2.49512C30.1673 2.44954 30.2014 2.40397 30.2242 2.3584C30.2469 2.31283 30.3038 2.29004 30.3947 2.29004C30.4857 2.29004 30.5653 2.27295 30.6335 2.23877C30.7018 2.20459 30.7814 2.16471 30.8723 2.11914C31.0543 2.02799 31.2419 1.92546 31.4352 1.81152C31.6285 1.69759 31.8389 1.61784 32.0663 1.57227H32.1345C32.1345 1.57227 32.1516 1.54948 32.1857 1.50391C32.2198 1.45833 32.2368 1.41276 32.2368 1.36719C32.1914 1.36719 32.1629 1.35579 32.1516 1.33301C32.1402 1.31022 32.1118 1.29883 32.0663 1.29883H31.2476C31.3385 1.20768 31.4409 1.15072 31.5546 1.12793C31.6683 1.10514 31.7706 1.09375 31.8616 1.09375C32.089 1.13932 32.288 1.11654 32.4586 1.02539C32.6291 0.934245 32.8054 0.843099 32.9873 0.751953C33.0328 0.751953 33.0612 0.734863 33.0726 0.700684C33.084 0.666504 33.1124 0.649414 33.1579 0.649414V0.546875L33.0556 0.444336H32.885C32.794 0.444336 32.7087 0.438639 32.6291 0.427246C32.5495 0.415853 32.487 0.364583 32.4415 0.273438L32.3392 0.170898C32.2482 0.170898 32.1572 0.159505 32.0663 0.136719C31.9753 0.113932 31.8843 0.102539 31.7934 0.102539C31.7024 0.148112 31.6114 0.176595 31.5205 0.187988C31.4295 0.199382 31.3385 0.227865 31.2476 0.273438C31.2476 0.227865 31.2589 0.199382 31.2817 0.187988C31.3044 0.176595 31.3158 0.148112 31.3158 0.102539C31.3158 0.102539 31.3044 0.0968424 31.2817 0.0854492C31.2589 0.074056 31.2476 0.0455729 31.2476 0H31.1452C31.0543 0 30.9974 0.0170898 30.9747 0.0512695C30.9519 0.0854492 30.9178 0.102539 30.8723 0.102539C30.8723 0.148112 30.8382 0.170898 30.77 0.170898C30.7018 0.170898 30.6676 0.170898 30.6676 0.170898C30.5767 0.170898 30.4857 0.159505 30.3947 0.136719C30.3038 0.113932 30.2128 0.102539 30.1218 0.102539C30.0309 0.148112 29.9399 0.170898 29.8489 0.170898C29.758 0.170898 29.667 0.170898 29.576 0.170898H28.9279C28.8824 0.170898 28.8369 0.170898 28.7914 0.170898C28.7459 0.170898 28.7005 0.148112 28.655 0.102539C28.6095 0.0569661 28.5697 0.0341797 28.5356 0.0341797C28.5015 0.0341797 28.4844 0.0569661 28.4844 0.102539C28.4389 0.193685 28.3764 0.227865 28.2968 0.205078C28.2172 0.182292 28.1546 0.148112 28.1092 0.102539C27.9727 0.0569661 27.8533 0.0341797 27.751 0.0341797C27.6486 0.0341797 27.552 0.0569661 27.461 0.102539C27.5065 0.193685 27.5122 0.244954 27.4781 0.256348C27.444 0.267741 27.3814 0.273438 27.2904 0.273438C27.1995 0.273438 27.1426 0.279134 27.1199 0.290527C27.0971 0.301921 27.0858 0.35319 27.0858 0.444336V0.546875H26.6423C26.5968 0.683594 26.54 0.763346 26.4717 0.786133C26.4035 0.808919 26.3012 0.797526 26.1647 0.751953H26.0965C26.051 0.70638 25.9828 0.677897 25.8918 0.666504C25.8008 0.655111 25.7099 0.649414 25.6189 0.649414V0.820312L25.346 0.922852C25.346 0.968424 25.3403 1.0083 25.3289 1.04248C25.3176 1.07666 25.2891 1.09375 25.2437 1.09375C25.1982 1.13932 25.1527 1.15072 25.1072 1.12793C25.0617 1.10514 25.0162 1.09375 24.9708 1.09375C24.9253 1.04818 24.8684 1.014 24.8002 0.991211C24.732 0.968424 24.6637 0.979818 24.5955 1.02539L24.3226 1.29883C24.1862 1.25326 24.0497 1.23617 23.9133 1.24756C23.7768 1.25895 23.7086 1.33301 23.7086 1.46973C23.936 1.28743 24.0724 1.1849 24.1179 1.16211C24.1634 1.13932 24.2316 1.15072 24.3226 1.19629ZM31.5887 12.168C31.6797 12.2135 31.7706 12.2591 31.8616 12.3047C31.9526 12.3503 32.0208 12.4186 32.0663 12.5098C32.1118 12.5781 32.1402 12.6351 32.1516 12.6807C32.1629 12.7262 32.1914 12.7718 32.2368 12.8174C32.2368 12.8174 32.2539 12.8288 32.288 12.8516C32.3221 12.8743 32.3392 12.863 32.3392 12.8174C32.3847 12.7718 32.4301 12.7376 32.4756 12.7148C32.5211 12.6921 32.5666 12.6579 32.6121 12.6123C32.6121 12.5667 32.6348 12.5212 32.6803 12.4756C32.7258 12.43 32.794 12.3844 32.885 12.3389C32.9305 12.2933 32.9816 12.2477 33.0385 12.2021C33.0954 12.1566 33.101 12.111 33.0556 12.0654C33.0556 12.0199 33.0442 11.9572 33.0214 11.8774C32.9987 11.7977 32.9191 11.735 32.7827 11.6895C32.7372 11.6895 32.7144 11.6724 32.7144 11.6382C32.7144 11.604 32.7144 11.5641 32.7144 11.5186C32.7144 11.4274 32.6689 11.342 32.578 11.2622C32.487 11.1825 32.3733 11.1426 32.2368 11.1426C32.1459 11.1426 32.0549 11.1255 31.9639 11.0913C31.873 11.0571 31.782 11.0173 31.691 10.9717C31.6455 10.9717 31.6171 10.966 31.6058 10.9546C31.5944 10.9432 31.566 10.9147 31.5205 10.8691C31.475 10.8236 31.4124 10.7951 31.3328 10.7837C31.2532 10.7723 31.1907 10.7438 31.1452 10.6982C31.0997 10.6527 31.0713 10.6071 31.0599 10.5615C31.0486 10.516 31.0429 10.4704 31.0429 10.4248H31.3158C31.3613 10.4248 31.3954 10.4077 31.4181 10.3735C31.4409 10.3394 31.475 10.3223 31.5205 10.3223L31.4181 10.2197H31.2476C31.2476 10.2197 31.2305 10.214 31.1964 10.2026C31.1623 10.1912 31.1452 10.1628 31.1452 10.1172C31.1452 10.1172 31.1452 10.1058 31.1452 10.083C31.1452 10.0602 31.1793 10.0488 31.2476 10.0488C31.3385 10.0033 31.384 9.95768 31.384 9.91211C31.384 9.86654 31.3613 9.82096 31.3158 9.77539C31.2703 9.72982 31.2248 9.69564 31.1793 9.67285C31.1339 9.65007 31.0884 9.68424 31.0429 9.77539H30.9405C30.9405 9.72982 30.9462 9.68424 30.9576 9.63867C30.969 9.5931 30.9974 9.57031 31.0429 9.57031C31.0884 9.47917 31.0941 9.4222 31.0599 9.39941C31.0258 9.37663 30.9633 9.34245 30.8723 9.29688H30.5994C30.5539 9.29688 30.5084 9.29118 30.463 9.27979C30.4175 9.26839 30.3947 9.23991 30.3947 9.19434V9.12598C30.3038 9.0804 30.2242 9.10889 30.1559 9.21143C30.0877 9.31396 29.9854 9.30827 29.8489 9.19434C29.8944 9.14876 29.9399 9.12028 29.9854 9.10889C30.0309 9.09749 30.0763 9.06901 30.1218 9.02344C30.1673 8.97786 30.1957 8.93799 30.2071 8.90381C30.2185 8.86963 30.2242 8.85254 30.2242 8.85254L30.0195 8.75C29.974 8.75 29.9285 8.76709 29.883 8.80127C29.8376 8.83545 29.7693 8.85254 29.6784 8.85254V8.9209C29.6329 8.87533 29.5874 8.82975 29.5419 8.78418C29.4964 8.73861 29.4737 8.69303 29.4737 8.64746C29.4737 8.60189 29.4566 8.56201 29.4225 8.52783C29.3884 8.49365 29.3486 8.47656 29.3031 8.47656C29.2576 8.47656 29.2178 8.45947 29.1837 8.42529C29.1496 8.39111 29.1326 8.35124 29.1326 8.30566C29.1326 8.26009 29.1098 8.21452 29.0643 8.16895C29.0188 8.12337 28.9734 8.10059 28.9279 8.10059C28.8824 8.10059 28.8199 8.0835 28.7403 8.04932C28.6607 8.01514 28.5754 7.99805 28.4844 7.99805H28.3821C28.2911 8.04362 28.2229 8.09489 28.1774 8.15186C28.1319 8.20882 28.1092 8.28288 28.1092 8.37402H28.0068L27.6316 8.20312L27.1881 8.47656V8.30566C27.2336 8.14616 27.2393 7.99805 27.2052 7.86133C27.1711 7.72461 27.1085 7.58789 27.0175 7.45117C26.9721 7.4056 26.9038 7.37142 26.8129 7.34863C26.7219 7.32585 26.6309 7.33724 26.54 7.38281C26.449 7.42839 26.3751 7.46826 26.3182 7.50244C26.2614 7.53662 26.1875 7.55371 26.0965 7.55371C25.8691 7.64486 25.7383 7.7417 25.7042 7.84424C25.6701 7.94678 25.7099 8.10059 25.8236 8.30566V8.47656C25.7099 8.56771 25.6587 8.62467 25.6701 8.64746C25.6814 8.67025 25.7554 8.70443 25.8918 8.75C25.9373 8.79557 25.9771 8.82406 26.0112 8.83545C26.0453 8.84684 26.0396 8.87533 25.9942 8.9209C25.8577 8.9209 25.744 8.88672 25.653 8.81836C25.5621 8.75 25.4938 8.67025 25.4483 8.5791C25.4483 8.48796 25.4313 8.4082 25.3972 8.33984C25.3631 8.27148 25.346 8.19173 25.346 8.10059V7.92969C25.3915 7.83854 25.454 7.75879 25.5336 7.69043C25.6132 7.62207 25.6758 7.54232 25.7212 7.45117L25.8236 7.38281C25.8236 7.38281 25.8008 7.36572 25.7554 7.33154C25.7099 7.29736 25.6644 7.28027 25.6189 7.28027C25.5279 7.28027 25.4427 7.29736 25.3631 7.33154C25.2835 7.36572 25.2209 7.38281 25.1754 7.38281C24.7433 7.47396 24.4704 7.68473 24.3567 8.01514C24.243 8.34554 24.2316 8.62467 24.3226 8.85254C24.3226 8.89811 24.3454 8.93799 24.3908 8.97217C24.4363 9.00635 24.4818 9.02344 24.5273 9.02344C24.6183 9.02344 24.6922 9.02913 24.749 9.04053C24.8059 9.05192 24.8571 9.0804 24.9025 9.12598C24.948 9.12598 24.9764 9.13737 24.9878 9.16016C24.9992 9.18294 25.0276 9.19434 25.0731 9.19434C25.0276 9.19434 24.9878 9.21143 24.9537 9.24561C24.9196 9.27979 24.9025 9.29688 24.9025 9.29688C24.8571 9.29688 24.8116 9.29118 24.7661 9.27979C24.7206 9.26839 24.6637 9.23991 24.5955 9.19434C24.55 9.19434 24.5273 9.20003 24.5273 9.21143C24.5273 9.22282 24.5273 9.2513 24.5273 9.29688V9.39941C24.6183 9.49056 24.7149 9.55892 24.8173 9.60449C24.9196 9.65007 25.039 9.67285 25.1754 9.67285C25.2209 9.67285 25.2607 9.67855 25.2948 9.68994C25.3289 9.70133 25.346 9.72982 25.346 9.77539C25.3915 9.86654 25.4427 9.91781 25.4995 9.9292C25.5564 9.94059 25.6303 9.94629 25.7212 9.94629C25.9032 9.94629 26.0681 9.95199 26.2159 9.96338C26.3637 9.97477 26.5058 10.026 26.6423 10.1172H26.8129C26.9038 10.0716 26.9948 10.0317 27.0858 9.99756C27.1767 9.96338 27.2677 9.94629 27.3587 9.94629C27.4042 9.94629 27.4496 9.95199 27.4951 9.96338C27.5406 9.97477 27.5861 10.0033 27.6316 10.0488C27.6316 10.0488 27.6486 10.0488 27.6827 10.0488C27.7169 10.0488 27.7339 10.0716 27.7339 10.1172L27.6316 9.57031L27.7339 9.50195C27.7794 9.54753 27.8419 9.57601 27.9215 9.5874C28.0011 9.5988 28.0637 9.62728 28.1092 9.67285C28.2001 9.764 28.2968 9.85514 28.3991 9.94629C28.5015 10.0374 28.6209 10.1286 28.7573 10.2197C28.8028 10.2653 28.8255 10.3109 28.8255 10.3564C28.8255 10.402 28.8028 10.4248 28.7573 10.4248C28.7118 10.4248 28.6663 10.4362 28.6209 10.459C28.5754 10.4818 28.5526 10.4932 28.5526 10.4932L28.655 10.5957C28.7005 10.5957 28.7403 10.5786 28.7744 10.5444C28.8085 10.5103 28.8255 10.4932 28.8255 10.4932C28.9847 10.4476 29.0757 10.4305 29.0984 10.4419C29.1212 10.4533 29.1553 10.5046 29.2008 10.5957C29.2008 10.6413 29.2235 10.6812 29.269 10.7153C29.3145 10.7495 29.36 10.7438 29.4055 10.6982C29.4509 10.6982 29.4794 10.6982 29.4907 10.6982C29.5021 10.6982 29.5305 10.721 29.576 10.7666C29.7125 10.9033 29.8034 11.0286 29.8489 11.1426C29.8944 11.2565 29.8944 11.416 29.8489 11.6211C29.8489 11.6667 29.866 11.7065 29.9001 11.7407C29.9342 11.7749 29.974 11.792 30.0195 11.792C30.0877 11.792 30.1275 11.7749 30.1389 11.7407C30.1503 11.7065 30.1787 11.6895 30.2242 11.6895C30.3151 11.6439 30.4289 11.6553 30.5653 11.7236C30.7018 11.792 30.77 11.8717 30.77 11.9629C30.77 11.9629 30.7643 11.98 30.7529 12.0142C30.7416 12.0483 30.7131 12.0654 30.6676 12.0654C30.6222 12.111 30.5653 12.1395 30.4971 12.1509C30.4289 12.1623 30.372 12.1908 30.3265 12.2363C30.281 12.1452 30.2299 12.0654 30.173 11.9971C30.1161 11.9287 30.0422 11.8945 29.9513 11.8945C29.8603 11.849 29.758 11.8262 29.6442 11.8262C29.5305 11.8262 29.4509 11.8717 29.4055 11.9629C29.3145 12.054 29.2804 12.1338 29.3031 12.2021C29.3259 12.2705 29.36 12.3503 29.4055 12.4414V12.6123C29.36 12.6579 29.2747 12.6978 29.1496 12.7319C29.0245 12.7661 28.9165 12.7604 28.8255 12.7148C28.7346 12.7148 28.6436 12.6978 28.5526 12.6636C28.4617 12.6294 28.3707 12.6807 28.2797 12.8174H28.2115C28.1205 12.863 28.0637 12.9085 28.0409 12.9541C28.0182 12.9997 28.0068 13.068 28.0068 13.1592C28.0068 13.2503 28.0409 13.3073 28.1092 13.3301C28.1774 13.3529 28.2342 13.3643 28.2797 13.3643H28.8255C28.871 13.3643 28.9165 13.3586 28.962 13.3472C29.0075 13.3358 29.0302 13.3073 29.0302 13.2617L29.1326 13.1592C29.2235 13.1592 29.3088 13.182 29.3884 13.2275C29.468 13.2731 29.5305 13.3187 29.576 13.3643C29.576 13.4098 29.5931 13.4497 29.6272 13.4839C29.6613 13.5181 29.7011 13.5352 29.7466 13.5352C29.8376 13.5352 29.8944 13.5693 29.9172 13.6377C29.9399 13.7061 29.9513 13.763 29.9513 13.8086C29.9513 13.8997 29.974 13.9681 30.0195 14.0137C30.065 14.0592 30.1332 14.082 30.2242 14.082C30.2697 14.082 30.3095 14.0877 30.3436 14.0991C30.3777 14.1105 30.3947 14.139 30.3947 14.1846C30.5312 14.2301 30.6847 14.2814 30.8553 14.3384C31.0258 14.3953 31.1793 14.4694 31.3158 14.5605C31.3613 14.5605 31.4124 14.5776 31.4693 14.6118C31.5262 14.646 31.6001 14.6859 31.691 14.7314C31.691 14.6403 31.6512 14.5492 31.5716 14.458C31.492 14.3669 31.4068 14.2757 31.3158 14.1846C31.2248 14.0934 31.1339 14.0194 31.0429 13.9624C30.9519 13.9054 30.8609 13.8314 30.77 13.7402C30.9064 13.7402 31.0258 13.763 31.1282 13.8086C31.2305 13.8542 31.3272 13.9225 31.4181 14.0137C31.5091 14.0592 31.6001 14.0991 31.691 14.1333C31.782 14.1675 31.873 14.1846 31.9639 14.1846C32.0549 14.1846 32.1231 14.1504 32.1686 14.082C32.2141 14.0137 32.2368 13.9567 32.2368 13.9111C32.2368 13.8656 32.2198 13.8257 32.1857 13.7915C32.1516 13.7573 32.1118 13.7402 32.0663 13.7402C31.9753 13.6719 31.9185 13.6149 31.8957 13.5693C31.873 13.5238 31.8616 13.4554 31.8616 13.3643C31.8616 13.2731 31.8389 13.2048 31.7934 13.1592C31.7479 13.1136 31.6797 13.0908 31.5887 13.0908C31.4977 13.0452 31.4124 12.994 31.3328 12.937C31.2532 12.88 31.1907 12.806 31.1452 12.7148V12.6123C31.1907 12.5667 31.2191 12.5269 31.2305 12.4927C31.2419 12.4585 31.2476 12.4414 31.2476 12.4414C31.2476 12.3958 31.2589 12.3503 31.2817 12.3047C31.3044 12.2591 31.3158 12.2363 31.3158 12.2363C31.4068 12.1452 31.4636 12.0996 31.4864 12.0996C31.5091 12.0996 31.5432 12.1224 31.5887 12.168ZM20.8431 10.0488H21.0136C20.9682 10.0033 20.9397 9.95768 20.9284 9.91211C20.917 9.86654 20.8886 9.82096 20.8431 9.77539C20.7521 9.68424 20.6441 9.61019 20.519 9.55322C20.3939 9.49626 20.2859 9.44499 20.1949 9.39941C20.0585 9.35384 19.9618 9.28548 19.905 9.19434C19.8481 9.10319 19.8197 8.98926 19.8197 8.85254C19.8197 8.80697 19.8197 8.77279 19.8197 8.75C19.8197 8.72721 19.7969 8.69303 19.7515 8.64746C19.7515 8.60189 19.7344 8.5734 19.7003 8.56201C19.6662 8.55062 19.6491 8.52214 19.6491 8.47656C19.6036 8.33984 19.5866 8.20312 19.598 8.06641C19.6093 7.92969 19.6605 7.81576 19.7515 7.72461C19.8424 7.63346 19.8709 7.5651 19.8367 7.51953C19.8026 7.47396 19.7401 7.42839 19.6491 7.38281C19.5582 7.33724 19.4672 7.33154 19.3762 7.36572C19.2853 7.3999 19.1943 7.46257 19.1033 7.55371L19.4786 7.92969H19.3762C19.3307 7.83854 19.2625 7.78158 19.1715 7.75879C19.0806 7.736 18.9896 7.72461 18.8986 7.72461C18.8077 7.72461 18.7394 7.736 18.694 7.75879C18.6485 7.78158 18.6257 7.83854 18.6257 7.92969C18.6712 8.02083 18.7053 8.12907 18.7281 8.25439C18.7508 8.37972 18.7849 8.48796 18.8304 8.5791C18.8304 8.62467 18.8247 8.65316 18.8134 8.66455C18.802 8.67594 18.7736 8.70443 18.7281 8.75C18.6826 8.75 18.6428 8.7443 18.6087 8.73291C18.5746 8.72152 18.5575 8.69303 18.5575 8.64746C18.5575 8.60189 18.5404 8.54492 18.5063 8.47656C18.4722 8.4082 18.4552 8.35124 18.4552 8.30566C18.4552 8.26009 18.3813 8.17464 18.2334 8.04932C18.0856 7.92399 17.9435 7.88411 17.807 7.92969C17.8525 7.97526 17.8923 8.00374 17.9264 8.01514C17.9605 8.02653 17.9776 8.05501 17.9776 8.10059V8.20312H17.5341C17.5341 8.06641 17.4943 7.96956 17.4147 7.9126C17.3351 7.85563 17.2271 7.82715 17.0906 7.82715C17.0452 7.82715 16.9997 7.84424 16.9542 7.87842C16.9087 7.9126 16.886 7.95247 16.886 7.99805C16.886 8.08919 16.8575 8.15186 16.8007 8.18604C16.7438 8.22021 16.6472 8.19173 16.5107 8.10059H16.6131C16.704 8.05501 16.7552 8.00374 16.7666 7.94678C16.7779 7.88981 16.7609 7.81576 16.7154 7.72461C16.6699 7.63346 16.6187 7.59928 16.5619 7.62207C16.505 7.64486 16.4311 7.65625 16.3402 7.65625C16.2492 7.65625 16.1241 7.69043 15.9649 7.75879C15.8057 7.82715 15.6806 7.9069 15.5897 7.99805C15.5442 8.04362 15.4873 8.08919 15.4191 8.13477C15.3509 8.18034 15.3168 8.20312 15.3168 8.20312C15.3168 8.29427 15.2997 8.35693 15.2656 8.39111C15.2315 8.42529 15.1917 8.48796 15.1462 8.5791C15.1007 8.62467 15.095 8.67025 15.1291 8.71582C15.1633 8.76139 15.2031 8.80697 15.2485 8.85254C15.294 8.85254 15.3281 8.86963 15.3509 8.90381C15.3736 8.93799 15.4305 8.97786 15.5214 9.02344L16.1696 8.9209V9.02344C16.1696 9.02344 16.1525 9.02913 16.1184 9.04053C16.0843 9.05192 16.0673 9.0804 16.0673 9.12598C15.9763 9.17155 15.8853 9.20003 15.7943 9.21143C15.7034 9.22282 15.6124 9.2513 15.5214 9.29688C15.4305 9.34245 15.3793 9.38802 15.3679 9.43359C15.3566 9.47917 15.3736 9.50195 15.4191 9.50195C15.5556 9.54753 15.6806 9.5874 15.7943 9.62158C15.9081 9.65576 16.0331 9.67285 16.1696 9.67285C16.2606 9.67285 16.3515 9.66146 16.4425 9.63867C16.5335 9.61589 16.6472 9.62728 16.7836 9.67285C16.8746 9.67285 16.9656 9.68994 17.0565 9.72412C17.1475 9.7583 17.2157 9.79818 17.2612 9.84375V9.94629C17.2157 9.94629 17.1702 9.96338 17.1248 9.99756C17.0793 10.0317 17.0338 10.0488 16.9883 10.0488H16.5107C16.3743 10.0488 16.2378 10.0602 16.1014 10.083C15.9649 10.1058 15.8285 10.1172 15.692 10.1172C15.601 10.1172 15.5499 10.1514 15.5385 10.2197C15.5271 10.2881 15.5442 10.3564 15.5897 10.4248C15.7261 10.516 15.8683 10.5843 16.0161 10.6299C16.1639 10.6755 16.306 10.6982 16.4425 10.6982C16.488 10.6982 16.5278 10.7039 16.5619 10.7153C16.596 10.7267 16.6131 10.778 16.6131 10.8691C16.6131 10.9147 16.6187 10.9717 16.6301 11.04C16.6415 11.1084 16.6927 11.1426 16.7836 11.1426C16.9883 11.1882 17.1816 11.2052 17.3635 11.1938C17.5455 11.1825 17.7274 11.1312 17.9094 11.04C17.9548 10.9945 18.0003 10.9717 18.0458 10.9717C18.0913 10.9717 18.1368 10.9717 18.1823 10.9717C18.3187 10.9717 18.4211 10.9603 18.4893 10.9375C18.5575 10.9147 18.6371 10.835 18.7281 10.6982C18.7736 10.6527 18.802 10.6299 18.8134 10.6299C18.8247 10.6299 18.8532 10.6527 18.8986 10.6982C18.9441 10.7438 18.9896 10.7666 19.0351 10.7666C19.0806 10.7666 19.1033 10.7666 19.1033 10.7666C19.1033 10.7666 19.1204 10.7723 19.1545 10.7837C19.1886 10.7951 19.2284 10.8236 19.2739 10.8691C19.4103 10.9603 19.5638 11.0002 19.7344 10.9888C19.905 10.9774 20.0585 10.9717 20.1949 10.9717C20.2859 10.9717 20.3371 10.9375 20.3484 10.8691C20.3598 10.8008 20.3428 10.7438 20.2973 10.6982C20.2518 10.6527 20.2177 10.6242 20.1949 10.6128C20.1722 10.6014 20.1381 10.5957 20.0926 10.5957L20.0244 10.6982C19.9789 10.6982 19.9448 10.6982 19.922 10.6982C19.8993 10.6982 19.8652 10.721 19.8197 10.7666L19.7515 10.6982L20.2973 10.1172C20.3882 10.0716 20.4678 10.026 20.5361 9.98047C20.6043 9.9349 20.7066 9.95768 20.8431 10.0488ZM22.5828 3.04199C22.6283 3.13314 22.6852 3.18441 22.7534 3.1958C22.8216 3.20719 22.924 3.21289 23.0604 3.21289C23.1514 3.21289 23.2253 3.2015 23.2822 3.17871C23.339 3.15592 23.4129 3.14453 23.5039 3.14453C23.5494 3.14453 23.5835 3.15592 23.6062 3.17871C23.629 3.2015 23.6631 3.21289 23.7086 3.21289L23.6062 3.31543C23.5608 3.361 23.4925 3.38949 23.4016 3.40088C23.3106 3.41227 23.2196 3.44076 23.1287 3.48633L23.231 3.58887C23.2765 3.63444 23.339 3.68001 23.4186 3.72559C23.4982 3.77116 23.5608 3.81673 23.6062 3.8623C23.6517 3.95345 23.7143 4.01042 23.7939 4.0332C23.8735 4.05599 23.936 4.09017 23.9815 4.13574C24.027 4.18132 24.0838 4.2041 24.152 4.2041C24.2203 4.2041 24.2771 4.18132 24.3226 4.13574C24.3681 4.09017 24.4306 4.06738 24.5102 4.06738C24.5898 4.06738 24.6524 4.09017 24.6979 4.13574C24.7888 4.18132 24.8457 4.19271 24.8684 4.16992C24.8912 4.14714 24.9253 4.11296 24.9708 4.06738C24.9708 4.02181 24.9764 3.98763 24.9878 3.96484C24.9992 3.94206 25.0276 3.90788 25.0731 3.8623L25.1754 3.75977C25.2209 3.75977 25.2494 3.74837 25.2607 3.72559C25.2721 3.7028 25.3005 3.69141 25.346 3.69141C25.3915 3.64583 25.4199 3.60026 25.4313 3.55469C25.4427 3.50911 25.4711 3.48633 25.5166 3.48633C25.5621 3.44076 25.6246 3.41797 25.7042 3.41797C25.7838 3.41797 25.8463 3.41797 25.8918 3.41797C25.9373 3.41797 25.9714 3.40088 25.9942 3.3667C26.0169 3.33252 26.051 3.31543 26.0965 3.31543C26.051 3.31543 26.0169 3.29834 25.9942 3.26416C25.9714 3.22998 25.9373 3.21289 25.8918 3.21289H25.6189C25.5279 3.21289 25.4768 3.1958 25.4654 3.16162C25.454 3.12744 25.4483 3.08757 25.4483 3.04199C25.4483 2.99642 25.4427 2.96794 25.4313 2.95654C25.4199 2.94515 25.3915 2.91667 25.346 2.87109C25.3005 2.82552 25.2721 2.79134 25.2607 2.76855C25.2494 2.74577 25.2437 2.71159 25.2437 2.66602L25.1754 2.56348C25.13 2.56348 25.1015 2.58057 25.0902 2.61475C25.0788 2.64893 25.0731 2.66602 25.0731 2.66602V2.76855L24.9025 2.56348C24.8571 2.47233 24.8059 2.41536 24.749 2.39258C24.6922 2.36979 24.6183 2.33561 24.5273 2.29004C24.4363 2.24447 24.3454 2.1875 24.2544 2.11914C24.1634 2.05078 24.0724 1.99382 23.9815 1.94824C23.936 1.90267 23.8905 1.87419 23.845 1.86279C23.7995 1.8514 23.7541 1.8457 23.7086 1.8457C23.6631 1.89128 23.5949 1.91976 23.5039 1.93115C23.4129 1.94255 23.322 1.94824 23.231 1.94824C23.231 1.94824 23.2139 1.95964 23.1798 1.98242C23.1457 2.00521 23.1059 2.0166 23.0604 2.0166L23.3333 2.11914C23.2878 2.16471 23.2424 2.1932 23.1969 2.20459C23.1514 2.21598 23.1059 2.22168 23.0604 2.22168C23.0149 2.22168 22.9695 2.22168 22.924 2.22168C22.8785 2.22168 22.8558 2.24447 22.8558 2.29004C22.8558 2.33561 22.8728 2.38118 22.9069 2.42676C22.941 2.47233 22.9581 2.5179 22.9581 2.56348C23.0036 2.60905 23.0491 2.63753 23.0945 2.64893C23.14 2.66032 23.1855 2.66602 23.231 2.66602C23.1855 2.71159 23.1457 2.74007 23.1116 2.75146C23.0775 2.76286 22.9922 2.76855 22.8558 2.76855H22.6852C22.6852 2.81413 22.6909 2.84261 22.7022 2.854C22.7136 2.8654 22.742 2.89388 22.7875 2.93945C22.6056 2.89388 22.5146 2.88818 22.5146 2.92236C22.5146 2.95654 22.5374 2.99642 22.5828 3.04199ZM13.9522 9.02344C13.9522 9.06901 13.9693 9.10889 14.0034 9.14307C14.0375 9.17725 14.0546 9.19434 14.0546 9.19434L14.6004 8.9209C14.7368 8.87533 14.8164 8.84115 14.8392 8.81836C14.8619 8.79557 14.8733 8.73861 14.8733 8.64746C14.8733 8.55632 14.896 8.48796 14.9415 8.44238C14.987 8.39681 15.0552 8.35124 15.1462 8.30566C15.1917 8.30566 15.2201 8.28288 15.2315 8.2373C15.2429 8.19173 15.2485 8.14616 15.2485 8.10059C15.2485 8.05501 15.2713 8.00944 15.3168 7.96387C15.3622 7.91829 15.4305 7.87272 15.5214 7.82715C15.6579 7.78158 15.7943 7.71891 15.9308 7.63916C16.0673 7.55941 16.2037 7.49674 16.3402 7.45117C16.3856 7.4056 16.4084 7.37712 16.4084 7.36572C16.4084 7.35433 16.3856 7.32585 16.3402 7.28027L16.0673 7.00684C15.9763 6.91569 15.8626 6.85303 15.7261 6.81885C15.5897 6.78467 15.4532 6.81315 15.3168 6.9043C15.2713 6.9043 15.2429 6.88721 15.2315 6.85303C15.2201 6.81885 15.1917 6.80176 15.1462 6.80176C15.1007 6.80176 15.0439 6.80176 14.9756 6.80176C14.9074 6.80176 14.8733 6.77897 14.8733 6.7334C14.7368 6.64225 14.6118 6.59098 14.4981 6.57959C14.3843 6.5682 14.2593 6.58529 14.1228 6.63086C14.1228 6.72201 14.1001 6.79606 14.0546 6.85303C14.0091 6.90999 13.9409 6.96126 13.8499 7.00684V7.0752C13.8499 7.14355 13.8385 7.20052 13.8158 7.24609C13.793 7.29167 13.7817 7.33724 13.7817 7.38281C13.7135 7.42839 13.6737 7.47396 13.6623 7.51953C13.6509 7.5651 13.6225 7.61068 13.577 7.65625V7.82715C13.5315 7.87272 13.5031 7.91829 13.4917 7.96387C13.4803 8.00944 13.4519 8.05501 13.4064 8.10059C13.3155 8.2373 13.287 8.31706 13.3212 8.33984C13.3553 8.36263 13.4405 8.37402 13.577 8.37402C13.668 8.51074 13.7419 8.63037 13.7987 8.73291C13.8556 8.83545 13.9068 8.93229 13.9522 9.02344ZM23.7086 6.45996C23.7086 6.50553 23.7256 6.54541 23.7597 6.57959C23.7939 6.61377 23.8337 6.63086 23.8791 6.63086C23.9246 6.63086 23.9531 6.63656 23.9644 6.64795C23.9758 6.65934 24.0042 6.68783 24.0497 6.7334C24.1407 6.82454 24.243 6.87012 24.3567 6.87012C24.4704 6.87012 24.55 6.82454 24.5955 6.7334L24.6979 6.63086C24.7433 6.72201 24.8116 6.77897 24.9025 6.80176C24.9935 6.82454 25.0845 6.85872 25.1754 6.9043H25.7212C25.8577 6.9043 25.9885 6.8986 26.1135 6.88721C26.2386 6.87581 26.3467 6.82454 26.4376 6.7334H26.54C26.6309 6.7334 26.7219 6.74479 26.8129 6.76758C26.9038 6.79036 26.9721 6.80176 27.0175 6.80176C27.063 6.80176 27.0915 6.78467 27.1028 6.75049C27.1142 6.71631 27.1426 6.67643 27.1881 6.63086C27.2336 6.63086 27.262 6.61377 27.2734 6.57959C27.2848 6.54541 27.3132 6.52832 27.3587 6.52832C27.3587 6.52832 27.3757 6.52832 27.4098 6.52832C27.444 6.52832 27.461 6.50553 27.461 6.45996C27.5065 6.41439 27.5349 6.36312 27.5463 6.30615C27.5577 6.24919 27.5861 6.17513 27.6316 6.08398C27.4951 6.03841 27.3587 6.00423 27.2222 5.98145C27.0858 5.95866 26.9152 5.92448 26.7105 5.87891C26.5741 5.87891 26.4433 5.8846 26.3182 5.896C26.1931 5.90739 26.0851 5.93587 25.9942 5.98145C25.9032 6.02702 25.8122 6.0555 25.7212 6.06689C25.6303 6.07829 25.5393 6.08398 25.4483 6.08398H24.9708C24.8798 6.03841 24.8059 5.99284 24.749 5.94727C24.6922 5.90169 24.6183 5.85612 24.5273 5.81055C24.5273 5.76497 24.5387 5.73079 24.5614 5.70801C24.5841 5.68522 24.5955 5.65104 24.5955 5.60547C24.7092 5.5599 24.7604 5.51432 24.749 5.46875C24.7377 5.42318 24.6637 5.3776 24.5273 5.33203C24.4363 5.28646 24.3454 5.25228 24.2544 5.22949C24.1634 5.20671 24.0724 5.2181 23.9815 5.26367C23.845 5.26367 23.7086 5.24089 23.5721 5.19531C23.4357 5.14974 23.322 5.10417 23.231 5.05859C23.14 5.01302 23.032 4.99023 22.9069 4.99023C22.7818 4.99023 22.6738 4.99023 22.5828 4.99023C22.4919 4.99023 22.4407 5.01302 22.4293 5.05859C22.418 5.10417 22.4464 5.17253 22.5146 5.26367C22.5601 5.30924 22.6226 5.35482 22.7022 5.40039C22.7818 5.44596 22.8671 5.49154 22.9581 5.53711C23.0491 5.58268 23.14 5.60547 23.231 5.60547C23.322 5.60547 23.4129 5.58268 23.5039 5.53711C23.5949 5.62826 23.6858 5.7251 23.7768 5.82764C23.8678 5.93018 23.8678 6.07259 23.7768 6.25488C23.6858 6.25488 23.6517 6.27767 23.6745 6.32324C23.6972 6.36882 23.7086 6.41439 23.7086 6.45996ZM16.7836 5.43457C16.7381 5.389 16.6927 5.36621 16.6472 5.36621C16.6017 5.36621 16.5335 5.389 16.4425 5.43457C16.4425 5.48014 16.4198 5.50863 16.3743 5.52002C16.3288 5.53141 16.2833 5.5599 16.2378 5.60547L16.1696 5.70801C16.1696 5.75358 16.181 5.78206 16.2037 5.79346C16.2264 5.80485 16.2378 5.81055 16.2378 5.81055H16.4425C16.3515 5.85612 16.2492 5.87891 16.1355 5.87891C16.0218 5.87891 15.9649 5.94727 15.9649 6.08398L16.4425 5.98145C16.3515 6.02702 16.2492 6.0612 16.1355 6.08398C16.0218 6.10677 15.9308 6.16374 15.8626 6.25488C15.9763 6.30046 16.0729 6.34603 16.1525 6.3916C16.2321 6.43717 16.2947 6.45996 16.3402 6.45996C16.3856 6.45996 16.4311 6.45426 16.4766 6.44287C16.5221 6.43148 16.5676 6.40299 16.6131 6.35742L16.886 6.08398V6.35742L17.6365 6.25488V6.35742C17.6365 6.40299 17.6137 6.43148 17.5682 6.44287C17.5227 6.45426 17.4773 6.48275 17.4318 6.52832C17.3408 6.52832 17.2669 6.54541 17.21 6.57959C17.1532 6.61377 17.0793 6.63086 16.9883 6.63086C16.9428 6.63086 16.8973 6.64795 16.8519 6.68213C16.8064 6.71631 16.7836 6.7334 16.7836 6.7334C16.7836 6.7334 16.8007 6.75049 16.8348 6.78467C16.8689 6.81885 16.886 6.85872 16.886 6.9043C16.9314 6.9043 16.9769 6.92139 17.0224 6.95557C17.0679 6.98975 17.1134 7.00684 17.1589 7.00684L17.9776 6.7334C18.0913 6.64225 18.1766 6.57389 18.2334 6.52832C18.2903 6.48275 18.3642 6.48275 18.4552 6.52832H19.1033C19.1488 6.48275 19.1943 6.45996 19.2398 6.45996C19.2853 6.45996 19.3307 6.45996 19.3762 6.45996C19.4672 6.41439 19.5184 6.31755 19.5297 6.16943C19.5411 6.02132 19.524 5.90169 19.4786 5.81055C19.4331 5.7194 19.3876 5.67383 19.3421 5.67383C19.2966 5.67383 19.2511 5.7194 19.2057 5.81055C19.1374 5.85612 19.0692 5.87891 19.001 5.87891C18.9327 5.87891 18.8759 5.85612 18.8304 5.81055C18.7394 5.7194 18.6598 5.62826 18.5916 5.53711C18.5234 5.44596 18.4438 5.35482 18.3528 5.26367L18.0799 5.53711C18.0799 5.49154 18.0856 5.48014 18.097 5.50293C18.1083 5.52572 18.1368 5.53711 18.1823 5.53711C18.2732 5.53711 18.313 5.5542 18.3017 5.58838C18.2903 5.62256 18.2846 5.66243 18.2846 5.70801L18.1823 5.81055L18.4552 6.08398C18.2732 6.12956 18.114 6.13525 17.9776 6.10107C17.8411 6.06689 17.7274 5.99284 17.6365 5.87891C17.591 5.78776 17.5057 5.70801 17.3806 5.63965C17.2555 5.57129 17.1248 5.53711 16.9883 5.53711C16.9428 5.53711 16.8973 5.53141 16.8519 5.52002C16.8064 5.50863 16.7836 5.48014 16.7836 5.43457ZM21.4912 9.02344H21.5936C21.6391 8.93229 21.7016 8.86393 21.7812 8.81836C21.8608 8.77279 21.9461 8.75 22.037 8.75C22.037 8.75 22.0541 8.7443 22.0882 8.73291C22.1223 8.72152 22.1394 8.69303 22.1394 8.64746C22.1849 8.51074 22.2133 8.37402 22.2247 8.2373C22.236 8.10059 22.2645 7.96387 22.3099 7.82715L22.2076 7.72461L22.1394 7.82715V7.99805H22.037C22.037 7.9069 22.0143 7.85563 21.9688 7.84424C21.9233 7.83285 21.8551 7.82715 21.7641 7.82715C21.7186 7.82715 21.6902 7.81006 21.6789 7.77588C21.6675 7.7417 21.6391 7.72461 21.5936 7.72461C21.5936 7.72461 21.5936 7.71322 21.5936 7.69043C21.5936 7.66764 21.6163 7.65625 21.6618 7.65625C21.7073 7.61068 21.7528 7.5765 21.7982 7.55371C21.8437 7.53092 21.8892 7.49674 21.9347 7.45117C21.9802 7.4056 22.0029 7.36003 22.0029 7.31445C22.0029 7.26888 21.9802 7.22331 21.9347 7.17773C21.8892 7.13216 21.8437 7.10368 21.7982 7.09229C21.7528 7.08089 21.7073 7.05241 21.6618 7.00684C21.6163 7.00684 21.5595 7.01253 21.4912 7.02393C21.423 7.03532 21.3889 7.08659 21.3889 7.17773V7.38281H21.2183C21.1274 7.33724 21.0364 7.31445 20.9454 7.31445C20.8545 7.31445 20.7862 7.33724 20.7407 7.38281C20.6953 7.42839 20.6725 7.46826 20.6725 7.50244C20.6725 7.53662 20.6725 7.55371 20.6725 7.55371C20.6725 7.55371 20.6896 7.5708 20.7237 7.60498C20.7578 7.63916 20.7976 7.65625 20.8431 7.65625C20.9795 7.65625 21.0534 7.67904 21.0648 7.72461C21.0762 7.77018 21.0591 7.83854 21.0136 7.92969C20.9682 8.02083 20.9227 8.06641 20.8772 8.06641C20.8317 8.06641 20.7635 8.04362 20.6725 7.99805C20.627 7.95247 20.5815 7.92399 20.5361 7.9126C20.4906 7.9012 20.4678 7.87272 20.4678 7.82715C20.3769 7.87272 20.3314 7.92399 20.3314 7.98096C20.3314 8.03792 20.3541 8.11198 20.3996 8.20312C20.4451 8.2487 20.4906 8.28857 20.5361 8.32275C20.5815 8.35693 20.627 8.37402 20.6725 8.37402C20.718 8.4196 20.7635 8.46517 20.809 8.51074C20.8545 8.55632 20.8999 8.5791 20.9454 8.5791C21.1274 8.67025 21.2524 8.7443 21.3207 8.80127C21.3889 8.85824 21.4457 8.93229 21.4912 9.02344ZM21.2865 5.26367C21.2411 5.2181 21.1956 5.18392 21.1501 5.16113C21.1046 5.13835 21.0364 5.10417 20.9454 5.05859L20.8431 5.16113L21.2183 5.60547C21.1728 5.5599 21.1217 5.52002 21.0648 5.48584C21.008 5.45166 20.934 5.43457 20.8431 5.43457C20.7976 5.43457 20.7692 5.42887 20.7578 5.41748C20.7464 5.40609 20.718 5.3776 20.6725 5.33203V5.53711C20.6725 5.58268 20.6839 5.61117 20.7066 5.62256C20.7294 5.63395 20.7407 5.66243 20.7407 5.70801C20.7407 5.75358 20.7464 5.78206 20.7578 5.79346C20.7692 5.80485 20.7976 5.81055 20.8431 5.81055H20.7407C20.6953 5.81055 20.6668 5.79346 20.6555 5.75928C20.6441 5.7251 20.6157 5.70801 20.5702 5.70801C20.4792 5.61686 20.4053 5.54281 20.3484 5.48584C20.2916 5.42887 20.2404 5.35482 20.1949 5.26367C20.1949 5.2181 20.1608 5.18962 20.0926 5.17822C20.0244 5.16683 19.9675 5.16113 19.922 5.16113L19.8197 5.26367C19.8197 5.40039 19.9334 5.57699 20.1608 5.79346C20.3882 6.00993 20.6157 6.07259 20.8431 5.98145C20.8886 5.98145 20.9397 5.97575 20.9966 5.96436C21.0534 5.95296 21.1274 5.92448 21.2183 5.87891C21.1728 5.92448 21.1444 5.97575 21.133 6.03271C21.1217 6.08968 21.116 6.14095 21.116 6.18652V6.35742C21.1615 6.40299 21.2979 6.42008 21.5253 6.40869C21.7528 6.3973 21.8665 6.34603 21.8665 6.25488C21.912 6.20931 21.9461 6.14665 21.9688 6.06689C21.9916 5.98714 21.9802 5.90169 21.9347 5.81055V5.70801C21.9802 5.57129 21.9688 5.45736 21.9006 5.36621C21.8324 5.27507 21.73 5.20671 21.5936 5.16113C21.5936 5.29785 21.5708 5.36051 21.5253 5.34912C21.4799 5.33773 21.4003 5.30924 21.2865 5.26367ZM27.2904 13.6377C27.2904 13.5921 27.2677 13.5579 27.2222 13.5352C27.1767 13.5124 27.1313 13.4782 27.0858 13.4326C27.0403 13.387 26.9948 13.3586 26.9493 13.3472C26.9038 13.3358 26.8583 13.3073 26.8129 13.2617C26.8129 13.2161 26.7958 13.1706 26.7617 13.125C26.7276 13.0794 26.6878 13.0339 26.6423 12.9883C26.5513 12.9427 26.4717 12.9028 26.4035 12.8687C26.3353 12.8345 26.2557 12.8174 26.1647 12.8174C26.1192 12.7718 26.0624 12.7262 25.9942 12.6807C25.9259 12.6351 25.8691 12.5781 25.8236 12.5098L25.7212 12.4414C25.6758 12.4414 25.6303 12.4528 25.5848 12.4756C25.5393 12.4984 25.5166 12.5098 25.5166 12.5098C25.4711 12.6237 25.4313 12.7376 25.3972 12.8516C25.3631 12.9655 25.346 13.068 25.346 13.1592C25.346 13.2503 25.3403 13.3244 25.3289 13.3813C25.3176 13.4383 25.2664 13.4896 25.1754 13.5352C25.13 13.5352 25.1129 13.5522 25.1243 13.5864C25.1356 13.6206 25.1186 13.6719 25.0731 13.7402H25.2437C25.3346 13.6719 25.3915 13.6434 25.4142 13.6548C25.437 13.6662 25.4483 13.7174 25.4483 13.8086C25.4483 13.8542 25.4654 13.894 25.4995 13.9282C25.5336 13.9624 25.5734 13.9567 25.6189 13.9111C25.7099 13.8656 25.7838 13.82 25.8406 13.7744C25.8975 13.7288 25.9487 13.6833 25.9942 13.6377C26.0851 13.5465 26.1477 13.4953 26.1818 13.4839C26.2159 13.4725 26.3012 13.4896 26.4376 13.5352C26.4831 13.5807 26.5456 13.6092 26.6252 13.6206C26.7048 13.632 26.7674 13.6719 26.8129 13.7402L27.2904 13.6377ZM19.8197 3.48633C19.8652 3.48633 19.9107 3.49202 19.9561 3.50342C20.0016 3.51481 20.0471 3.54329 20.0926 3.58887C20.1381 3.58887 20.1665 3.60596 20.1779 3.64014C20.1892 3.67432 20.1949 3.71419 20.1949 3.75977C20.1494 3.75977 20.104 3.76546 20.0585 3.77686C20.013 3.78825 19.9675 3.81673 19.922 3.8623C19.8765 3.8623 19.8481 3.868 19.8367 3.87939C19.8254 3.89079 19.7969 3.91927 19.7515 3.96484L19.922 4.13574H20.1949C20.2859 4.13574 20.3939 4.14144 20.519 4.15283C20.6441 4.16423 20.7521 4.19271 20.8431 4.23828C20.8886 4.28385 20.9397 4.32943 20.9966 4.375C21.0534 4.42057 21.1274 4.46615 21.2183 4.51172C21.2638 4.55729 21.3093 4.58008 21.3548 4.58008C21.4003 4.58008 21.4457 4.55729 21.4912 4.51172C21.5367 4.46615 21.5708 4.42057 21.5936 4.375C21.6163 4.32943 21.5822 4.28385 21.4912 4.23828L21.3889 4.13574C21.3889 4.0446 21.3718 3.98763 21.3377 3.96484C21.3036 3.94206 21.2638 3.90788 21.2183 3.8623C21.1274 3.8623 21.0534 3.83952 20.9966 3.79395C20.9397 3.74837 20.8886 3.68001 20.8431 3.58887H20.6725L20.5702 3.69141C20.5247 3.64583 20.4792 3.60026 20.4337 3.55469C20.3882 3.50911 20.3428 3.48633 20.2973 3.48633C20.2063 3.44076 20.1153 3.41797 20.0244 3.41797C19.9334 3.41797 19.8424 3.41797 19.7515 3.41797C19.706 3.41797 19.6491 3.43506 19.5809 3.46924C19.5127 3.50342 19.4786 3.54329 19.4786 3.58887C19.4786 3.54329 19.5127 3.5262 19.5809 3.5376C19.6491 3.54899 19.7287 3.5319 19.8197 3.48633ZM14.771 5.60547L14.9756 5.87891L15.2485 5.60547C15.3395 5.65104 15.3907 5.66243 15.402 5.63965C15.4134 5.61686 15.4191 5.58268 15.4191 5.53711C15.4191 5.49154 15.4248 5.44596 15.4362 5.40039C15.4475 5.35482 15.476 5.30924 15.5214 5.26367C15.5214 5.2181 15.5385 5.18392 15.5726 5.16113C15.6067 5.13835 15.6465 5.10417 15.692 5.05859H15.7943V5.33203C15.7489 5.3776 15.7375 5.42318 15.7602 5.46875C15.783 5.51432 15.7943 5.53711 15.7943 5.53711C15.8398 5.53711 15.8683 5.52002 15.8796 5.48584C15.891 5.45166 15.9194 5.43457 15.9649 5.43457L16.0673 5.33203C16.1127 5.33203 16.1525 5.31494 16.1866 5.28076C16.2208 5.24658 16.2378 5.20671 16.2378 5.16113V4.8877L16.4425 4.68262C16.397 4.63704 16.3515 4.61426 16.306 4.61426C16.2606 4.61426 16.2151 4.61426 16.1696 4.61426C16.1241 4.56868 16.0786 4.55729 16.0331 4.58008C15.9877 4.60286 15.9649 4.63704 15.9649 4.68262V4.78516H15.7943C15.7034 4.73958 15.6124 4.72249 15.5214 4.73389C15.4305 4.74528 15.3395 4.79655 15.2485 4.8877L15.1462 4.99023C15.1007 4.99023 15.0609 5.00732 15.0268 5.0415C14.9927 5.07568 14.9756 5.11556 14.9756 5.16113C14.9756 5.25228 14.9301 5.32064 14.8392 5.36621C14.7482 5.41178 14.6345 5.43457 14.4981 5.43457H14.3957C14.3957 5.48014 14.3843 5.54281 14.3616 5.62256C14.3389 5.70231 14.3275 5.76497 14.3275 5.81055C14.4639 5.85612 14.5606 5.84473 14.6174 5.77637C14.6743 5.70801 14.7255 5.65104 14.771 5.60547ZM27.1881 7.55371C27.1881 7.59928 27.2052 7.64486 27.2393 7.69043C27.2734 7.736 27.3132 7.78158 27.3587 7.82715C27.4042 7.91829 27.461 7.98096 27.5292 8.01514C27.5975 8.04932 27.6998 8.04362 27.8363 7.99805C27.9272 7.99805 28.0011 7.98665 28.058 7.96387C28.1148 7.94108 28.1888 7.92969 28.2797 7.92969H28.4844C28.5299 7.92969 28.5583 7.92399 28.5697 7.9126C28.5811 7.9012 28.6095 7.87272 28.655 7.82715V7.65625C28.473 7.61068 28.3195 7.55371 28.1944 7.48535C28.0694 7.41699 27.9159 7.38281 27.7339 7.38281H27.1881V7.55371ZM22.4123 4.34082C22.5032 4.34082 22.5772 4.32373 22.634 4.28955C22.6909 4.25537 22.7648 4.23828 22.8558 4.23828V4.06738C22.8558 3.97624 22.8501 3.91927 22.8387 3.89648C22.8273 3.8737 22.7762 3.8623 22.6852 3.8623C22.6397 3.8623 22.5942 3.8623 22.5487 3.8623C22.5032 3.8623 22.4578 3.82812 22.4123 3.75977C22.2758 3.71419 22.1735 3.66862 22.1053 3.62305C22.037 3.57747 21.9574 3.5319 21.8665 3.48633C21.8665 3.62305 21.8892 3.75977 21.9347 3.89648C21.9802 4.0332 22.0484 4.14714 22.1394 4.23828C22.1394 4.28385 22.1735 4.32373 22.2417 4.35791C22.3099 4.39209 22.3668 4.38639 22.4123 4.34082ZM23.3333 6.52832V6.45996C23.2878 6.32324 23.2196 6.2264 23.1287 6.16943C23.0377 6.11247 22.924 6.08398 22.7875 6.08398C22.6966 6.08398 22.6056 6.11816 22.5146 6.18652C22.4237 6.25488 22.3554 6.31185 22.3099 6.35742V6.52832C22.4464 6.57389 22.5828 6.61947 22.7193 6.66504C22.8558 6.71061 22.9695 6.75618 23.0604 6.80176C23.1969 6.75618 23.2765 6.72201 23.2992 6.69922C23.322 6.67643 23.3333 6.61947 23.3333 6.52832ZM18.1823 4.23828C18.0458 4.23828 17.9094 4.24398 17.7729 4.25537C17.6365 4.26676 17.5 4.29525 17.3635 4.34082C17.2726 4.38639 17.2271 4.46045 17.2271 4.56299C17.2271 4.66553 17.2726 4.73958 17.3635 4.78516C17.4545 4.83073 17.5455 4.85352 17.6365 4.85352C17.7274 4.85352 17.8184 4.83073 17.9094 4.78516C17.9548 4.73958 17.989 4.69401 18.0117 4.64844C18.0344 4.60286 18.0231 4.55729 17.9776 4.51172L18.2846 4.34082L18.1823 4.23828ZM28.5526 11.6211C28.5981 11.6211 28.6436 11.604 28.6891 11.5698C28.7346 11.5356 28.7801 11.5186 28.8255 11.5186L28.9279 11.416C28.9279 11.3704 28.9222 11.3078 28.9108 11.228C28.8994 11.1483 28.871 11.0856 28.8255 11.04C28.7801 10.9945 28.7232 10.9717 28.655 10.9717C28.5867 10.9717 28.5299 10.9717 28.4844 10.9717C28.3934 10.9717 28.3082 11.0059 28.2286 11.0742C28.149 11.1426 28.1092 11.2223 28.1092 11.3135C28.1546 11.4046 28.2172 11.4901 28.2968 11.5698C28.3764 11.6496 28.4617 11.6667 28.5526 11.6211ZM17.6365 4.06738C17.7274 4.02181 17.8127 4.01042 17.8923 4.0332C17.9719 4.05599 18.0344 4.09017 18.0799 4.13574C18.1254 4.18132 18.1709 4.19271 18.2164 4.16992C18.2619 4.14714 18.3073 4.11296 18.3528 4.06738V3.8623C18.3073 3.81673 18.2619 3.79395 18.2164 3.79395C18.1709 3.79395 18.1254 3.81673 18.0799 3.8623C18.0344 3.8623 18.006 3.87939 17.9946 3.91357C17.9833 3.94775 17.9548 3.96484 17.9094 3.96484H17.7047C17.5682 3.91927 17.4659 3.90218 17.3977 3.91357C17.3294 3.92497 17.2498 3.97624 17.1589 4.06738V4.13574C17.2044 4.09017 17.2726 4.06738 17.3635 4.06738C17.4545 4.06738 17.5455 4.06738 17.6365 4.06738ZM23.3333 4.40918C23.2424 4.36361 23.1173 4.35791 22.9581 4.39209C22.7989 4.42627 22.6511 4.46615 22.5146 4.51172C22.4464 4.51172 22.4123 4.52881 22.4123 4.56299C22.4123 4.59717 22.4123 4.61426 22.4123 4.61426L22.5146 4.68262C22.6511 4.72819 22.7989 4.7168 22.9581 4.64844C23.1173 4.58008 23.2424 4.50033 23.3333 4.40918ZM11.0867 18.7988C11.0413 18.7988 11.0015 18.8159 10.9673 18.8501C10.9332 18.8843 10.9162 18.9242 10.9162 18.9697C10.9617 19.0609 10.9901 19.1406 11.0015 19.209C11.0128 19.2773 11.0413 19.3571 11.0867 19.4482C11.1777 19.3571 11.2346 19.266 11.2573 19.1748C11.2801 19.0837 11.2914 19.0153 11.2914 18.9697C11.2914 18.9242 11.2801 18.8843 11.2573 18.8501C11.2346 18.8159 11.1777 18.7988 11.0867 18.7988ZM26.2671 14.458C26.3125 14.458 26.358 14.4694 26.4035 14.4922C26.449 14.515 26.4945 14.5036 26.54 14.458C26.6309 14.4124 26.6992 14.3498 26.7446 14.27C26.7901 14.1903 26.8129 14.1276 26.8129 14.082C26.6764 14.0365 26.5798 14.0479 26.5229 14.1162C26.466 14.1846 26.4149 14.2415 26.3694 14.2871C26.3239 14.2871 26.2955 14.3042 26.2841 14.3384C26.2727 14.3726 26.2671 14.4124 26.2671 14.458ZM19.6491 4.8877C19.6946 4.93327 19.7344 4.93896 19.7685 4.90479C19.8026 4.87061 19.8197 4.83073 19.8197 4.78516C19.8197 4.69401 19.7685 4.60856 19.6662 4.52881C19.5638 4.44906 19.4672 4.38639 19.3762 4.34082C19.3762 4.47754 19.399 4.59147 19.4444 4.68262C19.4899 4.77376 19.5582 4.84212 19.6491 4.8877ZM4.40058 17.0557L4.84405 16.9531L4.74172 16.8506C4.87817 16.805 4.95208 16.7651 4.96345 16.731C4.97482 16.6968 4.93502 16.6113 4.84405 16.4746L4.40058 17.0557ZM24.425 4.68262C24.425 4.63704 24.4079 4.60286 24.3738 4.58008C24.3397 4.55729 24.2999 4.50033 24.2544 4.40918C24.2089 4.45475 24.152 4.50033 24.0838 4.5459C24.0156 4.59147 23.9815 4.63704 23.9815 4.68262C23.9815 4.72819 23.9985 4.77376 24.0327 4.81934C24.0668 4.86491 24.1066 4.8877 24.152 4.8877C24.243 4.8877 24.3112 4.86491 24.3567 4.81934C24.4022 4.77376 24.425 4.72819 24.425 4.68262ZM0.511696 15.6543C0.466212 15.6543 0.426413 15.66 0.3923 15.6714C0.358187 15.6828 0.341131 15.7113 0.341131 15.7568V15.9277C0.386615 15.9733 0.432099 16.0018 0.477583 16.0132C0.523067 16.0246 0.568551 16.0303 0.614035 16.0303C0.659519 16.0303 0.693632 16.0132 0.716374 15.979C0.739116 15.9448 0.773229 15.8936 0.818713 15.8252C0.773229 15.8252 0.739116 15.8138 0.716374 15.791C0.693632 15.7682 0.659519 15.7568 0.614035 15.7568C0.614035 15.7113 0.60835 15.6828 0.596979 15.6714C0.585608 15.66 0.55718 15.6543 0.511696 15.6543ZM15.7943 5.60547C15.7034 5.69661 15.6124 5.77637 15.5214 5.84473C15.4305 5.91309 15.3395 5.99284 15.2485 6.08398C15.4305 6.08398 15.5669 6.03841 15.6579 5.94727C15.7489 5.85612 15.7943 5.74219 15.7943 5.60547ZM27.3587 14.7314L27.461 14.834C27.5065 14.7884 27.5349 14.7428 27.5463 14.6973C27.5577 14.6517 27.5861 14.6061 27.6316 14.5605L27.5634 14.458C27.5179 14.458 27.4724 14.4808 27.4269 14.5264C27.3814 14.5719 27.3587 14.6403 27.3587 14.7314ZM20.0926 6.35742C20.0926 6.31185 20.0755 6.28337 20.0414 6.27197C20.0073 6.26058 19.9675 6.2321 19.922 6.18652L19.7515 6.35742L19.922 6.45996C19.9675 6.45996 20.0073 6.44287 20.0414 6.40869C20.0755 6.37451 20.0926 6.35742 20.0926 6.35742ZM21.5936 2.87109V2.66602C21.5481 2.62044 21.4969 2.59196 21.4401 2.58057C21.3832 2.56917 21.3093 2.56348 21.2183 2.56348C21.2638 2.60905 21.3093 2.65462 21.3548 2.7002C21.4003 2.74577 21.4457 2.76855 21.4912 2.76855C21.4912 2.81413 21.5083 2.84261 21.5424 2.854C21.5765 2.8654 21.5936 2.87109 21.5936 2.87109ZM16.9883 4.40918C16.9883 4.40918 16.9826 4.39779 16.9712 4.375C16.9599 4.35221 16.9314 4.34082 16.886 4.34082H16.6131V4.40918C16.6585 4.45475 16.704 4.48893 16.7495 4.51172C16.795 4.53451 16.8405 4.56868 16.886 4.61426C16.886 4.56868 16.903 4.52311 16.9371 4.47754C16.9712 4.43197 16.9883 4.40918 16.9883 4.40918ZM1.09162 18.6963L1.53509 18.5254C1.44412 18.4798 1.34747 18.4741 1.24513 18.5083C1.14279 18.5425 1.09162 18.6051 1.09162 18.6963Z" fill="white"/>
</svg>
