<svg width="28" height="29" viewBox="0 0 28 29" fill="none" xmlns="http://www.w3.org/2000/svg">
<g id="Icon" clip-path="url(#clip0_228_18613)">
<path id="Vector" d="M23.2252 24.5972C23.297 24.5613 23.3599 24.5254 23.4138 24.4894C23.4677 24.4535 23.5305 24.4176 23.6024 24.3817C23.6383 24.3457 23.6742 24.3098 23.7102 24.2739C23.7461 24.238 23.782 24.22 23.8179 24.22C23.8898 24.1841 23.9482 24.1482 23.9931 24.1122C24.038 24.0763 24.0963 24.0404 24.1682 24.0045C24.2041 23.9685 24.2535 23.9461 24.3164 23.9371C24.3792 23.9281 24.4286 23.9057 24.4646 23.8697C24.5723 23.726 24.6666 23.5689 24.7475 23.3982C24.8283 23.2276 24.9046 23.0704 24.9765 22.9267C25.0124 22.819 25.0708 22.7336 25.1516 22.6708C25.2325 22.6079 25.3447 22.5765 25.4884 22.5765C25.5243 22.5765 25.5468 22.563 25.5558 22.536C25.5648 22.5091 25.5872 22.4956 25.6231 22.4956C25.6591 22.4238 25.6995 22.3519 25.7444 22.2801C25.7893 22.2082 25.8477 22.1364 25.9195 22.0645C25.9914 21.9927 26.0138 21.8804 25.9869 21.7277C25.9599 21.5751 25.9105 21.4628 25.8387 21.391C25.7668 21.4628 25.686 21.5167 25.5962 21.5526C25.5064 21.5885 25.4166 21.5347 25.3268 21.391H25.1112C25.0394 21.4987 24.972 21.62 24.9091 21.7547C24.8463 21.8894 24.7969 22.0107 24.7609 22.1184C24.6891 22.2981 24.5948 22.4642 24.478 22.6169C24.3613 22.7696 24.2131 22.8998 24.0335 23.0076C23.8539 23.1513 23.6742 23.295 23.4946 23.4387C23.315 23.5824 23.1533 23.726 23.0096 23.8697C22.9378 23.9416 22.8839 24.0314 22.848 24.1392C22.812 24.247 22.7941 24.3547 22.7941 24.4625C22.7941 24.4984 22.812 24.5433 22.848 24.5972C22.8839 24.6511 22.9198 24.696 22.9557 24.7319C22.9917 24.6242 23.0366 24.5658 23.0905 24.5568C23.1443 24.5478 23.1893 24.5613 23.2252 24.5972ZM26.5123 18.9391C26.4404 18.9032 26.382 18.8673 26.3371 18.8313C26.2922 18.7954 26.2518 18.7595 26.2159 18.7236L26.0003 18.05C25.9644 17.9063 25.8926 17.7895 25.7848 17.6997C25.677 17.6099 25.5513 17.583 25.4076 17.6189C25.4076 17.6548 25.4121 17.6952 25.4211 17.7401C25.43 17.785 25.4525 17.8434 25.4884 17.9153C25.5962 18.059 25.6995 18.2161 25.7983 18.3868C25.8971 18.5574 25.9824 18.7146 26.0542 18.8583C26.0902 18.8942 26.1126 18.9436 26.1216 19.0065C26.1306 19.0693 26.1351 19.1187 26.1351 19.1547C26.1351 19.2265 26.1216 19.3118 26.0946 19.4106C26.0677 19.5094 26.0542 19.5947 26.0542 19.6666C26.0542 19.7025 26.0408 19.7384 26.0138 19.7744C25.9869 19.8103 25.9554 19.8462 25.9195 19.8821C25.7758 19.9899 25.704 20.0842 25.704 20.165C25.704 20.2459 25.7758 20.3222 25.9195 20.3941C26.2069 20.5737 26.3461 20.6994 26.3371 20.7713C26.3282 20.8431 26.2877 21.0048 26.2159 21.2562V21.3371C26.2159 21.373 26.2249 21.4044 26.2428 21.4314C26.2608 21.4583 26.2698 21.4718 26.2698 21.4718H26.3506C26.3865 21.0048 26.5302 20.5961 26.7817 20.2459C27.0332 19.8956 27.3026 19.5588 27.59 19.2355C27.5182 19.2714 27.4598 19.3028 27.4149 19.3298C27.37 19.3567 27.3295 19.3702 27.2936 19.3702C27.114 19.3702 26.9838 19.3298 26.9029 19.249C26.8221 19.1681 26.7637 19.0379 26.7278 18.8583C26.7278 18.8224 26.7099 18.7819 26.6739 18.737C26.638 18.6921 26.6021 18.6338 26.5662 18.5619H26.5123V18.9391ZM13.6603 21.1754C13.7681 21.4269 13.8758 21.6828 13.9836 21.9433C14.0914 22.2037 14.2261 22.4597 14.3878 22.7112C14.4237 22.6393 14.4461 22.581 14.4551 22.536C14.4641 22.4911 14.4865 22.4507 14.5225 22.4148C14.6302 22.4867 14.6931 22.5001 14.7111 22.4552C14.729 22.4103 14.738 22.3519 14.738 22.2801V21.9837C14.8458 21.84 14.8727 21.6918 14.8188 21.5391C14.765 21.3865 14.738 21.2203 14.738 21.0407C14.5584 21.1125 14.3878 21.1979 14.2261 21.2967C14.0644 21.3954 13.8758 21.355 13.6603 21.1754ZM21.7163 9.56282C21.86 9.81429 22.0621 10.0478 22.3226 10.2634C22.583 10.4789 22.7941 10.5867 22.9557 10.5867C22.7941 10.407 22.61 10.2274 22.4034 10.0478C22.1968 9.86818 21.9678 9.70652 21.7163 9.56282ZM10.3732 18.2116V18.05L9.86127 18.1308V18.2925L10.3732 18.2116ZM8.13689 4.71302C8.20874 4.82079 8.28508 4.89713 8.36591 4.94204C8.44674 4.98694 8.55901 5.02736 8.70271 5.06328C8.77455 5.06328 8.85987 5.08125 8.95867 5.11717C9.05746 5.15309 9.14278 5.20698 9.21463 5.27883C9.28648 5.35068 9.35833 5.3866 9.43018 5.3866C9.50202 5.3866 9.57387 5.32373 9.64572 5.198C9.68165 5.23392 9.70859 5.27434 9.72655 5.31924C9.74452 5.36415 9.77146 5.42253 9.80738 5.49438C9.80738 5.45845 9.81636 5.436 9.83433 5.42702C9.85229 5.41804 9.86127 5.39558 9.86127 5.35966H10.0229C10.0589 5.35966 10.0813 5.37313 10.0903 5.40007C10.0993 5.42702 10.1038 5.44049 10.1038 5.44049C10.0319 5.51234 9.9915 5.60215 9.98251 5.70992C9.97353 5.8177 9.91516 5.87158 9.80738 5.87158C9.73553 5.90751 9.68165 5.94343 9.64572 5.97936C9.6098 6.01528 9.6098 6.06917 9.64572 6.14102C9.64572 6.23083 9.63674 6.31166 9.61878 6.38351C9.60082 6.45536 9.59184 6.54517 9.59184 6.65294C9.62776 6.72479 9.67267 6.80113 9.72655 6.88196C9.78044 6.96279 9.82535 7.05709 9.86127 7.16486C9.86127 7.16486 9.87923 7.17834 9.91516 7.20528C9.95108 7.23222 9.98701 7.2457 10.0229 7.2457C10.1307 7.2457 10.2115 7.26366 10.2654 7.29958C10.3193 7.33551 10.3822 7.38939 10.454 7.46124C10.5259 7.53309 10.5887 7.60045 10.6426 7.66332C10.6965 7.72618 10.7773 7.75762 10.8851 7.75762C10.921 7.75762 10.957 7.78456 10.9929 7.83845C11.0288 7.89234 11.0647 7.93724 11.1007 7.97317C11.1725 8.00909 11.2354 8.054 11.2893 8.10788C11.3432 8.16177 11.406 8.18871 11.4779 8.18871C11.5497 8.18871 11.6171 8.16177 11.6799 8.10788C11.7428 8.054 11.7922 8.00909 11.8281 7.97317C11.9359 7.79354 12.0122 7.59596 12.0572 7.38041C12.1021 7.16486 12.1245 6.92237 12.1245 6.65294C12.1245 6.43739 12.138 6.22185 12.1649 6.0063C12.1919 5.79075 12.2053 5.57521 12.2053 5.35966C12.3131 5.43151 12.4209 5.48989 12.5287 5.53479C12.6364 5.5797 12.7442 5.63807 12.852 5.70992C12.8879 5.74585 12.9193 5.78177 12.9463 5.8177C12.9732 5.85362 12.9867 5.88955 12.9867 5.92547V6.30268C12.9867 6.37453 13.0047 6.42392 13.0406 6.45086C13.0765 6.47781 13.1304 6.47332 13.2022 6.43739C13.328 6.40147 13.4447 6.42841 13.5525 6.51822C13.6603 6.60803 13.7142 6.70683 13.7142 6.8146C13.7142 6.99422 13.7366 7.17385 13.7815 7.35347C13.8264 7.53309 13.9028 7.71271 14.0105 7.89234C14.0824 8.00011 14.1138 8.13482 14.1048 8.29649C14.0959 8.45815 14.1093 8.61981 14.1453 8.78147C14.1453 8.81739 14.1632 8.85331 14.1992 8.88924C14.2351 8.92516 14.271 8.96109 14.3069 8.99701C14.4147 9.06886 14.5359 9.14071 14.6707 9.21256C14.8054 9.28441 14.9266 9.37422 15.0344 9.48199C15.0703 9.51792 15.1018 9.56731 15.1287 9.63018C15.1556 9.69305 15.1691 9.74245 15.1691 9.77837C15.2769 9.92207 15.3622 10.0703 15.4251 10.2229C15.4879 10.3756 15.5014 10.5418 15.4655 10.7214H15.9774V11.0178C15.9774 11.1615 16.0133 11.2872 16.0852 11.395C16.157 11.5027 16.2648 11.5746 16.4085 11.6105L16.6241 11.8261C16.66 11.9338 16.7094 12.0416 16.7722 12.1494C16.8351 12.2572 16.8845 12.3649 16.9204 12.4727C16.9923 12.7242 17.0507 12.9756 17.0956 13.2271C17.1405 13.4786 17.127 13.739 17.0551 14.0085C16.9833 14.3318 16.9384 14.6551 16.9204 14.9784C16.9025 15.3018 16.8486 15.6251 16.7588 15.9484C16.7588 15.9843 16.7453 16.0337 16.7184 16.0966C16.6914 16.1595 16.66 16.2089 16.6241 16.2448C16.4085 16.3885 16.2783 16.5636 16.2334 16.7702C16.1885 16.9767 16.1301 17.1878 16.0582 17.4033C16.0582 17.4393 16.0448 17.4887 16.0178 17.5515C15.9909 17.6144 15.9774 17.6638 15.9774 17.6997C15.8337 17.8793 15.7484 18.0769 15.7214 18.2925C15.6945 18.508 15.681 18.7236 15.681 18.9391C15.681 19.0469 15.6496 19.1232 15.5867 19.1681C15.5239 19.213 15.4385 19.2355 15.3308 19.2355C15.1871 19.2355 15.0434 19.2579 14.8997 19.3028C14.756 19.3478 14.6302 19.4421 14.5225 19.5858C14.4506 19.6576 14.3743 19.7295 14.2935 19.8013C14.2126 19.8731 14.1183 19.945 14.0105 20.0168L13.5795 19.5858L13.4986 19.7205H13.4447V19.3702H13.3639C13.3639 19.4061 13.3504 19.4376 13.3235 19.4645C13.2965 19.4915 13.2831 19.5049 13.2831 19.5049C13.2472 19.5768 13.1978 19.6396 13.1349 19.6935C13.072 19.7474 13.0226 19.8103 12.9867 19.8821C12.9867 19.8821 12.9508 19.8776 12.8789 19.8687C12.8071 19.8597 12.7712 19.8372 12.7712 19.8013C12.6275 19.5498 12.4433 19.3343 12.2188 19.1547C11.9943 18.975 11.7204 18.8313 11.397 18.7236C11.3611 18.7236 11.3387 18.7056 11.3297 18.6697C11.3207 18.6338 11.2982 18.5978 11.2623 18.5619C11.2623 18.526 11.2578 18.4945 11.2489 18.4676C11.2399 18.4407 11.2174 18.4272 11.1815 18.4272C11.1096 18.2476 11.0423 18.1308 10.9794 18.0769C10.9166 18.023 10.7863 18.0141 10.5887 18.05C10.5528 17.9422 10.5798 17.8255 10.6696 17.6997C10.7594 17.574 10.7145 17.4482 10.5349 17.3225C10.4989 17.4123 10.4585 17.4887 10.4136 17.5515C10.3687 17.6144 10.3103 17.6638 10.2385 17.6997H10.1038C10.1397 17.5919 10.1756 17.4842 10.2115 17.3764C10.2475 17.2686 10.2834 17.1788 10.3193 17.107C10.3552 17.0351 10.3867 16.9633 10.4136 16.8914C10.4406 16.8196 10.454 16.7477 10.454 16.6759V16.5412C10.4181 16.5412 10.3867 16.5456 10.3597 16.5546C10.3328 16.5636 10.3193 16.5861 10.3193 16.622C10.2834 16.6938 10.2475 16.7522 10.2115 16.7971C10.1756 16.842 10.1576 16.9004 10.1576 16.9722C10.1576 17.0082 10.1576 17.0396 10.1576 17.0665C10.1576 17.0935 10.1397 17.107 10.1038 17.107C9.99599 17.1788 9.88372 17.2552 9.76697 17.336C9.65021 17.4168 9.53795 17.5111 9.43018 17.6189C9.43018 17.583 9.4212 17.5381 9.40323 17.4842C9.38527 17.4303 9.37629 17.3764 9.37629 17.3225C9.37629 17.1788 9.34935 17.0531 9.29546 16.9453C9.24157 16.8375 9.14278 16.7477 8.99908 16.6759C8.96316 16.6399 8.9407 16.604 8.93172 16.5681C8.92274 16.5322 8.91825 16.4962 8.91825 16.4603C8.91825 16.3525 8.90029 16.2627 8.86437 16.1909C8.82844 16.119 8.75659 16.0652 8.64882 16.0292C8.61289 16.0292 8.5635 16.0158 8.50063 15.9888C8.43776 15.9619 8.38837 15.9484 8.35244 15.9484C8.24467 15.9484 8.13689 15.9304 8.02912 15.8945C7.92135 15.8586 7.83154 15.8047 7.75969 15.7329C7.75969 15.7329 7.74622 15.7239 7.71927 15.7059C7.69233 15.6879 7.6609 15.679 7.62497 15.679C7.44535 15.7149 7.26573 15.7418 7.0861 15.7598C6.90648 15.7778 6.72686 15.8227 6.54724 15.8945C6.31373 15.9664 6.09818 16.0247 5.9006 16.0696C5.70301 16.1145 5.47848 16.1011 5.22701 16.0292C5.01147 15.9574 4.79592 15.9619 4.58037 16.0427C4.36482 16.1235 4.16724 16.2178 3.98762 16.3256C3.84392 16.4334 3.68675 16.5367 3.51611 16.6355C3.34547 16.7342 3.1883 16.8196 3.0446 16.8914L2.18241 17.3225C2.07464 17.3764 1.95339 17.4213 1.81868 17.4572C1.68396 17.4932 1.56271 17.547 1.45494 17.6189C1.41902 17.6189 1.38309 17.6279 1.34717 17.6458C1.31124 17.6638 1.27532 17.6548 1.23939 17.6189C1.16755 17.5111 1.08222 17.4168 0.983433 17.336C0.88464 17.2552 0.79932 17.1609 0.727471 17.0531L0.808301 16.8375C0.88015 16.8016 0.934036 16.7567 0.969961 16.7028C1.00589 16.6489 1.02385 16.5681 1.02385 16.4603V16.3256C1.13162 16.0741 1.1406 15.8451 1.05079 15.6386C0.96098 15.432 0.88015 15.2209 0.808301 15.0054C0.808301 14.9695 0.794829 14.9201 0.767886 14.8572C0.740942 14.7943 0.727471 14.727 0.727471 14.6551C0.727471 14.5833 0.72298 14.5204 0.713999 14.4665C0.705018 14.4126 0.682565 14.3498 0.646641 14.2779C0.538867 14.0264 0.435584 13.7884 0.336792 13.5639C0.238 13.3394 0.152679 13.0924 0.0808301 12.823C0.0449056 12.787 0.0224528 12.7421 0.0134717 12.6883C0.00449056 12.6344 0 12.5895 0 12.5535L0.215547 12.823C0.251471 12.7511 0.282905 12.6927 0.309849 12.6478C0.336792 12.6029 0.350264 12.5446 0.350264 12.4727C0.350264 12.4009 0.32332 12.329 0.269434 12.2572C0.215547 12.1853 0.170641 12.1314 0.134717 12.0955C0.0269434 11.9159 -0.0134717 11.7542 0.0134717 11.6105C0.040415 11.4668 0.107773 11.3141 0.215547 11.1525C0.395169 10.901 0.588263 10.672 0.794829 10.4654C1.00139 10.2589 1.26634 10.1017 1.58966 9.99392C1.76928 9.92207 1.93992 9.82328 2.10158 9.69754C2.26324 9.5718 2.43388 9.45505 2.61351 9.34728C2.61351 9.31135 2.62698 9.2889 2.65392 9.27992C2.68086 9.27094 2.7123 9.26645 2.74822 9.26645C2.89192 9.26645 3.00868 9.24848 3.09849 9.21256C3.1883 9.17663 3.26913 9.10479 3.34098 8.99701C3.3769 8.92516 3.4263 8.8623 3.48917 8.80841C3.55203 8.75452 3.60143 8.69165 3.63735 8.61981C3.7092 8.54796 3.7586 8.47162 3.78554 8.39079C3.81249 8.30996 3.80799 8.21566 3.77207 8.10788C3.77207 7.96418 3.81698 7.84743 3.90679 7.75762C3.9966 7.66781 4.07743 7.56902 4.14928 7.46124C4.1852 7.53309 4.20765 7.61841 4.21664 7.7172C4.22562 7.816 4.24807 7.90132 4.28399 7.97317C4.35584 7.93724 4.39626 7.89234 4.40524 7.83845C4.41422 7.78456 4.41871 7.61392 4.41871 7.32652L4.79592 7.38041C4.68814 7.20079 4.7106 7.05709 4.86328 6.94932C5.01596 6.84154 5.0923 6.69785 5.0923 6.51822L5.36173 6.59905V6.43739C5.43358 6.40147 5.49645 6.35656 5.55033 6.30268C5.60422 6.24879 5.66709 6.1949 5.73894 6.14102H5.87365C5.98143 6.26675 6.09369 6.36105 6.21044 6.42392C6.3272 6.48679 6.38558 6.59007 6.38558 6.73377C6.38558 6.73377 6.39007 6.74724 6.39905 6.77419C6.40803 6.80113 6.43048 6.83256 6.46641 6.86849C6.50233 6.79664 6.52478 6.73826 6.53376 6.69336C6.54275 6.64845 6.5652 6.59007 6.60112 6.51822L7.03222 6.8146C7.03222 6.77868 7.04569 6.75622 7.07263 6.74724C7.09958 6.73826 7.11305 6.73377 7.11305 6.73377C6.96935 6.4823 6.96486 6.25777 7.09958 6.06019C7.23429 5.8626 7.33757 5.65604 7.40942 5.44049C7.44535 5.36864 7.49025 5.30128 7.54414 5.23841C7.59803 5.17555 7.69682 5.16208 7.84052 5.198H8.05606C8.19976 5.16208 8.28957 5.12166 8.3255 5.07675C8.36142 5.03185 8.31652 4.95551 8.19078 4.84774C8.11893 4.84774 8.09199 4.82528 8.10995 4.78038C8.12791 4.73547 8.13689 4.71302 8.13689 4.71302ZM23.2252 24.5972C23.1533 24.5613 23.0949 24.5388 23.05 24.5299C23.0051 24.5209 22.9468 24.4984 22.8749 24.4625C22.839 24.4266 22.7941 24.3772 22.7402 24.3143C22.6863 24.2514 22.6773 24.202 22.7133 24.1661C22.7492 24.0583 22.7761 23.9506 22.7941 23.8428C22.812 23.735 22.8659 23.6452 22.9557 23.5734C23.0994 23.4297 23.2566 23.286 23.4273 23.1423C23.5979 22.9986 23.773 22.8549 23.9526 22.7112C24.1323 22.6214 24.2849 22.5001 24.4107 22.3474C24.5364 22.1948 24.6262 22.0286 24.6801 21.849C24.716 21.6873 24.7699 21.5526 24.8418 21.4448C24.9136 21.3371 24.9855 21.2293 25.0573 21.1215C25.0573 21.1215 25.0932 21.1125 25.1651 21.0946C25.2369 21.0766 25.2729 21.0856 25.2729 21.1215C25.3447 21.2652 25.4211 21.3191 25.5019 21.2832C25.5827 21.2473 25.677 21.1934 25.7848 21.1215C25.8566 21.1934 25.9016 21.3011 25.9195 21.4448C25.9375 21.5885 25.9105 21.6963 25.8387 21.7682C25.8028 21.84 25.7668 21.9119 25.7309 21.9837C25.695 22.0556 25.6411 22.1274 25.5692 22.1993C25.5692 22.2352 25.5513 22.2576 25.5154 22.2666C25.4794 22.2756 25.4435 22.2801 25.4076 22.2801C25.2998 22.2801 25.2055 22.3205 25.1247 22.4013C25.0439 22.4822 24.9675 22.5585 24.8957 22.6304C24.7879 22.774 24.6936 22.9312 24.6128 23.1019C24.5319 23.2725 24.4556 23.4297 24.3837 23.5734C24.3478 23.6093 24.3119 23.6452 24.276 23.6811C24.24 23.7171 24.1862 23.735 24.1143 23.735C24.0425 23.771 23.9706 23.8069 23.8988 23.8428C23.8269 23.8787 23.773 23.9147 23.7371 23.9506C23.7012 23.9865 23.6653 24.0179 23.6293 24.0449C23.5934 24.0718 23.5575 24.0853 23.5216 24.0853C23.5216 24.2649 23.4901 24.3862 23.4273 24.449C23.3644 24.5119 23.297 24.5613 23.2252 24.5972ZM26.5123 18.9391V18.7236H26.5662C26.6021 18.7595 26.638 18.7954 26.6739 18.8313C26.7099 18.8673 26.7278 18.9211 26.7278 18.993C26.7637 19.1547 26.8221 19.2804 26.9029 19.3702C26.9838 19.46 27.114 19.5049 27.2936 19.5049C27.3295 19.5049 27.3789 19.4915 27.4418 19.4645C27.5047 19.4376 27.5541 19.4061 27.59 19.3702C27.3385 19.7295 27.0781 20.0842 26.8086 20.4345C26.5392 20.7847 26.3865 21.1754 26.3506 21.6065H26.2698C26.2698 21.5706 26.2608 21.5391 26.2428 21.5122C26.2249 21.4853 26.2159 21.4718 26.2159 21.4718V21.391C26.2877 21.1395 26.3282 20.9778 26.3371 20.906C26.3461 20.8341 26.2069 20.7084 25.9195 20.5288C25.7758 20.421 25.704 20.3357 25.704 20.2728C25.704 20.2099 25.7758 20.1246 25.9195 20.0168C25.9554 19.9809 25.9869 19.945 26.0138 19.9091C26.0408 19.8731 26.0542 19.8372 26.0542 19.8013C26.0902 19.7295 26.1126 19.6441 26.1216 19.5453C26.1306 19.4465 26.1351 19.3612 26.1351 19.2894C26.1351 19.2535 26.1216 19.2041 26.0946 19.1412C26.0677 19.0783 26.0542 19.0289 26.0542 18.993C25.9465 18.8493 25.8432 18.6966 25.7444 18.535C25.6456 18.3733 25.5603 18.2116 25.4884 18.05C25.4525 18.0141 25.43 17.9781 25.4211 17.9422C25.4121 17.9063 25.4076 17.8524 25.4076 17.7805C25.5513 17.7446 25.677 17.7626 25.7848 17.8344C25.8926 17.9063 25.9644 18.032 26.0003 18.2116C26.0363 18.3194 26.0632 18.4272 26.0812 18.535C26.0991 18.6427 26.144 18.7505 26.2159 18.8583C26.2518 18.8224 26.3012 18.8179 26.3641 18.8448C26.4269 18.8718 26.4763 18.9032 26.5123 18.9391ZM13.6603 21.1754C13.8758 21.3191 14.0689 21.3416 14.2396 21.2428C14.4102 21.144 14.6033 21.0766 14.8188 21.0407C14.8188 21.2203 14.8458 21.3775 14.8997 21.5122C14.9536 21.6469 14.9266 21.8041 14.8188 21.9837C14.7829 22.0196 14.7739 22.069 14.7919 22.1319C14.8099 22.1948 14.8188 22.2442 14.8188 22.2801C14.8188 22.3519 14.8009 22.4103 14.765 22.4552C14.729 22.5001 14.6751 22.4867 14.6033 22.4148C14.5674 22.4507 14.5404 22.4911 14.5225 22.536C14.5045 22.581 14.4776 22.6393 14.4416 22.7112C14.2979 22.4597 14.1677 22.2037 14.051 21.9433C13.9342 21.6828 13.804 21.4269 13.6603 21.1754ZM21.7163 9.56282C22.0037 9.70652 22.2417 9.8592 22.4303 10.0209C22.6189 10.1825 22.7941 10.3711 22.9557 10.5867C22.7941 10.6226 22.583 10.5328 22.3226 10.3172C22.0621 10.1017 21.86 9.85022 21.7163 9.56282ZM10.3732 18.2116L9.86127 18.2925V18.1308L10.3732 18.05V18.2116Z" fill="#008E7C"/>
</g>
<defs>
<clipPath id="clip0_228_18613">
<rect width="27.59" height="28" fill="white" transform="matrix(1 0 0 -1 0 28.3589)"/>
</clipPath>
</defs>
</svg>
