<svg width="65" height="39" viewBox="0 0 65 39" fill="none" xmlns="http://www.w3.org/2000/svg">
<path d="M0 19.5C0 8.73045 8.73045 0 19.5 0H45.5C56.2696 0 65 8.73045 65 19.5C65 30.2696 56.2696 39 45.5 39H19.5C8.73045 39 0 30.2696 0 19.5Z" fill="#3B3A3F"/>
<path d="M35.9687 21.9463C37.8159 20.9139 39.2284 20.1273 39.3492 20.0658C39.7355 19.8569 40.1339 19.3038 39.3492 18.8736C39.0956 18.7385 37.7314 17.9764 35.9687 16.9932L33.542 19.4759L35.9687 21.9463Z" fill="#FFD400"/>
<path d="M33.542 19.4756L25.7911 27.4277C25.9722 27.4523 26.1774 27.4031 26.4189 27.2679C26.926 26.9852 32.3106 23.9863 35.9687 21.946L33.542 19.4756Z" fill="#FF3333"/>
<path d="M33.542 19.4762L35.9687 16.9934C35.9687 16.9934 26.9622 11.9911 26.4189 11.6961C26.2136 11.5732 25.9842 11.5363 25.779 11.5732L33.542 19.4762Z" fill="#48FF48"/>
<path d="M33.5421 19.4757L25.779 11.5728C25.4651 11.6465 25.1995 11.9292 25.1995 12.5069C25.1995 13.4287 25.1995 25.7194 25.1995 26.4937C25.1995 27.0222 25.4048 27.4032 25.7911 27.4401L33.5421 19.4757Z" fill="#3BCCFF"/>
</svg>
