<svg width="569" height="378" viewBox="0 0 569 378" fill="none" xmlns="http://www.w3.org/2000/svg">
<g clip-path="url(#clip0_1745_13049)">
<path d="M204.101 217.542C223.6 183.253 260.796 156.924 300.172 159.46C271.127 191.033 254.191 231.858 252.359 274.711C251.713 291.241 252.715 309.693 241.736 322.07C234.905 329.771 224.463 333.501 214.196 334.283C203.929 335.066 193.665 333.211 183.535 331.365L181.077 332.119C180.142 292.687 184.601 251.832 204.101 217.542Z" fill="#F0F0F0"/>
<path d="M300.23 160.286C271.113 174.298 246.285 197.7 231.044 226.24C227.748 232.41 224.943 238.956 223.719 245.877C222.495 252.801 223.35 259.392 225.716 265.969C227.879 271.981 230.788 277.881 231.451 284.314C232.15 291.095 229.654 297.435 225.161 302.467C219.664 308.624 212.282 312.439 204.933 315.919C196.774 319.783 188.237 323.667 182.458 330.879C181.758 331.753 180.442 330.615 181.142 329.743C191.197 317.196 208.408 314.837 220.343 304.73C225.913 300.014 230.094 293.592 229.83 286.066C229.599 279.486 226.605 273.399 224.362 267.331C222.007 260.959 220.833 254.552 221.677 247.758C222.541 240.808 225.097 234.139 228.219 227.911C235.262 213.867 244.9 200.973 255.942 189.827C268.631 177.016 283.419 166.468 299.667 158.641C300.673 158.157 301.229 159.805 300.23 160.286Z" fill="white"/>
<path d="M235.508 216.701C231.044 213.439 227.886 208.696 226.597 203.321C225.309 197.945 225.974 192.287 228.473 187.356C228.982 186.36 230.555 187.104 230.045 188.101C227.709 192.689 227.09 197.959 228.3 202.963C229.51 207.966 232.47 212.372 236.644 215.385C237.551 216.041 236.409 217.354 235.508 216.701Z" fill="white"/>
<path d="M224.218 263.065C235.403 261.431 245.561 255.643 252.667 246.855C253.37 245.984 254.686 247.121 253.984 247.991C246.572 257.122 235.989 263.124 224.345 264.799C223.235 264.957 223.114 263.223 224.218 263.065Z" fill="white"/>
<path d="M269.49 179.155C270.954 180.777 272.798 182.01 274.857 182.744C276.916 183.478 279.124 183.689 281.285 183.358C282.392 183.185 282.512 184.92 281.412 185.092C279.024 185.446 276.585 185.21 274.308 184.404C272.032 183.599 269.988 182.248 268.354 180.471C268.186 180.316 268.083 180.103 268.066 179.876C268.05 179.648 268.12 179.422 268.264 179.245C268.415 179.071 268.629 178.965 268.859 178.948C269.088 178.931 269.315 179.005 269.49 179.155Z" fill="white"/>
<path d="M378.516 267.631C377.828 267.759 377.139 267.886 376.445 268.027C367.199 269.79 358.112 272.301 349.273 275.535C348.586 275.775 347.893 276.027 347.214 276.286C326.002 284.304 306.464 296.19 289.592 311.339C282.885 317.373 276.646 323.908 270.93 330.888C263.036 340.529 255.245 351.61 244.93 357.895C243.861 358.563 242.752 359.164 241.609 359.695L182.188 335.057C182.081 334.934 181.968 334.823 181.86 334.699L179.443 333.824C179.713 333.443 180 333.054 180.27 332.674C180.426 332.452 180.594 332.236 180.75 332.015C180.858 331.869 180.966 331.723 181.055 331.586C181.091 331.537 181.127 331.488 181.157 331.453C181.246 331.315 181.344 331.197 181.427 331.073C183.03 328.894 184.651 326.723 186.29 324.56C186.296 324.546 186.296 324.546 186.315 324.538C198.847 308.085 212.863 292.533 228.795 279.602C229.275 279.213 229.759 278.81 230.266 278.432C237.479 272.644 245.154 267.454 253.214 262.915C257.635 260.444 262.179 258.198 266.827 256.186C278.847 251.01 291.608 247.757 304.64 246.546C330.619 244.134 357.081 250.055 377.006 266.37C377.515 266.788 378.012 267.2 378.516 267.631Z" fill="#F0F0F0"/>
<path d="M378.07 268.33C346.382 261.993 312.464 265.736 283.105 279.35C276.758 282.294 270.575 285.832 265.43 290.621C260.282 295.413 256.995 301.191 254.923 307.866C253.029 313.968 251.798 320.429 248.453 325.965C244.927 331.799 239.116 335.36 232.498 336.673C224.4 338.281 216.208 336.884 208.245 335.24C199.402 333.414 190.247 331.378 181.289 333.658C180.204 333.934 179.838 332.234 180.922 331.959C196.507 327.992 211.67 336.468 227.288 335.581C234.575 335.167 241.781 332.555 246.103 326.388C249.882 320.995 251.157 314.333 253.022 308.138C254.979 301.633 257.901 295.81 262.667 290.894C267.542 285.865 273.599 282.078 279.843 278.985C293.926 272.01 309.387 267.516 324.916 265.262C342.764 262.67 360.924 263.148 378.611 266.677C379.706 266.896 379.158 268.547 378.07 268.33Z" fill="white"/>
<path d="M292.414 274.421C290.815 269.13 291.15 263.442 293.359 258.375C295.568 253.307 299.506 249.189 304.472 246.757C305.478 246.268 306.285 247.808 305.278 248.298C300.65 250.554 296.981 254.391 294.934 259.114C292.887 263.837 292.596 269.136 294.114 274.055C294.443 275.124 292.741 275.485 292.414 274.421Z" fill="white"/>
<path d="M255.475 304.645C265.39 310.072 276.987 311.565 287.953 308.825C289.04 308.552 289.405 310.252 288.32 310.524C276.903 313.354 264.838 311.777 254.533 306.106C253.551 305.565 254.499 304.107 255.475 304.645Z" fill="white"/>
<path d="M342.161 264.894C342.353 267.071 343.083 269.165 344.285 270.99C345.486 272.815 347.123 274.313 349.047 275.349C350.035 275.878 349.086 277.335 348.104 276.81C345.984 275.655 344.179 273.999 342.846 271.986C341.514 269.972 340.695 267.664 340.461 265.261C340.42 265.037 340.466 264.805 340.59 264.613C340.714 264.421 340.906 264.284 341.128 264.228C341.353 264.181 341.588 264.224 341.782 264.349C341.975 264.474 342.112 264.67 342.161 264.894Z" fill="white"/>
<path d="M265.323 308.279C257.002 268.057 246.6 254.646 246.6 254.646L242.626 251.566L237.847 247.855L237.87 247.378L236.736 246.993L236.47 246.786L236.034 246.451L235.964 246.527L235.815 246.68L214.19 239.332L186.755 230.016L174.051 213.509C171.982 210.821 169.318 208.648 166.268 207.161C163.218 205.674 159.866 204.913 156.472 204.939L115.899 205.239C110.413 205.279 105.141 207.37 101.119 211.099L74.4503 235.827L32.8961 255.666L32.8259 255.595L32.3896 255.907L25.9691 258.976L26.234 260.355L22.2601 263.221C22.2601 263.221 11.858 275.699 3.53619 313.125C1.41923 322.648 0.37718 343.076 0.00105698 368.249C-0.0178356 369.522 0.216708 370.787 0.691043 371.969C1.16538 373.151 1.87005 374.227 2.76407 375.134C3.6581 376.041 4.72364 376.762 5.89876 377.254C7.07387 377.746 8.3351 377.999 9.60912 378H231.558L259.261 378C260.534 377.999 261.794 377.746 262.968 377.254C264.143 376.763 265.208 376.043 266.102 375.137C266.995 374.231 267.7 373.156 268.175 371.975C268.65 370.795 268.886 369.531 268.869 368.259C268.501 340.867 267.46 318.606 265.323 308.279Z" fill="#3F3D56"/>
<path d="M293.8 35.0771C285.165 35.0771 276.884 38.5062 270.778 44.6099C264.672 50.7136 261.242 58.9919 261.242 67.6239C261.242 76.2558 264.672 84.5342 270.778 90.6379C276.884 96.7416 285.165 100.171 293.8 100.171H536.441C545.076 100.171 553.358 96.7416 559.464 90.6379C565.57 84.5342 569 76.2558 569 67.6239C569 58.9919 565.57 50.7136 559.464 44.6099C553.358 38.5062 545.076 35.0771 536.441 35.0771H293.8Z" fill="#E5E5E5"/>
<path d="M293.801 41.6636C286.913 41.6636 280.308 44.3986 275.437 49.2671C270.567 54.1355 267.831 60.7385 267.831 67.6235C267.831 74.5085 270.567 81.1115 275.437 85.9799C280.308 90.8483 286.913 93.5834 293.801 93.5834H536.441C543.329 93.5834 549.934 90.8483 554.804 85.9799C559.675 81.1115 562.411 74.5085 562.411 67.6235C562.411 60.7385 559.675 54.1355 554.804 49.2671C549.934 44.3986 543.329 41.6636 536.441 41.6636H293.801Z" fill="white"/>
<path d="M142.557 189.702C171.914 189.702 195.712 165.912 195.712 136.566C195.712 107.221 171.914 83.4312 142.557 83.4312C113.201 83.4312 89.4023 107.221 89.4023 136.566C89.4023 165.912 113.201 189.702 142.557 189.702Z" fill="#9E616A"/>
<path d="M128.959 187.1C128.732 186.6 128.506 186.099 128.28 185.596C128.367 185.598 128.453 185.611 128.54 185.613L128.959 187.1Z" fill="#2F2E41"/>
<path d="M87.924 85.8476C90.6125 83.7038 93.7546 81.7313 97.1919 81.8421C100.629 81.9529 104.115 85.0561 103.403 88.4194C109.716 77.245 119.765 68.6505 131.786 64.1446C143.807 59.6388 157.032 59.5094 169.139 63.7793C177.681 66.7922 186.059 72.8198 188.022 81.6604C188.525 83.9298 188.634 86.4182 190.051 88.2611C191.838 90.5845 195.258 91.1101 198.074 90.2928C198.102 90.2846 198.13 90.2763 198.158 90.2679C198.634 90.1056 199.147 90.0896 199.632 90.2221C200.117 90.3546 200.551 90.6295 200.878 91.0112C201.204 91.3929 201.409 91.8639 201.465 92.3632C201.521 92.8625 201.426 93.3672 201.193 93.812L198.775 98.3184C201.822 98.9973 204.988 98.93 208.004 98.1222C208.505 97.9909 209.034 98.0177 209.519 98.1989C210.004 98.3802 210.421 98.7071 210.713 99.1347C211.005 99.5623 211.158 100.07 211.15 100.587C211.142 101.105 210.974 101.607 210.669 102.026C202.698 112.965 189.382 120.028 175.793 119.945C166.135 119.887 156.378 116.559 146.978 118.779C143.342 119.638 139.944 121.3 137.034 123.643C134.124 125.986 131.776 128.95 130.162 132.318C128.547 135.687 127.708 139.374 127.704 143.109C127.701 146.844 128.535 150.532 130.144 153.903C127.256 150.746 121.674 151.493 118.72 154.589C115.767 157.684 115.002 162.305 115.3 166.572C115.755 173.099 118.313 179.25 121.01 185.235C98.3985 184.524 77.0117 168.668 69.8129 147.223C62.5839 125.688 70.1601 100.013 87.924 85.8476Z" fill="#2F2E41"/>
<path opacity="0.2" d="M52.3184 296.135L67.2271 377.221L76.1728 378L52.3184 296.135Z" fill="black"/>
<path opacity="0.2" d="M216.541 290.02L201.633 377.163L192.687 378L216.541 290.02Z" fill="black"/>
<path d="M100.64 58.5583C97.7817 59.7515 94.7989 58.4438 93.548 55.4492C92.278 52.4088 93.4642 49.3223 96.3685 48.11C99.2732 46.8976 102.203 48.2084 103.493 51.2979C104.765 54.341 103.591 57.3265 100.64 58.5583ZM95.1645 42.1255L92.8916 43.0742C92.3238 43.3084 91.6888 43.321 91.1121 43.1096C90.5354 42.8982 90.0592 42.4781 89.7775 41.9324L89.6651 41.7126C87.2195 37.3037 86.9395 31.9454 88.8372 25.7947C90.5952 20.2772 91.3254 16.3969 89.857 12.8814C88.1591 8.81693 84.5337 7.54372 79.9104 9.3881C78.1172 10.1366 77.5466 10.1246 76.1355 11.524C75.8286 11.8321 75.4627 12.0752 75.0597 12.2389C74.6567 12.4026 74.2249 12.4835 73.79 12.4768C73.3695 12.4718 72.9544 12.3823 72.5693 12.2135C72.1842 12.0447 71.8371 11.8001 71.5486 11.4943C70.9928 10.905 70.6814 10.1269 70.6773 9.31696C70.6732 8.50706 70.9767 7.72578 71.5265 7.13091C73.8984 4.64897 76.7591 2.68544 79.9283 1.36423C89.8617 -2.78211 94.8623 3.33937 97.1507 8.81752C99.3889 14.1758 98.1298 19.1473 96.1068 25.586C94.4115 30.9362 94.5103 34.9006 96.436 38.8424C96.5751 39.1404 96.6524 39.4634 96.6635 39.792C96.6745 40.1207 96.6189 40.4481 96.5002 40.7548C96.3814 41.0614 96.2019 41.3409 95.9724 41.5765C95.7428 41.812 95.468 41.9988 95.1645 42.1255Z" fill="#008E7C"/>
<path d="M347.397 83.1461H299.12C298.967 83.1471 298.815 83.1178 298.673 83.0599C298.531 83.0019 298.402 82.9165 298.293 82.8084C298.184 82.7004 298.098 82.5719 298.039 82.4304C297.98 82.2888 297.95 82.137 297.95 81.9837C297.95 81.8304 297.98 81.6786 298.039 81.537C298.098 81.3955 298.184 81.267 298.293 81.159C298.402 81.0509 298.531 80.9655 298.673 80.9075C298.815 80.8496 298.967 80.8203 299.12 80.8213H347.397C347.704 80.8234 347.998 80.9468 348.214 81.1645C348.43 81.3823 348.552 81.6768 348.552 81.9837C348.552 82.2906 348.43 82.5851 348.214 82.8028C347.998 83.0206 347.704 83.144 347.397 83.1461Z" fill="#008E7C"/>
<path d="M408.639 83.5338H360.362C360.209 83.5348 360.057 83.5055 359.915 83.4476C359.773 83.3896 359.644 83.3042 359.535 83.1961C359.426 83.0881 359.34 82.9596 359.281 82.8181C359.222 82.6765 359.191 82.5247 359.191 82.3714C359.191 82.2181 359.222 82.0663 359.281 81.9247C359.34 81.7832 359.426 81.6547 359.535 81.5467C359.644 81.4386 359.773 81.3532 359.915 81.2952C360.057 81.2373 360.209 81.208 360.362 81.209H408.639C408.792 81.208 408.944 81.2373 409.086 81.2952C409.228 81.3532 409.357 81.4386 409.466 81.5467C409.575 81.6547 409.661 81.7832 409.72 81.9247C409.779 82.0663 409.809 82.2181 409.809 82.3714C409.809 82.5247 409.779 82.6765 409.72 82.8181C409.661 82.9596 409.575 83.0881 409.466 83.1961C409.357 83.3042 409.228 83.3896 409.086 83.4476C408.944 83.5055 408.792 83.5348 408.639 83.5338Z" fill="#008E7C"/>
<path d="M469.88 83.921H421.604C421.297 83.9189 421.003 83.7955 420.787 83.5777C420.57 83.36 420.449 83.0655 420.449 82.7586C420.449 82.4517 420.57 82.1572 420.787 81.9394C421.003 81.7217 421.297 81.5983 421.604 81.5962H469.88C470.033 81.5952 470.186 81.6245 470.328 81.6824C470.47 81.7404 470.599 81.8258 470.707 81.9339C470.816 82.0419 470.903 82.1704 470.962 82.3119C471.021 82.4535 471.051 82.6053 471.051 82.7586C471.051 82.9119 471.021 83.0637 470.962 83.2053C470.903 83.3468 470.816 83.4753 470.707 83.5833C470.599 83.6914 470.47 83.7768 470.328 83.8348C470.186 83.8927 470.034 83.922 469.88 83.921Z" fill="#008E7C"/>
<path d="M531.121 84.3087H482.845C482.538 84.3066 482.244 84.1832 482.028 83.9654C481.811 83.7476 481.69 83.4532 481.69 83.1463C481.69 82.8393 481.811 82.5449 482.028 82.3271C482.244 82.1093 482.538 81.986 482.845 81.9839H531.121C531.428 81.986 531.722 82.1093 531.938 82.3271C532.155 82.5449 532.276 82.8393 532.276 83.1463C532.276 83.4532 532.155 83.7476 531.938 83.9654C531.722 84.1832 531.428 84.3066 531.121 84.3087Z" fill="#008E7C"/>
<path d="M323.152 72.4487C328.108 72.4487 332.125 68.433 332.125 63.4795C332.125 58.5259 328.108 54.5103 323.152 54.5103C318.197 54.5103 314.18 58.5259 314.18 63.4795C314.18 68.433 318.197 72.4487 323.152 72.4487Z" fill="#008E7C"/>
<path d="M384.764 72.4487C389.719 72.4487 393.736 68.433 393.736 63.4795C393.736 58.5259 389.719 54.5103 384.764 54.5103C379.808 54.5103 375.791 58.5259 375.791 63.4795C375.791 68.433 379.808 72.4487 384.764 72.4487Z" fill="#008E7C"/>
<path d="M446.375 72.4487C451.331 72.4487 455.348 68.433 455.348 63.4795C455.348 58.5259 451.331 54.5103 446.375 54.5103C441.42 54.5103 437.403 58.5259 437.403 63.4795C437.403 68.433 441.42 72.4487 446.375 72.4487Z" fill="#008E7C"/>
<path d="M507.987 72.4487C512.942 72.4487 516.959 68.433 516.959 63.4795C516.959 58.5259 512.942 54.5103 507.987 54.5103C503.031 54.5103 499.014 58.5259 499.014 63.4795C499.014 68.433 503.031 72.4487 507.987 72.4487Z" fill="#008E7C"/>
</g>
<defs>
<clipPath id="clip0_1745_13049">
<rect width="569" height="378" fill="white"/>
</clipPath>
</defs>
</svg>
