<svg width="479" height="75" viewBox="0 0 479 75" fill="none" xmlns="http://www.w3.org/2000/svg">
<path d="M454.593 1.2509V2.5009H454.602L454.61 2.50079L454.593 1.2509ZM468.78 5.13431L467.693 5.75118L468.78 5.13431ZM471.247 23.7719L469.999 23.7136L469.997 23.7427V23.7719H471.247ZM471.247 74.25L478.464 61.75H464.031L471.247 74.25ZM0 1.2509V2.5009H4.05887V1.2509V0.000903606H0V1.2509ZM12.1766 1.2509V2.5009H20.2943V1.2509V0.000903606H12.1766V1.2509ZM28.4121 1.2509V2.5009H36.5298V1.2509V0.000903606H28.4121V1.2509ZM44.6476 1.2509V2.5009H52.7653V1.2509V0.000903606H44.6476V1.2509ZM60.883 1.2509V2.5009H69.0008V1.2509V0.000903606H60.883V1.2509ZM77.1185 1.2509V2.5009H85.2362V1.2509V0.000903606H77.1185V1.2509ZM93.354 1.2509V2.5009H101.472V1.2509V0.000903606H93.354V1.2509ZM109.589 1.2509V2.5009H117.707V1.2509V0.000903606H109.589V1.2509ZM125.825 1.2509V2.5009H133.943V1.2509V0.000903606H125.825V1.2509ZM142.06 1.2509V2.5009H150.178V1.2509V0.000903606H142.06V1.2509ZM158.296 1.2509V2.5009H166.414V1.2509V0.000903606H158.296V1.2509ZM174.531 1.2509V2.5009H182.649V1.2509V0.000903606H174.531V1.2509ZM190.767 1.2509V2.5009H198.885V1.2509V0.000903606H190.767V1.2509ZM207.002 1.2509V2.5009H215.12V1.2509V0.000903606H207.002V1.2509ZM223.238 1.2509V2.5009H231.356V1.2509V0.000903606H223.238V1.2509ZM239.473 1.2509V2.5009H247.591V1.2509V0.000903606H239.473V1.2509ZM255.709 1.2509V2.5009H263.826V1.2509V0.000903606H255.709V1.2509ZM271.944 1.2509V2.5009H280.062V1.2509V0.000903606H271.944V1.2509ZM288.18 1.2509V2.5009H296.297V1.2509V0.000903606H288.18V1.2509ZM304.415 1.2509V2.5009H312.533V1.2509V0.000903606H304.415V1.2509ZM320.651 1.2509V2.5009H328.768V1.2509V0.000903606H320.651V1.2509ZM336.886 1.2509V2.5009H345.004V1.2509V0.000903606H336.886V1.2509ZM353.122 1.2509V2.5009H361.239V1.2509V0.000903606H353.122V1.2509ZM369.357 1.2509V2.5009H377.475V1.2509V0.000903606H369.357V1.2509ZM385.593 1.2509V2.5009H393.71V1.2509V0.000903606H385.593V1.2509ZM401.828 1.2509V2.5009H409.946V1.2509V0.000903606H401.828V1.2509ZM418.063 1.2509V2.5009H426.181V1.2509V0.000903606H418.063V1.2509ZM434.299 1.2509V2.5009H442.417V1.2509V0.000903606H434.299V1.2509ZM450.534 1.2509V2.5009H454.593V1.2509V0.000903606H450.534V1.2509ZM454.593 1.2509C454.61 2.50079 454.61 2.50079 454.61 2.50079C454.61 2.50079 454.61 2.50079 454.61 2.50079C454.61 2.50079 454.61 2.50079 454.61 2.50079C454.61 2.50079 454.61 2.50079 454.61 2.50079C454.611 2.50078 454.612 2.50077 454.613 2.50076C454.615 2.50073 454.619 2.50069 454.624 2.50064C454.635 2.50054 454.652 2.5004 454.674 2.50028C454.719 2.50003 454.787 2.49986 454.876 2.50018C455.055 2.50082 455.317 2.50345 455.646 2.51146C456.304 2.5275 457.227 2.56503 458.28 2.65084L458.382 1.40497L458.483 0.159098C457.373 0.0686309 456.401 0.0291278 455.707 0.0122025C455.359 0.00373161 455.079 0.000895262 454.886 0.000195265C454.789 -0.000154853 454.713 2.92063e-05 454.661 0.000311732C454.635 0.000452995 454.614 0.000618935 454.6 0.000755072C454.593 0.000823259 454.587 0.000883937 454.584 0.000930429C454.582 0.000953674 454.58 0.000973344 454.579 0.000988603C454.578 0.000996232 454.578 0.00100279 454.577 0.00100815C454.577 0.00101078 454.577 0.00101316 454.577 0.00101531C454.577 0.00101626 454.577 0.00101757 454.576 0.00101805C454.576 0.00101936 454.576 0.00102043 454.593 1.2509ZM465.798 2.90098L465.329 4.05938C466.582 4.56751 467.355 5.15476 467.693 5.75118L468.78 5.13431L469.867 4.51744C469.112 3.1871 467.704 2.3248 466.268 1.74258L465.798 2.90098ZM468.78 5.13431L467.693 5.75118C468.278 6.78233 468.743 8.20426 469.097 9.86371L470.319 9.60301L471.542 9.34231C471.164 7.57126 470.633 5.86719 469.867 4.51744L468.78 5.13431ZM471.274 19.0328L470.024 19.063C470.057 20.4177 470.05 21.5847 470.036 22.4118C470.028 22.8251 470.019 23.1531 470.012 23.3765C470.008 23.4882 470.005 23.5737 470.002 23.6307C470.001 23.6592 470 23.6805 470 23.6945C469.999 23.7014 469.999 23.7065 469.999 23.7097C469.999 23.7113 469.999 23.7124 469.999 23.7131C469.999 23.7134 469.999 23.7136 469.999 23.7137C469.999 23.7137 469.999 23.7137 469.999 23.7137C469.999 23.7137 469.999 23.7137 469.999 23.7137C469.999 23.7136 469.999 23.7136 471.247 23.7719C472.496 23.8302 472.496 23.8302 472.496 23.8301C472.496 23.8301 472.496 23.83 472.496 23.8299C472.496 23.8298 472.496 23.8296 472.496 23.8294C472.496 23.829 472.496 23.8285 472.496 23.8278C472.496 23.8265 472.496 23.8248 472.496 23.8225C472.497 23.818 472.497 23.8116 472.497 23.8033C472.498 23.7868 472.499 23.7627 472.5 23.7315C472.503 23.669 472.506 23.5777 472.51 23.46C472.518 23.2247 472.528 22.8836 472.535 22.4561C472.55 21.6014 472.557 20.3988 472.523 19.0026L471.274 19.0328ZM471.247 23.7719H469.997V27.9784H471.247H472.497V23.7719H471.247ZM471.247 36.3914H469.997V44.8044H471.247H472.497V36.3914H471.247ZM471.247 53.2175H469.997V61.6305H471.247H472.497V53.2175H471.247Z" fill="url(#paint0_linear_9230_18880)"/>
<defs>
<linearGradient id="paint0_linear_9230_18880" x1="0" y1="37.75" x2="471.298" y2="37.75" gradientUnits="userSpaceOnUse">
<stop stop-color="#666666" stop-opacity="0"/>
<stop offset="1" stop-color="#FFD300"/>
</linearGradient>
</defs>
</svg>
