<svg width="42" height="43" viewBox="0 0 42 43" fill="none" xmlns="http://www.w3.org/2000/svg">
<path d="M26.25 35.5L31.5 30.25H35C35.9283 30.25 36.8185 29.8813 37.4749 29.2249C38.1313 28.5685 38.5 27.6783 38.5 26.75V11C38.5 10.0717 38.1313 9.1815 37.4749 8.52513C36.8185 7.86875 35.9283 7.5 35 7.5H7C6.07174 7.5 5.1815 7.86875 4.52513 8.52513C3.86875 9.1815 3.5 10.0717 3.5 11V26.75C3.5 27.6783 3.86875 28.5685 4.52513 29.2249C5.1815 29.8813 6.07174 30.25 7 30.25H10.5L15.75 35.5H26.25Z" stroke="#FFD300" stroke-width="1.5" stroke-linecap="round" stroke-linejoin="round"/>
<path d="M10.5 14.5V16.25" stroke="#FFD300" stroke-width="1.5" stroke-linecap="round" stroke-linejoin="round"/>
<path d="M17.5 14.5V16.25" stroke="#FFD300" stroke-width="1.5" stroke-linecap="round" stroke-linejoin="round"/>
<path d="M24.5 14.5V16.25" stroke="#FFD300" stroke-width="1.5" stroke-linecap="round" stroke-linejoin="round"/>
<path d="M31.5 14.5V16.25" stroke="#FFD300" stroke-width="1.5" stroke-linecap="round" stroke-linejoin="round"/>
</svg>
