<svg width="52" height="51" viewBox="0 0 52 51" fill="none" xmlns="http://www.w3.org/2000/svg">
<rect x="0.5" width="51" height="51" rx="25.5" fill="#FFD300" fill-opacity="0.2"/>
<g clip-path="url(#clip0_1772_4880)">
<path d="M17.5011 40.9999V14C17.5011 13.2043 17.8172 12.4413 18.3798 11.8787C18.9424 11.3161 19.7054 11 20.5011 11H32.5011C33.2967 11 34.0598 11.3161 34.6224 11.8787C35.185 12.4413 35.5011 13.2043 35.5011 14V40.9999H17.5011Z" stroke="#FFD300" stroke-width="1.5" stroke-linecap="round" stroke-linejoin="round"/>
<path d="M17.5 26H14.5C13.7043 26 12.9413 26.3161 12.3787 26.8787C11.8161 27.4413 11.5 28.2043 11.5 29V38C11.5 38.7956 11.8161 39.5587 12.3787 40.1213C12.9413 40.6839 13.7043 41 14.5 41H17.5" stroke="#FFD300" stroke-width="1.5" stroke-linecap="round" stroke-linejoin="round"/>
<path d="M35.5011 21.5H38.5011C39.2967 21.5 40.0598 21.8161 40.6224 22.3787C41.185 22.9413 41.5011 23.7043 41.5011 24.5V38C41.5011 38.7956 41.185 39.5587 40.6224 40.1213C40.0598 40.6839 39.2967 41 38.5011 41H35.5011" stroke="#FFD300" stroke-width="1.5" stroke-linecap="round" stroke-linejoin="round"/>
<path d="M23.5023 17H29.5023" stroke="#FFD300" stroke-width="1.5" stroke-linecap="round" stroke-linejoin="round"/>
<path d="M23.5023 23H29.5023" stroke="#FFD300" stroke-width="1.5" stroke-linecap="round" stroke-linejoin="round"/>
<path d="M23.5023 29.0002H29.5023" stroke="#FFD300" stroke-width="1.5" stroke-linecap="round" stroke-linejoin="round"/>
<path d="M23.5023 35H29.5023" stroke="#FFD300" stroke-width="1.5" stroke-linecap="round" stroke-linejoin="round"/>
</g>
<defs>
<clipPath id="clip0_1772_4880">
<rect width="32" height="32" fill="white" transform="translate(10.5 10)"/>
</clipPath>
</defs>
</svg>
