<svg width="28" height="29" viewBox="0 0 28 29" fill="none" xmlns="http://www.w3.org/2000/svg">
<g id="Icon" clip-path="url(#clip0_228_18589)">
<path id="Vector" d="M9.21466 0.80378H9.37632L9.59187 1.23487C9.66371 1.34265 9.78047 1.44144 9.94213 1.53125C10.1038 1.62106 10.2744 1.648 10.4541 1.61208H11.1815C11.2534 1.57615 11.3252 1.54023 11.3971 1.50431C11.4689 1.46838 11.5408 1.45042 11.6126 1.45042C11.6845 1.45042 11.7698 1.44144 11.8686 1.42348C11.9674 1.40551 12.0527 1.39653 12.1245 1.39653V1.45042C12.0527 1.48634 12.0213 1.53574 12.0302 1.59861C12.0392 1.66148 12.0437 1.71087 12.0437 1.7468C12.0796 1.8905 12.1425 1.99827 12.2323 2.07012C12.3221 2.14197 12.4838 2.17789 12.7173 2.17789C12.7532 2.17789 12.7981 2.18238 12.852 2.19136C12.9059 2.20034 12.9508 2.2228 12.9867 2.25872C13.0945 2.33057 13.2247 2.39793 13.3774 2.4608C13.5301 2.52366 13.6244 2.62695 13.6603 2.77065V2.82453C13.7322 2.89638 13.804 2.95925 13.8759 3.01313C13.9477 3.06702 14.0375 3.12989 14.1453 3.20174C14.1812 3.20174 14.2306 3.18827 14.2935 3.16132C14.3563 3.13438 14.3878 3.12091 14.3878 3.12091C14.4596 3.22868 14.5315 3.2691 14.6033 3.24215C14.6752 3.21521 14.747 3.20174 14.8189 3.20174C14.8907 3.20174 14.976 3.21521 15.0748 3.24215C15.1736 3.2691 15.259 3.30053 15.3308 3.33645C15.4386 3.4083 15.5463 3.49362 15.6541 3.59242C15.7619 3.69121 15.8697 3.77653 15.9774 3.84838C16.0493 3.8843 16.0897 3.92472 16.0987 3.96962C16.1077 4.01453 16.0942 4.07291 16.0583 4.14476C16.0223 4.18068 16.0089 4.23906 16.0179 4.31989C16.0268 4.40072 16.0852 4.4591 16.193 4.49502C16.3008 4.53094 16.3681 4.58483 16.3951 4.65668C16.422 4.72853 16.4714 4.80038 16.5433 4.87223C16.6151 4.90815 16.651 4.95755 16.651 5.02041C16.651 5.08328 16.6151 5.13268 16.5433 5.1686C16.5073 5.20453 16.4714 5.22698 16.4355 5.23596C16.3996 5.24494 16.3636 5.2674 16.3277 5.30332C16.2918 5.33924 16.2603 5.3617 16.2334 5.37068C16.2065 5.37966 16.193 5.40211 16.193 5.43804L16.3277 5.5997C16.3277 5.56377 16.3412 5.52785 16.3681 5.49192C16.3951 5.456 16.4085 5.42007 16.4085 5.38415C16.4445 5.3123 16.4939 5.25842 16.5567 5.22249C16.6196 5.18657 16.6869 5.18657 16.7588 5.22249C16.8486 5.25842 16.9294 5.29883 17.0013 5.34373C17.0731 5.38864 17.145 5.44702 17.2168 5.51887L16.8396 5.94996L16.9205 6.03079L17.4324 5.73441C17.612 5.87811 17.8096 5.9769 18.0251 6.03079C18.2407 6.08468 18.4742 6.12958 18.7257 6.16551V6.46189C18.7616 6.46189 18.7975 6.46189 18.8334 6.46189C18.8694 6.46189 18.9053 6.43494 18.9412 6.38105H20.0459C20.2255 6.34513 20.4006 6.3586 20.5713 6.42147C20.7419 6.48434 20.8811 6.56966 20.9889 6.67743C21.0967 6.78521 21.2045 6.87951 21.3122 6.96034C21.42 7.04117 21.5278 7.11751 21.6355 7.18936C21.7792 7.2612 21.896 7.33754 21.9858 7.41837C22.0756 7.4992 22.1565 7.59351 22.2283 7.70128C22.3001 7.84498 22.3091 8.00664 22.2552 8.18626C22.2014 8.36588 22.1385 8.5455 22.0666 8.72513C22.0307 8.79698 22.0083 8.86433 21.9993 8.9272C21.9903 8.99007 21.9678 9.03947 21.9319 9.07539C21.9319 9.11131 21.9274 9.14724 21.9185 9.18316C21.9095 9.21909 21.887 9.23705 21.8511 9.23705C21.7433 9.27298 21.6625 9.32237 21.6086 9.38524C21.5547 9.44811 21.4918 9.51546 21.42 9.58731C21.2763 9.73101 21.1416 9.86573 21.0158 9.99146C20.8901 10.1172 20.8093 10.2519 20.7734 10.3956V10.665C20.7734 10.7189 20.7823 10.7728 20.8003 10.8267C20.8183 10.8806 20.8272 10.9255 20.8272 10.9614V11.9853C20.7554 12.093 20.688 12.2008 20.6252 12.3086C20.5623 12.4164 20.5129 12.5241 20.477 12.6319C20.4051 12.7397 20.3512 12.8609 20.3153 12.9956C20.2794 13.1304 20.2614 13.2516 20.2614 13.3594C20.2614 13.5031 20.2075 13.5929 20.0998 13.6288C19.992 13.6647 19.9022 13.7186 19.8303 13.7905C19.6507 13.8983 19.4486 13.9611 19.2241 13.9791C18.9996 13.997 18.8155 14.0869 18.6718 14.2485H18.5909C18.4832 14.3204 18.3709 14.3787 18.2542 14.4236C18.1374 14.4686 18.0072 14.5269 17.8635 14.5988C17.7916 14.6347 17.7198 14.6841 17.6479 14.747C17.5761 14.8098 17.5042 14.8772 17.4324 14.949C17.4324 14.949 17.4279 14.967 17.4189 15.0029C17.4099 15.0389 17.3875 15.0748 17.3516 15.1107C17.2797 15.2185 17.2483 15.3397 17.2572 15.4744C17.2662 15.6092 17.2707 15.7573 17.2707 15.919C17.2707 15.9549 17.2707 15.9864 17.2707 16.0133C17.2707 16.0402 17.2528 16.0537 17.2168 16.0537C17.0731 16.1974 16.9249 16.3321 16.7723 16.4579C16.6196 16.5836 16.5253 16.7363 16.4894 16.9159C16.4534 16.9159 16.404 16.9294 16.3412 16.9563C16.2783 16.9833 16.2289 16.9967 16.193 16.9967C16.1571 17.1045 16.1211 17.1988 16.0852 17.2796C16.0493 17.3605 16.0134 17.4548 15.9774 17.5625C15.9415 17.6883 15.8966 17.814 15.8427 17.9398C15.7888 18.0655 15.69 18.1643 15.5463 18.2361C15.4745 18.308 15.3982 18.3753 15.3173 18.4382C15.2365 18.5011 15.1422 18.5505 15.0344 18.5864C14.9267 18.6223 14.8189 18.6403 14.7111 18.6403C14.6033 18.6403 14.4956 18.6762 14.3878 18.7481H14.307C14.1992 18.7121 14.0914 18.6762 13.9836 18.6403C13.8759 18.6044 13.7681 18.5864 13.6603 18.5864H13.4987C13.4987 18.6223 13.5031 18.6582 13.5121 18.6942C13.5211 18.7301 13.5436 18.7481 13.5795 18.7481C13.6154 18.784 13.6558 18.8019 13.7007 18.8019C13.7456 18.8019 13.804 18.8019 13.8759 18.8019C13.9477 18.8379 13.9971 18.8648 14.024 18.8828C14.051 18.9007 14.0465 18.9456 14.0106 19.0175C13.9747 19.0893 13.9612 19.1567 13.9702 19.2196C13.9791 19.2824 14.0375 19.3139 14.1453 19.3139C14.2351 19.3498 14.28 19.3902 14.28 19.4351C14.28 19.48 14.262 19.5384 14.2261 19.6102L13.795 20.0413C13.5795 20.185 13.3415 20.3018 13.081 20.3916C12.8206 20.4814 12.5287 20.5084 12.2054 20.4724C12.2054 20.5084 12.2054 20.5443 12.2054 20.5802C12.2054 20.6161 12.2233 20.6521 12.2593 20.688V20.8496C12.2593 20.8856 12.2503 20.935 12.2323 20.9978C12.2144 21.0607 12.2054 21.1101 12.2054 21.146C12.2054 21.2179 12.1874 21.2718 12.1515 21.3077C12.1156 21.3436 12.0617 21.3795 11.9898 21.4154C11.918 21.4154 11.8461 21.4154 11.7743 21.4154C11.7024 21.4154 11.6216 21.3975 11.5318 21.3616C11.4959 21.3616 11.4465 21.3436 11.3836 21.3077C11.3207 21.2718 11.2534 21.2358 11.1815 21.1999C11.1815 21.3077 11.195 21.3885 11.2219 21.4424C11.2489 21.4963 11.2624 21.5591 11.2624 21.631C11.2624 21.7028 11.2803 21.7612 11.3162 21.8061C11.3522 21.851 11.4061 21.8914 11.4779 21.9274C11.5138 21.9274 11.5542 21.9139 11.5991 21.887C11.6441 21.86 11.7024 21.8465 11.7743 21.8465C11.8102 21.8825 11.8371 21.9229 11.8551 21.9678C11.8731 22.0127 11.8641 22.0711 11.8282 22.1429C11.7922 22.1788 11.7563 22.1968 11.7204 22.1968C11.6845 22.1968 11.6216 22.1788 11.5318 22.1429H11.3162L11.4779 22.3585C11.2264 22.3944 11.0648 22.4483 10.9929 22.5201C10.9211 22.592 10.8851 22.6908 10.8851 22.8165C10.8851 22.8884 10.8762 22.9557 10.8582 23.0186C10.8402 23.0814 10.7774 23.1308 10.6696 23.1668C10.5978 23.2027 10.5304 23.2386 10.4675 23.2745C10.4047 23.3105 10.3553 23.3464 10.3193 23.3823C10.2116 23.4542 10.1397 23.5305 10.1038 23.6113C10.0679 23.6922 10.0679 23.7865 10.1038 23.8942C10.1397 24.002 10.1936 24.0784 10.2654 24.1233C10.3373 24.1682 10.4451 24.2086 10.5888 24.2445C10.6606 24.2445 10.7055 24.2625 10.7235 24.2984C10.7414 24.3343 10.7504 24.3702 10.7504 24.4062C10.7504 24.4421 10.7325 24.478 10.6965 24.5139C10.6606 24.5499 10.6247 24.5858 10.5888 24.6217C10.481 24.7654 10.3553 24.9001 10.2116 25.0259C10.0679 25.1516 9.97805 25.3043 9.94213 25.4839L9.8613 25.5647C9.7176 25.7084 9.60534 25.8476 9.52451 25.9823C9.44368 26.1171 9.43919 26.2922 9.51103 26.5077C9.54696 26.5796 9.58288 26.638 9.61881 26.6829C9.65473 26.7278 9.69066 26.7862 9.72658 26.858C9.69066 26.858 9.65473 26.849 9.61881 26.8311C9.58288 26.8131 9.54696 26.8041 9.51103 26.8041C9.47511 26.8041 9.43919 26.8041 9.40326 26.8041C9.36734 26.8041 9.33141 26.8221 9.29549 26.858L9.4302 27.0197H9.59187C9.66371 27.0197 9.70862 27.0466 9.72658 27.1005C9.74454 27.1544 9.7176 27.1993 9.64575 27.2352L9.59187 27.316H9.64575C9.68168 27.352 9.7176 27.3879 9.75353 27.4238C9.78945 27.4597 9.80741 27.4957 9.80741 27.5316C9.84334 27.6753 9.91968 27.7876 10.0364 27.8684C10.1532 27.9492 10.3193 28.0076 10.5349 28.0435C10.6067 28.0435 10.6651 28.0435 10.71 28.0435C10.7549 28.0435 10.8133 28.0615 10.8851 28.0974V28.1782C10.7055 28.2142 10.5214 28.2636 10.3328 28.3264C10.1442 28.3893 9.94213 28.3848 9.72658 28.3129C9.72658 28.3489 9.73107 28.3848 9.74005 28.4207C9.74903 28.4566 9.77149 28.4746 9.80741 28.4746V28.3938L9.4302 28.1782V28.3938H9.37632L8.99911 28.0435L8.91828 28.2591C8.88236 28.1872 8.83745 28.1109 8.78356 28.03C8.72968 27.9492 8.61292 27.9537 8.4333 28.0435V27.9627L8.64885 27.801V27.5855C8.7207 27.6214 8.77458 27.6573 8.81051 27.6933C8.84643 27.7292 8.88236 27.7651 8.91828 27.801V27.5316H8.99911L9.07994 27.801H9.16077C9.16077 27.7292 9.16975 27.6483 9.18771 27.5585C9.20568 27.4687 9.26854 27.4059 9.37632 27.3699H9.21466C9.17873 27.3699 9.14281 27.361 9.10688 27.343C9.07096 27.325 9.03504 27.316 8.99911 27.316C9.03504 27.2801 9.06198 27.2442 9.07994 27.2083C9.0979 27.1723 9.12485 27.1544 9.16077 27.1544C9.1967 27.1544 9.21915 27.1409 9.22813 27.114C9.23711 27.087 9.25956 27.0556 9.29549 27.0197C9.11587 27.0556 8.99911 27.096 8.94522 27.1409C8.89134 27.1858 8.86439 27.2622 8.86439 27.3699C8.86439 27.4777 8.84194 27.5496 8.79704 27.5855C8.75213 27.6214 8.67579 27.6214 8.56802 27.5855H8.4333V27.801C8.39738 27.801 8.36145 27.801 8.32553 27.801C8.2896 27.801 8.27164 27.7831 8.27164 27.7471C8.23572 27.7112 8.21326 27.6753 8.20428 27.6394C8.1953 27.6034 8.17285 27.5675 8.13692 27.5316L8.21775 27.4508C8.21775 27.3789 8.23572 27.3295 8.27164 27.3026C8.30756 27.2756 8.37941 27.2801 8.48719 27.316C8.55904 27.352 8.61292 27.343 8.64885 27.2891C8.68477 27.2352 8.68477 27.1634 8.64885 27.0736L7.92138 27.316L7.84055 27.2352C7.87647 27.1993 7.9124 27.1544 7.94832 27.1005C7.98424 27.0466 8.02017 27.0197 8.05609 27.0197C8.12794 26.9837 8.20428 26.9613 8.28511 26.9523C8.36594 26.9433 8.46024 26.9388 8.56802 26.9388V26.858C8.42432 26.7862 8.2896 26.7772 8.16387 26.8311C8.03813 26.885 7.90341 26.9478 7.75972 27.0197V26.8041L8.13692 26.6425L7.97526 26.4269L7.84055 26.6425C7.80462 26.6065 7.78217 26.5886 7.77319 26.5886C7.76421 26.5886 7.74175 26.5886 7.70583 26.5886C7.70583 26.5526 7.69236 26.5257 7.66541 26.5077C7.63847 26.4898 7.625 26.4628 7.625 26.4269L7.75972 26.2922C7.72379 26.2922 7.68787 26.2832 7.65194 26.2653C7.61602 26.2473 7.58009 26.2563 7.54417 26.2922C7.47232 26.2922 7.40945 26.2653 7.35557 26.2114C7.30168 26.1575 7.2927 26.1126 7.32862 26.0767C7.4364 26.0048 7.49477 25.906 7.50375 25.7803C7.51274 25.6545 7.55315 25.5378 7.625 25.43V25.2683H7.54417C7.54417 25.3043 7.54417 25.3402 7.54417 25.3761C7.54417 25.412 7.52621 25.448 7.49028 25.4839C7.49028 25.5198 7.47232 25.5423 7.4364 25.5513C7.40047 25.5602 7.36455 25.5647 7.32862 25.5647C7.25677 25.5288 7.20738 25.4884 7.18043 25.4435C7.15349 25.3986 7.17594 25.3402 7.24779 25.2683L7.49028 25.0528C7.49028 25.0169 7.49028 24.9944 7.49028 24.9854C7.49028 24.9765 7.50825 24.954 7.54417 24.9181H7.49028L7.32862 25.0528H7.24779C7.24779 25.0169 7.24779 24.9675 7.24779 24.9046C7.24779 24.8417 7.22983 24.7924 7.19391 24.7564H7.49028L7.54417 24.7025C7.4364 24.6666 7.39149 24.6172 7.40945 24.5544C7.42742 24.4915 7.47232 24.4421 7.54417 24.4062C7.54417 24.4062 7.55764 24.3882 7.58458 24.3523C7.61153 24.3164 7.625 24.2804 7.625 24.2445C7.625 24.2445 7.61153 24.2355 7.58458 24.2176C7.55764 24.1996 7.52621 24.1906 7.49028 24.1906C7.45436 24.1906 7.41394 24.1771 7.36904 24.1502C7.32413 24.1233 7.28372 24.1098 7.24779 24.1098C7.21187 24.1098 7.19391 24.0963 7.19391 24.0694C7.19391 24.0424 7.21187 24.011 7.24779 23.9751V23.6787C7.3376 23.6428 7.40496 23.6068 7.44987 23.5709C7.49477 23.535 7.55315 23.4991 7.625 23.4631L7.49028 23.2476L7.54417 23.1668C7.58009 23.2027 7.61602 23.2251 7.65194 23.2341C7.68787 23.2431 7.70583 23.2656 7.70583 23.3015C7.70583 23.3374 7.70134 23.3733 7.69236 23.4093C7.68338 23.4452 7.66092 23.4811 7.625 23.517C7.55315 23.5889 7.5307 23.6473 7.55764 23.6922C7.58458 23.7371 7.65194 23.7775 7.75972 23.8134C7.72379 23.7416 7.71481 23.6742 7.73277 23.6113C7.75074 23.5485 7.8136 23.517 7.92138 23.517V23.0859C7.9573 22.9422 7.97975 22.7851 7.98874 22.6144C7.99772 22.4438 8.02017 22.2866 8.05609 22.1429C8.09202 22.0711 8.09651 22.0127 8.06957 21.9678C8.04262 21.9229 8.01119 21.8645 7.97526 21.7927C7.86749 21.8645 7.80462 21.9364 7.78666 22.0082C7.7687 22.0801 7.75972 22.1519 7.75972 22.2238V22.4393C7.75972 22.5111 7.74175 22.5605 7.70583 22.5875C7.66991 22.6144 7.59806 22.6099 7.49028 22.574V22.3585C7.52621 22.2866 7.53968 22.2148 7.5307 22.1429C7.52172 22.0711 7.55315 21.9992 7.625 21.9274C7.66092 21.8914 7.6744 21.8286 7.66541 21.7388C7.65643 21.649 7.66991 21.5681 7.70583 21.4963C7.70583 21.4244 7.72828 21.3391 7.77319 21.2403C7.81809 21.1415 7.84055 21.0562 7.84055 20.9844V20.688C7.80462 20.5802 7.78666 20.4904 7.78666 20.4185C7.78666 20.3467 7.80462 20.2659 7.84055 20.1761C7.9124 20.0324 7.97077 19.9021 8.01568 19.7854C8.06058 19.6686 8.101 19.5384 8.13692 19.3947C8.17285 19.2869 8.1953 19.1657 8.20428 19.031C8.21326 18.8962 8.23572 18.775 8.27164 18.6672C8.34349 18.4517 8.39738 18.2361 8.4333 18.0206C8.46922 17.805 8.46922 17.5805 8.4333 17.347C8.4333 17.3111 8.44228 17.2662 8.46024 17.2123C8.47821 17.1584 8.48719 17.1135 8.48719 17.0776C8.52311 16.9698 8.54556 16.871 8.55455 16.7812C8.56353 16.6914 8.56802 16.5926 8.56802 16.4848V15.9729L8.78356 14.7335V14.1677C8.85541 13.9521 8.90481 13.7456 8.93175 13.548C8.9587 13.3504 8.95421 13.1438 8.91828 12.9283C8.88236 12.8205 8.87338 12.6993 8.89134 12.5646C8.9093 12.4298 8.84643 12.3086 8.70273 12.2008C8.52311 12.0571 8.339 11.9134 8.1504 11.7697C7.96179 11.626 7.74175 11.5003 7.49028 11.3925C7.2927 11.3207 7.15798 11.2219 7.08613 11.0961C7.01428 10.9704 6.92447 10.8537 6.8167 10.7459V10.665C6.78077 10.5932 6.75832 10.5214 6.74934 10.4495C6.74036 10.3777 6.71791 10.3058 6.68198 10.234C6.61013 10.1262 6.54727 10.0184 6.49338 9.91063C6.43949 9.80286 6.43051 9.69509 6.46644 9.58731C6.46644 9.44362 6.43051 9.32237 6.35866 9.22358C6.28681 9.12479 6.17904 9.05743 6.03534 9.0215C6.07127 8.89577 6.07576 8.82392 6.04881 8.80596C6.02187 8.78799 5.99044 8.76105 5.95451 8.72513C5.84674 8.5455 5.74795 8.3569 5.65813 8.15932C5.56832 7.96173 5.39768 7.80905 5.14621 7.70128C5.11029 7.66535 5.07885 7.62943 5.05191 7.59351C5.02497 7.55758 5.01149 7.52166 5.01149 7.48573C5.11927 7.41388 5.14172 7.34204 5.07885 7.27019C5.01598 7.19834 4.96659 7.14445 4.93066 7.10852V6.89298C5.03844 6.82113 5.11478 6.75377 5.15968 6.6909C5.20459 6.62803 5.29889 6.57864 5.44259 6.54272C5.47851 6.54272 5.50097 6.52924 5.50995 6.5023C5.51893 6.47536 5.52342 6.43494 5.52342 6.38105H5.36176C5.32583 6.30921 5.28093 6.25532 5.22704 6.21939C5.17315 6.18347 5.14621 6.14754 5.14621 6.11162C5.11029 6.0757 5.09232 6.03977 5.09232 6.00385C5.09232 5.96792 5.09232 5.932 5.09232 5.89607C5.09232 5.86015 5.10131 5.82422 5.11927 5.7883C5.13723 5.75238 5.14621 5.71645 5.14621 5.68053C5.14621 5.6446 5.15968 5.61766 5.18663 5.5997C5.21357 5.58174 5.22704 5.55479 5.22704 5.51887C5.29889 5.41109 5.35727 5.31679 5.40217 5.23596C5.44708 5.15513 5.48749 5.07879 5.52342 5.00694C5.52342 5.00694 5.53689 4.99796 5.56383 4.98C5.59078 4.96204 5.62221 4.95306 5.65813 4.95306C5.72998 4.95306 5.77489 4.93509 5.79285 4.89917C5.81081 4.86325 5.83776 4.80936 5.87368 4.73751C5.87368 4.6477 5.89613 4.57136 5.94104 4.50849C5.98595 4.44562 6.06229 4.39623 6.17006 4.3603C6.27783 4.32438 6.36315 4.23906 6.42602 4.10434C6.48889 3.96962 6.50236 3.85736 6.46644 3.76755C6.46644 3.6957 6.45296 3.61487 6.42602 3.52506C6.39908 3.43525 6.38561 3.35442 6.38561 3.28257C6.38561 3.1748 6.38111 3.06253 6.37213 2.94578C6.36315 2.82902 6.32274 2.71676 6.25089 2.60898C6.53828 2.28566 6.85711 1.96234 7.20738 1.63902C7.55764 1.3157 7.98424 1.08219 8.48719 0.938496C8.52311 1.04627 8.54107 1.15853 8.54107 1.27529C8.54107 1.39204 8.50515 1.50431 8.4333 1.61208L8.64885 1.82763H8.78356V1.53125C8.74764 1.38755 8.73866 1.28876 8.75662 1.23487C8.77458 1.18099 8.85541 1.13608 8.99911 1.10016C9.07096 1.06423 9.13383 1.02382 9.18771 0.97891C9.2416 0.934006 9.25058 0.875628 9.21466 0.80378ZM13.1484 26.2922L12.7712 26.6425H12.6365V26.5077C12.6365 26.4359 12.6859 26.373 12.7847 26.3191C12.8834 26.2653 13.0047 26.2563 13.1484 26.2922ZM13.0676 26.6425C13.1394 26.6065 13.1978 26.5616 13.2427 26.5077C13.2876 26.4539 13.355 26.4269 13.4448 26.4269C13.4807 26.4269 13.5166 26.4314 13.5525 26.4404C13.5885 26.4494 13.6423 26.4718 13.7142 26.5077C13.6783 26.5437 13.6513 26.5796 13.6334 26.6155C13.6154 26.6514 13.5705 26.6874 13.4987 26.7233C13.4627 26.6874 13.4088 26.6649 13.337 26.6559C13.2651 26.647 13.1753 26.6425 13.0676 26.6425Z" fill="#008E7C"/>
</g>
<defs>
<clipPath id="clip0_228_18589">
<rect width="27.59" height="28" fill="white" transform="matrix(1 0 0 -1 0 28.5986)"/>
</clipPath>
</defs>
</svg>
