<svg width="35" height="35" viewBox="0 0 35 35" fill="none" xmlns="http://www.w3.org/2000/svg">
<path d="M11.9293 -1.83657e-06H12.1341L12.4073 0.545276C12.4984 0.681595 12.6463 0.806555 12.8512 0.920154C13.0561 1.03375 13.2724 1.06783 13.5 1.02239H14.422C14.513 0.976954 14.6041 0.931514 14.6951 0.886074C14.7862 0.840634 14.8772 0.817914 14.9683 0.817914C15.0593 0.817914 15.1675 0.806555 15.2927 0.783835C15.4179 0.761115 15.526 0.749755 15.6171 0.749755V0.817914C15.526 0.863354 15.4862 0.925834 15.4976 1.00535C15.5089 1.08487 15.5146 1.14735 15.5146 1.19279C15.5602 1.37455 15.6398 1.51087 15.7537 1.60175C15.8675 1.69263 16.0724 1.73807 16.3683 1.73807C16.4138 1.73807 16.4707 1.74375 16.539 1.75511C16.6073 1.76647 16.6642 1.79487 16.7098 1.84031C16.8463 1.93119 17.0114 2.01639 17.2049 2.09591C17.3984 2.17543 17.5179 2.30607 17.5634 2.48783V2.55599C17.6545 2.64687 17.7455 2.72639 17.8366 2.79455C17.9276 2.86271 18.0415 2.94222 18.178 3.0331C18.2236 3.0331 18.2862 3.01606 18.3659 2.98198C18.4455 2.9479 18.4854 2.93086 18.4854 2.93086C18.5764 3.06718 18.6675 3.1183 18.7585 3.08422C18.8496 3.05014 18.9407 3.0331 19.0317 3.0331C19.1228 3.0331 19.2309 3.05014 19.3561 3.08422C19.4813 3.1183 19.5894 3.15806 19.6805 3.2035C19.8171 3.29438 19.9537 3.4023 20.0902 3.52726C20.2268 3.65222 20.3634 3.76014 20.5 3.85102C20.5911 3.89646 20.6423 3.94758 20.6537 4.00438C20.665 4.06118 20.648 4.13502 20.6024 4.2259C20.5569 4.27134 20.5398 4.34518 20.5512 4.44742C20.5626 4.54966 20.6366 4.6235 20.7732 4.66894C20.9098 4.71438 20.9951 4.78254 21.0293 4.87342C21.0634 4.9643 21.126 5.05518 21.2171 5.14605C21.3081 5.19149 21.3537 5.25397 21.3537 5.33349C21.3537 5.41301 21.3081 5.47549 21.2171 5.52093C21.1715 5.56637 21.126 5.59477 21.0805 5.60613C21.035 5.61749 20.9894 5.64589 20.9439 5.69133C20.8984 5.73677 20.8585 5.76517 20.8244 5.77653C20.7902 5.78789 20.7732 5.81629 20.7732 5.86173L20.9439 6.06621C20.9439 6.02077 20.961 5.97533 20.9951 5.92989C21.0293 5.88445 21.0463 5.83901 21.0463 5.79357C21.0919 5.70269 21.1545 5.63453 21.2341 5.58909C21.3138 5.54365 21.3992 5.54365 21.4902 5.58909C21.6041 5.63453 21.7065 5.68565 21.7976 5.74245C21.8886 5.79925 21.9797 5.87309 22.0707 5.96397L21.5927 6.50925L21.6951 6.61149L22.3439 6.23661C22.5715 6.41837 22.822 6.54333 23.0951 6.61149C23.3683 6.67965 23.6642 6.73645 23.9829 6.78189V7.15677C24.0285 7.15677 24.074 7.15677 24.1195 7.15677C24.165 7.15677 24.2106 7.12269 24.2561 7.05453H25.6561C25.8837 7.00909 26.1057 7.02613 26.322 7.10565C26.5382 7.18517 26.7146 7.29309 26.8512 7.4294C26.9878 7.56572 27.1244 7.685 27.261 7.78724C27.3976 7.88948 27.5341 7.98604 27.6707 8.07692C27.8528 8.1678 28.0008 8.26436 28.1146 8.3666C28.2285 8.46884 28.3309 8.58812 28.422 8.72444C28.513 8.9062 28.5244 9.11068 28.4561 9.33788C28.3878 9.56507 28.3081 9.79227 28.2171 10.0195C28.1715 10.1104 28.1431 10.1956 28.1317 10.2751C28.1203 10.3546 28.0919 10.4171 28.0463 10.4625C28.0463 10.508 28.0407 10.5534 28.0293 10.5988C28.0179 10.6443 27.9894 10.667 27.9439 10.667C27.8073 10.7124 27.7049 10.7749 27.6366 10.8544C27.5683 10.9339 27.4886 11.0191 27.3976 11.11C27.2154 11.2918 27.0447 11.4622 26.8854 11.6212C26.726 11.7803 26.6236 11.9507 26.578 12.1324V12.4732C26.578 12.5414 26.5894 12.6095 26.6122 12.6777C26.635 12.7459 26.6463 12.8027 26.6463 12.8481V14.1431C26.5553 14.2795 26.4699 14.4158 26.3902 14.5521C26.3106 14.6884 26.248 14.8247 26.2024 14.9611C26.1114 15.0974 26.0431 15.2507 25.9976 15.4211C25.952 15.5915 25.9293 15.7449 25.9293 15.8812C25.9293 16.063 25.861 16.1766 25.7244 16.222C25.5878 16.2674 25.474 16.3356 25.3829 16.4265C25.1553 16.5628 24.8992 16.6423 24.6146 16.665C24.3301 16.6878 24.0967 16.8014 23.9146 17.0058H23.8122C23.6756 17.0967 23.5333 17.1706 23.3854 17.2274C23.2374 17.2842 23.0724 17.358 22.8902 17.4489C22.7992 17.4943 22.7081 17.5568 22.6171 17.6363C22.526 17.7158 22.435 17.801 22.3439 17.8919C22.3439 17.8919 22.3382 17.9146 22.3268 17.9601C22.3154 18.0055 22.287 18.051 22.2415 18.0964C22.1504 18.2327 22.1106 18.3861 22.122 18.5565C22.1333 18.7269 22.139 18.9143 22.139 19.1188C22.139 19.1642 22.139 19.204 22.139 19.2381C22.139 19.2722 22.1163 19.2892 22.0707 19.2892C21.8886 19.471 21.7008 19.6413 21.5073 19.8004C21.3138 19.9594 21.1943 20.1525 21.1488 20.3797C21.1033 20.3797 21.0407 20.3968 20.961 20.4309C20.8813 20.4649 20.8187 20.482 20.7732 20.482C20.7276 20.6183 20.6821 20.7376 20.6366 20.8398C20.5911 20.9421 20.5455 21.0613 20.5 21.1977C20.4545 21.3567 20.3976 21.5157 20.3293 21.6748C20.261 21.8338 20.1358 21.9588 19.9537 22.0497C19.8626 22.1405 19.7659 22.2257 19.6634 22.3053C19.561 22.3848 19.4415 22.4473 19.3049 22.4927C19.1683 22.5381 19.0317 22.5609 18.8951 22.5609C18.7585 22.5609 18.622 22.6063 18.4854 22.6972H18.3829C18.2463 22.6517 18.1098 22.6063 17.9732 22.5609C17.8366 22.5154 17.7 22.4927 17.5634 22.4927H17.3585C17.3585 22.5381 17.3642 22.5836 17.3756 22.629C17.387 22.6745 17.4154 22.6972 17.461 22.6972C17.5065 22.7426 17.5577 22.7653 17.6146 22.7653C17.6715 22.7653 17.7455 22.7653 17.8366 22.7653C17.9276 22.8108 17.9902 22.8449 18.0244 22.8676C18.0585 22.8903 18.0528 22.9471 18.0073 23.038C17.9618 23.1289 17.9447 23.2141 17.9561 23.2936C17.9675 23.3731 18.0415 23.4129 18.178 23.4129C18.2919 23.4583 18.3488 23.5094 18.3488 23.5662C18.3488 23.623 18.326 23.6969 18.2805 23.7877L17.7341 24.333C17.461 24.5148 17.1593 24.6624 16.8293 24.776C16.4992 24.8896 16.1293 24.9237 15.7195 24.8783C15.7195 24.9237 15.7195 24.9692 15.7195 25.0146C15.7195 25.06 15.7423 25.1055 15.7878 25.1509V25.3554C15.7878 25.4008 15.7764 25.4633 15.7537 25.5428C15.7309 25.6224 15.7195 25.6848 15.7195 25.7303C15.7195 25.8212 15.6967 25.8893 15.6512 25.9348C15.6057 25.9802 15.5374 26.0256 15.4463 26.0711C15.3553 26.0711 15.2642 26.0711 15.1732 26.0711C15.0821 26.0711 14.9797 26.0484 14.8659 26.0029C14.8203 26.0029 14.7577 25.9802 14.678 25.9348C14.5984 25.8893 14.513 25.8439 14.422 25.7984C14.422 25.9348 14.439 26.037 14.4732 26.1052C14.5073 26.1733 14.5244 26.2528 14.5244 26.3437C14.5244 26.4346 14.5472 26.5084 14.5927 26.5652C14.6382 26.622 14.7065 26.6732 14.7976 26.7186C14.8431 26.7186 14.8943 26.7016 14.9512 26.6675C15.0081 26.6334 15.0821 26.6164 15.1732 26.6164C15.2187 26.6618 15.2528 26.7129 15.2756 26.7697C15.2984 26.8265 15.287 26.9004 15.2415 26.9912C15.1959 27.0367 15.1504 27.0594 15.1049 27.0594C15.0593 27.0594 14.9797 27.0367 14.8659 26.9912H14.5927L14.7976 27.2639C14.4789 27.3093 14.274 27.3775 14.1829 27.4684C14.0919 27.5592 14.0463 27.6842 14.0463 27.8432C14.0463 27.9341 14.035 28.0193 14.0122 28.0988C13.9894 28.1784 13.9098 28.2408 13.7732 28.2863C13.6821 28.3317 13.5967 28.3771 13.5171 28.4226C13.4374 28.468 13.3748 28.5135 13.3293 28.5589C13.1927 28.6498 13.1016 28.7463 13.0561 28.8486C13.0106 28.9508 13.0106 29.0701 13.0561 29.2064C13.1016 29.3427 13.1699 29.4393 13.261 29.4961C13.352 29.5529 13.4886 29.604 13.6707 29.6495C13.7618 29.6495 13.8187 29.6722 13.8415 29.7176C13.8642 29.7631 13.8756 29.8085 13.8756 29.8539C13.8756 29.8994 13.8528 29.9448 13.8073 29.9903C13.7618 30.0357 13.7163 30.0811 13.6707 30.1266C13.5341 30.3083 13.3748 30.4787 13.1927 30.6378C13.0106 30.7968 12.8967 30.9899 12.8512 31.2171L12.7488 31.3194C12.5667 31.5011 12.4244 31.6772 12.322 31.8476C12.2195 32.018 12.2138 32.2395 12.3049 32.5122C12.3504 32.6031 12.3959 32.6769 12.4415 32.7337C12.487 32.7905 12.5325 32.8643 12.578 32.9552C12.5325 32.9552 12.487 32.9438 12.4415 32.9211C12.3959 32.8984 12.3504 32.887 12.3049 32.887C12.2593 32.887 12.2138 32.887 12.1683 32.887C12.1228 32.887 12.0772 32.9098 12.0317 32.9552L12.2024 33.1597H12.4073C12.4984 33.1597 12.5553 33.1938 12.578 33.2619C12.6008 33.3301 12.5667 33.3869 12.4756 33.4323L12.4073 33.5346H12.4756C12.5211 33.58 12.5667 33.6254 12.6122 33.6709C12.6577 33.7163 12.6805 33.7618 12.6805 33.8072C12.726 33.989 12.8228 34.131 12.9707 34.2332C13.1187 34.3354 13.3293 34.4093 13.6024 34.4547C13.6935 34.4547 13.7675 34.4547 13.8244 34.4547C13.8813 34.4547 13.9553 34.4774 14.0463 34.5229V34.6251C13.8187 34.6706 13.5854 34.733 13.3463 34.8126C13.1073 34.8921 12.8512 34.8864 12.578 34.7955C12.578 34.841 12.5837 34.8864 12.5951 34.9318C12.6065 34.9773 12.635 35 12.6805 35V34.8978L12.2024 34.6251V34.8978H12.1341L11.6561 34.4547L11.5537 34.7274C11.5081 34.6365 11.4512 34.5399 11.3829 34.4377C11.3146 34.3354 11.1667 34.3411 10.939 34.4547V34.3525L11.2122 34.148V33.8754C11.3033 33.9208 11.3715 33.9662 11.4171 34.0117C11.4626 34.0571 11.5081 34.1026 11.5537 34.148V33.8072H11.6561L11.7585 34.148H11.861C11.861 34.0571 11.8724 33.9549 11.8951 33.8413C11.9179 33.7277 11.9976 33.6482 12.1341 33.6027H11.9293C11.8837 33.6027 11.8382 33.5914 11.7927 33.5686C11.7472 33.5459 11.7016 33.5346 11.6561 33.5346C11.7016 33.4891 11.7358 33.4437 11.7585 33.3982C11.7813 33.3528 11.8154 33.3301 11.861 33.3301C11.9065 33.3301 11.935 33.313 11.9463 33.279C11.9577 33.2449 11.9862 33.2051 12.0317 33.1597C11.8041 33.2051 11.6561 33.2562 11.5878 33.313C11.5195 33.3698 11.4854 33.4664 11.4854 33.6027C11.4854 33.739 11.4569 33.8299 11.4 33.8754C11.3431 33.9208 11.2463 33.9208 11.1098 33.8754H10.939V34.148C10.8935 34.148 10.848 34.148 10.8024 34.148C10.7569 34.148 10.7341 34.1253 10.7341 34.0798C10.6886 34.0344 10.6602 33.989 10.6488 33.9435C10.6374 33.8981 10.6089 33.8526 10.5634 33.8072L10.6659 33.705C10.6659 33.6141 10.6886 33.5516 10.7341 33.5175C10.7797 33.4834 10.8707 33.4891 11.0073 33.5346C11.0984 33.58 11.1667 33.5686 11.2122 33.5005C11.2577 33.4323 11.2577 33.3414 11.2122 33.2278L10.2902 33.5346L10.1878 33.4323C10.2333 33.3869 10.2789 33.3301 10.3244 33.2619C10.3699 33.1938 10.4154 33.1597 10.461 33.1597C10.552 33.1142 10.6488 33.0858 10.7512 33.0745C10.8537 33.0631 10.9732 33.0574 11.1098 33.0574V32.9552C10.9276 32.8643 10.7569 32.853 10.5976 32.9211C10.4382 32.9893 10.2675 33.0688 10.0854 33.1597V32.887L10.5634 32.6826L10.3585 32.4099L10.1878 32.6826C10.1423 32.6371 10.1138 32.6144 10.1024 32.6144C10.0911 32.6144 10.0626 32.6144 10.0171 32.6144C10.0171 32.569 10 32.5349 9.96585 32.5122C9.93171 32.4895 9.91463 32.4554 9.91463 32.4099L10.0854 32.2395C10.0398 32.2395 9.99431 32.2282 9.94878 32.2055C9.90325 32.1827 9.85772 32.1941 9.8122 32.2395C9.72114 32.2395 9.64146 32.2055 9.57317 32.1373C9.50488 32.0691 9.4935 32.0123 9.53902 31.9669C9.67561 31.876 9.74959 31.7511 9.76098 31.592C9.77236 31.433 9.82358 31.2853 9.91463 31.149V30.9445H9.8122C9.8122 30.9899 9.8122 31.0354 9.8122 31.0808C9.8122 31.1263 9.78943 31.1717 9.7439 31.2171C9.7439 31.2626 9.72114 31.291 9.67561 31.3023C9.63008 31.3137 9.58455 31.3194 9.53902 31.3194C9.44797 31.2739 9.38537 31.2228 9.35122 31.166C9.31707 31.1092 9.34553 31.0354 9.43659 30.9445L9.7439 30.6719C9.7439 30.6264 9.7439 30.598 9.7439 30.5867C9.7439 30.5753 9.76667 30.5469 9.8122 30.5015H9.7439L9.53902 30.6719H9.43659C9.43659 30.6264 9.43659 30.5639 9.43659 30.4844C9.43659 30.4049 9.41382 30.3424 9.36829 30.297H9.7439L9.8122 30.2288C9.67561 30.1834 9.6187 30.1209 9.64146 30.0414C9.66423 29.9619 9.72114 29.8994 9.8122 29.8539C9.8122 29.8539 9.82927 29.8312 9.86341 29.7858C9.89756 29.7403 9.91463 29.6949 9.91463 29.6495C9.91463 29.6495 9.89756 29.6381 9.86341 29.6154C9.82927 29.5927 9.78943 29.5813 9.7439 29.5813C9.69837 29.5813 9.64715 29.5643 9.59024 29.5302C9.53333 29.4961 9.48211 29.4791 9.43659 29.4791C9.39106 29.4791 9.36829 29.462 9.36829 29.4279C9.36829 29.3939 9.39106 29.3541 9.43659 29.3087V28.9338C9.55041 28.8883 9.63577 28.8429 9.69268 28.7975C9.74959 28.752 9.82358 28.7066 9.91463 28.6611L9.7439 28.3885L9.8122 28.2863C9.85772 28.3317 9.90325 28.3601 9.94878 28.3715C9.99431 28.3828 10.0171 28.4112 10.0171 28.4567C10.0171 28.5021 10.0114 28.5475 10 28.593C9.98862 28.6384 9.96016 28.6839 9.91463 28.7293C9.82358 28.8202 9.79512 28.894 9.82927 28.9508C9.86341 29.0076 9.94878 29.0587 10.0854 29.1042C10.0398 29.0133 10.0285 28.9281 10.0512 28.8486C10.074 28.7691 10.1537 28.7293 10.2902 28.7293V28.184C10.3358 28.0023 10.3642 27.8035 10.3756 27.5876C10.387 27.3718 10.4154 27.173 10.461 26.9912C10.5065 26.9004 10.5122 26.8265 10.478 26.7697C10.4439 26.7129 10.4041 26.6391 10.3585 26.5482C10.222 26.6391 10.1423 26.73 10.1195 26.8208C10.0967 26.9117 10.0854 27.0026 10.0854 27.0935V27.3661C10.0854 27.457 10.0626 27.5195 10.0171 27.5536C9.97154 27.5876 9.88049 27.582 9.7439 27.5365V27.2639C9.78943 27.173 9.8065 27.0821 9.79512 26.9912C9.78374 26.9004 9.82358 26.8095 9.91463 26.7186C9.96016 26.6732 9.97724 26.5936 9.96585 26.48C9.95447 26.3664 9.97154 26.2642 10.0171 26.1733C10.0171 26.0824 10.0455 25.9745 10.1024 25.8496C10.1593 25.7246 10.1878 25.6167 10.1878 25.5258V25.1509C10.1423 25.0146 10.1195 24.901 10.1195 24.8101C10.1195 24.7192 10.1423 24.617 10.1878 24.5034C10.2789 24.3216 10.3528 24.1569 10.4098 24.0092C10.4667 23.8616 10.5179 23.6969 10.5634 23.5151C10.6089 23.3788 10.6374 23.2254 10.6488 23.055C10.6602 22.8846 10.6886 22.7313 10.7341 22.5949C10.8252 22.3223 10.8935 22.0497 10.939 21.777C10.9846 21.5044 10.9846 21.2204 10.939 20.925C10.939 20.8796 10.9504 20.8228 10.9732 20.7546C10.9959 20.6865 11.0073 20.6297 11.0073 20.5842C11.0528 20.4479 11.0813 20.3229 11.0927 20.2093C11.1041 20.0957 11.1098 19.9708 11.1098 19.8345V19.187L11.3829 17.6193V16.9036C11.474 16.631 11.5366 16.3697 11.5707 16.1198C11.6049 15.8698 11.5992 15.6086 11.5537 15.3359C11.5081 15.1996 11.4967 15.0463 11.5195 14.8759C11.5423 14.7055 11.4626 14.5521 11.2805 14.4158C11.0528 14.234 10.8195 14.0523 10.5805 13.8705C10.3415 13.6887 10.0626 13.5297 9.7439 13.3934C9.4935 13.3025 9.32276 13.1775 9.23171 13.0185C9.14065 12.8595 9.02683 12.7118 8.89024 12.5755V12.4732C8.84472 12.3823 8.81626 12.2915 8.80488 12.2006C8.7935 12.1097 8.76504 12.0188 8.71951 11.9279C8.62846 11.7916 8.54878 11.6553 8.48049 11.519C8.4122 11.3827 8.40081 11.2463 8.44634 11.11C8.44634 10.9283 8.40081 10.7749 8.30976 10.65C8.2187 10.525 8.08211 10.4398 7.9 10.3944C7.94553 10.2353 7.95122 10.1444 7.91707 10.1217C7.88293 10.099 7.84309 10.0649 7.79756 10.0195C7.66098 9.79227 7.53577 9.55371 7.42195 9.3038C7.30813 9.05388 7.09187 8.86076 6.77317 8.72444C6.72764 8.679 6.6878 8.63356 6.65366 8.58812C6.61951 8.54268 6.60244 8.49724 6.60244 8.4518C6.73902 8.36092 6.76748 8.27004 6.6878 8.17916C6.60813 8.08828 6.54553 8.02012 6.5 7.97468V7.70204C6.63659 7.61116 6.73333 7.52596 6.79024 7.44644C6.84715 7.36692 6.96667 7.30445 7.14878 7.25901C7.19431 7.25901 7.22276 7.24197 7.23415 7.20789C7.24553 7.17381 7.25122 7.12269 7.25122 7.05453H7.04634C7.00081 6.96365 6.9439 6.89549 6.87561 6.85005C6.80732 6.80461 6.77317 6.75917 6.77317 6.71373C6.72764 6.66829 6.70488 6.62285 6.70488 6.57741C6.70488 6.53197 6.70488 6.48653 6.70488 6.44109C6.70488 6.39565 6.71626 6.35021 6.73902 6.30477C6.76179 6.25933 6.77317 6.21389 6.77317 6.16845C6.77317 6.12301 6.79024 6.08893 6.82439 6.06621C6.85854 6.04349 6.87561 6.00941 6.87561 5.96397C6.96667 5.82765 7.04065 5.70837 7.09756 5.60613C7.15447 5.50389 7.20569 5.40733 7.25122 5.31645C7.25122 5.31645 7.26829 5.30509 7.30244 5.28237C7.33659 5.25965 7.37642 5.24829 7.42195 5.24829C7.51301 5.24829 7.56992 5.22557 7.59268 5.18013C7.61545 5.13469 7.64959 5.06654 7.69512 4.97566C7.69512 4.86206 7.72358 4.7655 7.78049 4.68598C7.8374 4.60646 7.93415 4.54398 8.07073 4.49854C8.20732 4.4531 8.31545 4.34518 8.39512 4.17478C8.4748 4.00438 8.49187 3.86238 8.44634 3.74878C8.44634 3.6579 8.42927 3.55566 8.39512 3.44206C8.36098 3.32846 8.3439 3.22622 8.3439 3.13534C8.3439 2.99902 8.33821 2.85703 8.32683 2.70935C8.31545 2.56167 8.26423 2.41967 8.17317 2.28335C8.5374 1.87439 8.94146 1.46543 9.38537 1.05647C9.82927 0.647515 10.3699 0.352157 11.0073 0.170397C11.0528 0.306717 11.0756 0.448716 11.0756 0.596395C11.0756 0.744075 11.0301 0.886074 10.939 1.02239L11.2122 1.29503H11.3829V0.920154C11.3374 0.738395 11.326 0.613435 11.3488 0.545276C11.3715 0.477116 11.474 0.420316 11.6561 0.374876C11.7472 0.329437 11.8268 0.278317 11.8951 0.221517C11.9634 0.164717 11.9748 0.0908778 11.9293 -1.83657e-06ZM16.9146 32.2395L16.4366 32.6826H16.2659V32.5122C16.2659 32.4213 16.3285 32.3418 16.4537 32.2736C16.5789 32.2055 16.7325 32.1941 16.9146 32.2395ZM16.8122 32.6826C16.9033 32.6371 16.9772 32.5803 17.0341 32.5122C17.0911 32.444 17.1764 32.4099 17.2902 32.4099C17.3358 32.4099 17.3813 32.4156 17.4268 32.427C17.4724 32.4383 17.5407 32.4667 17.6317 32.5122C17.5862 32.5576 17.552 32.6031 17.5293 32.6485C17.5065 32.6939 17.4496 32.7394 17.3585 32.7848C17.313 32.7394 17.2447 32.711 17.1537 32.6996C17.0626 32.6883 16.9488 32.6826 16.8122 32.6826Z" fill="white"/>
</svg>
