<svg width="20" height="20" viewBox="0 0 20 20" fill="none" xmlns="http://www.w3.org/2000/svg">
<g clip-path="url(#clip0_10486_116050)">
<path d="M9.33332 2C9.33332 2.36817 9.63179 2.66668 10 2.66668C10.3682 2.66668 10.6667 2.36821 10.6667 2V0.66668C10.6667 0.298471 10.3682 0 10 0C9.63179 0 9.33332 0.298471 9.33332 0.66668V2ZM9.33332 19.3333C9.33332 19.7015 9.63179 20 10 20C10.3682 20 10.6667 19.7015 10.6667 19.3333V18C10.6667 17.6318 10.3682 17.3333 10 17.3333C9.63179 17.3333 9.33332 17.6318 9.33332 18V19.3333ZM18 9.33332C17.6318 9.33332 17.3333 9.63179 17.3333 10C17.3333 10.3682 17.6318 10.6667 18 10.6667H19.3333C19.7015 10.6667 20 10.3682 20 10C20 9.63179 19.7015 9.33332 19.3333 9.33332H18ZM0.66668 9.33332C0.298471 9.33332 0 9.63179 0 10C0 10.3682 0.298471 10.6667 0.66668 10.6667H2C2.36817 10.6667 2.66668 10.3682 2.66668 10C2.66668 9.63179 2.36821 9.33332 2 9.33332H0.66668Z" fill="#FFD900"/>
<path d="M10 16C13.3137 16 16 13.3137 16 10C16 6.68629 13.3137 4 10 4C6.68629 4 4 6.68629 4 10C4 13.3137 6.68629 16 10 16Z" fill="#FFD900"/>
<path d="M15.1854 3.87149C14.9251 4.13185 14.9251 4.55394 15.1854 4.8143C15.4458 5.07467 15.8679 5.07467 16.1282 4.8143L17.071 3.87149C17.3314 3.61112 17.3314 3.18903 17.071 2.92867C16.8107 2.66831 16.3886 2.66831 16.1282 2.92867L15.1854 3.87149ZM2.92891 16.128C2.66855 16.3883 2.66855 16.8104 2.92891 17.0708C3.18928 17.3312 3.61137 17.3312 3.87173 17.0708L4.81455 16.128C5.07491 15.8676 5.07491 15.4455 4.81455 15.1852C4.55419 14.9248 4.13209 14.9248 3.87173 15.1852L2.92891 16.128ZM16.1282 15.1852C15.8679 14.9248 15.4458 14.9248 15.1854 15.1852C14.9251 15.4455 14.9251 15.8676 15.1854 16.128L16.1282 17.0708C16.3886 17.3312 16.8107 17.3312 17.071 17.0708C17.3314 16.8104 17.3314 16.3883 17.071 16.128L16.1282 15.1852ZM3.87173 2.92867C3.61137 2.66831 3.18928 2.66831 2.92891 2.92867C2.66855 3.18903 2.66855 3.61112 2.92891 3.87149L3.87173 4.8143C4.13209 5.07467 4.55419 5.07467 4.81455 4.8143C5.07491 4.55394 5.07491 4.13185 4.81455 3.87149L3.87173 2.92867Z" fill="#FFD900"/>
<path d="M6.93869 2.91078C6.87896 2.91079 6.82058 2.89308 6.77093 2.8599C6.72127 2.82672 6.68257 2.77956 6.65973 2.72438L6.4046 2.10844C6.38915 2.07178 6.38111 2.03242 6.38093 1.99263C6.38075 1.95284 6.38844 1.91341 6.40355 1.87661C6.41867 1.8398 6.44091 1.80635 6.469 1.77817C6.49709 1.75 6.53048 1.72765 6.56724 1.71243C6.604 1.6972 6.64341 1.68939 6.6832 1.68945C6.72298 1.68951 6.76237 1.69744 6.79908 1.71278C6.83579 1.72812 6.86911 1.75056 6.89712 1.77882C6.92512 1.80709 6.94726 1.84061 6.96227 1.87746L7.2174 2.49339C7.2364 2.53924 7.24381 2.58907 7.23896 2.63847C7.23411 2.68786 7.21715 2.7353 7.18959 2.77657C7.16203 2.81785 7.12471 2.85169 7.08095 2.8751C7.03718 2.89851 6.98832 2.91076 6.93869 2.91078ZM13.3168 18.3088C13.257 18.3088 13.1987 18.2911 13.149 18.2579C13.0993 18.2247 13.0606 18.1775 13.0378 18.1224L12.7827 17.5064C12.7675 17.4698 12.7597 17.4306 12.7597 17.3909C12.7597 17.3513 12.7675 17.312 12.7826 17.2754C12.7978 17.2388 12.82 17.2055 12.8481 17.1775C12.8761 17.1495 12.9094 17.1273 12.946 17.1121C12.9826 17.0969 13.0219 17.0891 13.0615 17.0891C13.1011 17.0891 13.1404 17.0969 13.177 17.1121C13.2136 17.1272 13.2469 17.1495 13.2749 17.1775C13.3029 17.2055 13.3252 17.2388 13.3403 17.2754L13.5955 17.8914C13.6106 17.928 13.6185 17.9672 13.6185 18.0069C13.6185 18.0465 13.6107 18.0858 13.5955 18.1224C13.5803 18.159 13.5581 18.1923 13.5301 18.2203C13.502 18.2483 13.4687 18.2705 13.4321 18.2857C13.3956 18.3009 13.3564 18.3088 13.3168 18.3088ZM2.60935 7.2408C2.56975 7.24079 2.53054 7.23295 2.49398 7.21774L1.87804 6.96261C1.72404 6.89883 1.65092 6.72229 1.7147 6.56828C1.77848 6.41428 1.9551 6.34104 2.10903 6.40494L2.72496 6.66007C2.78953 6.68677 2.84284 6.73504 2.87579 6.79665C2.90874 6.85826 2.91929 6.92939 2.90565 6.99792C2.89201 7.06644 2.85502 7.12811 2.80098 7.1724C2.74695 7.21669 2.67922 7.24087 2.60935 7.2408ZM18.0073 13.6189C17.9677 13.6189 17.9285 13.6111 17.892 13.5958L17.276 13.3407C17.2394 13.3256 17.2061 13.3033 17.1781 13.2753C17.1501 13.2473 17.1278 13.214 17.1127 13.1774C17.0975 13.1408 17.0897 13.1015 17.0897 13.0619C17.0897 13.0222 17.0975 12.983 17.1127 12.9464C17.1766 12.7924 17.3532 12.7192 17.5071 12.7831L18.123 13.0382C18.1596 13.0533 18.1929 13.0756 18.2209 13.1036C18.2489 13.1316 18.2712 13.1649 18.2863 13.2015C18.3015 13.2381 18.3093 13.2774 18.3093 13.317C18.3093 13.3566 18.3015 13.3959 18.2863 13.4325C18.2635 13.4877 18.2248 13.5348 18.1751 13.568C18.1254 13.6012 18.0671 13.6189 18.0073 13.6189ZM1.99434 13.6189C1.9245 13.6189 1.85681 13.5947 1.80281 13.5504C1.74881 13.5061 1.71184 13.4445 1.6982 13.376C1.68456 13.3075 1.6951 13.2364 1.72802 13.1748C1.76094 13.1132 1.8142 13.0649 1.87873 13.0382L2.49466 12.7831C2.56851 12.753 2.65124 12.7534 2.72481 12.7841C2.79838 12.8148 2.8568 12.8734 2.88731 12.9471C2.91782 13.0207 2.91794 13.1035 2.88765 13.1772C2.85736 13.251 2.79912 13.3098 2.72565 13.3407L2.10971 13.5958C2.07314 13.611 2.03394 13.6189 1.99434 13.6189ZM17.3923 7.2408C17.3326 7.2408 17.2742 7.2231 17.2246 7.18992C17.1749 7.15674 17.1362 7.10958 17.1134 7.0544C17.0982 7.01778 17.0904 6.97854 17.0904 6.9389C17.0904 6.89926 17.0982 6.86001 17.1133 6.8234C17.1285 6.78678 17.1508 6.75351 17.1788 6.72548C17.2068 6.69746 17.2401 6.67523 17.2767 6.66007L17.8926 6.40494C17.9665 6.37488 18.0492 6.37525 18.1228 6.40599C18.1964 6.43672 18.2548 6.49532 18.2853 6.56898C18.3158 6.64264 18.3159 6.72538 18.2856 6.79913C18.2554 6.87288 18.1971 6.93165 18.1236 6.96261L17.5077 7.21774C17.4711 7.23295 17.4319 7.24078 17.3923 7.2408ZM6.68492 18.3088C6.63529 18.3088 6.58643 18.2965 6.54266 18.2731C6.4989 18.2497 6.46158 18.2158 6.43402 18.1746C6.40646 18.1333 6.3895 18.0858 6.38465 18.0365C6.3798 17.9871 6.38721 17.9372 6.40621 17.8914L6.66134 17.2754C6.6765 17.2388 6.69873 17.2055 6.72675 17.1775C6.75477 17.1495 6.78804 17.1272 6.82466 17.1121C6.86128 17.0969 6.90053 17.0891 6.94017 17.0891C6.9798 17.0891 7.01905 17.0969 7.05567 17.1121C7.12962 17.1427 7.18837 17.2015 7.219 17.2754C7.24964 17.3494 7.24964 17.4325 7.21901 17.5064L6.96388 18.1224C6.94103 18.1775 6.90233 18.2247 6.85267 18.2579C6.80302 18.2911 6.74464 18.3088 6.68492 18.3088ZM13.063 2.91078C13.0234 2.91077 12.9842 2.90293 12.9476 2.88772C12.911 2.87256 12.8777 2.85033 12.8497 2.8223C12.8217 2.79428 12.7994 2.76101 12.7843 2.72439C12.7691 2.68777 12.7613 2.64853 12.7613 2.60889C12.7613 2.56926 12.7691 2.53001 12.7843 2.49339L13.0394 1.87746C13.1032 1.72349 13.2799 1.65025 13.4337 1.71412C13.4704 1.72928 13.5036 1.75151 13.5317 1.77953C13.5597 1.80756 13.5819 1.84083 13.5971 1.87745C13.6123 1.91406 13.6201 1.95331 13.6201 1.99295C13.6201 2.03258 13.6122 2.07183 13.5971 2.10844L13.3419 2.72438C13.3191 2.77956 13.2804 2.82672 13.2307 2.8599C13.1811 2.89308 13.1227 2.91078 13.063 2.91078Z" fill="#FFA400"/>
<path d="M10 4C9.84428 4 9.68996 4.00596 9.53724 4.01759C12.6347 4.25384 15.0745 6.84201 15.0745 10C15.0745 13.158 12.6347 15.7462 9.53724 15.9824C9.68996 15.994 9.84428 16 10 16C13.3137 16 16 13.3138 16 10C16 6.68632 13.3137 4 10 4ZM2.00002 9.33332H1.07446C1.44263 9.33332 1.74114 9.63179 1.74114 10C1.74114 10.3682 1.44267 10.6667 1.07446 10.6667H2.00002C2.36819 10.6667 2.6667 10.3682 2.6667 10C2.6667 9.63183 2.36819 9.33332 2.00002 9.33332ZM19.3333 9.33332H18.4078C18.776 9.33332 19.0745 9.63179 19.0745 10C19.0745 10.3682 18.776 10.6667 18.4078 10.6667H19.3333C19.7015 10.6667 20 10.3682 20 10C20 9.63183 19.7015 9.33332 19.3333 9.33332ZM10 1.52084e-07C9.82725 -0.000116702 9.66124 0.0671093 9.53724 0.187405C9.66275 0.308652 9.74114 0.47839 9.74114 0.66668V2C9.74114 2.18829 9.66275 2.35803 9.53724 2.47924C9.66124 2.59953 9.82725 2.66676 10 2.66664C10.3682 2.66664 10.6667 2.36817 10.6667 1.99996V0.66668C10.6667 0.298471 10.3682 1.52084e-07 10 1.52084e-07ZM10 17.3333C9.82725 17.3332 9.66124 17.4004 9.53724 17.5207C9.66275 17.642 9.74114 17.8117 9.74114 18V19.3333C9.74114 19.5216 9.66275 19.6913 9.53724 19.8125C9.66124 19.9328 9.82725 20 10 19.9999C10.3682 19.9999 10.6667 19.7014 10.6667 19.3332V18C10.6667 17.6318 10.3682 17.3333 10 17.3333ZM17.0711 2.92893C16.8135 2.67135 16.3978 2.66905 16.1369 2.92113C16.1397 2.92386 16.1428 2.92616 16.1455 2.92893C16.4059 3.1893 16.4059 3.61139 16.1455 3.87175L15.2027 4.81457C15.1999 4.81734 15.1969 4.81964 15.1941 4.82237C15.4551 5.07445 15.8707 5.07215 16.1283 4.81457L17.0711 3.87175C17.3314 3.61139 17.3314 3.1893 17.0711 2.92893ZM17.0711 16.1282L16.1283 15.1854C15.8707 14.9278 15.455 14.9256 15.1941 15.1776C15.1969 15.1803 15.1999 15.1827 15.2027 15.1854L16.1455 16.1282C16.4059 16.3886 16.4059 16.8107 16.1455 17.0711C16.1428 17.0738 16.1397 17.0761 16.1369 17.0789C16.3978 17.331 16.8135 17.3287 17.0711 17.0711C17.3314 16.8107 17.3314 16.3886 17.0711 16.1282ZM4.81458 3.87175L3.87177 2.92893C3.6145 2.67167 3.19961 2.66909 2.93861 2.92024C2.94175 2.92326 2.94517 2.92583 2.94823 2.92893L3.89104 3.87175C4.1514 4.13211 4.1514 4.5542 3.89104 4.81457C3.88794 4.81767 3.88456 4.82024 3.88142 4.82326C4.14243 5.07441 4.55736 5.07179 4.81458 4.81457C5.07491 4.5542 5.07491 4.13207 4.81458 3.87175ZM4.81458 15.1854C4.55732 14.9282 4.14243 14.9256 3.88142 15.1767C3.88456 15.1798 3.88794 15.1823 3.89104 15.1854C4.1514 15.4458 4.1514 15.8679 3.89104 16.1282L2.94823 17.0711C2.94513 17.0742 2.94175 17.0767 2.93861 17.0798C3.19961 17.3309 3.61454 17.3283 3.87177 17.0711L4.81458 16.1282C5.07491 15.8679 5.07491 15.4458 4.81458 15.1854Z" fill="#FFBB00"/>
</g>
<defs>
<clipPath id="clip0_10486_116050">
<rect width="20" height="20" fill="white"/>
</clipPath>
</defs>
</svg>
