<svg width="52" height="51" viewBox="0 0 52 51" fill="none" xmlns="http://www.w3.org/2000/svg">
<rect x="0.5" width="51" height="51" rx="25.5" fill="#FFD300" fill-opacity="0.2"/>
<g clip-path="url(#clip0_1772_4866)">
<path d="M11.5 38C11.5 38.7956 11.8161 39.5587 12.3787 40.1213C12.9413 40.6839 13.7044 41 14.5 41H38.5C39.2956 41 40.0587 40.6839 40.6213 40.1213C41.1839 39.5587 41.5 38.7956 41.5 38V20L31 27.5V20L20.5 27.5V14C20.5 13.2044 20.1839 12.4413 19.6213 11.8787C19.0587 11.3161 18.2956 11 17.5 11H14.5C13.7044 11 12.9413 11.3161 12.3787 11.8787C11.8161 12.4413 11.5 13.2044 11.5 14V38Z" stroke="#FFD300" stroke-width="1.5" stroke-linecap="round" stroke-linejoin="round"/>
<path d="M34 34.9998H35.5" stroke="#FFD300" stroke-width="1.5" stroke-linecap="round" stroke-linejoin="round"/>
<path d="M26.5012 34.9998H28.0012" stroke="#FFD300" stroke-width="1.5" stroke-linecap="round" stroke-linejoin="round"/>
<path d="M19.0024 34.9998H20.5024" stroke="#FFD300" stroke-width="1.5" stroke-linecap="round" stroke-linejoin="round"/>
</g>
<defs>
<clipPath id="clip0_1772_4866">
<rect width="32" height="32" fill="white" transform="translate(10.5 10)"/>
</clipPath>
</defs>
</svg>
