<svg width="52" height="52" viewBox="0 0 52 52" fill="none" xmlns="http://www.w3.org/2000/svg">
<rect x="0.812219" y="0.812219" width="50.3576" height="50.3576" rx="25.1788" fill="white"/>
<rect x="0.812219" y="0.812219" width="50.3576" height="50.3576" rx="25.1788" stroke="#E9E9F2" stroke-width="1.62444"/>
<path d="M13.1046 25.8723C13.1039 28.1418 13.6995 30.3578 14.8322 32.311L12.9962 38.9849L19.8566 37.1941C21.7468 38.2196 23.8748 38.7608 26.0406 38.7616H26.0464C33.1785 38.7616 38.9843 32.9837 38.9872 25.8824C38.9887 22.4411 37.6437 19.2054 35.2002 16.7711C32.7571 14.3367 29.5078 12.9954 26.0459 12.9938C18.913 12.9938 13.1075 18.7711 13.1046 25.8723Z" fill="#25D366"/>
<path fill-rule="evenodd" clip-rule="evenodd" d="M22.6984 20.2924C22.4475 19.7372 22.1834 19.726 21.9447 19.7163C21.7495 19.708 21.5259 19.7085 21.3028 19.7085C21.0795 19.7085 20.7165 19.792 20.4097 20.1257C20.1026 20.4594 19.2372 21.266 19.2372 22.9066C19.2372 24.5473 20.4376 26.1326 20.6049 26.3552C20.7724 26.5776 22.9222 30.0518 26.3267 31.3884C29.1562 32.4992 29.732 32.2783 30.3461 32.2227C30.9603 32.1671 32.3279 31.4162 32.607 30.6376C32.8861 29.859 32.8861 29.1917 32.8024 29.0522C32.7186 28.9132 32.4953 28.8299 32.1604 28.6631C31.8253 28.4964 30.1786 27.6895 29.8715 27.5784C29.5645 27.4673 29.3411 27.4117 29.1178 27.7455C28.8945 28.079 28.253 28.8299 28.0575 29.0523C27.8621 29.2751 27.6667 29.3029 27.3317 29.1361C26.9967 28.9689 25.9179 28.6171 24.6381 27.4812C23.6424 26.5974 22.9702 25.5059 22.7747 25.1721C22.5793 24.8386 22.7538 24.6579 22.9218 24.4917C23.0722 24.3423 23.2568 24.1025 23.4243 23.9077C23.5914 23.713 23.6473 23.5741 23.7589 23.3517C23.8706 23.129 23.8147 22.9343 23.731 22.7676C23.6473 22.6008 22.9963 20.9517 22.6984 20.2924Z" fill="white"/>
</svg>
