<svg width="128" height="46" viewBox="0 0 128 46" fill="none" xmlns="http://www.w3.org/2000/svg">
<mask id="mask0_10265_35261" style="mask-type:luminance" maskUnits="userSpaceOnUse" x="0" y="0" width="128" height="46">
<path d="M128 0H0V45.451H128V0Z" fill="white"/>
</mask>
<g mask="url(#mask0_10265_35261)">
<path d="M17.1984 42.0613C16.38 42.3548 15.5029 42.447 14.6412 42.3306C13.8348 42.2274 13.0608 41.9492 12.374 41.5149C11.7061 41.0858 11.1625 40.4895 10.7972 39.7856C10.4057 39.0427 10.2356 38.2034 10.307 37.3669C10.3642 36.8613 10.4418 36.3472 10.5276 35.813C10.6152 35.2886 10.7338 34.7696 10.883 34.2591C11.1553 33.0137 11.4671 31.8011 11.8184 30.621C12.1697 29.441 12.5401 28.242 12.9295 27.0239C11.991 26.8247 11.1283 26.3636 10.4418 25.6942C9.7634 25.0766 9.1859 24.3569 8.73015 23.5612C8.26854 22.7455 7.84779 21.9298 7.45972 21.1141C6.65762 19.327 6.02574 17.4685 5.57242 15.5632C5.12047 13.659 4.89558 11.7082 4.90249 9.75131C4.90518 9.04893 5.08949 8.35912 5.43763 7.74876C5.7804 7.10977 6.25854 6.55304 6.83879 6.11735C7.39913 5.67496 8.03028 5.33023 8.70565 5.09772C9.36088 4.86489 10.0527 4.7516 10.7482 4.76327C11.4095 4.77685 12.0607 4.92828 12.6599 5.20783C13.2708 5.49284 13.7992 5.92784 14.1959 6.47217C14.459 6.84912 14.668 7.26097 14.8168 7.69574C14.9619 8.13279 15.0806 8.57816 15.1722 9.0294C15.4086 10.2269 15.5059 11.4477 15.4623 12.6675C15.4187 13.8829 15.3969 15.1064 15.3969 16.3381C15.3969 16.5461 15.3969 16.8479 15.4418 17.2476C15.4351 17.5417 15.5287 17.8294 15.7074 18.0633C15.7543 18.0914 15.8079 18.1062 15.8626 18.1062C15.9173 18.1062 15.9709 18.0914 16.0178 18.0633C16.1248 18.0098 16.2285 17.9498 16.3283 17.8839C16.4662 17.7283 16.5855 17.5572 16.6837 17.3741C16.8307 17.1212 16.9819 16.8561 17.1289 16.5584C17.276 16.2606 17.419 16.0037 17.5374 15.7427L17.8275 15.1635C18.1257 14.515 18.5301 13.6626 19.053 12.6144C19.5759 11.5663 20.1437 10.5181 20.7646 9.48214C21.353 8.49697 22.0225 7.56248 22.7663 6.68833C23.2953 5.98644 24.0243 5.46045 24.8578 5.17928C26.349 4.7863 27.9341 4.97593 29.29 5.70949C29.7578 5.94359 30.1854 6.25061 30.5564 6.61901C30.9225 6.99076 31.2259 7.41905 31.455 7.88742C31.8725 8.70891 32.0155 9.64215 31.8636 10.5507C31.7734 11.1426 31.6171 11.7227 31.3978 12.28C31.186 12.8276 30.932 13.3581 30.6382 13.8665C30.0713 14.8222 29.4336 15.7343 28.7304 16.5951L26.5939 19.1931C25.9181 20.0422 25.2947 20.9316 24.7271 21.8564C24.1487 22.792 23.6526 23.7759 23.2442 24.797C22.8004 25.9783 22.4587 27.1955 22.223 28.435C21.9819 29.6586 21.7614 30.923 21.553 32.1669C21.3774 33.2313 21.1895 34.3041 20.9975 35.3848C20.8055 36.4657 20.589 37.5221 20.3561 38.5579C20.1884 39.3031 19.8531 40.0003 19.3757 40.5972C18.8051 41.2832 18.0495 41.7911 17.1984 42.0613Z" fill="white"/>
<path d="M55.3835 33.4965C54.4929 33.9201 53.5088 34.1111 52.5241 34.051C51.5333 34.0215 50.5596 33.7866 49.6645 33.3618C49.145 33.0827 48.6844 32.706 48.3082 32.2523C47.9378 31.8068 47.6272 31.3147 47.385 30.7883C46.6913 31.4537 45.8956 32.0044 45.0282 32.4196C44.1524 32.8481 43.2278 33.1685 42.2749 33.374C41.2035 33.6176 40.1041 33.7149 39.0067 33.6635C37.922 33.6308 36.8587 33.352 35.898 32.8478C35.0208 32.3861 34.2715 31.7149 33.7165 30.8943C33.305 30.3647 32.9962 29.7631 32.8058 29.1202C32.6139 28.47 32.503 27.7988 32.4749 27.1217C32.4501 26.0776 32.6289 25.0386 33.0017 24.0628C33.3542 23.0836 33.8893 22.1799 34.5787 21.3995C35.1979 20.7094 35.9387 20.1385 36.7639 19.7151C37.5941 19.2918 38.4464 18.9133 39.3173 18.5813C40.1179 18.2876 40.9348 18.0157 41.7681 17.7655C42.591 17.5341 43.3942 17.2382 44.1703 16.8805C44.6072 16.7157 45.0195 16.492 45.3957 16.2157C45.7401 15.9612 46.0409 15.6527 46.2862 15.3021C46.4136 15.1661 46.494 14.9928 46.5153 14.8077C46.5367 14.6227 46.498 14.4357 46.4047 14.2743C46.2521 14.0352 46.021 13.8565 45.7511 13.7686C45.4359 13.6598 45.1042 13.606 44.7707 13.6095C44.4067 13.6115 44.0435 13.6415 43.684 13.6993C43.3125 13.7604 42.9938 13.8175 42.7282 13.8787C42.3425 13.9966 41.9752 14.1682 41.6375 14.3885C41.2942 14.6088 40.9553 14.8413 40.6164 15.0778C40.2771 15.3144 39.9258 15.5427 39.5704 15.763C39.2251 15.983 38.8515 16.1545 38.4594 16.2728C38.1191 16.3651 37.7648 16.3955 37.4135 16.3625C37.0355 16.3317 36.6663 16.2336 36.323 16.0729C35.9699 15.9244 35.6377 15.7312 35.3343 15.4979C35.0494 15.2718 34.8084 14.9953 34.6235 14.6822C34.3571 14.1786 34.1618 13.6406 34.0436 13.0834C33.9098 12.5047 33.9011 11.9042 34.0179 11.3219C34.1349 10.7396 34.3747 10.1889 34.7214 9.70637C35.0786 9.19128 35.4894 8.71549 35.9471 8.28705C36.6596 7.63477 37.4516 7.07434 38.304 6.61894C39.1621 6.16245 40.0732 5.81315 41.0165 5.57891C41.9495 5.31441 42.9082 5.15032 43.8762 5.0895C44.8467 5.03117 45.8204 5.04616 46.7887 5.13435C47.7309 5.1941 48.6668 5.33051 49.5871 5.54221C50.5192 5.74583 51.4253 6.05508 52.2872 6.46396C53.0688 6.79372 53.7668 7.29402 54.3297 7.92816C55.0691 8.78662 55.6152 9.7936 55.931 10.881C56.2532 11.9788 56.491 13.0996 56.6418 14.2335C56.8128 15.8399 56.8594 17.4571 56.7808 19.0707C56.7071 20.7021 56.6403 22.3335 56.5805 23.9649C56.5181 24.9626 56.6386 25.9632 56.9359 26.9178C57.2324 27.8716 57.4696 28.8428 57.6467 29.8258C57.7351 30.3687 57.6583 30.9255 57.426 31.4245C57.2416 31.8761 56.9631 32.2835 56.6091 32.6196C56.2436 32.9674 55.831 33.2627 55.3835 33.4965ZM42.8467 23.9078C42.6996 24.3157 42.7158 24.5767 42.8915 24.752C43.1053 24.944 43.3844 25.0476 43.6719 25.0416C44.044 25.0509 44.4139 24.9828 44.7583 24.8418C45.142 24.6947 45.4902 24.4681 45.7797 24.177C45.856 24.1042 45.938 24.0373 46.0247 23.9771C46.1311 23.9037 46.1802 23.8344 46.1802 23.7773C46.2085 23.2715 46.2414 22.7944 46.27 22.3335C46.3007 21.8639 46.3608 21.3967 46.4498 20.9345C46.0057 21.2337 45.5604 21.5151 45.1137 21.7788C44.6586 22.051 44.2281 22.3621 43.8271 22.7087C43.6132 22.8649 43.4185 23.0456 43.2469 23.2471C43.077 23.4431 42.9417 23.6666 42.8467 23.9078Z" fill="white"/>
<path d="M82.0593 33.4966C81.1682 33.919 80.1846 34.1097 79.1996 34.051C78.2089 34.0222 77.2351 33.7872 76.3403 33.3619C75.8202 33.084 75.3593 32.7069 74.984 32.2524C74.602 31.8089 74.2804 31.3165 74.0282 30.7883C73.3342 31.4538 72.5384 32.0045 71.671 32.4197C69.803 33.3186 67.7423 33.7459 65.6701 33.6636C64.5839 33.6309 63.5195 33.3521 62.5573 32.8479C61.6807 32.387 60.9323 31.7158 60.3802 30.8944C59.9667 30.3659 59.6575 29.7638 59.4691 29.1203C58.9722 27.4587 59.0441 25.6791 59.6734 24.0629C60.0326 23.0754 60.5761 22.1648 61.2747 21.3792C61.8991 20.6949 62.644 20.1309 63.4724 19.7152C64.3042 19.2926 65.1578 18.9141 66.0298 18.5813C66.8466 18.2877 67.6432 18.0226 68.4806 17.7656C69.3023 17.5349 70.1041 17.2389 70.8785 16.8806C71.3226 16.7172 71.7418 16.4935 72.1244 16.2158C72.4679 15.9602 72.7684 15.6518 73.0152 15.3022C73.1414 15.1621 73.2183 14.9845 73.2339 14.7966C73.2492 14.6087 73.2027 14.421 73.1007 14.2622C72.9458 14.0193 72.7101 13.8388 72.435 13.7524C72.1212 13.6431 71.7909 13.5893 71.4587 13.5933C71.0934 13.5955 70.7288 13.6254 70.3679 13.683C69.9963 13.7442 69.6776 13.8013 69.4121 13.8625C69.0278 13.9812 68.6623 14.1528 68.3254 14.3723C67.9821 14.5925 67.6432 14.825 67.3 15.0616C66.957 15.2981 66.6097 15.5265 66.2543 15.7468C65.9096 15.9675 65.5354 16.1391 65.1433 16.2566C64.8041 16.3487 64.4513 16.3791 64.1014 16.3463C63.7235 16.3154 63.3542 16.2173 63.011 16.0567C62.6544 15.9142 62.3181 15.7264 62.0101 15.4979C61.7249 15.2708 61.4828 14.9945 61.2952 14.6822C61.0297 14.1786 60.8358 13.6405 60.7191 13.0835C60.6021 12.5473 60.5868 11.9939 60.6743 11.4521C60.7931 10.8299 61.0436 10.2403 61.4094 9.72278C61.7639 9.20578 62.175 8.72972 62.635 8.30345C63.347 7.65019 64.139 7.08968 64.9919 6.63532C65.8498 6.17831 66.7608 5.82898 67.7045 5.59531C68.6375 5.33088 69.5962 5.16679 70.5641 5.10588C71.5347 5.04751 72.5084 5.06251 73.4766 5.15075C74.4203 5.2105 75.3576 5.34691 76.279 5.55859C77.2002 5.76784 78.095 6.07975 78.9465 6.48851C79.7269 6.8203 80.4244 7.32031 80.989 7.95271C81.727 8.81141 82.2719 9.81842 82.5863 10.9056C82.9105 12.0028 83.1483 13.1238 83.2971 14.2581C83.4771 15.8638 83.5302 17.4812 83.4563 19.0952C83.38 20.7266 83.3133 22.358 83.256 23.9894C83.1939 24.9871 83.3141 25.9878 83.6114 26.9423C83.9041 27.8972 84.1414 28.8681 84.3222 29.8502C84.4092 30.3937 84.3309 30.9504 84.0977 31.4491C83.9151 31.9016 83.6363 32.3093 83.2806 32.6442C82.9142 32.9823 82.5034 33.2689 82.0593 33.4966ZM69.5225 23.9079C69.3711 24.3157 69.3875 24.5768 69.5673 24.7521C69.7793 24.9442 70.057 25.0479 70.3434 25.0417C70.717 25.0506 71.0882 24.9825 71.4341 24.8419C71.8172 24.6938 72.1651 24.4673 72.4555 24.1771C72.53 24.1022 72.6121 24.0352 72.7005 23.9772C72.8025 23.9038 72.8557 23.8344 72.8557 23.7774C72.8843 23.2716 72.9129 22.7944 72.9455 22.3336C72.975 21.8641 73.0337 21.3968 73.1212 20.9346C72.676 21.2324 72.2348 21.5138 71.7895 21.7789C71.3338 22.052 70.9019 22.3631 70.4988 22.7088C70.2853 22.864 70.092 23.0448 69.9227 23.2471C69.7513 23.4422 69.6158 23.6659 69.5225 23.9079Z" fill="white"/>
<path d="M94.7717 34.83C94.054 34.9728 93.3149 34.9716 92.5975 34.8266C91.88 34.6815 91.1987 34.3958 90.5928 33.986C90.1172 33.6876 89.7084 33.2949 89.392 32.8317C88.418 31.322 87.6838 29.671 87.2145 27.9375C86.7693 26.2467 86.5092 24.5127 86.4384 22.7659C86.3607 21.004 86.3567 19.238 86.4139 17.4638C86.4737 15.9249 86.5555 14.4009 86.6589 12.8918C86.7635 11.374 86.949 9.86279 87.2145 8.36464C87.3596 7.43145 87.5824 6.51196 87.8805 5.61573C88.0305 5.14288 88.2163 4.68205 88.4359 4.23717C88.652 3.80359 88.9635 3.42436 89.3469 3.12782C89.7303 2.80737 90.1932 2.59603 90.6867 2.51604C91.1869 2.42785 91.6914 2.36794 92.1982 2.33659C93.0144 2.3099 93.8304 2.40056 94.6206 2.60577C95.3878 2.79004 96.1173 3.10459 96.7776 3.53568C97.384 3.93523 97.8926 4.46641 98.2644 5.0896C98.6389 5.74876 98.7825 6.51363 98.673 7.26343C98.6117 7.82628 98.53 8.37281 98.428 8.89484C98.3257 9.41689 98.1991 9.95935 98.0521 10.4936C97.6926 11.913 97.3739 13.3554 97.0962 14.8209C96.8186 16.2865 96.6143 17.7629 96.4834 19.2502C96.3522 20.7255 96.3086 22.2072 96.3528 23.6877C96.3938 25.164 96.5646 26.6338 96.8634 28.0802C96.9818 28.643 97.1084 29.2058 97.2393 29.7687C97.3748 30.3362 97.4568 30.9152 97.4843 31.498C97.484 31.7881 97.469 32.0782 97.4392 32.3668C97.4074 32.6537 97.317 32.9314 97.174 33.1825C96.9602 33.633 96.6195 34.0115 96.1933 34.2715C95.7605 34.5483 95.2777 34.7382 94.7717 34.83Z" fill="white"/>
<path d="M7.57343 3.56875C4.40753 3.51573 1.91976 6.78262 2.47941 9.8619C2.76117 8.4821 3.37102 7.19017 4.25754 6.09495C5.14409 4.99972 6.28133 4.13331 7.57343 3.56875Z" fill="white"/>
<path d="M1.89499 4.10229C-0.302752 5.18717 -0.625468 8.58868 1.11883 10.2813C0.734842 8.00135 0.591867 6.44337 1.89499 4.10229Z" fill="white"/>
<path d="M17.2637 45.0263C21.7572 45.1855 25.1477 40.6012 24.4002 36.2778C24.0149 38.2065 23.1632 40.0118 21.9194 41.5365C20.6756 43.0613 19.0773 44.2592 17.2637 45.0263Z" fill="white"/>
<path d="M20.3379 45.1034C23.1974 46.4005 26.6002 43.8474 26.7228 40.821C24.9172 43.0603 23.128 44.3611 20.3379 45.1034Z" fill="white"/>
<path d="M127.576 15.8002C127.334 14.8108 127.006 13.8445 126.595 12.9126C126.192 11.9823 125.655 11.1154 125.002 10.3391C124.255 9.46852 123.365 8.73074 122.371 8.15706C121.616 7.72041 120.795 7.40654 119.941 7.22716C119.687 7.1694 119.431 7.12447 119.173 7.09258C117.575 6.85472 115.954 6.82458 114.348 7.00283C113.188 7.12791 112.029 7.30194 110.872 7.52489C110.422 7.61053 109.973 7.70435 109.524 7.80224C108.495 8.04006 107.513 8.4481 106.619 9.00948C105.719 9.57124 104.928 10.2928 104.287 11.1385C103.731 11.8447 103.279 12.626 102.943 13.4591C102.607 14.2934 102.318 15.1458 102.077 16.0123C101.653 17.712 101.438 19.4568 101.436 21.2083C101.432 22.9618 101.656 24.7083 102.101 26.4044C102.337 27.2319 102.634 28.0404 102.992 28.8229C103.343 29.5986 103.774 30.3354 104.279 31.0214C104.692 31.5779 105.169 32.0844 105.7 32.5302C105.949 32.7383 106.207 32.9382 106.472 33.1136C106.769 33.3193 107.076 33.5097 107.391 33.6845C107.984 34.0226 108.606 34.3055 109.25 34.5288C109.741 34.6973 110.241 34.8334 110.749 34.9365C111.925 35.185 113.128 35.2809 114.328 35.2223C115.598 35.196 116.859 35.0096 118.082 34.6675C119.305 34.3303 120.468 33.8059 121.53 33.1136C122.568 32.4352 123.504 31.6108 124.307 30.6666C125.114 29.7151 125.794 28.6637 126.33 27.5382C127.192 25.7442 127.727 23.8103 127.906 21.8283C128.106 19.8139 127.995 17.7807 127.576 15.8002ZM117.281 25.0544C116.689 25.2973 116.055 25.422 115.414 25.4215C114.197 25.4184 113.025 24.9635 112.125 24.1452C111.226 23.3268 110.663 22.2037 110.547 20.9942C110.431 19.7846 110.77 18.5752 111.497 17.6012C112.225 16.6272 113.289 15.9583 114.484 15.7245C115.678 15.4907 116.917 15.7088 117.959 16.3363C119.001 16.9639 119.772 17.956 120.122 19.1198C120.472 20.2835 120.376 21.5356 119.852 22.6325C119.329 23.7294 118.415 24.5927 117.289 25.0544H117.281Z" fill="white"/>
<path d="M113 8.97269V15.376C114.55 14.7834 116.266 14.7834 117.816 15.376V8.94821C117.288 8.88263 116.756 8.84992 116.223 8.85035H114.81C114.204 8.84966 113.6 8.89054 113 8.97269Z" fill="#FFD300"/>
<path d="M110.875 6.729V8.63366C112.15 8.24645 113.476 8.04992 114.809 8.05044H116.222C117.481 8.04651 118.734 8.2195 119.944 8.56434V6.729H110.875Z" fill="white"/>
<path d="M115.409 22.6517C116.595 22.6517 117.557 21.6912 117.557 20.5064C117.557 19.3216 116.595 18.3611 115.409 18.3611C114.222 18.3611 113.26 19.3216 113.26 20.5064C113.26 21.6912 114.222 22.6517 115.409 22.6517Z" fill="#FFD300"/>
<path d="M117.273 25.0539C116.681 25.2968 116.046 25.4215 115.406 25.421C114.97 25.4206 114.536 25.3631 114.115 25.2497C113.245 27.3664 111.088 31.2737 106.472 33.1172C104.954 33.7138 103.347 34.0516 101.717 34.1163C101.435 34.1163 101.149 34.1163 100.855 34.1163C100.525 34.1163 100.209 34.2472 99.9757 34.4801C99.7425 34.713 99.6113 35.0288 99.6113 35.3582C99.6113 35.6876 99.7425 36.0037 99.9757 36.2366C100.209 36.4694 100.525 36.6003 100.855 36.6003H101.235C104.039 36.5818 106.793 35.8656 109.25 34.5162C114.311 31.706 116.648 26.8403 117.281 25.0376L117.273 25.0539Z" fill="#FFD300"/>
<path d="M100.463 36.9506C101.584 36.846 102.422 36.0052 102.335 35.0722C102.248 34.1392 101.269 33.4674 100.147 33.5717C99.0267 33.6763 98.1888 34.5171 98.2757 35.4501C98.363 36.3831 99.3425 37.0549 100.463 36.9506Z" fill="#FFD300"/>
<path d="M95.8223 -0.000583825C98.9882 -0.0536047 101.48 3.21328 100.916 6.29257C100.635 4.91279 100.025 3.62083 99.1381 2.52561C98.2517 1.43039 97.1144 0.563981 95.8223 -0.000583825Z" fill="white"/>
<path d="M101.5 0.533691C103.698 1.61858 104.02 5.02007 102.276 6.71264C102.664 4.43277 102.803 2.87476 101.5 0.533691Z" fill="white"/>
</g>
</svg>
