<svg width="128" height="46" viewBox="0 0 128 46" fill="none" xmlns="http://www.w3.org/2000/svg">
<mask id="mask0_9023_7009" style="mask-type:luminance" maskUnits="userSpaceOnUse" x="0" y="0" width="128" height="46">
<path d="M128 0H0V45.451H128V0Z" fill="white"/>
</mask>
<g mask="url(#mask0_9023_7009)">
<path d="M17.1984 42.0614C16.38 42.355 15.5029 42.4471 14.6412 42.3307C13.8348 42.2275 13.0608 41.9493 12.374 41.515C11.7061 41.086 11.1625 40.4896 10.7972 39.7857C10.4057 39.0429 10.2356 38.2035 10.307 37.367C10.3642 36.8614 10.4418 36.3473 10.5276 35.8131C10.6152 35.2887 10.7338 34.7697 10.883 34.2592C11.1553 33.0139 11.4671 31.8012 11.8184 30.6212C12.1697 29.4411 12.5401 28.2421 12.9295 27.024C11.991 26.8248 11.1283 26.3637 10.4418 25.6944C9.76341 25.0767 9.1859 24.357 8.73016 23.5613C8.26855 22.7456 7.8478 21.9299 7.45972 21.1142C6.65763 19.3271 6.02575 17.4686 5.57243 15.5633C5.12047 13.6592 4.89559 11.7083 4.9025 9.75143C4.90519 9.04905 5.0895 8.35924 5.43764 7.74888C5.78041 7.10989 6.25855 6.55317 6.83879 6.11748C7.39913 5.67508 8.03029 5.33035 8.70566 5.09784C9.36089 4.86501 10.0527 4.75172 10.7482 4.76339C11.4095 4.77697 12.0607 4.9284 12.6599 5.20795C13.2708 5.49296 13.7992 5.92796 14.1959 6.47229C14.459 6.84924 14.668 7.2611 14.8168 7.69586C14.9619 8.13291 15.0806 8.57828 15.1722 9.02952C15.4086 10.2271 15.506 11.4478 15.4623 12.6676C15.4187 13.883 15.3969 15.1065 15.3969 16.3382C15.3969 16.5462 15.3969 16.8481 15.4418 17.2478C15.4351 17.5419 15.5288 17.8295 15.7074 18.0635C15.7543 18.0915 15.8079 18.1063 15.8626 18.1063C15.9173 18.1063 15.9709 18.0915 16.0178 18.0635C16.1248 18.0099 16.2285 17.95 16.3283 17.884C16.4662 17.7284 16.5855 17.5574 16.6837 17.3742C16.8307 17.1213 16.9819 16.8562 17.129 16.5585C17.276 16.2607 17.419 16.0038 17.5375 15.7428L17.8275 15.1636C18.1257 14.5151 18.5301 13.6627 19.053 12.6146C19.5759 11.5664 20.1437 10.5182 20.7646 9.48226C21.353 8.49709 22.0225 7.5626 22.7663 6.68845C23.2953 5.98656 24.0243 5.46057 24.8578 5.17941C26.349 4.78642 27.9341 4.97605 29.29 5.70961C29.7578 5.94371 30.1854 6.25073 30.5564 6.61913C30.9225 6.99088 31.2259 7.41917 31.455 7.88755C31.8725 8.70903 32.0156 9.64227 31.8636 10.5508C31.7734 11.1428 31.6171 11.7228 31.3978 12.2801C31.186 12.8277 30.932 13.3582 30.6382 13.8666C30.0713 14.8223 29.4336 15.7344 28.7304 16.5952L26.5939 19.1932C25.9181 20.0423 25.2947 20.9317 24.7271 21.8565C24.1487 22.7921 23.6526 23.776 23.2442 24.7971C22.8004 25.9785 22.4588 27.1956 22.223 28.4351C21.9819 29.6587 21.7614 30.9231 21.553 32.167C21.3774 33.2314 21.1895 34.3043 20.9975 35.3849C20.8055 36.4658 20.589 37.5222 20.3561 38.558C20.1884 39.3032 19.8532 40.0004 19.3757 40.5974C18.8051 41.2833 18.0495 41.7912 17.1984 42.0614Z" fill="black"/>
<path d="M55.3835 33.4965C54.493 33.9201 53.5088 34.1111 52.5241 34.051C51.5334 34.0215 50.5596 33.7866 49.6645 33.3618C49.145 33.0827 48.6844 32.706 48.3082 32.2523C47.9378 31.8068 47.6272 31.3147 47.3851 30.7883C46.6913 31.4537 45.8956 32.0044 45.0282 32.4196C44.1524 32.8481 43.2278 33.1685 42.2749 33.374C41.2035 33.6176 40.1041 33.7149 39.0067 33.6635C37.922 33.6308 36.8587 33.352 35.898 32.8478C35.0208 32.3861 34.2716 31.7149 33.7165 30.8943C33.3051 30.3647 32.9962 29.7631 32.8058 29.1202C32.6139 28.47 32.503 27.7988 32.4749 27.1217C32.4501 26.0776 32.6289 25.0386 33.0017 24.0628C33.3542 23.0836 33.8893 22.1799 34.5787 21.3995C35.1979 20.7094 35.9387 20.1385 36.7639 19.7151C37.5941 19.2918 38.4464 18.9133 39.3173 18.5813C40.1179 18.2876 40.9348 18.0157 41.7681 17.7655C42.591 17.5341 43.3942 17.2382 44.1703 16.8805C44.6072 16.7157 45.0195 16.492 45.3957 16.2157C45.7401 15.9612 46.0409 15.6527 46.2862 15.3021C46.4136 15.1661 46.494 14.9928 46.5154 14.8077C46.5367 14.6227 46.498 14.4357 46.4047 14.2743C46.2521 14.0352 46.021 13.8565 45.7511 13.7686C45.4359 13.6598 45.1042 13.606 44.7707 13.6095C44.4067 13.6115 44.0435 13.6415 43.684 13.6993C43.3125 13.7604 42.9938 13.8175 42.7282 13.8787C42.3425 13.9966 41.9753 14.1682 41.6375 14.3885C41.2942 14.6088 40.9553 14.8413 40.6164 15.0778C40.2772 15.3144 39.9258 15.5427 39.5704 15.763C39.2251 15.983 38.8515 16.1545 38.4594 16.2728C38.1191 16.3651 37.7648 16.3955 37.4135 16.3625C37.0355 16.3317 36.6663 16.2336 36.323 16.0729C35.9699 15.9244 35.6377 15.7312 35.3343 15.4979C35.0494 15.2718 34.8084 14.9953 34.6235 14.6822C34.3571 14.1786 34.1618 13.6406 34.0436 13.0834C33.9098 12.5047 33.9011 11.9042 34.0179 11.3219C34.1349 10.7396 34.3747 10.1889 34.7214 9.70637C35.0786 9.19128 35.4894 8.71549 35.9471 8.28705C36.6596 7.63477 37.4516 7.07434 38.304 6.61894C39.1621 6.16245 40.0732 5.81315 41.0165 5.57891C41.9495 5.31441 42.9082 5.15032 43.8762 5.0895C44.8467 5.03117 45.8205 5.04616 46.7887 5.13435C47.7309 5.1941 48.6668 5.33051 49.5871 5.54221C50.5192 5.74583 51.4253 6.05508 52.2872 6.46396C53.0688 6.79372 53.7669 7.29402 54.3297 7.92816C55.0691 8.78662 55.6152 9.7936 55.931 10.881C56.2532 11.9788 56.491 13.0996 56.6418 14.2335C56.8128 15.8399 56.8594 17.4571 56.7808 19.0707C56.7071 20.7021 56.6404 22.3335 56.5805 23.9649C56.5181 24.9626 56.6386 25.9632 56.9359 26.9178C57.2324 27.8716 57.4696 28.8428 57.6467 29.8258C57.7351 30.3687 57.6583 30.9255 57.426 31.4245C57.2416 31.8761 56.9631 32.2835 56.6091 32.6196C56.2436 32.9674 55.831 33.2627 55.3835 33.4965ZM42.8467 23.9078C42.6996 24.3157 42.7158 24.5767 42.8915 24.752C43.1053 24.944 43.3844 25.0476 43.6719 25.0416C44.0441 25.0509 44.4139 24.9828 44.7583 24.8418C45.142 24.6947 45.4902 24.4681 45.7797 24.177C45.856 24.1042 45.938 24.0373 46.0247 23.9771C46.1311 23.9037 46.1802 23.8344 46.1802 23.7773C46.2085 23.2715 46.2414 22.7944 46.27 22.3335C46.3007 21.8639 46.3608 21.3967 46.4498 20.9345C46.0057 21.2337 45.5604 21.5151 45.1137 21.7788C44.6586 22.051 44.2281 22.3621 43.8271 22.7087C43.6132 22.8649 43.4185 23.0456 43.2469 23.2471C43.077 23.4431 42.9418 23.6666 42.8467 23.9078Z" fill="black"/>
<path d="M82.0573 33.4966C81.1662 33.919 80.1827 34.1097 79.1977 34.051C78.2069 34.0222 77.2332 33.7872 76.3383 33.3619C75.8183 33.084 75.3574 32.7069 74.9821 32.2524C74.6001 31.8089 74.2785 31.3165 74.0262 30.7883C73.3322 31.4538 72.5365 32.0045 71.6691 32.4197C69.8011 33.3186 67.7404 33.7459 65.6681 33.6636C64.582 33.6309 63.5175 33.3521 62.5554 32.8479C61.6787 32.387 60.9304 31.7158 60.3782 30.8944C59.9647 30.3659 59.6556 29.7638 59.4672 29.1203C58.9702 27.4587 59.0422 25.6791 59.6715 24.0629C60.0306 23.0754 60.5741 22.1648 61.2728 21.3792C61.8972 20.6949 62.6421 20.1309 63.4704 19.7152C64.3023 19.2926 65.1558 18.9141 66.0278 18.5813C66.8447 18.2877 67.6413 18.0226 68.4786 17.7656C69.3004 17.5349 70.1022 17.2389 70.8765 16.8806C71.3206 16.7172 71.7399 16.4935 72.1224 16.2158C72.466 15.9602 72.7665 15.6518 73.0132 15.3022C73.1395 15.1621 73.2164 14.9845 73.232 14.7966C73.2473 14.6087 73.2008 14.421 73.0988 14.2622C72.9439 14.0193 72.7081 13.8388 72.433 13.7524C72.1193 13.6431 71.789 13.5893 71.4567 13.5933C71.0915 13.5955 70.7269 13.6254 70.366 13.683C69.9944 13.7442 69.6757 13.8013 69.4102 13.8625C69.0259 13.9812 68.6604 14.1528 68.3235 14.3723C67.9802 14.5925 67.6413 14.825 67.298 15.0616C66.955 15.2981 66.6077 15.5265 66.2523 15.7468C65.9076 15.9675 65.5335 16.1391 65.1414 16.2566C64.8022 16.3487 64.4494 16.3791 64.0995 16.3463C63.7215 16.3154 63.3523 16.2173 63.009 16.0567C62.6525 15.9142 62.3161 15.7264 62.0081 15.4979C61.7229 15.2708 61.4808 14.9945 61.2933 14.6822C61.0278 14.1786 60.8339 13.6405 60.7171 13.0835C60.6001 12.5473 60.5848 11.9939 60.6724 11.4521C60.7911 10.8299 61.0416 10.2403 61.4074 9.72278C61.7619 9.20578 62.1731 8.72972 62.6331 8.30345C63.345 7.65019 64.137 7.08968 64.99 6.63532C65.8478 6.17831 66.7589 5.82898 67.7025 5.59531C68.6355 5.33088 69.5942 5.16679 70.5622 5.10588C71.5327 5.04751 72.5064 5.06251 73.4747 5.15075C74.4183 5.2105 75.3557 5.34691 76.2771 5.55859C77.1982 5.76784 78.0931 6.07975 78.9446 6.48851C79.725 6.8203 80.4225 7.32031 80.9871 7.95271C81.725 8.81141 82.27 9.81842 82.5843 10.9056C82.9085 12.0028 83.1463 13.1238 83.2951 14.2581C83.4751 15.8638 83.5283 17.4812 83.4543 19.0952C83.3781 20.7266 83.3113 22.358 83.2541 23.9894C83.192 24.9871 83.3122 25.9878 83.6095 26.9423C83.9022 27.8972 84.1394 28.8681 84.3203 29.8502C84.4073 30.3937 84.3289 30.9504 84.0958 31.4492C83.9132 31.9016 83.6343 32.3093 83.2787 32.6442C82.9123 32.9823 82.5014 33.2689 82.0573 33.4966ZM69.5205 23.9079C69.3691 24.3157 69.3856 24.5768 69.5653 24.7521C69.7774 24.9442 70.0551 25.0479 70.3414 25.0417C70.715 25.0506 71.0863 24.9825 71.4322 24.8419C71.8153 24.6938 72.1632 24.4673 72.4536 24.1771C72.5281 24.1022 72.6102 24.0352 72.6986 23.9772C72.8006 23.9038 72.8537 23.8344 72.8537 23.7774C72.8823 23.2716 72.9109 22.7944 72.9436 22.3336C72.9731 21.8641 73.0317 21.3968 73.1193 20.9346C72.674 21.2324 72.2328 21.5138 71.7875 21.7789C71.3319 22.052 70.8999 22.3631 70.4969 22.7088C70.2833 22.864 70.09 23.0448 69.9207 23.2471C69.7494 23.4422 69.6139 23.6659 69.5205 23.9079Z" fill="black"/>
<path d="M94.7717 34.83C94.054 34.9728 93.3149 34.9716 92.5975 34.8266C91.88 34.6815 91.1987 34.3958 90.5928 33.986C90.1172 33.6876 89.7084 33.2949 89.392 32.8317C88.418 31.322 87.6838 29.671 87.2145 27.9375C86.7693 26.2467 86.5092 24.5127 86.4385 22.7659C86.3607 21.004 86.3567 19.238 86.4139 17.4638C86.4737 15.9249 86.5555 14.4009 86.6589 12.8918C86.7635 11.374 86.949 9.86278 87.2145 8.36464C87.3596 7.43145 87.5824 6.51196 87.8805 5.61573C88.0305 5.14288 88.2163 4.68205 88.4359 4.23717C88.652 3.80359 88.9635 3.42436 89.3469 3.12782C89.7303 2.80737 90.1932 2.59603 90.6867 2.51604C91.1869 2.42785 91.6914 2.36794 92.1982 2.33659C93.0144 2.3099 93.8304 2.40056 94.6206 2.60577C95.3878 2.79004 96.1173 3.10459 96.7776 3.53568C97.384 3.93523 97.8926 4.46641 98.2644 5.0896C98.6389 5.74876 98.7825 6.51363 98.673 7.26343C98.6117 7.82628 98.53 8.37281 98.428 8.89484C98.3257 9.41689 98.1991 9.95935 98.0521 10.4936C97.6926 11.913 97.3739 13.3554 97.0963 14.8209C96.8186 16.2865 96.6143 17.7629 96.4834 19.2502C96.3522 20.7255 96.3086 22.2072 96.3528 23.6877C96.3938 25.164 96.5646 26.6338 96.8634 28.0802C96.9818 28.643 97.1084 29.2058 97.2393 29.7687C97.3748 30.3362 97.4568 30.9152 97.4843 31.498C97.484 31.7881 97.469 32.0782 97.4392 32.3668C97.4074 32.6537 97.317 32.9314 97.174 33.1825C96.9602 33.633 96.6195 34.0115 96.1933 34.2715C95.7605 34.5483 95.2777 34.7382 94.7717 34.83Z" fill="black"/>
<path d="M7.57149 3.56851C4.40558 3.51549 1.91781 6.78238 2.47746 9.86166C2.75922 8.48186 3.36907 7.18993 4.25559 6.0947C5.14215 4.99948 6.27938 4.13307 7.57149 3.56851Z" fill="black"/>
<path d="M1.895 4.10278C-0.302745 5.18766 -0.625461 8.58917 1.11884 10.2817C0.73485 8.00184 0.591874 6.44385 1.895 4.10278Z" fill="black"/>
<path d="M17.2656 45.0266C21.7591 45.1858 25.1497 40.6015 24.4022 36.2781C24.0168 38.2067 23.1652 40.012 21.9214 41.5368C20.6775 43.0615 19.0792 44.2594 17.2656 45.0266Z" fill="black"/>
<path d="M20.3359 45.1039C23.1955 46.4009 26.5983 43.8479 26.7208 40.8215C24.9152 43.0608 23.126 44.3616 20.3359 45.1039Z" fill="black"/>
<path d="M127.578 15.7998C127.336 14.8104 127.008 13.8442 126.597 12.9123C126.194 11.9819 125.657 11.115 125.004 10.3387C124.257 9.46815 123.367 8.73038 122.373 8.15669C121.618 7.72005 120.797 7.40617 119.943 7.2268C119.689 7.16904 119.433 7.12411 119.175 7.09221C117.577 6.85435 115.956 6.82422 114.35 7.00246C113.19 7.12755 112.031 7.30157 110.874 7.52452C110.424 7.61016 109.975 7.70398 109.526 7.80187C108.497 8.0397 107.515 8.44774 106.621 9.00912C105.72 9.57087 104.93 10.2924 104.289 11.1381C103.733 11.8443 103.281 12.6257 102.945 13.4588C102.609 14.293 102.32 15.1454 102.079 16.0119C101.655 17.7116 101.44 19.4564 101.438 21.208C101.434 22.9614 101.658 24.708 102.103 26.404C102.338 27.2315 102.636 28.04 102.994 28.8226C103.345 29.5983 103.776 30.3351 104.281 31.021C104.694 31.5775 105.171 32.084 105.702 32.5299C105.951 32.7379 106.209 32.9378 106.474 33.1132C106.771 33.3189 107.078 33.5094 107.393 33.6842C107.985 34.0222 108.608 34.3051 109.252 34.5284C109.743 34.6969 110.243 34.833 110.751 34.9361C111.927 35.1846 113.13 35.2806 114.33 35.2219C115.6 35.1956 116.861 35.0092 118.084 34.6671C119.307 34.3299 120.47 33.8055 121.532 33.1132C122.57 32.4348 123.506 31.6105 124.309 30.6662C125.116 29.7147 125.796 28.6634 126.332 27.5378C127.194 25.7438 127.729 23.81 127.908 21.8279C128.108 19.8135 127.997 17.7804 127.578 15.7998ZM117.283 25.054C116.691 25.2969 116.057 25.4216 115.416 25.4211C114.199 25.418 113.027 24.9631 112.127 24.1448C111.228 23.3265 110.665 22.2033 110.549 20.9938C110.433 19.7843 110.772 18.5749 111.499 17.6009C112.227 16.6269 113.291 15.9579 114.485 15.7241C115.68 15.4903 116.919 15.7084 117.961 16.3359C119.003 16.9635 119.774 17.9557 120.124 19.1194C120.474 20.2831 120.378 21.5353 119.854 22.6322C119.331 23.7291 118.417 24.5923 117.291 25.054H117.283Z" fill="black"/>
<path d="M113 8.97244V15.3757C114.55 14.7832 116.266 14.7832 117.816 15.3757V8.94797C117.288 8.88238 116.756 8.84967 116.223 8.85011H114.81C114.204 8.84941 113.6 8.8903 113 8.97244Z" fill="#FFD300"/>
<path d="M110.875 6.72925V8.63391C112.15 8.2467 113.476 8.05016 114.809 8.05068H116.222C117.481 8.04675 118.734 8.21974 119.944 8.56459V6.72925H110.875Z" fill="black"/>
<path d="M115.407 22.6516C116.593 22.6516 117.555 21.6911 117.555 20.5063C117.555 19.3215 116.593 18.361 115.407 18.361C114.22 18.361 113.258 19.3215 113.258 20.5063C113.258 21.6911 114.22 22.6516 115.407 22.6516Z" fill="#FFD300"/>
<path d="M117.271 25.0542C116.679 25.2971 116.045 25.4218 115.404 25.4212C114.968 25.4209 114.534 25.3633 114.113 25.2499C113.243 27.3667 111.086 31.274 106.47 33.1174C104.952 33.7141 103.345 34.0518 101.715 34.1166C101.433 34.1166 101.147 34.1166 100.853 34.1166C100.523 34.1166 100.207 34.2475 99.9737 34.4803C99.7405 34.7132 99.6094 35.029 99.6094 35.3584C99.6094 35.6878 99.7405 36.0039 99.9737 36.2368C100.207 36.4697 100.523 36.6006 100.853 36.6006H101.233C104.037 36.5821 106.792 35.8658 109.248 34.5165C114.309 31.7062 116.646 26.8406 117.279 25.0378L117.271 25.0542Z" fill="#FFD300"/>
<path d="M100.463 36.9508C101.584 36.8462 102.422 36.0054 102.335 35.0724C102.248 34.1394 101.269 33.4676 100.147 33.572C99.0267 33.6766 98.1888 34.5174 98.2757 35.4503C98.363 36.3833 99.3425 37.0551 100.463 36.9508Z" fill="#FFD300"/>
<path d="M95.8203 -0.000461755C98.9862 -0.0534826 101.478 3.21341 100.914 6.29269C100.633 4.91292 100.023 3.62095 99.1362 2.52573C98.2497 1.43051 97.1124 0.564103 95.8203 -0.000461755Z" fill="black"/>
<path d="M101.5 0.533936C103.698 1.61882 104.02 5.02031 102.276 6.71289C102.664 4.43301 102.803 2.87501 101.5 0.533936Z" fill="black"/>
</g>
</svg>
